<?xml version="1.0" encoding="UTF-8"?>
<svg width="247px" height="48px" viewBox="0 0 247 48" version="1.1" xmlns="http://www.w3.org/2000/svg" xmlns:xlink="http://www.w3.org/1999/xlink">
    <!-- Generator: Sketch 55.1 (78136) - https://sketchapp.com -->
    <title>CBS_Interactive_Logo</title>
    <desc>Created with Sketch.</desc>
    <g id="Landingpage---v2" stroke="none" stroke-width="1" fill="none" fill-rule="evenodd">
        <g id="ABM-Landing-Page---Media---CBS-Interactive" transform="translate(-421.000000, -785.000000)" fill-rule="nonzero">
            <g id="Group-5-Copy" transform="translate(355.000000, 719.000000)">
                <g id="CBS_Interactive_Logo" transform="translate(66.000000, 66.000000)">
                    <g id="Group">
                        <path d="M46.8396178,23.9524948 C46.8396178,37.1396289 36.5776815,47.8599588 23.4514565,47.8599588 C10.388034,47.8599588 0.000246284501,37.1396289 0.000246284501,23.9524948 C0.000246284501,10.8920412 10.388034,0.140041237 23.4514565,0.140041237 C36.5776815,0.140041237 46.8396178,10.8920412 46.8396178,23.9524948 Z M1.63680679,23.9524948 C4.9419448,30.9414433 12.7171465,37.7720412 23.4512102,37.7720412 C34.1222251,37.7720412 41.9602293,30.9414433 45.2653673,23.9524948 C41.9602293,17.0585567 34.1535032,10.2596289 23.4512102,10.2596289 C12.7171465,10.2596289 4.94219108,17.0585567 1.63680679,23.9524948 Z M23.4512102,11.3346804 C16.4944119,11.3346804 10.8286369,17.0268866 10.8286369,23.9524948 C10.8286369,31.0042887 16.4631338,36.6336495 23.4512102,36.6336495 C30.4077622,36.6336495 36.0111105,31.0042887 36.0111105,23.9524948 C36.042259,17.0268866 30.4077622,11.3346804 23.4512102,11.3346804 Z" id="Shape" fill="#EE2824"></path>
                        <g transform="translate(58.615711, 13.855670)" fill="#000000">
                            <path d="M0.0278301486,10.3811134 C0.0278301486,4.30936082 4.65526964,0.230103093 10.7618938,0.230103093 C15.8927389,0.230103093 18.4740467,3.2345567 19.6387261,5.92230928 L14.5391592,8.29410309 C14.0355074,6.77616495 12.524552,5.448 10.7618938,5.448 C7.92888323,5.448 6.00860297,7.63002062 6.00860297,10.3496907 C6.00860297,13.0693608 7.89735881,15.2513814 10.7618938,15.2513814 C12.524552,15.2513814 14.0355074,13.9229691 14.5391592,12.4055258 L19.6387261,14.7454021 C18.5053248,17.3698144 15.8927389,20.4695258 10.7618938,20.4695258 C4.65526964,20.5326186 0.0278301486,16.4211959 0.0278301486,10.3811134 Z" id="Path"></path>
                            <path d="M21.0553546,20.1847423 L21.0553546,0.577979381 L32.9225732,0.577979381 C36.9517877,0.577979381 38.7146921,3.29764948 38.7146921,5.57443299 C38.7146921,8.00956701 37.2667856,9.65393814 35.3780297,10.0651546 C37.4869639,10.3811134 39.0924926,12.3421856 39.0924926,14.8718351 C39.0924926,17.5915052 37.2350149,20.1847423 33.3318981,20.1847423 L21.0553546,20.1847423 L21.0553546,20.1847423 Z M32.733673,6.61830928 C32.733673,5.95397938 32.1669724,5.51134021 31.5689936,5.51134021 L27.004603,5.51134021 L27.004603,7.82004124 L31.5689936,7.82004124 C32.1984968,7.78837113 32.733673,7.34548454 32.733673,6.61830928 Z M33.1429979,14.0179794 C33.1429979,13.3224742 32.6078217,12.7529072 31.7578938,12.7529072 L27.004603,12.7529072 L27.004603,15.2513814 L31.7578938,15.2513814 C32.5762972,15.2513814 33.1429979,14.7454021 33.1429979,14.0179794 Z" id="Shape"></path>
                            <path d="M39.7217495,17.4331546 L42.8064628,13.0374433 C44.2546157,14.4606186 46.4581231,15.5673402 49.1022335,15.5673402 C50.2038641,15.5673402 51.2742166,15.283299 51.2742166,14.5239588 C51.2742166,12.6267216 40.3827771,14.5553814 40.3827771,6.80783505 C40.3827771,3.48742268 43.1212144,0.293443299 48.5040085,0.293443299 C51.6832951,0.293443299 54.5793546,1.21039175 56.782862,3.0131134 L53.6348535,7.21905155 C51.9349979,5.92230928 49.7314904,5.29014433 47.9057834,5.29014433 C46.741104,5.29014433 46.4263524,5.66969072 46.4263524,6.1756701 C46.4263524,8.04148454 57.2862675,6.42853608 57.2862675,13.7336907 C57.2862675,18.0660619 54.1069809,20.5642887 48.8502845,20.5642887 C44.6008917,20.5326186 41.7678811,19.2994639 39.7217495,17.4331546 Z" id="Path"></path>
                        </g>
                    </g>
                    <g id="Group" transform="translate(126.000000, 14.000000)" fill="#000000">
                        <polygon id="Path" points="0.187562372 19.6536585 0.187562372 0.0141463415 1.89541922 0.0141463415 1.89541922 19.6536585"></polygon>
                        <path d="M15.6844703,19.6536585 L15.6844703,10.0209756 C15.6844703,7.27756098 14.2930941,6.46707317 12.205411,6.46707317 C10.3396851,6.46707317 8.44203885,7.6204878 7.52501227,8.89853659 L7.52501227,19.6536585 L5.97527198,19.6536585 L5.97527198,5.43829268 L7.52501227,5.43829268 L7.52501227,7.58926829 C8.56873006,6.34219512 10.6244928,5.09536585 12.711681,5.09536585 C15.6527975,5.09536585 17.2339632,6.49804878 17.2339632,9.70902439 L17.2339632,19.6534146 C17.2025378,19.6536585 15.6844703,19.6536585 15.6844703,19.6536585 Z" id="Path"></path>
                        <path d="M21.4090818,16.9102439 L21.4090818,6.77878049 L19.0054131,6.77878049 L19.0054131,5.43829268 L21.4090818,5.43829268 L21.4090818,1.54170732 L22.9904949,1.54170732 L22.9904949,5.43829268 L25.8999387,5.43829268 L25.8999387,6.77878049 L22.9904949,6.77878049 L22.9904949,16.6604878 C22.9904949,17.8141463 23.4645971,18.5931707 24.477137,18.5931707 C25.1727014,18.5931707 25.7734949,18.2817073 26.0902229,17.907561 L26.6907689,19.0921951 C26.1218957,19.622439 25.4260838,19.964878 24.2554274,19.964878 C22.3575337,19.9965854 21.4090818,18.8434146 21.4090818,16.9102439 Z" id="Path"></path>
                        <path d="M27.101773,12.514878 C27.101773,8.4 30.0428896,5.06439024 34.0593967,5.06439024 C38.4554826,5.06439024 40.8589039,8.49341463 40.8589039,12.6082927 L40.8589039,13.0136585 L28.8093824,13.0136585 C28.967499,16.1 31.0546871,18.6563415 34.438728,18.6563415 C36.2730286,18.6563415 37.9175399,17.9702439 39.1512945,16.6921951 L39.9418773,17.6897561 C38.5185808,19.155122 36.6842802,19.9968293 34.3122843,19.9968293 C30.0745624,19.9965854 27.101773,16.9102439 27.101773,12.514878 Z M34.0279714,6.40463415 C30.6122577,6.40463415 28.9360736,9.33512195 28.8096299,11.8287805 L39.2779857,11.8287805 C39.2460654,9.39731707 37.6015542,6.40463415 34.0279714,6.40463415 Z" id="Shape"></path>
                        <path d="M43.8319407,19.6536585 L43.8319407,5.43829268 L45.3819284,5.43829268 L45.3819284,7.87 C46.6149407,6.28 48.2596994,5.12658537 50.252364,5.12658537 L50.252364,6.81 C49.999229,6.74780488 49.7780143,6.74780488 49.4617812,6.74780488 C48.0068119,6.74780488 46.0146421,8.05707317 45.3821759,9.27292683 L45.3821759,19.6229268 L43.8321881,19.6229268 L43.8321881,19.6536585 L43.8319407,19.6536585 Z" id="Path"></path>
                        <path d="M61.6377464,19.6536585 L61.6377464,17.9702439 C60.3408937,19.3417073 58.7278078,19.9968293 56.7353906,19.9968293 C54.2683763,19.9968293 51.6751656,18.3134146 51.6751656,15.2582927 C51.6751656,12.1719512 54.2052781,10.5507317 56.7353906,10.5507317 C58.7278078,10.5507317 60.372319,11.2058537 61.6377464,12.5773171 L61.6377464,9.70926829 C61.6377464,7.5895122 59.8982168,6.43609756 57.7474356,6.43609756 C55.9448078,6.43609756 54.5534315,7.0597561 53.2249059,8.52463415 L52.3712249,7.46487805 C53.8576196,5.87487805 55.5338037,5.09560976 57.9374724,5.09560976 C60.8471636,5.09560976 63.1874867,6.46731707 63.1874867,9.64707317 L63.1874867,19.6539024 L61.6377464,19.6539024 L61.6377464,19.6536585 Z M61.6377464,16.8478049 L61.6377464,13.7304878 C60.6257014,12.4214634 59.012863,11.7663415 57.2730859,11.7663415 C54.8694172,11.7663415 53.3196769,13.2631707 53.3196769,15.2895122 C53.3196769,17.2841463 54.8694172,18.7807317 57.2730859,18.7807317 C59.0126155,18.8119512 60.5940286,18.1573171 61.6377464,16.8478049 Z" id="Shape"></path>
                        <path d="M66.1283558,12.514878 C66.1283558,8.36878049 68.9113558,5.06439024 73.1493252,5.06439024 C75.6480123,5.06439024 77.1029816,6.03073171 78.2412229,7.46487805 L77.1658323,8.4 C76.122362,6.99731707 74.7938364,6.43585366 73.2124233,6.43585366 C69.828135,6.43585366 67.7728671,9.08560976 67.7728671,12.4831707 C67.7728671,15.8812195 69.8283824,18.5621951 73.2124233,18.5621951 C74.7938364,18.5621951 76.122362,17.97 77.1658323,16.5670732 L78.2412229,17.5021951 C77.0710613,18.967561 75.6480123,19.9341463 73.1493252,19.9341463 C68.9113558,19.9965854 66.1283558,16.6921951 66.1283558,12.514878 Z" id="Path"></path>
                        <path d="M81.9412495,16.9102439 L81.9412495,6.77878049 L79.5380757,6.77878049 L79.5380757,5.43829268 L81.9412495,5.43829268 L81.9412495,1.54170732 L83.5226626,1.54170732 L83.5226626,5.43829268 L86.464274,5.43829268 L86.464274,6.77878049 L83.5226626,6.77878049 L83.5226626,16.6604878 C83.5226626,17.8141463 83.9972597,18.5931707 85.0093047,18.5931707 C85.705364,18.5931707 86.3061575,18.2817073 86.6223906,17.907561 L87.2234315,19.0921951 C86.6540634,19.622439 85.9582515,19.964878 84.78809,19.964878 C82.8270982,19.9965854 81.9412495,18.8434146 81.9412495,16.9102439 Z" id="Path"></path>
                        <path d="M88.8043497,2.0404878 C88.8043497,1.38560976 89.3737178,0.887073171 90.006184,0.887073171 C90.6705706,0.887073171 91.207771,1.38585366 91.207771,2.0404878 C91.207771,2.69512195 90.6703231,3.22512195 90.006184,3.22512195 C89.3737178,3.19390244 88.8043497,2.66390244 88.8043497,2.0404878 Z M89.2156012,19.6536585 L89.2156012,5.43829268 L90.765589,5.43829268 L90.765589,19.6536585 L89.2156012,19.6536585 Z" id="Shape"></path>
                        <polygon id="Path" points="98.861454 19.6536585 92.7575112 5.43829268 94.4970409 5.43829268 99.7470552 17.8458537 104.933724 5.43829268 106.704679 5.43829268 100.600736 19.6536585"></polygon>
                        <path d="M107.242622,12.514878 C107.242622,8.4 110.183738,5.06439024 114.200245,5.06439024 C118.596331,5.06439024 120.999753,8.49341463 120.999753,12.6082927 L120.999753,13.0136585 L108.918558,13.0136585 C109.076675,16.1 111.163863,18.6563415 114.547904,18.6563415 C116.382204,18.6563415 118.026716,17.9702439 119.26047,16.6921951 L120.051053,17.6897561 C118.627757,19.155122 116.793456,19.9968293 114.421213,19.9968293 C110.246836,19.9965854 107.242622,16.9102439 107.242622,12.514878 Z M114.137147,6.40463415 C110.721434,6.40463415 109.045249,9.33512195 108.918806,11.8287805 L119.387162,11.8287805 C119.355489,9.39731707 117.774076,6.40463415 114.137147,6.40463415 Z" id="Shape"></path>
                    </g>
                </g>
            </g>
        </g>
    </g>
</svg>