<svg xmlns="http://www.w3.org/2000/svg" viewBox="0 0 210 210"><defs><style>.cls-1{isolation:isolate}.cls-2,.cls-3,.cls-5{mix-blend-mode:screen}.cls-3,.cls-4,.cls-6{fill:none;stroke:#50a3fc}.cls-3,.cls-4{stroke-linecap:round;stroke-linejoin:round}.cls-5{opacity:.8}.cls-6{stroke-miterlimit:10}</style></defs><title>Snowplow_Website-Product_Icon_React-Multi3Party</title><g class="cls-1"><g id="Layer_2" data-name="Layer 2"><g class="cls-2"><polyline class="cls-3" points="85 70.36 105 105 145 105"/><polyline class="cls-4" points="85 139.64 105 105 145 105"/><polyline class="cls-3" points="85 139.64 105 105 85 70.35"/></g><polygon class="cls-4" points="125 139.64 145 105 125 70.36 85 70.36 65 105 85 139.64 125 139.64"/><g class="cls-2"><g class="cls-2"><path class="cls-4" d="M145,105l26.43-45.77a13.72,13.72,0,0,0,0-12.37L158.57,24.58a13.72,13.72,0,0,0-10.71-6.19H122.14a13.72,13.72,0,0,0-10.71,6.19L85,70.36"/></g><path class="cls-4" d="M145,105l26.43,45.77a13.72,13.72,0,0,1,0,12.37l-12.86,22.27a13.72,13.72,0,0,1-10.71,6.19H122.14a13.73,13.73,0,0,1-10.71-6.19L85,139.64"/><g class="cls-2"><path class="cls-4" d="M85,70.35H32.19a13.72,13.72,0,0,0-10.71,6.19L8.62,98.81a13.73,13.73,0,0,0,0,12.37l12.86,22.27a13.72,13.72,0,0,0,10.71,6.19H85"/></g></g></g><g id="Layer_1" data-name="Layer 1"><g class="cls-5"><path class="cls-6" d="M138.28,37.75a10.45,10.45,0,0,1,8.15,4.71l33.4,57.84a10.44,10.44,0,0,1,0,9.42l-33.39,57.82a10.45,10.45,0,0,1-8.16,4.71H71.48a10.45,10.45,0,0,1-8.16-4.71L29.93,109.72a10.44,10.44,0,0,1,0-9.42L63.32,42.46a10.45,10.45,0,0,1,8.15-4.71h66.8Z"/></g><g class="cls-5"><path class="cls-6" d="M101.22,105.75a6.67,6.67,0,0,1,5.2,3l21.31,36.92a6.66,6.66,0,0,1,0,6l-21.31,36.9a6.67,6.67,0,0,1-5.21,3H58.59a6.67,6.67,0,0,1-5.21-3l-21.31-36.9a6.67,6.67,0,0,1,0-6l21.31-36.92a6.67,6.67,0,0,1,5.2-3h42.63Z"/></g><g class="cls-5"><path class="cls-6" d="M135,88.5a13.73,13.73,0,0,1-10.72-6.19l-9.69-16.79a13.73,13.73,0,0,1,0-12.38l9.69-16.78A13.73,13.73,0,0,1,135,30.19h19.38a13.73,13.73,0,0,1,10.72,6.19l9.69,16.78a13.72,13.72,0,0,1,0,12.38l-9.69,16.79a13.73,13.73,0,0,1-10.72,6.19H135Z"/></g><g class="cls-5"><path class="cls-6" d="M160.64,112.86A4.7,4.7,0,0,1,164.3,115l3,5.25a4.7,4.7,0,0,1,0,4.23l-3,5.24a4.7,4.7,0,0,1-3.67,2.12h-6.06a4.7,4.7,0,0,1-3.67-2.12l-3-5.24a4.7,4.7,0,0,1,0-4.23l3-5.25a4.7,4.7,0,0,1,3.67-2.12h6.06Z"/></g><g class="cls-5"><path class="cls-6" d="M174.11,143.6a2.51,2.51,0,0,1,2,1.13l1.62,2.8a2.51,2.51,0,0,1,0,2.26l-1.62,2.8a2.51,2.51,0,0,1-2,1.13h-3.24a2.51,2.51,0,0,1-2-1.13l-1.62-2.8a2.51,2.51,0,0,1,0-2.26l1.62-2.8a2.51,2.51,0,0,1,2-1.13h3.24Z"/></g><g class="cls-5"><path class="cls-6" d="M168.37,122.34a8.35,8.35,0,0,1,6.52,3.76l3.26,5.64a8.35,8.35,0,0,1,0,7.52l-3.26,5.64a8.35,8.35,0,0,1-6.52,3.76h-6.52a8.35,8.35,0,0,1-6.52-3.76l-3.26-5.64a8.35,8.35,0,0,1,0-7.52l3.26-5.64a8.35,8.35,0,0,1,6.52-3.76h6.52Z"/></g><g class="cls-5"><path class="cls-6" d="M53.68,62.17A4.7,4.7,0,0,1,50,60.05l-3-5.25a4.69,4.69,0,0,1,0-4.23l3-5.24a4.7,4.7,0,0,1,3.67-2.12h6.06a4.7,4.7,0,0,1,3.67,2.12l3,5.24a4.7,4.7,0,0,1,0,4.23l-3,5.25a4.7,4.7,0,0,1-3.67,2.12H53.68Z"/></g><g class="cls-5"><path class="cls-6" d="M55.08,83.09a2.51,2.51,0,0,1-2-1.13l-1.62-2.8a2.51,2.51,0,0,1,0-2.26l1.62-2.8a2.51,2.51,0,0,1,2-1.13h3.24a2.51,2.51,0,0,1,2,1.13l1.62,2.8a2.51,2.51,0,0,1,0,2.26L60.28,82a2.51,2.51,0,0,1-2,1.13H55.08Z"/></g><g class="cls-5"><path class="cls-6" d="M45.94,79a8.35,8.35,0,0,1-6.52-3.76l-3.26-5.64a8.35,8.35,0,0,1,0-7.52l3.26-5.64a8.35,8.35,0,0,1,6.52-3.76h6.52A8.35,8.35,0,0,1,59,56.46l3.26,5.64a8.35,8.35,0,0,1,0,7.52L59,75.26A8.35,8.35,0,0,1,52.46,79H45.94Z"/></g></g></g></svg>