<svg xmlns="http://www.w3.org/2000/svg" viewBox="0 0 210 210"><defs><style>.cls-1{isolation:isolate}.cls-2,.cls-3,.cls-4,.cls-7{fill:none;stroke-linecap:round;stroke-linejoin:round}.cls-2,.cls-3{stroke:#50a3fc}.cls-2{mix-blend-mode:screen}.cls-4{stroke:#a7d1fd}.cls-5{opacity:.2}.cls-6{fill:#50a3fc}.cls-7{stroke:#8bc2fd;mix-blend-mode:hue}.cls-8{fill:#8bc2fd}</style></defs><title>Snowplow_Website-Product_Icon_React-Speed</title><g class="cls-1"><g id="Layer_6" data-name="Layer 6"><polyline class="cls-2" points="85 70.36 105 105 145 105"/><polyline class="cls-3" points="85 139.64 105 105 145 105"/><polyline class="cls-2" points="85 139.64 105 105 85 70.35"/><polygon class="cls-3" points="125 139.64 145 105 125 70.36 85 70.36 65 105 85 139.64 125 139.64"/><path class="cls-3" d="M109.25,92.45a5.76,5.76,0,0,1,4.5,2.6L118,102.4a5.76,5.76,0,0,1,0,5.2L113.75,115a5.77,5.77,0,0,1-4.5,2.6h-8.5a5.77,5.77,0,0,1-4.5-2.6L92,107.6a5.76,5.76,0,0,1,0-5.2L96.25,95a5.76,5.76,0,0,1,4.5-2.6h8.5Z"/><path class="cls-3" d="M88,61.69a3.84,3.84,0,0,1,3,1.73l3,5.2a3.84,3.84,0,0,1,0,3.46l-3,5.19A3.84,3.84,0,0,1,88,79H82a3.84,3.84,0,0,1-3-1.73l-3-5.19a3.84,3.84,0,0,1,0-3.46l3-5.2a3.84,3.84,0,0,1,3-1.73h6Z"/><path class="cls-4" d="M77.32,65.59a1.92,1.92,0,0,1,1.5.87l1.75,3a1.92,1.92,0,0,1,0,1.73l-1.75,3a1.92,1.92,0,0,1-1.5.87h-3.5a1.92,1.92,0,0,1-1.5-.87l-1.75-3a1.92,1.92,0,0,1,0-1.73l1.75-3a1.92,1.92,0,0,1,1.5-.87h3.5Z"/><path class="cls-4" d="M138.17,100a1.92,1.92,0,0,1,1.5.87l1.75,3a1.92,1.92,0,0,1,0,1.73l-1.75,3a1.92,1.92,0,0,1-1.5.87h-3.5a1.92,1.92,0,0,1-1.5-.87l-1.75-3a1.92,1.92,0,0,1,0-1.73l1.75-3a1.92,1.92,0,0,1,1.5-.87h3.5Z"/><path class="cls-4" d="M76,134.07a1.92,1.92,0,0,1,1.5.87l1.75,3a1.92,1.92,0,0,1,0,1.73l-1.75,3a1.92,1.92,0,0,1-1.5.87h-3.5a1.92,1.92,0,0,1-1.5-.87l-1.75-3a1.92,1.92,0,0,1,0-1.73l1.75-3a1.92,1.92,0,0,1,1.5-.87H76Z"/><path class="cls-3" d="M87.22,130.34a3.84,3.84,0,0,1,3,1.73l3,5.2a3.84,3.84,0,0,1,0,3.46l-3,5.19a3.84,3.84,0,0,1-3,1.73h-6a3.84,3.84,0,0,1-3-1.73l-3-5.19a3.84,3.84,0,0,1,0-3.46l3-5.2a3.84,3.84,0,0,1,3-1.73h6Z"/><path class="cls-3" d="M148,96.1a3.84,3.84,0,0,1,3,1.73l3,5.2a3.84,3.84,0,0,1,0,3.46l-3,5.19a3.84,3.84,0,0,1-3,1.73h-6a3.84,3.84,0,0,1-3-1.73l-3-5.19a3.84,3.84,0,0,1,0-3.46l3-5.2a3.84,3.84,0,0,1,3-1.73h6Z"/></g><g id="Layer_5" data-name="Layer 5"><g class="cls-5"><path class="cls-6" d="M182.35,140.76a2.28,2.28,0,0,1,1.78,1l7.28,12.6a2.28,2.28,0,0,1,0,2.05L184.13,169a2.28,2.28,0,0,1-1.78,1H167.8a2.28,2.28,0,0,1-1.78-1l-7.28-12.6a2.28,2.28,0,0,1,0-2.05l7.28-12.6a2.28,2.28,0,0,1,1.78-1h14.56Z"/></g><g class="cls-5"><path class="cls-6" d="M147.69,30.1a2.28,2.28,0,0,1,1.78,1l7.28,12.61a2.28,2.28,0,0,1,0,2.05l-7.28,12.6a2.28,2.28,0,0,1-1.78,1H133.13a2.28,2.28,0,0,1-1.78-1l-7.28-12.6a2.28,2.28,0,0,1,0-2.05l7.28-12.61a2.28,2.28,0,0,1,1.78-1h14.56Z"/></g><g class="cls-5"><path class="cls-6" d="M71.17,151.72a1.87,1.87,0,0,1,1.46.84l6,10.37a1.87,1.87,0,0,1,0,1.69l-6,10.37a1.87,1.87,0,0,1-1.46.84h-12a1.87,1.87,0,0,1-1.46-.84l-6-10.37a1.87,1.87,0,0,1,0-1.69l6-10.37a1.87,1.87,0,0,1,1.46-.84h12Z"/></g><g class="cls-5"><path class="cls-6" d="M67,101a0.62,0.62,0,0,1,.48.28l2,3.42a0.62,0.62,0,0,1,0,.56l-2,3.42A0.62,0.62,0,0,1,67,109H63a0.62,0.62,0,0,1-.48-0.28l-2-3.42a0.62,0.62,0,0,1,0-.56l2-3.42A0.62,0.62,0,0,1,63,101H67Z"/></g><g class="cls-5"><path class="cls-6" d="M40.51,41.78a0.62,0.62,0,0,1,.48.28l1.39,2.42a0.62,0.62,0,0,1,0,.56L41,47.44a0.62,0.62,0,0,1-.48.28H37.72a0.62,0.62,0,0,1-.48-0.28L35.85,45a0.62,0.62,0,0,1,0-.56l1.39-2.42a0.62,0.62,0,0,1,.48-0.28h2.79Z"/></g><g class="cls-5"><path class="cls-6" d="M30.31,118.34a0.62,0.62,0,0,1,.48.28l0.83,1.43a0.62,0.62,0,0,1,0,.56L30.79,122a0.62,0.62,0,0,1-.48.28H28.65a0.62,0.62,0,0,1-.48-0.28l-0.83-1.43a0.62,0.62,0,0,1,0-.56l0.83-1.43a0.62,0.62,0,0,1,.48-0.28h1.65Z"/></g><g class="cls-5"><path class="cls-6" d="M130.39,62.1a0.62,0.62,0,0,1,.48.28l0.83,1.43a0.62,0.62,0,0,1,0,.56l-0.83,1.43a0.62,0.62,0,0,1-.48.28h-1.65a0.62,0.62,0,0,1-.48-0.28l-0.83-1.43a0.62,0.62,0,0,1,0-.56l0.83-1.43a0.62,0.62,0,0,1,.48-0.28h1.65Z"/></g><g class="cls-5"><path class="cls-6" d="M147,131.69a0.62,0.62,0,0,1,.48.28l2,3.42a0.62,0.62,0,0,1,0,.56l-2,3.42a0.62,0.62,0,0,1-.48.28H143a0.62,0.62,0,0,1-.48-0.28l-2-3.42a0.62,0.62,0,0,1,0-.56l2-3.42a0.62,0.62,0,0,1,.48-0.28H147Z"/></g><g class="cls-5"><path class="cls-6" d="M45.06,34.71a0.62,0.62,0,0,1,.48.28l2.58,4.46a0.62,0.62,0,0,1,0,.56l-2.58,4.46a0.62,0.62,0,0,1-.48.28H39.9a0.62,0.62,0,0,1-.48-0.28L36.85,40a0.62,0.62,0,0,1,0-.56L39.42,35a0.62,0.62,0,0,1,.48-0.28h5.15Z"/></g><g class="cls-5"><path class="cls-6" d="M160.73,150.28a0.62,0.62,0,0,1,.48.28l2.58,4.46a0.62,0.62,0,0,1,0,.56L161.21,160a0.62,0.62,0,0,1-.48.28h-5.15a0.62,0.62,0,0,1-.48-0.28l-2.58-4.46a0.62,0.62,0,0,1,0-.56l2.58-4.46a0.62,0.62,0,0,1,.48-0.28h5.15Z"/></g><g class="cls-5"><path class="cls-6" d="M160.5,90a1.11,1.11,0,0,1,.87.5l3.55,6.15a1.11,1.11,0,0,1,0,1l-3.55,6.15a1.11,1.11,0,0,1-.87.5h-7.1a1.11,1.11,0,0,1-.87-0.5L149,97.64a1.11,1.11,0,0,1,0-1l3.55-6.15a1.11,1.11,0,0,1,.87-0.5h7.1Z"/></g><g class="cls-5"><path class="cls-6" d="M75.73,168.69a1.11,1.11,0,0,1,.87.5l3.55,6.15a1.11,1.11,0,0,1,0,1l-3.55,6.15a1.11,1.11,0,0,1-.87.5h-7.1a1.11,1.11,0,0,1-.87-0.5l-3.55-6.15a1.11,1.11,0,0,1,0-1l3.55-6.15a1.11,1.11,0,0,1,.87-0.5h7.1Z"/></g><g class="cls-5"><path class="cls-6" d="M32.07,87.68a1.11,1.11,0,0,1,.87.5l4.89,8.46a1.11,1.11,0,0,1,0,1l-4.89,8.46a1.11,1.11,0,0,1-.87.5H22.3a1.11,1.11,0,0,1-.87-0.5l-4.88-8.46a1.11,1.11,0,0,1,0-1l4.88-8.46a1.11,1.11,0,0,1,.87-0.5h9.77Z"/></g><g class="cls-5"><path class="cls-6" d="M115.56,83.73a3.3,3.3,0,0,1,2.58,1.49l10.56,18.29a3.3,3.3,0,0,1,0,3l-10.56,18.29a3.3,3.3,0,0,1-2.58,1.49H94.44a3.3,3.3,0,0,1-2.58-1.49L81.3,106.49a3.3,3.3,0,0,1,0-3L91.86,85.22a3.3,3.3,0,0,1,2.58-1.49h21.13Z"/></g><polyline class="cls-2" points="85 70.36 105 105 145 105"/><polyline class="cls-3" points="85 139.64 105 105 145 105"/><polyline class="cls-2" points="85 139.64 105 105 85 70.35"/><polygon class="cls-3" points="125 139.64 145 105 125 70.36 85 70.36 65 105 85 139.64 125 139.64"/></g><g id="Layer_2" data-name="Layer 2"><line class="cls-7" x1="23.15" y1="158.76" x2="67.25" y2="158.76"/><line class="cls-7" x1="53.15" y1="168.76" x2="130.92" y2="168.76"/><line class="cls-7" x1="60.15" y1="46.76" x2="106.25" y2="46.76"/><line class="cls-7" x1="104.15" y1="79.76" x2="146.25" y2="79.76"/><line class="cls-7" x1="9.15" y1="123.76" x2="34.25" y2="123.76"/><line class="cls-7" x1="122.15" y1="183.76" x2="147.25" y2="183.76"/><line class="cls-7" x1="122.15" y1="24.76" x2="147.25" y2="24.76"/><line class="cls-7" x1="26.15" y1="52.76" x2="51" y2="52.76"/><line class="cls-7" x1="18.15" y1="29.76" x2="55.5" y2="29.76"/><line class="cls-7" x1="64.15" y1="24.76" x2="79.5" y2="24.76"/><line class="cls-7" x1="162.15" y1="104.76" x2="177.5" y2="104.76"/><line class="cls-7" x1="25.15" y1="95.76" x2="69.15" y2="95.76"/><line class="cls-7" x1="131.2" y1="119.76" x2="163.92" y2="119.76"/><path class="cls-8" d="M39.77,120a1.86,1.86,0,0,1,1.45.84l1.2,2.07a1.85,1.85,0,0,1,0,1.67l-1.2,2.07a1.86,1.86,0,0,1-1.45.84H37.38a1.86,1.86,0,0,1-1.45-.84l-1.2-2.07a1.85,1.85,0,0,1,0-1.67l1.2-2.07a1.86,1.86,0,0,1,1.45-.84h2.39Z"/><path class="cls-8" d="M72.77,155a1.86,1.86,0,0,1,1.45.84l1.2,2.07a1.85,1.85,0,0,1,0,1.67l-1.2,2.07a1.85,1.85,0,0,1-1.45.84H70.38a1.86,1.86,0,0,1-1.45-.84l-1.2-2.07a1.85,1.85,0,0,1,0-1.67l1.2-2.07a1.86,1.86,0,0,1,1.45-.84h2.39Z"/><path class="cls-8" d="M135.89,165a1.85,1.85,0,0,1,1.45.84l1.2,2.07a1.86,1.86,0,0,1,0,1.67l-1.2,2.07a1.85,1.85,0,0,1-1.45.84H133.5a1.86,1.86,0,0,1-1.45-.84l-1.2-2.07a1.85,1.85,0,0,1,0-1.67l1.2-2.07a1.86,1.86,0,0,1,1.45-.84h2.39Z"/><path class="cls-8" d="M153.08,180a1.85,1.85,0,0,1,1.45.84l1.2,2.07a1.86,1.86,0,0,1,0,1.67l-1.2,2.07a1.85,1.85,0,0,1-1.45.84h-2.39a1.86,1.86,0,0,1-1.45-.84L148,184.6a1.85,1.85,0,0,1,0-1.67l1.2-2.07a1.86,1.86,0,0,1,1.45-.84h2.39Z"/><path class="cls-8" d="M169.43,116a1.85,1.85,0,0,1,1.45.84l1.2,2.07a1.85,1.85,0,0,1,0,1.67l-1.2,2.07a1.85,1.85,0,0,1-1.45.84H167a1.86,1.86,0,0,1-1.45-.84l-1.2-2.07a1.85,1.85,0,0,1,0-1.67l1.2-2.07A1.86,1.86,0,0,1,167,116h2.39Z"/><path class="cls-8" d="M178.7,101a1.85,1.85,0,0,1,1.45.84l1.2,2.07a1.85,1.85,0,0,1,0,1.67l-1.19,2.07a1.86,1.86,0,0,1-1.45.84H176.3a1.86,1.86,0,0,1-1.45-.84l-1.2-2.07a1.85,1.85,0,0,1,0-1.67l1.2-2.07a1.86,1.86,0,0,1,1.45-.84h2.39Z"/><path class="cls-8" d="M147.45,76a1.85,1.85,0,0,1,1.45.84l1.2,2.07a1.85,1.85,0,0,1,0,1.67l-1.19,2.07a1.86,1.86,0,0,1-1.45.84h-2.39a1.86,1.86,0,0,1-1.45-.84l-1.2-2.07a1.85,1.85,0,0,1,0-1.67l1.2-2.07a1.86,1.86,0,0,1,1.45-.84h2.39Z"/><path class="cls-8" d="M70.52,92a1.85,1.85,0,0,1,1.45.84l1.2,2.07a1.85,1.85,0,0,1,0,1.67L72,98.67a1.85,1.85,0,0,1-1.45.84H68.13a1.86,1.86,0,0,1-1.45-.84l-1.2-2.07a1.85,1.85,0,0,1,0-1.67l1.2-2.07A1.86,1.86,0,0,1,68.13,92h2.39Z"/><path class="cls-8" d="M52.66,49a1.86,1.86,0,0,1,1.45.84l1.2,2.07a1.85,1.85,0,0,1,0,1.67l-1.2,2.07a1.86,1.86,0,0,1-1.45.84H50.27a1.86,1.86,0,0,1-1.45-.84l-1.2-2.07a1.85,1.85,0,0,1,0-1.67l1.2-2.07A1.86,1.86,0,0,1,50.27,49h2.39Z"/><path class="cls-8" d="M57,26a1.86,1.86,0,0,1,1.45.84l1.2,2.07a1.85,1.85,0,0,1,0,1.67l-1.2,2.07A1.86,1.86,0,0,1,57,33.5H54.6a1.86,1.86,0,0,1-1.45-.84L52,30.6a1.85,1.85,0,0,1,0-1.67l1.2-2.07A1.86,1.86,0,0,1,54.6,26H57Z"/><path class="cls-8" d="M81.09,21a1.85,1.85,0,0,1,1.45.84l1.2,2.07a1.85,1.85,0,0,1,0,1.67l-1.2,2.07a1.85,1.85,0,0,1-1.45.84H78.7a1.85,1.85,0,0,1-1.45-.84l-1.2-2.07a1.85,1.85,0,0,1,0-1.67l1.2-2.07A1.85,1.85,0,0,1,78.7,21h2.39Z"/><path class="cls-8" d="M107.45,43a1.86,1.86,0,0,1,1.45.84l1.2,2.07a1.85,1.85,0,0,1,0,1.67l-1.2,2.07a1.85,1.85,0,0,1-1.45.84h-2.39a1.86,1.86,0,0,1-1.45-.84l-1.2-2.07a1.85,1.85,0,0,1,0-1.67l1.2-2.07a1.86,1.86,0,0,1,1.45-.84h2.39Z"/><path class="cls-8" d="M148.75,21a1.86,1.86,0,0,1,1.45.84l1.2,2.07a1.85,1.85,0,0,1,0,1.67l-1.2,2.07a1.85,1.85,0,0,1-1.45.84h-2.39a1.86,1.86,0,0,1-1.45-.84l-1.2-2.07a1.85,1.85,0,0,1,0-1.67l1.2-2.07a1.86,1.86,0,0,1,1.45-.84h2.39Z"/></g></g></svg>