<?xml version="1.0" encoding="UTF-8"?>
<svg width="34px" height="34px" viewBox="0 0 34 34" version="1.1" xmlns="http://www.w3.org/2000/svg" xmlns:xlink="http://www.w3.org/1999/xlink">
    <!-- Generator: Sketch 55.1 (78136) - https://sketchapp.com -->
    <title>calendar-icon-red</title>
    <desc>Created with Sketch.</desc>
    <g id="Snowplow-Website" stroke="none" stroke-width="1" fill="none" fill-rule="evenodd">
        <g id="Snowplow-Webinar-listing" transform="translate(-1727.000000, -789.000000)" fill="#F88298" fill-rule="nonzero">
            <g id="calendar-icon-red" transform="translate(1727.000000, 789.000000)">
                <path d="M30.1040802,34 L3.89591982,34 C1.74679569,34 -2.84217094e-14,32.2532043 -2.84217094e-14,30.1040802 L-2.84217094e-14,6.72908018 C-2.84217094e-14,4.57995605 1.74679569,2.83341982 3.89591982,2.83341982 L30.1040802,2.83341982 C32.2532043,2.83341982 34,4.57995605 34,6.72908018 L34,30.1040802 C34,32.2532043 32.2532043,34 30.1040802,34 Z M3.89591982,4.95841982 C2.9197998,4.95841982 2.125,5.75296017 2.125,6.72908018 L2.125,30.1040802 C2.125,31.0802002 2.9197998,31.875 3.89591982,31.875 L30.1040802,31.875 C31.0802002,31.875 31.875,31.0802002 31.875,30.1040802 L31.875,6.72908018 C31.875,5.75296017 31.0802002,4.95841982 30.1040802,4.95841982 L3.89591982,4.95841982 Z" id="Shape"></path>
                <path d="M32.9375,13.4584198 L1.0625,13.4584198 C0.475997941,13.4584198 0,12.9824219 0,12.3959198 C0,11.8094178 0.475997941,11.3334198 1.0625,11.3334198 L32.9375,11.3334198 C33.5240021,11.3334198 34,11.8094178 34,12.3959198 C34,12.9824219 33.5240021,13.4584198 32.9375,13.4584198 Z" id="Path"></path>
                <path d="M8.14591982,8.5 C7.55941776,8.5 7.08341982,8.02400206 7.08341982,7.4375 L7.08341982,1.0625 C7.08341982,0.475997941 7.55941776,0 8.14591982,0 C8.73242188,0 9.20841982,0.475997941 9.20841982,1.0625 L9.20841982,7.4375 C9.20841982,8.02400206 8.73242188,8.5 8.14591982,8.5 Z" id="Path"></path>
                <path d="M25.8540802,8.5 C25.2675781,8.5 24.7915802,8.02400206 24.7915802,7.4375 L24.7915802,1.0625 C24.7915802,0.475997941 25.2675781,0 25.8540802,0 C26.4405822,0 26.9165802,0.475997941 26.9165802,1.0625 L26.9165802,7.4375 C26.9165802,8.02400206 26.4405822,8.5 25.8540802,8.5 Z" id="Path"></path>
            </g>
        </g>
    </g>
</svg>