<?xml version="1.0" encoding="UTF-8"?>
<svg width="36px" height="36px" viewBox="0 0 36 36" version="1.1" xmlns="http://www.w3.org/2000/svg" xmlns:xlink="http://www.w3.org/1999/xlink">
    <!-- Generator: Sketch 55.1 (78136) - https://sketchapp.com -->
    <title>clock (1)</title>
    <desc>Created with Sketch.</desc>
    <g id="Landingpage---v2" stroke="none" stroke-width="1" fill="none" fill-rule="evenodd">
        <g id="Webinar-Landing-Page" transform="translate(-1289.000000, -238.000000)" fill="#5FDBCF" fill-rule="nonzero">
            <g id="Group-10" transform="translate(1052.000000, 200.000000)">
                <g id="clock-(1)" transform="translate(237.000000, 38.000000)">
                    <path d="M18,36 C8.07440189,36 0,27.9255981 0,18 C0,8.07440189 8.07440189,0 18,0 C27.9255981,0 36,8.07440189 36,18 C36,27.9255981 27.9255981,36 18,36 Z M18,2.25 C9.31503298,2.25 2.25,9.31503298 2.25,18 C2.25,26.684967 9.31503298,33.75 18,33.75 C26.684967,33.75 33.75,26.684967 33.75,18 C33.75,9.31503298 26.684967,2.25 18,2.25 Z" id="Shape"></path>
                    <path d="M26.3531965,27.5294118 C26.0518901,27.5294118 25.7508709,27.4225198 25.5216597,27.2073965 L17.2861422,19.5261813 C17.0649735,19.3198987 16.9411765,19.0404795 16.9411765,18.7508801 L16.9411765,8.50908117 C16.9411765,7.90336035 17.4682473,7.41176471 18.117679,7.41176471 C18.7671106,7.41176471 19.2941815,7.90336035 19.2941815,8.50908117 L19.2941815,18.2957188 L27.1847333,25.6551867 C27.6443046,26.0838259 27.6443046,26.7787573 27.1847333,27.2073965 C26.9555221,27.4225198 26.6545029,27.5294118 26.3531965,27.5294118 L26.3531965,27.5294118 Z" id="Path"></path>
                </g>
            </g>
        </g>
    </g>
</svg>