<?xml version="1.0" encoding="UTF-8"?>
<svg width="36px" height="36px" viewBox="0 0 36 36" version="1.1" xmlns="http://www.w3.org/2000/svg" xmlns:xlink="http://www.w3.org/1999/xlink">
    <!-- Generator: Sketch 55.1 (78136) - https://sketchapp.com -->
    <title>clock-icon-red</title>
    <desc>Created with Sketch.</desc>
    <g id="Snowplow-Website" stroke="none" stroke-width="1" fill="none" fill-rule="evenodd">
        <g id="Snowplow-Webinar-listing" transform="translate(-1666.000000, -798.000000)" fill="#F88298" fill-rule="nonzero">
            <g id="clock-icon-red" transform="translate(1666.000000, 798.000000)">
                <path d="M18,36 C8.07440189,36 0,27.9255981 0,18 C0,8.07440189 8.07440189,0 18,0 C27.9255981,0 36,8.07440189 36,18 C36,27.9255981 27.9255981,36 18,36 Z M18,2.25 C9.31503298,2.25 2.25,9.31503298 2.25,18 C2.25,26.684967 9.31503298,33.75 18,33.75 C26.684967,33.75 33.75,26.684967 33.75,18 C33.75,9.31503298 26.684967,2.25 18,2.25 Z" id="Shape"></path>
                <path d="M26.3531965,26.5294118 C26.0518901,26.5294118 25.7508709,26.4225198 25.5216597,26.2073965 L17.2861422,18.5261813 C17.0649735,18.3198987 16.9411765,18.0404795 16.9411765,17.7508801 L16.9411765,7.50908117 C16.9411765,6.90336035 17.4682473,6.41176471 18.117679,6.41176471 C18.7671106,6.41176471 19.2941815,6.90336035 19.2941815,7.50908117 L19.2941815,17.2957188 L27.1847333,24.6551867 C27.6443046,25.0838259 27.6443046,25.7787573 27.1847333,26.2073965 C26.9555221,26.4225198 26.6545029,26.5294118 26.3531965,26.5294118 L26.3531965,26.5294118 Z" id="Path"></path>
            </g>
        </g>
    </g>
</svg>