<?xml version="1.0" encoding="utf-8"?>
<!-- Generator: Adobe Illustrator 23.0.1, SVG Export Plug-In . SVG Version: 6.00 Build 0)  -->
<svg version="1.1" xmlns="http://www.w3.org/2000/svg" xmlns:xlink="http://www.w3.org/1999/xlink" x="0px" y="0px"
	 viewBox="0 0 138.5 122.5" style="enable-background:new 0 0 138.5 122.5;" xml:space="preserve">
<style type="text/css">
	.st0{opacity:0;fill:#FFFFFF;}
	.st1{fill:none;stroke:#9E62DD;stroke-width:1.5;stroke-linecap:round;stroke-linejoin:round;}
	
		.st2{fill:none;stroke:#9E62DD;stroke-width:1.5;stroke-linecap:round;stroke-linejoin:round;stroke-dasharray:0,2.2787,2.2787,6.836;}
	
		.st3{fill:none;stroke:#9E62DD;stroke-width:1.5;stroke-linecap:round;stroke-linejoin:round;stroke-dasharray:0,2.253,2.253,6.759;}
	
		.st4{fill:none;stroke:#9E62DD;stroke-width:1.5;stroke-linecap:round;stroke-linejoin:round;stroke-dasharray:0,2.3879,2.3879,7.1636;}
	.st5{fill:none;stroke:#6738B8;stroke-width:1.5;stroke-linecap:round;stroke-linejoin:round;stroke-miterlimit:10;}
	.st6{fill:none;stroke:#28D1B1;stroke-width:1.5;stroke-linecap:round;stroke-linejoin:round;stroke-miterlimit:10;}
	
		.st7{fill:none;stroke:#9E62DD;stroke-width:1.5;stroke-linecap:round;stroke-linejoin:round;stroke-dasharray:18.804,9.402,0,4.701,4.701,14.103;}
</style>
<g id="Layer_2">
	<rect id="XMLID_18_" x="-31.1" y="-44.2" class="st0" width="210" height="210"/>
</g>
<g id="Layer_4">
	<g id="XMLID_20_">
		<g id="XMLID_13_">
			<g id="XMLID_14_">
				<g>
					<line class="st1" x1="97.9" y1="60.8" x2="107.9" y2="60.8"/>
					<line class="st2" x1="112.5" y1="60.8" x2="120.4" y2="60.8"/>
					<line class="st1" x1="123.9" y1="60.8" x2="133.9" y2="60.8"/>
				</g>
			</g>
		</g>
		<g id="XMLID_12_">
			<g>
				<line class="st1" x1="35.9" y1="5.8" x2="41.1" y2="14.3"/>
				<line class="st3" x1="43.4" y1="18.1" x2="47.5" y2="24.9"/>
				<line class="st1" x1="49.3" y1="27.7" x2="54.5" y2="36.3"/>
			</g>
		</g>
		<g id="XMLID_11_">
			<g>
				<line class="st1" x1="36.9" y1="117.8" x2="41.8" y2="109"/>
				<line class="st4" x1="44.1" y1="104.9" x2="48.2" y2="97.6"/>
				<line class="st1" x1="50" y1="94.5" x2="54.9" y2="85.8"/>
			</g>
		</g>
		<g id="XMLID_19_">
			<g id="XMLID_7_">
				<path class="st5" d="M58.9,86.7c-2.6,0-5.7-1.8-7-4L41.5,64.8c-1.3-2.2-1.3-5.8,0-8l10.4-17.9c1.3-2.2,4.4-4,7-4h20.7
					c2.6,0,5.7,1.8,7,4l10.4,17.9c1.3,2.2,1.3,5.8,0,8L86.5,82.7c-1.3,2.2-4.4,4-7,4H58.9z"/>
			</g>
			<g id="XMLID_4_">
				<path class="st6" d="M63,76.3c-1.5,0-3.4-1.1-4.2-2.4l-6.2-10.8c-0.8-1.3-0.8-3.5,0-4.8l6.2-10.8c0.8-1.3,2.6-2.4,4.2-2.4h12.4
					c1.5,0,3.4,1.1,4.2,2.4l6.2,10.8c0.8,1.3,0.8,3.5,0,4.8l-6.2,10.8c-0.8,1.3-2.6,2.4-4.2,2.4H63z"/>
			</g>
			<g id="XMLID_1_">
				<path class="st5" d="M67.1,65.9c-0.5,0-1.1-0.4-1.4-0.8l-2.1-3.6c-0.3-0.4-0.3-1.2,0-1.6l2.1-3.6c0.3-0.4,0.9-0.8,1.4-0.8h4.1
					c0.5,0,1.1,0.4,1.4,0.8l2.1,3.6c0.3,0.4,0.3,1.2,0,1.6l-2.1,3.6c-0.3,0.4-0.9,0.8-1.4,0.8H67.1z"/>
			</g>
		</g>
		<g id="XMLID_35_">
			<path class="st7" d="M39,121.8c-2.6,0-5.7-1.8-7-4L1.7,65.3c-1.3-2.2-1.3-5.8,0-8L32,4.8c1.3-2.2,4.4-4,7-4h60.6
				c2.6,0,5.7,1.8,7,4l30.3,52.5c1.3,2.2,1.3,5.8,0,8l-30.3,52.5c-1.3,2.2-4.4,4-7,4H39z"/>
		</g>
	</g>
</g>
</svg>
