<?xml version="1.0" encoding="utf-8"?>
<!-- Generator: Adobe Illustrator 23.0.1, SVG Export Plug-In . SVG Version: 6.00 Build 0)  -->
<svg version="1.1" id="Layer_4" xmlns="http://www.w3.org/2000/svg" xmlns:xlink="http://www.w3.org/1999/xlink" x="0px" y="0px"
	 viewBox="0 0 119.4 122.3" style="enable-background:new 0 0 119.4 122.3;" xml:space="preserve">
<style type="text/css">
	.st0{fill:none;stroke:#9E62DD;stroke-width:1.5;stroke-linecap:round;stroke-linejoin:round;}
	
		.st1{fill:none;stroke:#9E62DD;stroke-width:1.5;stroke-linecap:round;stroke-linejoin:round;stroke-dasharray:0,4.7209,4.7209,15.7362;}
	
		.st2{fill:none;stroke:#9E62DD;stroke-width:1.5;stroke-linecap:round;stroke-linejoin:round;stroke-dasharray:0,5.4865,5.4865,16.4594;}
	
		.st3{fill:none;stroke:#9E62DD;stroke-width:1.5;stroke-linecap:round;stroke-linejoin:round;stroke-dasharray:0,4.4854,4.4854,14.9513;}
	.st4{fill:none;stroke:#9E62DD;stroke-width:1.5;stroke-linecap:round;stroke-linejoin:round;stroke-dasharray:6.6992;}
	.st5{fill:none;stroke:#9E62DD;stroke-width:1.5;stroke-linecap:round;stroke-linejoin:round;stroke-dasharray:6.8759;}
	.st6{fill:none;stroke:#9E62DD;stroke-width:1.5;stroke-linecap:round;stroke-linejoin:round;stroke-dasharray:6.4675;}
	.st7{fill:none;stroke:#6738B8;stroke-width:1.5;stroke-linecap:round;stroke-linejoin:round;stroke-miterlimit:10;}
	.st8{fill:none;stroke:#28D1B1;stroke-width:1.5;stroke-linecap:round;stroke-linejoin:round;stroke-miterlimit:10;}
	.st9{fill:none;stroke:#9E62DD;stroke-width:1.5;stroke-linecap:round;stroke-linejoin:round;stroke-miterlimit:10;}
	.st10{fill:#28D1B1;}
</style>
<g id="XMLID_35_">
	<g>
		<line class="st0" x1="26.3" y1="41.6" x2="32.3" y2="31.3"/>
		<path class="st1" d="M37.9,21.8c3.3-4.4,9.6-7.7,14.9-7.9"/>
		<line class="st0" x1="60.7" y1="14" x2="72.6" y2="14"/>
	</g>
</g>
<g id="XMLID_34_">
	<g>
		<line class="st0" x1="72.5" y1="105.8" x2="62.5" y2="105.8"/>
		<path class="st2" d="M51.6,105.7c-5.6-0.6-12-4.6-14.7-9.3l-0.6-1.1"/>
		<line class="st0" x1="32.1" y1="88.3" x2="27.1" y2="79.6"/>
	</g>
</g>
<g id="XMLID_33_">
	<g>
		<line class="st0" x1="106.7" y1="33.7" x2="112.7" y2="44.1"/>
		<path class="st3" d="M117.6,53.3c1.7,5.1,1.3,11.7-1.2,16"/>
		<line class="st0" x1="112.7" y1="75.7" x2="106.7" y2="86.1"/>
	</g>
</g>
<g id="XMLID_31_">
	<line class="st4" x1="44.7" y1="60.5" x2="38" y2="60.5"/>
</g>
<g id="XMLID_29_">
	<line class="st5" x1="84.6" y1="34.3" x2="80.9" y2="40.1"/>
</g>
<g id="XMLID_28_">
	<line class="st6" x1="84" y1="87.6" x2="80.8" y2="81.9"/>
</g>
<g id="XMLID_26_">
	<path class="st7" d="M12,45.4c-2,0-4.4,1.4-5.3,3.1l-5.2,9c-1,1.7-1,4.5,0,6.2l5.2,9c1,1.7,3.4,3.1,5.3,3.1h10.3
		c2,0,4.4-1.4,5.3-3.1l5.2-9c1-1.7,1-4.5,0-6.2l-5.2-9c-1-1.7-3.4-3.1-5.3-3.1H12z"/>
</g>
<g id="XMLID_25_">
	<path class="st8" d="M14.1,51.4c-1.2,0-2.6,0.8-3.2,1.8l-3.1,5.4c-0.6,1-0.6,2.7,0,3.7l3.1,5.4c0.6,1,2,1.8,3.2,1.8h6.2
		c1.2,0,2.6-0.8,3.2-1.8l3.1-5.4c0.6-1,0.6-2.7,0-3.7l-3.1-5.4c-0.6-1-2-1.8-3.2-1.8H14.1z"/>
</g>
<g id="XMLID_24_">
	<path class="st7" d="M16.1,57.5c-0.4,0-0.9,0.3-1.1,0.6l-1,1.8c-0.2,0.3-0.2,0.9,0,1.2l1,1.8c0.2,0.3,0.7,0.6,1.1,0.6h2.1
		c0.4,0,0.9-0.3,1.1-0.6l1-1.8c0.2-0.3,0.2-0.9,0-1.2l-1-1.8c-0.2-0.3-0.7-0.6-1.1-0.6H16.1z"/>
</g>
<g id="XMLID_22_">
	<path class="st7" d="M89.6,91.3c-2,0-4.4,1.4-5.3,3.1l-5.2,9c-1,1.7-1,4.5,0,6.2l5.2,9c1,1.7,3.4,3.1,5.3,3.1H100
		c2,0,4.4-1.4,5.3-3.1l5.2-9c1-1.7,1-4.5,0-6.2l-5.2-9c-1-1.7-3.4-3.1-5.3-3.1H89.6z"/>
</g>
<g id="XMLID_21_">
	<path class="st8" d="M91.7,97.4c-1.2,0-2.6,0.8-3.2,1.8l-3.1,5.4c-0.6,1-0.6,2.7,0,3.7l3.1,5.4c0.6,1,2,1.8,3.2,1.8h6.2
		c1.2,0,2.6-0.8,3.2-1.8l3.1-5.4c0.6-1,0.6-2.7,0-3.7l-3.1-5.4c-0.6-1-2-1.8-3.2-1.8H91.7z"/>
</g>
<g id="XMLID_20_">
	<path class="st7" d="M93.8,103.4c-0.4,0-0.9,0.3-1.1,0.6l-1,1.8c-0.2,0.3-0.2,0.9,0,1.2l1,1.8c0.2,0.3,0.7,0.6,1.1,0.6h2.1
		c0.4,0,0.9-0.3,1.1-0.6l1-1.8c0.2-0.3,0.2-0.9,0-1.2l-1-1.8c-0.2-0.3-0.7-0.6-1.1-0.6H93.8z"/>
</g>
<g id="XMLID_18_">
	<path class="st7" d="M90,0.8c-2,0-4.4,1.4-5.3,3.1l-5.2,9c-1,1.7-1,4.5,0,6.2l5.2,9c1,1.7,3.4,3.1,5.3,3.1h10.3
		c2,0,4.4-1.4,5.3-3.1l5.2-9c1-1.7,1-4.5,0-6.2l-5.2-9c-1-1.7-3.4-3.1-5.3-3.1H90z"/>
</g>
<g id="XMLID_17_">
	<path class="st8" d="M92.1,6.8c-1.2,0-2.6,0.8-3.2,1.8L85.8,14c-0.6,1-0.6,2.7,0,3.7l3.1,5.4c0.6,1,2,1.8,3.2,1.8h6.2
		c1.2,0,2.6-0.8,3.2-1.8l3.1-5.4c0.6-1,0.6-2.7,0-3.7l-3.1-5.4c-0.6-1-2-1.8-3.2-1.8H92.1z"/>
</g>
<g id="XMLID_16_">
	<path class="st7" d="M94.2,12.8c-0.4,0-0.9,0.3-1.1,0.6l-1,1.8c-0.2,0.3-0.2,0.9,0,1.2l1,1.8c0.2,0.3,0.7,0.6,1.1,0.6h2.1
		c0.4,0,0.9-0.3,1.1-0.6l1-1.8c0.2-0.3,0.2-0.9,0-1.2l-1-1.8c-0.2-0.3-0.7-0.6-1.1-0.6H94.2z"/>
</g>
<path id="XMLID_14_" class="st7" d="M44.7,70.9V45.1c0-2.7,2.2-5,5-5h43.5c2.7,0,5,2.2,5,5V77c0,2.7-2.2,5-5,5H70"/>
<line id="XMLID_13_" class="st7" x1="79.6" y1="45.9" x2="44.7" y2="45.9"/>
<line id="XMLID_12_" class="st9" x1="92.4" y1="59.2" x2="64.1" y2="59.2"/>
<line id="XMLID_11_" class="st9" x1="92.4" y1="56.4" x2="58.4" y2="56.4"/>
<path id="XMLID_10_" class="st8" d="M44.8,71.1c-3.6,2.3-5.9,6.3-5.9,10.8c0,7.1,5.7,12.8,12.8,12.8c4.7,0,8.9-2.6,11.1-6.4"/>
<path id="XMLID_9_" class="st10" d="M64.5,82.8c-0.5,0-0.9-0.4-0.8-0.9l0,0l0,0l0,0c0-0.5,0.4-0.9,0.9-0.8l0,0
	c0.5,0,0.9,0.4,0.9,0.9l0,0C65.4,82.4,65,82.8,64.5,82.8L64.5,82.8C64.5,82.8,64.5,82.8,64.5,82.8z"/>
<polygon id="XMLID_8_" class="st10" points="65.1,81.9 65.1,81.9 65.1,81.9 "/>
<path id="XMLID_7_" class="st10" d="M62.1,76c-0.2-0.4-0.1-0.9,0.3-1.2l0,0c0.4-0.2,0.9-0.1,1.2,0.3l0,0c0.2,0.4,0.1,0.9-0.3,1.2
	l0,0c-0.1,0.1-0.3,0.1-0.4,0.1l0,0C62.5,76.4,62.2,76.2,62.1,76z"/>
<path id="XMLID_6_" class="st10" d="M57.7,71.6C57.7,71.6,57.7,71.6,57.7,71.6L57.7,71.6c-0.4-0.2-0.5-0.8-0.3-1.2l0,0
	c0.2-0.4,0.8-0.5,1.2-0.3l0,0c0.4,0.2,0.5,0.8,0.3,1.2l0,0c-0.2,0.3-0.5,0.4-0.7,0.4l0,0C58,71.7,57.9,71.6,57.7,71.6z"/>
<path id="XMLID_5_" class="st10" d="M51.7,69.9C51.7,69.9,51.7,69.9,51.7,69.9L51.7,69.9C51.7,69.9,51.7,69.9,51.7,69.9L51.7,69.9
	c-0.5,0-0.9-0.4-0.9-0.9l0,0c0-0.5,0.4-0.9,0.9-0.9l0,0c0,0,0,0,0,0l0,0c0,0,0,0,0.1,0l0,0c0.5,0,0.8,0.4,0.8,0.9l0,0
	C52.6,69.5,52.2,69.9,51.7,69.9L51.7,69.9L51.7,69.9z"/>
<polyline id="XMLID_2_" class="st8" points="56,82.2 51.7,82.2 51.7,73.4 "/>
<polyline id="XMLID_1_" class="st9" points="70.9,73.1 76.3,69.7 81.2,71.8 92.4,64.8 "/>
</svg>
