<svg xmlns="http://www.w3.org/2000/svg" id="svg2" viewBox="0 0 580 217.5">
    <style>
        .st0,.st1{fill:#323743}.st1{fill-rule:evenodd;clip-rule:evenodd}
    </style>
    <g id="g10" transform="matrix(1.25 0 0 -1.25 0 217.5)">
        <g id="g12" transform="scale(.1)">
            <path id="path14" d="M1289.7 1140l-269.7 90v390l270-80-.3-400" class="st0"/>
            <path id="path16" d="M1360 1540l270 80-.9-389.7L1360 1140v400" class="st0"/>
            <path id="path18" d="M1575 1662.2l-251.6 77.8-248.4-77.8 248.7-66.7 251.3 66.7" class="st0"/>
            <path id="path20" d="M1969.7 1140l-269.7 90v390l270-80-.3-400" class="st0"/>
            <path id="path22" d="M2040 1540l270 80-.9-389.7L2040 1140v400" class="st0"/>
            <path id="path24" d="M2255 1662.2l-251.6 77.8-248.4-77.8 248.7-66.7 251.3 66.7" class="st0"/>
            <path id="path26" d="M270 970L0 1050V660l269.7-90 .3 400" class="st0"/>
            <path id="path28" d="M340 970l270 80-.9-389.7L340 570v400" class="st0"/>
            <path id="path30" d="M555 1092.2L303.4 1170 55 1092.2l248.7-66.7 251.3 66.7" class="st0"/>
            <path id="path32" d="M949.7 570L680 660v390l270-80-.3-400" class="st0"/>
            <path id="path34" d="M1020 970l270 80-.9-389.7L1020 570v400" class="st0"/>
            <path id="path36" d="M1235 1092.2L983.4 1170 735 1092.2l248.7-66.7 251.3 66.7" class="st0"/>
            <path id="path38" d="M609.7 0L340 90v390l270-80-.3-400" class="st0"/>
            <path id="path40" d="M680 400l270 80-.9-389.7L680 0v400" class="st0"/>
            <path id="path42" d="M895 522.2L643.4 600 395 522.2l248.7-66.7L895 522.2" class="st0"/>
            <path id="path44" d="M1803.9 344.7l-19.8-.1c-7.3 0-16.6-4.9-18.8-12.9l-60.3-212-59.5 211.6c-1.8 6.6-8 13.4-16.5 13.4h-23.5c-8.5 0-14.6-6.8-16.3-13.5l-55.4-209.4-57.2 210c-2.3 7.7-11.8 12.8-19.2 12.8h-28.6c-6.1 0-11.8-2.6-14.8-6.8-2.1-2.9-2.6-6.1-1.7-8.9l88.4-313c1.9-6.6 7.7-13.2 16-13.2h28.4c7.7 0 14.4 5.6 16.3 13.5l54.4 208.5L1675 16.1c1.8-6.4 7.5-13.3 15.9-13.3h27.9c7.8 0 14.3 5.4 16.2 13.3l85.1 312.7c1 3 .4 6.4-1.6 9.2-3 4.2-8.6 6.7-14.6 6.7" class="st0"/>
            <path id="path46" d="M2049.4 211.9h-150c3.4 42.1 30.8 85.7 77.1 87.4 49.2-1.6 71.8-44.3 72.9-87.4zm-73 135.1c-101.3 0-147.4-89.6-147.4-172.8 0-103.9 57.4-170.9 146.1-170.9 63.5 0 112 32.1 132.9 88.2 1.1 3.2.8 6.7-1 9.8-2.1 3.8-6.2 6.6-10.9 7.7l-28.1 5.4c-7.6 1.2-16.2-3.3-19.1-9.8-13.7-31.2-38.6-48.8-69.8-49.8-30.1.9-57.7 18.8-70.3 45.5-10.3 21.8-11.8 43.3-12 65.1l203.6.1c4.3 0 8.7 1.9 11.8 5 2.6 2.6 4 5.9 4 9.1-.6 81-37.5 167.4-139.8 167.4" class="st0"/>
            <path id="path48" d="M2366.6 173.7c0-19.2-3.5-114.8-71.4-117.3-22.8.9-45.8 14.3-58.7 34.1-9.5 15-15 35.7-16.4 61.3v56.3c1.1 43.1 31.5 90.4 74.9 92.3 68.2-2.8 71.6-106 71.6-126.7zm-60.8 176.2h-5.4c-33.6 0-60.1-14-80.4-42.6v131.9c0 7.4-7.6 14.2-16.1 14.2h-29.3c-7.6 0-16.2-6.1-16.2-14.2V27.4c0-7.5 7.7-14.3 16.1-14.3h8.6c8.1 0 13.9 6.5 15.9 12.6l9.2 29.1c21.3-30.2 53.3-48 87.6-48h5.2c90.4 0 130.8 87.9 130.8 175 0 43.4-10.7 84.8-29.3 113.7-21.5 33.6-58.6 54.4-96.7 54.4" class="st0"/>
            <path id="path50" d="M2752.5 183c-19 13.7-41.9 18.2-64.9 22.8l-44 8.2c-31.6 5.2-49.8 13.6-49.8 41.5 0 29.4 30.5 40.7 56.4 41.4 31.6-.8 55.3-14.9 66.9-39.7 2.7-5.8 8.8-9.8 15.1-9.8 1.1 0 2.2.1 3.2.3l27.4 6.1c4.5 1 8.7 4.1 10.9 8.1 1.8 3.2 2.2 6.6 1.1 9.7-16.8 48.9-59.4 74.8-123.9 74.8-58.3-.1-120.5-26-120.5-98.4 0-49.5 31.1-80.9 92.4-93.4l49.2-9.4c27-5.2 54.6-14.4 54.6-43.4 0-42.9-50-47.3-65.1-47.6-33.9.7-72.3 15.9-81.6 47.9-1.9 7-10.7 12-18.5 10.4l-28.7-5.9c-4.3-.9-8.3-3.7-10.6-7.5-1.9-3.2-2.5-6.7-1.6-9.9 14.8-53.1 66.1-85.2 137.2-85.7h1.6c63.5 0 131.4 27.2 131.4 103.5.1 30.9-13.9 58.6-38.2 76" class="st0"/>
            <path id="path52" d="M3042.8 211.6h-150c3.4 42.1 30.8 85.8 77.1 87.4 49.1-1.6 71.7-44.2 72.9-87.4zm-73.1 135.1c-101.3 0-147.5-89.6-147.5-172.8C2822.2 70.1 2879.6 3 2968.4 3c63.5 0 112 32.1 132.9 88.2 1.1 3.2.8 6.7-1 9.8-2.1 3.8-6.2 6.7-10.9 7.7l-28.2 5.4c-6.6 1.1-15.8-2.3-19-9.8-13.7-31.1-38.6-48.8-69.8-49.8-30.1 1-57.7 18.8-70.3 45.5-10.3 21.7-11.8 43.3-12 65.2l203.6.1c4.2 0 8.6 1.9 11.8 5 2.6 2.6 4 5.9 4 9.2-.5 80.8-37.5 167.2-139.8 167.2" class="st0"/>
            <path id="path54" d="M3301.7 342.9c-4 .4-7.8.6-11.5.6-34.2 0-61.9-18.6-81.2-54.1l.1 31.1c0 7.5-7.5 14.1-16.1 14.1h-25.4c-8.3 0-15.7-6.6-15.8-14.3V18.4c0-7.6 7.4-14.2 15.8-14.2h29.7c7.7 0 16.4 6.1 16.5 14.2v152.2c0 25.1 2.3 44 14.3 66.4 17.1 31.9 41.1 47.5 73.1 47.8 8 .1 15.1 7.1 15.1 15V328c0 7.5-6.4 14-14.6 14.9" class="st0"/>
            <path id="path56" d="M3613.2 348.8h-23.4c-7.3 0-16.8-5.3-19-13l-75.9-238.7-77.6 238.5c-2.3 7.9-11.7 13.2-19.1 13.2h-33.5c-6.1 0-12.1-2.7-15.1-7-2-2.8-2.6-6-1.6-9l106.2-314.9c2-6.2 7.4-13.5 16-13.5h40.5c7.4 0 13.5 5.1 16.3 13.5l103 314.8c1 3 .5 6.2-1.6 9.1-3.1 4.3-9.1 7-15.2 7" class="st0"/>
            <path id="path58" d="M3690.2 469.9c-21.6 0-39.1-17.6-39.1-39.2s17.6-39.2 39.1-39.2c21.6 0 39.2 17.6 39.2 39.2-.1 21.6-17.6 39.2-39.2 39.2" class="st0"/>
            <path id="path60" d="M3706.3 350.7h-32.1c-8.7 0-16.7-7.1-16.7-14.8l-.2-320.6c0-3.9 2-7.7 5.5-10.6 3.2-2.6 7.2-4.1 11.3-4.1l32.4-.1c8.9.1 16.7 7 16.7 14.7v320.6c-.1 8-8 14.9-16.9 14.9" class="st0"/>
            <path id="path62" d="M4006.6 133.3l-26.8-.1c-7.5 0-13.8-4.5-16.6-12.3-9.8-42.3-32-64.2-65.7-65.2-65.6 1.9-70.6 93.3-70.6 121.3 0 55.8 19.3 115.9 73.2 117.5 32.5-1 56.2-24.3 63.3-62.4 1.3-7.8 7.3-13.6 15.4-14.6l28.7-.3c8.6.9 15.3 7.4 15.2 15.5-10.2 68.7-57.8 113.1-121.4 113.1l-2.2-.1-2.5.1c-92.5 0-134-86.4-134-172 0-78.5 34.9-170.1 133.4-170.1h4.7c62 0 108.9 43.5 122.3 114 .3 3.4-.9 6.7-3.2 9.4-2.9 3.7-7.8 6-13.2 6.2" class="st0"/>
            <path id="path64" d="M4271.5 211.6h-150c3.4 42.1 30.8 85.8 77.1 87.4 49.3-1.6 71.8-44.2 72.9-87.4zm-73 135.1c-101.3 0-147.5-89.6-147.5-172.8C4051 70.1 4108.4 3 4197.2 3c63.5 0 111.9 32.1 132.9 88.2 1.1 3.2.7 6.7-1 9.8-2.2 3.8-6.1 6.6-10.9 7.7l-28.1 5.4c-6.6 1.1-15.8-2.3-19-9.8-13.7-31.1-38.6-48.8-69.8-49.8-30.1 1-57.7 18.8-70.3 45.5-10.3 21.8-11.8 43.3-12 65.2h203.6c4.3 0 8.7 1.9 11.8 5.1 2.6 2.6 4 5.9 4 9.1-.6 80.9-37.6 167.3-139.9 167.3" class="st0"/>
            <path id="path66" d="M4593.3 183c-19.1 13.7-42 18.3-64.9 22.8l-44 8.2c-31.5 5.2-49.8 13.6-49.8 41.5 0 38 47.1 41.1 56.3 41.4 31.6-.8 55.4-14.9 66.9-39.7 2.8-5.8 8.9-9.8 15.2-9.8 1.1 0 2.2.1 3.2.3l27.4 6.1c4.5 1 8.6 4.1 10.9 8.1 1.8 3.2 2.2 6.6 1.1 9.7-16.8 48.9-59.4 74.8-123.9 74.8-58.2-.1-120.5-26-120.5-98.4 0-49.5 31.1-80.9 92.4-93.4l49.2-9.4c27-5.2 54.6-14.4 54.6-43.4 0-42.9-50-47.3-65.1-47.6-31.4.7-71.7 13.7-81.6 47.8-1.8 7.1-10.7 12.1-18.6 10.4l-28.6-5.9c-4.3-.9-8.3-3.8-10.6-7.6-1.9-3.2-2.5-6.7-1.6-9.9 14.8-53.1 66-85.2 137.2-85.7h1.6c63.5 0 131.4 27.2 131.4 103.5.1 31.1-13.9 58.8-38.2 76.2" class="st0"/>
            <path id="path68" d="M3287.1 968v72.8c0 11 8.4 18.4 18.5 18.4h326.1c10.4 0 18.8-7.6 18.8-18.4v-62.4c-.1-10.5-8.9-24.1-24.6-45.8L3457 691.4c62.7 1.5 129-7.9 186-39.9 12.9-7.2 16.3-17.9 17.3-28.4v-77.7c0-10.7-11.7-23.1-24-16.6-100.4 52.6-233.6 58.3-344.6-.6-11.3-6.1-23.2 6.1-23.2 16.8v73.8c0 11.8.2 32 12.1 50l195.8 280.8H3306c-10.4.1-18.7 7.5-18.9 18.4" class="st1"/>
            <path id="path70" d="M2097.4 513.5h-99.2c-9.4.6-17 7.7-17.7 16.8l.1 509.3c0 10.2 8.6 18.3 19.1 18.3l92.4.1c9.7-.5 17.4-7.8 18.1-17.1v-66.5h1.8c24.1 64.3 69.4 94.3 130.6 94.3 62.1 0 101-30 128.8-94.3 24.1 64.3 78.7 94.3 137.1 94.3 41.7 0 87-17.1 114.8-55.7 31.5-42.9 25-105 25-159.7l-.1-321.4c0-10.2-8.6-18.3-19.1-18.3H2530c-10 .6-17.8 8.6-17.8 18.3v270c0 21.4 1.8 75-2.8 95.4-7.4 34.3-29.7 43.9-58.3 43.9-24.1 0-49.1-16.1-59.3-41.7-10.2-25.8-9.2-68.6-9.2-97.5V532c0-10.2-8.6-18.3-19.1-18.3h-99.1c-9.9.6-17.8 8.6-17.8 18.3l-.1 270c0 56.8 9.3 140.4-61.1 140.4-71.3 0-68.5-81.4-68.5-140.4l-.1-270c-.2-10.4-8.8-18.5-19.4-18.5" class="st1"/>
            <path id="path72" d="M3932.3 964.7c-73.2 0-77.8-99.7-77.8-161.8 0-62.1-.9-195 76.9-195 76.9 0 80.6 107.2 80.6 172.5 0 42.9-1.8 94.3-14.8 135-11.2 35.3-33.4 49.3-64.9 49.3zm-.9 103.9c147.3 0 226.9-126.4 226.9-287.1 0-155.4-88-278.7-226.9-278.7-144.5 0-223.3 126.5-223.3 284 0 158.6 79.7 281.8 223.3 281.8" class="st1"/>
            <path id="path74" d="M4349.3 513.5h-98.9c-10 .6-17.8 8.6-17.8 18.3l-.1 509.5c.8 9.3 9.1 16.6 19 16.6l92.1.1c8.7-.5 15.8-6.4 17.6-14.3v-77.9h1.9c27.8 69.7 66.7 102.8 135.2 102.8 44.5 0 88-16 115.8-60C4640 967.9 4640 899.3 4640 850V529.5c-1.1-9-9.2-16.1-19-16.1h-99.5c-9.2.6-16.6 7.4-17.7 16.1V806c0 55.7 6.5 137.2-62.1 137.2-24.1 0-46.3-16.1-57.4-40.7-13.9-31.1-15.8-62.1-15.8-96.5V531.8c0-10.2-8.6-18.3-19.2-18.3" class="st1"/>
            <path id="path76" d="M3127.2 514.7c-6.6-5.9-16-6.3-23.4-2.3-32.9 27.4-38.9 40.1-56.9 66.1-54.5-55.5-93-72.1-163.6-72.1-83.6 0-148.5 51.6-148.5 154.7 0 80.5 43.6 135.3 105.8 162.2 53.8 23.6 129 27.9 186.6 34.4v12.9c0 23.6 1.9 51.6-12.1 71.9-12 18.3-35.2 25.8-55.7 25.8-37.9 0-71.5-19.4-79.8-59.6-1.7-8.9-8.2-17.8-17.2-18.2l-96.1 10.4c-8.1 1.8-17.1 8.3-14.8 20.7 22.1 116.7 127.5 152 221.9 152 48.2 0 111.4-12.9 149.4-49.4 48.2-45.1 43.6-105.3 43.6-170.8V698.8c0-46.5 19.3-66.9 37.5-92 6.3-9 7.7-19.8-.4-26.4-20.3-17-56.3-48.2-76.1-65.9l-.2.2zm-100 242c0-38.7.9-70.9-18.6-105.3-15.8-27.9-40.9-45.1-68.7-45.1-38 0-60.3 29-60.3 72 0 84.5 75.8 99.9 147.6 99.9v-21.5" class="st1"/>
            <path id="path78" d="M1826.4 514.7c-6.6-5.9-16.1-6.3-23.5-2.3-32.9 27.4-38.8 40.1-56.9 66.1-54.4-55.5-93-72.1-163.6-72.1-83.5 0-148.5 51.6-148.5 154.7 0 80.5 43.7 135.3 105.8 162.2 53.8 23.6 129 27.9 186.6 34.4v12.9c0 23.6 1.9 51.6-12.1 71.9-12.1 18.3-35.3 25.8-55.7 25.8-37.8 0-71.5-19.4-79.8-59.6-1.7-8.9-8.2-17.8-17.2-18.2l-96.2 10.4c-8.1 1.8-17.1 8.3-14.8 20.7 22.1 116.7 127.5 152 221.9 152 48.3 0 111.4-12.9 149.5-49.4 48.3-45.1 43.6-105.3 43.6-170.8V698.8c0-46.5 19.3-66.9 37.5-92 6.3-9 7.8-19.8-.3-26.4-20.3-17-56.3-48.2-76.1-65.9l-.2.2zm-100 242c0-38.7.9-70.9-18.6-105.3-15.8-27.9-40.9-45.1-68.7-45.1-38.1 0-60.4 29-60.4 72 0 84.5 75.8 99.9 147.6 99.9l.1-21.5" class="st1"/>
        </g>
    </g>
</svg>
