<?xml version="1.0" encoding="utf-8"?>
<!-- Generator: Adobe Illustrator 22.0.1, SVG Export Plug-In . SVG Version: 6.00 Build 0)  -->
<svg version="1.1" id="Layer_1" xmlns="http://www.w3.org/2000/svg" xmlns:xlink="http://www.w3.org/1999/xlink" x="0px" y="0px"
	 viewBox="0 0 1098.8 622.5" style="enable-background:new 0 0 1098.8 622.5;" xml:space="preserve">
<style type="text/css">
	.st0{fill:#9A9A9A;}
	.st1{fill:#878787;}
	.st2{fill:#AAAAAA;}
	.st3{fill:#E2E3E4;}
	.st4{fill:none;}
	.st5{fill:#767576;}
</style>
<path id="path22" class="st0" d="M622.1,339.2l-48.5,84.3h-127c-11.3,0-21.8-6.1-27.4-15.9L316.5,228.5c-5.6-9.7-5.6-21.7,0-31.5
	l39.1-68.1l48.3,83.9l72.8,126.4L622.1,339.2L622.1,339.2z"/>
<path id="path26" class="st1" d="M782.3,228.5L679.5,407.6c-5.6,9.8-16.1,15.9-27.4,15.9h-78.5l48.5-84.3l72.8-126.4L622.1,86.5
	h96.6l63.5,110.7C787.9,206.9,787.9,218.8,782.3,228.5"/>
<path id="path30" class="st2" d="M718.8,86.4H476.6l-72.8,126.4l-48.3-83.9l63.6-111C424.7,8.1,435.2,2,446.5,2H652
	c11.3,0,21.8,6.1,27.4,15.9L718.8,86.4L718.8,86.4z"/>
<path id="XMLID_56_" class="st3" d="M622.1,86.4H476.6l-72.8,126.4l72.8,126.4h145.5l72.8-126.4L622.1,86.4L622.1,86.4z M549.4,276
	c-34.9,0-63.2-28.3-63.2-63.2s28.3-63.2,63.2-63.2s63.2,28.3,63.2,63.2S584.3,276,549.4,276z"/>
<g id="XMLID_1_">
	<path id="XMLID_47_" class="st4" d="M256.3,546.3c-9,0-16.5,7.7-16.5,18.1c0,10.4,7.5,17.9,16.5,17.9c8.9,0,15.9-7.5,15.9-17.9
		C272.1,554,265.1,546.3,256.3,546.3z"/>
	<path id="XMLID_46_" class="st4" d="M787.7,575.8c0,5.8,6.1,8.8,11.5,8.8c8.2,0,16.9-7.1,16.9-16.1c0,0-4.4-3.6-13.2-3.6
		C792,565,787.7,570.8,787.7,575.8L787.7,575.8z"/>
	<path id="XMLID_45_" class="st4" d="M538.7,564.8c0-12.6-8.8-19.9-18-19.9s-18,7.3-18,19.9s8.8,19.9,18,19.9
		S538.7,577.4,538.7,564.8z"/>
	<path id="XMLID_44_" class="st4" d="M109.6,564.3c0,10.6,7.8,18,16.8,18s16.8-7.4,16.8-18c0-10.7-7.8-18-16.8-18
		C117.3,546.3,109.6,553.6,109.6,564.3z"/>
	<path id="XMLID_43_" class="st4" d="M642,544.8c-9.2,0-17.6,7.5-17.6,19.9s8.3,19.9,17.6,19.9s17.5-7.2,17.5-19.8
		S651.2,544.8,642,544.8z"/>
	<path id="XMLID_42_" class="st4" d="M739.8,535.7c0-6.4-5.2-14.1-14.4-14.1h-17.3v28.2h17.3C734.6,549.8,739.8,542,739.8,535.7z"/>
	<path id="XMLID_41_" class="st4" d="M340.4,546.2c-6.6,0-15.9,5.9-15.5,17.3l26.6-11C350,548.8,345.6,546.2,340.4,546.2z"/>
	<path id="XMLID_40_" class="st4" d="M936.2,584.7c9.2,0,18-7.3,18-19.9s-8.8-19.9-18-19.9s-18,7.3-18,19.9S927,584.7,936.2,584.7
		L936.2,584.7z"/>
	<path id="XMLID_39_" class="st4" d="M174.6,564.3c0,10.6,7.8,18,16.8,18s16.8-7.4,16.8-18c0-10.7-7.8-18-16.8-18
		S174.6,553.6,174.6,564.3z"/>
	<path id="XMLID_38_" class="st5" d="M434.2,519.8c9.2,0,16.8,3.3,22.4,10.2l7.2-7c-7.2-8.3-17.4-13.2-29.6-13.2
		c-23.7,0-41.9,18.1-41.9,42.1s18.1,42.1,41.9,42.1c13.5,0,24.9-6,32-14.4l-7.2-7.2c-6.1,7-14.6,11.7-24.8,11.7
		c-17,0-31.3-12.4-31.3-32.2S417.2,519.8,434.2,519.8L434.2,519.8z"/>
	<path id="XMLID_37_" class="st5" d="M474.2,511.8h10.4v80.6h-10.4V511.8z"/>
	<path id="XMLID_34_" class="st5" d="M549.1,564.8c0-16.8-11.8-29.4-28.4-29.4c-16.5,0-28.4,12.6-28.4,29.4
		c0,16.8,11.8,29.4,28.4,29.4C537.3,594.1,549.1,581.5,549.1,564.8z M502.7,564.8c0-12.6,8.8-19.9,18-19.9s18,7.3,18,19.9
		s-8.8,19.9-18,19.9S502.7,577.4,502.7,564.8z"/>
	<path id="XMLID_33_" class="st5" d="M556.9,537.2V571c0,13.6,6.9,23.2,21,23.2c7.5,0,14.4-4.4,17.4-9.5h0.5v7.6h9.9v-55.1h-10.4
		v30.4c0,8.4-5.5,17.1-14.5,17.1c-7.9,0-13.6-3.9-13.6-15.4v-32.1H556.9L556.9,537.2z"/>
	<path id="XMLID_30_" class="st5" d="M640.3,535.3c-14,0-26.2,12.5-26.2,29.4s12.3,29.4,26.2,29.4c8.8,0,15.6-4.4,18.8-9.5h0.5v7.6
		h9.9v-80.5h-10.4v25.4l0.5,7.7h-0.5C655.9,539.8,649.1,535.4,640.3,535.3L640.3,535.3z M642,584.6c-9.2,0-17.6-7.5-17.6-19.9
		s8.3-19.9,17.6-19.9s17.5,7.2,17.5,19.9S651.2,584.7,642,584.6L642,584.6z"/>
	<path id="XMLID_27_" class="st5" d="M725.1,559.7c13.4,0,25.2-9.9,25.2-24s-11.8-24-25.2-24h-27.5v80.6H708v-32.6H725.1z
		 M708,521.7h17.3c9.2,0,14.4,7.6,14.4,14.1c0,6.4-5.2,14.1-14.4,14.1H708V521.7L708,521.7z"/>
	<path id="XMLID_26_" class="st5" d="M757.6,511.8h10.3v80.6h-10.3V511.8z"/>
	<path id="XMLID_23_" class="st5" d="M801.1,556.3c-12.9,0-24.2,6.8-24.2,19.2c0,11.5,9.3,18.5,20.6,18.5c9.4,0,15.1-4.8,18.1-9.5
		h0.4v7.6h9.9v-33.3c0-15.5-11-23.6-24.5-23.6c-13.8,0-20.5,8.3-22.4,13.4l9.5,4.1c1.9-5.2,7.4-8,13.2-8c7.8,0,14.4,5.1,14.4,13.4
		v1.6C813.9,558.5,808.5,556.3,801.1,556.3z M799.2,584.6c-5.4,0-11.5-2.9-11.5-8.8c0-5.1,4.3-10.9,15.2-10.9
		c8.8,0,13.2,3.6,13.2,3.6C816,577.5,807.4,584.6,799.2,584.6L799.2,584.6z"/>
	<path id="XMLID_22_" class="st5" d="M840.9,520.2v16.9h-9.7v9.4h9.7v28.9c0,11.3,6.2,17.7,17.8,17.7c3.5,0,6-0.4,8.3-1.5l-3.6-8.9
		c-1.5,0.7-2.8,0.9-4.7,0.9c-4.8,0-7.4-2.8-7.4-9v-28.1h13.5v-9.4h-13.5v-16.9L840.9,520.2L840.9,520.2z"/>
	<path id="XMLID_21_" class="st5" d="M880.3,529.8v7.3h-10.4v9.4h10.4v45.7h10.4v-45.7h14.4v-9.4h-14.4v-7c0-6.4,4-9.4,9.2-9.4
		c1.9,0,3.4,0.2,4.7,0.9l3.6-8.9c-2.4-1-4.8-1.5-8.3-1.5C888.3,511.2,880.3,518.5,880.3,529.8L880.3,529.8z"/>
	<path id="XMLID_18_" class="st5" d="M936.2,594c16.5,0,28.3-12.6,28.3-29.4c0-16.8-11.8-29.4-28.3-29.4s-28.4,12.6-28.4,29.4
		C907.8,581.4,919.7,594,936.2,594z M936.2,544.8c9.2,0,18,7.3,18,19.9s-8.8,19.9-18,19.9s-18-7.3-18-19.9S927,544.8,936.2,544.8
		L936.2,544.8z"/>
	<path id="XMLID_17_" class="st5" d="M972.9,537.2v55.1h10.3V562c0-10.1,7.2-16.1,14.3-16.1c2.3,0,4.1,0.2,5.5,0.8l3.9-9.7
		c-2.1-0.9-4.4-1.4-7.8-1.4c-5.7,0-13.7,4.1-16,10.4h-0.4v-9L972.9,537.2L972.9,537.2z"/>
	<path id="XMLID_16_" class="st5" d="M1076.6,535.3c-8.6,0-15.3,4.4-19.2,10.6c-2.8-6.5-8.5-10.6-17.4-10.6c-6.5,0-13.8,4.2-17,9.4
		h-0.5V537h-9.9v55.1h10.4v-30.4c0-8.4,5.6-17,14.1-17c7.9,0,12.3,3.8,12.3,15.3v32.2h10.3v-30.5c0-8.4,5.6-17,14.1-17
		c7.9,0,12.3,3.8,12.3,15.3v32.2h10.4v-33.8C1096.3,544.9,1090.1,535.4,1076.6,535.3L1076.6,535.3z"/>
	<path id="XMLID_15_" class="st5" d="M49,594c13.7,0,24.1-4.5,32.2-12.9c8.3-8.3,10.9-20,10.9-29.5c0-2.9-0.2-5.6-0.7-7.9H49v12.6
		h30.2c-0.9,7.1-3.3,12.3-6.9,15.9c-4.4,4.4-11.2,9.2-23.3,9.2c-18.6,0-33.1-15-33.1-33.5c0-18.6,14.5-33.5,33.1-33.5
		c10,0,17.3,3.9,22.7,9l8.9-8.9c-7.5-7.2-17.6-12.7-31.6-12.7c-25.4,0-46.8,20.7-46.8,46.1C2.2,573.3,23.5,594,49,594L49,594z"/>
	<path id="XMLID_12_" class="st5" d="M96.5,564.3c0,17.1,13.4,29.7,29.8,29.7s29.8-12.6,29.8-29.7c0-17.2-13.4-29.7-29.8-29.7
		S96.5,547.2,96.5,564.3z M143.1,564.3c0,10.6-7.8,18-16.8,18s-16.8-7.4-16.8-18c0-10.7,7.8-18,16.8-18S143.1,553.6,143.1,564.3z"/>
	<path id="XMLID_9_" class="st5" d="M161.6,564.3c0,17.1,13.4,29.7,29.8,29.7s29.8-12.6,29.8-29.7c0-17.2-13.4-29.7-29.8-29.7
		S161.6,547.1,161.6,564.3L161.6,564.3z M208.1,564.3c0,10.6-7.8,18-16.8,18s-16.8-7.4-16.8-18c0-10.7,7.8-18,16.8-18
		S208.1,553.6,208.1,564.3z"/>
	<path id="XMLID_6_" class="st5" d="M255.4,609c-8,0-12.9-5.7-15-10.6l-11.4,4.7c3.3,7.9,11.9,17.6,26.3,17.6
		c15.3,0,28.2-9,28.2-30.9v-53.3h-12.4v4.8h-0.5c-2.9-3.5-8.6-6.6-15.6-6.6c-14.9,0-28.5,13.1-28.5,29.8s13.6,29.6,28.5,29.6
		c7.1,0,12.7-3.2,15.6-6.8h0.5v4.3C271.2,602.9,265.1,609,255.4,609z M256.3,582.3c-9,0-16.5-7.5-16.5-17.9
		c0-10.5,7.5-18.1,16.5-18.1c8.9,0,15.9,7.7,15.9,18.1C272.1,574.8,265.1,582.3,256.3,582.3z"/>
	<path id="XMLID_5_" class="st5" d="M292.6,505h13v87.3h-13V505z"/>
	<path id="XMLID_2_" class="st5" d="M365.4,553.5c-2.5-6.6-10-18.9-25.4-18.9c-15.3,0-28,12-28,29.7c0,16.7,12.6,29.7,29.5,29.7
		c13.6,0,21.5-8.3,24.8-13.2l-10.1-6.8c-3.4,5-8,8.2-14.6,8.2s-11.4-3-14.4-9l39.7-16.4L365.4,553.5z M324.9,563.5
		c-0.3-11.5,8.9-17.3,15.5-17.3c5.2,0,9.6,2.6,11,6.3L324.9,563.5z"/>
</g>
</svg>
