<?xml version="1.0" standalone="no"?>
<!DOCTYPE svg PUBLIC "-//W3C//DTD SVG 20010904//EN"
 "http://www.w3.org/TR/2001/REC-SVG-20010904/DTD/svg10.dtd">
<svg version="1.0" xmlns="http://www.w3.org/2000/svg"
 width="1194.000000pt" height="146.000000pt" viewBox="0 0 1194.000000 146.000000"
 preserveAspectRatio="xMidYMid meet">
<metadata>
Created by potrace 1.15, written by Peter Selinger 2001-2017
</metadata>
<g transform="translate(0.000000,146.000000) scale(0.100000,-0.100000)"
fill="#000000" stroke="none">
<path d="M9770 1225 c0 -129 -3 -235 -7 -235 -5 1 -23 14 -42 30 -19 16 -63
39 -99 51 -53 18 -81 21 -180 17 -110 -3 -121 -5 -192 -39 -134 -65 -219 -163
-262 -304 -32 -101 -32 -291 -1 -391 51 -161 181 -288 338 -330 106 -29 275
-10 355 39 19 12 51 37 72 55 40 36 40 37 58 -30 l13 -48 93 0 94 0 0 710 0
710 -120 0 -120 0 0 -235z m-165 -354 c42 -19 104 -81 128 -128 27 -54 40
-134 35 -222 -8 -138 -58 -230 -151 -278 -43 -21 -66 -26 -127 -27 -64 0 -83
5 -128 29 -60 32 -97 76 -123 145 -40 106 -33 263 16 360 27 54 94 116 140
129 55 16 167 12 210 -8z"/>
<path d="M6012 1288 l3 -113 190 -1 190 -1 3 -567 2 -566 130 0 130 0 0 565 0
565 173 2 c94 0 179 1 187 2 12 1 15 20 15 111 l0 110 -513 3 -513 2 3 -112z"/>
<path d="M715 1356 c-27 -7 -66 -20 -85 -29 -50 -24 -144 -113 -134 -128 4 -7
3 -9 -3 -6 -14 9 -41 -42 -110 -213 l-62 -155 721 -3 c397 -1 725 1 728 5 6 6
89 211 217 531 7 17 -1199 16 -1272 -2z"/>
<path d="M2414 1343 c-21 -55 -427 -1060 -470 -1165 -24 -59 -44 -114 -44
-123 0 -13 19 -15 128 -15 l129 0 61 163 60 162 275 3 275 2 42 -107 c22 -60
51 -134 63 -165 l22 -58 132 0 c112 0 133 2 133 15 0 9 -86 228 -191 488 -104
259 -222 552 -261 650 l-72 177 -136 0 -136 0 -10 -27z m175 -324 c16 -46 57
-157 90 -247 34 -89 61 -167 61 -172 0 -6 -73 -10 -185 -10 -102 0 -185 3
-185 6 0 4 38 109 84 233 47 124 88 239 91 254 4 15 9 26 11 24 2 -2 17 -41
33 -88z"/>
<path d="M4554 1258 c-35 -75 -136 -185 -199 -219 l-45 -24 0 -57 0 -57 68 -3
67 -3 5 -330 5 -330 29 -58 c32 -67 94 -118 166 -139 64 -18 193 -14 265 9
l60 19 3 107 c1 62 -1 107 -7 107 -5 0 -33 -11 -63 -25 -102 -48 -185 -26
-208 53 -7 24 -10 137 -8 312 l3 275 128 3 127 3 0 94 0 94 -127 3 -128 3 0
113 0 112 -56 0 -55 0 -30 -62z"/>
<path d="M5418 1067 c-166 -57 -292 -198 -327 -365 -14 -68 -14 -236 0 -304
36 -175 183 -326 364 -373 75 -19 201 -19 284 0 173 41 321 186 367 360 8 28
14 101 14 165 0 184 -36 284 -140 390 -104 106 -219 150 -389 150 -84 0 -120
-5 -173 -23z m269 -192 c61 -18 119 -71 153 -141 23 -44 25 -61 25 -179 0
-115 -3 -136 -23 -180 -50 -108 -122 -155 -242 -155 -90 0 -141 20 -189 75
-63 73 -76 115 -76 255 0 121 1 128 33 192 62 126 178 175 319 133z"/>
<path d="M8087 1066 c-153 -55 -269 -194 -306 -364 -16 -78 -14 -253 5 -326
56 -219 241 -366 459 -366 118 0 250 51 306 119 16 19 30 33 32 30 2 -2 11
-30 21 -62 l17 -57 95 0 94 0 0 510 0 510 -89 0 -89 0 -16 -40 c-9 -22 -16
-47 -16 -55 0 -22 -7 -19 -53 21 -23 19 -71 50 -107 67 -59 29 -74 32 -175 35
-96 2 -119 0 -178 -22z m298 -187 c60 -16 136 -98 160 -174 23 -70 27 -225 7
-292 -21 -72 -72 -135 -137 -168 -49 -25 -69 -29 -129 -29 -122 2 -191 48
-245 164 -22 48 -25 68 -26 165 0 82 5 124 18 163 24 66 97 148 152 167 48 17
145 19 200 4z"/>
<path d="M10528 1071 c-127 -42 -235 -135 -293 -255 -42 -86 -55 -149 -55
-270 0 -172 47 -291 154 -394 102 -98 214 -142 361 -142 198 1 349 78 424 219
17 32 31 62 31 65 0 3 -57 6 -128 6 -116 0 -128 -2 -140 -20 -6 -11 -30 -29
-53 -41 -86 -43 -211 -34 -288 21 -41 30 -98 130 -103 183 l-3 29 365 1 365 2
3 95 c6 166 -30 269 -130 376 -44 46 -81 74 -135 101 -73 36 -80 37 -197 40
-97 3 -132 -1 -178 -16z m267 -200 c52 -24 91 -66 110 -120 30 -87 46 -81
-225 -81 l-240 0 6 28 c19 77 81 151 149 176 57 21 152 19 200 -3z"/>
<path d="M7499 1061 c-82 -26 -150 -87 -175 -159 l-12 -35 -15 54 c-9 30 -21
73 -27 97 l-11 42 -89 0 -90 0 0 -510 0 -510 124 0 125 0 3 313 3 313 26 49
c38 76 86 98 217 103 l102 4 0 124 0 124 -77 -1 c-43 0 -90 -4 -104 -8z"/>
<path d="M11750 1055 c-61 -19 -128 -78 -155 -137 l-22 -47 -24 92 -25 92 -87
3 -87 3 -1 -491 c-1 -269 -2 -498 -3 -507 -1 -16 12 -18 121 -21 l121 -3 5
303 c4 322 8 354 54 408 42 50 78 63 191 68 l102 5 0 123 0 124 -72 -1 c-40 0
-93 -7 -118 -14z"/>
<path d="M3300 702 c0 -272 3 -349 15 -397 30 -116 124 -219 242 -267 50 -20
75 -23 183 -22 106 0 134 3 183 23 114 45 202 138 237 250 18 58 20 92 20 407
l0 344 -120 0 -120 0 0 -311 c0 -330 -5 -381 -47 -437 -63 -85 -212 -95 -289
-18 -58 58 -64 101 -64 453 l0 313 -120 0 -120 0 0 -338z"/>
<path d="M117 326 c-59 -145 -107 -269 -107 -275 0 -9 161 -11 638 -9 l637 3
59 28 c147 68 175 110 317 470 l19 47 -729 0 -728 0 -106 -264z"/>
</g>
</svg>
