<?xml version="1.0" standalone="no"?>
<!DOCTYPE svg PUBLIC "-//W3C//DTD SVG 20010904//EN"
 "http://www.w3.org/TR/2001/REC-SVG-20010904/DTD/svg10.dtd">
<svg version="1.0" xmlns="http://www.w3.org/2000/svg"
 width="2093.000000pt" height="2076.000000pt" viewBox="0 0 2093.000000 2076.000000"
 preserveAspectRatio="xMidYMid meet">
<metadata>
Created by potrace 1.15, written by Peter Selinger 2001-2017
</metadata>
<g transform="translate(0.000000,2076.000000) scale(0.100000,-0.100000)"
fill="#000000" stroke="none">
<path d="M16355 20739 c-33 -4 -314 -37 -625 -73 -1143 -133 -2552 -297 -2800
-326 -140 -16 -838 -97 -1550 -180 -1257 -146 -1693 -197 -2580 -300 -888
-104 -1222 -142 -2105 -245 -500 -58 -1099 -128 -1330 -155 -231 -27 -951
-110 -1600 -186 -649 -75 -1182 -138 -1184 -140 -3 -2 44 -394 102 -872 59
-477 150 -1216 202 -1642 52 -426 135 -1103 185 -1505 272 -2213 325 -2642
365 -2970 62 -507 276 -2249 330 -2685 67 -548 258 -2105 320 -2610 30 -245
88 -717 129 -1048 41 -332 77 -606 80 -610 6 -5 1496 207 1593 226 l33 7 -77
100 c-69 90 -356 388 -458 476 -22 18 -72 61 -110 93 -130 110 -196 192 -254
317 -53 115 -71 192 -77 339 -9 195 28 378 122 601 51 122 176 337 261 447
119 156 339 362 825 774 634 536 956 890 1124 1233 104 214 140 373 131 580
-26 581 -185 1068 -435 1325 l-63 65 4 -146 c3 -137 2 -145 -13 -125 -59 77
-160 279 -199 396 -17 54 -36 81 -107 160 -47 52 -95 112 -106 133 -12 20 -25
37 -29 37 -14 0 -42 -138 -47 -233 -2 -54 -9 -94 -13 -90 -29 29 -139 431
-139 507 0 97 -74 -87 -96 -239 l-7 -50 -14 33 c-25 60 -91 336 -108 447 -9
61 -15 146 -14 190 2 73 -2 91 -43 205 -121 333 -174 594 -199 975 -10 161 -6
581 6 593 2 3 39 -14 82 -36 179 -92 362 -127 623 -119 249 8 421 48 612 142
133 66 195 110 300 216 76 77 104 113 131 171 122 257 116 707 -18 1301 -97
433 -273 926 -580 1621 -92 209 -233 517 -240 524 -2 2 -8 1 -13 -2 -5 -3 32
-144 85 -318 132 -440 206 -708 268 -968 192 -809 217 -1063 140 -1404 -81
-359 -274 -578 -715 -814 -111 -59 -164 -78 -262 -93 -217 -34 -529 81 -835
307 -423 313 -748 693 -959 1119 -95 193 -124 284 -131 402 -10 169 24 271
171 516 110 185 142 244 135 252 -6 6 -176 -51 -271 -91 -32 -13 -61 -24 -65
-24 -4 0 19 25 52 56 223 206 316 283 476 395 136 96 259 191 259 201 0 4 -66
8 -147 9 l-148 1 180 89 c99 49 228 108 287 131 58 24 104 45 101 48 -2 3 -93
7 -200 10 l-196 5 299 132 c425 188 857 372 938 399 280 96 555 60 727 -94 29
-26 91 -99 137 -162 104 -141 279 -317 387 -388 156 -104 345 -184 573 -243
l114 -29 206 96 c114 53 250 113 302 134 104 41 344 120 367 120 7 0 69 52
136 116 131 125 225 199 339 269 76 47 213 108 229 103 6 -2 -8 -26 -30 -54
-60 -76 -131 -227 -131 -281 0 -6 39 17 86 53 83 63 249 176 328 224 l39 24
-40 -60 c-42 -61 -133 -221 -133 -233 0 -3 4 -12 9 -19 7 -11 35 1 129 53 124
68 422 209 429 202 2 -2 -35 -55 -82 -118 -47 -62 -85 -117 -85 -121 0 -4 84
-8 188 -8 103 0 293 -5 422 -12 208 -10 246 -9 332 5 345 59 589 252 898 712
122 181 204 280 279 333 55 40 319 127 421 140 264 32 498 -94 938 -507 273
-256 515 -574 721 -949 133 -242 235 -495 288 -715 12 -48 18 -113 18 -197 0
-110 -3 -130 -22 -167 -40 -75 -120 -123 -205 -123 -172 0 -451 200 -746 535
-372 423 -546 759 -656 1270 -38 176 -82 281 -176 420 -45 66 -158 195 -171
195 -4 0 9 -40 27 -88 85 -228 112 -359 125 -612 25 -514 97 -835 243 -1077
l54 -88 -13 -65 c-7 -36 -18 -97 -25 -135 -17 -108 -21 -110 -87 -39 -173 181
-422 349 -855 573 -98 51 -178 91 -178 88 0 -2 62 -56 138 -119 465 -390 917
-841 1154 -1153 80 -106 195 -287 251 -396 152 -297 213 -571 232 -1049 7
-169 19 -273 38 -327 7 -21 62 -99 122 -173 330 -410 617 -850 714 -1098 28
-69 67 -224 88 -347 25 -144 25 -508 0 -665 -36 -230 -96 -442 -184 -650 -50
-116 -142 -291 -158 -296 -5 -2 -185 -31 -399 -64 l-389 -61 -101 32 c-81 25
-167 59 -184 74 -1 1 24 58 57 126 52 110 111 258 111 277 0 4 -11 24 -23 46
l-24 38 -68 -88 c-135 -174 -372 -401 -590 -566 -387 -293 -654 -400 -1035
-415 -253 -10 -432 19 -722 117 -563 189 -1280 575 -1846 992 -50 37 -94 68
-97 68 -9 0 -5 -99 6 -127 13 -35 308 -329 484 -482 234 -205 475 -393 714
-558 73 -51 127 -95 120 -97 -8 -2 -256 -31 -552 -62 -296 -32 -542 -61 -548
-64 -9 -6 25 -282 231 -1880 27 -212 70 -545 95 -740 25 -195 76 -598 114
-895 95 -734 88 -663 60 -669 -54 -12 -501 -87 -504 -84 -1 2 -19 55 -40 118
-125 383 -305 726 -523 999 -93 117 -269 294 -377 380 -334 267 -653 390
-1096 421 -293 20 -709 -26 -709 -79 0 -3 78 -4 172 -3 341 7 618 -54 923
-203 194 -94 301 -170 441 -309 189 -189 333 -395 495 -711 132 -257 216 -473
293 -753 117 -425 142 -747 81 -1045 -58 -282 -221 -603 -394 -776 -173 -173
-437 -300 -731 -353 -136 -24 -399 -29 -525 -9 -249 39 -489 129 -688 258
l-68 44 18 -31 c10 -17 52 -77 94 -133 169 -227 361 -382 567 -457 113 -41
200 -57 401 -71 332 -23 641 27 899 146 191 89 406 269 511 430 216 331 341
870 329 1424 l-3 165 220 33 c121 18 234 32 251 33 l31 0 62 -447 c101 -725
117 -833 123 -839 5 -5 221 20 843 96 140 17 1547 187 2115 255 113 14 538 65
945 115 407 49 1570 189 2585 311 1015 122 1848 225 1852 229 4 3 -6 138 -22
300 -17 162 -62 601 -100 975 -86 843 -123 1202 -255 2495 -57 564 -125 1223
-150 1465 -24 242 -67 660 -95 929 -27 269 -52 491 -54 494 -3 2 -92 -12 -198
-32 -226 -42 -228 -43 -228 -16 0 12 -13 159 -30 328 -16 169 -54 564 -85 877
-71 740 -286 2970 -375 3890 -38 396 -106 1096 -150 1555 -44 459 -87 903 -95
985 -28 288 -75 774 -75 785 0 11 -46 11 -135 -1z m974 -9239 c11 -146 100
-1221 196 -2390 96 -1169 185 -2243 197 -2388 13 -158 18 -266 12 -271 -5 -5
-112 -27 -239 -49 -126 -23 -441 -80 -700 -126 -884 -160 -3629 -656 -4345
-786 -393 -71 -992 -179 -1330 -240 -338 -61 -645 -117 -682 -124 -38 -7 -68
-12 -68 -10 0 5 -220 1849 -265 2214 -19 157 -82 683 -140 1170 -58 487 -134
1124 -169 1415 -35 292 -62 532 -60 534 2 2 238 36 526 76 l522 72 51 -22
c119 -53 455 -148 680 -191 137 -27 397 -25 535 5 240 51 454 146 605 269 112
91 241 212 305 287 l43 50 2146 391 c1180 215 2149 388 2152 385 4 -3 16 -125
28 -271z"/>
<path d="M16892 10900 c-6 -14 -45 -97 -87 -185 -42 -88 -139 -290 -215 -450
-207 -436 -614 -1292 -685 -1442 -35 -73 -66 -133 -69 -133 -3 0 -173 111
-378 247 -205 135 -518 342 -696 460 -177 117 -326 213 -330 213 -7 0 -156
-248 -916 -1522 -143 -241 -265 -438 -271 -438 -5 0 -314 90 -685 199 l-675
198 -125 -191 c-69 -105 -195 -298 -280 -428 -85 -131 -236 -361 -335 -513
-99 -151 -244 -374 -323 -494 l-143 -219 31 -289 c18 -158 33 -289 34 -290 1
-1 339 61 751 137 784 145 2565 474 4225 781 1509 279 1563 289 1568 293 2 3
-8 127 -22 278 -14 150 -53 566 -86 923 -33 358 -87 940 -120 1295 -33 355
-78 850 -101 1100 -22 250 -44 464 -49 475 -7 19 -8 19 -18 -5z"/>
<path d="M12754 16145 c-66 -14 -133 -44 -153 -69 -11 -13 -10 -17 5 -22 60
-21 85 -35 90 -48 3 -8 -12 -44 -34 -81 -22 -36 -43 -83 -47 -104 -11 -65 20
-177 84 -306 105 -213 204 -344 314 -419 52 -34 52 -34 117 -24 36 5 115 7
175 4 96 -4 141 -12 232 -41 16 -5 23 -2 27 12 3 11 2 127 -3 259 -11 272 -26
348 -90 479 -49 100 -117 176 -217 245 -165 114 -330 152 -500 115z"/>
<path d="M9990 15700 c-231 -22 -448 -97 -626 -215 -135 -90 -225 -204 -281
-355 -26 -71 -28 -84 -27 -240 0 -161 1 -167 32 -251 55 -145 176 -303 292
-382 l34 -24 101 44 c210 94 544 193 772 229 97 15 111 20 137 48 40 44 94
160 111 241 19 88 19 260 1 346 -18 83 -39 125 -110 219 -72 94 -73 119 -11
188 25 27 45 55 45 60 0 6 -13 21 -30 35 -56 47 -263 74 -440 57z"/>
<path d="M13560 13509 c-372 -32 -917 -176 -1048 -275 -113 -87 -131 -245 -43
-382 30 -45 63 -77 142 -134 227 -165 421 -273 574 -321 178 -56 353 -60 452
-12 116 57 237 213 363 468 105 212 125 278 125 417 0 93 -4 122 -19 150 -24
46 -61 78 -105 90 -42 12 -303 11 -441 -1z"/>
<path d="M16195 3170 c-295 -18 -560 -90 -762 -208 -411 -241 -625 -695 -626
-1332 -1 -526 163 -980 451 -1251 267 -251 625 -369 1122 -369 689 0 1153 240
1375 713 107 228 152 447 162 783 22 761 -212 1261 -703 1503 -261 128 -619
185 -1019 161z m406 -516 c186 -32 319 -96 438 -209 131 -126 216 -304 258
-540 24 -142 24 -481 -1 -620 -86 -479 -339 -722 -798 -767 -261 -25 -528 28
-700 141 -183 120 -300 309 -359 578 -26 123 -38 461 -20 599 23 175 72 332
143 452 48 83 179 211 263 258 89 49 200 88 295 104 41 6 82 13 90 15 53 10
309 3 391 -11z"/>
<path d="M19870 3174 c-434 -19 -787 -121 -1028 -299 -293 -215 -464 -538
-512 -970 -13 -118 -13 -440 1 -563 22 -207 87 -449 159 -593 170 -340 460
-564 863 -669 210 -55 312 -65 632 -65 404 1 592 30 883 137 l52 19 0 820 0
819 -468 0 -468 0 -97 -254 c-53 -139 -97 -256 -97 -260 0 -3 124 -6 275 -6
l275 0 0 -364 0 -364 -52 -12 c-145 -31 -256 -42 -373 -36 -438 21 -715 174
-866 481 -87 178 -129 384 -129 633 1 624 296 962 900 1032 133 16 460 7 590
-15 162 -27 353 -82 493 -140 16 -7 17 9 17 257 l0 265 -102 32 c-273 84 -632
128 -948 115z"/>
<path d="M0 1590 l0 -1560 733 0 c445 0 776 4 843 11 741 72 1144 500 1235
1309 15 134 15 498 0 615 -38 298 -121 526 -258 710 -196 263 -507 419 -925
464 -60 7 -390 11 -863 11 l-765 0 0 -1560z m1581 1032 c198 -48 323 -115 436
-236 174 -186 246 -463 222 -850 -15 -237 -54 -399 -135 -556 -83 -163 -190
-268 -349 -345 -184 -89 -327 -107 -825 -103 l-345 3 -3 1058 -2 1059 457 -5
c419 -4 465 -6 544 -25z"/>
<path d="M4103 3008 c-33 -79 -318 -748 -633 -1488 -593 -1392 -630 -1480
-630 -1486 0 -2 134 -4 298 -4 l297 0 137 338 c75 185 168 414 206 507 39 94
176 431 306 750 328 803 379 926 381 923 5 -6 497 -1133 502 -1150 5 -17 -15
-18 -319 -18 l-324 0 -97 -243 c-53 -133 -97 -246 -97 -250 0 -4 225 -7 500
-7 l500 0 14 -32 c7 -18 30 -67 49 -108 20 -41 101 -217 181 -390 l146 -315
310 -3 c192 -1 310 1 310 7 0 6 -31 81 -69 168 -38 87 -212 487 -386 888 -175
402 -423 973 -552 1270 -129 297 -259 594 -287 660 l-52 120 -316 3 -315 2
-60 -142z"/>
<path d="M5820 2900 l0 -250 450 0 450 0 0 -1310 0 -1310 290 0 290 0 0 1310
0 1310 445 0 445 0 0 250 0 250 -1185 0 -1185 0 0 -250z"/>
<path d="M9211 3128 c-5 -13 -61 -146 -125 -295 -64 -150 -167 -393 -230 -540
-695 -1632 -949 -2231 -953 -2246 -5 -16 12 -17 292 -15 l298 3 227 555 c124
305 354 869 510 1253 156 383 287 697 291 697 3 0 15 -21 26 -47 12 -27 123
-282 248 -568 125 -286 229 -525 232 -532 3 -8 -79 -11 -319 -13 -177 0 -326
-4 -329 -8 -4 -4 -49 -116 -102 -249 l-95 -243 502 0 502 0 50 -107 c27 -59
115 -249 195 -423 l145 -315 312 -3 c172 -1 312 1 312 4 0 4 -72 171 -160 373
-87 201 -391 899 -674 1551 l-515 1185 -316 3 -315 2 -9 -22z"/>
<path d="M11590 1589 l0 -1560 798 4 c857 4 859 4 1067 59 535 142 847 543
935 1203 18 136 24 469 11 611 -61 656 -368 1049 -931 1188 -215 53 -276 56
-1111 56 l-769 0 0 -1561z m1494 1046 c357 -54 581 -228 684 -530 47 -138 57
-218 57 -445 -1 -306 -32 -465 -132 -670 -50 -104 -64 -124 -147 -205 -132
-130 -231 -182 -431 -227 -80 -18 -136 -21 -517 -25 l-428 -5 0 1061 0 1061
408 0 c309 0 431 -4 506 -15z"/>
</g>
</svg>
