<?xml version="1.0" standalone="no"?>
<!DOCTYPE svg PUBLIC "-//W3C//DTD SVG 20010904//EN"
 "http://www.w3.org/TR/2001/REC-SVG-20010904/DTD/svg10.dtd">
<svg version="1.0" xmlns="http://www.w3.org/2000/svg"
 width="2000.000000pt" height="1024.000000pt" viewBox="0 0 2000.000000 1024.000000"
 preserveAspectRatio="xMidYMid meet">
<metadata>
Created by potrace 1.15, written by Peter Selinger 2001-2017
</metadata>
<g transform="translate(0.000000,1024.000000) scale(0.100000,-0.100000)"
fill="#000000" stroke="none">
<path d="M0 5135 l0 -5105 10000 0 10000 0 0 5105 0 5105 -10000 0 -10000 0 0
-5105z m9952 2654 l3 -471 75 67 c152 136 327 189 516 154 119 -22 236 -114
294 -233 38 -77 46 -163 55 -626 9 -476 21 -568 77 -604 12 -8 55 -21 93 -29
68 -13 70 -15 73 -45 l3 -32 -395 0 -396 0 0 23 c0 27 24 51 60 62 54 16 88
37 99 62 23 50 33 265 28 593 -5 354 -15 440 -62 536 -35 71 -75 96 -170 102
-101 6 -169 -15 -234 -74 -111 -100 -120 -152 -120 -679 -1 -410 4 -457 53
-502 19 -17 52 -37 74 -43 40 -10 52 -25 52 -62 0 -19 -6 -19 -389 -16 -214 2
-392 6 -395 9 -24 23 38 62 115 73 29 4 54 15 68 30 44 47 46 89 46 1021 0
848 -1 881 -19 919 -23 46 -64 73 -124 82 -47 7 -100 44 -89 61 9 14 42 19
236 38 90 9 207 25 260 35 53 10 99 18 103 19 4 1 9 -211 10 -470z m-672 156
l0 -245 -49 0 c-27 0 -53 6 -58 13 -6 6 -13 42 -15 79 -11 132 -67 195 -193
217 -66 12 -293 31 -361 31 l-44 0 1 -672 c0 -370 4 -783 8 -918 7 -218 10
-249 28 -285 12 -22 29 -48 40 -57 29 -27 88 -48 133 -48 60 0 80 -14 80 -55
l0 -35 -495 0 -495 0 6 28 c10 41 22 48 109 67 97 20 122 35 142 83 24 58 32
344 33 1156 l0 739 -137 -7 c-251 -13 -392 -43 -434 -92 -22 -26 -37 -73 -45
-144 -4 -33 -12 -66 -18 -74 -6 -8 -35 -17 -65 -21 l-54 -7 6 73 c4 41 10 152
14 247 l6 172 929 0 928 0 0 -245z m2996 -418 c125 -35 232 -117 309 -237 73
-114 99 -201 119 -402 l6 -58 -491 0 -492 0 6 -112 c10 -200 84 -396 186 -499
77 -76 145 -103 266 -104 148 0 262 51 402 179 l63 57 16 -35 c23 -48 8 -80
-72 -156 -181 -169 -343 -229 -582 -217 -179 9 -308 65 -431 188 -167 165
-240 367 -228 629 20 422 247 715 604 780 65 12 256 4 319 -13z m3120 -2066
c80 -36 134 -127 134 -222 -1 -118 -107 -219 -230 -219 -50 0 -131 41 -167 85
-93 112 -53 287 82 358 41 22 130 21 181 -2z m-12676 -340 c0 -278 5 -261 -75
-261 l-42 0 -7 53 c-17 132 -68 220 -148 252 -33 13 -94 19 -258 26 -118 4
-227 8 -242 9 l-28 0 0 -459 0 -458 59 -6 c157 -17 252 -19 336 -8 164 22 202
53 230 191 25 117 27 120 80 120 l45 0 0 -385 0 -385 -44 0 c-24 0 -48 6 -53
13 -6 6 -16 41 -23 77 -32 168 -82 195 -377 205 -87 3 -181 8 -209 10 l-52 5
5 -398 c5 -532 14 -597 84 -621 41 -14 352 -14 439 0 151 24 230 91 280 238
11 33 20 78 20 100 0 48 18 61 82 61 73 0 72 5 44 -196 -14 -98 -30 -225 -37
-280 l-13 -102 -44 -6 c-59 -8 -582 -8 -1165 1 l-467 6 0 27 c0 36 13 46 85
60 155 30 194 58 217 157 18 81 19 1849 1 1936 -25 118 -48 138 -183 167 -98
22 -120 35 -120 77 l0 23 790 0 790 0 0 -249z m15520 -291 l0 -230 210 0 c116
0 210 -3 210 -7 0 -7 -9 -48 -35 -160 -5 -23 -6 -23 -200 -23 l-194 0 5 -467
c6 -583 13 -693 48 -761 50 -98 119 -128 270 -118 56 3 113 9 129 12 25 6 27
4 27 -28 0 -52 -22 -73 -113 -106 -98 -36 -202 -52 -331 -52 -87 0 -98 2 -167
37 -127 63 -201 155 -228 283 -17 76 -30 384 -31 690 0 140 -3 312 -7 383 l-6
127 -104 0 -103 0 0 63 c0 99 2 101 78 113 87 14 175 58 219 109 50 58 119
202 138 289 l17 76 84 0 84 0 0 -230z m-10488 -200 c3 -25 7 -91 7 -147 1 -57
4 -103 7 -103 3 0 46 38 96 85 179 168 232 190 463 190 l160 0 68 -34 c87 -42
175 -127 216 -209 61 -120 62 -130 71 -692 5 -283 12 -540 15 -569 6 -44 14
-62 39 -87 29 -29 113 -64 156 -64 26 0 57 -28 62 -55 l5 -25 -438 0 -439 0 0
29 c0 35 11 45 79 68 61 20 87 49 102 109 19 80 33 617 21 819 -19 304 -52
411 -146 470 -46 28 -56 30 -145 30 -119 -1 -169 -21 -245 -99 -115 -118 -121
-150 -120 -696 0 -571 1 -575 130 -640 51 -26 69 -40 69 -55 0 -30 -48 -33
-483 -34 l-383 -1 3 38 3 37 66 6 c77 6 125 31 153 78 29 51 38 252 34 806 -4
474 -4 491 -25 537 -26 57 -76 86 -167 96 l-61 7 -3 35 -3 35 208 23 c114 13
249 32 298 42 50 10 97 17 105 16 10 -1 17 -17 22 -46z m4392 17 c3 -12 6 -70
6 -129 0 -58 3 -113 6 -122 5 -12 25 2 87 59 114 104 178 150 245 176 51 20
75 23 222 23 160 1 167 0 220 -26 71 -35 130 -93 192 -187 27 -42 51 -78 54
-80 2 -2 39 29 81 70 93 89 189 159 269 196 57 27 65 28 224 28 l165 0 74 -40
c85 -46 153 -116 195 -199 55 -108 57 -130 67 -685 4 -283 13 -539 19 -569 17
-94 58 -133 162 -153 68 -14 85 -25 94 -61 l6 -28 -436 0 -436 0 0 29 c0 34
11 44 65 61 62 20 93 47 105 91 7 26 10 223 8 592 l-3 552 -33 68 c-19 37 -47
78 -66 92 -103 78 -321 41 -411 -70 -18 -22 -50 -74 -70 -115 l-38 -75 8 -460
c7 -476 14 -592 40 -631 9 -13 33 -28 57 -34 75 -20 93 -33 96 -68 l3 -32
-405 0 c-431 0 -417 -2 -400 45 4 9 40 32 80 50 117 53 108 9 112 580 2 331 0
516 -8 570 -14 100 -52 185 -100 229 -100 90 -315 60 -415 -57 -66 -76 -95
-152 -106 -269 -12 -132 4 -930 20 -972 15 -37 45 -61 104 -83 52 -19 71 -35
81 -70 l7 -23 -441 0 -441 0 3 38 3 37 74 7 c77 6 108 21 143 69 31 41 40 189
40 694 0 498 -8 642 -40 684 -27 36 -82 61 -154 69 l-63 7 -3 35 -3 35 208 24
c114 12 251 31 303 40 52 9 100 15 107 13 6 -2 14 -13 17 -25z m3376 -584 c0
-615 8 -862 30 -944 13 -47 55 -95 91 -103 13 -3 49 -10 81 -16 48 -9 57 -15
63 -37 3 -14 3 -28 0 -32 -4 -3 -211 -6 -460 -6 -487 0 -503 2 -458 46 13 13
47 26 94 35 127 24 142 56 159 344 18 298 7 848 -20 1025 -8 50 -15 65 -44 91
-36 31 -94 54 -137 54 -25 0 -69 36 -69 57 0 17 12 19 265 48 121 14 254 31
295 39 41 8 83 14 93 15 16 1 17 -35 17 -616z m-11147 582 c45 -8 115 -22 155
-31 l73 -16 -3 -199 c-2 -115 -7 -202 -13 -208 -5 -5 -37 -11 -70 -13 l-60 -3
-12 40 c-6 22 -21 72 -32 111 -28 97 -74 162 -135 193 -41 21 -61 25 -131 24
-105 -1 -170 -22 -229 -75 -117 -102 -166 -278 -166 -592 0 -203 19 -345 63
-476 75 -219 199 -324 382 -322 126 2 239 51 347 150 32 30 60 53 62 51 1 -2
13 -30 26 -62 l23 -58 -34 -35 c-56 -58 -169 -140 -247 -179 -183 -91 -416
-87 -619 11 -287 138 -440 457 -419 874 16 331 134 570 351 715 75 50 213 102
302 114 85 12 278 5 386 -14z m1712 -4 c336 -89 553 -348 611 -731 60 -392
-125 -787 -441 -940 -136 -66 -225 -84 -410 -84 -181 -1 -236 10 -370 73 -215
102 -354 275 -422 527 -24 91 -26 115 -26 289 0 173 2 199 26 287 87 326 302
531 622 594 100 19 307 12 410 -15z m4390 -1 c158 -40 311 -133 411 -250 170
-199 246 -498 199 -785 -45 -280 -162 -464 -383 -602 -90 -56 -176 -88 -289
-108 -389 -68 -739 93 -903 415 -141 277 -130 696 25 976 53 95 197 237 290
286 78 40 180 74 270 88 91 14 287 4 380 -20z m6517 4 c46 -8 111 -24 145 -35
78 -26 83 -38 83 -220 l0 -139 -80 0 c-90 0 -94 3 -124 95 -29 87 -68 148
-111 172 -111 62 -311 20 -368 -77 -27 -45 -32 -118 -13 -182 20 -70 79 -127
267 -260 272 -193 379 -294 431 -405 30 -63 32 -76 31 -168 -1 -173 -37 -261
-153 -376 -166 -164 -392 -207 -693 -130 -162 41 -189 56 -200 106 -4 22 -7
95 -5 163 3 137 3 137 76 148 61 9 84 -11 138 -119 86 -173 106 -187 252 -187
54 0 114 5 133 11 120 40 172 165 117 278 -33 69 -135 164 -312 290 -329 236
-396 337 -383 581 14 266 142 415 402 466 83 16 245 11 367 -12z"/>
<path d="M11958 7433 c-53 -6 -129 -77 -168 -156 -31 -65 -63 -175 -75 -266
l-7 -54 148 7 c186 9 405 24 463 32 l43 7 -6 51 c-14 108 -77 249 -143 318
-44 46 -153 72 -255 61z"/>
<path d="M5713 4526 c-134 -44 -224 -177 -254 -376 -18 -120 -6 -541 19 -660
64 -302 196 -470 380 -487 219 -20 365 135 411 437 15 94 15 390 1 490 -50
358 -223 591 -448 606 -42 2 -83 -1 -109 -10z"/>
<path d="M10118 4526 c-123 -26 -203 -121 -250 -294 -26 -100 -36 -414 -18
-588 42 -413 192 -635 429 -638 113 -2 165 17 232 83 94 95 139 220 160 448
33 365 -51 714 -211 879 -99 102 -211 138 -342 110z"/>
</g>
</svg>
