<?xml version="1.0" standalone="no"?>
<!DOCTYPE svg PUBLIC "-//W3C//DTD SVG 20010904//EN"
 "http://www.w3.org/TR/2001/REC-SVG-20010904/DTD/svg10.dtd">
<svg version="1.0" xmlns="http://www.w3.org/2000/svg"
 width="2084.000000pt" height="391.000000pt" viewBox="0 0 2084.000000 391.000000"
 preserveAspectRatio="xMidYMid meet">
<metadata>
Created by potrace 1.15, written by Peter Selinger 2001-2017
</metadata>
<g transform="translate(0.000000,391.000000) scale(0.100000,-0.100000)"
fill="#000000" stroke="none">
<path d="M1752 3899 c-202 -22 -424 -86 -620 -179 -218 -105 -391 -230 -563
-406 -307 -316 -491 -690 -555 -1124 -22 -154 -15 -452 14 -588 133 -612 579
-1000 1234 -1071 218 -24 445 -6 610 49 163 55 272 122 391 241 l77 78 0 -53
c0 -129 68 -231 185 -277 87 -34 295 -34 441 0 l101 23 154 722 c148 693 154
726 154 836 0 101 -3 121 -24 163 -14 29 -38 58 -61 73 -81 53 -88 54 -709 54
-623 0 -647 -2 -729 -54 -103 -65 -173 -226 -176 -402 -1 -73 2 -85 29 -129
18 -29 49 -61 75 -77 80 -49 141 -58 392 -58 l227 0 -14 -41 c-86 -242 -303
-399 -574 -416 -424 -26 -767 257 -801 660 -38 458 219 924 607 1104 166 77
158 76 828 83 518 6 608 9 658 23 183 53 266 146 331 371 23 78 62 257 81 369
l6 37 -843 -1 c-464 -1 -880 -6 -926 -10z"/>
<path d="M5300 3894 c-429 -66 -790 -257 -1066 -565 -331 -370 -510 -880 -491
-1404 9 -245 50 -411 152 -621 114 -236 289 -424 521 -560 258 -152 536 -219
904 -218 286 1 487 37 713 130 540 220 923 696 1061 1314 137 620 13 1165
-348 1525 -227 226 -517 359 -886 404 -120 15 -446 12 -560 -5z m461 -886
c208 -77 333 -222 385 -446 20 -84 19 -270 0 -382 -81 -455 -416 -780 -806
-780 -172 0 -318 58 -430 170 -73 73 -117 148 -152 260 -20 66 -23 94 -22 240
0 182 14 262 73 414 103 267 316 469 565 537 103 28 294 22 387 -13z"/>
<path d="M18990 3894 c-285 -45 -521 -135 -741 -282 -423 -284 -709 -752 -794
-1298 -23 -149 -30 -381 -16 -515 64 -578 409 -1015 940 -1189 365 -119 835
-117 1210 6 452 148 811 464 1034 910 92 185 160 402 191 614 82 555 -50 1028
-378 1355 -208 207 -450 327 -787 391 -121 24 -531 28 -659 8z m450 -882 c141
-50 238 -125 309 -237 189 -298 113 -815 -164 -1123 -221 -245 -589 -322 -858
-180 -78 41 -182 146 -224 223 -63 121 -78 191 -77 375 0 146 3 177 27 265 47
181 96 281 201 414 98 125 257 231 408 271 97 27 294 22 378 -8z"/>
<path d="M15030 3870 c-89 -5 -166 -14 -200 -25 -174 -54 -288 -169 -351 -354
-11 -30 -135 -600 -276 -1266 -247 -1160 -257 -1215 -258 -1321 0 -103 2 -114
30 -169 35 -69 100 -124 179 -150 67 -23 293 -32 395 -16 189 30 305 142 370
356 12 39 48 198 81 355 33 157 62 295 65 308 5 21 9 22 139 22 l133 0 342
-455 c359 -478 385 -508 511 -574 78 -41 171 -61 281 -61 155 0 315 44 522
143 l108 52 -187 255 c-354 482 -562 776 -553 784 2 2 47 24 101 49 356 167
599 458 694 835 65 257 48 551 -44 739 -46 94 -80 142 -152 212 -135 133 -325
217 -605 268 -75 14 -179 17 -635 18 -300 1 -610 -1 -690 -5z m932 -741 c189
-40 274 -175 247 -391 -27 -214 -131 -342 -328 -401 -58 -18 -103 -21 -372
-24 l-307 -5 48 229 c26 125 64 310 85 410 l38 182 101 4 c252 8 439 6 488 -4z"/>
<path d="M8215 3855 c-220 -41 -358 -159 -435 -373 -23 -63 -108 -469 -312
-1492 -256 -1277 -281 -1415 -282 -1510 -2 -203 73 -314 251 -375 133 -45 193
-47 1273 -43 995 4 1017 5 1110 26 138 31 208 69 268 145 91 114 122 202 123
342 2 136 -51 216 -177 266 l-59 24 -879 3 -878 3 6 42 c17 107 96 458 116
511 26 68 75 126 128 152 34 18 79 19 617 25 613 6 643 8 736 55 113 57 189
220 189 406 0 130 -33 189 -134 238 -91 45 -166 50 -810 50 l-568 0 5 23 c3
12 27 116 52 230 65 295 89 352 173 412 l44 30 711 5 c768 6 761 6 869 61 66
33 142 113 176 182 46 94 142 471 142 556 l0 21 -1192 -1 c-942 -1 -1208 -4
-1263 -14z"/>
<path d="M11365 3854 c-193 -43 -334 -178 -389 -374 -32 -115 -316 -1450 -330
-1558 -20 -143 -21 -398 -1 -518 54 -332 228 -575 520 -722 304 -153 834 -204
1247 -121 578 116 967 503 1152 1146 27 93 466 2106 466 2136 0 4 -134 7 -297
6 -336 0 -384 -7 -487 -69 -125 -75 -244 -244 -295 -418 -11 -37 -88 -382
-171 -767 -84 -385 -163 -736 -177 -780 -59 -188 -149 -310 -276 -374 -80 -41
-154 -54 -267 -49 -258 14 -391 137 -415 383 -10 103 2 175 162 920 146 679
146 680 147 816 1 132 0 137 -29 194 -35 69 -92 117 -168 141 -75 24 -301 28
-392 8z"/>
</g>
</svg>
