<?xml version="1.0" standalone="no"?>
<!DOCTYPE svg PUBLIC "-//W3C//DTD SVG 20010904//EN"
 "http://www.w3.org/TR/2001/REC-SVG-20010904/DTD/svg10.dtd">
<svg version="1.0" xmlns="http://www.w3.org/2000/svg"
 width="2000.000000pt" height="1600.000000pt" viewBox="0 0 2000.000000 1600.000000"
 preserveAspectRatio="xMidYMid meet">
<metadata>
Created by potrace 1.15, written by Peter Selinger 2001-2017
</metadata>
<g transform="translate(0.000000,1600.000000) scale(0.100000,-0.100000)"
fill="#000000" stroke="none">
<path d="M0 8000 l0 -8000 10000 0 10000 0 0 8000 0 8000 -10000 0 -10000 0 0
-8000z m4825 3397 c688 -1478 932 -2003 1000 -2150 l64 -137 -397 2 -396 3
-113 270 c-61 149 -112 276 -112 283 -1 9 -116 12 -540 12 l-539 0 -34 -82
c-19 -46 -72 -174 -118 -285 l-83 -203 -389 0 c-214 0 -387 3 -385 8 5 7 409
873 732 1567 92 198 263 565 379 815 117 250 250 537 297 637 l84 183 60 0 60
0 430 -923z m-3295 -344 l0 -1243 630 0 c346 0 630 -3 630 -8 0 -4 -71 -160
-158 -347 l-159 -340 -846 -3 -847 -2 0 1595 0 1595 375 -2 375 -3 0 -1242z
m8364 -2508 c113 -20 245 -57 341 -95 90 -36 251 -116 259 -129 4 -7 -265
-603 -279 -619 -2 -2 -59 23 -127 57 -136 66 -234 101 -350 125 -204 42 -392
-5 -465 -115 -25 -37 -28 -52 -28 -118 1 -155 76 -219 438 -378 364 -159 490
-235 637 -382 81 -81 103 -111 143 -191 74 -149 90 -224 90 -420 0 -182 -12
-247 -73 -394 -152 -364 -509 -583 -985 -603 -289 -12 -624 62 -925 203 -118
56 -270 143 -270 155 0 3 21 51 46 105 25 54 89 191 141 304 53 113 99 209
103 213 4 4 36 -10 71 -32 169 -102 359 -179 539 -217 118 -25 345 -26 415 -1
136 47 202 178 162 318 -38 128 -161 214 -537 374 -249 106 -387 193 -516 327
-165 172 -232 329 -241 568 -6 158 8 246 60 374 135 329 443 533 887 590 73 9
378 -3 464 -19z m2361 2 c177 -33 316 -78 470 -152 61 -29 118 -59 128 -67 18
-14 27 6 -224 -526 -21 -46 -39 -88 -39 -93 0 -15 -14 -11 -113 40 -344 175
-653 199 -800 62 -104 -96 -86 -269 39 -364 63 -48 181 -108 370 -190 84 -36
192 -86 241 -110 222 -112 406 -270 492 -421 159 -280 141 -693 -42 -979 -55
-86 -181 -212 -273 -273 -358 -238 -880 -256 -1422 -50 -147 56 -412 195 -412
217 0 12 278 611 288 621 5 5 49 -16 98 -46 240 -148 543 -234 786 -223 92 4
116 9 171 35 102 47 139 108 139 229 0 62 -4 80 -29 125 -18 31 -54 73 -89
101 -68 55 -238 145 -405 213 -364 149 -577 318 -692 549 -143 288 -117 643
67 898 51 71 159 179 229 226 146 99 359 172 572 195 80 8 372 -3 450 -17z
m-10371 -17 c593 -57 1008 -343 1149 -795 39 -123 50 -228 44 -394 -4 -113
-11 -170 -32 -251 -84 -325 -291 -566 -607 -702 -200 -86 -391 -118 -704 -118
l-204 0 0 -467 1 -468 -376 -3 -375 -2 0 1580 c0 869 3 1580 8 1580 4 0 86 7
182 15 388 34 719 43 914 25z m2707 -14 c486 -79 794 -279 936 -607 55 -127
74 -218 80 -380 10 -274 -49 -495 -190 -704 -52 -77 -176 -201 -250 -250 l-57
-38 21 -36 c12 -20 163 -277 336 -571 174 -294 324 -550 335 -567 l20 -33
-431 0 -430 0 -15 28 c-9 15 -129 245 -268 512 l-254 485 -187 3 -187 2 0
-515 0 -515 -380 0 -380 0 0 1580 c0 1165 3 1580 11 1580 6 0 84 7 173 15 274
26 450 33 741 30 191 -2 311 -8 376 -19z m13241 -578 l3 -603 570 -2 570 -3 3
-385 2 -385 -575 0 -575 0 -2 -605 -3 -606 -375 0 c-206 0 -379 1 -385 1 -7 0
-9 207 -7 605 l2 605 -192 0 c-106 0 -345 3 -530 7 l-338 6 0 379 0 378 228 1
c125 0 355 0 512 -1 157 0 294 2 303 6 16 6 17 50 17 605 l0 599 385 0 385 0
2 -602z m-9784 230 l2 -348 -635 0 -635 0 0 -270 0 -270 565 0 565 0 0 -330 0
-330 -565 0 -565 0 0 -295 0 -295 633 -2 632 -3 0 -345 0 -345 -1012 -3 -1013
-2 0 1595 0 1595 1013 -2 1012 -3 3 -347z m7172 2 l0 -350 -630 0 -630 0 0
-270 0 -270 565 0 565 0 0 -330 0 -330 -565 0 -565 0 0 -295 0 -295 630 0 630
0 0 -350 0 -350 -1010 0 -1010 0 0 1595 0 1595 1010 0 1010 0 0 -350z"/>
<path d="M4298 11003 c-14 -38 -87 -223 -162 -411 -75 -189 -136 -348 -136
-353 0 -11 647 -12 653 -1 2 4 -15 54 -38 112 -23 58 -95 243 -161 412 -65
169 -121 308 -124 308 -3 0 -17 -30 -32 -67z"/>
<path d="M1650 7834 c-19 -2 -54 -7 -78 -10 l-42 -5 2 -447 3 -447 165 -3
c195 -3 290 12 395 61 165 79 247 237 232 446 -13 187 -111 310 -293 373 -75
26 -103 30 -218 33 -72 2 -147 1 -166 -1z"/>
<path d="M4180 7864 c-8 -1 -41 -6 -72 -9 l-58 -6 0 -434 0 -433 66 -7 c36 -4
125 -5 197 -3 109 4 146 10 211 32 188 64 289 182 317 369 46 307 -166 499
-546 495 -55 0 -107 -2 -115 -4z"/>
</g>
</svg>
