<?xml version="1.0" standalone="no"?>
<!DOCTYPE svg PUBLIC "-//W3C//DTD SVG 20010904//EN"
 "http://www.w3.org/TR/2001/REC-SVG-20010904/DTD/svg10.dtd">
<svg version="1.0" xmlns="http://www.w3.org/2000/svg"
 width="2296.000000pt" height="381.000000pt" viewBox="0 0 2296.000000 381.000000"
 preserveAspectRatio="xMidYMid meet">
<metadata>
Created by potrace 1.15, written by Peter Selinger 2001-2017
</metadata>
<g transform="translate(0.000000,381.000000) scale(0.100000,-0.100000)"
fill="#000000" stroke="none">
<path d="M9368 3725 c-176 -30 -309 -103 -375 -207 -48 -78 -53 -123 -53 -533
l0 -380 -33 75 c-77 176 -198 310 -352 387 -326 166 -881 127 -1200 -82 -37
-25 -69 -45 -71 -45 -1 0 -13 19 -27 43 -35 59 -108 124 -175 155 -50 23 -70
27 -162 27 -173 0 -268 -44 -432 -203 -63 -61 -99 -90 -102 -81 -2 8 -7 46
-11 84 -9 102 -34 205 -50 205 -54 0 -536 -109 -737 -166 l-87 -25 -65 49
c-97 74 -206 110 -398 131 -227 25 -482 8 -666 -45 -111 -32 -288 -119 -373
-183 -85 -65 -214 -200 -264 -279 -22 -34 -42 -62 -45 -62 -3 0 -17 33 -32 73
-66 175 -203 325 -373 408 -159 77 -242 93 -475 93 -273 1 -433 -34 -630 -135
-251 -128 -436 -359 -504 -630 -29 -112 -51 -318 -43 -401 l5 -58 -25 38 c-74
111 -167 179 -418 305 -361 182 -478 282 -492 421 -12 120 44 210 150 241 211
61 430 -143 501 -467 l6 -28 116 0 116 0 -7 163 c-6 173 -19 309 -36 387 l-10
47 -77 30 c-163 64 -333 93 -544 93 -490 0 -793 -159 -884 -465 -24 -82 -24
-258 0 -340 28 -93 74 -172 146 -245 81 -84 191 -156 390 -255 263 -131 382
-223 436 -340 44 -92 28 -213 -35 -276 -64 -65 -202 -82 -313 -39 -193 73
-331 277 -393 583 l-5 27 -130 0 -130 0 0 -102 c0 -133 42 -503 66 -579 9 -32
217 -107 389 -141 146 -29 467 -31 615 -4 207 38 375 114 478 217 92 91 134
175 167 333 6 29 8 27 46 -44 146 -269 402 -440 760 -506 145 -27 439 -25 584
4 112 22 240 62 329 102 130 59 306 182 306 213 0 16 14 7 63 -40 194 -187
461 -282 837 -300 228 -10 412 22 630 110 87 36 190 89 259 136 11 7 10 18
-10 66 l-24 57 -40 -6 c-22 -3 -69 -10 -105 -16 -115 -17 -335 -12 -426 10
-307 73 -513 304 -578 647 -47 250 -19 553 66 730 120 249 337 265 573 41 47
-44 108 -109 136 -144 48 -61 53 -64 94 -64 41 0 47 4 104 68 34 37 76 95 94
129 l32 63 67 0 c56 0 71 -4 95 -24 58 -49 57 -25 61 -953 l3 -853 107 0 c309
0 523 92 600 259 36 78 41 181 41 864 l1 588 38 -7 c80 -15 188 -57 317 -124
74 -38 144 -70 155 -70 24 0 24 0 5 -70 -85 -310 -47 -685 96 -936 89 -156
277 -320 450 -392 310 -129 687 -146 1034 -47 117 33 311 130 403 201 41 30
75 54 76 52 2 -2 16 -28 32 -58 40 -76 128 -161 205 -199 102 -50 190 -64 354
-57 287 11 489 67 698 192 34 21 63 38 64 38 1 1 -5 30 -14 65 -14 55 -18 62
-37 58 -180 -39 -191 -40 -264 -29 -204 32 -301 167 -332 462 -5 52 -10 327
-10 611 l0 517 88 6 c110 9 348 35 385 42 26 5 27 8 27 70 0 63 0 64 -27 64
-16 0 -118 7 -228 15 -110 8 -210 15 -222 15 l-23 0 0 320 0 320 -122 -1 c-68
-1 -157 -7 -200 -14z m-6602 -780 c141 -42 238 -243 272 -566 l8 -77 -96 -22
c-111 -25 -346 -65 -441 -75 l-66 -7 -6 129 c-16 307 39 526 150 594 65 40
106 46 179 24z m5293 -14 c83 -43 154 -161 196 -324 24 -95 52 -293 43 -302
-22 -22 -580 -116 -596 -100 -4 3 -7 100 -7 213 1 227 11 295 62 399 62 126
186 173 302 114z m883 -1053 c2 -233 7 -430 11 -439 6 -13 -8 -22 -69 -48
-126 -53 -216 -73 -359 -78 -188 -8 -294 12 -431 79 -115 55 -221 172 -281
306 -21 48 -73 227 -73 252 0 4 28 13 63 20 291 57 833 213 1072 309 28 11 53
20 57 21 3 0 8 -190 10 -422z m-5395 350 c-56 -222 -13 -543 99 -746 41 -75
45 -68 -73 -111 -139 -51 -227 -64 -387 -58 -198 7 -323 46 -443 139 -123 94
-223 284 -255 483 -3 18 15 24 199 67 248 57 523 134 708 198 77 26 144 48
149 49 4 0 6 -9 3 -21z"/>
<path d="M11930 3724 c-186 -34 -381 -113 -540 -219 -114 -76 -295 -260 -374
-382 -195 -299 -275 -606 -263 -1016 8 -271 44 -423 150 -631 120 -236 321
-433 566 -556 91 -46 280 -106 396 -126 136 -23 396 -24 525 0 221 40 423 130
616 275 l32 23 78 -31 c165 -65 305 -86 514 -78 166 6 272 29 383 80 200 94
328 264 344 459 l6 66 38 -79 c125 -258 366 -432 701 -506 127 -28 445 -25
586 5 127 28 247 71 325 117 l58 35 56 -46 c69 -56 107 -75 203 -105 67 -21
94 -24 250 -24 250 0 395 36 576 143 l50 30 35 -46 c105 -142 355 -175 592
-77 16 7 17 -18 15 -494 l-3 -501 30 -1 c128 -5 239 19 299 65 19 14 43 45 55
69 20 42 21 57 21 446 l0 403 28 -6 c321 -70 644 -37 918 93 127 61 210 116
298 200 127 122 222 271 277 435 l27 80 7 -45 c33 -198 160 -428 306 -550 216
-182 459 -259 773 -246 221 10 405 58 595 158 52 27 95 48 96 47 1 -2 8 -21
16 -43 13 -36 21 -42 94 -73 154 -64 300 -91 491 -92 385 0 651 146 754 415
32 83 40 289 15 384 -53 206 -164 308 -523 483 -306 148 -387 207 -432 313
-60 140 -13 328 100 397 179 110 405 17 518 -212 39 -78 71 -191 72 -247 0
-22 4 -23 77 -23 l76 0 -6 153 c-7 149 -23 279 -46 365 -12 41 -16 45 -94 83
-137 65 -218 82 -397 82 -127 1 -171 -3 -245 -21 -224 -56 -403 -199 -455
-367 -7 -22 -15 -43 -19 -47 -3 -4 -24 27 -46 69 -105 199 -286 322 -528 359
-498 77 -977 -219 -1140 -704 -26 -78 -37 -97 -37 -66 0 39 -42 179 -74 250
-140 302 -416 488 -783 526 -228 24 -456 -26 -652 -141 -60 -36 -65 -34 -75
31 -3 21 -14 57 -23 79 l-16 41 -66 -7 c-76 -8 -316 -67 -476 -118 l-110 -35
3 -54 c2 -29 6 -56 10 -60 4 -4 29 -1 56 7 27 8 72 15 101 15 57 0 84 -19 105
-75 21 -54 29 -338 30 -1029 l0 -678 -60 4 c-75 5 -123 41 -162 119 -52 103
-59 184 -67 843 -8 563 -9 606 -29 678 -28 102 -64 171 -123 233 -89 94 -214
140 -409 152 -325 18 -621 -104 -862 -356 -115 -120 -117 -124 -84 -190 33
-65 92 -131 117 -131 13 0 29 21 55 73 89 177 177 275 299 333 180 86 419 54
519 -69 78 -97 105 -189 113 -387 l5 -145 -88 -24 c-178 -47 -450 -143 -570
-200 -322 -154 -482 -336 -515 -583 -10 -74 -4 -159 16 -210 8 -20 -45 -50
-180 -98 -76 -28 -108 -33 -206 -38 -253 -10 -472 76 -631 247 -147 160 -222
358 -250 659 -33 373 75 671 296 814 89 57 171 80 291 81 180 0 344 -63 462
-179 36 -35 74 -64 84 -64 37 0 135 246 127 318 -2 22 -15 33 -69 60 -88 44
-189 70 -336 84 -338 33 -677 -75 -913 -290 -231 -210 -370 -547 -370 -896 l0
-100 -30 48 c-77 121 -179 193 -475 336 -202 97 -273 138 -328 189 -87 79
-127 191 -108 304 19 115 71 189 161 231 68 31 186 28 264 -7 77 -35 170 -131
214 -219 34 -69 72 -201 72 -250 l0 -28 77 0 76 0 -6 153 c-6 148 -23 277 -46
365 -12 41 -16 45 -94 83 -137 65 -218 82 -397 82 -187 1 -294 -21 -422 -87
l-84 -42 -33 80 c-100 245 -281 439 -493 528 -147 62 -244 80 -453 84 -142 2
-211 -1 -275 -12z m205 -219 c254 -53 415 -239 519 -601 l34 -119 -36 -11
c-419 -131 -760 -219 -1156 -300 -93 -19 -172 -34 -174 -34 -9 0 8 224 23 310
71 401 233 655 470 738 33 12 71 23 85 25 58 10 170 6 235 -8z m8677 -506 c63
-13 136 -48 189 -90 46 -36 119 -144 149 -219 31 -76 70 -219 62 -224 -4 -2
-77 -24 -162 -50 -204 -60 -465 -126 -674 -169 l-169 -35 7 90 c38 496 269
766 598 697z m-1982 -70 c41 -11 113 -38 160 -61 70 -34 102 -59 181 -137 81
-82 102 -110 142 -191 64 -131 87 -232 94 -410 19 -497 -148 -846 -455 -952
-59 -20 -86 -23 -227 -23 -191 0 -251 15 -387 96 l-88 53 0 775 1 776 62 28
c179 79 331 92 517 46z m-5840 -529 c29 -87 69 -147 145 -219 80 -74 158 -121
352 -210 280 -128 375 -200 436 -328 29 -63 32 -76 32 -168 0 -90 -3 -105 -27
-152 -61 -115 -144 -172 -259 -181 -267 -19 -471 153 -594 501 l-28 77 -66 0
-66 0 7 -147 c4 -82 14 -184 22 -228 l15 -80 -29 -25 c-42 -37 -131 -89 -200
-117 -102 -41 -209 -56 -340 -49 -342 18 -616 161 -816 425 -73 96 -160 265
-199 386 -27 84 -62 261 -54 270 3 3 104 29 225 59 482 120 973 278 1329 429
l80 34 6 -106 c5 -67 15 -130 29 -171z m8599 0 c16 -62 72 -150 137 -213 69
-68 165 -125 365 -218 279 -129 374 -203 436 -335 24 -51 28 -71 28 -154 0
-81 -4 -103 -26 -150 -56 -121 -143 -181 -270 -188 -262 -15 -462 156 -584
501 l-28 77 -68 0 -68 0 5 -92 c3 -51 9 -131 15 -178 5 -47 9 -92 9 -101 0
-31 -199 -110 -339 -134 -329 -58 -639 67 -821 331 -84 121 -153 300 -162 418
l-3 39 225 58 c386 99 677 196 960 319 85 38 160 68 166 69 5 1 16 -21 23 -49z
m-4429 -698 l0 -379 -60 -57 c-33 -31 -85 -69 -117 -84 -53 -24 -69 -27 -173
-27 -108 0 -119 2 -182 32 -141 67 -218 194 -218 363 0 229 145 407 397 487
98 31 159 40 266 42 l87 1 0 -378z"/>
</g>
</svg>
