<?xml version="1.0" standalone="no"?>
<!DOCTYPE svg PUBLIC "-//W3C//DTD SVG 20010904//EN"
 "http://www.w3.org/TR/2001/REC-SVG-20010904/DTD/svg10.dtd">
<svg version="1.0" xmlns="http://www.w3.org/2000/svg"
 width="602.000000pt" height="127.000000pt" viewBox="0 0 602.000000 127.000000"
 preserveAspectRatio="xMidYMid meet">
<metadata>
Created by potrace 1.15, written by Peter Selinger 2001-2017
</metadata>
<g transform="translate(0.000000,127.000000) scale(0.100000,-0.100000)"
fill="#000000" stroke="none">
<path d="M5117 669 l-299 -589 178 2 178 3 122 239 122 239 121 -241 122 -242
174 0 c96 0 175 3 175 7 0 7 -580 1155 -589 1165 -3 4 -140 -258 -304 -583z"/>
<path d="M3470 748 c-139 -276 -263 -519 -275 -541 l-23 -39 -96 141 c-53 77
-96 142 -96 144 0 3 23 19 50 37 128 82 187 223 161 380 -20 121 -77 204 -179
258 -112 60 -143 64 -519 69 l-343 5 0 -561 0 -561 185 0 185 0 0 160 0 160
40 0 40 0 105 -160 105 -160 337 0 338 0 120 236 c66 130 122 237 125 239 4 2
60 -104 125 -236 l120 -239 177 0 178 0 -294 582 c-162 321 -299 584 -304 586
-4 1 -122 -223 -262 -500z m-693 118 c79 -48 67 -155 -23 -192 -21 -9 -71 -14
-134 -14 l-100 0 0 116 0 116 113 -4 c87 -3 119 -8 144 -22z"/>
<path d="M404 1205 c-165 -30 -285 -124 -325 -257 -28 -93 -23 -175 17 -248
54 -99 152 -152 396 -211 163 -40 198 -56 198 -90 0 -38 -43 -52 -143 -46
-108 6 -199 33 -281 82 -32 19 -62 35 -66 35 -5 0 -51 -51 -104 -113 l-95
-112 32 -28 c48 -41 182 -104 272 -128 111 -29 343 -37 438 -15 142 33 247
109 295 215 21 46 26 71 26 141 1 103 -21 156 -90 220 -71 65 -141 92 -403
155 -113 27 -131 36 -131 70 0 35 27 50 90 49 88 -1 174 -23 257 -66 42 -21
77 -37 78 -36 47 63 166 232 168 239 4 17 -124 88 -203 113 -80 26 -223 47
-305 45 -27 0 -82 -7 -121 -14z"/>
<path d="M1050 1040 l0 -160 165 0 165 0 0 -400 0 -400 185 0 185 0 0 400 0
400 168 2 167 3 3 158 3 157 -521 0 -520 0 0 -160z"/>
<path d="M4197 753 c125 -247 261 -514 303 -594 l75 -147 298 588 c163 323
297 590 297 594 0 3 -78 6 -174 6 l-173 0 -123 -242 c-99 -194 -125 -238 -134
-226 -6 8 -63 117 -126 241 l-115 227 -177 0 -177 0 226 -447z"/>
</g>
</svg>
