<?xml version="1.0" encoding="UTF-8"?>
<svg width="21px" height="13px" viewBox="0 0 21 13" version="1.1" xmlns="http://www.w3.org/2000/svg" xmlns:xlink="http://www.w3.org/1999/xlink">
    <!-- Generator: Sketch 55.1 (78136) - https://sketchapp.com -->
    <title>Path</title>
    <desc>Created with Sketch.</desc>
    <g id="Pages" stroke="none" stroke-width="1" fill="none" fill-rule="evenodd">
        <g id="Blog" transform="translate(-691.000000, -1044.000000)" fill="#45C6CA" fill-rule="nonzero">
            <g id="Group-4" transform="translate(362.000000, 545.000000)">
                <g id="Blog-Article" transform="translate(0.000000, 132.000000)">
                    <path d="M349.740825,372.879315 L344.233802,367.256227 C344.017381,367.035245 343.701939,366.948941 343.406302,367.029826 C343.110664,367.110712 342.879745,367.346498 342.800529,367.648366 C342.721313,367.950234 342.805836,368.272324 343.022257,368.493307 L347.069919,372.619247 L329.860472,372.619247 C329.385247,372.619247 329,373.012613 329,373.497855 C329,373.983096 329.385247,374.376462 329.860472,374.376462 L347.069919,374.376462 L343.036025,378.502403 C342.874599,378.666035 342.783812,378.888686 342.783812,379.120943 C342.783812,379.3532 342.874599,379.575851 343.036025,379.739482 C343.195351,379.906074 343.413754,380 343.641797,380 C343.869841,380 344.088243,379.906074 344.24757,379.739482 L349.754593,374.116395 C349.914211,373.950897 350.00253,373.72719 350,373.494928 C349.99736,373.262666 349.904086,373.041066 349.740825,372.879315 Z" id="Path"></path>
                </g>
            </g>
        </g>
    </g>
</svg>