<?xml version="1.0" encoding="UTF-8"?>
<svg width="21px" height="13px" viewBox="0 0 21 13" version="1.1" xmlns="http://www.w3.org/2000/svg" xmlns:xlink="http://www.w3.org/1999/xlink">
    <!-- Generator: Sketch 55.1 (78136) - https://sketchapp.com -->
    <title>Path</title>
    <desc>Created with Sketch.</desc>
    <g id="Pages" stroke="none" stroke-width="1" fill="none" fill-rule="evenodd">
        <g id="Blog" transform="translate(-362.000000, -2124.000000)" fill="#45C6CA" fill-rule="nonzero">
            <path d="M382.740825,2129.87932 L377.233802,2124.25623 C377.017381,2124.03524 376.701939,2123.94894 376.406302,2124.02983 C376.110664,2124.11071 375.879745,2124.3465 375.800529,2124.64837 C375.721313,2124.95023 375.805836,2125.27232 376.022257,2125.49331 L380.069919,2129.61925 L362.860472,2129.61925 C362.385247,2129.61925 362,2130.01261 362,2130.49785 C362,2130.9831 362.385247,2131.37646 362.860472,2131.37646 L380.069919,2131.37646 L376.036025,2135.5024 C375.874599,2135.66603 375.783812,2135.88869 375.783812,2136.12094 C375.783812,2136.3532 375.874599,2136.57585 376.036025,2136.73948 C376.195351,2136.90607 376.413754,2137 376.641797,2137 C376.869841,2137 377.088243,2136.90607 377.24757,2136.73948 L382.754593,2131.11639 C382.914211,2130.9509 383.00253,2130.72719 383,2130.49493 C382.99736,2130.26267 382.904086,2130.04107 382.740825,2129.87932 Z" id="Path" transform="translate(372.500000, 2130.500000) scale(-1, 1) translate(-372.500000, -2130.500000) "></path>
        </g>
    </g>
</svg>