<?xml version="1.0" encoding="UTF-8"?>
<svg width="30px" height="30px" viewBox="0 0 30 30" version="1.1" xmlns="http://www.w3.org/2000/svg" xmlns:xlink="http://www.w3.org/1999/xlink">
    <!-- Generator: Sketch 55.1 (78136) - https://sketchapp.com -->
    <title>rocket-ship</title>
    <desc>Created with Sketch.</desc>
    <g id="Pages" stroke="none" stroke-width="1" fill="none" fill-rule="evenodd">
        <g id="Blog" transform="translate(-907.000000, -412.000000)" fill="#323743" fill-rule="nonzero">
            <g id="Group-3-Copy-5" transform="translate(820.000000, 388.000000)">
                <g id="Group-6" transform="translate(41.000000, 24.000000)">
                    <g id="rocket-ship" transform="translate(46.000000, 0.000000)">
                        <path d="M29.8173552,0.60861461 C29.785466,0.35070529 29.5823426,0.147581864 29.3245088,0.115692695 C27.0009824,-0.171687657 24.6033249,0.0788161209 22.3899748,0.839848866 C20.176398,1.60095718 18.1314106,2.87811083 16.476272,4.53324937 L12.6992191,8.31030227 L7.24715365,9.01345088 C7.12284635,9.02947103 7.00745592,9.08622166 6.91881612,9.17478589 L1.66216625,14.4314358 C1.51337531,14.5802267 1.45926952,14.7992947 1.52176322,15.0003023 C1.58410579,15.2013098 1.75284635,15.3511587 1.95974811,15.389471 L5.93433249,16.1256423 L6.71531486,16.9066247 L5.05261965,17.8070025 C4.89528967,17.8921662 4.78738035,18.0467003 4.76161209,18.2237531 C4.73584383,18.400806 4.79516373,18.579597 4.92166247,18.7060957 L11.226801,25.0112343 C11.3338791,25.1183123 11.4783627,25.1772544 11.6276071,25.1772544 C11.6546599,25.1772544 11.6820151,25.1752897 11.7092191,25.1713602 C11.886272,25.1455919 12.040806,25.0376826 12.1259698,24.8803526 L13.0264232,23.2176574 L13.8074055,23.9986398 L14.5435768,27.9732242 C14.5819647,28.1802015 14.731738,28.3488665 14.9327456,28.4112846 C14.9879849,28.4284383 15.0445844,28.4367506 15.100806,28.4367506 C15.2489169,28.4367506 15.3937028,28.3786398 15.5016877,28.2707305 L20.7583375,23.0140806 C20.8469018,22.9255164 20.9036524,22.8100504 20.9196725,22.6858186 L21.6228967,17.2336776 L25.3999496,13.4565491 C27.0550882,11.8014106 28.3322418,9.75649874 29.0933501,7.54292191 C29.8543073,5.32957179 30.1046599,2.93161209 29.8173552,0.60861461 Z M6.02070529,14.9890428 L3.22556675,14.471335 L7.58372796,10.1130227 L11.3871537,9.62251889 L6.02070529,14.9890428 Z M11.4910579,23.6726448 L6.26040302,18.4420655 L7.55146096,17.7429219 L12.1901259,22.3816625 L11.4910579,23.6726448 Z M19.8200252,22.3493199 L15.4617884,26.7075567 L14.944005,23.9124937 L20.310529,18.5459698 L19.8200252,22.3493199 Z M24.598262,12.6552393 L14.3325189,22.9209824 L7.01206549,15.600529 L17.2778086,5.33471033 C18.7693451,3.84309824 20.6028967,2.68413098 22.5891688,1.97274559 C22.8457179,3.29455919 23.4920403,4.52078086 24.4521914,5.48085642 C25.412267,6.44100756 26.6384131,7.08732997 27.9603023,7.34395466 C27.2488413,9.33007557 26.0897985,11.1636272 24.598262,12.6552393 Z M28.3014861,6.25496222 C27.1526448,6.05901763 26.0839798,5.50964736 25.2536524,4.67939547 C24.4233249,3.84914358 23.8740302,2.78040302 23.6780856,1.63156171 C25.3209824,1.18881612 27.0467758,1.03783375 28.7403023,1.19274559 C28.8952897,2.88627204 28.7442317,4.61206549 28.3014861,6.25496222 Z" id="Shape"></path>
                        <path d="M16.7248111,8.34581864 C15.3842569,9.68644836 15.3842569,11.8676826 16.7248111,13.2083123 C17.3951637,13.878665 18.2755164,14.213728 19.1560957,14.213728 C20.0363728,14.213728 20.9171033,13.8785139 21.5873048,13.2083123 L21.5873804,13.2083123 C22.9279345,11.8677582 22.9279345,9.68644836 21.5873048,8.34581864 C20.2466751,7.00526448 18.0653652,7.00534005 16.7248111,8.34581864 Z M20.7858438,12.4067758 C19.8870529,13.3054912 18.4248363,13.3053401 17.5263476,12.4067758 C16.6276322,11.508136 16.6276322,10.0459194 17.5263476,9.1472796 C17.9755919,8.6979597 18.5658438,8.47337531 19.1560202,8.47337531 C19.746272,8.47337531 20.3364484,8.69803526 20.7856927,9.1472796 C21.6844081,10.0459194 21.6844081,11.508136 20.7858438,12.4067758 Z" id="Shape"></path>
                        <path d="M7.43312343,22.606927 C7.21171285,22.3855919 6.85292191,22.3855919 6.6315869,22.606927 L1.76901763,27.4694207 C1.54768262,27.6907557 1.54768262,28.0496222 1.76901763,28.2708816 C1.87972292,28.3815113 2.02481108,28.4369018 2.16982368,28.4369018 C2.31483627,28.4369018 2.45992443,28.3815869 2.57062972,28.2708816 L7.43312343,23.4083879 C7.65438287,23.1871285 7.65438287,22.828262 7.43312343,22.606927 Z" id="Path"></path>
                        <path d="M8.18108312,24.1564987 L5.99032746,26.3472544 C5.76899244,26.5685894 5.76899244,26.9274559 5.99032746,27.1487154 C6.10103275,27.2593451 6.24612091,27.3147355 6.3911335,27.3147355 C6.5361461,27.3147355 6.68123426,27.2594207 6.79193955,27.1487154 L8.98269521,24.9579597 C9.20403023,24.7366247 9.20403023,24.3777582 8.98269521,24.1564987 C8.76128463,23.9351637 8.4024937,23.9351637 8.18108312,24.1564987 Z" id="Path"></path>
                        <path d="M5.2234005,27.3490428 C4.98627204,27.3490428 4.76984887,27.5019899 4.68974811,27.7248363 C4.60828715,27.9513854 4.6840806,28.2115617 4.87231738,28.360806 C5.06478589,28.5134509 5.34581864,28.5217632 5.54697733,28.3808312 C5.7615869,28.2304534 5.8486398,27.9417884 5.74639798,27.6989169 C5.66229219,27.4892191 5.44828715,27.3490428 5.2234005,27.3490428 Z" id="Path"></path>
                        <path d="M5.75855353,27.7111274 C5.77755353,27.7562274 5.74055353,27.6661274 5.75855353,27.7111274 L5.75855353,27.7111274 Z" id="Path"></path>
                        <path d="M3.62040302,28.7172544 L3.31874055,29.0189169 C3.09732997,29.2402519 3.09732997,29.5991184 3.31866499,29.8204534 C3.42937028,29.9310831 3.57438287,29.9864736 3.71947103,29.9864736 C3.86448363,29.9864736 4.00957179,29.9311587 4.12020151,29.820529 L4.42186398,29.5188665 C4.64327456,29.2975315 4.64327456,28.938665 4.42193955,28.7174055 C4.20060453,28.4961461 3.84166247,28.4959194 3.62040302,28.7172544 Z" id="Path"></path>
                        <path d="M3.21173804,23.7290176 C2.99032746,23.5076826 2.63153652,23.5076826 2.41020151,23.7290176 L0.219445844,25.9197733 C-0.00188916877,26.1411083 -0.00188916877,26.4999748 0.219445844,26.7212343 C0.330151134,26.831864 0.475239295,26.8872544 0.620251889,26.8872544 C0.765264484,26.8872544 0.910352645,26.8319395 1.02105793,26.7212343 L3.2118136,24.5304786 C3.43307305,24.3092191 3.43307305,23.9503526 3.21173804,23.7290176 Z" id="Path"></path>
                        <path d="M4.11627204,23.5115365 C4.34622166,23.453728 4.51881612,23.2533249 4.54277078,23.0175567 C4.56627204,22.7867003 4.4393199,22.5604534 4.23324937,22.4563224 C4.01448363,22.3456927 3.74032746,22.391864 3.57060453,22.5692191 C3.3888665,22.7591184 3.36264484,23.0548111 3.50622166,23.2746348 C3.50168766,23.2678338 3.49821159,23.2628463 3.50735516,23.2768262 C3.51687657,23.290806 3.5136272,23.2857431 3.5090932,23.2790176 C3.64261965,23.4729975 3.88632242,23.5693451 4.11627204,23.5115365 Z" id="Path"></path>
                        <path d="M5.58188917,22.1604786 L5.88347607,21.8588161 C6.10481108,21.6374811 6.10481108,21.2786146 5.8834005,21.0573552 C5.66183879,20.8359446 5.30297229,20.8360202 5.08193955,21.0574307 L4.78035264,21.3590932 C4.55901763,21.5804282 4.55901763,21.9392947 4.78042821,22.1605542 C4.8911335,22.2711839 5.0361461,22.3264987 5.18115869,22.3264987 C5.32617128,22.3264987 5.47125945,22.2711839 5.58188917,22.1604786 Z" id="Path"></path>
                    </g>
                </g>
            </g>
        </g>
    </g>
</svg>