<?xml version="1.0" encoding="UTF-8"?>
<svg width="877px" height="287px" viewBox="0 0 877 287" version="1.1" xmlns="http://www.w3.org/2000/svg" xmlns:xlink="http://www.w3.org/1999/xlink">
    <!-- Generator: Sketch 55.1 (78136) - https://sketchapp.com -->
    <title>Group 4</title>
    <desc>Created with Sketch.</desc>
    <defs>
        <linearGradient x1="79.5829757%" y1="-44.4612724%" x2="-18.2279612%" y2="131.798515%" id="linearGradient-1">
            <stop stop-color="#F3FDFF" offset="0%"></stop>
            <stop stop-color="#DFE1FF" offset="100%"></stop>
        </linearGradient>
    </defs>
    <g id="Pages" stroke="none" stroke-width="1" fill="none" fill-rule="evenodd" opacity="0.577241443">
        <g id="Author-Page" transform="translate(-645.000000, -145.000000)" fill="url(#linearGradient-1)">
            <g id="Group-4" transform="translate(641.000000, 126.994894)">
                <path d="M43.5,166.912584 L55.0788383,173.597629 C60.3386566,176.634386 63.5788383,182.246546 63.5788383,188.320061 L63.5788383,201.690152 C63.5788383,207.763667 60.3386566,213.375826 55.0788383,216.412584 L43.5,223.097629 C38.2401817,226.134386 31.7598183,226.134386 26.5,223.097629 L14.9211617,216.412584 C9.66134337,213.375826 6.42116168,207.763667 6.42116168,201.690152 L6.42116168,188.320061 C6.42116168,182.246546 9.66134337,176.634386 14.9211617,173.597629 L26.5,166.912584 C31.7598183,163.875826 38.2401817,163.875826 43.5,166.912584 Z" id="Polygon-Copy-5" transform="translate(35.000000, 195.005106) rotate(-267.000000) translate(-35.000000, -195.005106) "></path>
                <path d="M814.5,148.907477 L868.514083,180.092523 C873.773901,183.12928 877.014083,188.74144 877.014083,194.814955 L877.014083,257.185045 C877.014083,263.25856 873.773901,268.87072 868.514083,271.907477 L814.5,303.092523 C809.240182,306.12928 802.759818,306.12928 797.5,303.092523 L743.485917,271.907477 C738.226099,268.87072 734.985917,263.25856 734.985917,257.185045 L734.985917,194.814955 C734.985917,188.74144 738.226099,183.12928 743.485917,180.092523 L797.5,148.907477 C802.759818,145.87072 809.240182,145.87072 814.5,148.907477 Z" id="Polygon-Copy-4" transform="translate(806.000000, 226.000000) rotate(-248.000000) translate(-806.000000, -226.000000) "></path>
                <path d="M474.5,20.9074773 L503.399346,37.5925227 C508.659165,40.6292802 511.899346,46.2414395 511.899346,52.3149546 L511.899346,85.6850454 C511.899346,91.7585605 508.659165,97.3707198 503.399346,100.407477 L474.5,117.092523 C469.240182,120.12928 462.759818,120.12928 457.5,117.092523 L428.600654,100.407477 C423.340835,97.3707198 420.100654,91.7585605 420.100654,85.6850454 L420.100654,52.3149546 C420.100654,46.2414395 423.340835,40.6292802 428.600654,37.5925227 L457.5,20.9074773 C462.759818,17.8707198 469.240182,17.8707198 474.5,20.9074773 Z" id="Polygon-Copy-6" transform="translate(466.000000, 69.000000) rotate(-248.000000) translate(-466.000000, -69.000000) "></path>
            </g>
        </g>
    </g>
</svg>