<?xml version="1.0" encoding="UTF-8"?>
<svg width="23px" height="32px" viewBox="0 0 23 32" version="1.1" xmlns="http://www.w3.org/2000/svg" xmlns:xlink="http://www.w3.org/1999/xlink">
    <!-- Generator: Sketch 55.1 (78136) - https://sketchapp.com -->
    <title>pin (2)</title>
    <desc>Created with Sketch.</desc>
    <g id="Landingpage---v2" stroke="none" stroke-width="1" fill="none" fill-rule="evenodd">
        <g id="ABM-Landing-Page---Media" transform="translate(-370.000000, -4786.000000)" fill="#45C6CA" fill-rule="nonzero">
            <g id="Group-21" transform="translate(362.000000, 3926.000000)">
                <g id="Form-section" transform="translate(0.000000, 404.000000)">
                    <g id="Group-15" transform="translate(5.000000, 418.000000)">
                        <g id="pin-(2)" transform="translate(3.000000, 38.000000)">
                            <path d="M11.5,0 C5.1589,0 0,5.04675 0,11.25 C0,13.345875 0.593463889,15.39125 1.71663056,17.16575 L10.8453944,31.5568125 C11.0202583,31.8325 11.3283306,32 11.6596583,32 C11.6622139,32 11.6647056,32 11.6672611,32 C12.0014639,31.9974375 12.310175,31.82475 12.4818444,31.54425 L21.377925,17.01375 C22.4391194,15.27675 23,13.2836875 23,11.25 C23,5.04675 17.8411,0 11.5,0 Z M19.7331056,16.051125 L11.6451556,29.261625 L3.34566944,16.177875 C2.41078333,14.700875 1.90388889,12.996875 1.90388889,11.25 C1.90388889,6.080625 6.21575,1.8625 11.5,1.8625 C16.78425,1.8625 21.0897222,6.080625 21.0897222,11.25 C21.0897222,12.9450625 20.6162417,14.6055 19.7331056,16.051125 Z" id="Shape"></path>
                            <path d="M12,6 C8.6916,6 6,8.4673 6,11.5 C6,14.5133278 8.6478,17 12,17 C15.3935333,17 18,14.4802056 18,11.5 C18,8.4673 15.3084,6 12,6 Z M12,15.1788889 C9.78286667,15.1788889 7.98666667,13.5268722 7.98666667,11.5 C7.98666667,9.4782 9.7944,7.82111111 12,7.82111111 C14.2056,7.82111111 16.0066667,9.4782 16.0066667,11.5 C16.0066667,13.4972944 14.2522667,15.1788889 12,15.1788889 Z" id="Shape"></path>
                        </g>
                    </g>
                </g>
            </g>
        </g>
    </g>
</svg>