<?xml version="1.0" encoding="UTF-8"?>
<svg width="31px" height="35px" viewBox="0 0 31 35" version="1.1" xmlns="http://www.w3.org/2000/svg" xmlns:xlink="http://www.w3.org/1999/xlink">
    <!-- Generator: Sketch 55.1 (78136) - https://sketchapp.com -->
    <title>pdf</title>
    <desc>Created with Sketch.</desc>
    <g id="Pages" stroke="none" stroke-width="1" fill="none" fill-rule="evenodd" opacity="0.739467076">
        <g id="Blog" transform="translate(-620.000000, -821.000000)" fill-rule="nonzero">
            <g id="Group-4" transform="translate(362.000000, 545.000000)">
                <g id="Blog-Article" transform="translate(0.000000, 132.000000)">
                    <g id="PDF-Inside" transform="translate(245.000000, 137.000000)">
                        <g id="pdf" transform="translate(13.000000, 7.000000)">
                            <path d="M6.25,0 C5.0125,0 4,0.984375 4,2.1875 L4,32.8125 C4,34.015625 5.0125,35 6.25,35 L28.75,35 C29.9875,35 31,34.015625 31,32.8125 L31,8.75 L22,0 L6.25,0 Z" id="Path" fill="#E2E5E7"></path>
                            <path d="M24.25,9 L31,9 L22,0 L22,6.75 C22,7.9875 23.0125,9 24.25,9 Z" id="Path" fill="#B0B7BD"></path>
                            <polygon id="Path" fill="#CAD1D8" points="31 16 24 9 31 9"></polygon>
                            <path d="M27,27.9166667 C27,28.5125 26.49375,29 25.875,29 L1.125,29 C0.50625,29 0,28.5125 0,27.9166667 L0,17.0833333 C0,16.4875 0.50625,16 1.125,16 L25.875,16 C26.49375,16 27,16.4875 27,17.0833333 L27,27.9166667 Z" id="Path" fill="#F15642"></path>
                            <g id="Group" transform="translate(5.000000, 20.000000)" fill="#FFFFFF">
                                <path d="M0.050592,0.610133333 C0.050592,0.328533333 0.276896,0.0213333333 0.641376,0.0213333333 L2.650912,0.0213333333 C3.782432,0.0213333333 4.8008,0.763733333 4.8008,2.18666667 C4.8008,3.53493333 3.782432,4.28586667 2.650912,4.28586667 L1.198432,4.28586667 L1.198432,5.41226667 C1.198432,5.78773333 0.95472,6 0.641376,6 C0.354144,6 0.050592,5.78773333 0.050592,5.41226667 L0.050592,0.610133333 L0.050592,0.610133333 Z M1.198432,1.09546667 L1.198432,3.22026667 L2.650912,3.22026667 C3.23408,3.22026667 3.695392,2.71573333 3.695392,2.18666667 C3.695392,1.5904 3.23408,1.09546667 2.650912,1.09546667 L1.198432,1.09546667 Z" id="Shape"></path>
                                <path d="M6.504608,6 C6.217376,6 5.904032,5.8464 5.904032,5.472 L5.904032,0.6272 C5.904032,0.321066667 6.217376,0.0981333333 6.504608,0.0981333333 L8.496736,0.0981333333 C12.472288,0.0981333333 12.385248,6 8.575072,6 L6.504608,6 L6.504608,6 Z M7.05296,1.1392 L7.05296,4.96 L8.496736,4.96 C10.845728,4.96 10.950176,1.1392 8.496736,1.1392 L7.05296,1.1392 L7.05296,1.1392 Z" id="Shape"></path>
                                <path d="M13.795296,1.20746667 L13.795296,2.5632 L16.013728,2.5632 C16.327072,2.5632 16.640416,2.8704 16.640416,3.168 C16.640416,3.4496 16.327072,3.68 16.013728,3.68 L13.795296,3.68 L13.795296,5.47093333 C13.795296,5.7696 13.578784,5.99893333 13.274144,5.99893333 C12.891168,5.99893333 12.657248,5.7696 12.657248,5.47093333 L12.657248,0.626133333 C12.657248,0.32 12.892256,0.0970666667 13.274144,0.0970666667 L16.32816,0.0970666667 C16.711136,0.0970666667 16.93744,0.32 16.93744,0.626133333 C16.93744,0.8992 16.711136,1.2064 16.32816,1.2064 L13.795296,1.2064 L13.795296,1.20746667 Z" id="Path"></path>
                            </g>
                            <path d="M25.9,30 L5,30 L5,31 L25.9,31 C26.505,31 27,30.55 27,30 L27,29 C27,29.55 26.505,30 25.9,30 Z" id="Path" fill="#CAD1D8"></path>
                        </g>
                    </g>
                </g>
            </g>
        </g>
    </g>
</svg>