<?xml version="1.0" encoding="UTF-8"?>
<svg width="25px" height="21px" viewBox="0 0 25 21" version="1.1" xmlns="http://www.w3.org/2000/svg" xmlns:xlink="http://www.w3.org/1999/xlink">
    <!-- Generator: Sketch 55.1 (78136) - https://sketchapp.com -->
    <title>Group 13 Copy 6</title>
    <desc>Created with Sketch.</desc>
    <g id="Pages" stroke="none" stroke-width="1" fill="none" fill-rule="evenodd">
        <g id="Pricing--v2---modified" transform="translate(-525.000000, -1291.000000)">
            <g id="Group-13-Copy-6" transform="translate(526.000000, 1290.000000)">
                <g id="Group-16">
                    <path d="M12.5,0.577350269 L20.4592921,5.17264973 C21.0780943,5.52991532 21.4592921,6.19016936 21.4592921,6.90470054 L21.4592921,16.0952995 C21.4592921,16.8098306 21.0780943,17.4700847 20.4592921,17.8273503 L12.5,22.4226497 C11.8811978,22.7799153 11.1188022,22.7799153 10.5,22.4226497 L2.54070786,17.8273503 C1.9219057,17.4700847 1.54070786,16.8098306 1.54070786,16.0952995 L1.54070786,6.90470054 C1.54070786,6.19016936 1.9219057,5.52991532 2.54070786,5.17264973 L10.5,0.577350269 C11.1188022,0.220084679 11.8811978,0.220084679 12.5,0.577350269 Z" id="Polygon" stroke="#B7DFF2" transform="translate(11.500000, 11.500000) rotate(90.000000) translate(-11.500000, -11.500000) "></path>
                    <path d="M11.9,13.296 C11.9880004,13.296 12.0639997,13.3279997 12.128,13.392 C12.1920003,13.4560003 12.224,13.5319996 12.224,13.62 L12.224,14.676 C12.224,14.7640004 12.1920003,14.8399997 12.128,14.904 C12.0639997,14.9680003 11.9880004,15 11.9,15 L10.868,15 C10.7799996,15 10.7040003,14.9680003 10.64,14.904 C10.5759997,14.8399997 10.544,14.7640004 10.544,14.676 L10.544,13.62 C10.544,13.5319996 10.5759997,13.4560003 10.64,13.392 C10.7040003,13.3279997 10.7799996,13.296 10.868,13.296 L11.9,13.296 Z M11.42,6.48 C11.7960019,6.48 12.1619982,6.53199948 12.518,6.636 C12.8740018,6.74000052 13.1899986,6.89399898 13.466,7.098 C13.7420014,7.30200102 13.9639992,7.5539985 14.132,7.854 C14.3000008,8.1540015 14.384,8.49999804 14.384,8.892 C14.384,9.2120016 14.3340005,9.48999882 14.234,9.726 C14.1339995,9.96200118 14.0060008,10.1739991 13.85,10.362 C13.6939992,10.5500009 13.5240009,10.7219992 13.34,10.878 C13.1559991,11.0340008 12.9820008,11.1819993 12.818,11.322 C12.6539992,11.4620007 12.5100006,11.6079992 12.386,11.76 C12.2619994,11.9120008 12.1880001,12.0759991 12.164,12.252 C12.1479999,12.3400004 12.1120003,12.4159997 12.056,12.48 C11.9999997,12.5440003 11.9280004,12.576 11.84,12.576 L10.928,12.576 C10.8399996,12.576 10.7620003,12.5440003 10.694,12.48 C10.6259997,12.4159997 10.596,12.3400004 10.604,12.252 C10.6200001,11.9399984 10.6859994,11.6660012 10.802,11.43 C10.9180006,11.1939988 11.0579992,10.9820009 11.222,10.794 C11.3860008,10.6059991 11.5619991,10.4360008 11.75,10.284 C11.9380009,10.1319992 12.1119992,9.9860007 12.272,9.846 C12.4320008,9.7059993 12.5639995,9.5660007 12.668,9.426 C12.7720005,9.2859993 12.824,9.13200084 12.824,8.964 C12.824,8.65999848 12.6960013,8.41000098 12.44,8.214 C12.1839987,8.01799902 11.8440021,7.92 11.42,7.92 C10.7399966,7.92 10.2400016,8.2599966 9.92,8.94 C9.8799998,9.02800044 9.83800022,9.09399978 9.794,9.138 C9.74999978,9.18200022 9.67600052,9.204 9.572,9.204 L8.6,9.204 C8.52799964,9.204 8.46600026,9.18000024 8.414,9.132 C8.36199974,9.08399976 8.336,9.0200004 8.336,8.94 C8.34400004,8.6599986 8.42999918,8.37400146 8.594,8.082 C8.75800082,7.78999854 8.97799862,7.52600118 9.254,7.29 C9.53000138,7.05399882 9.85399814,6.86000076 10.226,6.708 C10.5980019,6.55599924 10.9959979,6.48 11.42,6.48 Z" id="?" fill="#B7DFF2" fill-rule="nonzero"></path>
                </g>
            </g>
        </g>
    </g>
</svg>