<?xml version="1.0" encoding="UTF-8"?>
<svg width="57px" height="48px" viewBox="0 0 57 48" version="1.1" xmlns="http://www.w3.org/2000/svg" xmlns:xlink="http://www.w3.org/1999/xlink">
    <!-- Generator: Sketch 55.1 (78136) - https://sketchapp.com -->
    <title>right-quotation-sign</title>
    <desc>Created with Sketch.</desc>
    <g id="Pages" stroke="none" stroke-width="1" fill="none" fill-rule="evenodd" opacity="0.0380394345">
        <g id="Blog---Single" transform="translate(-479.000000, -4006.000000)" fill="#000000" fill-rule="nonzero">
            <g id="right-quotation-sign" transform="translate(507.500000, 4030.000000) scale(1, -1) translate(-507.500000, -4030.000000) translate(479.000000, 4006.000000)">
                <path d="M55.8540325,19.3376357 C52.946937,8.13339799 45.7752893,0 38.8041308,0 C38.2442006,0 37.6848243,0.0525235946 37.1398477,0.156377066 C36.8308062,0.214869251 36.5605332,0.410639012 36.3932742,0.69474391 C36.226569,0.980639385 36.1794927,1.32801134 36.2642299,1.65270265 L37.6992241,7.18439214 C37.8376836,7.71858097 38.3156457,8.07968068 38.8124384,8.05520946 L38.926529,8.05282202 C41.5118446,8.05282202 46.2366363,12.2284478 48.6452776,21.5090088 C48.7405377,21.8772709 48.8308133,22.2538889 48.9177658,22.6466222 C46.2139289,21.2046107 42.9883766,20.8709665 40.0674352,21.7477525 C33.4778711,23.7346962 29.6176205,31.1273921 31.4596856,38.2276271 C32.9528328,43.9807513 37.863714,48 43.4020936,48 C44.5302615,48 45.6567679,47.8322826 46.7505979,47.5022196 C51.0960106,46.1933077 54.3631007,42.305368 55.9504003,36.5570187 C57.3831791,31.3709106 57.3471796,25.0949379 55.8540325,19.3376357 Z" id="Path"></path>
                <path d="M7.80210754,0 C7.24329944,0 6.68338369,0.0513311531 6.138975,0.155187207 C5.83049521,0.212487099 5.55967542,0.409455477 5.39297449,0.693567441 C5.22627356,0.979470026 5.17919855,1.32685062 5.26337975,1.65155001 L6.69889075,7.18337706 C6.83734667,7.71757918 7.30643534,8.07868787 7.81207636,8.05421604 L7.9250564,8.05182855 C10.5103054,8.05182855 15.2355291,12.2275582 17.6441083,21.50835 C17.7399198,21.8790087 17.8301931,22.2556361 17.9165896,22.6459916 C15.2117147,21.2039443 11.9873532,20.8702918 9.06648702,21.7470996 C2.47820041,23.7340927 -1.38305835,31.1269725 0.460066892,38.2273841 C1.95317556,43.9806513 6.86393021,48 12.4021671,48 C13.530306,48 14.6567833,47.8322784 15.7511389,47.5022072 C20.0958858,46.1932628 23.3628917,42.3052264 24.9507042,36.5567341 C26.3828923,31.370497 26.3474476,25.0937714 24.8537851,19.3357291 C21.9451031,8.13240652 14.7747478,0 7.80210754,0 Z" id="Path"></path>
            </g>
        </g>
    </g>
</svg>