<?xml version="1.0" encoding="UTF-8"?>
<svg width="21px" height="15px" viewBox="0 0 21 15" version="1.1" xmlns="http://www.w3.org/2000/svg" xmlns:xlink="http://www.w3.org/1999/xlink">
    <!-- Generator: Sketch 55.1 (78136) - https://sketchapp.com -->
    <title>Path</title>
    <desc>Created with Sketch.</desc>
    <g id="Pages" stroke="none" stroke-width="1" fill="none" fill-rule="evenodd">
        <g id="Blog" transform="translate(-1469.000000, -956.000000)" fill="#FFFFFF" fill-rule="nonzero">
            <g id="Group-4" transform="translate(362.000000, 545.000000)">
                <g id="Group-26" transform="translate(614.000000, 0.000000)">
                    <g id="Group" transform="translate(218.000000, 264.000000)">
                        <g id="Group-16" transform="translate(259.000000, 129.000000)">
                            <path d="M36.7408253,24.7838254 L31.2338024,18.2956471 C31.0173807,18.0406667 30.7019392,17.9410856 30.4063017,18.0344149 C30.1106642,18.1277441 29.879745,18.3998049 29.8005292,18.7481145 C29.7213133,19.0964241 29.8058356,19.468066 30.0222573,19.7230463 L34.0699192,24.4837471 L16.8604723,24.4837471 C16.3852466,24.4837471 16,24.9376309 16,25.497525 C16,26.057419 16.3852466,26.5113028 16.8604723,26.5113028 L34.0699192,26.5113028 L30.0360249,31.2720037 C29.8745993,31.4608091 29.7838123,31.7177142 29.7838123,31.9857033 C29.7838123,32.2536924 29.8745993,32.5105974 30.0360249,32.6994029 C30.1953513,32.8916241 30.4137538,33 30.6417974,33 C30.869841,33 31.0882434,32.8916241 31.2475699,32.6994029 L36.7545929,26.2112246 C36.9142111,26.0202663 37.0025297,25.7621424 37,25.494148 C36.99736,25.2261535 36.9040855,24.9704609 36.7408253,24.7838254 Z" id="Path"></path>
                        </g>
                    </g>
                </g>
            </g>
        </g>
    </g>
</svg>