<?xml version="1.0" encoding="UTF-8"?>
<svg width="21px" height="16px" viewBox="0 0 21 16" version="1.1" xmlns="http://www.w3.org/2000/svg" xmlns:xlink="http://www.w3.org/1999/xlink">
    <!-- Generator: Sketch 55.1 (78136) - https://sketchapp.com -->
    <title>Path</title>
    <desc>Created with Sketch.</desc>
    <g id="Pages" stroke="none" stroke-width="1" fill="none" fill-rule="evenodd">
        <g id="Snowplow-for-WEB" transform="translate(-1505.000000, -4198.000000)" fill="#FFFFFF" fill-rule="nonzero">
            <g id="Group-2" transform="translate(360.000000, 3574.000000)">
                <g id="Group-22" transform="translate(0.000000, 551.000000)">
                    <g id="Heading-CTA" transform="translate(918.000000, 0.000000)">
                        <g id="Group-10" transform="translate(0.000000, 50.000000)">
                            <path d="M247.740825,30.2360804 L242.233802,23.3153569 C242.017381,23.0433779 241.701939,22.937158 241.406302,23.0367092 C241.110664,23.1362604 240.879745,23.4264585 240.800529,23.7979888 C240.721313,24.169519 240.805836,24.565937 241.022257,24.837916 L245.069919,29.9159969 L227.860472,29.9159969 C227.385247,29.9159969 227,30.4001396 227,30.99736 C227,31.5945803 227.385247,32.078723 227.860472,32.078723 L245.069919,32.078723 L241.036025,37.1568039 C240.874599,37.3581964 240.783812,37.6322285 240.783812,37.9180835 C240.783812,38.2039385 240.874599,38.4779706 241.036025,38.6793631 C241.195351,38.884399 241.413754,39 241.641797,39 C241.869841,39 242.088243,38.884399 242.24757,38.6793631 L247.754593,31.7586396 C247.914211,31.5549507 248.00253,31.2796186 248,30.9937578 C247.99736,30.7078971 247.904086,30.4351583 247.740825,30.2360804 Z" id="Path"></path>
                        </g>
                    </g>
                </g>
            </g>
        </g>
    </g>
</svg>