<?xml version="1.0" encoding="UTF-8"?>
<svg width="64px" height="56px" viewBox="0 0 64 56" version="1.1" xmlns="http://www.w3.org/2000/svg" xmlns:xlink="http://www.w3.org/1999/xlink">
    <!-- Generator: Sketch 64 (93537) - https://sketch.com -->
    <title>np_devices_792428_6738B8</title>
    <desc>Created with Sketch.</desc>
    <g id="Explore-Data" stroke="none" stroke-width="1" fill="none" fill-rule="evenodd">
        <g id="Explore-Snowplow-Data-Screen-1" transform="translate(-1133.000000, -511.000000)" fill="#6738B8" fill-rule="nonzero">
            <g id="np_devices_792428_6738B8" transform="translate(1133.000000, 511.000000)">
                <path d="M28.1459512,34.8659512 C26.7191415,34.8659512 25.5605854,36.0245073 25.5605854,37.4513171 C25.5605854,38.8750829 26.7191415,40.0366829 28.1459512,40.0366829 C29.572761,40.0366829 30.7313171,38.8781268 30.7313171,37.4513171 C30.7313171,36.0245073 29.5697171,34.8659512 28.1459512,34.8659512 Z M28.1459512,38.5915317 C27.5148566,38.5915317 27.0057366,38.0793366 27.0057366,37.4513171 C27.0057366,36.8202224 27.5179317,36.3111024 28.1459512,36.3111024 C28.7770459,36.3111024 29.2861659,36.8232976 29.2861659,37.4513171 C29.2861659,38.0793366 28.7739707,38.5915317 28.1459512,38.5915317 Z" id="Shape"></path>
                <path d="M62.7160976,26.7559024 L58.0301268,26.7559024 L58.0301268,4.28643902 C58.0301268,2.28339512 56.3990634,0.652331707 54.3960195,0.652331707 L4.19192195,0.652331707 C2.18887805,0.652331707 0.557814634,2.28339512 0.557814634,4.28643902 L0.557814634,38.2407805 C0.557814634,40.2407805 2.18887805,41.8718439 4.19192195,41.8718439 L22.1400195,41.8718439 C21.8930654,43.2620488 21.1186732,46.1950439 18.832078,47.8657561 C18.5790283,48.0486868 18.47232,48.3748995 18.569881,48.6737171 C18.667442,48.9724956 18.944882,49.1737132 19.2558595,49.1737132 L37.0244449,49.1737132 C37.3384663,49.1737132 37.6159063,48.9724956 37.7134673,48.6737171 C37.8110283,48.3749385 37.7043216,48.051762 37.4512702,47.8657561 C35.1738068,46.2041756 34.3963629,43.2651707 34.1463727,41.8718439 L45.5976898,41.8718439 L45.5976898,54.8232585 C45.5976898,55.2226498 45.9208585,55.5458185 46.3202498,55.5458185 L62.7136156,55.5458185 C63.1130068,55.5458185 63.436197,55.2226498 63.436197,54.8232585 L63.436197,27.4819902 C63.4392242,27.0795473 63.1160507,26.7563785 62.7166595,26.7563785 L62.7160976,26.7559024 Z M47.0454634,50.2922927 L47.0454634,32.0023415 L61.9933659,32.0023415 L61.9933659,50.2922927 L47.0454634,50.2922927 Z M61.9933659,30.5607805 L47.0454634,30.5607805 L47.0454634,28.2010537 L61.9933659,28.2010537 L61.9933659,30.5607805 Z M4.19121951,2.09692098 L54.3953171,2.09692098 C55.6026537,2.09692098 56.5843512,3.07886829 56.5843512,4.28620488 L56.5843512,26.7556683 L46.3224976,26.7556683 C45.9231063,26.7556683 45.5999376,27.0788371 45.5999376,27.4782283 L45.5999376,33.0056429 L2.00579122,33.0056429 L2.00579122,4.28291122 C2.00579122,3.07861854 2.98748878,2.09692098 4.19178146,2.09692098 L4.19121951,2.09692098 Z M35.200078,47.7221463 L21.0903415,47.7221463 C22.8373073,45.6733659 23.4226732,43.0788683 23.6086634,41.8684878 L32.6787122,41.8684878 C32.8677385,43.0788683 33.4531044,45.6764098 35.200078,47.7221463 L35.200078,47.7221463 Z M4.19121951,40.4263805 C2.98388293,40.4263805 2.00218537,39.4446829 2.00218537,38.2403902 L2.00218537,34.4507317 L45.5963317,34.4507317 L45.5963317,40.4263024 L4.19121951,40.4263805 Z M47.0446829,51.7372098 L53.2306732,51.7372098 C53.120921,51.8622127 53.0538459,52.026841 53.0538459,52.2097717 L53.0538459,53.6975376 C53.0538459,53.843879 53.0995778,53.9810732 53.1757971,54.0969288 L47.047719,54.0969288 L47.0446829,51.7372098 Z M55.8649756,54.0969444 C55.9411949,53.981081 55.9838751,53.8469385 55.9838751,53.6975454 L55.9838751,52.2097795 C55.9838751,52.0299005 55.9168016,51.8652644 55.8070478,51.7372176 L61.993038,51.7372176 L61.993038,54.0969444 L55.8649756,54.0969444 Z" id="Shape"></path>
                <path d="M52.3106341,30.2103415 L56.7191415,30.2103415 C57.1185327,30.2103415 57.4417015,29.8871727 57.4417015,29.4877815 C57.4417015,29.0883902 57.1185327,28.7652215 56.7191415,28.7652215 L52.3106341,28.7652215 C51.9112429,28.7652215 51.5880741,29.0883902 51.5880741,29.4877815 C51.5880741,29.8871727 51.9112429,30.2103415 52.3106341,30.2103415 Z" id="Path"></path>
            </g>
        </g>
    </g>
</svg>