<?xml version="1.0" encoding="UTF-8"?>
<svg width="64px" height="65px" viewBox="0 0 64 65" version="1.1" xmlns="http://www.w3.org/2000/svg" xmlns:xlink="http://www.w3.org/1999/xlink">
    <!-- Generator: Sketch 64 (93537) - https://sketch.com -->
    <title>np_connections_1207554_6738B8</title>
    <desc>Created with Sketch.</desc>
    <g id="Explore-Data" stroke="none" stroke-width="1" fill="none" fill-rule="evenodd">
        <g id="Explore-Snowplow-Data-Screen-1" transform="translate(-1371.000000, -504.000000)" fill="#6738B8" fill-rule="nonzero">
            <g id="np_connections_1207554_6738B8" transform="translate(1371.000000, 504.000000)">
                <path d="M32,24.7768511 C28.8032,24.7768511 25.9202043,26.702366 24.6965106,29.6571915 C23.4730894,32.6092936 24.1486366,36.0108936 26.4092596,38.2713191 C28.6698894,40.5319489 32.0714894,41.2074894 35.0233872,39.9840681 C37.9781447,38.7606468 39.9037277,35.8777191 39.9037277,32.6805787 C39.9010683,28.3161872 36.3638468,24.7793021 31.9997277,24.7765787 L32,24.7768511 Z M32,39.2238298 C29.3537362,39.2238298 26.9681021,37.6307745 25.9547915,35.1839319 C24.9414809,32.7398128 25.5026655,29.9259234 27.3723234,28.0533787 C29.2446638,26.1836936 32.0584851,25.6225362 34.5028766,26.6358468 C36.9497191,27.6491574 38.5427745,30.0347915 38.5427745,32.6810553 C38.5401151,36.292766 35.6119149,39.2209702 32.0002043,39.2236255 L32,39.2238298 Z" id="Shape"></path>
                <path d="M32,18.8670638 C32.1808477,18.8670638 32.3537226,18.7952545 32.4813821,18.6675949 C32.6090417,18.5399353 32.6808511,18.3670604 32.6808511,18.1862128 L32.6808511,10.7846809 C35.3297702,10.4256409 37.2473191,8.07720851 37.0664851,5.40970213 C36.8882928,2.74478298 34.6728851,0.673021277 32,0.673021277 C29.3271149,0.673021277 27.1116936,2.74485106 26.9335149,5.40970213 C26.7526672,8.0772766 28.6702298,10.4256681 31.3191489,10.7846809 L31.3191489,18.1862128 C31.3191489,18.3670604 31.3909583,18.5399353 31.5186179,18.6675949 C31.6462774,18.7952545 31.8191523,18.8670638 32,18.8670638 Z M28.2819404,5.76068085 C28.2819404,4.25538723 29.188834,2.90165106 30.5771574,2.32449362 C31.9654809,1.75002553 33.5665021,2.06917447 34.6276766,3.13034894 C35.6915064,4.19417872 36.0106213,5.79261277 35.4335319,7.1835234 C34.8590638,8.57184681 33.5027064,9.47874043 32,9.47874043 C29.9468255,9.47874043 28.2819404,7.81385532 28.2819404,5.76068085 L28.2819404,5.76068085 Z" id="Shape"></path>
                <path d="M32,46.4946383 C31.6250009,46.4946383 31.3191489,46.8004902 31.3191489,47.1754894 L31.3191489,54.5770213 C28.6702298,54.9360613 26.7526809,57.2844936 26.9335149,59.952 C27.1117072,62.6169191 29.3271149,64.6886809 32,64.6886809 C34.6728851,64.6886809 36.8883064,62.6168511 37.0664851,59.952 C37.2473328,57.2844255 35.3297702,54.936034 32.6808511,54.5770213 L32.6808511,47.1754894 C32.6808511,46.9946383 32.6090417,46.8217668 32.4813821,46.6941072 C32.3537226,46.5664477 32.1808477,46.4946383 32,46.4946383 Z M35.7180654,59.6010213 C35.720719,61.1063149 34.8164766,62.4627064 33.4281532,63.0398638 C32.0371745,63.6196494 30.4388085,63.3031626 29.3749787,62.2393191 C28.3084936,61.1781447 27.9893106,59.5770553 28.5638128,58.1861447 C29.140943,56.7978213 30.4946383,55.8909277 32,55.8909277 C34.0505191,55.8909277 35.7127489,57.5505021 35.7180654,59.6010213 Z" id="Shape"></path>
                <path d="M51.0638298,18.715234 C53.4175319,18.6966175 55.4494638,17.0583149 55.9733787,14.7630979 C56.4946519,12.4652255 55.3696545,10.1115234 53.2552851,9.07690213 C51.1409021,8.03969362 48.590366,8.59285787 47.0956936,10.411983 C45.6010213,12.2338043 45.5531574,14.8401702 46.9786689,16.715166 L41.749937,21.9438979 C41.6063183,22.06624 41.5185566,22.2444323 41.5132323,22.4332596 C41.5052541,22.6247489 41.5770621,22.8082587 41.7100391,22.9412357 C41.8456783,23.0768749 42.0291881,23.1486843 42.2180153,23.1407047 C42.4095047,23.1327258 42.5850349,23.0476187 42.7100391,22.904 L47.9653923,17.7018894 C48.8590094,18.3721055 49.9468051,18.7284766 51.0638094,18.7152 L51.0638298,18.715234 Z M48.4096,11.0154894 C49.4707745,9.95165957 51.0718638,9.6352 52.4601191,10.209634 C53.8484426,10.7841021 54.7553362,12.1404596 54.7553362,13.643166 C54.7553362,15.1484596 53.8484426,16.5021957 52.4601191,17.0793532 C51.0717957,17.6538213 49.4707745,17.3346723 48.4096,16.2708426 C47.7075064,15.5767149 47.3138383,14.6298553 47.3138383,13.643166 C47.3138383,12.6564766 47.7074519,11.7123404 48.4096,11.0154894 Z" id="Shape"></path>
                <path d="M22.2284255,42.4524255 C21.9651268,42.1864715 21.5342979,42.1864715 21.2682894,42.4524255 L16.0342468,47.6598468 C13.8986213,46.0454809 10.8773447,46.3566298 9.1195234,48.3752851 C7.36156596,50.3938723 7.46525957,53.4284936 9.3588834,55.3220085 C11.2525072,57.2155234 14.2870877,57.3193532 16.3056068,55.5613685 C18.324194,53.8034111 18.6354111,50.7821345 17.0210451,48.6466451 L22.249777,43.4179132 C22.3774366,43.2875915 22.4439285,43.1120613 22.4413433,42.9312136 C22.4386063,42.7477038 22.3614774,42.5774911 22.2285004,42.4524868 L22.2284255,42.4524255 Z M15.5901277,54.3462128 C14.3347745,55.601566 12.3667064,55.7930213 10.8906894,54.803663 C9.41725957,53.8143183 8.84813617,51.9180119 9.53429787,50.2797481 C10.2204596,48.6414843 11.9704511,47.7185906 13.7098213,48.0749481 C15.4491915,48.4313328 16.6938553,49.9685311 16.6805787,51.7451438 C16.6752599,52.7212119 16.284303,53.6573821 15.5901277,54.3461991 L15.5901277,54.3462128 Z" id="Shape"></path>
                <path d="M47.4491915,55.3055319 C48.8587574,56.7097872 50.9597957,57.1619404 52.8215149,56.462434 C54.6858894,55.7603404 55.9677957,54.0369021 56.100766,52.0501787 C56.2364051,50.0634553 55.1965277,48.1831489 53.4465362,47.2390128 C51.6938894,46.2922213 49.5528851,46.4571234 47.9651404,47.6592272 L42.7364085,42.4304953 C42.4677923,42.1991149 42.063537,42.2150672 41.8135149,42.4650703 C41.5608579,42.7177273 41.5448987,43.1193273 41.7762812,43.3906192 L46.9783918,48.6459724 C45.4491323,50.6725937 45.6512769,53.5156235 47.4491391,55.3055129 L47.4491915,55.3055319 Z M53.6646128,49.0901106 C54.919966,50.3454638 55.1114213,52.3135319 54.122063,53.7895489 C53.1327183,55.2629787 51.2364119,55.8321021 49.5981481,55.1459404 C47.9598843,54.4597787 47.0369906,52.7097872 47.3933481,50.970417 C47.7497328,49.2310468 49.2869311,47.986383 51.0635438,47.9996596 C52.0396119,48.0076385 52.9731268,48.3985974 53.6645991,49.0901106 L53.6646128,49.0901106 Z" id="Shape"></path>
                <path d="M22.2284255,21.9492766 L17.0210043,16.715234 C18.6327149,14.5822638 18.321566,11.5662979 16.305566,9.8107234 C14.289634,8.05542128 11.2576681,8.15911489 9.36905532,10.0500834 C7.47812766,11.9383557 7.37436596,14.9703217 9.12969532,16.986594 C10.8849974,19.002526 13.9009634,19.313743 16.034206,17.7020323 L21.2629379,22.9307643 C21.531554,23.1621447 21.9358094,23.1461923 22.1858315,22.8961893 C22.4384885,22.6435323 22.4544477,22.2419323 22.2230652,21.9706403 L22.2284255,21.9492766 Z M10.3346383,16.2711149 C9.27080851,15.2099404 8.95434894,13.6088511 9.52878298,12.2205957 C10.1032511,10.8322723 11.4596085,9.92537872 12.9623149,9.92537872 C14.4676085,9.92537872 15.8213447,10.8322723 16.3985021,12.2205957 C16.9729702,13.6089191 16.6538213,15.2099404 15.5899915,16.2711149 C14.8985191,16.9759319 13.9517277,17.3721872 12.9623149,17.3721872 C11.9756255,17.3721872 11.028834,16.9759115 10.3346383,16.2711149 Z" id="Shape"></path>
                <path d="M64.0001627,32.6808511 C64.0212766,29.9973447 61.9468255,27.7606128 59.2686298,27.5797787 C56.590434,27.3989311 54.2367319,29.3377362 53.8963064,32 L46.4947745,32 C46.1197753,32 45.8139234,32.3058519 45.8139234,32.6808511 C45.8139234,33.0558502 46.1197753,33.3617021 46.4947745,33.3617021 L53.8963064,33.3617021 C54.2367319,36.023966 56.590434,37.9627574 59.2686298,37.7819234 C61.9468255,37.6010689 64.0213106,35.3643574 64.0001627,32.6808511 Z M55.2020426,32.6808511 C55.2020426,31.1782128 56.1089362,29.8218213 57.4972596,29.2473191 C58.8882383,28.6701889 60.4866043,28.9893379 61.550434,30.0531745 C62.6116085,31.1143489 62.9307234,32.7154383 62.3562894,34.1036936 C61.7791591,35.492017 60.4254638,36.3989106 58.9201021,36.3989106 C56.8669277,36.3989106 55.2020426,34.7340255 55.2020426,32.6808511 L55.2020426,32.6808511 Z" id="Shape"></path>
                <path d="M5.07982979,37.7607489 C7.61708936,37.7553614 9.76333617,35.8777191 10.1037617,33.3617702 L17.5052936,33.3617702 C17.8802928,33.3617702 18.1861447,33.0559183 18.1861447,32.6809191 C18.1861447,32.30592 17.8802928,32.0000681 17.5052936,32.0000681 L10.1037617,32.0000681 C9.83514553,30.0293447 8.4388766,28.3989787 6.53194894,27.8272 C4.6276766,27.2580494 2.56388085,27.8537954 1.25535319,29.3538043 C-0.0505191489,30.8511319 -0.361668085,32.9761362 0.460119149,34.7873362 C1.2845617,36.5985362 3.09045106,37.7607489 5.07982979,37.7607489 L5.07982979,37.7607489 Z M5.07982979,28.9627234 C6.58246809,28.9627234 7.93885957,29.869617 8.5133617,31.2579404 C9.08782979,32.6462638 8.77134298,34.2472851 7.70750638,35.3084596 C6.6436766,36.3722894 5.04524255,36.6914043 3.65698723,36.1143149 C2.26866383,35.5398468 1.36177021,34.1834894 1.36177021,32.680783 C1.36177021,30.6276085 3.02665532,28.9627234 5.07982979,28.9627234 L5.07982979,28.9627234 Z" id="Shape"></path>
                <path d="M32.8510638,32 L31.1489362,32 C30.773937,32 30.4680851,32.3058519 30.4680851,32.6808511 C30.4680851,33.0558502 30.773937,33.3617021 31.1489362,33.3617021 L32.8510638,33.3617021 C33.226063,33.3617021 33.5319149,33.0558502 33.5319149,32.6808511 C33.5319149,32.3058519 33.226063,32 32.8510638,32 Z" id="Path"></path>
            </g>
        </g>
    </g>
</svg>