<?xml version="1.0" encoding="UTF-8"?>
<svg width="45px" height="49px" viewBox="0 0 45 49" version="1.1" xmlns="http://www.w3.org/2000/svg" xmlns:xlink="http://www.w3.org/1999/xlink">
    <!-- Generator: Sketch 64 (93537) - https://sketch.com -->
    <title>np_user_797247_6738B8</title>
    <desc>Created with Sketch.</desc>
    <g id="Explore-Data" stroke="none" stroke-width="1" fill="none" fill-rule="evenodd">
        <g id="Explore-Snowplow-Data-Screen-1" transform="translate(-434.000000, -512.000000)" fill="#6738B8" fill-rule="nonzero">
            <g id="np_user_797247_6738B8" transform="translate(434.000000, 512.000000)">
                <path d="M23.402439,2.13116652 C25.8961481,2.13116652 28.2884064,3.12089492 30.0524124,4.88301437 C31.8140058,6.64278556 32.8046972,9.0325075 32.8046972,11.5236371 C32.8046972,14.0147666 31.8139439,16.4045504 30.0524124,18.1642597 C28.2884064,19.926441 25.8961481,20.9161076 23.402439,20.9161076 C20.9087299,20.9161076 18.5188842,19.9263792 16.7549401,18.1642597 C14.9909341,16.4044886 14.0002427,14.0147666 14.0002427,11.5236371 C14.0002427,9.0325075 14.990996,6.64272376 16.7549401,4.88301437 C18.518946,3.12083312 20.9087299,2.13116652 23.402439,2.13116652 M23.402439,0.0237915479 C20.3529159,0.0237915479 17.4290927,1.23314374 15.2709134,3.38878157 C13.115456,5.54200934 11.902439,8.46521813 11.902439,11.5118958 C11.902439,14.5585734 13.115456,17.481535 15.2709134,19.63501 C17.4287834,21.7906478 20.3526066,23 23.402439,23 C26.4519622,23 29.3782597,21.7906478 31.5339646,19.63501 C33.6918346,17.4817822 34.902439,14.5585734 34.902439,11.5118958 C34.902439,8.46311706 33.6918346,5.53743642 31.5363772,3.37951213 C29.3809197,1.22146425 26.454684,0.00729195494 23.4029958,0 L23.402439,0.0237915479 Z" id="Shape"></path>
                <path d="M43.8504811,48.9952264 C43.2756323,48.9952264 42.8109705,48.5314473 42.8109705,47.9577042 C42.6409133,40.9723456 38.8086126,34.5916422 32.719998,31.1466989 C26.6289922,27.7018167 19.1750274,27.7018167 13.0843895,31.1466989 C6.99577496,34.591581 3.16326569,40.9723456 2.99341703,47.9577042 C2.99341703,48.5338463 2.52396025,49 1.94673234,49 C1.36950444,49 0.902439024,48.533828 0.902439024,47.9577042 C0.902439024,40.1118748 5.09402184,32.8633565 11.9015193,28.9404418 C18.7089554,25.0198527 27.0965358,25.0198527 33.9015193,28.9404418 C40.7089554,32.8634789 44.902439,40.1118748 44.902439,47.9577042 C44.902439,48.2350133 44.7922581,48.5003761 44.5934555,48.6940004 C44.3970504,48.8900299 44.1287876,48.9976071 43.8509655,48.9952203 L43.8504811,48.9952264 Z" id="Path"></path>
            </g>
        </g>
    </g>
</svg>