<?xml version="1.0" encoding="UTF-8"?>
<svg width="53px" height="51px" viewBox="0 0 53 51" version="1.1" xmlns="http://www.w3.org/2000/svg" xmlns:xlink="http://www.w3.org/1999/xlink">
    <!-- Generator: Sketch 64 (93537) - https://sketch.com -->
    <title>noun_clock_1721338 (1)</title>
    <desc>Created with Sketch.</desc>
    <g id="Explore-Data" stroke="none" stroke-width="1" fill="none" fill-rule="evenodd">
        <g id="Explore-Snowplow-Data-Screen-1" transform="translate(-664.000000, -512.000000)" fill="#6738B8" fill-rule="nonzero">
            <g id="noun_clock_1721338-(1)" transform="translate(664.000000, 511.644444)">
                <path d="M24.5,4.35164056 C24.1872746,4.35164056 23.8833696,4.38664056 23.5739584,4.40064056 L23.5739584,7.35947056 L25.4260416,7.35947056 L25.4260416,4.39693056 C25.1168165,4.37593056 24.8125755,4.35493056 24.5,4.35493056 L24.5,4.35164056 Z" id="Path"></path>
                <path d="M14.552451,6.09943056 C14.003588,6.38503056 13.473205,6.69863056 12.9535845,7.02896056 L14.4439377,9.61168056 L16.0464155,8.68565056 L14.552451,6.09943056 Z" id="Path"></path>
                <path d="M34.4403075,6.10303556 L32.9535845,8.68204556 L34.5596743,9.60807556 L36.0464155,7.03256556 C35.5259585,6.70006556 34.9902464,6.39066556 34.4403075,6.10303556 Z" id="Path"></path>
                <path d="M6.6734337,14.3072956 C6.3423547,14.8273956 6.0300567,15.3600256 5.7437805,15.9099456 L8.3301776,17.4038156 L9.2562195,15.7976656 L6.6734337,14.3072956 Z" id="Path"></path>
                <path d="M43.3175184,14.3127556 L40.7564396,15.7922056 L41.6824808,17.3983556 L44.2435603,15.9189056 C43.9573793,15.3687056 43.6484273,14.8337656 43.3175185,14.3127556 L43.3175184,14.3127556 Z" id="Path"></path>
                <path d="M3.04402023,24.9295256 C3.03105623,25.2403256 2.99698023,25.5448256 2.99698023,25.8592656 C2.99698023,26.1707656 3.03105623,26.4731656 3.04402023,26.7815856 L6.00301977,26.7815856 L6.00301977,24.9295256 L3.04402023,24.9295256 Z" id="Path"></path>
                <path d="M8.3301776,34.3073656 L5.7437805,35.8013056 C6.0296465,36.3508056 6.3392635,36.8838556 6.6698217,37.4037456 L9.2562195,35.9098056 L8.3301776,34.3073656 Z" id="Path"></path>
                <path d="M14.4457434,42.0974356 L12.9517789,44.6838656 C13.4722849,45.0149656 14.004392,45.3271656 14.5542567,45.6136756 L16.0482211,43.0235356 L14.4457434,42.0974356 Z" id="Path"></path>
                <path d="M25.1729946,0.355555556 C11.2813799,0.355555556 0,11.7834424 0,25.8554313 C0,39.9274203 11.2813799,51.3555556 25.1729946,51.3555556 C26.4338069,51.3767957 26.4338069,49.4483153 25.1729946,49.4664485 C12.28912,49.4664485 1.86466625,38.9066742 1.86466625,25.8554313 C1.86466625,12.8041884 12.28912,2.24441409 25.1729946,2.24441409 C36.6997084,2.24441409 46.2349967,10.7037989 48.1207709,21.8304164 L50,21.8304164 C48.0877284,9.67262977 37.7091083,0.355555556 25.1729946,0.355555556 Z" id="Path"></path>
                <polygon id="Path" points="53 24.0034606 49 27.7076506 45 24.0034606"></polygon>
                <path d="M30.6055081,50.0949211 C30.5419285,49.8576804 30.5752009,49.6048993 30.6980051,49.3921914 C30.8208094,49.1794835 31.0230851,49.0242744 31.2603301,48.9607111 C31.4976154,48.8971595 31.7504288,48.930491 31.9631347,49.0533703 C32.1758405,49.1762496 32.3310081,49.3786073 32.3944904,49.6159111 C32.4580708,49.8531489 32.4248013,50.1059275 32.3020013,50.3186349 C32.1792013,50.5313422 31.9769307,50.6865532 31.7396894,50.7501211 C31.2457672,50.8825211 30.7380178,50.5895145 30.6055102,50.0956211 L30.6055081,50.0949211 Z" id="Path"></path>
                <path d="M35.6979852,48.3187804 C35.5751477,48.106074 35.5418488,47.8532791 35.6054153,47.616019 C35.6689818,47.3787589 35.8242055,47.1764729 36.0369322,47.0536704 C36.4798093,46.7979288 37.046151,46.9496109 37.3019232,47.3924704 C37.5576259,47.8353814 37.4058764,48.4017191 36.9629762,48.6574404 C36.5200989,48.9131825 35.9537567,48.7615003 35.6979845,48.3186404 L35.6979852,48.3187804 Z" id="Path"></path>
                <path d="M40.8451864,44.5103356 C40.4835851,44.1487007 40.4835851,43.5624104 40.8451864,43.2007756 C41.0188532,43.0271071 41.2543969,42.929541 41.5,42.929541 C41.7456031,42.929541 41.9811468,43.0271071 42.1548136,43.2007756 C42.5164149,43.5624104 42.5164149,44.1487007 42.1548136,44.5103356 C41.9811468,44.6840041 41.7456031,44.7815702 41.5,44.7815702 C41.2543969,44.7815702 41.0188532,44.6840041 40.8451864,44.5103356 L40.8451864,44.5103356 Z" id="Path"></path>
                <path d="M45.0369869,39.6574451 C44.5940791,39.401731 44.4423198,38.8353916 44.6980189,38.3924751 C44.9537917,37.9496043 45.5201475,37.7979206 45.9630288,38.0536751 C46.4059291,38.3093964 46.5576785,38.8757341 46.3019758,39.3186451 C46.0462037,39.7615033 45.4798636,39.9131853 45.0369869,39.6574451 L45.0369869,39.6574451 Z" id="Path"></path>
                <path d="M48.2604189,33.7502657 C47.7664846,33.6178985 47.4733329,33.1102277 47.6055969,32.6162657 C47.669079,32.3789579 47.8242495,32.176597 48.0369595,32.0537172 C48.2496695,31.9308374 48.5024876,31.8975087 48.7397754,31.9610657 C48.9770166,32.0246336 49.1792873,32.1798446 49.3020873,32.3925519 C49.4248873,32.6052593 49.4581568,32.8580379 49.3945764,33.0952757 C49.2620686,33.5891597 48.7543323,33.8821636 48.2604161,33.7497757 L48.2604189,33.7502657 Z" id="Path"></path>
            </g>
        </g>
    </g>
</svg>