<?xml version="1.0" encoding="UTF-8"?>
<svg width="64px" height="54px" viewBox="0 0 64 54" version="1.1" xmlns="http://www.w3.org/2000/svg" xmlns:xlink="http://www.w3.org/1999/xlink">
    <!-- Generator: Sketch 64 (93537) - https://sketch.com -->
    <title>np_website_2889867_6738B8</title>
    <desc>Created with Sketch.</desc>
    <g id="Explore-Data" stroke="none" stroke-width="1" fill="none" fill-rule="evenodd">
        <g id="Explore-Snowplow-Data-Screen-1" transform="translate(-895.000000, -512.000000)" fill="#6738B8" fill-rule="nonzero">
            <g id="np_website_2889867_6738B8" transform="translate(895.000000, 512.000000)">
                <path d="M62.6315876,0.505138144 L45.6649897,0.489674557 L0.835298969,0.489674557 C0.407462268,0.489674557 0.0620865979,0.835037031 0.0620865979,1.26288693 L0.0620865979,52.9069282 C0.0620865979,53.3321851 0.404869278,53.6775673 0.830152577,53.6801405 L12.172668,53.7368412 L62.6290804,53.7368412 C63.0569171,53.7368412 63.4022928,53.3914788 63.4022928,52.9636289 L63.4022928,1.27802062 C63.4022928,0.852763711 63.0569303,0.507381443 62.6316536,0.504808247 L62.6315876,0.505138144 Z M45.6649897,2.03605773 L61.8583093,2.05152132 L61.8583093,12.5462017 L1.60857732,12.5462017 L1.60857732,2.03568627 L45.6649897,2.03605773 Z M12.1778144,52.1909443 L1.60791753,52.1393986 L1.60791753,14.0956873 L61.8550103,14.0956873 L61.8550103,52.1935017 L12.1778144,52.1909443 Z" id="Shape"></path>
                <path d="M9.29649485,10.0130309 C10.7990433,10.0130309 12.0232907,8.7939299 12.0232907,7.29652784 C12.0232907,5.78876701 10.7990433,4.56201237 9.29649485,4.56201237 C7.7913732,4.56201237 6.56712577,5.78883299 6.56712577,7.29652784 C6.56712577,8.7939299 7.7913732,10.0130309 9.29649485,10.0130309 Z M9.29649485,6.10837113 C9.94598268,6.10837113 10.476932,6.64187381 10.476932,7.29652784 C10.476932,7.94085608 9.94858227,8.46660619 9.29649485,8.46660619 C8.64443381,8.46660619 8.11348454,7.94082969 8.11348454,7.29652784 C8.11348454,6.64188701 8.64441402,6.10837113 9.29649485,6.10837113 Z" id="Shape"></path>
                <path d="M22.4461856,10.0130309 C23.948734,10.0130309 25.1729814,8.7939299 25.1729814,7.29652784 C25.1729814,5.78876701 23.948734,4.56201237 22.4461856,4.56201237 C21.7193567,4.56201237 21.0338309,4.84551918 20.518334,5.3635299 C20.0028701,5.87899381 19.7193897,6.56712577 19.7193897,7.29652784 C19.7193897,8.7939299 20.9436371,10.0130309 22.4461856,10.0130309 L22.4461856,10.0130309 Z M21.6137237,6.45634639 C21.8353748,6.23212206 22.1317674,6.11098392 22.4461856,6.11098392 C23.0956734,6.11098392 23.6266227,6.6444866 23.6266227,7.29914062 C23.6266227,7.94346887 23.098273,8.46921897 22.4461856,8.46921897 C21.7966977,8.46921897 21.2683216,7.94344247 21.2683216,7.29914062 C21.2657445,6.97697649 21.3894532,6.68058392 21.6136841,6.45638598 L21.6137237,6.45634639 Z" id="Shape"></path>
                <path d="M35.5952165,10.0130309 C37.0977649,10.0130309 38.3194392,8.7939299 38.3194392,7.29652784 C38.3194392,5.78876701 37.0977649,4.56201237 35.5952165,4.56201237 C34.092668,4.56201237 32.8684206,5.78883299 32.8684206,7.29652784 C32.8684206,8.7939299 34.0900948,10.0130309 35.5952165,10.0130309 Z M35.5952165,6.10837113 C36.2447043,6.10837113 36.7730804,6.64187381 36.7730804,7.29652784 C36.7730804,7.94085608 36.2447307,8.46660619 35.5952165,8.46660619 C34.9431555,8.46660619 34.4147794,7.94082969 34.4147794,7.29652784 C34.4147794,6.64188701 34.9431291,6.10837113 35.5952165,6.10837113 Z" id="Shape"></path>
                <path d="M31.7321237,16.3866392 C25.1574103,16.3866392 19.8070103,21.7320247 19.8070103,28.3018557 C19.8070103,34.8716866 25.1575423,40.2170722 31.7321237,40.2170722 C38.3042639,40.2170722 43.6519588,34.8716866 43.6519588,28.3018557 C43.6519588,21.7320247 38.304,16.3866392 31.7321237,16.3866392 L31.7321237,16.3866392 Z M31.7321237,38.6698557 C26.0104577,38.6698557 21.353567,34.0177814 21.353567,28.3011959 C21.353567,22.5846763 26.0082144,17.9325361 31.7321237,17.9325361 C37.4537897,17.9325361 42.1060619,22.5846103 42.1060619,28.3011959 C42.1060619,34.0177155 37.4539876,38.6698557 31.7321237,38.6698557 L31.7321237,38.6698557 Z" id="Shape"></path>
                <path d="M41.2265567,42.476866 L22.2370309,42.476866 C21.8091942,42.476866 21.4638186,42.8222285 21.4638186,43.2500784 C21.4638186,43.6779151 21.809181,44.0232907 22.2370309,44.0232907 L41.2291959,44.0232907 C41.6570326,44.0232907 42.0024082,43.6779282 42.0024082,43.2500784 C41.9998311,42.8248214 41.6544726,42.476866 41.2266227,42.476866 L41.2265567,42.476866 Z" id="Path"></path>
                <path d="M37.0487423,48.3503505 L22.2370309,48.3503505 C21.8091942,48.3503505 21.4638186,48.695713 21.4638186,49.1235629 C21.4638186,49.5514128 21.809181,49.8967753 22.2370309,49.8967753 L37.0487423,49.8967753 C37.476579,49.8967753 37.8219546,49.5514128 37.8219546,49.1235629 C37.8219546,48.695713 37.474019,48.3503505 37.0487423,48.3503505 Z" id="Path"></path>
                <path d="M36.9616495,23.232 C36.6291728,22.9639588 36.1420536,23.0180816 35.8740454,23.3505584 L29.3534351,31.476579 L27.6111835,29.0203645 C27.3637608,28.6724289 26.8817814,28.5899546 26.5338722,28.8373773 C26.1859629,29.0848 26.1034623,29.5667794 26.3508849,29.9146887 L28.6859612,33.2085113 C28.8251381,33.4069641 29.0519423,33.5281023 29.294212,33.5332553 L29.3174077,33.5332553 C29.5519446,33.5332553 29.7735957,33.4275827 29.9204988,33.2445955 L37.0825607,24.3195645 C37.3480221,23.9870878 37.296479,23.4999687 36.9614291,23.2319604 L36.9616495,23.232 Z" id="Path"></path>
            </g>
        </g>
    </g>
</svg>