<svg height="708pt" preserveAspectRatio="xMidYMid meet" viewBox="0 0 2000 708" width="2000pt" xmlns="http://www.w3.org/2000/svg"><g transform="matrix(.1 0 0 -.1 0 708)"><path d="m15663 7019c-369-48-682-310-793-664-46-147-50-205-50-652 0-233-2-423-5-423s-40 26-83 58c-324 240-718 357-1142 338-80-3-157-9-172-12l-26-6-4 269c-4 251-6 274-31 367-82 306-294 554-563 659-128 51-198 62-374 61-150-1-173-3-254-28-306-93-532-311-638-615-49-143-51-160-57-679l-6-493-60 47c-278 218-610 358-967 409-134 19-422 19-556 0-343-49-644-171-911-370-166-124-358-318-450-456l-39-58-73 97c-41 53-123 147-184 207-319 321-710 516-1157 580-131 19-411 19-549 1-290-39-572-145-818-307l-93-61-16 23c-57 84-200 203-312 259-129 65-291 100-467 100-206 0-365-47-529-155-179-119-337-328-395-523l-12-43-31 78c-85 212-214 380-378 489-80 53-151 86-267 121-79 25-100 27-271 27-201 1-236-5-392-65-240-93-451-322-547-597l-18-53-27 78c-108 305-345 529-651 614-118 32-345 38-475 11-209-43-367-127-511-271-147-147-223-299-250-498-20-150 7-365 70-568 27-84 194-560 361-1030 16-44 124-350 240-680 126-358 232-640 261-699 174-348 446-555 797-606 127-19 335-8 453 23 276 72 506 256 640 510l37 70 30-62c91-181 242-341 413-435 181-99 451-146 664-116 324 47 557 196 741 477 68 103 117 208 184 400l54 151 44-71c320-520 860-859 1512-948 140-20 477-17 625 5 554 81 1039 296 1331 592l91 92 105-103c328-322 743-520 1228-587 153-21 486-15 659 11 354 54 754 196 995 354l69 45 49-59c62-75 164-160 248-207 131-74 318-122 475-122 152 0 363 48 461 105l42 25 63-29c87-39 236-86 344-108 72-14 136-18 315-18 206 1 236 3 353 28 340 73 640 225 864 440l51 50 26-50c35-69 131-189 198-246 126-107 304-190 469-217 92-14 253-12 351 5 278 48 520 224 670 487 18 33 27 43 24 27-14-67-97-581-112-695-42-328 39-581 255-789 180-173 397-261 671-272 154-6 253 9 377 57 216 83 405 265 526 505 19 39 128 302 242 585s276 686 360 895 223 553 308 765c523 1299 608 1513 627 1585 27 100 39 338 21 439-56 321-302 588-644 700-320 104-705 23-947-201-140-129-220-258-316-510-32-84-60-153-63-153s-28 62-54 138c-83 233-143 345-246 457-122 133-301 243-466 285-135 35-300 45-401 25-21-5-21-2-27 258-7 290-19 377-76 522-161 417-584 663-1038 604zm297-568c113-44 195-130 242-256l23-60 3-1954c2-2137 6-2009-54-2126-123-240-467-292-659-100-59 58-111 168-125 260-7 48-10 677-8 1990 4 2097-1 1940 58 2055 28 55 103 135 155 165 98 58 253 69 365 26zm-3415 3c139-36 237-132 288-284 21-64 21-79 25-702 2-351 7-638 11-638 5 0 14 7 21 14 23 29 198 136 280 171 179 80 324 109 525 108 574-3 1028-355 1247-968 167-466 161-989-17-1405-92-216-199-376-359-535-197-197-416-314-681-366-113-22-381-17-477 9-220 60-410 182-505 324-25 37-43 42-43 13 0-42-57-151-107-206-121-130-319-164-490-83-104 49-195 173-222 302-8 38-11 608-11 1965 0 2084-3 1962 55 2083 79 162 275 247 460 198zm-11343-1354c130-50 206-144 262-323 19-62 85-278 146-482 61-203 161-534 222-735s115-381 120-400c10-36 24-57 32-49 3 2 124 386 270 853s281 882 300 922c83 176 256 266 451 235 142-22 242-96 308-228 21-40 142-413 301-922 147-470 269-857 271-860 12-12 29 34 125 354 365 1213 424 1404 453 1458 77 146 250 225 428 197 168-26 279-112 330-257 35-96 31-185-15-328-30-96-343-985-646-1835-26-74-76-214-110-310-79-223-127-316-209-402-114-121-258-170-430-147-137 19-233 71-310 169-71 90-73 96-362 1005-160 503-201 625-208 625-4 0-35-89-70-197-303-957-408-1277-437-1334-90-179-240-271-444-271-263 0-422 143-543 487-38 107-112 316-462 1305-47 132-124 349-171 483-47 133-94 266-105 296-33 91-67 232-74 312-19 206 110 358 338 399 72 12 176 4 239-20zm5753 5c233-15 527-132 740-293 285-216 511-559 600-912 49-192 57-399 21-517-21-68-89-143-158-174l-53-24-982-3-983-2v-23c0-37 27-124 58-190 106-224 323-363 622-398 248-28 419 17 745 196 225 124 290 148 375 143 78-6 134-32 201-95 94-87 141-212 120-314-34-161-200-320-476-454-473-231-1042-278-1481-124-523 183-877 602-993 1175-124 611 84 1263 527 1650 198 173 428 289 672 339 95 20 252 34 320 29 25-2 81-6 125-9zm3500-10c310-66 560-202 782-427 279-282 448-646 478-1028 15-197-46-350-164-410-78-39-113-40-1091-40-906 0-950-1-950-18 0-41 33-142 72-222 83-171 253-297 473-352 77-19 115-23 260-22 156 0 178 2 260 28 89 27 231 93 480 225 155 82 216 98 298 81 116-24 239-140 273-258 24-80 15-174-22-243-16-30-65-90-109-134-146-148-380-271-673-355-547-157-1075-93-1492 180-126 83-313 271-399 400-378 572-371 1372 16 1948 210 312 522 536 872 627 185 48 464 57 636 20zm6569-15c116-19 231-94 290-190 28-44 44-83 105-250 27-74 108-295 179-490 72-195 181-492 242-660s115-308 118-312c4-4 47 95 96 220 110 280 179 457 284 722 44 113 124 315 177 448 52 134 105 262 116 285 66 130 189 213 344 232 151 18 337-85 408-228 32-64 44-163 28-237-6-30-91-252-187-494-962-2409-1300-3249-1327-3296-44-78-135-165-203-197-111-50-269-39-396 29-142 76-208 222-179 394 14 80 53 183 260 697 94 232 151 387 149 400-3 12-217 551-475 1197-259 646-477 1193-484 1215-8 22-14 84-14 140 0 86 3 107 24 149 49 99 164 188 282 220 66 18 87 19 163 6z"/><path d="m13385 4336c-324-80-528-427-512-871 10-268 83-484 217-645 173-206 474-266 726-143 80 38 208 166 264 262 93 161 147 387 137 576-23 413-235 745-524 820-69 18-237 18-308 1z"/><path d="m6725 4423c-139-31-235-83-335-183-72-71-94-100-133-180-42-88-65-158-81-252l-7-38h689 689l-8 48c-58 313-255 542-516 597-63 14-252 19-298 8z"/><path d="m10070 4423c-98-16-233-83-313-154-63-56-155-187-186-266-20-50-43-136-55-200l-5-33h690 690l-6 38c-16 90-41 164-88 262-42 86-64 118-122 175-127 127-280 186-474 184-58-1-117-4-131-6z"/></g></svg>