<svg id="Infographic" xmlns="http://www.w3.org/2000/svg" viewBox="0 0 1070 280"><defs><style>.cls-1,.cls-10,.cls-11,.cls-13,.cls-14,.cls-15,.cls-16,.cls-17,.cls-18,.cls-19,.cls-20,.cls-21,.cls-22,.cls-23,.cls-24,.cls-25,.cls-26,.cls-27,.cls-29,.cls-3,.cls-30,.cls-32,.cls-33,.cls-35,.cls-36,.cls-37,.cls-38,.cls-39,.cls-4,.cls-40,.cls-41,.cls-42,.cls-43,.cls-44,.cls-45,.cls-46,.cls-47,.cls-48,.cls-49,.cls-5,.cls-50,.cls-51,.cls-52,.cls-53,.cls-54,.cls-55,.cls-56,.cls-57,.cls-58,.cls-59,.cls-6,.cls-7,.cls-8,.cls-9{fill:none}.cls-1,.cls-10,.cls-15,.cls-33,.cls-37,.cls-9{stroke:#5b0098}.cls-1,.cls-10,.cls-11,.cls-13,.cls-14,.cls-15,.cls-16,.cls-17,.cls-18,.cls-19,.cls-20,.cls-21,.cls-22,.cls-23,.cls-24,.cls-25,.cls-26,.cls-27,.cls-29,.cls-3,.cls-30,.cls-33,.cls-35,.cls-36,.cls-37,.cls-38,.cls-39,.cls-4,.cls-40,.cls-41,.cls-42,.cls-43,.cls-44,.cls-45,.cls-46,.cls-47,.cls-48,.cls-49,.cls-5,.cls-50,.cls-51,.cls-52,.cls-53,.cls-54,.cls-55,.cls-56,.cls-57,.cls-58,.cls-59,.cls-6,.cls-7,.cls-8,.cls-9{stroke-linecap:round;stroke-linejoin:round}.cls-1,.cls-14,.cls-22,.cls-23,.cls-24,.cls-26,.cls-27,.cls-29,.cls-30,.cls-58,.cls-59,.cls-7,.cls-8{stroke-width:2px}.cls-2,.cls-25{opacity:.66}.cls-11,.cls-13,.cls-16,.cls-17,.cls-18,.cls-19,.cls-20,.cls-21,.cls-22,.cls-23,.cls-24,.cls-25,.cls-26,.cls-27,.cls-29,.cls-3,.cls-30,.cls-35,.cls-38,.cls-39,.cls-4,.cls-40,.cls-41,.cls-44,.cls-45,.cls-5,.cls-50,.cls-52,.cls-53,.cls-54,.cls-55,.cls-56,.cls-57,.cls-58,.cls-59,.cls-6{stroke:#fff}.cls-4{stroke-dasharray:.73 5.09 2.18 3.63}.cls-5{stroke-dasharray:.57 3.96 1.7 2.83}.cls-6{stroke-dasharray:3.96 3.96 .57 3.96 1.7 2.83}.cls-14,.cls-36,.cls-42,.cls-43,.cls-46,.cls-47,.cls-48,.cls-49,.cls-51,.cls-7,.cls-8{stroke:#bb73fc}.cls-11,.cls-8{stroke-dasharray:.87 6.07 2.6 4.34}.cls-10{stroke-dasharray:.82 5.77 2.47 4.12}.cls-12{opacity:.33}.cls-13,.cls-14,.cls-15{stroke-dasharray:.4 2.82}.cls-16{stroke-dasharray:.7 4.88 2.09 3.49}.cls-17{stroke-dasharray:.57 4.01 1.72 2.86}.cls-18{stroke-dasharray:.76 5.3 2.27 3.79}.cls-19{stroke-dasharray:5.3 5.3 .76 5.3 2.27 3.79}.cls-20{stroke-dasharray:.94 6.56 2.81 4.69}.cls-21{stroke-dasharray:6.56 6.56 .94 6.56 2.81 4.69}.cls-22{stroke-dasharray:35.72 11.91 0 7.94 7.94 15.88}.cls-23{stroke-dasharray:47.96 15.99 0 10.66 10.66 21.32}.cls-24{stroke-dasharray:17.45 4.88 0 3.49 3.49 6.98}.cls-25{stroke-dasharray:7 7 1 7 3 5}.cls-26{stroke-dasharray:17.77 4.98 0 3.55 3.55 7.11}.cls-27{stroke-dasharray:25 7 0 5 5 10}.cls-28{fill:#fff}.cls-30{stroke-dasharray:33.91 11.3 0 7.54 7.54 15.07}.cls-31{fill:#5b0098}.cls-33{stroke-dasharray:24 8 0 4 4 12}.cls-34{opacity:.6}.cls-35,.cls-36{stroke-dasharray:9.41}.cls-37{stroke-dasharray:21.48}.cls-38,.cls-39,.cls-40{stroke-dasharray:9.41}.cls-41{stroke-dasharray:13.36}.cls-42{stroke-dasharray:10.79}.cls-43{stroke-dasharray:89.36}.cls-44{stroke-dasharray:4.71}.cls-45,.cls-48{stroke-dasharray:11.78}.cls-46,.cls-47{stroke-dasharray:17.51}.cls-50{stroke-dasharray:12.82}.cls-51{stroke-dasharray:19.7}.cls-52,.cls-53{stroke-dasharray:9.41}.cls-54{stroke-dasharray:4.71}.cls-55{stroke-dasharray:15.15}.cls-56{stroke-dasharray:.35 .52 .52 1.73}.cls-57{stroke-dasharray:21.48 4.3 1.72 2.58 2.58 8.59}.cls-58{stroke-dasharray:20.82 4.16 1.04 2.08 2.08 8.33}.cls-59{stroke-dasharray:20 4 1 2 2 8}</style></defs><title>Snowplow_Website-Products_Infographics_Hero</title><path class="cls-1" d="M173.33,186.32c-6,0-13.47-4.29-16.5-9.52l-42.29-73.26c-3-5.24-3-13.81,0-19l42.29-73.26c3-5.24,10.45-9.52,16.5-9.52h84.59c6,0,13.47,4.29,16.5,9.52l42.29,73.26c3,5.24,3,13.81,0,19l-42.29,73.26c-3,5.24-10.45,9.52-16.5,9.52H173.33Z"/><path class="cls-1" d="M492.67,186.32c-6,0-13.47-4.29-16.5-9.52l-42.29-73.26c-3-5.24-3-13.81,0-19l42.29-73.26c3-5.24,10.45-9.52,16.5-9.52h84.59c6,0,13.47,4.29,16.5,9.52l42.29,73.26c3,5.24,3,13.81,0,19l-42.29,73.26c-3,5.24-10.45,9.52-16.5,9.52H492.67Z"/><path class="cls-1" d="M812.33,186.32c-6,0-13.47-4.29-16.5-9.52l-42.29-73.26c-3-5.24-3-13.81,0-19l42.29-73.26c3-5.24,10.45-9.52,16.5-9.52h84.59c6,0,13.47,4.29,16.5,9.52l42.29,73.26c3,5.24,3,13.81,0,19l-42.29,73.26c-3,5.24-10.45,9.52-16.5,9.52H812.33Z"/><path class="cls-1" d="M958,93.69h99a11,11,0,0,1,11,11V267.3a11,11,0,0,1-11,11H13.07a11,11,0,0,1-11-11V104.69a11,11,0,0,1,11-11H91.3"/><line class="cls-1" x1="638.55" y1="93.69" x2="731.97" y2="93.69"/><line class="cls-1" x1="319.21" y1="93.69" x2="411.95" y2="93.69"/><polyline class="cls-1" points="401.97 82.38 413.28 93.69 401.97 105"/><polyline class="cls-1" points="81.56 82.38 92.88 93.69 81.56 105"/><polyline class="cls-1" points="720.66 82.38 731.97 93.69 720.66 105"/><g class="cls-2"><line class="cls-3" x1="805.76" y1="123.38" x2="802.26" y2="123.38"/><line class="cls-4" x1="797.17" y1="123.38" x2="787.36" y2="123.38"/><line class="cls-3" x1="785.54" y1="123.38" x2="782.04" y2="123.38"/></g><g class="cls-2"><path class="cls-3" d="M823.48,142a7.68,7.68,0,0,1-6-3.46l-6.72-11.64a7.69,7.69,0,0,1,0-6.93l6.72-11.64a7.68,7.68,0,0,1,6-3.46h13.44a7.68,7.68,0,0,1,6,3.46l6.72,11.64a7.69,7.69,0,0,1,0,6.93l-6.72,11.64a7.68,7.68,0,0,1-6,3.46H823.48Z"/></g><line class="cls-3" x1="809.74" y1="94.23" x2="806.24" y2="94.23"/><line class="cls-5" x1="802.28" y1="94.23" x2="794.65" y2="94.23"/><line class="cls-6" x1="793.24" y1="94.23" x2="777.69" y2="94.23"/><line class="cls-3" x1="776.27" y1="94.23" x2="772.77" y2="94.23"/><path class="cls-7" d="M838.83,130.76a9.61,9.61,0,0,1-7.5-4.33L815.24,98.56a9.61,9.61,0,0,1,0-8.66L831.33,62a9.61,9.61,0,0,1,7.5-4.33H871a9.61,9.61,0,0,1,7.5,4.33L894.6,89.9a9.61,9.61,0,0,1,0,8.66l-16.09,27.87a9.61,9.61,0,0,1-7.5,4.33H838.83Z"/><path class="cls-7" d="M836.25,153.14a5.76,5.76,0,0,1-4.5-2.6l-3.46-6a5.76,5.76,0,0,1,0-5.2l3.46-6a5.76,5.76,0,0,1,4.5-2.6h6.92a5.76,5.76,0,0,1,4.5,2.6l3.46,6a5.76,5.76,0,0,1,0,5.2l-3.46,6a5.76,5.76,0,0,1-4.5,2.6h-6.92Z"/><line class="cls-7" x1="827.79" y1="141.95" x2="824.29" y2="141.95"/><line class="cls-8" x1="818.22" y1="141.95" x2="806.5" y2="141.95"/><line class="cls-7" x1="804.34" y1="141.95" x2="800.84" y2="141.95"/><path class="cls-9" d="M829.15,68.89a5.76,5.76,0,0,1-4.5-2.6l-3.46-6a5.76,5.76,0,0,1,0-5.2l3.46-6a5.77,5.77,0,0,1,4.5-2.6h6.92a5.76,5.76,0,0,1,4.5,2.6l3.46,6a5.76,5.76,0,0,1,0,5.2l-3.46,6a5.76,5.76,0,0,1-4.5,2.6h-6.92Z"/><line class="cls-9" x1="815.69" y1="57.7" x2="812.19" y2="57.7"/><line class="cls-10" x1="806.42" y1="57.7" x2="795.29" y2="57.7"/><line class="cls-9" x1="793.23" y1="57.7" x2="789.73" y2="57.7"/><g class="cls-2"><path class="cls-3" d="M893.78,127.39a5.76,5.76,0,0,1-4.5-2.6l-3.46-6a5.76,5.76,0,0,1,0-5.2l3.46-6a5.76,5.76,0,0,1,4.5-2.6h6.92a5.76,5.76,0,0,1,4.5,2.6l3.46,6a5.76,5.76,0,0,1,0,5.2l-3.46,6a5.76,5.76,0,0,1-4.5,2.6h-6.92Z"/></g><g class="cls-2"><line class="cls-3" x1="884.32" y1="116.19" x2="880.82" y2="116.19"/><line class="cls-11" x1="874.74" y1="116.19" x2="863.03" y2="116.19"/><line class="cls-3" x1="860.86" y1="116.19" x2="857.36" y2="116.19"/></g><g class="cls-12"><path class="cls-3" d="M853,99.64a1.92,1.92,0,0,1-1.5-.87l-2.13-3.68a1.92,1.92,0,0,1,0-1.73l2.13-3.68a1.92,1.92,0,0,1,1.5-.87h4.25a1.92,1.92,0,0,1,1.5.87l2.13,3.68a1.92,1.92,0,0,1,0,1.73l-2.13,3.68a1.92,1.92,0,0,1-1.5.87H853Z"/></g><g class="cls-12"><line class="cls-3" x1="846.83" y1="94.23" x2="843.33" y2="94.23"/><line class="cls-13" x1="840.51" y1="94.23" x2="838.7" y2="94.23"/><line class="cls-3" x1="837.29" y1="94.23" x2="833.79" y2="94.23"/></g><g class="cls-12"><path class="cls-7" d="M880.64,74.92a1.92,1.92,0,0,1-1.5-.87L877,70.37a1.92,1.92,0,0,1,0-1.73L879.14,65a1.92,1.92,0,0,1,1.5-.87h4.25a1.92,1.92,0,0,1,1.5.87l2.13,3.68a1.92,1.92,0,0,1,0,1.73l-2.13,3.68a1.92,1.92,0,0,1-1.5.87h-4.25Z"/></g><g class="cls-12"><line class="cls-7" x1="874.51" y1="69.5" x2="871.01" y2="69.5"/><line class="cls-14" x1="868.19" y1="69.5" x2="866.38" y2="69.5"/><line class="cls-7" x1="864.97" y1="69.5" x2="861.47" y2="69.5"/></g><path class="cls-9" d="M888,110.42a1.92,1.92,0,0,1-1.5-.87l-2.13-3.68a1.92,1.92,0,0,1,0-1.73l2.13-3.68a1.92,1.92,0,0,1,1.5-.87h4.25a1.92,1.92,0,0,1,1.5.87l2.13,3.68a1.92,1.92,0,0,1,0,1.73l-2.13,3.68a1.92,1.92,0,0,1-1.5.87H888Z"/><line class="cls-9" x1="881.85" y1="105" x2="878.35" y2="105"/><line class="cls-15" x1="875.53" y1="105" x2="873.72" y2="105"/><line class="cls-9" x1="872.31" y1="105" x2="868.81" y2="105"/><path class="cls-7" d="M190,144.59a5.72,5.72,0,0,1-4.47-2.58l-5-8.67a5.72,5.72,0,0,1,0-5.16l5-8.67a5.72,5.72,0,0,1,4.47-2.58h10a5.72,5.72,0,0,1,4.47,2.58l5,8.67a5.72,5.72,0,0,1,0,5.16l-5,8.67a5.72,5.72,0,0,1-4.47,2.58H190Z"/><path class="cls-7" d="M234,68.89a5.76,5.76,0,0,1-4.5-2.6l-3.46-6a5.76,5.76,0,0,1,0-5.2l3.46-6a5.77,5.77,0,0,1,4.5-2.6h6.92a5.76,5.76,0,0,1,4.5,2.6l3.46,6a5.76,5.76,0,0,1,0,5.2l-3.46,6a5.76,5.76,0,0,1-4.5,2.6H234Z"/><path class="cls-3" d="M152.45,105.22a5.76,5.76,0,0,1-4.5-2.6l-3.46-6a5.76,5.76,0,0,1,0-5.2l3.46-6a5.77,5.77,0,0,1,4.5-2.6h6.92a5.76,5.76,0,0,1,4.5,2.6l3.46,6a5.76,5.76,0,0,1,0,5.2l-3.46,6a5.76,5.76,0,0,1-4.5,2.6h-6.92Z"/><g class="cls-2"><line class="cls-3" x1="219.38" y1="88.81" x2="221.14" y2="85.79"/><line class="cls-16" x1="223.59" y1="81.57" x2="228.32" y2="73.43"/><line class="cls-3" x1="229.19" y1="71.92" x2="230.95" y2="68.89"/></g><g class="cls-2"><line class="cls-3" x1="202.97" y1="116.93" x2="204.75" y2="113.92"/><line class="cls-17" x1="206.8" y1="110.47" x2="210.75" y2="103.83"/><line class="cls-3" x1="211.48" y1="102.59" x2="213.27" y2="99.59"/></g><g class="cls-2"><line class="cls-3" x1="242.7" y1="140.56" x2="240.97" y2="137.52"/><line class="cls-18" x1="238.35" y1="132.91" x2="233.29" y2="124.02"/><line class="cls-19" x1="232.35" y1="122.38" x2="222.05" y2="104.27"/><line class="cls-3" x1="221.12" y1="102.63" x2="219.38" y2="99.59"/></g><g class="cls-2"><line class="cls-3" x1="213.13" y1="88.81" x2="211.36" y2="85.8"/><line class="cls-20" x1="208.03" y1="80.14" x2="201.61" y2="69.23"/><line class="cls-21" x1="200.43" y1="67.21" x2="187.36" y2="44.98"/><line class="cls-3" x1="186.17" y1="42.96" x2="184.39" y2="39.94"/></g><path class="cls-3" d="M245.45,162.94a5.76,5.76,0,0,1-4.5-2.6l-3.46-6a5.76,5.76,0,0,1,0-5.2l3.46-6a5.76,5.76,0,0,1,4.5-2.6h6.92a5.76,5.76,0,0,1,4.5,2.6l3.46,6a5.76,5.76,0,0,1,0,5.2l-3.46,6a5.76,5.76,0,0,1-4.5,2.6h-6.92Z"/><path class="cls-7" d="M178.81,39.94a1.92,1.92,0,0,1-1.5-.87l-2.13-3.68a1.92,1.92,0,0,1,0-1.73L177.31,30a1.92,1.92,0,0,1,1.5-.87h4.25a1.92,1.92,0,0,1,1.5.87l2.13,3.68a1.92,1.92,0,0,1,0,1.73l-2.13,3.68a1.92,1.92,0,0,1-1.5.87h-4.25Z"/><path class="cls-22" d="M190,144.59a5.72,5.72,0,0,1-4.47-2.58l-5-8.67a5.72,5.72,0,0,1,0-5.16l5-8.67a5.72,5.72,0,0,1,4.47-2.58h10a5.72,5.72,0,0,1,4.47,2.58l5,8.67a5.72,5.72,0,0,1,0,5.16l-5,8.67a5.72,5.72,0,0,1-4.47,2.58H190Z"/><path class="cls-23" d="M234,68.89a5.76,5.76,0,0,1-4.5-2.6l-3.46-6a5.76,5.76,0,0,1,0-5.2l3.46-6a5.77,5.77,0,0,1,4.5-2.6h6.92a5.76,5.76,0,0,1,4.5,2.6l3.46,6a5.76,5.76,0,0,1,0,5.2l-3.46,6a5.76,5.76,0,0,1-4.5,2.6H234Z"/><path class="cls-24" d="M178.81,39.94a1.92,1.92,0,0,1-1.5-.87l-2.13-3.68a1.92,1.92,0,0,1,0-1.73L177.31,30a1.92,1.92,0,0,1,1.5-.87h4.25a1.92,1.92,0,0,1,1.5.87l2.13,3.68a1.92,1.92,0,0,1,0,1.73l-2.13,3.68a1.92,1.92,0,0,1-1.5.87h-4.25Z"/><line class="cls-25" x1="167.84" y1="94.03" x2="211.01" y2="94.03"/><path class="cls-23" d="M838.83,130.76a9.61,9.61,0,0,1-7.5-4.33L815.24,98.56a9.61,9.61,0,0,1,0-8.66L831.33,62a9.61,9.61,0,0,1,7.5-4.33H871a9.61,9.61,0,0,1,7.5,4.33L894.6,89.9a9.61,9.61,0,0,1,0,8.66l-16.09,27.87a9.61,9.61,0,0,1-7.5,4.33H838.83Z"/><path class="cls-26" d="M836.25,153.14a5.76,5.76,0,0,1-4.5-2.6l-3.46-6a5.76,5.76,0,0,1,0-5.2l3.46-6a5.76,5.76,0,0,1,4.5-2.6h6.92a5.76,5.76,0,0,1,4.5,2.6l3.46,6a5.76,5.76,0,0,1,0,5.2l-3.46,6a5.76,5.76,0,0,1-4.5,2.6h-6.92Z"/><path class="cls-27" d="M880.64,74.92a1.92,1.92,0,0,1-1.5-.87L877,70.37a1.92,1.92,0,0,1,0-1.73L879.14,65a1.92,1.92,0,0,1,1.5-.87h4.25a1.92,1.92,0,0,1,1.5.87l2.13,3.68a1.92,1.92,0,0,1,0,1.73l-2.13,3.68a1.92,1.92,0,0,1-1.5.87h-4.25Z"/><path class="cls-28" d="M451.38,226.55a0.42,0.42,0,0,1-.13-0.31V214.53a0.45,0.45,0,0,1,.12-0.32,0.41,0.41,0,0,1,.31-0.13h4.39q5.31,0,5.42,4.9,0,1,0,1.4t0,1.39a5.07,5.07,0,0,1-1.36,3.72,5.67,5.67,0,0,1-4,1.2h-4.48A0.42,0.42,0,0,1,451.38,226.55Zm4.7-2a3,3,0,0,0,2.16-.67,3.16,3.16,0,0,0,.7-2.21q0-1.08,0-1.35t0-1.33a2.55,2.55,0,0,0-3-2.86h-2.2v8.42h2.29Z"/><path class="cls-28" d="M464.93,226.55a0.42,0.42,0,0,1-.13-0.31V214.53a0.45,0.45,0,0,1,.12-0.32,0.41,0.41,0,0,1,.31-0.13h7.94a0.43,0.43,0,0,1,.45.45v1.21a0.41,0.41,0,0,1-.13.31,0.45,0.45,0,0,1-.32.12h-5.9v3.15h5.51a0.43,0.43,0,0,1,.45.45v1.13a0.41,0.41,0,0,1-.13.31,0.46,0.46,0,0,1-.32.12h-5.51v3.26h6a0.46,0.46,0,0,1,.32.12,0.41,0.41,0,0,1,.13.32v1.22a0.41,0.41,0,0,1-.13.31,0.46,0.46,0,0,1-.32.12h-8.08A0.42,0.42,0,0,1,464.93,226.55Z"/><path class="cls-28" d="M479.78,226.17l-3.85-11.56a0.52,0.52,0,0,1,0-.16,0.37,0.37,0,0,1,.38-0.38h1.6a0.56,0.56,0,0,1,.38.13,0.68,0.68,0,0,1,.2.27l3,9.22,3-9.22a0.54,0.54,0,0,1,.18-0.27,0.56,0.56,0,0,1,.38-0.13h1.62a0.38,0.38,0,0,1,.26.11,0.36,0.36,0,0,1,.12.27l0,0.16-3.83,11.56a0.69,0.69,0,0,1-.7.5h-2A0.67,0.67,0,0,1,479.78,226.17Z"/><path class="cls-28" d="M490,226.55a0.42,0.42,0,0,1-.13-0.31V214.53a0.45,0.45,0,0,1,.12-0.32,0.41,0.41,0,0,1,.31-0.13h7.94a0.43,0.43,0,0,1,.45.45v1.21a0.41,0.41,0,0,1-.13.31,0.45,0.45,0,0,1-.32.12h-5.9v3.15h5.51a0.43,0.43,0,0,1,.45.45v1.13a0.41,0.41,0,0,1-.13.31,0.46,0.46,0,0,1-.32.12h-5.51v3.26h6a0.46,0.46,0,0,1,.32.12,0.41,0.41,0,0,1,.13.32v1.22a0.41,0.41,0,0,1-.13.31,0.46,0.46,0,0,1-.32.12h-8.08A0.42,0.42,0,0,1,490,226.55Z"/><path class="cls-28" d="M502.1,226.55a0.42,0.42,0,0,1-.13-0.31V214.51a0.41,0.41,0,0,1,.13-0.31,0.43,0.43,0,0,1,.31-0.12h1.69a0.4,0.4,0,0,1,.43.43v10h5.71a0.44,0.44,0,0,1,.32.13,0.42,0.42,0,0,1,.13.31v1.3a0.42,0.42,0,0,1-.13.31,0.44,0.44,0,0,1-.32.13H502.4A0.42,0.42,0,0,1,502.1,226.55Z"/><path class="cls-28" d="M514.19,225.61a4.94,4.94,0,0,1-1.44-3.69q0-.52,0-1.53t0-1.55a4.93,4.93,0,0,1,1.48-3.67,6.27,6.27,0,0,1,7.59,0,4.91,4.91,0,0,1,1.49,3.67q0,1,0,1.55t0,1.53a4.92,4.92,0,0,1-1.45,3.69A6.52,6.52,0,0,1,514.19,225.61Zm5.74-1.57a3.24,3.24,0,0,0,.76-2.21q0-1.08,0-1.46t0-1.46a3.2,3.2,0,0,0-.77-2.21,2.84,2.84,0,0,0-3.8,0,3.14,3.14,0,0,0-.76,2.21q0,0.52,0,1.46t0,1.46a3.16,3.16,0,0,0,.75,2.2A2.89,2.89,0,0,0,519.94,224Z"/><path class="cls-28" d="M526.71,226.55a0.42,0.42,0,0,1-.13-0.31V214.53a0.45,0.45,0,0,1,.12-0.32,0.41,0.41,0,0,1,.31-0.13h4.82a5.22,5.22,0,0,1,3.42,1,3.65,3.65,0,0,1,1.24,3,3.55,3.55,0,0,1-1.24,2.94,5.31,5.31,0,0,1-3.42,1h-2.65v4.21a0.41,0.41,0,0,1-.13.31,0.45,0.45,0,0,1-.32.12H527A0.42,0.42,0,0,1,526.71,226.55Zm5-6.53a2.3,2.3,0,0,0,1.59-.49,1.85,1.85,0,0,0,.55-1.45,2,2,0,0,0-.53-1.46,2.21,2.21,0,0,0-1.61-.52h-2.59V220h2.59Z"/><path class="cls-28" d="M544.09,226.55a0.42,0.42,0,0,1-.13-0.31V214.51a0.41,0.41,0,0,1,.13-0.31,0.43,0.43,0,0,1,.31-0.12h1.73a0.4,0.4,0,0,1,.43.43v11.74a0.43,0.43,0,0,1-.12.31,0.41,0.41,0,0,1-.31.13H544.4A0.42,0.42,0,0,1,544.09,226.55Z"/><path class="cls-28" d="M550.39,226.55a0.42,0.42,0,0,1-.13-0.31V214.53a0.45,0.45,0,0,1,.12-0.32,0.41,0.41,0,0,1,.31-0.13h1.4a0.57,0.57,0,0,1,.52.31l5.15,8v-7.85a0.46,0.46,0,0,1,.12-0.32,0.41,0.41,0,0,1,.31-0.13h1.55a0.43,0.43,0,0,1,.45.45v11.7a0.44,0.44,0,0,1-.13.32,0.42,0.42,0,0,1-.31.13h-1.42a0.59,0.59,0,0,1-.54-0.31l-5.13-7.81v7.69a0.43,0.43,0,0,1-.12.31,0.41,0.41,0,0,1-.32.13H550.7A0.42,0.42,0,0,1,550.39,226.55Z"/><path class="cls-28" d="M565.51,226.37a4.11,4.11,0,0,1-1.75-1.28,3,3,0,0,1-.63-1.73,0.38,0.38,0,0,1,.11-0.26,0.35,0.35,0,0,1,.27-0.12h1.64a0.55,0.55,0,0,1,.32.09,0.94,0.94,0,0,1,.23.25,1.85,1.85,0,0,0,.82,1,3.2,3.2,0,0,0,1.75.41,3.47,3.47,0,0,0,1.9-.42,1.32,1.32,0,0,0,.64-1.16,1.1,1.1,0,0,0-.32-0.81,2.71,2.71,0,0,0-1-.57q-0.66-.24-2-0.58a7.66,7.66,0,0,1-3.11-1.33,2.92,2.92,0,0,1-1-2.38,3.16,3.16,0,0,1,.58-1.86,3.82,3.82,0,0,1,1.65-1.29,6.18,6.18,0,0,1,2.49-.47,5.93,5.93,0,0,1,2.58.52,4.26,4.26,0,0,1,1.66,1.3,2.89,2.89,0,0,1,.6,1.56,0.38,0.38,0,0,1-.11.26,0.35,0.35,0,0,1-.27.12h-1.71a0.54,0.54,0,0,1-.54-0.32,1.4,1.4,0,0,0-.7-1,3.27,3.27,0,0,0-3.07,0,1.24,1.24,0,0,0-.57,1.1,1.18,1.18,0,0,0,.29.81,2.36,2.36,0,0,0,.9.57,16.36,16.36,0,0,0,1.78.55,12.45,12.45,0,0,1,2.55.81,3.32,3.32,0,0,1,1.39,1.13,3.12,3.12,0,0,1,.45,1.75,3.29,3.29,0,0,1-.64,2,4,4,0,0,1-1.8,1.31,7.43,7.43,0,0,1-2.69.45A7.11,7.11,0,0,1,565.51,226.37Z"/><path class="cls-28" d="M576.49,226.55a0.42,0.42,0,0,1-.13-0.31V214.51a0.41,0.41,0,0,1,.13-0.31,0.43,0.43,0,0,1,.31-0.12h1.73a0.4,0.4,0,0,1,.43.43v11.74a0.43,0.43,0,0,1-.12.31,0.41,0.41,0,0,1-.31.13H576.8A0.42,0.42,0,0,1,576.49,226.55Z"/><path class="cls-28" d="M583.72,225.58a4.9,4.9,0,0,1-1.47-3.56q0-.52,0-1.67t0-1.67a4.7,4.7,0,0,1,1.48-3.5,5.54,5.54,0,0,1,3.85-1.27,6.61,6.61,0,0,1,2.85.57,4.64,4.64,0,0,1,1.81,1.4,3,3,0,0,1,.65,1.65,0.37,0.37,0,0,1-.11.27,0.39,0.39,0,0,1-.29.11H590.6a0.42,0.42,0,0,1-.27-0.07,0.61,0.61,0,0,1-.16-0.23,2.51,2.51,0,0,0-.88-1.13,2.81,2.81,0,0,0-1.71-.47,2.75,2.75,0,0,0-2,.67,2.88,2.88,0,0,0-.75,2.1q0,0.52,0,1.58t0,1.58a3,3,0,0,0,.76,2.15,2.73,2.73,0,0,0,2,.69,3,3,0,0,0,2.05-.68,2.59,2.59,0,0,0,.77-2.05v-0.56h-2.2a0.43,0.43,0,0,1-.43-0.43v-1a0.43,0.43,0,0,1,.43-0.43h4.32a0.44,0.44,0,0,1,.32.13,0.42,0.42,0,0,1,.13.31V222a5,5,0,0,1-.67,2.6,4.38,4.38,0,0,1-1.89,1.7,6.48,6.48,0,0,1-2.86.59A5.46,5.46,0,0,1,583.72,225.58Z"/><path class="cls-28" d="M596.31,226.55a0.42,0.42,0,0,1-.13-0.31V214.53a0.45,0.45,0,0,1,.12-0.32,0.41,0.41,0,0,1,.31-0.13h1.66a0.43,0.43,0,0,1,.45.45v4.63H604v-4.63a0.44,0.44,0,0,1,.13-0.32,0.42,0.42,0,0,1,.31-0.13h1.67a0.41,0.41,0,0,1,.32.13,0.46,0.46,0,0,1,.12.32v11.72a0.43,0.43,0,0,1-.12.31,0.41,0.41,0,0,1-.32.13h-1.67a0.43,0.43,0,0,1-.43-0.43v-4.81h-5.26v4.81a0.42,0.42,0,0,1-.13.31,0.44,0.44,0,0,1-.32.13h-1.66A0.42,0.42,0,0,1,596.31,226.55Z"/><path class="cls-28" d="M613.12,226.55a0.42,0.42,0,0,1-.13-0.31v-9.92h-3.33a0.42,0.42,0,0,1-.31-0.13,0.44,0.44,0,0,1-.13-0.32v-1.35a0.46,0.46,0,0,1,.12-0.32,0.41,0.41,0,0,1,.31-0.13h9.2a0.43,0.43,0,0,1,.45.45v1.35a0.43,0.43,0,0,1-.45.45h-3.31v9.92a0.43,0.43,0,0,1-.12.31,0.41,0.41,0,0,1-.32.13h-1.69A0.42,0.42,0,0,1,613.12,226.55Z"/><path class="cls-28" d="M419.27,249.72a4.56,4.56,0,0,1-1.12-3.37v-6.5a0.4,0.4,0,0,1,.1-0.28,0.33,0.33,0,0,1,.26-0.1h0.77a0.36,0.36,0,0,1,.38.38v6.53a3.29,3.29,0,0,0,.73,2.34,2.72,2.72,0,0,0,2.07.77,2.68,2.68,0,0,0,2.06-.78,3.29,3.29,0,0,0,.73-2.33v-6.53a0.4,0.4,0,0,1,.1-0.28,0.35,0.35,0,0,1,.27-0.1h0.77a0.36,0.36,0,0,1,.26.1,0.38,0.38,0,0,1,.1.28v6.5a4.58,4.58,0,0,1-1.11,3.37A5.1,5.1,0,0,1,419.27,249.72Z"/><path class="cls-28" d="M430.14,250.57a0.36,0.36,0,0,1-.1-0.26v-7.58a0.36,0.36,0,0,1,.37-0.37h0.69a0.33,0.33,0,0,1,.37.37v0.7a3.42,3.42,0,0,1,1.11-.91,3.47,3.47,0,0,1,1.58-.32,3,3,0,0,1,2.38,1,3.84,3.84,0,0,1,.85,2.6v4.53a0.36,0.36,0,0,1-.37.37h-0.74a0.36,0.36,0,0,1-.37-0.37v-4.43a2.63,2.63,0,0,0-.56-1.79,2,2,0,0,0-1.6-.64,2.13,2.13,0,0,0-1.63.65,2.5,2.5,0,0,0-.61,1.78v4.43a0.36,0.36,0,0,1-.1.26,0.36,0.36,0,0,1-.26.1H430.4A0.36,0.36,0,0,1,430.14,250.57Z"/><path class="cls-28" d="M441,249.75a4.67,4.67,0,0,1-.9-2.75l0-.48,0-.48a4.65,4.65,0,0,1,.91-2.74,3,3,0,0,1,2.51-1.1,3.11,3.11,0,0,1,2.59,1.18v-3.7a0.36,0.36,0,0,1,.37-0.37h0.72a0.36,0.36,0,0,1,.37.37v10.62a0.36,0.36,0,0,1-.37.37h-0.69a0.33,0.33,0,0,1-.26-0.1,0.38,0.38,0,0,1-.1-0.26v-0.69a3.1,3.1,0,0,1-2.64,1.22A3,3,0,0,1,441,249.75Zm4.5-.9a3.11,3.11,0,0,0,.61-1.77q0-.18,0-0.61t0-.62a2.73,2.73,0,0,0-.62-1.69,2,2,0,0,0-1.67-.71,1.94,1.94,0,0,0-1.68.72,3.36,3.36,0,0,0-.58,1.89l0,0.46q0,3.07,2.27,3.07A2,2,0,0,0,445.52,248.84Z"/><path class="cls-28" d="M451.49,249.82a4.18,4.18,0,0,1-1.07-2.78l0-.54,0-.53a4.18,4.18,0,0,1,1.07-2.75,3.86,3.86,0,0,1,5.34.1,4.49,4.49,0,0,1,1,3v0.29a0.36,0.36,0,0,1-.37.37h-5.55v0.14a3,3,0,0,0,.64,1.78,1.91,1.91,0,0,0,1.57.74,2.27,2.27,0,0,0,1.22-.3,2.61,2.61,0,0,0,.71-0.62,0.83,0.83,0,0,1,.22-0.23,0.66,0.66,0,0,1,.27,0h0.7a0.4,0.4,0,0,1,.25.08,0.25,0.25,0,0,1,.1.21,1.42,1.42,0,0,1-.43.85,3.52,3.52,0,0,1-1.22.86,4.34,4.34,0,0,1-1.82.36A3.45,3.45,0,0,1,451.49,249.82Zm4.85-3.9v0a2.69,2.69,0,0,0-.61-1.82,2,2,0,0,0-1.63-.7,2,2,0,0,0-1.63.7,2.74,2.74,0,0,0-.59,1.82v0h4.46Z"/><path class="cls-28" d="M460.65,250.57a0.36,0.36,0,0,1-.1-0.26v-7.57a0.39,0.39,0,0,1,.1-0.27,0.34,0.34,0,0,1,.26-0.11h0.67a0.36,0.36,0,0,1,.38.38v0.7a2.39,2.39,0,0,1,2.22-1.09h0.62a0.33,0.33,0,0,1,.37.37v0.59a0.37,0.37,0,0,1-.1.26,0.35,0.35,0,0,1-.27.1h-0.91a1.85,1.85,0,0,0-1.38.51,1.9,1.9,0,0,0-.5,1.39v4.72a0.34,0.34,0,0,1-.11.26,0.38,0.38,0,0,1-.27.1h-0.72A0.36,0.36,0,0,1,460.65,250.57Z"/><path class="cls-28" d="M468.35,250.48a3.11,3.11,0,0,1-1.13-.82,1.37,1.37,0,0,1-.37-0.77,0.3,0.3,0,0,1,.11-0.25,0.38,0.38,0,0,1,.24-0.09h0.67a0.31,0.31,0,0,1,.15,0,0.7,0.7,0,0,1,.15.14,2.92,2.92,0,0,0,.82.7,2.5,2.5,0,0,0,1.22.26,2.62,2.62,0,0,0,1.38-.32,1,1,0,0,0,.52-0.93,0.9,0.9,0,0,0-.22-0.64,1.93,1.93,0,0,0-.74-0.43,12.49,12.49,0,0,0-1.54-.42,4,4,0,0,1-2-.88,2,2,0,0,1-.58-1.49,2.1,2.1,0,0,1,.35-1.14,2.54,2.54,0,0,1,1-.9,3.71,3.71,0,0,1,1.66-.34,4,4,0,0,1,1.72.34,3,3,0,0,1,1.07.78,1.32,1.32,0,0,1,.36.75,0.31,0.31,0,0,1-.1.24,0.35,0.35,0,0,1-.25.1h-0.61a0.34,0.34,0,0,1-.32-0.18c-0.18-.2-0.33-0.36-0.46-0.47a1.51,1.51,0,0,0-.54-0.29,2.75,2.75,0,0,0-.88-0.12,1.91,1.91,0,0,0-1.2.33,1.05,1.05,0,0,0-.42.87,0.91,0.91,0,0,0,.18.57,1.58,1.58,0,0,0,.67.43,9.41,9.41,0,0,0,1.47.41,4.56,4.56,0,0,1,2.15.91,2,2,0,0,1,.63,1.52,2.13,2.13,0,0,1-.39,1.25,2.58,2.58,0,0,1-1.17.88,4.84,4.84,0,0,1-1.85.32A4.33,4.33,0,0,1,468.35,250.48Z"/><path class="cls-28" d="M477,247.88v-4.29h-1.26a0.33,0.33,0,0,1-.35-0.35v-0.51a0.37,0.37,0,0,1,.1-0.26,0.33,0.33,0,0,1,.26-0.1H477v-2.67a0.38,0.38,0,0,1,.1-0.26,0.33,0.33,0,0,1,.26-0.1h0.7a0.36,0.36,0,0,1,.37.37v2.67h2a0.36,0.36,0,0,1,.37.37v0.51a0.33,0.33,0,0,1-.1.26,0.37,0.37,0,0,1-.26.1h-2v4.18a2.32,2.32,0,0,0,.26,1.23,1,1,0,0,0,.9.42h1a0.33,0.33,0,0,1,.26.1,0.38,0.38,0,0,1,.1.26v0.53a0.38,0.38,0,0,1-.1.26,0.33,0.33,0,0,1-.26.1h-1.09Q477,250.68,477,247.88Z"/><path class="cls-28" d="M484.14,250.52a2.7,2.7,0,0,1-1.06-.87,2.06,2.06,0,0,1-.39-1.22,2.09,2.09,0,0,1,.86-1.73,5,5,0,0,1,2.35-.9l2.4-.34V245q0-1.65-1.9-1.65a2.12,2.12,0,0,0-1.18.3,1.88,1.88,0,0,0-.66.7,0.52,0.52,0,0,1-.14.22,0.32,0.32,0,0,1-.2.06H483.6a0.36,0.36,0,0,1-.35-0.35,1.56,1.56,0,0,1,.34-0.86,2.8,2.8,0,0,1,1.06-.85,3.91,3.91,0,0,1,1.76-.36A3.39,3.39,0,0,1,489,243a2.93,2.93,0,0,1,.78,2.08v5.2a0.36,0.36,0,0,1-.37.37h-0.7a0.33,0.33,0,0,1-.26-0.1,0.38,0.38,0,0,1-.1-0.26v-0.7a2.7,2.7,0,0,1-1,.88,3.72,3.72,0,0,1-1.73.35A3.29,3.29,0,0,1,484.14,250.52Zm3.5-1.54a2.75,2.75,0,0,0,.67-2v-0.45l-1.87.27a4.37,4.37,0,0,0-1.74.54,1.12,1.12,0,0,0-.59,1,1.14,1.14,0,0,0,.54,1,2.27,2.27,0,0,0,1.27.35A2.31,2.31,0,0,0,487.63,249Z"/><path class="cls-28" d="M493,250.57a0.36,0.36,0,0,1-.1-0.26v-7.58a0.36,0.36,0,0,1,.37-0.37h0.69a0.33,0.33,0,0,1,.37.37v0.7a3.42,3.42,0,0,1,1.11-.91,3.47,3.47,0,0,1,1.58-.32,3,3,0,0,1,2.38,1,3.84,3.84,0,0,1,.85,2.6v4.53a0.36,0.36,0,0,1-.37.37h-0.74a0.36,0.36,0,0,1-.37-0.37v-4.43a2.63,2.63,0,0,0-.56-1.79,2,2,0,0,0-1.6-.64,2.13,2.13,0,0,0-1.63.65,2.5,2.5,0,0,0-.61,1.78v4.43a0.36,0.36,0,0,1-.1.26,0.36,0.36,0,0,1-.26.1h-0.74A0.36,0.36,0,0,1,493,250.57Z"/><path class="cls-28" d="M503.87,249.75A4.67,4.67,0,0,1,503,247l0-.48,0-.48a4.65,4.65,0,0,1,.91-2.74,3,3,0,0,1,2.51-1.1,3.11,3.11,0,0,1,2.59,1.18v-3.7a0.36,0.36,0,0,1,.37-0.37h0.72a0.36,0.36,0,0,1,.37.37v10.62a0.36,0.36,0,0,1-.37.37h-0.69a0.33,0.33,0,0,1-.26-0.1,0.38,0.38,0,0,1-.1-0.26v-0.69a3.1,3.1,0,0,1-2.64,1.22A3,3,0,0,1,503.87,249.75Zm4.5-.9a3.11,3.11,0,0,0,.61-1.77q0-.18,0-0.61t0-.62a2.73,2.73,0,0,0-.62-1.69,2,2,0,0,0-1.67-.71,1.94,1.94,0,0,0-1.68.72,3.36,3.36,0,0,0-.58,1.89l0,0.46q0,3.07,2.27,3.07A2,2,0,0,0,508.37,248.84Z"/><path class="cls-28" d="M520,250.28l-2.29-7.42a0.48,0.48,0,0,1,0-.14,0.35,0.35,0,0,1,.1-0.25,0.31,0.31,0,0,1,.24-0.1h1.22a0.44,0.44,0,0,1,.28.1,0.42,0.42,0,0,1,.15.21l1.55,5.26,1.65-5.22a0.56,0.56,0,0,1,.17-0.25,0.46,0.46,0,0,1,.31-0.1h0.82a0.46,0.46,0,0,1,.31.1,0.45,0.45,0,0,1,.15.25l1.66,5.22,1.55-5.26a0.44,0.44,0,0,1,.14-0.21,0.43,0.43,0,0,1,.29-0.1h1.2a0.35,0.35,0,0,1,.35.35l0,0.14-2.29,7.42a0.66,0.66,0,0,1-.18.3,0.48,0.48,0,0,1-.33.1h-1.06a0.5,0.5,0,0,1-.53-0.4l-1.65-5-1.66,5a0.52,0.52,0,0,1-.54.4h-1A0.51,0.51,0,0,1,520,250.28Z"/><path class="cls-28" d="M532.31,250.56a0.37,0.37,0,0,1-.11-0.27V239.7a0.36,0.36,0,0,1,.11-0.28,0.39,0.39,0,0,1,.27-0.1H534a0.36,0.36,0,0,1,.38.38v3.65A3.18,3.18,0,0,1,537,242.2a3,3,0,0,1,2.35,1,3.76,3.76,0,0,1,.88,2.63v4.5a0.39,0.39,0,0,1-.1.27,0.36,0.36,0,0,1-.28.11h-1.46a0.39,0.39,0,0,1-.29-0.11,0.37,0.37,0,0,1-.11-0.27v-4.4a2.13,2.13,0,0,0-.46-1.45,1.64,1.64,0,0,0-1.3-.52,1.71,1.71,0,0,0-1.31.53,2,2,0,0,0-.5,1.44v4.4a0.39,0.39,0,0,1-.1.27,0.37,0.37,0,0,1-.28.11h-1.46A0.37,0.37,0,0,1,532.31,250.56Z"/><path class="cls-28" d="M544,253.62a0.3,0.3,0,0,1-.1-0.22,0.64,0.64,0,0,1,.06-0.26l1.26-3-3.07-7.25a0.6,0.6,0,0,1-.06-0.22,0.42,0.42,0,0,1,.11-0.25,0.31,0.31,0,0,1,.24-0.1h1.33a0.43,0.43,0,0,1,.42.3l2.13,5.22,2.16-5.22a0.49,0.49,0,0,1,.45-0.3h1.3a0.33,0.33,0,0,1,.24.1,0.31,0.31,0,0,1,.1.22,0.65,0.65,0,0,1-.06.26L546,253.41a0.45,0.45,0,0,1-.45.3h-1.28A0.33,0.33,0,0,1,544,253.62Z"/><path class="cls-28" d="M556.92,240.68a0.36,0.36,0,0,1-.1-0.26v-0.83a0.39,0.39,0,0,1,.1-0.27,0.34,0.34,0,0,1,.26-0.11h0.94a0.38,0.38,0,0,1,.38.38v0.83a0.34,0.34,0,0,1-.11.26,0.39,0.39,0,0,1-.27.1h-0.94A0.36,0.36,0,0,1,556.92,240.68Zm0.13,9.89a0.36,0.36,0,0,1-.1-0.26v-7.58a0.36,0.36,0,0,1,.37-0.37H558a0.36,0.36,0,0,1,.37.37v7.58a0.36,0.36,0,0,1-.37.37h-0.7A0.36,0.36,0,0,1,557,250.57Z"/><path class="cls-28" d="M562.31,247.88v-4.29H561a0.33,0.33,0,0,1-.35-0.35v-0.51a0.37,0.37,0,0,1,.1-0.26,0.33,0.33,0,0,1,.26-0.1h1.26v-2.67a0.38,0.38,0,0,1,.1-0.26,0.33,0.33,0,0,1,.26-0.1h0.7a0.36,0.36,0,0,1,.37.37v2.67h2a0.36,0.36,0,0,1,.37.37v0.51a0.33,0.33,0,0,1-.1.26,0.37,0.37,0,0,1-.26.1h-2v4.18A2.32,2.32,0,0,0,564,249a1,1,0,0,0,.9.42h1a0.33,0.33,0,0,1,.26.1,0.38,0.38,0,0,1,.1.26v0.53a0.38,0.38,0,0,1-.1.26,0.33,0.33,0,0,1-.26.1h-1.09Q562.31,250.68,562.31,247.88Z"/><path class="cls-28" d="M573.45,250.57a0.36,0.36,0,0,1-.1-0.26V239.68a0.35,0.35,0,0,1,.1-0.27,0.37,0.37,0,0,1,.26-0.1h0.74a0.33,0.33,0,0,1,.37.37v3.73a3.15,3.15,0,0,1,1.1-.9,3.5,3.5,0,0,1,1.56-.31,3,3,0,0,1,2.39,1,3.82,3.82,0,0,1,.86,2.6v4.53a0.36,0.36,0,0,1-.37.37H579.6a0.36,0.36,0,0,1-.37-0.37v-4.43a2.63,2.63,0,0,0-.56-1.79,2,2,0,0,0-1.62-.64,2.13,2.13,0,0,0-1.63.65,2.5,2.5,0,0,0-.61,1.78v4.43a0.36,0.36,0,0,1-.37.37h-0.74A0.36,0.36,0,0,1,573.45,250.57Z"/><path class="cls-28" d="M584.7,250.52a2.7,2.7,0,0,1-1.06-.87,2.06,2.06,0,0,1-.39-1.22,2.09,2.09,0,0,1,.86-1.73,5,5,0,0,1,2.35-.9l2.4-.34V245q0-1.65-1.9-1.65a2.12,2.12,0,0,0-1.18.3,1.88,1.88,0,0,0-.66.7,0.52,0.52,0,0,1-.14.22,0.32,0.32,0,0,1-.2.06h-0.62a0.36,0.36,0,0,1-.35-0.35,1.56,1.56,0,0,1,.34-0.86,2.8,2.8,0,0,1,1.06-.85,3.91,3.91,0,0,1,1.76-.36,3.39,3.39,0,0,1,2.57.83,2.93,2.93,0,0,1,.78,2.08v5.2a0.36,0.36,0,0,1-.37.37h-0.7a0.33,0.33,0,0,1-.26-0.1,0.38,0.38,0,0,1-.1-0.26v-0.7a2.7,2.7,0,0,1-1,.88,3.72,3.72,0,0,1-1.73.35A3.29,3.29,0,0,1,584.7,250.52Zm3.5-1.54a2.75,2.75,0,0,0,.67-2v-0.45l-1.87.27a4.37,4.37,0,0,0-1.74.54,1.12,1.12,0,0,0-.59,1,1.14,1.14,0,0,0,.54,1,2.27,2.27,0,0,0,1.27.35A2.31,2.31,0,0,0,588.19,249Z"/><path class="cls-28" d="M593.56,253.62a0.35,0.35,0,0,1-.1-0.27V242.72a0.35,0.35,0,0,1,.1-0.27,0.37,0.37,0,0,1,.26-0.1h0.67a0.33,0.33,0,0,1,.37.37v0.7a3.11,3.11,0,0,1,2.64-1.23,3,3,0,0,1,2.52,1.06,4.47,4.47,0,0,1,.89,2.71c0,0.12,0,.3,0,0.54s0,0.43,0,.54a4.48,4.48,0,0,1-.89,2.7,3.43,3.43,0,0,1-5.11-.14v3.73a0.36,0.36,0,0,1-.37.37h-0.72A0.37,0.37,0,0,1,593.56,253.62Zm5.32-4.75a3.36,3.36,0,0,0,.58-1.89c0-.11,0-0.26,0-0.46q0-3.07-2.27-3.07a2,2,0,0,0-1.69.74,3,3,0,0,0-.6,1.75q0,0.18,0,.62t0,0.62a2.73,2.73,0,0,0,.62,1.69,2,2,0,0,0,1.67.71A1.94,1.94,0,0,0,598.88,248.87Z"/><path class="cls-28" d="M603.87,253.62a0.35,0.35,0,0,1-.1-0.27V242.72a0.35,0.35,0,0,1,.1-0.27,0.37,0.37,0,0,1,.26-0.1h0.67a0.33,0.33,0,0,1,.37.37v0.7a3.11,3.11,0,0,1,2.64-1.23,3,3,0,0,1,2.52,1.06,4.47,4.47,0,0,1,.89,2.71c0,0.12,0,.3,0,0.54s0,0.43,0,.54a4.48,4.48,0,0,1-.89,2.7,3.43,3.43,0,0,1-5.11-.14v3.73a0.36,0.36,0,0,1-.37.37h-0.72A0.37,0.37,0,0,1,603.87,253.62Zm5.32-4.75a3.36,3.36,0,0,0,.58-1.89c0-.11,0-0.26,0-0.46q0-3.07-2.27-3.07a2,2,0,0,0-1.69.74,3,3,0,0,0-.6,1.75q0,0.18,0,.62t0,0.62a2.73,2.73,0,0,0,.62,1.69,2,2,0,0,0,1.67.71A1.94,1.94,0,0,0,609.19,248.87Z"/><path class="cls-28" d="M614.74,249.82a4.18,4.18,0,0,1-1.07-2.78l0-.54,0-.53a4.18,4.18,0,0,1,1.07-2.75,3.86,3.86,0,0,1,5.34.1,4.49,4.49,0,0,1,1,3v0.29a0.36,0.36,0,0,1-.37.37h-5.55v0.14a3,3,0,0,0,.64,1.78,1.91,1.91,0,0,0,1.57.74,2.27,2.27,0,0,0,1.22-.3,2.61,2.61,0,0,0,.71-0.62,0.83,0.83,0,0,1,.22-0.23,0.66,0.66,0,0,1,.27,0h0.7a0.4,0.4,0,0,1,.25.08,0.25,0.25,0,0,1,.1.21,1.42,1.42,0,0,1-.43.85,3.52,3.52,0,0,1-1.22.86,4.34,4.34,0,0,1-1.82.36A3.45,3.45,0,0,1,614.74,249.82Zm4.85-3.9v0a2.69,2.69,0,0,0-.61-1.82,2,2,0,0,0-1.63-.7,2,2,0,0,0-1.63.7,2.74,2.74,0,0,0-.59,1.82v0h4.46Z"/><path class="cls-28" d="M623.9,250.57a0.36,0.36,0,0,1-.1-0.26v-7.58a0.36,0.36,0,0,1,.37-0.37h0.69a0.33,0.33,0,0,1,.37.37v0.7a3.42,3.42,0,0,1,1.11-.91,3.47,3.47,0,0,1,1.58-.32,3,3,0,0,1,2.38,1,3.84,3.84,0,0,1,.85,2.6v4.53a0.36,0.36,0,0,1-.37.37H630a0.36,0.36,0,0,1-.37-0.37v-4.43a2.63,2.63,0,0,0-.56-1.79,2,2,0,0,0-1.6-.64,2.13,2.13,0,0,0-1.63.65,2.5,2.5,0,0,0-.61,1.78v4.43a0.36,0.36,0,0,1-.1.26,0.36,0.36,0,0,1-.26.1h-0.74A0.36,0.36,0,0,1,623.9,250.57Z"/><path class="cls-28" d="M634.95,249.82a4.18,4.18,0,0,1-1.07-2.78l0-.54,0-.53a4.18,4.18,0,0,1,1.07-2.75,3.86,3.86,0,0,1,5.34.1,4.49,4.49,0,0,1,1,3v0.29a0.36,0.36,0,0,1-.37.37h-5.55v0.14a3,3,0,0,0,.64,1.78,1.91,1.91,0,0,0,1.57.74,2.27,2.27,0,0,0,1.22-.3,2.61,2.61,0,0,0,.71-0.62,0.83,0.83,0,0,1,.22-0.23,0.66,0.66,0,0,1,.27,0h0.7a0.4,0.4,0,0,1,.25.08,0.25,0.25,0,0,1,.1.21,1.42,1.42,0,0,1-.43.85,3.52,3.52,0,0,1-1.22.86,4.34,4.34,0,0,1-1.82.36A3.45,3.45,0,0,1,634.95,249.82Zm4.85-3.9v0a2.69,2.69,0,0,0-.61-1.82,2,2,0,0,0-1.63-.7,2,2,0,0,0-1.63.7,2.74,2.74,0,0,0-.59,1.82v0h4.46Z"/><path class="cls-28" d="M644.52,249.75a4.67,4.67,0,0,1-.9-2.75l0-.48,0-.48a4.65,4.65,0,0,1,.91-2.74,3,3,0,0,1,2.51-1.1,3.11,3.11,0,0,1,2.59,1.18v-3.7a0.36,0.36,0,0,1,.37-0.37h0.72a0.36,0.36,0,0,1,.37.37v10.62a0.36,0.36,0,0,1-.37.37H650a0.33,0.33,0,0,1-.26-0.1,0.38,0.38,0,0,1-.1-0.26v-0.69a3.1,3.1,0,0,1-2.64,1.22A3,3,0,0,1,644.52,249.75Zm4.5-.9a3.11,3.11,0,0,0,.61-1.77q0-.18,0-0.61t0-.62a2.73,2.73,0,0,0-.62-1.69,2,2,0,0,0-1.67-.71,1.94,1.94,0,0,0-1.68.72,3.36,3.36,0,0,0-.58,1.89l0,0.46q0,3.07,2.27,3.07A2,2,0,0,0,649,248.84Z"/><path class="cls-28" d="M148.41,225.59A5,5,0,0,1,147,222q0-.49,0-1.58t0-1.62a5,5,0,0,1,1.46-3.59,5.38,5.38,0,0,1,3.83-1.29,6.59,6.59,0,0,1,2.79.55,4.43,4.43,0,0,1,1.85,1.5,3.92,3.92,0,0,1,.69,2.14v0a0.31,0.31,0,0,1-.12.24,0.39,0.39,0,0,1-.26.1h-1.75a0.47,0.47,0,0,1-.32-0.1A0.78,0.78,0,0,1,155,218a2.55,2.55,0,0,0-.94-1.57,3,3,0,0,0-1.76-.46q-2.58,0-2.68,2.88,0,0.49,0,1.49t0,1.53q0.11,2.88,2.68,2.88a3.05,3.05,0,0,0,1.75-.46,2.52,2.52,0,0,0,.95-1.57,0.78,0.78,0,0,1,.18-0.35,0.47,0.47,0,0,1,.32-0.1h1.75a0.4,0.4,0,0,1,.28.11,0.3,0.3,0,0,1,.1.27,3.92,3.92,0,0,1-.69,2.14,4.43,4.43,0,0,1-1.85,1.5,6.58,6.58,0,0,1-2.79.55A5.42,5.42,0,0,1,148.41,225.59Z"/><path class="cls-28" d="M161.65,225.61a5,5,0,0,1-1.44-3.69q0-.52,0-1.53t0-1.55a4.93,4.93,0,0,1,1.48-3.67,6.27,6.27,0,0,1,7.59,0,4.91,4.91,0,0,1,1.49,3.67q0,1,0,1.55t0,1.53a4.93,4.93,0,0,1-1.45,3.69A6.53,6.53,0,0,1,161.65,225.61Zm5.74-1.57a3.23,3.23,0,0,0,.76-2.21q0-1.08,0-1.46t0-1.46a3.19,3.19,0,0,0-.77-2.21,2.84,2.84,0,0,0-3.8,0,3.14,3.14,0,0,0-.76,2.21q0,0.52,0,1.46t0,1.46a3.16,3.16,0,0,0,.75,2.2A2.89,2.89,0,0,0,167.39,224Z"/><path class="cls-28" d="M174.16,226.55a0.42,0.42,0,0,1-.13-0.31V214.51a0.41,0.41,0,0,1,.13-0.31,0.43,0.43,0,0,1,.3-0.12h1.69a0.4,0.4,0,0,1,.43.43v10h5.71a0.44,0.44,0,0,1,.32.13,0.42,0.42,0,0,1,.13.31v1.3a0.42,0.42,0,0,1-.13.31,0.44,0.44,0,0,1-.32.13h-7.83A0.42,0.42,0,0,1,174.16,226.55Z"/><path class="cls-28" d="M185.52,226.55a0.42,0.42,0,0,1-.12-0.31V214.51a0.41,0.41,0,0,1,.13-0.31,0.43,0.43,0,0,1,.31-0.12h1.69a0.4,0.4,0,0,1,.43.43v10h5.71a0.44,0.44,0,0,1,.32.13,0.42,0.42,0,0,1,.13.31v1.3a0.42,0.42,0,0,1-.12.31,0.44,0.44,0,0,1-.32.13h-7.83A0.42,0.42,0,0,1,185.52,226.55Z"/><path class="cls-28" d="M196.87,226.55a0.42,0.42,0,0,1-.12-0.31V214.53a0.45,0.45,0,0,1,.12-0.32,0.41,0.41,0,0,1,.31-0.13h7.94a0.43,0.43,0,0,1,.45.45v1.21a0.41,0.41,0,0,1-.12.31,0.46,0.46,0,0,1-.32.12h-5.9v3.15h5.51a0.43,0.43,0,0,1,.45.45v1.13a0.41,0.41,0,0,1-.13.31,0.46,0.46,0,0,1-.32.12h-5.51v3.26h6a0.46,0.46,0,0,1,.32.12,0.41,0.41,0,0,1,.13.32v1.22a0.41,0.41,0,0,1-.12.31,0.46,0.46,0,0,1-.32.12h-8.08A0.42,0.42,0,0,1,196.87,226.55Z"/><path class="cls-28" d="M209.77,225.59a5,5,0,0,1-1.45-3.61q0-.49,0-1.58t0-1.62a5,5,0,0,1,1.46-3.59,5.38,5.38,0,0,1,3.83-1.29,6.59,6.59,0,0,1,2.79.55,4.43,4.43,0,0,1,1.85,1.5,3.92,3.92,0,0,1,.69,2.14v0a0.31,0.31,0,0,1-.12.24,0.39,0.39,0,0,1-.26.1h-1.75a0.47,0.47,0,0,1-.32-0.1,0.78,0.78,0,0,1-.18-0.35,2.55,2.55,0,0,0-.94-1.57,3,3,0,0,0-1.76-.46q-2.58,0-2.68,2.88,0,0.49,0,1.49t0,1.53q0.11,2.88,2.68,2.88a3.05,3.05,0,0,0,1.75-.46,2.52,2.52,0,0,0,.95-1.57,0.78,0.78,0,0,1,.18-0.35,0.47,0.47,0,0,1,.32-0.1h1.75a0.4,0.4,0,0,1,.28.11,0.3,0.3,0,0,1,.1.27,3.92,3.92,0,0,1-.69,2.14,4.43,4.43,0,0,1-1.85,1.5,6.58,6.58,0,0,1-2.79.55A5.42,5.42,0,0,1,209.77,225.59Z"/><path class="cls-28" d="M224.88,226.55a0.42,0.42,0,0,1-.12-0.31v-9.92h-3.33a0.42,0.42,0,0,1-.31-0.13,0.44,0.44,0,0,1-.12-0.32v-1.35a0.46,0.46,0,0,1,.12-0.32,0.41,0.41,0,0,1,.31-0.13h9.2a0.43,0.43,0,0,1,.45.45v1.35a0.43,0.43,0,0,1-.45.45h-3.31v9.92a0.43,0.43,0,0,1-.12.31,0.41,0.41,0,0,1-.32.13h-1.69A0.42,0.42,0,0,1,224.88,226.55Z"/><path class="cls-28" d="M238.49,226.55a0.42,0.42,0,0,1-.13-0.31V214.53a0.46,0.46,0,0,1,.12-0.32,0.41,0.41,0,0,1,.31-0.13h4.39q5.31,0,5.42,4.9,0,1,0,1.4t0,1.39a5.07,5.07,0,0,1-1.36,3.72,5.67,5.67,0,0,1-4,1.2h-4.48A0.42,0.42,0,0,1,238.49,226.55Zm4.7-2a3,3,0,0,0,2.16-.67,3.16,3.16,0,0,0,.7-2.21q0-1.08,0-1.35t0-1.33a2.55,2.55,0,0,0-3-2.86h-2.2v8.42h2.29Z"/><path class="cls-28" d="M250.62,226.57a0.37,0.37,0,0,1-.11-0.27l0-.16,4.32-11.61a0.65,0.65,0,0,1,.65-0.45h2a0.65,0.65,0,0,1,.65.45l4.32,11.61,0,0.16a0.35,0.35,0,0,1-.12.27,0.38,0.38,0,0,1-.26.11h-1.6a0.52,0.52,0,0,1-.52-0.34l-0.83-2.18h-5.33L253,226.33a0.52,0.52,0,0,1-.52.34h-1.6A0.37,0.37,0,0,1,250.62,226.57Zm3.85-4.5h4.07l-2-5.54Z"/><path class="cls-28" d="M266.64,226.55a0.42,0.42,0,0,1-.13-0.31v-9.92h-3.33a0.42,0.42,0,0,1-.3-0.13,0.44,0.44,0,0,1-.13-0.32v-1.35a0.46,0.46,0,0,1,.12-0.32,0.41,0.41,0,0,1,.31-0.13h9.2a0.43,0.43,0,0,1,.45.45v1.35a0.43,0.43,0,0,1-.45.45h-3.31v9.92a0.43,0.43,0,0,1-.12.31,0.41,0.41,0,0,1-.31.13h-1.69A0.42,0.42,0,0,1,266.64,226.55Z"/><path class="cls-28" d="M273.19,226.57a0.37,0.37,0,0,1-.11-0.27l0-.16,4.32-11.61a0.65,0.65,0,0,1,.65-0.45h2a0.65,0.65,0,0,1,.65.45L285,226.14l0,0.16a0.35,0.35,0,0,1-.12.27,0.37,0.37,0,0,1-.26.11h-1.6a0.52,0.52,0,0,1-.52-0.34l-0.83-2.18h-5.33l-0.83,2.18a0.52,0.52,0,0,1-.52.34h-1.6A0.36,0.36,0,0,1,273.19,226.57Zm3.85-4.5h4.07l-2-5.54Z"/><path class="cls-28" d="M122.21,250.57a0.38,0.38,0,0,1-.1-0.26V239.86a0.41,0.41,0,0,1,.1-0.28,0.34,0.34,0,0,1,.26-0.1h3.9a4.34,4.34,0,0,1,2.86.86,3,3,0,0,1,1,2.49,3.17,3.17,0,0,1-.61,2,3.14,3.14,0,0,1-1.7,1.09l2.46,4.27a0.41,0.41,0,0,1,0,.18,0.3,0.3,0,0,1-.1.22,0.31,0.31,0,0,1-.22.1h-0.71a0.57,0.57,0,0,1-.37-0.11,1,1,0,0,1-.25-0.32l-2.35-4.1h-2.85v4.16a0.35,0.35,0,0,1-.11.26,0.39,0.39,0,0,1-.27.1h-0.77A0.33,0.33,0,0,1,122.21,250.57Zm4.1-5.74q2.42,0,2.42-2t-2.42-2h-2.69v4.06h2.69Z"/><path class="cls-28" d="M133.76,249.82a4.19,4.19,0,0,1-1.07-2.78l0-.54,0-.53a4.18,4.18,0,0,1,1.07-2.75,3.86,3.86,0,0,1,5.34.1,4.5,4.5,0,0,1,1,3v0.29a0.36,0.36,0,0,1-.37.37h-5.55v0.14a3,3,0,0,0,.64,1.78,1.91,1.91,0,0,0,1.57.74,2.27,2.27,0,0,0,1.22-.3,2.61,2.61,0,0,0,.71-0.62,0.83,0.83,0,0,1,.22-0.23,0.65,0.65,0,0,1,.27,0h0.71a0.4,0.4,0,0,1,.25.08,0.25,0.25,0,0,1,.1.21,1.42,1.42,0,0,1-.43.85,3.54,3.54,0,0,1-1.22.86,4.34,4.34,0,0,1-1.82.36A3.45,3.45,0,0,1,133.76,249.82Zm4.85-3.9v0a2.7,2.7,0,0,0-.61-1.82,2,2,0,0,0-1.63-.7,2,2,0,0,0-1.63.7,2.74,2.74,0,0,0-.59,1.82v0h4.46Z"/><path class="cls-28" d="M143.47,249.87a3.85,3.85,0,0,1-1-2.71l0-.64,0-.64a3.85,3.85,0,0,1,1-2.71,3.59,3.59,0,0,1,2.67-1,4.2,4.2,0,0,1,1.94.41,3,3,0,0,1,1.18,1,2.48,2.48,0,0,1,.42,1.22,0.29,0.29,0,0,1-.1.26,0.38,0.38,0,0,1-.26.11h-0.71a0.35,0.35,0,0,1-.24-0.07,0.75,0.75,0,0,1-.16-0.26,2.16,2.16,0,0,0-.79-1.11,2.29,2.29,0,0,0-1.27-.33,2.1,2.1,0,0,0-1.6.62,2.83,2.83,0,0,0-.64,1.9l0,0.56,0,0.56a2.83,2.83,0,0,0,.64,1.9,2.1,2.1,0,0,0,1.6.62,2.28,2.28,0,0,0,1.28-.33,2.19,2.19,0,0,0,.79-1.11,0.75,0.75,0,0,1,.16-0.26,0.35,0.35,0,0,1,.24-0.07h0.71a0.38,0.38,0,0,1,.26.11,0.29,0.29,0,0,1,.1.26,2.46,2.46,0,0,1-.42,1.2,3.06,3.06,0,0,1-1.18,1,4.14,4.14,0,0,1-1.94.42A3.59,3.59,0,0,1,143.47,249.87Z"/><path class="cls-28" d="M153.08,249.84a3.88,3.88,0,0,1-1-2.64l0-.69,0-.69a3.84,3.84,0,0,1,1-2.64,4.16,4.16,0,0,1,5.39,0,3.85,3.85,0,0,1,1,2.64c0,0.23,0,.46,0,0.69s0,0.45,0,.69a3.88,3.88,0,0,1-1,2.64A4.2,4.2,0,0,1,153.08,249.84Zm4.34-.86a2.82,2.82,0,0,0,.65-1.86q0-.16,0-0.61t0-.61a2.82,2.82,0,0,0-.65-1.86,2.36,2.36,0,0,0-3.25,0,2.81,2.81,0,0,0-.65,1.86l0,0.61,0,0.61a2.81,2.81,0,0,0,.65,1.86A2.36,2.36,0,0,0,157.42,249Z"/><path class="cls-28" d="M162.47,250.57a0.36,0.36,0,0,1-.1-0.26v-7.57a0.39,0.39,0,0,1,.1-0.27,0.35,0.35,0,0,1,.27-0.11h0.67a0.36,0.36,0,0,1,.38.38v0.7a2.39,2.39,0,0,1,2.22-1.09h0.62a0.33,0.33,0,0,1,.37.37v0.59a0.38,0.38,0,0,1-.1.26,0.35,0.35,0,0,1-.27.1h-0.91a1.85,1.85,0,0,0-1.38.51,1.9,1.9,0,0,0-.5,1.39v4.72a0.34,0.34,0,0,1-.11.26,0.38,0.38,0,0,1-.27.1h-0.72A0.36,0.36,0,0,1,162.47,250.57Z"/><path class="cls-28" d="M169.53,249.75a4.67,4.67,0,0,1-.9-2.75l0-.48,0-.48a4.65,4.65,0,0,1,.91-2.74,3,3,0,0,1,2.51-1.1,3.11,3.11,0,0,1,2.59,1.18v-3.7a0.36,0.36,0,0,1,.37-0.37h0.72a0.36,0.36,0,0,1,.37.37v10.62a0.36,0.36,0,0,1-.37.37H175a0.33,0.33,0,0,1-.26-0.1,0.37,0.37,0,0,1-.1-0.26v-0.69a3.1,3.1,0,0,1-2.64,1.22A3,3,0,0,1,169.53,249.75Zm4.5-.9a3.1,3.1,0,0,0,.61-1.77c0-.12,0-0.32,0-0.61s0-.51,0-0.62a2.73,2.73,0,0,0-.62-1.69,2,2,0,0,0-1.67-.71,1.94,1.94,0,0,0-1.68.72,3.34,3.34,0,0,0-.58,1.89l0,0.46q0,3.07,2.27,3.07A2,2,0,0,0,174,248.84Z"/><path class="cls-28" d="M185.65,250.28l-2.29-7.42a0.45,0.45,0,0,1,0-.14,0.35,0.35,0,0,1,.1-0.25,0.31,0.31,0,0,1,.24-0.1h1.21a0.44,0.44,0,0,1,.28.1,0.42,0.42,0,0,1,.15.21l1.55,5.26,1.65-5.22a0.55,0.55,0,0,1,.17-0.25,0.46,0.46,0,0,1,.31-0.1h0.81a0.46,0.46,0,0,1,.31.1,0.45,0.45,0,0,1,.15.25l1.66,5.22,1.55-5.26a0.44,0.44,0,0,1,.14-0.21,0.43,0.43,0,0,1,.29-0.1h1.2a0.34,0.34,0,0,1,.25.1,0.33,0.33,0,0,1,.1.25l0,0.14-2.29,7.42a0.66,0.66,0,0,1-.19.3,0.48,0.48,0,0,1-.33.1H191.6a0.5,0.5,0,0,1-.53-0.4l-1.65-5-1.66,5a0.53,0.53,0,0,1-.54.4h-1A0.52,0.52,0,0,1,185.65,250.28Z"/><path class="cls-28" d="M198,250.56a0.37,0.37,0,0,1-.11-0.27V239.7a0.36,0.36,0,0,1,.11-0.28,0.39,0.39,0,0,1,.27-0.1h1.46a0.38,0.38,0,0,1,.28.1,0.37,0.37,0,0,1,.1.28v3.65a3.18,3.18,0,0,1,2.58-1.15,3,3,0,0,1,2.35,1,3.76,3.76,0,0,1,.88,2.63v4.5a0.39,0.39,0,0,1-.1.27,0.37,0.37,0,0,1-.28.11H204a0.39,0.39,0,0,1-.29-0.11,0.37,0.37,0,0,1-.11-0.27v-4.4a2.13,2.13,0,0,0-.46-1.45,1.65,1.65,0,0,0-1.3-.52,1.71,1.71,0,0,0-1.31.53,2,2,0,0,0-.5,1.44v4.4a0.38,0.38,0,0,1-.1.27,0.36,0.36,0,0,1-.28.11h-1.46A0.37,0.37,0,0,1,198,250.56Z"/><path class="cls-28" d="M209.64,250.51a2.72,2.72,0,0,1-1.07-.89,2.17,2.17,0,0,1,.49-3,5.28,5.28,0,0,1,2.42-.91l2.19-.32v-0.34a1.41,1.41,0,0,0-.35-1,1.53,1.53,0,0,0-1.12-.35,1.64,1.64,0,0,0-.85.19,2.69,2.69,0,0,0-.52.39l-0.26.26a0.24,0.24,0,0,1-.24.19h-1.25a0.36,0.36,0,0,1-.25-0.1,0.33,0.33,0,0,1-.1-0.26,1.68,1.68,0,0,1,.39-0.9,3.06,3.06,0,0,1,1.16-.88,4.46,4.46,0,0,1,1.94-.38A3.81,3.81,0,0,1,215,243a3,3,0,0,1,.86,2.22v5a0.39,0.39,0,0,1-.1.27,0.36,0.36,0,0,1-.28.11h-1.33a0.38,0.38,0,0,1-.38-0.38v-0.62a2.63,2.63,0,0,1-1,.84,3.49,3.49,0,0,1-1.6.33A3.4,3.4,0,0,1,209.64,250.51Zm3.48-1.78a2.29,2.29,0,0,0,.56-1.66v-0.32l-1.6.26q-1.84.29-1.84,1.23a0.89,0.89,0,0,0,.42.79,1.8,1.8,0,0,0,1,.28A1.92,1.92,0,0,0,213.12,248.72Z"/><path class="cls-28" d="M220.17,249.92a3.09,3.09,0,0,1-.73-2.23v-3.62h-1.27a0.38,0.38,0,0,1-.38-0.38v-0.94a0.38,0.38,0,0,1,.38-0.38h1.27V239.7a0.36,0.36,0,0,1,.11-0.28,0.39,0.39,0,0,1,.27-0.1h1.33a0.36,0.36,0,0,1,.38.38v2.66h2a0.38,0.38,0,0,1,.38.38v0.94a0.38,0.38,0,0,1-.38.38h-2v3.44a1.85,1.85,0,0,0,.24,1,0.88,0.88,0,0,0,.78.35h1.12a0.36,0.36,0,0,1,.38.38v1a0.39,0.39,0,0,1-.1.27,0.36,0.36,0,0,1-.28.11h-1.31A2.92,2.92,0,0,1,220.17,249.92Z"/><path class="cls-28" d="M231.29,250.57a0.36,0.36,0,0,1-.11-0.26V239.68a0.35,0.35,0,0,1,.11-0.27,0.37,0.37,0,0,1,.26-0.1h0.74a0.33,0.33,0,0,1,.37.37v3.73a3.15,3.15,0,0,1,1.1-.9,3.51,3.51,0,0,1,1.56-.31,3,3,0,0,1,2.39,1,3.82,3.82,0,0,1,.86,2.6v4.53a0.36,0.36,0,0,1-.37.37h-0.75a0.36,0.36,0,0,1-.37-0.37v-4.43a2.63,2.63,0,0,0-.56-1.79,2,2,0,0,0-1.62-.64,2.13,2.13,0,0,0-1.63.65,2.51,2.51,0,0,0-.61,1.78v4.43a0.36,0.36,0,0,1-.37.37h-0.74A0.35,0.35,0,0,1,231.29,250.57Z"/><path class="cls-28" d="M242.53,250.52a2.71,2.71,0,0,1-1.05-.87,2.06,2.06,0,0,1-.39-1.22,2.1,2.1,0,0,1,.86-1.73,5,5,0,0,1,2.35-.9l2.4-.34V245q0-1.65-1.9-1.65a2.12,2.12,0,0,0-1.19.3,1.87,1.87,0,0,0-.65.7,0.53,0.53,0,0,1-.14.22,0.32,0.32,0,0,1-.2.06H242a0.34,0.34,0,0,1-.25-0.1,0.33,0.33,0,0,1-.1-0.25,1.55,1.55,0,0,1,.34-0.86,2.79,2.79,0,0,1,1.06-.85,3.9,3.9,0,0,1,1.76-.36,3.39,3.39,0,0,1,2.57.83,2.94,2.94,0,0,1,.78,2.08v5.2a0.36,0.36,0,0,1-.37.37h-0.7a0.33,0.33,0,0,1-.26-0.1,0.37,0.37,0,0,1-.1-0.26v-0.7a2.7,2.7,0,0,1-1,.88,3.73,3.73,0,0,1-1.73.35A3.3,3.3,0,0,1,242.53,250.52ZM246,249a2.74,2.74,0,0,0,.67-2v-0.45l-1.87.27a4.37,4.37,0,0,0-1.74.54,1.14,1.14,0,0,0-.06,2,2.27,2.27,0,0,0,1.27.35A2.31,2.31,0,0,0,246,249Z"/><path class="cls-28" d="M251.4,253.62a0.36,0.36,0,0,1-.1-0.27V242.72a0.36,0.36,0,0,1,.1-0.27,0.38,0.38,0,0,1,.26-0.1h0.67a0.33,0.33,0,0,1,.37.37v0.7a3.11,3.11,0,0,1,2.64-1.23,3,3,0,0,1,2.52,1.06,4.47,4.47,0,0,1,.89,2.71q0,0.18,0,.54t0,0.54a4.48,4.48,0,0,1-.89,2.7,3.43,3.43,0,0,1-5.11-.14v3.73a0.35,0.35,0,0,1-.1.26,0.36,0.36,0,0,1-.26.1h-0.72A0.38,0.38,0,0,1,251.4,253.62Zm5.32-4.75a3.37,3.37,0,0,0,.58-1.89c0-.11,0-0.26,0-0.46q0-3.07-2.27-3.07a2,2,0,0,0-1.69.74,3,3,0,0,0-.6,1.75c0,0.12,0,.33,0,0.62s0,0.51,0,.62a2.72,2.72,0,0,0,.62,1.69,2,2,0,0,0,1.67.71A1.94,1.94,0,0,0,256.72,248.87Z"/><path class="cls-28" d="M261.7,253.62a0.35,0.35,0,0,1-.11-0.27V242.72a0.35,0.35,0,0,1,.11-0.27,0.37,0.37,0,0,1,.26-0.1h0.67a0.33,0.33,0,0,1,.37.37v0.7a3.11,3.11,0,0,1,2.64-1.23,3,3,0,0,1,2.52,1.06,4.47,4.47,0,0,1,.89,2.71c0,0.12,0,.3,0,0.54s0,0.43,0,.54a4.48,4.48,0,0,1-.89,2.7,3.43,3.43,0,0,1-5.11-.14v3.73a0.36,0.36,0,0,1-.37.37H262A0.37,0.37,0,0,1,261.7,253.62Zm5.32-4.75a3.34,3.34,0,0,0,.58-1.89,4.58,4.58,0,0,0,0-.46q0-3.07-2.27-3.07a2,2,0,0,0-1.69.74,3,3,0,0,0-.6,1.75c0,0.12,0,.33,0,0.62s0,0.51,0,.62a2.73,2.73,0,0,0,.62,1.69,2,2,0,0,0,1.67.71A1.94,1.94,0,0,0,267,248.87Z"/><path class="cls-28" d="M272.57,249.82A4.19,4.19,0,0,1,271.5,247l0-.54,0-.53a4.18,4.18,0,0,1,1.07-2.75,3.86,3.86,0,0,1,5.34.1,4.5,4.5,0,0,1,1,3v0.29a0.36,0.36,0,0,1-.37.37H273v0.14a3,3,0,0,0,.64,1.78,1.91,1.91,0,0,0,1.57.74,2.27,2.27,0,0,0,1.22-.3,2.61,2.61,0,0,0,.71-0.62,0.83,0.83,0,0,1,.22-0.23,0.65,0.65,0,0,1,.27,0h0.71a0.4,0.4,0,0,1,.25.08,0.25,0.25,0,0,1,.1.21,1.42,1.42,0,0,1-.43.85,3.54,3.54,0,0,1-1.22.86,4.34,4.34,0,0,1-1.82.36A3.45,3.45,0,0,1,272.57,249.82Zm4.85-3.9v0a2.7,2.7,0,0,0-.61-1.82,2,2,0,0,0-1.63-.7,2,2,0,0,0-1.63.7,2.74,2.74,0,0,0-.59,1.82v0h4.46Z"/><path class="cls-28" d="M281.73,250.57a0.35,0.35,0,0,1-.1-0.26v-7.58a0.36,0.36,0,0,1,.37-0.37h0.69a0.33,0.33,0,0,1,.37.37v0.7a3.41,3.41,0,0,1,1.11-.91,3.48,3.48,0,0,1,1.58-.32,3,3,0,0,1,2.38,1,3.85,3.85,0,0,1,.85,2.6v4.53a0.36,0.36,0,0,1-.37.37h-0.73a0.36,0.36,0,0,1-.37-0.37v-4.43a2.63,2.63,0,0,0-.56-1.79,2,2,0,0,0-1.6-.64,2.13,2.13,0,0,0-1.63.65,2.5,2.5,0,0,0-.61,1.78v4.43a0.35,0.35,0,0,1-.1.26,0.36,0.36,0,0,1-.26.1H282A0.35,0.35,0,0,1,281.73,250.57Z"/><path class="cls-28" d="M292.78,249.82a4.18,4.18,0,0,1-1.07-2.78l0-.54,0-.53a4.17,4.17,0,0,1,1.07-2.75,3.86,3.86,0,0,1,5.34.1,4.49,4.49,0,0,1,1,3v0.29a0.36,0.36,0,0,1-.37.37h-5.55v0.14a3,3,0,0,0,.64,1.78,1.91,1.91,0,0,0,1.57.74,2.27,2.27,0,0,0,1.22-.3,2.62,2.62,0,0,0,.71-0.62,0.83,0.83,0,0,1,.22-0.23,0.67,0.67,0,0,1,.27,0h0.7a0.39,0.39,0,0,1,.25.08,0.25,0.25,0,0,1,.1.21,1.41,1.41,0,0,1-.43.85,3.51,3.51,0,0,1-1.22.86,4.34,4.34,0,0,1-1.81.36A3.45,3.45,0,0,1,292.78,249.82Zm4.85-3.9v0a2.69,2.69,0,0,0-.61-1.82,2,2,0,0,0-1.63-.7,2,2,0,0,0-1.63.7,2.74,2.74,0,0,0-.59,1.82v0h4.46Z"/><path class="cls-28" d="M302.36,249.75a4.67,4.67,0,0,1-.9-2.75l0-.48,0-.48a4.65,4.65,0,0,1,.91-2.74,3,3,0,0,1,2.51-1.1,3.11,3.11,0,0,1,2.59,1.18v-3.7a0.36,0.36,0,0,1,.37-0.37h0.72a0.36,0.36,0,0,1,.37.37v10.62a0.36,0.36,0,0,1-.37.37h-0.69a0.33,0.33,0,0,1-.26-0.1,0.37,0.37,0,0,1-.1-0.26v-0.69a3.1,3.1,0,0,1-2.64,1.22A3,3,0,0,1,302.36,249.75Zm4.5-.9a3.1,3.1,0,0,0,.61-1.77c0-.12,0-0.32,0-0.61s0-.51,0-0.62a2.73,2.73,0,0,0-.62-1.69,2,2,0,0,0-1.67-.71,1.94,1.94,0,0,0-1.68.72,3.34,3.34,0,0,0-.58,1.89l0,0.46q0,3.07,2.27,3.07A2,2,0,0,0,306.86,248.84Z"/><path class="cls-28" d="M837.77,226.57a0.37,0.37,0,0,1-.11-0.27l0-.16L842,214.53a0.65,0.65,0,0,1,.65-0.45h2a0.65,0.65,0,0,1,.65.45l4.32,11.61,0,0.16a0.35,0.35,0,0,1-.12.27,0.37,0.37,0,0,1-.26.11h-1.6a0.52,0.52,0,0,1-.52-0.34l-0.83-2.18H841l-0.83,2.18a0.52,0.52,0,0,1-.52.34H838A0.36,0.36,0,0,1,837.77,226.57Zm3.85-4.5h4.07l-2-5.54Z"/><path class="cls-28" d="M853,225.59a5,5,0,0,1-1.45-3.61q0-.49,0-1.58t0-1.62a5,5,0,0,1,1.46-3.59,5.38,5.38,0,0,1,3.83-1.29,6.59,6.59,0,0,1,2.79.55,4.43,4.43,0,0,1,1.85,1.5,3.92,3.92,0,0,1,.69,2.14v0a0.31,0.31,0,0,1-.12.24,0.39,0.39,0,0,1-.26.1H860a0.47,0.47,0,0,1-.32-0.1,0.78,0.78,0,0,1-.18-0.35,2.55,2.55,0,0,0-.94-1.57,3,3,0,0,0-1.76-.46q-2.58,0-2.68,2.88,0,0.49,0,1.49t0,1.53q0.11,2.88,2.68,2.88a3.05,3.05,0,0,0,1.75-.46,2.52,2.52,0,0,0,.95-1.57,0.78,0.78,0,0,1,.18-0.35,0.47,0.47,0,0,1,.32-0.1h1.75a0.4,0.4,0,0,1,.28.11,0.3,0.3,0,0,1,.1.27,3.92,3.92,0,0,1-.69,2.14,4.43,4.43,0,0,1-1.85,1.5,6.58,6.58,0,0,1-2.79.55A5.42,5.42,0,0,1,853,225.59Z"/><path class="cls-28" d="M868.08,226.55a0.42,0.42,0,0,1-.12-0.31v-9.92h-3.33a0.42,0.42,0,0,1-.31-0.13,0.44,0.44,0,0,1-.12-0.32v-1.35a0.46,0.46,0,0,1,.12-0.32,0.41,0.41,0,0,1,.31-0.13h9.2a0.43,0.43,0,0,1,.45.45v1.35a0.43,0.43,0,0,1-.45.45h-3.31v9.92a0.43,0.43,0,0,1-.12.31,0.41,0.41,0,0,1-.32.13h-1.69A0.42,0.42,0,0,1,868.08,226.55Z"/><path class="cls-28" d="M782.71,249.71a4.41,4.41,0,0,1-1.29-3.21q0-.43,0-1.41t0-1.44a4.42,4.42,0,0,1,1.3-3.19,4.78,4.78,0,0,1,3.41-1.14,5.85,5.85,0,0,1,2.48.49,3.94,3.94,0,0,1,1.64,1.34,3.48,3.48,0,0,1,.62,1.9v0a0.27,0.27,0,0,1-.1.22,0.35,0.35,0,0,1-.23.09H789a0.42,0.42,0,0,1-.29-0.09,0.69,0.69,0,0,1-.16-0.31,2.26,2.26,0,0,0-.83-1.4,2.71,2.71,0,0,0-1.57-.41q-2.29,0-2.38,2.56c0,0.29,0,.73,0,1.33s0,1.05,0,1.36q0.1,2.56,2.38,2.56a2.72,2.72,0,0,0,1.56-.41,2.24,2.24,0,0,0,.84-1.4,0.69,0.69,0,0,1,.16-0.31,0.42,0.42,0,0,1,.29-0.09h1.55a0.35,0.35,0,0,1,.25.1,0.26,0.26,0,0,1,.09.24,3.48,3.48,0,0,1-.62,1.9,3.93,3.93,0,0,1-1.64,1.34,5.85,5.85,0,0,1-2.48.49A4.81,4.81,0,0,1,782.71,249.71Z"/><path class="cls-28" d="M793.5,250.56a0.37,0.37,0,0,1-.11-0.27V239.7a0.36,0.36,0,0,1,.11-0.28,0.39,0.39,0,0,1,.27-0.1h1.46a0.38,0.38,0,0,1,.28.1,0.37,0.37,0,0,1,.1.28v3.65a3.18,3.18,0,0,1,2.58-1.15,3,3,0,0,1,2.35,1,3.76,3.76,0,0,1,.88,2.63v4.5a0.39,0.39,0,0,1-.1.27,0.37,0.37,0,0,1-.28.11h-1.46a0.39,0.39,0,0,1-.29-0.11,0.37,0.37,0,0,1-.11-0.27v-4.4a2.13,2.13,0,0,0-.46-1.45,1.65,1.65,0,0,0-1.3-.52,1.71,1.71,0,0,0-1.31.53,2,2,0,0,0-.5,1.44v4.4a0.38,0.38,0,0,1-.1.27,0.36,0.36,0,0,1-.28.11h-1.46A0.37,0.37,0,0,1,793.5,250.56Z"/><path class="cls-28" d="M805.17,250.51a2.72,2.72,0,0,1-1.07-.89,2.17,2.17,0,0,1,.49-3,5.28,5.28,0,0,1,2.42-.91l2.19-.32v-0.34a1.41,1.41,0,0,0-.35-1,1.53,1.53,0,0,0-1.12-.35,1.64,1.64,0,0,0-.85.19,2.69,2.69,0,0,0-.52.39l-0.26.26a0.24,0.24,0,0,1-.24.19H804.6a0.36,0.36,0,0,1-.25-0.1,0.33,0.33,0,0,1-.1-0.26,1.68,1.68,0,0,1,.39-0.9,3.06,3.06,0,0,1,1.16-.88,4.46,4.46,0,0,1,1.94-.38,3.81,3.81,0,0,1,2.75.85,3,3,0,0,1,.86,2.22v5a0.39,0.39,0,0,1-.1.27,0.36,0.36,0,0,1-.28.11h-1.33a0.38,0.38,0,0,1-.38-0.38v-0.62a2.63,2.63,0,0,1-1,.84,3.49,3.49,0,0,1-1.6.33A3.4,3.4,0,0,1,805.17,250.51Zm3.48-1.78a2.29,2.29,0,0,0,.56-1.66v-0.32l-1.6.26q-1.84.29-1.84,1.23a0.89,0.89,0,0,0,.42.79,1.8,1.8,0,0,0,1,.28A1.92,1.92,0,0,0,808.65,248.72Z"/><path class="cls-28" d="M814.31,250.56a0.37,0.37,0,0,1-.11-0.27v-7.55a0.36,0.36,0,0,1,.11-0.28,0.38,0.38,0,0,1,.27-0.1h1.33a0.36,0.36,0,0,1,.38.38v0.66a3.26,3.26,0,0,1,2.67-1.2,3,3,0,0,1,2.34,1,3.8,3.8,0,0,1,.86,2.64v4.5a0.39,0.39,0,0,1-.1.27,0.37,0.37,0,0,1-.28.11h-1.44a0.37,0.37,0,0,1-.27-0.11,0.37,0.37,0,0,1-.11-0.27v-4.4a2.12,2.12,0,0,0-.46-1.45,1.64,1.64,0,0,0-1.3-.52,1.71,1.71,0,0,0-1.31.53,2,2,0,0,0-.5,1.44v4.4a0.38,0.38,0,0,1-.11.27,0.36,0.36,0,0,1-.28.11h-1.42A0.37,0.37,0,0,1,814.31,250.56Z"/><path class="cls-28" d="M826.46,253.72a3.15,3.15,0,0,1-1.25-1.08,2.12,2.12,0,0,1-.37-1,0.35,0.35,0,0,1,.11-0.26,0.39,0.39,0,0,1,.27-0.1h1.42a0.43,0.43,0,0,1,.25.07,0.51,0.51,0,0,1,.17.26,1.87,1.87,0,0,0,.53.71,1.67,1.67,0,0,0,1.09.3,1.6,1.6,0,0,0,1.86-1.9v-1.09a3,3,0,0,1-2.45,1,3.07,3.07,0,0,1-2.5-1,4.43,4.43,0,0,1-.9-2.75l0-.43,0-.43a4.49,4.49,0,0,1,.91-2.75,3,3,0,0,1,2.5-1,3.3,3.3,0,0,1,1.49.32,3,3,0,0,1,1.06.86v-0.62a0.38,0.38,0,0,1,.12-0.29,0.4,0.4,0,0,1,.28-0.11h1.31a0.37,0.37,0,0,1,.27.11,0.39,0.39,0,0,1,.11.29l0,7.71a3.68,3.68,0,0,1-1,2.75,4.11,4.11,0,0,1-3,1A4.88,4.88,0,0,1,826.46,253.72Zm3.58-5.38a2.46,2.46,0,0,0,.5-1.41,7.46,7.46,0,0,0,0-1,2.46,2.46,0,0,0-.5-1.41,1.6,1.6,0,0,0-1.34-.58q-1.73,0-1.82,2.11l0,0.38q0,2.5,1.84,2.5A1.6,1.6,0,0,0,830,248.34Z"/><path class="cls-28" d="M836.42,249.81a4.08,4.08,0,0,1-1.11-2.91l0-.4a4.51,4.51,0,0,1,1-3.15,4.28,4.28,0,0,1,5.84,0,4.44,4.44,0,0,1,1,3.07v0.34a0.37,0.37,0,0,1-.11.27,0.39,0.39,0,0,1-.29.11H837.5v0.13a2.48,2.48,0,0,0,.49,1.48,1.51,1.51,0,0,0,1.26.58,1.81,1.81,0,0,0,1.49-.74,0.88,0.88,0,0,1,.22-0.22,0.67,0.67,0,0,1,.27,0h1.41a0.4,0.4,0,0,1,.25.08,0.27,0.27,0,0,1,.1.22,1.49,1.49,0,0,1-.46.9,3.76,3.76,0,0,1-1.3.9,4.73,4.73,0,0,1-2,.38A3.89,3.89,0,0,1,836.42,249.81Zm4.58-4v0a2.29,2.29,0,0,0-.47-1.51,1.59,1.59,0,0,0-1.29-.57,1.56,1.56,0,0,0-1.28.57,2.31,2.31,0,0,0-.46,1.51v0H841Z"/><path class="cls-28" d="M851,247.88v-4.29h-1.26a0.33,0.33,0,0,1-.35-0.35v-0.51a0.37,0.37,0,0,1,.1-0.26,0.33,0.33,0,0,1,.26-0.1H851v-2.67a0.37,0.37,0,0,1,.1-0.26,0.33,0.33,0,0,1,.26-0.1h0.7a0.36,0.36,0,0,1,.37.37v2.67h2a0.36,0.36,0,0,1,.37.37v0.51a0.33,0.33,0,0,1-.1.26,0.38,0.38,0,0,1-.26.1h-2v4.18a2.33,2.33,0,0,0,.26,1.23,1,1,0,0,0,.9.42h1a0.33,0.33,0,0,1,.26.1,0.38,0.38,0,0,1,.1.26v0.53a0.38,0.38,0,0,1-.1.26,0.33,0.33,0,0,1-.26.1H853.5Q851,250.68,851,247.88Z"/><path class="cls-28" d="M857.43,250.57a0.36,0.36,0,0,1-.11-0.26V239.68a0.35,0.35,0,0,1,.11-0.27,0.37,0.37,0,0,1,.26-0.1h0.74a0.33,0.33,0,0,1,.37.37v3.73a3.15,3.15,0,0,1,1.1-.9,3.51,3.51,0,0,1,1.56-.31,3,3,0,0,1,2.39,1,3.82,3.82,0,0,1,.86,2.6v4.53a0.36,0.36,0,0,1-.37.37h-0.75a0.36,0.36,0,0,1-.37-0.37v-4.43a2.63,2.63,0,0,0-.56-1.79,2,2,0,0,0-1.62-.64,2.13,2.13,0,0,0-1.63.65,2.51,2.51,0,0,0-.61,1.78v4.43a0.36,0.36,0,0,1-.37.37h-0.74A0.35,0.35,0,0,1,857.43,250.57Z"/><path class="cls-28" d="M868.51,249.82a4.19,4.19,0,0,1-1.07-2.78l0-.54,0-.53a4.18,4.18,0,0,1,1.07-2.75,3.86,3.86,0,0,1,5.34.1,4.5,4.5,0,0,1,1,3v0.29a0.36,0.36,0,0,1-.37.37h-5.55v0.14a3,3,0,0,0,.64,1.78,1.91,1.91,0,0,0,1.57.74,2.27,2.27,0,0,0,1.22-.3,2.61,2.61,0,0,0,.71-0.62,0.83,0.83,0,0,1,.22-0.23,0.65,0.65,0,0,1,.27,0h0.71a0.4,0.4,0,0,1,.25.08,0.25,0.25,0,0,1,.1.21,1.42,1.42,0,0,1-.43.85,3.54,3.54,0,0,1-1.22.86,4.34,4.34,0,0,1-1.82.36A3.45,3.45,0,0,1,868.51,249.82Zm4.85-3.9v0a2.7,2.7,0,0,0-.61-1.82,2,2,0,0,0-1.63-.7,2,2,0,0,0-1.63.7,2.74,2.74,0,0,0-.59,1.82v0h4.46Z"/><path class="cls-28" d="M882.93,250.57a0.36,0.36,0,0,1-.1-0.26v-6.72h-1.37a0.38,0.38,0,0,1-.27-0.1,0.33,0.33,0,0,1-.1-0.26v-0.51a0.36,0.36,0,0,1,.37-0.37h1.38v-0.8a2.92,2.92,0,0,1,.63-2,2.64,2.64,0,0,1,2.07-.71h0.94a0.36,0.36,0,0,1,.26.1,0.35,0.35,0,0,1,.1.26v0.51a0.33,0.33,0,0,1-.1.26,0.38,0.38,0,0,1-.26.1h-0.91a1.2,1.2,0,0,0-1,.38,2,2,0,0,0-.29,1.18v0.72h2.06a0.36,0.36,0,0,1,.37.37v0.51a0.33,0.33,0,0,1-.1.26,0.37,0.37,0,0,1-.26.1h-2.06v6.72a0.36,0.36,0,0,1-.37.37h-0.69A0.36,0.36,0,0,1,882.93,250.57Z"/><path class="cls-28" d="M889.66,249.85a3.92,3.92,0,0,1-.83-2.62v-4.51a0.36,0.36,0,0,1,.37-0.37h0.73a0.36,0.36,0,0,1,.37.37v4.43q0,2.43,2.11,2.43a2.11,2.11,0,0,0,1.63-.65,2.53,2.53,0,0,0,.6-1.78v-4.43a0.36,0.36,0,0,1,.37-0.37h0.74a0.36,0.36,0,0,1,.37.37v7.58a0.36,0.36,0,0,1-.37.37H895a0.36,0.36,0,0,1-.37-0.37v-0.72a3.06,3.06,0,0,1-1.09.94,3.53,3.53,0,0,1-1.58.31A2.91,2.91,0,0,1,889.66,249.85Z"/><path class="cls-28" d="M900,247.88v-4.29h-1.26a0.33,0.33,0,0,1-.35-0.35v-0.51a0.37,0.37,0,0,1,.1-0.26,0.33,0.33,0,0,1,.26-0.1H900v-2.67a0.37,0.37,0,0,1,.1-0.26,0.33,0.33,0,0,1,.26-0.1h0.7a0.36,0.36,0,0,1,.37.37v2.67h2a0.36,0.36,0,0,1,.37.37v0.51a0.33,0.33,0,0,1-.1.26,0.38,0.38,0,0,1-.26.1h-2v4.18a2.33,2.33,0,0,0,.26,1.23,1,1,0,0,0,.9.42h1a0.33,0.33,0,0,1,.26.1,0.38,0.38,0,0,1,.1.26v0.53a0.38,0.38,0,0,1-.1.26,0.33,0.33,0,0,1-.26.1h-1.09Q900,250.68,900,247.88Z"/><path class="cls-28" d="M907.06,249.85a3.92,3.92,0,0,1-.83-2.62v-4.51a0.36,0.36,0,0,1,.37-0.37h0.73a0.36,0.36,0,0,1,.37.37v4.43q0,2.43,2.11,2.43a2.11,2.11,0,0,0,1.63-.65,2.53,2.53,0,0,0,.6-1.78v-4.43a0.36,0.36,0,0,1,.37-0.37h0.74a0.36,0.36,0,0,1,.37.37v7.58a0.36,0.36,0,0,1-.37.37h-0.69a0.36,0.36,0,0,1-.37-0.37v-0.72a3.06,3.06,0,0,1-1.09.94,3.53,3.53,0,0,1-1.58.31A2.91,2.91,0,0,1,907.06,249.85Z"/><path class="cls-28" d="M916.82,250.57a0.35,0.35,0,0,1-.1-0.26v-7.57a0.38,0.38,0,0,1,.1-0.27,0.34,0.34,0,0,1,.26-0.11h0.67a0.36,0.36,0,0,1,.38.38v0.7a2.39,2.39,0,0,1,2.22-1.09H921a0.33,0.33,0,0,1,.37.37v0.59a0.37,0.37,0,0,1-.1.26,0.35,0.35,0,0,1-.27.1h-0.91a1.86,1.86,0,0,0-1.38.51,1.9,1.9,0,0,0-.5,1.39v4.72a0.35,0.35,0,0,1-.11.26,0.39,0.39,0,0,1-.27.1h-0.72A0.35,0.35,0,0,1,916.82,250.57Z"/><path class="cls-28" d="M924.06,249.82A4.19,4.19,0,0,1,923,247l0-.54,0-.53a4.18,4.18,0,0,1,1.07-2.75,3.86,3.86,0,0,1,5.34.1,4.5,4.5,0,0,1,1,3v0.29a0.36,0.36,0,0,1-.37.37h-5.55v0.14a3,3,0,0,0,.64,1.78,1.91,1.91,0,0,0,1.57.74,2.27,2.27,0,0,0,1.22-.3,2.61,2.61,0,0,0,.71-0.62,0.83,0.83,0,0,1,.22-0.23,0.65,0.65,0,0,1,.27,0h0.71a0.4,0.4,0,0,1,.25.08,0.25,0.25,0,0,1,.1.21,1.42,1.42,0,0,1-.43.85,3.54,3.54,0,0,1-1.22.86,4.34,4.34,0,0,1-1.82.36A3.45,3.45,0,0,1,924.06,249.82Zm4.85-3.9v0a2.7,2.7,0,0,0-.61-1.82,2,2,0,0,0-1.63-.7,2,2,0,0,0-1.63.7,2.74,2.74,0,0,0-.59,1.82v0h4.46Z"/><g class="cls-2"><path class="cls-29" d="M182.51,93.85S198.59,75,216.42,75s33.91,18.84,33.91,18.84-14.57,18.84-33.91,18.84S182.51,93.85,182.51,93.85Z"/></g><circle class="cls-7" cx="216.42" cy="93.85" r="18.84" transform="translate(-2.97 180.53) rotate(-45)"/><circle class="cls-30" cx="216.42" cy="93.85" r="18.84" transform="translate(-2.98 180.52) rotate(-45)"/><path class="cls-31" d="M216.42,86.32a7.49,7.49,0,0,0-3.13.69,2.63,2.63,0,1,1-3.71,3.71A7.53,7.53,0,1,0,216.42,86.32Z"/><path class="cls-32" d="M211.53,91.59a2.66,2.66,0,1,0-2-.87A2.63,2.63,0,0,0,211.53,91.59Z"/><circle class="cls-33" cx="216.42" cy="94.03" r="40"/><g class="cls-34"><line class="cls-35" x1="573.33" y1="85.93" x2="566.68" y2="92.59"/><line class="cls-36" x1="568.63" y1="120.37" x2="575.28" y2="127.03"/><circle class="cls-37" cx="576.35" cy="128.12" r="1.24" transform="translate(78.13 444.94) rotate(-44.99)"/><line class="cls-38" x1="570.67" y1="108.05" x2="561.26" y2="108.05"/><line class="cls-39" x1="534.96" y1="55.92" x2="541.61" y2="62.57"/><line class="cls-40" x1="562" y1="130.03" x2="562" y2="120.61"/><line class="cls-41" x1="566.5" y1="71.55" x2="553.13" y2="71.55"/><line class="cls-42" x1="495.64" y1="101.36" x2="484.86" y2="101.36"/><circle class="cls-43" cx="483.33" cy="101.34" r="5.15"/><circle class="cls-43" cx="576.35" cy="128.12" r="5.16"/><circle class="cls-43" cx="485.78" cy="55.92" r="5.15"/><circle class="cls-43" cx="505.68" cy="149.29" r="5.15"/><circle class="cls-43" cx="549.38" cy="29.82" r="5.15"/><circle class="cls-43" cx="562.38" cy="45.61" r="5.15"/><circle class="cls-37" cx="483.33" cy="101.34" r="1.24"/><line class="cls-44" x1="538.19" y1="87.97" x2="534.86" y2="84.64"/><line class="cls-45" x1="549.62" y1="58.79" x2="537.84" y2="58.79"/><line class="cls-46" x1="519.16" y1="135.84" x2="506.78" y2="148.22"/><circle class="cls-37" cx="505.68" cy="149.29" r="1.24" transform="translate(42.4 401.03) rotate(-44.97)"/><circle class="cls-43" cx="588.58" cy="78.07" r="5.15" transform="translate(117.19 439.05) rotate(-45)"/><line class="cls-47" x1="569.54" y1="78.04" x2="587.05" y2="78.04"/><circle class="cls-37" cx="588.58" cy="78.07" r="1.24"/><line class="cls-48" x1="561.15" y1="45.63" x2="549.37" y2="45.63"/><circle class="cls-37" cx="562.39" cy="45.61" r="1.24"/><polyline class="cls-3" points="549.95 123.99 539.24 113.28 539.24 108.51 534.86 108.51"/><polyline class="cls-49" points="486.66 57.03 497.37 67.74 502.14 67.74 502.14 72.12"/><circle class="cls-37" cx="485.78" cy="56.12" r="1.24" transform="translate(102.43 359.72) rotate(-44.97)"/><line class="cls-50" x1="545.41" y1="106.51" x2="545.41" y2="119.33"/><line class="cls-51" x1="549.39" y1="31.08" x2="549.39" y2="50.78"/><circle class="cls-37" cx="549.36" cy="29.82" r="1.24"/><path class="cls-7" d="M560.2,132.26a3.24,3.24,0,0,1-2,.82H554a3.24,3.24,0,0,0-2,.82l-3.94,3.94a3.24,3.24,0,0,1-2,.82h-7.75a3.27,3.27,0,0,1-2-.82l-0.7-.69a3.2,3.2,0,0,1-.83-2V52.25a3.33,3.33,0,0,1,.81-2l1.52-1.58a3.14,3.14,0,0,1,2-.84H543a3.07,3.07,0,0,1,2,.85l1.59,1.71a3.07,3.07,0,0,0,2,.85h2.17a3.22,3.22,0,0,1,2,.82L563.68,63.2a3.25,3.25,0,0,1,.82,2v3.18a3.19,3.19,0,0,0,.83,2l3,2.94a3.19,3.19,0,0,1,.83,2v3.64a3.15,3.15,0,0,0,.84,2l2.67,2.57a3.15,3.15,0,0,1,.84,2v16.74a3.31,3.31,0,0,1-.81,2l-1.17,1.2a3.31,3.31,0,0,0-.81,2v9.22a3.33,3.33,0,0,1-.81,2l-2.26,2.35a3.33,3.33,0,0,0-.81,2v1.55a3.23,3.23,0,0,1-.82,2Z"/><polyline class="cls-3" points="561.56 71.55 561.56 79.87 549.45 91.98"/><line class="cls-35" x1="534.86" y1="96.81" x2="528.21" y2="90.15"/><line class="cls-38" x1="534.77" y1="70.68" x2="525.36" y2="70.68"/><line class="cls-52" x1="502.89" y1="124.32" x2="502.89" y2="114.9"/><line class="cls-53" x1="529.03" y1="47.83" x2="529.03" y2="57.24"/><line class="cls-40" x1="528.03" y1="109.24" x2="518.61" y2="109.24"/><line class="cls-54" x1="499.48" y1="92.82" x2="496.16" y2="96.15"/><polyline class="cls-3" points="515.66 64.36 504.95 75.07 504.95 79.84 500.57 79.84"/><line class="cls-55" x1="524.2" y1="122.25" x2="513.49" y2="132.96"/><path class="cls-7" d="M509.52,132.26a3.24,3.24,0,0,0,2,.82h4.19a3.24,3.24,0,0,1,2,.82l3.94,3.94a3.24,3.24,0,0,0,2,.82h7.75a3.27,3.27,0,0,0,2-.82l0.7-.69a3.2,3.2,0,0,0,.83-2V52.25a3.33,3.33,0,0,0-.81-2l-1.52-1.58a3.14,3.14,0,0,0-2-.84h-3.8a3.06,3.06,0,0,0-2,.85l-1.59,1.71a3.06,3.06,0,0,1-2,.85H519.1a3.22,3.22,0,0,0-2,.82L506,63.2a3.25,3.25,0,0,0-.82,2v3.18a3.19,3.19,0,0,1-.83,2l-3,2.94a3.19,3.19,0,0,0-.83,2v3.64a3.15,3.15,0,0,1-.84,2l-2.66,2.57a3.15,3.15,0,0,0-.84,2v16.74a3.31,3.31,0,0,0,.81,2l1.17,1.2a3.31,3.31,0,0,1,.81,2v9.22a3.33,3.33,0,0,0,.81,2l2.26,2.35a3.33,3.33,0,0,1,.81,2v1.55a3.23,3.23,0,0,0,.82,2Z"/><polyline class="cls-3" points="523.32 109.24 523.32 100.92 521.61 99.21"/><line class="cls-56" x1="521" y1="98.6" x2="519.42" y2="97.01"/><line class="cls-3" x1="518.81" y1="96.4" x2="511.21" y2="88.81"/><circle class="cls-28" cx="559.73" cy="142.03" r="1.2"/><circle class="cls-31" cx="488.96" cy="91.64" r="1.2"/><circle class="cls-31" cx="577.59" cy="72.91" r="1.2"/><circle class="cls-28" cx="499.48" cy="61.07" r="1.2"/><circle class="cls-31" cx="541.44" cy="39.25" r="1.2"/><circle class="cls-28" cx="584.06" cy="114.26" r="1.2"/><circle class="cls-28" cx="589.82" cy="89.09" r="1.2"/><circle class="cls-28" cx="474.94" cy="94.48" r="1.2"/><circle class="cls-31" cx="587.73" cy="123.7" r="1.2"/><circle class="cls-31" cx="513.49" cy="158.08" r="1.2"/><circle class="cls-28" cx="506.92" cy="138.66" r="1.2"/><path class="cls-57" d="M509.82,88.71a0.63,0.63,0,0,1-.49-0.28l-0.45-.77a0.63,0.63,0,0,1,0-.57l0.45-.77a0.63,0.63,0,0,1,.49-0.28h0.89a0.63,0.63,0,0,1,.49.28l0.45,0.77a0.63,0.63,0,0,1,0,.57l-0.45.77a0.63,0.63,0,0,1-.49.28h-0.89Z"/><path class="cls-57" d="M500.13,93a0.63,0.63,0,0,1-.49-0.28l-0.45-.77a0.63,0.63,0,0,1,0-.57l0.45-.77a0.63,0.63,0,0,1,.49-0.28H501a0.63,0.63,0,0,1,.49.28L502,91.36a0.63,0.63,0,0,1,0,.57l-0.45.77A0.63,0.63,0,0,1,501,93h-0.89Z"/><path class="cls-57" d="M502.42,114.26a0.63,0.63,0,0,1-.49-0.28l-0.44-.77a0.63,0.63,0,0,1,0-.57l0.44-.77a0.63,0.63,0,0,1,.49-0.28h0.89a0.63,0.63,0,0,1,.49.28l0.45,0.77a0.63,0.63,0,0,1,0,.57l-0.45.77a0.63,0.63,0,0,1-.49.28h-0.89Z"/><path class="cls-57" d="M516.64,110.58a0.63,0.63,0,0,1-.49-0.28l-0.45-.77a0.63,0.63,0,0,1,0-.57l0.45-.77a0.63,0.63,0,0,1,.49-0.28h0.89a0.63,0.63,0,0,1,.49.28l0.45,0.77a0.63,0.63,0,0,1,0,.57l-0.45.77a0.63,0.63,0,0,1-.49.28h-0.89Z"/><path class="cls-57" d="M529.67,110.62a0.63,0.63,0,0,1-.49-0.28l-0.44-.77a0.64,0.64,0,0,1,0-.57l0.44-.77a0.63,0.63,0,0,1,.49-0.28h0.89a0.63,0.63,0,0,1,.49.28L531.5,109a0.63,0.63,0,0,1,0,.57l-0.45.77a0.63,0.63,0,0,1-.49.28h-0.89Z"/><path class="cls-57" d="M525.28,122a0.63,0.63,0,0,1-.49-0.28l-0.45-.77a0.63,0.63,0,0,1,0-.57l0.45-.77a0.63,0.63,0,0,1,.49-0.28h0.89a0.63,0.63,0,0,1,.49.28l0.45,0.77a0.63,0.63,0,0,1,0,.57l-0.45.77a0.63,0.63,0,0,1-.49.28h-0.89Z"/><path class="cls-57" d="M526.66,90.42a0.63,0.63,0,0,1-.49-0.28l-0.45-.77a0.63,0.63,0,0,1,0-.57l0.45-.77a0.63,0.63,0,0,1,.49-0.28h0.89A0.63,0.63,0,0,1,528,88l0.45,0.77a0.63,0.63,0,0,1,0,.57l-0.45.77a0.63,0.63,0,0,1-.49.28h-0.89Z"/><path class="cls-57" d="M523.42,72a0.63,0.63,0,0,1-.49-0.28L522.48,71a0.63,0.63,0,0,1,0-.57l0.45-.77a0.63,0.63,0,0,1,.49-0.28h0.89a0.63,0.63,0,0,1,.49.28l0.45,0.77a0.63,0.63,0,0,1,0,.57l-0.45.77a0.63,0.63,0,0,1-.49.28h-0.89Z"/><path class="cls-57" d="M542.23,65a0.63,0.63,0,0,1-.49-0.28L541.3,64a0.63,0.63,0,0,1,0-.57l0.45-.77a0.63,0.63,0,0,1,.49-0.28h0.89a0.63,0.63,0,0,1,.49.28l0.45,0.77a0.63,0.63,0,0,1,0,.57l-0.45.77a0.63,0.63,0,0,1-.49.28h-0.89Z"/><path class="cls-57" d="M550.41,60.11a0.63,0.63,0,0,1-.49-0.28l-0.44-.77a0.63,0.63,0,0,1,0-.57l0.44-.77a0.63,0.63,0,0,1,.49-0.28h0.89a0.63,0.63,0,0,1,.49.28l0.45,0.77a0.63,0.63,0,0,1,0,.57l-0.45.77a0.63,0.63,0,0,1-.49.28h-0.89Z"/><path class="cls-57" d="M551.16,72.86a0.63,0.63,0,0,1-.49-0.28l-0.45-.77a0.63,0.63,0,0,1,0-.57l0.45-.77a0.63,0.63,0,0,1,.49-0.28H552a0.63,0.63,0,0,1,.49.28L553,71.24a0.63,0.63,0,0,1,0,.57l-0.45.77a0.63,0.63,0,0,1-.49.28h-0.89Z"/><path class="cls-57" d="M548.06,94.16a0.63,0.63,0,0,1-.49-0.28l-0.44-.77a0.64,0.64,0,0,1,0-.57l0.44-.77a0.63,0.63,0,0,1,.49-0.28h0.89a0.63,0.63,0,0,1,.49.28l0.45,0.77a0.63,0.63,0,0,1,0,.57l-0.45.77a0.63,0.63,0,0,1-.49.28h-0.89Z"/><path class="cls-57" d="M565.13,95.06a0.63,0.63,0,0,1-.49-0.28L564.2,94a0.63,0.63,0,0,1,0-.57l0.45-.77a0.63,0.63,0,0,1,.49-0.28H566a0.63,0.63,0,0,1,.49.28L567,93.44a0.63,0.63,0,0,1,0,.57l-0.45.77a0.63,0.63,0,0,1-.49.28h-0.89Z"/><path class="cls-57" d="M559.37,109.24a0.63,0.63,0,0,1-.49-0.28l-0.45-.77a0.63,0.63,0,0,1,0-.57l0.45-.77a0.63,0.63,0,0,1,.49-0.28h0.89a0.63,0.63,0,0,1,.49.28l0.45,0.77a0.63,0.63,0,0,1,0,.57l-0.45.77a0.63,0.63,0,0,1-.49.28h-0.89Z"/><path class="cls-57" d="M561.58,120.42a0.63,0.63,0,0,1-.49-0.28l-0.44-.77a0.63,0.63,0,0,1,0-.57l0.44-.77a0.63,0.63,0,0,1,.49-0.28h0.89a0.63,0.63,0,0,1,.49.28l0.45,0.77a0.63,0.63,0,0,1,0,.57l-0.45.77a0.63,0.63,0,0,1-.49.28h-0.89Z"/><path class="cls-57" d="M550.41,126.24a0.63,0.63,0,0,1-.49-0.28l-0.44-.77a0.63,0.63,0,0,1,0-.57l0.44-.77a0.63,0.63,0,0,1,.49-0.28h0.89a0.63,0.63,0,0,1,.49.28l0.45,0.77a0.63,0.63,0,0,1,0,.57l-0.45.77a0.63,0.63,0,0,1-.49.28h-0.89Z"/><path class="cls-57" d="M538.65,90.9a0.63,0.63,0,0,1-.49-0.28l-0.44-.77a0.64,0.64,0,0,1,0-.57l0.44-.77a0.63,0.63,0,0,1,.49-0.28h0.89a0.63,0.63,0,0,1,.49.28l0.45,0.77a0.63,0.63,0,0,1,0,.57l-0.45.77a0.63,0.63,0,0,1-.49.28h-0.89Z"/><path class="cls-57" d="M545,106.58a0.63,0.63,0,0,1-.49-0.28l-0.45-.77a0.63,0.63,0,0,1,0-.57l0.45-.77a0.63,0.63,0,0,1,.49-0.28h0.89a0.63,0.63,0,0,1,.49.28l0.45,0.77a0.63,0.63,0,0,1,0,.57l-0.45.77a0.63,0.63,0,0,1-.49.28H545Z"/><path class="cls-57" d="M516.62,64.36a0.63,0.63,0,0,1-.49-0.28l-0.45-.77a0.63,0.63,0,0,1,0-.57l0.45-.77a0.63,0.63,0,0,1,.49-0.28h0.89A0.63,0.63,0,0,1,518,62l0.45,0.77a0.63,0.63,0,0,1,0,.57l-0.45.77a0.63,0.63,0,0,1-.49.28h-0.89Z"/><path class="cls-57" d="M528.61,60.13a0.63,0.63,0,0,1-.49-0.28l-0.45-.77a0.63,0.63,0,0,1,0-.57l0.45-.77a0.63,0.63,0,0,1,.49-0.28h0.89a0.63,0.63,0,0,1,.49.28l0.45,0.77a0.63,0.63,0,0,1,0,.57l-0.45.77a0.63,0.63,0,0,1-.49.28h-0.89Z"/></g><path class="cls-58" d="M560.2,132.26a3.24,3.24,0,0,1-2,.82H554a3.24,3.24,0,0,0-2,.82l-3.94,3.94a3.24,3.24,0,0,1-2,.82h-7.75a3.27,3.27,0,0,1-2-.82l-0.7-.69a3.2,3.2,0,0,1-.83-2V52.25a3.33,3.33,0,0,1,.81-2l1.52-1.58a3.14,3.14,0,0,1,2-.84H543a3.07,3.07,0,0,1,2,.85l1.59,1.71a3.07,3.07,0,0,0,2,.85h2.17a3.22,3.22,0,0,1,2,.82L563.68,63.2a3.25,3.25,0,0,1,.82,2v3.18a3.19,3.19,0,0,0,.83,2l3,2.94a3.19,3.19,0,0,1,.83,2v3.64a2.6,2.6,0,0,1-.93,1.85l-3.79,2.8a2.61,2.61,0,0,0-.93,1.85v16.74a1.85,1.85,0,0,0,1.08,1.59l5,2a1.85,1.85,0,0,1,1.08,1.59v9.22a3.33,3.33,0,0,1-.81,2l-2.26,2.35a3.33,3.33,0,0,0-.81,2v1.55a3.23,3.23,0,0,1-.82,2Z"/><path class="cls-59" d="M509.52,132.26a3.24,3.24,0,0,0,2,.82h4.19a3.24,3.24,0,0,1,2,.82l3.94,3.94a3.24,3.24,0,0,0,2,.82h7.75a3.27,3.27,0,0,0,2-.82l0.7-.69a3.2,3.2,0,0,0,.83-2V52.25a3.33,3.33,0,0,0-.81-2l-1.52-1.58a3.14,3.14,0,0,0-2-.84h-3.8a3.06,3.06,0,0,0-2,.85l-1.59,1.71a3.06,3.06,0,0,1-2,.85H519.1a3.22,3.22,0,0,0-2,.82L506,63.2a3.25,3.25,0,0,0-.82,2v3.18a3.19,3.19,0,0,1-.83,2l-3,2.94a3.19,3.19,0,0,0-.83,2v3.64a2.6,2.6,0,0,0,.93,1.85l3.79,2.8a2.6,2.6,0,0,1,.93,1.85v16.74a1.85,1.85,0,0,1-1.08,1.59l-5.05,2a1.85,1.85,0,0,0-1.08,1.59v9.22a3.33,3.33,0,0,0,.81,2l2.26,2.35a3.33,3.33,0,0,1,.81,2v1.55a3.23,3.23,0,0,0,.82,2Z"/></svg>