<svg xmlns="http://www.w3.org/2000/svg" viewBox="0 0 516.94 432.78"><defs><style>.cls-1{fill:#9e62dd;}.cls-10,.cls-11,.cls-12,.cls-13,.cls-2,.cls-3,.cls-4,.cls-5,.cls-6,.cls-7,.cls-8,.cls-9{fill:none;stroke-linejoin:round;}.cls-10,.cls-2,.cls-3,.cls-4,.cls-5,.cls-6,.cls-9{stroke:#28d1b1;}.cls-11,.cls-12,.cls-13,.cls-2,.cls-3,.cls-4,.cls-5,.cls-6,.cls-7,.cls-8,.cls-9{stroke-linecap:round;}.cls-11,.cls-13,.cls-2,.cls-3,.cls-4,.cls-5,.cls-6,.cls-7,.cls-8{stroke-width:1.5px;}.cls-3{stroke-dasharray:0 10.71 10.71 53.56;}.cls-4{stroke-dasharray:53.56 32.14 0 10.71 10.71 53.56;}.cls-5{stroke-dasharray:0 10.86 10.86 54.31;}.cls-6{stroke-dasharray:54.31 32.59 0 10.86 10.86 54.31;}.cls-7{stroke:#9e62dd;}.cls-8{stroke:#5e4098;}.cls-10,.cls-12,.cls-9{stroke-width:2.5px;}.cls-11,.cls-12{stroke:#6738b8;}.cls-13{stroke:#9c63db;}</style></defs><title>insights-data_quality_2</title><g id="Layer_2" data-name="Layer 2"><g id="insights-data_quality_2"><rect class="cls-1" x="245.2" y="150.3" width="15.59" height="81.39" rx="6.01"/><rect class="cls-1" x="244.17" y="244.15" width="17.64" height="17.64" rx="6.8"/><path class="cls-2" d="M70.18,317.68Q74,324,78.34,330.12q2.94,4.15,6,8.12"/><path class="cls-3" d="M106,362q3.24,3,6.57,5.91a207.74,207.74,0,0,0,32.07,22.72"/><path class="cls-4" d="M168.68,402.4a209,209,0,0,0,257.77-83"/><path class="cls-2" d="M439,295.81q2.12-4.68,4-9.44,2.7-6.87,4.92-13.9"/><path class="cls-2" d="M428.86,103.8Q424.44,96.27,419.3,89c-1.43-2-2.88-4-4.37-6"/><path class="cls-5" d="M393.27,58.74a207.1,207.1,0,0,0-38.92-29.4"/><path class="cls-6" d="M330.08,17.2a209,209,0,0,0-260.42,85"/><path class="cls-2" d="M57.28,126.36q-2.14,5-4,10c-1.65,4.43-3.16,8.91-4.5,13.44"/><path class="cls-7" d="M269.81,99.67a3.49,3.49,0,0,0,0-3.15L263.1,84.9a3.49,3.49,0,0,0-2.73-1.58H247a3.49,3.49,0,0,0-2.73,1.58l-6.71,11.62a3.49,3.49,0,0,0,0,3.15"/><path class="cls-7" d="M266.34,105.67l3.47-6a3.49,3.49,0,0,0,0-3.15L263.1,84.9a3.49,3.49,0,0,0-2.73-1.58H247a3.49,3.49,0,0,0-2.73,1.58l-6.71,11.62a3.49,3.49,0,0,0,0,3.15l3.47,6"/><path class="cls-7" d="M226.84,299.9a8.42,8.42,0,0,0,.46,6.46L243.25,334a8.32,8.32,0,0,0,6.49,3.75h31.89a8.32,8.32,0,0,0,6.49-3.75l15.94-27.61a8.3,8.3,0,0,0,0-7.49l-5.23-9.06"/><path class="cls-8" d="M356.22,272.43a3.49,3.49,0,0,0-2.73,1.58l-6.71,11.62a3.49,3.49,0,0,0,0,3.15l6.71,11.61a3.49,3.49,0,0,0,2.73,1.58h13.41a3.49,3.49,0,0,0,2.73-1.58l6.71-11.61a3.49,3.49,0,0,0,0-3.15L372.36,274a3.49,3.49,0,0,0-2.73-1.58Z"/><path class="cls-8" d="M356.22,272.43a3.49,3.49,0,0,0-2.73,1.58l-6.71,11.62a3.49,3.49,0,0,0,0,3.15l6.71,11.61a3.49,3.49,0,0,0,2.73,1.58h13.41a3.49,3.49,0,0,0,2.73-1.58l6.71-11.61a3.49,3.49,0,0,0,0-3.15L372.36,274a3.49,3.49,0,0,0-2.73-1.58Z"/><path class="cls-9" d="M480.78,226.81a2.57,2.57,0,0,1,2.34,1.4l5.63,9.85a3,3,0,0,1,0,2.81l-5.63,9.84a2.58,2.58,0,0,1-2.34,1.41H469.06a2.58,2.58,0,0,1-2.35-1.41l-5.62-9.84a3,3,0,0,1,0-2.81l5.62-9.85a2.58,2.58,0,0,1,2.35-1.4Z"/><path class="cls-9" d="M54.6,173.74a2.57,2.57,0,0,1,2.34,1.41L62.57,185a3,3,0,0,1,0,2.81l-5.63,9.84a2.57,2.57,0,0,1-2.34,1.41H42.88a2.58,2.58,0,0,1-2.35-1.41l-5.62-9.84a3,3,0,0,1,0-2.81l5.62-9.85a2.58,2.58,0,0,1,2.35-1.41Z"/><path class="cls-10" d="M209.61,325.19a2.59,2.59,0,0,1,2.34,1.4l5.63,9.85a3,3,0,0,1,0,2.81L212,349.1a2.57,2.57,0,0,1-2.34,1.4H197.89a2.58,2.58,0,0,1-2.35-1.4l-5.62-9.85a3,3,0,0,1,0-2.81l5.62-9.85a2.59,2.59,0,0,1,2.35-1.4Z"/><path class="cls-2" d="M213.14,39.76a1.49,1.49,0,0,1,1.35.82l3.26,5.69a1.74,1.74,0,0,1,0,1.63l-3.26,5.7a1.48,1.48,0,0,1-1.35.81h-6.78A1.49,1.49,0,0,1,205,53.6l-3.25-5.7a1.69,1.69,0,0,1,0-1.63L205,40.58a1.5,1.5,0,0,1,1.36-.82Z"/><path class="cls-8" d="M322.48,324.57a1.48,1.48,0,0,1,1.35.81l3.26,5.7a1.74,1.74,0,0,1,0,1.63l-3.26,5.69a1.49,1.49,0,0,1-1.35.82H315.7a1.5,1.5,0,0,1-1.36-.82l-3.26-5.69a1.74,1.74,0,0,1,0-1.63l3.26-5.7a1.49,1.49,0,0,1,1.36-.81Z"/><path class="cls-2" d="M119.87,285.53a1.48,1.48,0,0,1,1.35.82l3.26,5.69a1.74,1.74,0,0,1,0,1.63l-3.26,5.7a1.48,1.48,0,0,1-1.35.81h-6.78a1.49,1.49,0,0,1-1.36-.81l-3.25-5.7a1.69,1.69,0,0,1,0-1.63l3.25-5.69a1.48,1.48,0,0,1,1.36-.82Z"/><path class="cls-2" d="M464.13,94.37a1.48,1.48,0,0,1,1.35.81l3.26,5.7a1.72,1.72,0,0,1,0,1.62l-3.26,5.7a1.48,1.48,0,0,1-1.35.81h-6.78a1.49,1.49,0,0,1-1.36-.81l-3.26-5.7a1.72,1.72,0,0,1,0-1.62l3.26-5.7a1.49,1.49,0,0,1,1.36-.81Z"/><path class="cls-9" d="M406.66,298.86a1.49,1.49,0,0,1,1.35.82l3.26,5.69a1.74,1.74,0,0,1,0,1.63L408,312.7a1.48,1.48,0,0,1-1.35.81h-6.79a1.48,1.48,0,0,1-1.35-.81l-3.26-5.7a1.74,1.74,0,0,1,0-1.63l3.26-5.69a1.49,1.49,0,0,1,1.35-.82Z"/><path class="cls-11" d="M308,384.33a6.08,6.08,0,0,1,4.57,2.54l10.65,18.78a4.58,4.58,0,0,1,0,5.07l-10.65,18.77A5.33,5.33,0,0,1,308,432H286.68a6.05,6.05,0,0,1-4.57-2.54l-10.65-18.77a4.58,4.58,0,0,1,0-5.07l10.65-18.78a5.35,5.35,0,0,1,4.57-2.54Z"/><path class="cls-12" d="M114.78,186.4a5.57,5.57,0,0,1,4.22,2.35l9.85,17.34a4.25,4.25,0,0,1,0,4.69L119,228.13a4.92,4.92,0,0,1-4.22,2.34H95.09a5.59,5.59,0,0,1-4.21-2.34L81,210.78a4.25,4.25,0,0,1,0-4.69l9.85-17.34a4.9,4.9,0,0,1,4.21-2.35Z"/><path class="cls-13" d="M324.77,49.67A6.09,6.09,0,0,0,320,52.43L308.25,72.77a6.16,6.16,0,0,0,0,5.52L320,98.62a6.09,6.09,0,0,0,4.77,2.76h23.49A6.13,6.13,0,0,0,353,98.62l11.74-20.33a6.1,6.1,0,0,0,0-5.52L353,52.43a6.13,6.13,0,0,0-4.78-2.76Z"/><path class="cls-13" d="M324.77,49.67A6.09,6.09,0,0,0,320,52.43L308.25,72.77a6.16,6.16,0,0,0,0,5.52L320,98.62a6.09,6.09,0,0,0,4.77,2.76h23.49A6.13,6.13,0,0,0,353,98.62l11.74-20.33a6.1,6.1,0,0,0,0-5.52L353,52.43a6.13,6.13,0,0,0-4.78-2.76Z"/><path class="cls-7" d="M24.39,217.4a8.44,8.44,0,0,0-6.58,3.8l-16.16,28a8.45,8.45,0,0,0,0,7.59l16.16,28a8.45,8.45,0,0,0,6.58,3.79h32.3a8.45,8.45,0,0,0,6.58-3.79l16.15-28a8.39,8.39,0,0,0,0-7.59l-16.15-28a8.44,8.44,0,0,0-6.58-3.8Z"/><path class="cls-7" d="M24.39,217.4a8.44,8.44,0,0,0-6.58,3.8l-16.16,28a8.45,8.45,0,0,0,0,7.59l16.16,28a8.45,8.45,0,0,0,6.58,3.79h32.3a8.45,8.45,0,0,0,6.58-3.79l16.15-28a8.39,8.39,0,0,0,0-7.59l-16.15-28a8.44,8.44,0,0,0-6.58-3.8Z"/><path class="cls-11" d="M460.25,132.64a8.43,8.43,0,0,0-6.58,3.79l-16.15,28a8.39,8.39,0,0,0,0,7.59l16.15,28a8.43,8.43,0,0,0,6.58,3.79h32.3a8.41,8.41,0,0,0,6.58-3.79l16.16-28a8.45,8.45,0,0,0,0-7.59l-16.16-28a8.41,8.41,0,0,0-6.58-3.79Z"/><path class="cls-11" d="M460.25,132.64a8.43,8.43,0,0,0-6.58,3.79l-16.15,28a8.39,8.39,0,0,0,0,7.59l16.15,28a8.43,8.43,0,0,0,6.58,3.79h32.3a8.41,8.41,0,0,0,6.58-3.79l16.16-28a8.45,8.45,0,0,0,0-7.59l-16.16-28a8.41,8.41,0,0,0-6.58-3.79Z"/><path class="cls-7" d="M160,173.24H126.47a12,12,0,0,1-9.38-5.4L94.06,128a12,12,0,0,1,0-10.82l23-39.9a12,12,0,0,1,9.38-5.41h46.06a12,12,0,0,1,9.37,5.41l23,39.9a11.18,11.18,0,0,1,1.28,5.41l-.16,3.82"/><path class="cls-7" d="M348.05,164.31v77.14h45.5a12,12,0,0,0,9.37-5.41l23-39.88a12,12,0,0,0,0-10.82l-23-39.9a12,12,0,0,0-9.37-5.41H347.49a12,12,0,0,0-9.37,5.41l-.69,1.18.61.35C343.55,150.15,348.05,158,348.05,164.31Z"/><path class="cls-12" d="M338,147c5.51,3.18,10,11,10,17.34v85.23c0,6.36-4.5,14.17-10,17.34l-73.83,42.63c-5.5,3.18-14.51,3.18-20,0l-73.8-42.63c-5.5-3.17-10-11-10-17.34V164.31c0-6.35,4.51-14.16,10-17.34l73.8-42.62c5.51-3.19,14.52-3.19,20,0Z"/></g></g></svg>