<svg xmlns="http://www.w3.org/2000/svg" viewBox="0 0 512.38 315.54"><defs><style>.cls-1,.cls-2,.cls-3,.cls-4{fill:none;stroke-linecap:round;stroke-linejoin:round;}.cls-1{stroke:#6738b8;}.cls-1,.cls-3{stroke-width:2.5px;}.cls-2{stroke:#9e62dd;}.cls-2,.cls-4{stroke-width:1.5px;}.cls-3,.cls-4{stroke:#28d1b1;}.cls-4{stroke-dasharray:66.68 22.23 0 11.11 11.11 33.34;}.cls-5{fill:#28d1b1;}</style></defs><title>insights-data_quality_3</title><g id="Layer_2" data-name="Layer 2"><g id="insights-data_quality_3"><path class="cls-1" d="M274.14,5.47A122.75,122.75,0,1,1,123.79,92.24,122.73,122.73,0,0,1,274.14,5.47Z"/><polyline class="cls-1" points="333.11 206.47 429.36 302.72 417.79 314.29 321.54 218.04"/><path class="cls-2" d="M.75,210.24H39.5a21.05,21.05,0,0,0,18.23-10.52L96.48,132.6a21.07,21.07,0,0,0,0-21.06L57.73,44.43A21,21,0,0,0,39.5,33.9H.75"/><line class="cls-2" x1="0.75" y1="122.07" x2="183.79" y2="122.07"/><polyline class="cls-3" points="18.14 26.13 25.91 33.9 18.14 41.67"/><polyline class="cls-3" points="18.14 202.47 25.91 210.24 18.14 218.02"/><polyline class="cls-3" points="41.76 114.3 49.53 122.07 41.76 129.84"/><path class="cls-2" d="M440.35,66.48h-14.6a13.28,13.28,0,0,0-11.5,6.64"/><path class="cls-2" d="M327.9,122.07h50.42a13.27,13.27,0,0,0,11.5-6.64l24.43-42.31"/><path class="cls-2" d="M414.25,171l-24.43-42.32a13.27,13.27,0,0,0-11.5-6.64H299.77"/><line class="cls-2" x1="511.63" y1="66.48" x2="493.36" y2="66.48"/><path class="cls-2" d="M414.25,171a13.29,13.29,0,0,0,11.5,6.63h14.6"/><path class="cls-3" d="M461.44,91a16,16,0,0,1-12.5-7.22L443.1,73.7a16,16,0,0,1,0-14.44l5.84-10.1a16,16,0,0,1,12.5-7.22H473.1a16,16,0,0,1,12.51,7.22l5.83,10.1a16,16,0,0,1,0,14.44l-5.83,10.1A16,16,0,0,1,473.1,91Z"/><line class="cls-2" x1="511.63" y1="177.66" x2="493.36" y2="177.66"/><path class="cls-3" d="M461.44,202.2a16,16,0,0,1-12.5-7.21l-5.84-10.11a16,16,0,0,1,0-14.44l5.84-10.1a16,16,0,0,1,12.5-7.21H473.1a16,16,0,0,1,12.51,7.21l5.83,10.1a16,16,0,0,1,0,14.44L485.61,195a16,16,0,0,1-12.51,7.22Z"/><path class="cls-2" d="M200.78,81.48a58,58,0,1,1,0,82A58,58,0,0,1,200.78,81.48Z"/><path class="cls-4" d="M154.82,124a87.55,87.55,0,1,1,87.54,87.55A87.55,87.55,0,0,1,154.82,124Z"/><path class="cls-3" d="M197,122.48s21.25-24.89,44.81-24.89,44.81,24.89,44.81,24.89-19.25,24.89-44.81,24.89S197,122.48,197,122.48Z"/><path class="cls-3" d="M224.18,104.88a24.89,24.89,0,1,1,0,35.2A24.89,24.89,0,0,1,224.18,104.88Z"/><path class="cls-5" d="M241.78,115c-.26,0-.51,0-.76,0a4.76,4.76,0,0,1,.76,2.58,4.85,4.85,0,0,1-4.85,4.85,4.76,4.76,0,0,1-2.58-.76c0,.25,0,.5,0,.76a7.47,7.47,0,1,0,7.47-7.47Z"/></g></g></svg>