<svg xmlns="http://www.w3.org/2000/svg" viewBox="0 0 445.14 436.06"><defs><style>.cls-1,.cls-10,.cls-2,.cls-3,.cls-4,.cls-5,.cls-6,.cls-7,.cls-8,.cls-9{fill:none;stroke-linecap:round;stroke-linejoin:round;}.cls-1,.cls-4{stroke:#6738b8;}.cls-1,.cls-3,.cls-5,.cls-6,.cls-7,.cls-8,.cls-9{stroke-width:1.5px;}.cls-1{stroke-dasharray:66.68 22.23 0 11.11 11.11 33.34;}.cls-2{stroke:#28cfaf;}.cls-10,.cls-2,.cls-4{stroke-width:2.5px;}.cls-3,.cls-5,.cls-6,.cls-7,.cls-8,.cls-9{stroke:#9c63db;}.cls-5{stroke-dasharray:0 13.62 5.84 9.73;}.cls-6{stroke-dasharray:0 8.67 8.92 8.92;}.cls-7{stroke-dasharray:0 7.37 3.16 5.26;}.cls-8{stroke-dasharray:0 7.79 3.34 5.57;}.cls-9{stroke-dasharray:0 7.38 3.16 5.27;}.cls-10{stroke:#28d1b1;}.cls-11{fill:#28d1b1;}</style></defs><title>insights-real_time_1</title><g id="Layer_2" data-name="Layer 2"><g id="insights-real_time_1"><path class="cls-1" d="M156.27,66.55a163.39,163.39,0,0,1,122,0"/><path class="cls-1" d="M71.55,290.46a163.24,163.24,0,0,1,0-145.59"/><path class="cls-1" d="M278.26,368.7a163.52,163.52,0,0,1-121.73.1"/><path class="cls-1" d="M363,144.85a163.22,163.22,0,0,1,0,145.52"/><g id="_Group_2" data-name=" Group 2"><path id="_Path_3" data-name=" Path 3" class="cls-2" d="M370.62,144.86a14.68,14.68,0,0,0,11.62-6.77l28.68-49.48a15,15,0,0,0,0-13.43L382.34,25.69a15,15,0,0,0-11.72-6.76H313.46a14.65,14.65,0,0,0-11.61,6.76L273.27,75.18a15,15,0,0,0,0,13.43l28.58,49.48a14.71,14.71,0,0,0,11.61,6.67Z"/><path id="_Path_4" data-name=" Path 4" class="cls-2" d="M370.62,144.86a14.68,14.68,0,0,0,11.62-6.77l28.68-49.48a15,15,0,0,0,0-13.43L382.34,25.69a15,15,0,0,0-11.72-6.76H313.46a14.65,14.65,0,0,0-11.61,6.76L273.27,75.18a15,15,0,0,0,0,13.43l28.58,49.48a14.71,14.71,0,0,0,11.61,6.67Z"/></g><g id="_Group_3" data-name=" Group 3"><path id="_Path_5" data-name=" Path 5" class="cls-2" d="M121.08,144.86a14.84,14.84,0,0,0,11.61-6.66l28.58-49.59a15,15,0,0,0,0-13.43L132.69,25.69a15.1,15.1,0,0,0-11.61-6.76H63.82A14.67,14.67,0,0,0,52.2,25.69L23.62,75.18a15,15,0,0,0,0,13.43L52.2,138.2a14.74,14.74,0,0,0,11.62,6.66Z"/><path id="_Path_6" data-name=" Path 6" class="cls-2" d="M121.08,144.86a14.84,14.84,0,0,0,11.61-6.66l28.58-49.59a15,15,0,0,0,0-13.43L132.69,25.69a15.1,15.1,0,0,0-11.61-6.76H63.82A14.67,14.67,0,0,0,52.2,25.69L23.62,75.18a15,15,0,0,0,0,13.43L52.2,138.2a14.74,14.74,0,0,0,11.62,6.66Z"/></g><g id="_Group_4" data-name=" Group 4"><path id="_Path_7" data-name=" Path 7" class="cls-2" d="M121.08,416.32a14.82,14.82,0,0,0,11.61-6.67l28.58-49.58a15,15,0,0,0,0-13.43l-28.58-49.49a14.85,14.85,0,0,0-11.61-6.66H63.82a14.83,14.83,0,0,0-11.62,6.66L23.62,346.64a15,15,0,0,0,0,13.43L52.2,409.65a14.73,14.73,0,0,0,11.62,6.67Z"/><path id="_Path_8" data-name=" Path 8" class="cls-2" d="M121.08,416.32a14.82,14.82,0,0,0,11.61-6.67l28.58-49.58a15,15,0,0,0,0-13.43l-28.58-49.49a14.85,14.85,0,0,0-11.61-6.66H63.82a14.83,14.83,0,0,0-11.62,6.66L23.62,346.64a15,15,0,0,0,0,13.43L52.2,409.65a14.73,14.73,0,0,0,11.62,6.67Z"/></g><g id="_Group_5" data-name=" Group 5"><path id="_Path_9" data-name=" Path 9" class="cls-2" d="M370.72,416.32a14.84,14.84,0,0,0,11.62-6.67l28.58-49.58a15,15,0,0,0,0-13.43l-28.58-49.59a14.87,14.87,0,0,0-11.62-6.66H313.56A14.81,14.81,0,0,0,302,297.05l-28.68,49.59a15,15,0,0,0,0,13.43l28.58,49.58a14.71,14.71,0,0,0,11.61,6.67Z"/><path id="_Path_10" data-name=" Path 10" class="cls-2" d="M370.72,416.32a14.84,14.84,0,0,0,11.62-6.67l28.58-49.58a15,15,0,0,0,0-13.43l-28.58-49.59a14.87,14.87,0,0,0-11.62-6.66H313.56A14.81,14.81,0,0,0,302,297.05l-28.68,49.59a15,15,0,0,0,0,13.43l28.58,49.58a14.71,14.71,0,0,0,11.61,6.67Z"/></g><path class="cls-3" d="M414.55,309.37a4.59,4.59,0,0,1-3.53-2l-8.59-14.94a4.76,4.76,0,0,1,0-4L411,273.42a4.44,4.44,0,0,1,3.53-2h17.27a4.63,4.63,0,0,1,3.54,2l8.58,14.95a4.69,4.69,0,0,1,0,4l-8.58,14.94a4.47,4.47,0,0,1-3.54,2Z"/><path class="cls-3" d="M414.55,309.37a4.59,4.59,0,0,1-3.53-2l-8.59-14.94a4.76,4.76,0,0,1,0-4L411,273.42a4.44,4.44,0,0,1,3.53-2h17.27a4.63,4.63,0,0,1,3.54,2l8.58,14.95a4.69,4.69,0,0,1,0,4l-8.58,14.94a4.47,4.47,0,0,1-3.54,2Z"/><path class="cls-3" d="M369.21,435.31a4.63,4.63,0,0,1-3.54-2l-8.58-15a4.69,4.69,0,0,1,0-4l8.58-14.95a4.47,4.47,0,0,1,3.54-2h17.27a4.61,4.61,0,0,1,3.53,2l8.59,14.95a4.76,4.76,0,0,1,0,4l-8.59,15a4.44,4.44,0,0,1-3.53,2Z"/><path class="cls-3" d="M369.21,435.31a4.63,4.63,0,0,1-3.54-2l-8.58-15a4.69,4.69,0,0,1,0-4l8.58-14.95a4.47,4.47,0,0,1,3.54-2h17.27a4.61,4.61,0,0,1,3.53,2l8.59,14.95a4.76,4.76,0,0,1,0,4l-8.59,15a4.44,4.44,0,0,1-3.53,2Z"/><path class="cls-3" d="M13.32,372.39a4.61,4.61,0,0,1-3.53-2L1.2,355.42a4.76,4.76,0,0,1,0-4l8.59-14.94a4.44,4.44,0,0,1,3.53-2H30.59a4.61,4.61,0,0,1,3.54,2l8.58,14.94a4.69,4.69,0,0,1,0,4l-8.58,14.95a4.45,4.45,0,0,1-3.54,2Z"/><path class="cls-3" d="M13.32,372.39a4.61,4.61,0,0,1-3.53-2L1.2,355.42a4.76,4.76,0,0,1,0-4l8.59-14.94a4.44,4.44,0,0,1,3.53-2H30.59a4.61,4.61,0,0,1,3.54,2l8.58,14.94a4.69,4.69,0,0,1,0,4l-8.58,14.95a4.45,4.45,0,0,1-3.54,2Z"/><path class="cls-3" d="M31.6,69.83a4.59,4.59,0,0,1-3.53-2l-8.59-15a4.76,4.76,0,0,1,0-4l8.59-15a4.44,4.44,0,0,1,3.53-2H48.87a4.63,4.63,0,0,1,3.54,2l8.58,15a4.69,4.69,0,0,1,0,4l-8.69,15a4.44,4.44,0,0,1-3.53,2Z"/><path class="cls-3" d="M31.6,69.83a4.59,4.59,0,0,1-3.53-2l-8.59-15a4.76,4.76,0,0,1,0-4l8.59-15a4.44,4.44,0,0,1,3.53-2H48.87a4.63,4.63,0,0,1,3.54,2l8.58,15a4.69,4.69,0,0,1,0,4l-8.69,15a4.44,4.44,0,0,1-3.53,2Z"/><path class="cls-3" d="M256.1,163.85a4.59,4.59,0,0,1-3.53-2l-8.59-15a4.76,4.76,0,0,1,0-4l8.59-14.94a4.41,4.41,0,0,1,3.53-2h17.27a4.56,4.56,0,0,1,3.53,2l8.59,14.94a4.76,4.76,0,0,1,0,4l-8.59,15a4.44,4.44,0,0,1-3.53,2Z"/><path class="cls-3" d="M256.1,163.85a4.59,4.59,0,0,1-3.53-2l-8.59-15a4.76,4.76,0,0,1,0-4l8.59-14.94a4.41,4.41,0,0,1,3.53-2h17.27a4.56,4.56,0,0,1,3.53,2l8.59,14.94a4.76,4.76,0,0,1,0,4l-8.59,15a4.44,4.44,0,0,1-3.53,2Z"/><path class="cls-3" d="M135.72,338.25a7.46,7.46,0,0,1-5.75-3.33l-14.14-24.44a7.7,7.7,0,0,1,0-6.66L130,279.38a7.3,7.3,0,0,1,5.75-3.33H163.9a7.46,7.46,0,0,1,5.75,3.33l14.14,24.44a7.7,7.7,0,0,1,0,6.66l-14.14,24.44a7.3,7.3,0,0,1-5.75,3.33Z"/><path class="cls-3" d="M135.72,338.25a7.46,7.46,0,0,1-5.75-3.33l-14.14-24.44a7.7,7.7,0,0,1,0-6.66L130,279.38a7.3,7.3,0,0,1,5.75-3.33H163.9a7.46,7.46,0,0,1,5.75,3.33l14.14,24.44a7.7,7.7,0,0,1,0,6.66l-14.14,24.44a7.3,7.3,0,0,1-5.75,3.33Z"/><path class="cls-3" d="M385,63a7.49,7.49,0,0,1-5.75-3.33L365.07,35.19a7.72,7.72,0,0,1,0-6.67L379.21,4.08A7.3,7.3,0,0,1,385,.75h28.18a7.46,7.46,0,0,1,5.75,3.33L433,28.52a7.72,7.72,0,0,1,0,6.67L418.89,59.63A7.33,7.33,0,0,1,413.14,63Z"/><path class="cls-3" d="M385,63a7.49,7.49,0,0,1-5.75-3.33L365.07,35.19a7.72,7.72,0,0,1,0-6.67L379.21,4.08A7.3,7.3,0,0,1,385,.75h28.18a7.46,7.46,0,0,1,5.75,3.33L433,28.52a7.72,7.72,0,0,1,0,6.67L418.89,59.63A7.33,7.33,0,0,1,413.14,63Z"/><path class="cls-4" d="M163.5,217.62a53.77,53.77,0,1,1,53.77,53.78A53.77,53.77,0,0,1,163.5,217.62Z"/><g id="_Group_7" data-name=" Group 7"><line class="cls-3" x1="110.05" y1="215.25" x2="122.47" y2="215.15"/><line class="cls-5" x1="136.21" y1="215.05" x2="154.85" y2="214.95"/></g><g id="_Group_" data-name=" Group "><line class="cls-3" x1="158.74" y1="311.42" x2="161.97" y2="305.86"/><line class="cls-6" x1="166.31" y1="298.29" x2="177.42" y2="279"/><line class="cls-3" x1="179.64" y1="275.06" x2="182.77" y2="269.51"/></g><g id="_Group_2-2" data-name=" Group 2"><line class="cls-3" x1="278.64" y1="215.65" x2="291.06" y2="215.55"/><line class="cls-7" x1="298.53" y1="215.55" x2="311.86" y2="215.45"/><line class="cls-3" x1="314.49" y1="215.45" x2="326.91" y2="215.35"/></g><g id="_Group_4-2" data-name=" Group 4"><line class="cls-3" x1="245.87" y1="163.5" x2="252.99" y2="151.32"/><line class="cls-8" x1="256.82" y1="144.46" x2="263.79" y2="132.24"/><line class="cls-3" x1="265.21" y1="129.81" x2="271.27" y2="119.01"/></g><g id="_Group_15" data-name=" Group 15"><line class="cls-3" x1="160.68" y1="119.92" x2="166.94" y2="130.62"/><line class="cls-9" x1="170.68" y1="137.09" x2="177.35" y2="148.6"/><line class="cls-3" x1="178.66" y1="150.92" x2="185.63" y2="162.61"/></g><g id="_Group_15-2" data-name=" Group 15"><line class="cls-3" x1="247.84" y1="271.4" x2="254.1" y2="282.11"/><line class="cls-9" x1="257.83" y1="288.57" x2="264.5" y2="300.08"/><line class="cls-3" x1="265.81" y1="302.4" x2="272.78" y2="314.09"/></g><path class="cls-10" d="M180.24,217.62s17.56-20.57,37-20.57,37,20.57,37,20.57-15.91,20.57-37,20.57S180.24,217.62,180.24,217.62Z"/><path class="cls-10" d="M202.73,203.08a20.57,20.57,0,1,1,0,29.09A20.57,20.57,0,0,1,202.73,203.08Z"/><path class="cls-11" d="M217.27,211.45c-.21,0-.42,0-.62,0a3.93,3.93,0,0,1,.62,2.12,4,4,0,0,1-6.14,3.39c0,.2,0,.41,0,.62a6.17,6.17,0,1,0,6.17-6.17Z"/></g></g></svg>