<svg xmlns="http://www.w3.org/2000/svg" viewBox="0 0 400.33 438.4"><defs><style>.cls-1,.cls-10,.cls-11,.cls-12,.cls-13,.cls-14,.cls-2,.cls-3,.cls-4,.cls-5,.cls-6,.cls-7,.cls-8,.cls-9{fill:none;stroke-linecap:round;stroke-linejoin:round;}.cls-1,.cls-10,.cls-11,.cls-13,.cls-14,.cls-2,.cls-3,.cls-4,.cls-5,.cls-6{stroke:#28d1b1;}.cls-1,.cls-2,.cls-3,.cls-4,.cls-5,.cls-6,.cls-8,.cls-9{stroke-width:1.5px;}.cls-2{stroke-dasharray:1.61 11.24 4.82 8.03;}.cls-3{stroke-dasharray:0.62 4.35 1.86 3.1;}.cls-4{stroke-dasharray:1.47 10.29 4.41 7.35;}.cls-5{stroke-dasharray:1.88 13.17 5.64 9.4;}.cls-6{stroke-dasharray:1.66 11.65 4.99 8.32;}.cls-12,.cls-7,.cls-9{stroke:#6738b8;}.cls-12,.cls-14,.cls-7{stroke-width:2.5px;}.cls-8{stroke:#9e62dd;}.cls-10,.cls-11,.cls-13{stroke-width:1.69px;}.cls-11{stroke-dasharray:11.59 5.8 0 5.8;}.cls-12{stroke-dasharray:22.5 11.25 0 11.25;}.cls-13{stroke-dasharray:11.15 5.57 0 5.57;}</style></defs><title>insights-flexibility_3</title><g id="Layer_2" data-name="Layer 2"><g id="insights-flexibility_3"><line class="cls-1" x1="305.77" y1="309.09" x2="311.1" y2="318.65"/><line class="cls-2" x1="316.57" y1="328.48" x2="327.12" y2="347.43"/><line class="cls-1" x1="329.07" y1="350.93" x2="334.39" y2="360.49"/><line class="cls-1" x1="181.04" y1="94.42" x2="186.51" y2="103.89"/><line class="cls-3" x1="188.69" y1="107.66" x2="192.88" y2="114.91"/><line class="cls-1" x1="193.65" y1="116.26" x2="199.12" y2="125.74"/><line class="cls-1" x1="333.16" y1="77.6" x2="327.66" y2="87.05"/><line class="cls-4" x1="322.49" y1="95.95" x2="312.52" y2="113.1"/><line class="cls-1" x1="310.67" y1="116.28" x2="305.17" y2="125.74"/><line class="cls-1" x1="198.51" y1="309.09" x2="192.91" y2="318.5"/><line class="cls-5" x1="186.18" y1="329.81" x2="173.18" y2="351.62"/><line class="cls-1" x1="170.78" y1="355.66" x2="165.18" y2="365.06"/><line class="cls-1" x1="85.7" y1="217.59" x2="96.64" y2="217.59"/><line class="cls-6" x1="108.29" y1="217.59" x2="130.75" y2="217.59"/><line class="cls-1" x1="134.91" y1="217.59" x2="145.85" y2="217.59"/><path class="cls-7" d="M343.73,359.22c-5.16,0-11.49,3.65-14.07,8.12l-13.13,22.72c-2.58,4.47-2.58,11.78,0,16.25L329.66,429c2.58,4.47,8.91,8.12,14.07,8.12H370c5.16,0,11.49-3.65,14.07-8.12l13.12-22.72c2.58-4.47,2.58-11.78,0-16.25L384,367.34c-2.58-4.46-8.91-8.12-14.07-8.12Z"/><path class="cls-8" d="M29.88,178.62c-5.16,0-11.49,3.66-14.07,8.13L2.68,209.47c-2.58,4.47-2.57,11.78,0,16.25l13.12,22.72c2.58,4.46,8.91,8.12,14.07,8.12H56.11c5.16,0,11.49-3.66,14.07-8.13L83.3,225.72c2.58-4.47,2.58-11.78,0-16.25L70.18,186.75c-2.58-4.47-8.91-8.13-14.07-8.13Z"/><path class="cls-8" d="M342.23.75c-5.16,0-11.49,3.66-14.07,8.12L315,31.6c-2.58,4.47-2.58,11.78,0,16.25l13.12,22.71c2.58,4.47,8.91,8.13,14.07,8.13h26.23c5.16,0,11.49-3.66,14.07-8.13l13.12-22.71c2.58-4.47,2.58-11.78,0-16.25L382.53,8.87C380,4.41,373.62.75,368.46.75Z"/><path class="cls-9" d="M311.76,29.92a4.54,4.54,0,0,0-3.54,2l-3.3,5.72a4.57,4.57,0,0,0,0,4.08l3.3,5.71a4.52,4.52,0,0,0,3.54,2.05h6.6a4.52,4.52,0,0,0,3.53-2.05l3.3-5.71a4.51,4.51,0,0,0,0-4.08L321.89,32a4.54,4.54,0,0,0-3.53-2Z"/><path class="cls-9" d="M357,100.28a4.54,4.54,0,0,0-3.54,2l-3.3,5.71a4.53,4.53,0,0,0,0,4.09l3.3,5.71a4.54,4.54,0,0,0,3.54,2h6.59a4.54,4.54,0,0,0,3.54-2l3.3-5.71a4.53,4.53,0,0,0,0-4.09l-3.3-5.71a4.54,4.54,0,0,0-3.54-2Z"/><path class="cls-9" d="M55.31,246.76a4.54,4.54,0,0,0-3.54,2l-3.3,5.72a4.51,4.51,0,0,0,0,4.08l3.3,5.71a4.54,4.54,0,0,0,3.54,2H61.9a4.54,4.54,0,0,0,3.54-2l3.3-5.71a4.51,4.51,0,0,0,0-4.08l-3.3-5.72a4.54,4.54,0,0,0-3.54-2Z"/><path class="cls-9" d="M22.09,270.3a4.52,4.52,0,0,0-3.54,2.05l-3.3,5.71a4.51,4.51,0,0,0,0,4.08l3.3,5.72a4.54,4.54,0,0,0,3.54,2h6.59a4.54,4.54,0,0,0,3.54-2l3.3-5.72a4.51,4.51,0,0,0,0-4.08l-3.3-5.71a4.52,4.52,0,0,0-3.54-2.05Z"/><path class="cls-9" d="M186.78,398.19a4.51,4.51,0,0,0-3.53,2l-3.3,5.71a4.53,4.53,0,0,0,0,4.09l3.3,5.71a4.54,4.54,0,0,0,3.53,2h6.6a4.54,4.54,0,0,0,3.54-2l3.3-5.71a4.6,4.6,0,0,0,0-4.09l-3.3-5.71a4.51,4.51,0,0,0-3.54-2Z"/><path class="cls-8" d="M135.35,94.42a4.51,4.51,0,0,0-3.54,2l-3.3,5.71a4.53,4.53,0,0,0,0,4.09l3.3,5.71a4.54,4.54,0,0,0,3.54,2h6.59a4.54,4.54,0,0,0,3.54-2l3.3-5.71a4.53,4.53,0,0,0,0-4.09l-3.3-5.71a4.51,4.51,0,0,0-3.54-2Z"/><path class="cls-8" d="M376.89,352.82a4.54,4.54,0,0,0-3.53,2l-3.3,5.71a4.53,4.53,0,0,0,0,4.09l3.3,5.71a4.54,4.54,0,0,0,3.53,2h6.6a4.54,4.54,0,0,0,3.54-2l3.3-5.71a4.6,4.6,0,0,0,0-4.09l-3.3-5.71a4.54,4.54,0,0,0-3.54-2Z"/><path class="cls-8" d="M146.54,365.06a6,6,0,0,0-4.69,2.71l-7.76,13.44a6,6,0,0,0,0,5.41l7.76,13.44a6,6,0,0,0,4.69,2.71h15.51a6,6,0,0,0,4.69-2.71l7.77-13.44a6,6,0,0,0,0-5.41l-7.76-13.44a6,6,0,0,0-4.69-2.71Z"/><path class="cls-10" d="M260.17,199a4.42,4.42,0,0,1,3.44,2l8.46,14.65a4.41,4.41,0,0,1,0,4l-8.46,14.64a4.42,4.42,0,0,1-3.44,2H243.26a4.42,4.42,0,0,1-3.44-2l-8.46-14.64a4.41,4.41,0,0,1,0-4L239.82,201a4.42,4.42,0,0,1,3.44-2Z"/><path class="cls-10" d="M260.17,199a4.42,4.42,0,0,1,3.44,2l8.46,14.65a4.41,4.41,0,0,1,0,4l-8.46,14.64a4.42,4.42,0,0,1-3.44,2H243.26a4.42,4.42,0,0,1-3.44-2l-8.46-14.64a4.41,4.41,0,0,1,0-4L239.82,201a4.42,4.42,0,0,1,3.44-2Z"/><path class="cls-11" d="M268.8,180a8.91,8.91,0,0,1,6.95,4l17.09,29.6a8.88,8.88,0,0,1,0,8L275.75,251.2a8.88,8.88,0,0,1-6.95,4H234.63a8.88,8.88,0,0,1-6.95-4l-17.09-29.59a8.88,8.88,0,0,1,0-8L227.68,184a8.91,8.91,0,0,1,6.95-4Z"/><path class="cls-12" d="M277.43,161a13.4,13.4,0,0,1,10.47,6l25.72,44.55a13.39,13.39,0,0,1,0,12.08L287.9,268.18a13.42,13.42,0,0,1-10.47,6H226a13.42,13.42,0,0,1-10.47-6l-25.72-44.54a13.39,13.39,0,0,1,0-12.08L215.53,167A13.4,13.4,0,0,1,226,161Z"/><path class="cls-7" d="M277.43,161a13.4,13.4,0,0,1,10.47,6l25.72,44.55a13.39,13.39,0,0,1,0,12.08L287.9,268.18a13.42,13.42,0,0,1-10.47,6H226a13.42,13.42,0,0,1-10.47-6l-25.72-44.54a13.39,13.39,0,0,1,0-12.08L215.53,167A13.4,13.4,0,0,1,226,161Z"/><path class="cls-13" d="M286.06,142c5.12,0,11.41,3.63,14,8.07l34.35,59.5c2.57,4.44,2.57,11.7,0,16.14L300,285.15c-2.56,4.44-8.86,8.07-14,8.07H217.37c-5.13,0-11.42-3.63-14-8.07L169,225.67c-2.57-4.44-2.57-11.7,0-16.14L203.39,150c2.56-4.44,8.85-8.07,14-8.07Z"/><path class="cls-14" d="M294.69,123c6.41,0,14.28,4.54,17.49,10.09l43,74.46c3.21,5.55,3.21,14.64,0,20.2l-43,74.42c-3.2,5.55-11.08,10.09-17.49,10.09H208.74c-6.42,0-14.29-4.54-17.49-10.09l-43-74.42c-3.21-5.56-3.21-14.65,0-20.2l43-74.46c3.2-5.55,11.07-10.09,17.49-10.09Z"/><path class="cls-7" d="M157.84,60.48l-7,12.18a6.32,6.32,0,0,0,0,6.35l7,12.18a6.35,6.35,0,0,0,5.5,3.18h14.07a6.37,6.37,0,0,0,5.51-3.18L190,79a6.37,6.37,0,0,0,0-6.35l-7-12.18a6.37,6.37,0,0,0-5.51-3.18H163.34A6.35,6.35,0,0,0,157.84,60.48Z"/></g></g></svg>