<svg xmlns="http://www.w3.org/2000/svg" viewBox="0 0 518.77 354.66"><defs><style>.cls-1,.cls-2,.cls-3,.cls-4,.cls-5{fill:none;stroke-linecap:round;stroke-linejoin:round;}.cls-1{stroke:#6738b8;}.cls-1,.cls-3,.cls-4,.cls-5{stroke-width:1.5px;}.cls-2{stroke:#28d1b1;stroke-width:2.5px;}.cls-3{stroke:#9e62dd;}.cls-4,.cls-5{stroke:#28cfaf;}.cls-4{stroke-dasharray:8.61 5.16 0 6.89 6.89 24.1;}</style></defs><title>insights-ownership_1</title><g id="Layer_2" data-name="Layer 2"><g id="insights-ownership_1"><path class="cls-1" d="M130.32,290.33H115.93A62.18,62.18,0,1,1,116.17,166H123a4.7,4.7,0,0,0,4.7-5.07c-.13-1.72-.19-3.44-.19-5.18A70.43,70.43,0,0,1,216.94,88,4.68,4.68,0,0,0,222.68,85,88.19,88.19,0,0,1,363.42,46m105.84,90.07a88.35,88.35,0,0,1-58.81,154.27H266.94"/><path class="cls-2" d="M229.67,340.3A16.19,16.19,0,0,0,242.3,333l31-53.78a16.14,16.14,0,0,0,0-14.58l-31-53.75a16.19,16.19,0,0,0-12.63-7.29H167.59A16.17,16.17,0,0,0,155,210.9l-31.05,53.75a16.14,16.14,0,0,0,0,14.58L155,333a16.17,16.17,0,0,0,12.63,7.29Z"/><path class="cls-2" d="M229.67,340.3A16.19,16.19,0,0,0,242.3,333l31-53.78a16.14,16.14,0,0,0,0-14.58l-31-53.75a16.19,16.19,0,0,0-12.63-7.29H167.59A16.17,16.17,0,0,0,155,210.9l-31.05,53.75a16.14,16.14,0,0,0,0,14.58L155,333a16.17,16.17,0,0,0,12.63,7.29Z"/><path class="cls-2" d="M439.33,173.31A16.17,16.17,0,0,0,452,166L483,112.24a16.14,16.14,0,0,0,0-14.58L452,43.91a16.17,16.17,0,0,0-12.63-7.29H377.26a16.19,16.19,0,0,0-12.64,7.29l-31,53.75a16.14,16.14,0,0,0,0,14.58l31,53.78a16.19,16.19,0,0,0,12.64,7.29Z"/><path class="cls-2" d="M439.33,173.31A16.17,16.17,0,0,0,452,166L483,112.24a16.14,16.14,0,0,0,0-14.58L452,43.91a16.17,16.17,0,0,0-12.63-7.29H377.26a16.19,16.19,0,0,0-12.64,7.29l-31,53.75a16.14,16.14,0,0,0,0,14.58l31,53.78a16.19,16.19,0,0,0,12.64,7.29Z"/><path class="cls-3" d="M231,319.59a4.08,4.08,0,0,0-3.17,1.83l-7.79,13.5a4.07,4.07,0,0,0,0,3.66l7.79,13.5a4.08,4.08,0,0,0,3.17,1.83h15.59a4.08,4.08,0,0,0,3.17-1.83l7.79-13.5a4.07,4.07,0,0,0,0-3.66l-7.79-13.5a4.08,4.08,0,0,0-3.17-1.83Z"/><path class="cls-3" d="M231,319.59a4.08,4.08,0,0,0-3.17,1.83l-7.79,13.5a4.07,4.07,0,0,0,0,3.66l7.79,13.5a4.08,4.08,0,0,0,3.17,1.83h15.59a4.08,4.08,0,0,0,3.17-1.83l7.79-13.5a4.07,4.07,0,0,0,0-3.66l-7.79-13.5a4.08,4.08,0,0,0-3.17-1.83Z"/><path class="cls-3" d="M477,85.81a4.06,4.06,0,0,0-3.17,1.83l-7.8,13.5a4.07,4.07,0,0,0,0,3.66l7.8,13.49a4,4,0,0,0,3.17,1.83h15.58a4.05,4.05,0,0,0,3.17-1.83l7.79-13.49a4.07,4.07,0,0,0,0-3.66l-7.79-13.5a4.08,4.08,0,0,0-3.17-1.83Z"/><path class="cls-3" d="M477,85.81a4.06,4.06,0,0,0-3.17,1.83l-7.8,13.5a4.07,4.07,0,0,0,0,3.66l7.8,13.49a4,4,0,0,0,3.17,1.83h15.58a4.05,4.05,0,0,0,3.17-1.83l7.79-13.49a4.07,4.07,0,0,0,0-3.66l-7.79-13.5a4.08,4.08,0,0,0-3.17-1.83Z"/><path class="cls-3" d="M275.7,214.9a2.65,2.65,0,0,0-2.09,1.21L268.49,225a2.67,2.67,0,0,0,0,2.4l5.12,8.87a2.68,2.68,0,0,0,2.09,1.21h10.24a2.68,2.68,0,0,0,2.08-1.21l5.12-8.87a2.61,2.61,0,0,0,0-2.4L288,216.11a2.65,2.65,0,0,0-2.08-1.21Z"/><path class="cls-3" d="M275.7,214.9a2.65,2.65,0,0,0-2.09,1.21L268.49,225a2.67,2.67,0,0,0,0,2.4l5.12,8.87a2.68,2.68,0,0,0,2.09,1.21h10.24a2.68,2.68,0,0,0,2.08-1.21l5.12-8.87a2.61,2.61,0,0,0,0-2.4L288,216.11a2.65,2.65,0,0,0-2.08-1.21Z"/><path class="cls-3" d="M500.29,49.26a2.68,2.68,0,0,0-2.09,1.2l-5.12,8.87a2.69,2.69,0,0,0,0,2.41l5.12,8.87a2.67,2.67,0,0,0,2.09,1.2h10.24a2.67,2.67,0,0,0,2.08-1.2l5.13-8.87a2.69,2.69,0,0,0,0-2.41l-5.13-8.87a2.67,2.67,0,0,0-2.08-1.2Z"/><path class="cls-3" d="M500.29,49.26a2.68,2.68,0,0,0-2.09,1.2l-5.12,8.87a2.69,2.69,0,0,0,0,2.41l5.12,8.87a2.67,2.67,0,0,0,2.09,1.2h10.24a2.67,2.67,0,0,0,2.08-1.2l5.13-8.87a2.69,2.69,0,0,0,0-2.41l-5.13-8.87a2.67,2.67,0,0,0-2.08-1.2Z"/><path class="cls-3" d="M381.36.75A2.67,2.67,0,0,0,379.28,2l-5.13,8.88a2.67,2.67,0,0,0,0,2.4l5.13,8.87a2.67,2.67,0,0,0,2.08,1.2H391.6a2.68,2.68,0,0,0,2.09-1.2l5.12-8.87a2.67,2.67,0,0,0,0-2.4L393.69,2A2.68,2.68,0,0,0,391.6.75Z"/><path class="cls-3" d="M381.36.75A2.67,2.67,0,0,0,379.28,2l-5.13,8.88a2.67,2.67,0,0,0,0,2.4l5.13,8.87a2.67,2.67,0,0,0,2.08,1.2H391.6a2.68,2.68,0,0,0,2.09-1.2l5.12-8.87a2.67,2.67,0,0,0,0-2.4L393.69,2A2.68,2.68,0,0,0,391.6.75Z"/><path class="cls-3" d="M308.76,308.32a2.67,2.67,0,0,0-2.08,1.2l-5.13,8.87a2.69,2.69,0,0,0,0,2.41l5.13,8.87a2.67,2.67,0,0,0,2.08,1.2H319a2.68,2.68,0,0,0,2.09-1.2l5.12-8.87a2.69,2.69,0,0,0,0-2.41l-5.12-8.87a2.68,2.68,0,0,0-2.09-1.2Z"/><path class="cls-3" d="M308.76,308.32a2.67,2.67,0,0,0-2.08,1.2l-5.13,8.87a2.69,2.69,0,0,0,0,2.41l5.13,8.87a2.67,2.67,0,0,0,2.08,1.2H319a2.68,2.68,0,0,0,2.09-1.2l5.12-8.87a2.69,2.69,0,0,0,0-2.41l-5.12-8.87a2.68,2.68,0,0,0-2.09-1.2Z"/><line id="_Path_2" data-name=" Path 2" class="cls-4" x1="344.21" y1="46.56" x2="266.75" y2="46.56"/><line id="_Path_3" data-name=" Path 3" class="cls-5" x1="263.08" y1="133.62" x2="327.72" y2="133.62"/><line id="_Path_4" data-name=" Path 4" class="cls-4" x1="254.94" y1="104.96" x2="314.5" y2="104.96"/><line id="_Path_5" data-name=" Path 5" class="cls-5" x1="207.62" y1="78.83" x2="330.01" y2="78.83"/><line id="_Path_6" data-name=" Path 6" class="cls-4" x1="342.18" y1="165.9" x2="291.23" y2="165.9"/><line id="_Path_2-2" data-name=" Path 2" class="cls-4" x1="137.34" y1="212.28" x2="59.88" y2="212.28"/><line id="_Path_3-2" data-name=" Path 3" class="cls-5" x1="56.21" y1="299.35" x2="120.84" y2="299.35"/><line id="_Path_4-2" data-name=" Path 4" class="cls-4" x1="48.06" y1="270.69" x2="107.62" y2="270.69"/><line id="_Path_5-2" data-name=" Path 5" class="cls-5" x1="0.75" y1="244.56" x2="123.13" y2="244.56"/><line id="_Path_6-2" data-name=" Path 6" class="cls-4" x1="135.3" y1="331.62" x2="84.35" y2="331.62"/></g></g></svg>