<svg xmlns="http://www.w3.org/2000/svg" viewBox="0 0 434.02 327.68"><defs><style>.cls-1,.cls-11,.cls-2,.cls-3,.cls-4,.cls-5,.cls-6{fill:none;}.cls-1,.cls-3,.cls-4{stroke:#6738b8;}.cls-1,.cls-11,.cls-2,.cls-3,.cls-4,.cls-5,.cls-6,.cls-7,.cls-9{stroke-linecap:round;stroke-linejoin:round;}.cls-1,.cls-2,.cls-5{stroke-width:1.5px;}.cls-11,.cls-2,.cls-9{stroke:#28d1b1;}.cls-3{stroke-width:1.37px;}.cls-11,.cls-4,.cls-6,.cls-7,.cls-9{stroke-width:2.5px;}.cls-5,.cls-6,.cls-7{stroke:#9e62dd;}.cls-7,.cls-9{fill:#fff;}.cls-8{fill:#28d1b1;}.cls-10{opacity:0.1;}</style></defs><title>insights-flexibility_2</title><g id="Layer_2" data-name="Layer 2"><g id="insights-flexibility_2"><path class="cls-1" d="M301.49,28.66v7.53a10.68,10.68,0,0,0,10.68,10.67H422.59a10.68,10.68,0,0,0,10.68-10.67V11.43A10.68,10.68,0,0,0,422.59.75H312.17a10.68,10.68,0,0,0-10.68,10.68v7"/><line class="cls-2" x1="257.44" y1="23.53" x2="296.36" y2="23.53"/><circle class="cls-2" cx="301.49" cy="23.53" r="5.13"/><path class="cls-3" d="M301.49,89.13V255.79a10.68,10.68,0,0,0,10.68,10.68H422.59a10.68,10.68,0,0,0,10.68-10.68V71.89a10.69,10.69,0,0,0-10.68-10.68H312.17a10.68,10.68,0,0,0-10.68,10.68v7"/><path class="cls-2" d="M257.44,169.4h8.91a13.11,13.11,0,0,0,13.11-13.11V97.11A13.11,13.11,0,0,1,292.58,84h3.78"/><circle class="cls-2" cx="301.49" cy="83.99" r="5.13"/><path class="cls-2" d="M81.61,169.4h8.91a13.11,13.11,0,0,0,13.12-13.11V97.11A13.11,13.11,0,0,1,116.75,84h3.78"/><circle class="cls-2" cx="125.66" cy="83.99" r="5.13"/><path class="cls-1" d="M125.66,28.66v7.53a10.68,10.68,0,0,0,10.68,10.67H246.76a10.68,10.68,0,0,0,10.68-10.67V11.43A10.68,10.68,0,0,0,246.76.75H136.34a10.68,10.68,0,0,0-10.68,10.68v7"/><path class="cls-2" d="M80.29,145.69A13.11,13.11,0,0,0,93.4,132.58V36.64a13.11,13.11,0,0,1,13.11-13.11h14"/><circle class="cls-2" cx="125.66" cy="23.53" r="5.13"/><path class="cls-1" d="M301.49,308.73v7.52a10.68,10.68,0,0,0,10.68,10.68H422.59a10.68,10.68,0,0,0,10.68-10.68V291.5a10.68,10.68,0,0,0-10.68-10.68H312.17a10.68,10.68,0,0,0-10.68,10.68v7"/><line class="cls-2" x1="257.44" y1="303.6" x2="296.36" y2="303.6"/><circle class="cls-2" cx="301.49" cy="303.6" r="5.13"/><path class="cls-1" d="M125.66,308.73v7.52a10.68,10.68,0,0,0,10.68,10.68H246.76a10.68,10.68,0,0,0,10.68-10.68V291.5a10.68,10.68,0,0,0-10.68-10.68H136.34a10.68,10.68,0,0,0-10.68,10.68v7"/><path class="cls-2" d="M80.29,187.8A13.11,13.11,0,0,1,93.4,200.91v89.58a13.11,13.11,0,0,0,13.11,13.11h14"/><circle class="cls-2" cx="125.66" cy="303.6" r="5.13"/><path class="cls-4" d="M56.81,153.47c2.39,0,5.33-1,6.53-2.13l16-15.66a3,3,0,0,0,0-4.25l-16-15.65c-1.2-1.17-4.14-2.12-6.53-2.12H24.72c-2.39,0-5.33,1-6.53,2.12l-16,15.65a3,3,0,0,0,0,4.25L18.2,151.34c1.19,1.17,4.13,2.13,6.52,2.13Z"/><path class="cls-5" d="M48.79,143.51a5.33,5.33,0,0,0,3.26-1.06l8-7.83a1.47,1.47,0,0,0,0-2.12l-8-7.83a5.39,5.39,0,0,0-3.26-1.06h-16a5.45,5.45,0,0,0-3.27,1.06l-8,7.83a1.47,1.47,0,0,0,0,2.12l8,7.83a5.38,5.38,0,0,0,3.27,1.06Z"/><path class="cls-5" d="M1.25,154.46a2.94,2.94,0,0,0,.9,2.12L18.2,172.24c1.19,1.17,4.13,2.12,6.52,2.12H56.81c2.39,0,5.33-1,6.53-2.12l16-15.66a3,3,0,0,0,.9-2.12"/><path class="cls-5" d="M1.25,175.36a3,3,0,0,0,.9,2.12L18.2,193.14c1.19,1.17,4.13,2.12,6.52,2.12H56.81c2.39,0,5.33-.95,6.53-2.12l16-15.66a3,3,0,0,0,.9-2.12"/><path class="cls-4" d="M1.25,133.56a2.94,2.94,0,0,1,.9-2.12L18.2,115.78c1.19-1.17,4.13-2.12,6.53-2.12H56.81c2.4,0,5.33,1,6.53,2.12l16,15.66a3,3,0,0,1,.9,2.12v62.69a3,3,0,0,1-.9,2.12L63.34,214c-1.2,1.16-4.14,2.12-6.53,2.12H24.72c-2.39,0-5.33-1-6.52-2.12l-16-15.67a2.94,2.94,0,0,1-.9-2.12Z"/><line class="cls-6" x1="152.06" y1="82.04" x2="231.04" y2="82.04"/><line class="cls-6" x1="152.06" y1="96.13" x2="231.04" y2="96.13"/><line class="cls-6" x1="152.06" y1="110.22" x2="214.96" y2="110.22"/><line class="cls-6" x1="327.89" y1="82.04" x2="406.87" y2="82.04"/><line class="cls-6" x1="327.89" y1="96.13" x2="406.87" y2="96.13"/><line class="cls-6" x1="327.89" y1="110.22" x2="390.79" y2="110.22"/><line class="cls-6" x1="152.06" y1="23.53" x2="231.04" y2="23.53"/><line class="cls-6" x1="330.65" y1="23.53" x2="404.11" y2="23.53"/><path class="cls-1" d="M125.66,89.13V255.79a10.68,10.68,0,0,0,10.68,10.68H246.76a10.68,10.68,0,0,0,10.68-10.68V71.89a10.69,10.69,0,0,0-10.68-10.68H136.34a10.69,10.69,0,0,0-10.68,10.68v7"/><circle class="cls-7" cx="158.28" cy="137.48" r="6.22"/><line class="cls-7" x1="171.35" y1="134.16" x2="197.49" y2="134.16"/><line class="cls-7" x1="171.35" y1="139.83" x2="188.92" y2="139.83"/><circle class="cls-7" cx="158.28" cy="156.92" r="6.22"/><line class="cls-7" x1="171.35" y1="153.6" x2="197.49" y2="153.6"/><line class="cls-7" x1="171.35" y1="159.28" x2="188.92" y2="159.28"/><path class="cls-7" d="M164.5,176.36a6.22,6.22,0,1,1-6.22-6.21A6.21,6.21,0,0,1,164.5,176.36Z"/><line class="cls-7" x1="171.35" y1="173.04" x2="197.49" y2="173.04"/><line class="cls-7" x1="171.35" y1="178.72" x2="188.92" y2="178.72"/><circle class="cls-8" cx="158.28" cy="137.48" r="2.75"/><line class="cls-7" x1="152.13" y1="313.51" x2="169.7" y2="313.51"/><circle class="cls-7" cx="160.91" cy="300.46" r="6.22"/><circle class="cls-8" cx="160.91" cy="300.46" r="2.75"/><line class="cls-7" x1="182.77" y1="313.51" x2="200.33" y2="313.51"/><circle class="cls-7" cx="191.55" cy="300.46" r="6.22"/><line class="cls-7" x1="213.4" y1="313.51" x2="230.97" y2="313.51"/><circle class="cls-7" cx="222.19" cy="300.46" r="6.22"/><line class="cls-7" x1="327.96" y1="313.51" x2="345.53" y2="313.51"/><circle class="cls-7" cx="336.74" cy="300.46" r="6.22"/><circle class="cls-8" cx="336.74" cy="300.46" r="2.75"/><line class="cls-7" x1="358.59" y1="313.51" x2="376.16" y2="313.51"/><circle class="cls-7" cx="367.38" cy="300.46" r="6.22"/><line class="cls-7" x1="389.23" y1="313.51" x2="406.8" y2="313.51"/><circle class="cls-7" cx="398.02" cy="300.46" r="6.22"/><line class="cls-7" x1="348.83" y1="136.94" x2="374.97" y2="136.94"/><line class="cls-7" x1="348.83" y1="142.61" x2="366.4" y2="142.61"/><rect class="cls-7" x="327.89" y="130.97" width="15.73" height="15.73" rx="3.24"/><polyline class="cls-9" points="339.98 136.15 334.61 141.52 331.54 138.45"/><line class="cls-7" x1="348.83" y1="158.81" x2="374.97" y2="158.81"/><line class="cls-7" x1="348.83" y1="164.48" x2="366.4" y2="164.48"/><rect class="cls-7" x="327.89" y="152.84" width="15.73" height="15.73" rx="3.24"/><polyline class="cls-9" points="339.98 158.01 334.61 163.39 331.54 160.32"/><g class="cls-10"><line class="cls-1" x1="231.04" y1="246.92" x2="152.06" y2="246.92"/></g><g class="cls-10"><line class="cls-1" x1="231.04" y1="232.37" x2="152.06" y2="232.37"/></g><g class="cls-10"><line class="cls-1" x1="231.04" y1="217.82" x2="152.06" y2="217.82"/></g><g class="cls-10"><line class="cls-1" x1="231.04" y1="203.27" x2="152.06" y2="203.27"/></g><path class="cls-6" d="M156.22,240.93c34.13-2.86,53.36-6.63,63.58-42.5"/><path class="cls-11" d="M156.22,225.14s53.6,1.72,68.25-13.88"/></g></g></svg>