<svg xmlns="http://www.w3.org/2000/svg" xmlns:xlink="http://www.w3.org/1999/xlink" viewBox="0 0 422.89 422.89"><defs><style>.cls-1,.cls-2,.cls-3,.cls-4,.cls-6,.cls-7,.cls-8,.cls-9{fill:none;}.cls-2,.cls-3,.cls-8{stroke:#6738b8;}.cls-2,.cls-3,.cls-4,.cls-6,.cls-7,.cls-8,.cls-9{stroke-linecap:round;}.cls-2,.cls-4,.cls-6,.cls-7,.cls-8,.cls-9{stroke-linejoin:round;}.cls-2,.cls-3,.cls-4,.cls-7{stroke-width:2.5px;}.cls-4{stroke:#5e4098;stroke-dasharray:92.87 30.96 0 15.48 15.48 46.43;}.cls-5{clip-path:url(#clip-path);}.cls-6{stroke:#9e62dd;}.cls-6,.cls-8,.cls-9{stroke-width:1.5px;}.cls-7,.cls-9{stroke:#28d1b1;}.cls-9{stroke-dasharray:66.68 22.23 0 11.11 11.11 33.34;}</style><clipPath id="clip-path"><circle class="cls-1" cx="209.9" cy="213.55" r="160.88"/></clipPath></defs><title>insights-data_quality_4</title><g id="Layer_2" data-name="Layer 2"><g id="insights-data_quality_4"><path class="cls-2" d="M29.85,317.36A209.21,209.21,0,0,1,1.25,211.44C1.25,95.36,95.36,1.25,211.44,1.25A210.21,210.21,0,0,1,274,10.7"/><path class="cls-2" d="M370.37,73.88a209.36,209.36,0,0,1,51.27,137.56c0,116.09-94.11,210.2-210.2,210.2a209.26,209.26,0,0,1-124.79-41"/><line class="cls-3" x1="355.07" y1="54.7" x2="349.6" y2="83.53"/><line class="cls-3" x1="355.92" y1="54.12" x2="384.74" y2="59.59"/><line class="cls-4" x1="40.62" y1="332.84" x2="46.09" y2="304.01"/><line class="cls-4" x1="39.77" y1="333.42" x2="10.95" y2="327.95"/><g class="cls-5"><path class="cls-6" d="M306.07,238.53l12.44,7.18a8.13,8.13,0,0,0,7.32,0l27-15.58a8.11,8.11,0,0,0,3.66-6.34V192.63a8.09,8.09,0,0,0-3.66-6.34l-27-15.59a8.13,8.13,0,0,0-7.32,0l-12.44,7.19"/><path class="cls-7" d="M295.79,276.84c5.6-3.24,10.18-11.18,10.18-17.65V172.5c0-6.47-4.58-14.4-10.18-17.64l-75.06-43.35c-5.61-3.24-14.77-3.24-20.37,0l-75.1,43.36c-5.6,3.24-10.18,11.17-10.18,17.64v86.69c0,6.47,4.58,14.41,10.18,17.64"/><path class="cls-7" d="M247.49,304.7l48.3-27.86c5.6-3.24,10.18-11.18,10.18-17.65V172.5c0-6.47-4.58-14.4-10.18-17.64l-75.06-43.35c-5.61-3.24-14.77-3.24-20.37,0l-75.1,43.36c-5.6,3.24-10.18,11.17-10.18,17.64v86.69c0,6.47,4.58,14.41,10.18,17.64L156,294.56"/><path class="cls-6" d="M157.25,316a10.5,10.5,0,0,0,4.74,8.22l35,20.21a10.53,10.53,0,0,0,9.5,0l35-20.21a10.5,10.5,0,0,0,4.74-8.22v-40.4a10.54,10.54,0,0,0-4.74-8.23l-35-20.21a10.59,10.59,0,0,0-9.5,0l-35,20.21a10.54,10.54,0,0,0-4.74,8.23Z"/><path class="cls-6" d="M157.25,316a10.5,10.5,0,0,0,4.74,8.22l35,20.21a10.53,10.53,0,0,0,9.5,0l35-20.21a10.5,10.5,0,0,0,4.74-8.22v-40.4a10.54,10.54,0,0,0-4.74-8.23l-35-20.21a10.59,10.59,0,0,0-9.5,0l-35,20.21a10.54,10.54,0,0,0-4.74,8.23Z"/><path class="cls-8" d="M271,368a8.59,8.59,0,0,0,3.87,6.7l28.54,16.47a8.56,8.56,0,0,0,7.73,0l28.53-16.47a8.62,8.62,0,0,0,3.87-6.7V335.08a8.62,8.62,0,0,0-3.87-6.71L311.1,311.9a8.56,8.56,0,0,0-7.73,0l-28.54,16.47a8.59,8.59,0,0,0-3.87,6.71Z"/><path class="cls-8" d="M271,368a8.59,8.59,0,0,0,3.87,6.7l28.54,16.47a8.56,8.56,0,0,0,7.73,0l28.53-16.47a8.62,8.62,0,0,0,3.87-6.7V335.08a8.62,8.62,0,0,0-3.87-6.71L311.1,311.9a8.56,8.56,0,0,0-7.73,0l-28.54,16.47a8.59,8.59,0,0,0-3.87,6.71Z"/><path class="cls-8" d="M78.49,326.45A5.52,5.52,0,0,0,81,330.76l18.36,10.6a5.53,5.53,0,0,0,5,0l18.34-10.6a5.52,5.52,0,0,0,2.49-4.31V305.26a5.52,5.52,0,0,0-2.49-4.31l-18.34-10.6a5.53,5.53,0,0,0-5,0L81,301a5.52,5.52,0,0,0-2.49,4.31Z"/><path class="cls-8" d="M78.49,326.45A5.52,5.52,0,0,0,81,330.76l18.36,10.6a5.53,5.53,0,0,0,5,0l18.34-10.6a5.52,5.52,0,0,0,2.49-4.31V305.26a5.52,5.52,0,0,0-2.49-4.31l-18.34-10.6a5.53,5.53,0,0,0-5,0L81,301a5.52,5.52,0,0,0-2.49,4.31Z"/><path class="cls-6" d="M17.62,226.24a5.52,5.52,0,0,0,2.49,4.31l18.35,10.6a5.53,5.53,0,0,0,5,0l18.35-10.6a5.52,5.52,0,0,0,2.49-4.31V205.05a5.54,5.54,0,0,0-2.49-4.32L43.44,190.14a5.53,5.53,0,0,0-5,0L20.11,200.73a5.54,5.54,0,0,0-2.49,4.32Z"/><path class="cls-6" d="M17.62,226.24a5.52,5.52,0,0,0,2.49,4.31l18.35,10.6a5.53,5.53,0,0,0,5,0l18.35-10.6a5.52,5.52,0,0,0,2.49-4.31V205.05a5.54,5.54,0,0,0-2.49-4.32L43.44,190.14a5.53,5.53,0,0,0-5,0L20.11,200.73a5.54,5.54,0,0,0-2.49,4.32Z"/><path class="cls-8" d="M246.53,103.83A3.17,3.17,0,0,0,248,106.3l10.48,6a3.18,3.18,0,0,0,2.85,0l10.48-6a3.17,3.17,0,0,0,1.42-2.47V91.73a3.16,3.16,0,0,0-1.42-2.46l-10.48-6.06a3.18,3.18,0,0,0-2.85,0L248,89.27a3.16,3.16,0,0,0-1.42,2.46Z"/><path class="cls-8" d="M246.53,103.83A3.17,3.17,0,0,0,248,106.3l10.48,6a3.18,3.18,0,0,0,2.85,0l10.48-6a3.17,3.17,0,0,0,1.42-2.47V91.73a3.16,3.16,0,0,0-1.42-2.46l-10.48-6.06a3.18,3.18,0,0,0-2.85,0L248,89.27a3.16,3.16,0,0,0-1.42,2.46Z"/><path class="cls-8" d="M250.39,175.22a5.08,5.08,0,0,1,2.11-3.81l15.66-8.88a3.83,3.83,0,0,1,4.23,0L288,171.41a4.46,4.46,0,0,1,2.12,3.81V193A5.06,5.06,0,0,1,288,196.8l-15.65,8.88a3.83,3.83,0,0,1-4.23,0L252.5,196.8a4.47,4.47,0,0,1-2.11-3.81Z"/><path class="cls-6" d="M145.8,141.75,127.2,131a7,7,0,0,0-6.32,0L97.62,144.44a7,7,0,0,0-3.16,5.46v26.86a7,7,0,0,0,3.16,5.47l17.67,10.2"/></g><path class="cls-9" d="M47.77,213.14A161.28,161.28,0,1,1,209.05,374.43,161.28,161.28,0,0,1,47.77,213.14Z"/></g></g></svg>