<svg xmlns="http://www.w3.org/2000/svg" viewBox="0 0 488.6 436.07"><defs><style>.cls-1,.cls-10,.cls-11,.cls-12,.cls-13,.cls-14,.cls-15,.cls-16,.cls-17,.cls-18,.cls-19,.cls-2,.cls-3,.cls-4,.cls-5,.cls-6,.cls-7,.cls-8,.cls-9{fill:none;stroke-linecap:round;stroke-linejoin:round;}.cls-1,.cls-11,.cls-12,.cls-16,.cls-17,.cls-18,.cls-5,.cls-6,.cls-7,.cls-8,.cls-9{stroke:#9e62dd;}.cls-1,.cls-13,.cls-15,.cls-16{stroke-width:2.5px;}.cls-10,.cls-15,.cls-19,.cls-2,.cls-3,.cls-4{stroke:#6738b8;}.cls-10,.cls-11,.cls-12,.cls-14,.cls-17,.cls-18,.cls-19,.cls-2,.cls-3,.cls-4,.cls-5,.cls-6,.cls-7,.cls-8,.cls-9{stroke-width:1.5px;}.cls-3{stroke-dasharray:0 5.27 0 0;}.cls-4{stroke-dasharray:10.54 5.27 0 5.27 0 0;}.cls-6{stroke-dasharray:0 6.06 36.36 21.29;}.cls-7{stroke-dasharray:48.48 12.12 0 6.06 36.36 21.29;}.cls-8{stroke-dasharray:0 5.31 31.89 18.68;}.cls-9{stroke-dasharray:42.52 10.63 0 5.31 31.89 18.68;}.cls-10{stroke-dasharray:9.92 4.96 0 4.96 0 0;}.cls-11{stroke-dasharray:9.81 4.91 0 4.91 4.91 0;}.cls-12,.cls-14{stroke-dasharray:10 5 0 5 0 0;}.cls-12,.cls-16{opacity:0.8;}.cls-13,.cls-14{stroke:#28d1b1;}.cls-17{stroke-dasharray:0 3.03 0 0;}.cls-18{stroke-dasharray:10.09 3.03 0 3.03 0 0;}.cls-19{stroke-dasharray:10 3 0 3 10 8;}</style></defs><title>insights-data_quality_1</title><g id="Layer_2" data-name="Layer 2"><g id="insights-data_quality_1"><path class="cls-1" d="M451.1,191.11l-1.35,2.34a4,4,0,0,0,0,3.63l7.72,13.37a4,4,0,0,0,3.14,1.82h15.44a4,4,0,0,0,3.14-1.82l7.72-13.37a4,4,0,0,0,0-3.63l-7.72-13.37a4,4,0,0,0-3.14-1.81h-8"/><line class="cls-2" x1="167.59" y1="277.11" x2="165.09" y2="281.44"/><line class="cls-3" x1="162.45" y1="286.01" x2="159.81" y2="290.57"/><path class="cls-4" d="M159.81,290.57l-5.93,10.28a8.92,8.92,0,0,0,0,8L171,338.58a8.93,8.93,0,0,0,7,4h34.26a8.93,8.93,0,0,0,7-4l10.51-18.21"/><line class="cls-2" x1="229.73" y1="320.37" x2="232.23" y2="316.04"/><path class="cls-5" d="M201.72,121.27c-6.08,0-13.45,4-17.1,9.1"/><line class="cls-6" x1="178.49" y1="140.83" x2="151.95" y2="186.78"/><path class="cls-7" d="M146.63,196l-6.75,11.69c-3.28,5.68-3.28,15,0,20.65l39.36,68.17"/><path class="cls-5" d="M184.62,305.7c3.65,5.11,11,9.1,17.1,9.1"/><line class="cls-5" x1="243.92" y1="121.27" x2="223.92" y2="121.27"/><path class="cls-8" d="M213.29,121.27H201.72c-6.56,0-14.61,4.64-17.89,10.32l-6.76,11.7"/><path class="cls-9" d="M172.4,151.38l-.14.24-32.38,56.07c-3.28,5.68-3.28,15,0,20.65l32.39,56.09,11.57,20.05c3.28,5.68,11.33,10.32,17.89,10.32h12.86"/><line class="cls-5" x1="223.92" y1="314.8" x2="243.92" y2="314.8"/><path class="cls-10" d="M205.41,197.66a3,3,0,0,1-2.7-1.62l-6.48-11.33a3.44,3.44,0,0,1,0-3.24l6.48-11.33a3,3,0,0,1,2.7-1.62H218.9a3,3,0,0,1,2.7,1.62l6.47,11.33a3.44,3.44,0,0,1,0,3.24L221.6,196a3,3,0,0,1-2.7,1.62Z"/><path class="cls-11" d="M92.92,298.46a6.44,6.44,0,0,1-4.86-2.7l-11.33-20a4.89,4.89,0,0,1,0-5.39l11.33-20a5.67,5.67,0,0,1,4.86-2.7h22.67a6.43,6.43,0,0,1,4.85,2.7l11.34,20a4.89,4.89,0,0,1,0,5.39l-11.34,20a5.65,5.65,0,0,1-4.85,2.7Z"/><path class="cls-12" d="M23.48,239.39A2.92,2.92,0,0,1,26.14,241l6.38,11.17a3.4,3.4,0,0,1,0,3.19l-6.38,11.17a2.92,2.92,0,0,1-2.66,1.59H10.19a2.92,2.92,0,0,1-2.66-1.59L1.15,255.34a3.4,3.4,0,0,1,0-3.19L7.53,241a2.92,2.92,0,0,1,2.66-1.59Z"/><path class="cls-13" d="M316.9,290.51v20.76a28.68,28.68,0,0,1-10.47,22.15L185.07,433.21a7,7,0,0,1-11.49-5.43V125.26a29.64,29.64,0,0,1,10.82-22.9l121-99.5A7,7,0,0,1,316.9,8.29V145.6"/><polyline class="cls-14" points="245.24 121.27 245.24 218.03 245.24 314.8"/><path class="cls-15" d="M290.93,314.8c6.56,0,14.6-4.64,17.88-10.32"/><path class="cls-15" d="M308.81,131.59c-3.28-5.68-11.32-10.32-17.88-10.32"/><path class="cls-15" d="M245.24,314.8h45.69c6.56,0,14.6-4.64,17.88-10.32l18-31.14"/><path class="cls-15" d="M323.1,156.35l-14.29-24.76c-3.28-5.68-11.32-10.32-17.88-10.32H245.24"/><path class="cls-1" d="M363.57,273.1a13.84,13.84,0,0,0,10.79-6.23l26.52-45.93a13.81,13.81,0,0,0,0-12.46l-26.52-45.9a13.79,13.79,0,0,0-10.79-6.23h-53a13.79,13.79,0,0,0-10.79,6.23l-26.52,45.9a13.81,13.81,0,0,0,0,12.46l26.52,45.93a13.82,13.82,0,0,0,10.79,6.23Z"/><path class="cls-1" d="M363.57,273.1a13.84,13.84,0,0,0,10.79-6.23l26.52-45.93a13.81,13.81,0,0,0,0-12.46l-26.52-45.9a13.79,13.79,0,0,0-10.79-6.23h-53a13.79,13.79,0,0,0-10.79,6.23l-26.52,45.9a13.81,13.81,0,0,0,0,12.46l26.52,45.93a13.82,13.82,0,0,0,10.79,6.23Z"/><path class="cls-15" d="M457,191.11a7.05,7.05,0,0,0,5.5-3.17L476,164.52a7,7,0,0,0,0-6.35l-13.52-23.4a7,7,0,0,0-5.5-3.18h-27a7,7,0,0,0-5.5,3.18l-13.52,23.4a7,7,0,0,0,0,6.35l13.52,23.42a7.05,7.05,0,0,0,5.5,3.17Z"/><path class="cls-15" d="M457,191.11a7.05,7.05,0,0,0,5.5-3.17L476,164.52a7,7,0,0,0,0-6.35l-13.52-23.4a7,7,0,0,0-5.5-3.18h-27a7,7,0,0,0-5.5,3.18l-13.52,23.4a7,7,0,0,0,0,6.35l13.52,23.42a7.05,7.05,0,0,0,5.5,3.17Z"/><path class="cls-15" d="M358.72,129.16a4,4,0,0,0,3.15-1.82L369.59,114a4.07,4.07,0,0,0,0-3.63L361.87,97a4,4,0,0,0-3.15-1.81H343.28A4,4,0,0,0,340.14,97l-7.72,13.37a4,4,0,0,0,0,3.63l7.72,13.37a4,4,0,0,0,3.14,1.82Z"/><path class="cls-15" d="M358.72,129.16a4,4,0,0,0,3.15-1.82L369.59,114a4.07,4.07,0,0,0,0-3.63L361.87,97a4,4,0,0,0-3.15-1.81H343.28A4,4,0,0,0,340.14,97l-7.72,13.37a4,4,0,0,0,0,3.63l7.72,13.37a4,4,0,0,0,3.14,1.82Z"/><path class="cls-15" d="M346.64,323.19a2.94,2.94,0,0,1-2.69-1.62l-6.48-11.33a3.44,3.44,0,0,1,0-3.24L344,295.67a2.94,2.94,0,0,1,2.69-1.62h13.49a3,3,0,0,1,2.7,1.62L369.31,307a3.44,3.44,0,0,1,0,3.24l-6.48,11.33a3,3,0,0,1-2.7,1.62Z"/><path class="cls-16" d="M406.25,108.86a1.73,1.73,0,0,1-1.56-.94l-3.75-6.56a2,2,0,0,1,0-1.87l3.75-6.56a1.72,1.72,0,0,1,1.56-.93h7.81a1.72,1.72,0,0,1,1.56.93l3.74,6.56a1.94,1.94,0,0,1,0,1.87l-3.74,6.56a1.73,1.73,0,0,1-1.56.94Z"/><line class="cls-5" x1="55.65" y1="209.84" x2="50.65" y2="209.84"/><line class="cls-17" x1="47.63" y1="209.84" x2="44.6" y2="209.84"/><path class="cls-18" d="M44.6,209.84H42.36a2.92,2.92,0,0,1-2.66-1.6l-6.38-11.16a3.4,3.4,0,0,1,0-3.19l6.38-11.17a2.94,2.94,0,0,1,2.66-1.6H53"/><path class="cls-5" d="M53,181.12h2.67a3,3,0,0,1,2.11.84"/><path class="cls-19" d="M89.24,172.29A6.44,6.44,0,0,1,94.1,175l11.33,20a4.91,4.91,0,0,1,0,5.4l-11.33,20a5.67,5.67,0,0,1-4.86,2.7H66.58a6.44,6.44,0,0,1-4.86-2.7l-11.33-20a4.9,4.9,0,0,1,0-5.4l11.33-20a5.67,5.67,0,0,1,4.86-2.7Z"/></g></g></svg>