<svg xmlns="http://www.w3.org/2000/svg" viewBox="0 0 415.4 434.72"><defs><style>.cls-1,.cls-2,.cls-3{fill:none;stroke-linecap:round;stroke-linejoin:round;stroke-width:1.5px;}.cls-1,.cls-2{stroke:#28d1b1;}.cls-1{stroke-dasharray:66.55 39.93 0 13.31 13.31 66.55;}.cls-3{stroke:#6738b8;}.cls-4{fill:#28d1b1;}.cls-5{fill:#9e62dd;}</style></defs><title>insights-ownership_3</title><g id="Layer_2" data-name="Layer 2"><g id="insights-ownership_3"><line class="cls-1" x1="202.6" y1="156.55" x2="175.67" y2="203.21"/><line class="cls-1" x1="151.16" y1="217.36" x2="97.12" y2="217.36"/><line class="cls-1" x1="202.6" y1="278.17" x2="175.67" y2="231.51"/><line class="cls-2" x1="119.23" y1="278.17" x2="90.66" y2="228.68"/><line class="cls-2" x1="244.29" y1="228.76" x2="215.76" y2="278.17"/><line class="cls-1" x1="90.66" y1="206.04" x2="119.23" y2="156.55"/><line class="cls-1" x1="215.78" y1="156.57" x2="244.29" y2="205.97"/><path class="cls-3" d="M297.93,154.46l30.78,53.31a19.21,19.21,0,0,1,0,19.18l-30.78,53.31"/><path class="cls-3" d="M178.27,73H239.8a19.17,19.17,0,0,1,16.6,9.59l30.76,53.26"/><path class="cls-3" d="M47.83,135.82,78.59,82.54A19.17,19.17,0,0,1,95.19,73h61.54"/><path class="cls-3" d="M37.06,280.25,6.28,227a19.21,19.21,0,0,1,0-19.18l30.78-53.3"/><path class="cls-3" d="M156.69,361.77H95.19a19.17,19.17,0,0,1-16.6-9.59l-30.78-53.3"/><path class="cls-3" d="M287.16,298.92,256.4,352.18a19.17,19.17,0,0,1-16.6,9.59H178.24"/><line class="cls-3" x1="196.02" y1="289.56" x2="138.97" y2="289.56"/><line class="cls-3" x1="281.72" y1="289.56" x2="222.34" y2="289.56"/><path class="cls-2" d="M303.27,145.16h72.66l36.15,62.61a19.14,19.14,0,0,1,0,19.17l-36.15,62.62H303.27"/><line class="cls-3" x1="222.34" y1="145.16" x2="281.72" y2="145.16"/><line class="cls-3" x1="138.97" y1="145.16" x2="196.03" y2="145.16"/><line class="cls-3" x1="47.83" y1="280.22" x2="77.51" y2="228.82"/><path class="cls-2" d="M162.1,371.11,125.81,434H53.5a19.17,19.17,0,0,1-16.6-9.59L.75,361.77l36.31-62.89"/><line class="cls-3" x1="202.6" y1="300.96" x2="172.87" y2="352.45"/><line class="cls-3" x1="138.97" y1="145.16" x2="196.03" y2="145.16"/><line class="cls-3" x1="172.88" y1="82.28" x2="202.61" y2="133.76"/><path class="cls-2" d="M37.06,135.84.75,73,36.9,10.34A19.17,19.17,0,0,1,53.51.75h72.3l36.3,62.87"/><line class="cls-3" x1="77.5" y1="205.9" x2="47.83" y2="154.5"/><path class="cls-4" d="M163.63,205.93h7.73a4.73,4.73,0,0,1,4.1,2.37l3.87,6.7a4.74,4.74,0,0,1,0,4.72l-3.87,6.7a4.73,4.73,0,0,1-4.1,2.37h-7.73a4.73,4.73,0,0,1-4.1-2.37l-3.86-6.7a4.69,4.69,0,0,1,0-4.72l3.86-6.7A4.73,4.73,0,0,1,163.63,205.93Z"/><path class="cls-4" d="M248,208.79h5.8a3.55,3.55,0,0,1,3.07,1.77l2.9,5a3.5,3.5,0,0,1,0,3.54l-2.9,5a3.55,3.55,0,0,1-3.07,1.77H248a3.55,3.55,0,0,1-3.07-1.77l-2.9-5a3.5,3.5,0,0,1,0-3.54l2.9-5A3.55,3.55,0,0,1,248,208.79Z"/><path class="cls-5" d="M290.32,138.73h4.35a2.65,2.65,0,0,1,2.3,1.33l2.18,3.77a2.69,2.69,0,0,1,0,2.66L297,150.25a2.63,2.63,0,0,1-2.3,1.33h-4.35a2.63,2.63,0,0,1-2.3-1.33l-2.18-3.76a2.64,2.64,0,0,1,0-2.66l2.18-3.77A2.65,2.65,0,0,1,290.32,138.73Z"/><path class="cls-5" d="M165.32,66.53h4.35A2.66,2.66,0,0,1,172,67.86l2.17,3.76a2.64,2.64,0,0,1,0,2.66L172,78.05a2.68,2.68,0,0,1-2.31,1.33h-4.35a2.65,2.65,0,0,1-2.3-1.33l-2.18-3.77a2.69,2.69,0,0,1,0-2.66L163,67.86A2.63,2.63,0,0,1,165.32,66.53Z"/><path class="cls-5" d="M165.29,355.34h4.35a2.65,2.65,0,0,1,2.3,1.33l2.18,3.77a2.69,2.69,0,0,1,0,2.66l-2.18,3.76a2.63,2.63,0,0,1-2.3,1.33h-4.35a2.63,2.63,0,0,1-2.3-1.33l-2.18-3.76a2.69,2.69,0,0,1,0-2.66l2.18-3.77A2.65,2.65,0,0,1,165.29,355.34Z"/><path class="cls-5" d="M40.29,283.13h4.35A2.68,2.68,0,0,1,47,284.46l2.17,3.77a2.64,2.64,0,0,1,0,2.66L47,294.66A2.68,2.68,0,0,1,44.64,296H40.29a2.65,2.65,0,0,1-2.3-1.33l-2.18-3.77a2.69,2.69,0,0,1,0-2.66L38,284.46A2.65,2.65,0,0,1,40.29,283.13Z"/><path class="cls-4" d="M81.06,208.79h5.8a3.55,3.55,0,0,1,3.07,1.77l2.9,5a3.55,3.55,0,0,1,0,3.54l-2.9,5a3.55,3.55,0,0,1-3.07,1.77h-5.8A3.55,3.55,0,0,1,78,224.16l-2.9-5a3.5,3.5,0,0,1,0-3.54l2.9-5A3.55,3.55,0,0,1,81.06,208.79Z"/><path class="cls-5" d="M40.29,138.73h4.35A2.68,2.68,0,0,1,47,140.06l2.17,3.77a2.64,2.64,0,0,1,0,2.66L47,150.25a2.66,2.66,0,0,1-2.31,1.33H40.29a2.63,2.63,0,0,1-2.3-1.33l-2.18-3.76a2.69,2.69,0,0,1,0-2.66L38,140.06A2.65,2.65,0,0,1,40.29,138.73Z"/><path class="cls-5" d="M290.32,283.13h4.35a2.65,2.65,0,0,1,2.3,1.33l2.18,3.77a2.69,2.69,0,0,1,0,2.66L297,294.66a2.65,2.65,0,0,1-2.3,1.33h-4.35a2.65,2.65,0,0,1-2.3-1.33l-2.18-3.77a2.64,2.64,0,0,1,0-2.66l2.18-3.77A2.65,2.65,0,0,1,290.32,283.13Z"/><path class="cls-4" d="M122.91,136.59h5.8a3.53,3.53,0,0,1,3.07,1.77l2.9,5a3.52,3.52,0,0,1,0,3.55l-2.9,5a3.54,3.54,0,0,1-3.07,1.78h-5.8a3.54,3.54,0,0,1-3.07-1.78l-2.9-5a3.52,3.52,0,0,1,0-3.55l2.9-5A3.53,3.53,0,0,1,122.91,136.59Z"/><path class="cls-4" d="M206.28,281h5.8a3.57,3.57,0,0,1,3.08,1.78l2.9,5a3.57,3.57,0,0,1,0,3.55l-2.9,5a3.56,3.56,0,0,1-3.08,1.77h-5.8a3.55,3.55,0,0,1-3.07-1.77l-2.9-5a3.57,3.57,0,0,1,0-3.55l2.9-5A3.56,3.56,0,0,1,206.28,281Z"/><path class="cls-4" d="M122.91,281h5.8a3.55,3.55,0,0,1,3.07,1.77l2.9,5a3.5,3.5,0,0,1,0,3.54l-2.9,5a3.53,3.53,0,0,1-3.07,1.77h-5.8a3.53,3.53,0,0,1-3.07-1.77l-2.9-5a3.5,3.5,0,0,1,0-3.54l2.9-5A3.55,3.55,0,0,1,122.91,281Z"/><path class="cls-4" d="M206.28,136.59h5.8a3.56,3.56,0,0,1,3.08,1.77l2.9,5a3.57,3.57,0,0,1,0,3.55l-2.9,5a3.57,3.57,0,0,1-3.08,1.78h-5.8a3.56,3.56,0,0,1-3.07-1.78l-2.9-5a3.57,3.57,0,0,1,0-3.55l2.9-5A3.55,3.55,0,0,1,206.28,136.59Z"/><path class="cls-3" d="M172.34,232.4a6.66,6.66,0,0,0,5.76-3.32l4.85-8.39a6.69,6.69,0,0,0,0-6.65l-4.85-8.4a6.66,6.66,0,0,0-5.76-3.32h-9.69a6.66,6.66,0,0,0-5.76,3.32L152.05,214a6.66,6.66,0,0,0,0,6.66l4.84,8.39a6.67,6.67,0,0,0,5.76,3.32Z"/><path class="cls-3" d="M254.5,229.55a5.92,5.92,0,0,0,5.11-3l3.63-6.29a5.92,5.92,0,0,0,0-5.9l-3.63-6.29a5.92,5.92,0,0,0-5.11-3h-7.26a5.92,5.92,0,0,0-5.11,3l-3.63,6.29a5.92,5.92,0,0,0,0,5.9l3.63,6.29a5.92,5.92,0,0,0,5.11,3Z"/><path class="cls-3" d="M295.22,155.2a5.34,5.34,0,0,0,4.61-2.66l2.73-4.72a5.36,5.36,0,0,0,0-5.33l-2.72-4.72a5.34,5.34,0,0,0-4.61-2.66h-5.45a5.34,5.34,0,0,0-4.61,2.66l-2.73,4.72a5.34,5.34,0,0,0,0,5.33l2.73,4.72a5.34,5.34,0,0,0,4.61,2.66Z"/><path class="cls-3" d="M170.22,83a5.34,5.34,0,0,0,4.61-2.66l2.73-4.72a5.34,5.34,0,0,0,0-5.33l-2.73-4.72a5.34,5.34,0,0,0-4.61-2.66h-5.45a5.34,5.34,0,0,0-4.61,2.66l-2.72,4.72a5.35,5.35,0,0,0,0,5.32l2.73,4.73A5.34,5.34,0,0,0,164.77,83Z"/><path class="cls-3" d="M170.19,371.81a5.34,5.34,0,0,0,4.61-2.66l2.73-4.72a5.37,5.37,0,0,0,0-5.32l-2.73-4.73a5.34,5.34,0,0,0-4.61-2.66h-5.45a5.35,5.35,0,0,0-4.61,2.66l-2.73,4.72a5.39,5.39,0,0,0,0,5.33l2.73,4.72a5.35,5.35,0,0,0,4.61,2.66Z"/><path class="cls-3" d="M45.19,299.61a5.31,5.31,0,0,0,4.61-2.67l2.73-4.72a5.32,5.32,0,0,0,0-5.32l-2.73-4.72a5.33,5.33,0,0,0-4.61-2.66H39.74a5.35,5.35,0,0,0-4.61,2.66l-2.72,4.72a5.32,5.32,0,0,0,0,5.32L35.13,297a5.35,5.35,0,0,0,4.61,2.66Z"/><path class="cls-3" d="M87.59,229.55a5.92,5.92,0,0,0,5.11-3l3.63-6.29a5.92,5.92,0,0,0,0-5.9l-3.63-6.29a5.92,5.92,0,0,0-5.11-3H80.32a5.91,5.91,0,0,0-5.1,3l-3.63,6.29a5.92,5.92,0,0,0,0,5.9l3.63,6.29a5.91,5.91,0,0,0,5.1,3Z"/><path class="cls-3" d="M45.19,155.2a5.33,5.33,0,0,0,4.61-2.66l2.73-4.72a5.32,5.32,0,0,0,0-5.32l-2.73-4.73a5.33,5.33,0,0,0-4.61-2.66H39.74a5.35,5.35,0,0,0-4.61,2.66l-2.72,4.72a5.34,5.34,0,0,0,0,5.33l2.72,4.72a5.35,5.35,0,0,0,4.61,2.66Z"/><path class="cls-3" d="M295.22,299.61a5.34,5.34,0,0,0,4.61-2.67l2.73-4.72a5.35,5.35,0,0,0,0-5.32l-2.72-4.72a5.34,5.34,0,0,0-4.61-2.66h-5.45a5.33,5.33,0,0,0-4.61,2.66l-2.73,4.72a5.32,5.32,0,0,0,0,5.32l2.73,4.72a5.33,5.33,0,0,0,4.61,2.67Z"/><path class="cls-3" d="M129.44,157.34a5.93,5.93,0,0,0,5.11-2.94l3.63-6.3a5.9,5.9,0,0,0,0-5.89l-3.63-6.29a5.92,5.92,0,0,0-5.11-2.95h-7.26a5.92,5.92,0,0,0-5.11,2.95l-3.63,6.29a5.9,5.9,0,0,0,0,5.89l3.63,6.3a5.93,5.93,0,0,0,5.11,2.94Z"/><path class="cls-3" d="M212.82,301.75a5.92,5.92,0,0,0,5.1-2.94l3.63-6.3a5.92,5.92,0,0,0,0-5.89l-3.64-6.3a5.9,5.9,0,0,0-5.1-2.94h-7.27a5.89,5.89,0,0,0-5.1,2.94l-3.64,6.3a5.9,5.9,0,0,0,0,5.89l3.64,6.29a5.9,5.9,0,0,0,5.1,2.95Z"/><path class="cls-3" d="M129.44,301.75a5.92,5.92,0,0,0,5.11-2.95l3.63-6.29a5.9,5.9,0,0,0,0-5.89l-3.63-6.3a5.92,5.92,0,0,0-5.11-2.95h-7.26a5.92,5.92,0,0,0-5.11,2.95l-3.63,6.3a5.9,5.9,0,0,0,0,5.89l3.63,6.29a5.92,5.92,0,0,0,5.11,2.95Z"/><path class="cls-3" d="M212.82,157.34a5.9,5.9,0,0,0,5.1-2.94l3.63-6.3a5.92,5.92,0,0,0,0-5.89l-3.64-6.29a5.9,5.9,0,0,0-5.1-2.95h-7.27a5.9,5.9,0,0,0-5.1,2.95l-3.64,6.29a5.9,5.9,0,0,0,0,5.89l3.64,6.3a5.89,5.89,0,0,0,5.1,2.94Z"/></g></g></svg>