<svg xmlns="http://www.w3.org/2000/svg" viewBox="0 0 559.18 382.8"><defs><style>.cls-1,.cls-2,.cls-3,.cls-4{fill:none;stroke-linecap:round;stroke-linejoin:round;}.cls-1,.cls-2{stroke:#28cfaf;}.cls-1,.cls-2,.cls-3{stroke-width:1.5px;}.cls-1{stroke-dasharray:10 6 0 8 8 28;}.cls-3,.cls-4{stroke:#6738b5;}.cls-4{stroke-width:2.5px;}</style></defs><title>insights-real_time_2</title><g id="Layer_2" data-name="Layer 2"><g id="insights-real_time_2"><line id="_Path_2" data-name=" Path 2" class="cls-1" x1="125.15" y1="33.65" x2="35.15" y2="33.65"/><line id="_Path_3" data-name=" Path 3" class="cls-2" x1="24.85" y1="146.25" x2="99.95" y2="146.25"/><line id="_Path_4" data-name=" Path 4" class="cls-1" x1="63.45" y1="108.65" x2="132.65" y2="108.65"/><line id="_Path_5" data-name=" Path 5" class="cls-2" x1="0.75" y1="71.15" x2="142.95" y2="71.15"/><line id="_Path_6" data-name=" Path 6" class="cls-1" x1="116.75" y1="183.75" x2="57.55" y2="183.75"/><g id="_Group_" data-name=" Group "><path id="_Path_7" data-name=" Path 7" class="cls-3" d="M143.35,11.85c3.5-6.1,12.2-11.1,19.2-11.1h94.3c7,0,15.7,5,19.2,11.1l47.2,81.6c3.5,6.1,3.5,16.1,0,22.1l-47.2,81.7c-3.5,6.1-12.2,11.1-19.2,11.1h-94.3c-7,0-15.7-5-19.2-11.1"/><path id="_Path_8" data-name=" Path 8" class="cls-3" d="M143.35,11.85c3.5-6.1,12.2-11.1,19.2-11.1h94.3c7,0,15.7,5,19.2,11.1l47.2,81.6c3.5,6.1,3.5,16.1,0,22.1l-47.2,81.7c-3.5,6.1-12.2,11.1-19.2,11.1h-94.3c-7,0-15.7-5-19.2-11.1"/></g><g id="_Group_2" data-name=" Group 2"><line id="_Path_9" data-name=" Path 9" class="cls-2" x1="206.15" y1="130.45" x2="206.15" y2="135.75"/></g><path id="_Path_10" data-name=" Path 10" class="cls-2" d="M162.45,72.55a7.75,7.75,0,0,1,7.6-7.7h72.2a7.62,7.62,0,0,1,7.6,7.7v6.6a7.6,7.6,0,0,1-7.6,7.6h-72.2a7.6,7.6,0,0,1-7.6-7.6Z"/><line id="_Path_11" data-name=" Path 11" class="cls-2" x1="192.35" y1="80.25" x2="170.35" y2="80.25"/><line id="_Path_12" data-name=" Path 12" class="cls-2" x1="243.35" y1="75.75" x2="243.35" y2="75.75"/><line id="_Path_13" data-name=" Path 13" class="cls-2" x1="238.95" y1="75.75" x2="238.95" y2="75.75"/><path id="_Path_14" data-name=" Path 14" class="cls-2" d="M162.45,94.35a7.6,7.6,0,0,1,7.6-7.6h72.2a7.6,7.6,0,0,1,7.6,7.6V101a7.6,7.6,0,0,1-7.6,7.6h-72.2a7.6,7.6,0,0,1-7.6-7.6Z"/><line id="_Path_15" data-name=" Path 15" class="cls-2" x1="192.35" y1="102.05" x2="170.35" y2="102.05"/><line id="_Path_16" data-name=" Path 16" class="cls-2" x1="238.95" y1="97.65" x2="238.95" y2="97.65"/><line id="_Path_17" data-name=" Path 17" class="cls-2" x1="243.35" y1="97.65" x2="243.35" y2="97.65"/><path id="_Path_18" data-name=" Path 18" class="cls-2" d="M162.45,116.25a7.75,7.75,0,0,1,7.6-7.7h72.2a7.62,7.62,0,0,1,7.6,7.7v6.6a7.6,7.6,0,0,1-7.6,7.6h-72.2a7.6,7.6,0,0,1-7.6-7.6Z"/><line id="_Path_19" data-name=" Path 19" class="cls-2" x1="192.35" y1="123.95" x2="170.35" y2="123.95"/><line id="_Path_20" data-name=" Path 20" class="cls-2" x1="243.35" y1="119.55" x2="243.35" y2="119.55"/><line id="_Path_21" data-name=" Path 21" class="cls-2" x1="238.95" y1="119.55" x2="238.95" y2="119.55"/><g id="_Group_3" data-name=" Group 3"><path class="cls-2" d="M202.75,136.35h6.8a2.11,2.11,0,0,1,2.1,2.1v6.8a2.11,2.11,0,0,1-2.1,2.1h-6.8a2.11,2.11,0,0,1-2.1-2.1v-6.8A2.05,2.05,0,0,1,202.75,136.35Z"/></g><polyline id="_Path_" data-name=" Path " class="cls-4" points="439.99 198.45 374.69 198.45 374.69 63.45"/><path class="cls-4" d="M290,36A183.23,183.23,0,0,1,556.89,179.15c10.7,100.6-62.2,190.8-162.8,201.4a178.75,178.75,0,0,1-19.4,1c-97.7,0-177.6-76.5-182.9-172.9"/></g></g></svg>