<svg xmlns="http://www.w3.org/2000/svg" viewBox="0 0 496.77 419.6"><defs><style>.cls-1,.cls-10,.cls-11,.cls-12,.cls-13,.cls-2,.cls-3,.cls-4,.cls-5,.cls-6,.cls-7,.cls-8,.cls-9{fill:none;stroke-linecap:round;stroke-linejoin:round;}.cls-1,.cls-10,.cls-13,.cls-2,.cls-3,.cls-4,.cls-6,.cls-7,.cls-8,.cls-9{stroke:#9c63db;}.cls-1,.cls-10,.cls-11,.cls-13,.cls-2,.cls-3,.cls-4,.cls-5,.cls-6,.cls-7,.cls-8,.cls-9{stroke-width:1.5px;}.cls-2{stroke-dasharray:0 13.62 5.84 9.73;}.cls-3{stroke-dasharray:0 8.67 8.92 8.92;}.cls-4{stroke-dasharray:0 7.37 3.16 5.26;}.cls-5{stroke:#28cfaf;}.cls-6{stroke-dasharray:0 7.79 3.34 5.57;}.cls-7{stroke-dasharray:0 7.1 7.3 7.3;}.cls-8{stroke-dasharray:0 15.06 6.45 10.76;}.cls-9{stroke-dasharray:0 7.38 3.16 5.27;}.cls-10{stroke-dasharray:0 10.26 4.4 7.33;}.cls-11,.cls-12{stroke:#594392;}.cls-12{stroke-width:2.5px;}.cls-13{stroke-dasharray:24.6 24.6 0 24.6;}</style></defs><title>insights-flexibility_1</title><g id="Layer_2" data-name="Layer 2"><g id="insights-flexibility_1"><g id="_Group_7" data-name=" Group 7"><line class="cls-1" x1="116.82" y1="238.45" x2="129.12" y2="238.35"/><line class="cls-2" x1="142.72" y1="238.25" x2="161.18" y2="238.15"/></g><g id="_Group_" data-name=" Group "><line class="cls-1" x1="167.05" y1="331.65" x2="170.25" y2="326.15"/><line class="cls-3" x1="174.55" y1="318.65" x2="185.55" y2="299.55"/><line class="cls-1" x1="187.75" y1="295.65" x2="190.85" y2="290.15"/></g><g id="_Group_2" data-name=" Group 2"><line class="cls-1" x1="281.35" y1="238.85" x2="293.65" y2="238.75"/><line class="cls-4" x1="301.05" y1="238.75" x2="314.25" y2="238.65"/><line class="cls-1" x1="316.85" y1="238.65" x2="329.15" y2="238.55"/></g><g id="_Group_3" data-name=" Group 3"><path class="cls-5" d="M413.55,247.85c-2.9-5-2.9-13.2,0-18.3l12.2-21.1c2.9-5,10-9.1,15.8-9.1h24.3c5.8,0,12.9,4.1,15.8,9.1l12.2,21.1c2.9,5,2.9,13.2,0,18.3l-12.2,21c-2.9,5-10,9.1-15.8,9.1h-24.3c-5.8,0-12.9-4.1-15.8-9.1Z"/></g><g id="_Group_4" data-name=" Group 4"><line class="cls-1" x1="251.3" y1="187.2" x2="258.35" y2="175.15"/><line class="cls-6" x1="262.15" y1="168.35" x2="269.05" y2="156.25"/><line class="cls-1" x1="270.45" y1="153.85" x2="276.45" y2="143.15"/></g><g id="_Group_5" data-name=" Group 5"><path class="cls-5" d="M163.35,247.85c-2.9-5-2.9-13.2,0-18.3l20.9-36.2c2.9-5,10-9.1,15.8-9.1h41.8c5.8,0,12.9,4.1,15.8,9.1l20.9,36.2c2.9,5,2.9,13.2,0,18.3l-20.9,36.2c-2.9,5-10,9.1-15.8,9.1h-41.8c-5.8,0-12.9-4.1-15.8-9.1Z"/></g><g id="_Group_6" data-name=" Group 6"><path class="cls-1" d="M83.9,49.25c-2.9-5-2.9-13.2,0-18.3L96.1,9.85c2.9-5,10-9.1,15.8-9.1h24.3c5.8,0,12.9,4.1,15.8,9.1L164.2,31c2.9,5,2.9,13.2,0,18.3l-12.2,21c-2.9,5-10,9.1-15.8,9.1H111.9c-5.8,0-12.9-4.1-15.8-9.1Z"/></g><g id="_Group_7-2" data-name=" Group 7"><line class="cls-1" x1="343.65" y1="238.45" x2="355.95" y2="238.35"/><line class="cls-2" x1="369.55" y1="238.25" x2="393.95" y2="238.15"/><line class="cls-1" x1="398.75" y1="238.15" x2="411.05" y2="238.05"/></g><g id="_Group_2-2" data-name=" Group 2"><line class="cls-1" x1="60.67" y1="238.85" x2="72.97" y2="238.75"/><line class="cls-4" x1="80.37" y1="238.75" x2="93.57" y2="238.65"/><line class="cls-1" x1="96.17" y1="238.65" x2="108.47" y2="238.55"/></g><g id="_Group_8" data-name=" Group 8"><path class="cls-5" d="M59,245.25l-8.4,14.6a13.19,13.19,0,0,1-11.4,6.6H22.35a13.19,13.19,0,0,1-11.4-6.6l-8.4-14.6a13,13,0,0,1,0-13.2l8.4-14.5a13.07,13.07,0,0,1,11.4-6.6h16.8a13.07,13.07,0,0,1,11.4,6.6l8.4,14.5A13.49,13.49,0,0,1,59,245.25Z"/></g><g id="_Group_11" data-name=" Group 11"><line class="cls-1" x1="139.25" y1="380.25" x2="142.35" y2="374.75"/><line class="cls-7" x1="145.95" y1="368.55" x2="154.85" y2="352.95"/><line class="cls-1" x1="156.75" y1="349.75" x2="159.85" y2="344.25"/></g><g id="_Group_12" data-name=" Group 12"><line class="cls-1" x1="283.65" y1="130.55" x2="289.75" y2="119.85"/><line class="cls-8" x1="297.15" y1="106.75" x2="310.35" y2="83.35"/><line class="cls-1" x1="312.95" y1="78.65" x2="319.05" y2="67.95"/></g><g id="_Group_13" data-name=" Group 13"><path class="cls-1" d="M309.75,52a6.58,6.58,0,0,1,0-6.1l7.5-13a6.64,6.64,0,0,1,5.3-3h15a6.79,6.79,0,0,1,5.3,3l7.4,13a6.58,6.58,0,0,1,0,6.1l-7.5,13a6.64,6.64,0,0,1-5.3,3h-14.9a6.79,6.79,0,0,1-5.3-3Z"/></g><g id="_Group_14" data-name=" Group 14"><path class="cls-1" d="M108.05,402.35a6.58,6.58,0,0,1,0-6.1l7.5-13a6.64,6.64,0,0,1,5.3-3h15a6.79,6.79,0,0,1,5.3,3l7.5,12.9a6.58,6.58,0,0,1,0,6.1l-7.5,13a6.64,6.64,0,0,1-5.3,3H121a6.79,6.79,0,0,1-5.3-3Z"/></g><g id="_Group_15" data-name=" Group 15"><line class="cls-1" x1="166.95" y1="144.05" x2="173.15" y2="154.65"/><line class="cls-9" x1="176.85" y1="161.05" x2="183.45" y2="172.45"/><line class="cls-1" x1="184.75" y1="174.75" x2="191.65" y2="186.32"/></g><g id="_Group_16" data-name=" Group 16"><line class="cls-1" x1="129.67" y1="79.35" x2="137.25" y2="92.65"/><line class="cls-10" x1="142.45" y1="101.55" x2="151.55" y2="117.35"/><line class="cls-1" x1="153.45" y1="120.55" x2="159.55" y2="131.25"/></g><rect class="cls-11" x="187.45" y="248.85" width="8.4" height="17.6"/><rect class="cls-11" x="214.75" y="229.65" width="8.4" height="36.8"/><rect class="cls-11" x="201.1" y="237.05" width="8.4" height="29.4"/><rect class="cls-11" x="242.05" y="223.35" width="8.4" height="43.1"/><rect class="cls-11" x="228.4" y="210.85" width="8.4" height="55.6"/><path id="_Path_" data-name=" Path " class="cls-12" d="M252.75,119.25a122.58,122.58,0,1,1-150.2,86.6c17.6-65.3,84.8-104.2,150.2-86.6Z"/><polyline class="cls-12" points="311.35 320.45 398.75 407.85 388.25 418.35 300.85 330.95"/><line class="cls-13" x1="116.05" y1="79.35" x2="40.05" y2="210.95"/><line class="cls-13" x1="429.25" y1="204.15" x2="345.85" y2="59.55"/><line class="cls-13" x1="368.85" y1="377.95" x2="429.15" y2="273.35"/></g></g></svg>