<svg xmlns="http://www.w3.org/2000/svg" viewBox="0 0 401.36 434.97"><defs><style>.cls-1,.cls-10,.cls-11,.cls-12,.cls-13,.cls-2,.cls-3,.cls-4,.cls-5,.cls-6,.cls-7,.cls-8,.cls-9{fill:none;stroke-linecap:round;stroke-linejoin:round;}.cls-1,.cls-11,.cls-2,.cls-3,.cls-4,.cls-5,.cls-6,.cls-7,.cls-8,.cls-9{stroke:#28d1b1;}.cls-1,.cls-11,.cls-12,.cls-2,.cls-3,.cls-4,.cls-5,.cls-6,.cls-7,.cls-8,.cls-9{stroke-width:1.5px;}.cls-2{stroke-dasharray:2.55 17.87 7.66 12.76;}.cls-3{stroke-dasharray:17.87 17.87 2.55 17.87 7.66 12.76;}.cls-4{stroke-dasharray:1.91 13.35 5.72 9.54;}.cls-5{stroke-dasharray:2.11 14.76 6.33 10.55;}.cls-6{stroke-dasharray:14.76 14.76 2.11 14.76 6.33 10.55;}.cls-7{stroke-dasharray:2.53 17.72 7.59 12.66;}.cls-8{stroke-dasharray:17.72 17.72 2.53 17.72 7.59 12.66;}.cls-9{stroke-dasharray:3.65 25.58 10.96 18.27;}.cls-10{stroke:#6738b8;}.cls-10,.cls-13{stroke-width:2.5px;}.cls-11{stroke-dasharray:78.36 26.12 0 13.06 13.06 39.18;}.cls-12,.cls-13{stroke:#9e62dd;}</style></defs><title>insights-data_richness_3</title><g id="Layer_2" data-name="Layer 2"><g id="insights-data_richness_3"><line class="cls-1" x1="260.51" y1="211.41" x2="266.18" y2="201.49"/><line class="cls-2" x1="275.04" y1="185.97" x2="292.12" y2="156.04"/><line class="cls-3" x1="295.28" y1="150.5" x2="330.08" y2="89.55"/><line class="cls-1" x1="333.24" y1="84" x2="338.91" y2="74.08"/><line class="cls-1" x1="206.86" y1="303.76" x2="212.7" y2="293.94"/><line class="cls-4" x1="219.51" y1="282.45" x2="232.66" y2="260.31"/><line class="cls-1" x1="235.09" y1="256.21" x2="240.92" y2="246.39"/><line class="cls-1" x1="325.58" y1="362.13" x2="319.83" y2="352.25"/><line class="cls-5" x1="312.41" y1="339.49" x2="298.1" y2="314.87"/><line class="cls-6" x1="295.45" y1="310.31" x2="266.3" y2="260.17"/><line class="cls-1" x1="263.65" y1="255.61" x2="257.91" y2="245.73"/><line class="cls-1" x1="240.49" y1="210.76" x2="234.71" y2="200.9"/><line class="cls-7" x1="225.75" y1="185.61" x2="208.47" y2="156.13"/><line class="cls-8" x1="205.27" y1="150.67" x2="170.06" y2="90.61"/><line class="cls-1" x1="166.86" y1="85.15" x2="161.08" y2="75.29"/><line class="cls-1" x1="80.72" y1="227.45" x2="92.15" y2="227.45"/><line class="cls-9" x1="117.73" y1="227.45" x2="167.07" y2="227.45"/><line class="cls-1" x1="176.2" y1="227.45" x2="187.63" y2="227.45"/><path class="cls-10" d="M205.89,183.38a62.32,62.32,0,1,1,0,88.14A62.32,62.32,0,0,1,205.89,183.38Z"/><path class="cls-11" d="M117.64,227.45A132.31,132.31,0,1,1,250,359.76,132.32,132.32,0,0,1,117.64,227.45Z"/><line class="cls-10" x1="249.95" y1="204.03" x2="249.95" y2="250.23"/><line class="cls-10" x1="226.85" y1="227.13" x2="273.05" y2="227.13"/><path class="cls-10" d="M163.77,395.24c-5.35,0-11.91-3.79-14.59-8.42l-16.68-28.9c-2.67-4.63-2.67-12.21,0-16.85l16.68-28.88c2.68-4.64,9.24-8.43,14.59-8.43h33.37c5.35,0,11.91,3.79,14.59,8.43l16.67,28.88c2.68,4.64,2.68,12.22,0,16.85l-16.68,28.9c-2.67,4.63-9.23,8.42-14.58,8.42Z"/><path class="cls-10" d="M348.66,75.29c-5.38,0-12-3.82-14.69-8.48L322.38,46.75c-2.69-4.66-2.69-12.3,0-17L334,9.73c2.69-4.66,9.31-8.48,14.69-8.48h23.16c5.39,0,12,3.82,14.69,8.48l11.58,20.06c2.69,4.66,2.69,12.3,0,17L386.51,66.81c-2.69,4.66-9.3,8.48-14.69,8.48Z"/><path class="cls-12" d="M29.05,264.47c-5.38,0-12-3.82-14.69-8.48L2.77,235.93c-2.69-4.67-2.69-12.3,0-17l11.59-20.05c2.69-4.67,9.31-8.48,14.69-8.48H52.21c5.38,0,12,3.81,14.69,8.48L78.48,219c2.69,4.67,2.7,12.3,0,17L66.9,256c-2.69,4.66-9.31,8.48-14.69,8.48Z"/><path class="cls-12" d="M334.54,434.22c-5.39,0-12-3.82-14.69-8.48l-11.58-20.06c-2.7-4.67-2.69-12.31,0-17l11.58-20c2.69-4.67,9.3-8.49,14.69-8.49H357.7c5.38,0,12,3.82,14.69,8.49l11.58,20c2.69,4.66,2.69,12.3,0,17l-11.58,20.06c-2.69,4.66-9.31,8.48-14.69,8.48Z"/><path class="cls-13" d="M140,69.42a6.3,6.3,0,0,1-4.9-2.82L128,54.34a6.25,6.25,0,0,1,0-5.65l7.08-12.26A6.28,6.28,0,0,1,140,33.6h14.15a6.28,6.28,0,0,1,4.9,2.83l7.08,12.26a6.25,6.25,0,0,1,0,5.65L159,66.6a6.3,6.3,0,0,1-4.9,2.82Z"/></g></g></svg>