<svg xmlns="http://www.w3.org/2000/svg" viewBox="0 0 518.61 430.06"><defs><style>.cls-1,.cls-10,.cls-11,.cls-12,.cls-13,.cls-14,.cls-15,.cls-16,.cls-17,.cls-18,.cls-19,.cls-2,.cls-20,.cls-3,.cls-4,.cls-5,.cls-6,.cls-7,.cls-8,.cls-9{fill:none;stroke-linejoin:round;}.cls-1,.cls-10,.cls-11,.cls-15,.cls-16,.cls-17,.cls-18,.cls-19,.cls-2,.cls-20,.cls-3,.cls-4,.cls-5,.cls-6,.cls-7,.cls-9{stroke:#28d1b1;}.cls-1,.cls-10,.cls-11,.cls-13,.cls-14,.cls-15,.cls-17,.cls-18,.cls-19,.cls-2,.cls-20,.cls-3,.cls-4,.cls-5,.cls-6,.cls-7,.cls-8,.cls-9{stroke-linecap:round;}.cls-1,.cls-10,.cls-11,.cls-14,.cls-17,.cls-18,.cls-19,.cls-2,.cls-20,.cls-3,.cls-4,.cls-5,.cls-6,.cls-7,.cls-8,.cls-9{stroke-width:1.5px;}.cls-2{stroke-dasharray:0 10.61 10.61 53.05;}.cls-3{stroke-dasharray:53.05 31.83 0 10.61 10.61 53.05;}.cls-4{stroke-dasharray:0 10.77 10.77 53.83;}.cls-5{stroke-dasharray:53.83 32.3 0 10.77 10.77 53.83;}.cls-6{stroke-dasharray:0 10.16;}.cls-7{stroke-dasharray:10.16 10.16 0 10.16;}.cls-8{stroke:#9e62dd;}.cls-9{stroke-dasharray:0 9.86;}.cls-10{stroke-dasharray:0 10.55;}.cls-11{stroke-dasharray:10.55 10.55 0 10.55;}.cls-12,.cls-13,.cls-14{stroke:#6738b8;}.cls-12,.cls-13,.cls-15,.cls-16{stroke-width:2.5px;}.cls-17{stroke-dasharray:0 15.52;}.cls-18{stroke-dasharray:15.52 15.52 0 15.52;}.cls-19{stroke-dasharray:0 7.67;}.cls-20{stroke-dasharray:7.67 7.67 0 7.67;}</style></defs><title>insights-ownership_2</title><g id="Layer_2" data-name="Layer 2"><g id="insights-ownership_2"><path class="cls-1" d="M452.43,104.09q-3.93-6.48-8.38-12.77-5.24-7.41-11-14.25"/><path class="cls-2" d="M410.86,54.29a212.55,212.55,0,0,0-39-27.35"/><path class="cls-3" d="M347.81,15.72a214.55,214.55,0,0,0-257.38,81"/><path class="cls-1" d="M77.21,119.64q-4,8.14-7.37,16.58-2.78,7-5,14.26"/><path class="cls-1" d="M84.36,323.57q4.55,7.71,9.81,15.17,4.42,6.25,9.2,12.1"/><path class="cls-4" d="M125.62,374.21A212.74,212.74,0,0,0,165,402.33"/><path class="cls-5" d="M189.25,413.88a214.51,214.51,0,0,0,260.19-83"/><path class="cls-1" d="M462.5,307.36q4-8.48,7.31-17.25,2.55-6.81,4.62-13.79"/><path class="cls-1" d="M378,118.74q-2.21-2.49-4.52-4.88"/><path class="cls-6" d="M366.14,106.82q-1.89-1.69-3.84-3.33"/><path class="cls-7" d="M358.35,100.3a145.42,145.42,0,0,0-21.29-13.79"/><path class="cls-1" d="M332.53,84.22q-3-1.45-6-2.77"/><path class="cls-8" d="M247.57,313.16a3.62,3.62,0,0,0,0,3.24l6.89,11.92a3.58,3.58,0,0,0,2.8,1.62H271a3.58,3.58,0,0,0,2.8-1.62l6.89-11.92a3.62,3.62,0,0,0,0-3.24"/><path class="cls-8" d="M251.13,307l-3.56,6.16a3.62,3.62,0,0,0,0,3.24l6.89,11.92a3.58,3.58,0,0,0,2.8,1.62H271a3.58,3.58,0,0,0,2.8-1.62l6.89-11.92a3.62,3.62,0,0,0,0-3.24L277.15,307"/><path class="cls-8" d="M319.48,307a11.36,11.36,0,0,0,1.32,5.55l23.64,40.95a12.32,12.32,0,0,0,9.62,5.55h47.26a12.34,12.34,0,0,0,9.62-5.55l23.64-40.95a12.33,12.33,0,0,0,0-11.1l-23.64-40.93a12.32,12.32,0,0,0-9.62-5.55H372.79"/><path class="cls-1" d="M140.93,146.46q-1.58,2.92-3,5.94"/><path class="cls-9" d="M134,161.43c-.6,1.53-1.18,3.06-1.74,4.61"/><path class="cls-1" d="M130.65,170.72q-1,3.15-1.88,6.38"/><path class="cls-1" d="M211.74,81.45q-3.06,1.32-6.05,2.77"/><path class="cls-10" d="M196.37,89.17q-2.28,1.33-4.52,2.73"/><path class="cls-11" d="M187.44,94.79a146.15,146.15,0,0,0-20.37,16.74"/><path class="cls-1" d="M163.39,115.29q-2.28,2.43-4.46,4.95"/><path class="cls-12" d="M165.43,182.31v-8a14,14,0,0,1,14-14h179.4a14,14,0,0,1,14,14V293a14,14,0,0,1-14,14H179.41a14,14,0,0,1-14-14v-6.63"/><path class="cls-12" d="M165.43,182.31v-8a14,14,0,0,1,14-14h179.4a14,14,0,0,1,14,14V293a14,14,0,0,1-14,14H179.41a14,14,0,0,1-14-14v-6.63"/><path class="cls-13" d="M203.38,160.36V113.55a65.73,65.73,0,0,1,65.73-65.73h0a65.73,65.73,0,0,1,65.73,65.73v46.81"/><path class="cls-13" d="M227.48,160.36V113a41.63,41.63,0,0,1,41.63-41.63h0A41.63,41.63,0,0,1,310.74,113v47.32"/><path class="cls-8" d="M167.86,286.39a12.3,12.3,0,0,0,9.62-5.56l23.64-40.94a12.33,12.33,0,0,0,0-11.1l-23.64-40.93a12.32,12.32,0,0,0-9.62-5.55H120.6a12.32,12.32,0,0,0-9.62,5.55L87.34,228.79a12.33,12.33,0,0,0,0,11.1L111,280.83a12.3,12.3,0,0,0,9.62,5.56Z"/><path class="cls-8" d="M167.86,286.39a12.3,12.3,0,0,0,9.62-5.56l23.64-40.94a12.33,12.33,0,0,0,0-11.1l-23.64-40.93a12.32,12.32,0,0,0-9.62-5.55H120.6a12.32,12.32,0,0,0-9.62,5.55L87.34,228.79a12.33,12.33,0,0,0,0,11.1L111,280.83a12.3,12.3,0,0,0,9.62,5.56Z"/><path class="cls-14" d="M158.9,150.52a3.58,3.58,0,0,0,2.8-1.62L168.59,137a3.62,3.62,0,0,0,0-3.24l-6.89-11.91a3.58,3.58,0,0,0-2.8-1.62H145.14a3.58,3.58,0,0,0-2.8,1.62l-6.88,11.91a3.56,3.56,0,0,0,0,3.24l6.88,11.92a3.58,3.58,0,0,0,2.8,1.62Z"/><path class="cls-14" d="M158.9,150.52a3.58,3.58,0,0,0,2.8-1.62L168.59,137a3.62,3.62,0,0,0,0-3.24l-6.89-11.91a3.58,3.58,0,0,0-2.8-1.62H145.14a3.58,3.58,0,0,0-2.8,1.62l-6.88,11.91a3.56,3.56,0,0,0,0,3.24l6.88,11.92a3.58,3.58,0,0,0,2.8,1.62Z"/><path class="cls-14" d="M491.49,264a3.61,3.61,0,0,0,2.81-1.62l6.88-11.92a3.62,3.62,0,0,0,0-3.24L494.3,235.3a3.61,3.61,0,0,0-2.81-1.62H477.73a3.58,3.58,0,0,0-2.8,1.62l-6.88,11.91a3.56,3.56,0,0,0,0,3.24l6.88,11.92a3.58,3.58,0,0,0,2.8,1.62Z"/><path class="cls-14" d="M491.49,264a3.61,3.61,0,0,0,2.81-1.62l6.88-11.92a3.62,3.62,0,0,0,0-3.24L494.3,235.3a3.61,3.61,0,0,0-2.81-1.62H477.73a3.58,3.58,0,0,0-2.8,1.62l-6.88,11.91a3.56,3.56,0,0,0,0,3.24l6.88,11.92a3.58,3.58,0,0,0,2.8,1.62Z"/><path class="cls-15" d="M46.79,280.94a2.64,2.64,0,0,1-2.4-1.44l-5.78-10.1a3.08,3.08,0,0,1,0-2.89l5.78-10.1a2.63,2.63,0,0,1,2.4-1.45h12a2.63,2.63,0,0,1,2.4,1.45L67,266.51a3.08,3.08,0,0,1,0,2.89l-5.78,10.1a2.64,2.64,0,0,1-2.4,1.44Z"/><path class="cls-16" d="M459.61,174.6a2.63,2.63,0,0,1-2.4-1.45l-5.78-10.1a3.08,3.08,0,0,1,0-2.89l5.78-10.1a2.64,2.64,0,0,1,2.4-1.44h12a2.64,2.64,0,0,1,2.4,1.44l5.78,10.1a3.08,3.08,0,0,1,0,2.89L474,173.15a2.63,2.63,0,0,1-2.4,1.45Z"/><path class="cls-1" d="M5.69,310.66a1.53,1.53,0,0,1-1.39-.84L1,304a1.77,1.77,0,0,1,0-1.67l3.34-5.85a1.53,1.53,0,0,1,1.39-.83h7a1.54,1.54,0,0,1,1.39.83l3.34,5.85a1.77,1.77,0,0,1,0,1.67L14,309.82a1.54,1.54,0,0,1-1.39.84Z"/><path class="cls-8" d="M506,141.39a1.55,1.55,0,0,1-1.4-.83l-3.34-5.85a1.82,1.82,0,0,1,0-1.67l3.34-5.84a1.54,1.54,0,0,1,1.4-.84h6.95a1.51,1.51,0,0,1,1.39.84l3.34,5.84a1.77,1.77,0,0,1,0,1.67l-3.34,5.85a1.52,1.52,0,0,1-1.39.83Z"/><path class="cls-1" d="M408.09,139.74a1.54,1.54,0,0,1-1.39-.84l-3.34-5.84a1.82,1.82,0,0,1,0-1.67l3.34-5.85a1.54,1.54,0,0,1,1.39-.83h7a1.52,1.52,0,0,1,1.39.83l3.34,5.85a1.77,1.77,0,0,1,0,1.67l-3.34,5.84a1.51,1.51,0,0,1-1.39.84Z"/><path class="cls-15" d="M107.15,123.4a1.53,1.53,0,0,1-1.39-.84l-3.34-5.84a1.77,1.77,0,0,1,0-1.67l3.34-5.85a1.53,1.53,0,0,1,1.39-.83h7a1.54,1.54,0,0,1,1.39.83l3.34,5.85a1.77,1.77,0,0,1,0,1.67l-3.34,5.84a1.54,1.54,0,0,1-1.39.84Z"/><path class="cls-13" d="M413.31,241.46a5.75,5.75,0,0,1-4.33-2.4l-10.1-17.8a4.34,4.34,0,0,1,0-4.81l10.1-17.8a5,5,0,0,1,4.33-2.41h20.2a5.71,5.71,0,0,1,4.33,2.41L448,216.45a4.38,4.38,0,0,1,0,4.81l-10.11,17.8a5,5,0,0,1-4.33,2.4Z"/><path class="cls-1" d="M205.94,346q3,1.44,6.05,2.76"/><path class="cls-17" d="M226.56,354q3.7,1.14,7.48,2.07"/><path class="cls-18" d="M241.62,357.77a146.07,146.07,0,0,0,83.7-8.67"/><path class="cls-1" d="M332.39,345.91q3-1.46,5.92-3"/><path class="cls-1" d="M142.46,286.39c1.1,1.93,2.23,3.84,3.41,5.71"/><path class="cls-19" d="M150.11,298.5c.74,1,1.49,2.08,2.25,3.11"/><path class="cls-20" d="M154.69,304.66a146.67,146.67,0,0,0,12.79,14.27"/><path class="cls-1" d="M170.26,321.58q2.44,2.26,5,4.41"/><path class="cls-13" d="M191.17,379.11a6.25,6.25,0,0,0,4.9-2.83l12.06-20.87a6.29,6.29,0,0,0,0-5.67l-12.06-20.86a6.25,6.25,0,0,0-4.9-2.83h-24.1a6.28,6.28,0,0,0-4.9,2.83l-12,20.86a6.29,6.29,0,0,0,0,5.67l12,20.87a6.28,6.28,0,0,0,4.9,2.83Z"/><path class="cls-13" d="M191.17,379.11a6.25,6.25,0,0,0,4.9-2.83l12.06-20.87a6.29,6.29,0,0,0,0-5.67l-12.06-20.86a6.25,6.25,0,0,0-4.9-2.83h-24.1a6.28,6.28,0,0,0-4.9,2.83l-12,20.86a6.29,6.29,0,0,0,0,5.67l12,20.87a6.28,6.28,0,0,0,4.9,2.83Z"/><path class="cls-8" d="M56.22,222.77a6.28,6.28,0,0,0,4.9-2.83l12.05-20.87a6.27,6.27,0,0,0,0-5.66L61.12,172.54a6.28,6.28,0,0,0-4.9-2.83H32.12a6.26,6.26,0,0,0-4.9,2.83l-12,20.87a6.27,6.27,0,0,0,0,5.66l12,20.87a6.26,6.26,0,0,0,4.9,2.83Z"/><path class="cls-8" d="M56.22,222.77a6.28,6.28,0,0,0,4.9-2.83l12.05-20.87a6.27,6.27,0,0,0,0-5.66L61.12,172.54a6.28,6.28,0,0,0-4.9-2.83H32.12a6.26,6.26,0,0,0-4.9,2.83l-12,20.87a6.27,6.27,0,0,0,0,5.66l12,20.87a6.26,6.26,0,0,0,4.9,2.83Z"/></g></g></svg>