<svg xmlns="http://www.w3.org/2000/svg" viewBox="0 0 451.09 397.17"><defs><style>.cls-1,.cls-10,.cls-11,.cls-13,.cls-2,.cls-3,.cls-4,.cls-5,.cls-6,.cls-7,.cls-8,.cls-9{fill:none;stroke-linecap:round;stroke-linejoin:round;}.cls-1,.cls-2,.cls-6{stroke:#5e4098;}.cls-1,.cls-11,.cls-6,.cls-9{stroke-width:1.5px;}.cls-10,.cls-2{stroke-width:1.86px;}.cls-10,.cls-3,.cls-4,.cls-5,.cls-9{stroke:#28d1b1;}.cls-13,.cls-3,.cls-4,.cls-5,.cls-7,.cls-8{stroke-width:2.5px;}.cls-4{stroke-dasharray:0 14.42 14.42 72.08;}.cls-5{stroke-dasharray:72.08 43.25 0 14.42 14.42 72.08;}.cls-6{stroke-dasharray:11.81 11.81 0 11.81;}.cls-11,.cls-7{stroke:#6738b8;}.cls-8{stroke:#9c63db;}.cls-12{opacity:0.1;}.cls-13{stroke:#9e62dd;}</style></defs><title>insights-data_richness_2</title><g id="Layer_2" data-name="Layer 2"><g id="insights-data_richness_2"><path class="cls-1" d="M198.81,17.58A187.71,187.71,0,0,0,148.08,41"/><path class="cls-1" d="M438.49,173.7A188.77,188.77,0,0,0,303.75,17.42"/><path class="cls-2" d="M404,309.64a187.5,187.5,0,0,0,34.33-85"/><path class="cls-1" d="M305.91,379.3a187.88,187.88,0,0,0,57.7-28.93"/><path class="cls-1" d="M138.82,349.86a188,188,0,0,0,62.1,30.52"/><path class="cls-1" d="M64.75,224.59a187.52,187.52,0,0,0,33.91,84.49"/><path class="cls-3" d="M146,248.85a116.2,116.2,0,0,0,16.82,25.87"/><path class="cls-4" d="M196.32,301.66a116.3,116.3,0,0,0,62.57,13.65"/><path class="cls-5" d="M294,307.59a116.87,116.87,0,1,0-110.5-203.91"/><path class="cls-3" d="M157.86,128.85a117.59,117.59,0,0,0-15,27"/><circle class="cls-6" cx="251.56" cy="198.68" r="45.13" transform="translate(-38.92 63.11) rotate(-13.28)"/><line class="cls-1" x1="407" y1="43.24" x2="251.56" y2="198.68"/><line class="cls-2" x1="251.56" y1="45.95" x2="251.56" y2="351.4"/><line class="cls-7" x1="40.59" y1="62.96" x2="81.43" y2="62.96"/><line class="cls-7" x1="40.59" y1="74.48" x2="97.23" y2="74.48"/><line class="cls-8" x1="40.59" y1="86" x2="117.76" y2="86"/><line class="cls-8" x1="40.59" y1="97.52" x2="117.76" y2="97.52"/><line class="cls-8" x1="40.59" y1="109.04" x2="117.76" y2="109.04"/><path class="cls-9" d="M120.94,229.09a7.37,7.37,0,0,1-5.79-3.62L101.39,202.3a10,10,0,0,1,0-6.52l13.76-24.62a6.57,6.57,0,0,1,5.79-2.9h27.52c2.18,0,4.35,1.45,5.8,2.9L168,195.06a10.08,10.08,0,0,1,0,6.51l-13.76,23.9c-1.45,2.18-3.62,2.9-5.8,3.62Z"/><path class="cls-9" d="M376.6,350.37a4.45,4.45,0,0,1-3.49-2.19l-8.3-14a6,6,0,0,1,0-3.93l8.3-14.85a4,4,0,0,1,3.49-1.75h16.6a5.39,5.39,0,0,1,3.49,1.75l8.3,14.42a6,6,0,0,1,0,3.93l-8.3,14.41a6,6,0,0,1-3.49,2.19Z"/><path class="cls-9" d="M436,207.85a2.22,2.22,0,0,1-1.74-1.09l-4.15-7a3,3,0,0,1,0-2l4.15-7.42a2,2,0,0,1,1.74-.88h8.3a2.69,2.69,0,0,1,1.75.88l4.15,7.2a3,3,0,0,1,0,2L446,206.76a3,3,0,0,1-1.75,1.09Z"/><path class="cls-9" d="M247.41,396.42a2.21,2.21,0,0,1-1.75-1.09l-4.15-7a3,3,0,0,1,0-2l4.15-7.43a2,2,0,0,1,1.75-.87h8.3a2.7,2.7,0,0,1,1.74.87l4.15,7.21a3,3,0,0,1,0,2l-4.15,7.2a2.91,2.91,0,0,1-1.74,1.09Z"/><path class="cls-10" d="M247.41,19.27a2.21,2.21,0,0,1-1.75-1.09l-4.15-7a3,3,0,0,1,0-2l4.15-7.43a2,2,0,0,1,1.75-.87h8.3a2.66,2.66,0,0,1,1.74.87L261.6,9a3,3,0,0,1,0,2l-4.15,7.21a2.91,2.91,0,0,1-1.74,1.09Z"/><path class="cls-9" d="M109.92,350.37a4.45,4.45,0,0,1-3.5-2.19l-8.3-14a6,6,0,0,1,0-3.93l8.3-14.85a4,4,0,0,1,3.5-1.75h16.59a5.44,5.44,0,0,1,3.5,1.75l8.3,14.42a6.15,6.15,0,0,1,0,3.93L130,348.18a6.06,6.06,0,0,1-3.5,2.19Z"/><rect class="cls-11" x="20.17" y="44.95" width="119.2" height="148.61" rx="8.94"/><path class="cls-11" d="M129.51,193.91a8.93,8.93,0,0,1-8.93,8.93H19.24a8.93,8.93,0,0,1-8.93-8.93V63.17a8.93,8.93,0,0,1,8.93-8.94"/><path class="cls-11" d="M120,203.46A8.93,8.93,0,0,1,111,212.4H9.69a8.94,8.94,0,0,1-8.94-8.94V72.72a8.93,8.93,0,0,1,8.94-8.93"/><g class="cls-12"><line class="cls-11" x1="120.26" y1="177.94" x2="39.28" y2="177.94"/></g><g class="cls-12"><line class="cls-11" x1="120.26" y1="163.02" x2="39.28" y2="163.02"/></g><g class="cls-12"><line class="cls-11" x1="120.26" y1="148.1" x2="39.28" y2="148.1"/></g><g class="cls-12"><line class="cls-11" x1="120.26" y1="133.18" x2="39.28" y2="133.18"/></g><path class="cls-13" d="M43.54,171.8c35-2.93,54.72-6.8,65.2-43.59"/><path class="cls-3" d="M43.54,155.61s55,1.76,70-14.23"/></g></g></svg>