<svg xmlns="http://www.w3.org/2000/svg" id="Layer_1" viewBox="0 0 90 90">
    <style>
        .st0,.st1{fill:none;stroke:#6738b8;stroke-width:1.5;stroke-linecap:round;stroke-linejoin:round}.st1{stroke:#9e62dd}
    </style>
    <path id="XMLID_9_" d="M83.8 59.7V16.4c0-4.2-3.4-7.7-7.7-7.7H8.7C4.5 8.7 1 12.1 1 16.4v49.4c0 4.2 3.5 7.7 7.7 7.7H66" class="st0"/>
    <path id="XMLID_8_" d="M28 17.5h54.8" class="st0"/>
    <path id="XMLID_7_" d="M9.8 38.2h44" class="st1"/>
    <path id="XMLID_6_" d="M9.8 33.8h52.9" class="st1"/>
    <path id="XMLID_5_" d="M9.8 59.7l8.3-5.2 7.6 3.2 17.5-10.9" class="st1"/>
    <path id="XMLID_4_" d="M61 63.7c-.6 0-1.2-.4-1.6-.9l-3.8-6.7c-.3-.6-.3-1.2 0-1.8l3.8-6.7c.3-.5.9-.9 1.6-.9h7.7c.6 0 1.2.4 1.6.9l3.8 6.7c.3.6.3 1.2 0 1.8l-3.8 6.7c-.3.5-.9.9-1.6.9H61z" class="st0"/>
    <path id="XMLID_3_" d="M81.7 69c-.3 0-.7-.2-.9-.5l-2.1-3.7c-.2-.3-.2-.7 0-1l2.1-3.7c.2-.3.5-.5.9-.5h4.2c.3 0 .7.2.9.5l2.1 3.7c.2.3.2.7 0 1l-2.1 3.7c-.2.3-.5.5-.9.5h-4.2z" class="st1"/>
    <path id="XMLID_2_" d="M67.9 76.7c-.2 0-.4-.1-.6-.3L66 73.9c-.1-.2-.1-.5 0-.7l1.4-2.4c.1-.2.3-.3.6-.3h2.8c.2 0 .4.1.6.3l1.4 2.4c.1.2.1.5 0 .7l-1.4 2.4c-.1.2-.3.3-.6.3 0 .1-2.9.1-2.9.1z" class="st1"/>
    <path id="XMLID_1_" d="M81.5 81.3c-.2 0-.4-.1-.5-.3l-1.2-2.1c-.1-.2-.1-.4 0-.6l1.2-2.1c.1-.2.3-.3.5-.3H84c.2 0 .4.1.5.3l1.2 2.1c.1.2.1.4 0 .6L84.5 81c-.1.2-.3.3-.5.3h-2.5z" class="st0"/>
</svg>
