<svg xmlns="http://www.w3.org/2000/svg" id="Layer_1" viewBox="0 0 90 90">
    <style>
        .st0{stroke:#6738b8}.st0,.st1,.st2{fill:none;stroke-width:1.5;stroke-linecap:round;stroke-linejoin:round}.st1{stroke-dasharray:15,9.28,0,3.98,3.98,13.26;stroke:#6738b8}.st2{stroke:#9e62dd}
    </style>
    <path id="XMLID_13_" d="M20.1 8.7c17.1-11.7 40-9.9 55 4.3" class="st0"/>
    <path id="XMLID_12_" d="M89 45c0 24.3-19.7 44-44 44S1 69.3 1 45c0-7.1 1.7-14.1 5-20.3" class="st0"/>
    <path id="XMLID_11_" d="M61.2 70.5c-14.1 9-32.7 4.8-41.7-9.2s-4.8-32.7 9.2-41.7c11.6-7.4 26.8-6 36.9 3.5" class="st1"/>
    <path id="XMLID_10_" d="M75.2 45c0 3.1-.5 6.1-1.4 9.1" class="st0"/>
    <path id="XMLID_9_" d="M29.2 45c0-8.7 7.1-15.8 15.9-15.8 4 0 7.9 1.5 10.8 4.3" class="st0"/>
    <path id="XMLID_8_" d="M60.8 45c0 8.7-7.1 15.8-15.8 15.8" class="st0"/>
    <path id="XMLID_7_" d="M45 60.8V89 1v59.8" class="st0"/>
    <path id="XMLID_6_" d="M89 45z" class="st0"/>
    <path id="XMLID_5_" d="M76.1 13.9L45.6 44.4l30.5-30.5z" class="st1"/>
    <path id="XMLID_4_" d="M9.7 19c-.3 0-.6-.2-.8-.5L7 15.3c-.1-.3-.1-.6 0-.9L8.9 11c.2-.3.5-.4.8-.4h3.8c.3 0 .6.2.8.4l1.9 3.3c.1.3.1.6 0 .9l-1.9 3.3c-.2.3-.5.4-.8.5H9.7z" class="st2"/>
    <path id="XMLID_3_" d="M67.2 66.6c-.2 0-.4-.1-.6-.3l-1.4-2.4c-.1-.2-.1-.4 0-.6l1.4-2.4c.1-.2.3-.3.6-.3H70c.2 0 .4.1.6.3l1.4 2.4c.1.2.1.4 0 .6l-1.4 2.4c-.1.2-.3.3-.6.3h-2.8z" class="st2"/>
    <path id="XMLID_2_" d="M32 59.4c-.3 0-.6-.2-.8-.5l-1.9-3.3c-.1-.3-.1-.6 0-.9l1.9-3.3c.2-.3.5-.4.8-.5h3.8c.3 0 .6.2.8.5l1.9 3.3c.1.3.1.6 0 .9l-1.9 3.3c-.2.3-.5.4-.8.5H32z" class="st2"/>
</svg>
