<?xml version="1.0" encoding="utf-8"?>
<!-- Generator: Adobe Illustrator 23.0.1, SVG Export Plug-In . SVG Version: 6.00 Build 0)  -->
<svg version="1.1" id="Layer_1" xmlns="http://www.w3.org/2000/svg" xmlns:xlink="http://www.w3.org/1999/xlink" x="0px" y="0px"
	 viewBox="0 0 90 90" style="enable-background:new 0 0 90 90;" xml:space="preserve">
<style type="text/css">
	.st0{fill:none;stroke:#9E62DD;stroke-width:1.5;stroke-linecap:round;stroke-linejoin:round;stroke-dasharray:5.2166;}
	.st1{fill:none;stroke:#9E62DD;stroke-width:1.5;stroke-linecap:round;stroke-linejoin:round;stroke-dasharray:11.4594;}
	.st2{fill:none;stroke:#9E62DD;stroke-width:1.5;stroke-linecap:round;stroke-linejoin:round;stroke-dasharray:8.1681;}
	.st3{fill:none;stroke:#9E62DD;stroke-width:1.5;stroke-linecap:round;stroke-linejoin:round;stroke-dasharray:8.239;}
	.st4{fill:none;stroke:#9E62DD;stroke-width:1.5;stroke-linecap:round;stroke-linejoin:round;stroke-dasharray:11.5975;}
	.st5{fill:none;stroke:#9E62DD;stroke-width:1.5;stroke-linecap:round;stroke-linejoin:round;stroke-dasharray:5.3457;}
	.st6{fill:none;stroke:#9E62DD;stroke-width:1.5;stroke-linecap:round;stroke-linejoin:round;stroke-dasharray:9.8706;}
	.st7{fill:none;stroke:#9E62DD;stroke-width:1.5;stroke-linecap:round;stroke-linejoin:round;}
	.st8{fill:none;stroke:#9E62DD;stroke-width:1.5;stroke-linecap:round;stroke-linejoin:round;stroke-dasharray:11.8888;}
	.st9{fill:none;stroke:#9E62DD;stroke-width:1.5;stroke-linecap:round;stroke-linejoin:round;stroke-miterlimit:10;}
	.st10{fill:none;stroke:#9E62DD;stroke-width:1.5;stroke-linecap:round;stroke-linejoin:round;stroke-dasharray:8.179;}
	.st11{fill:none;stroke:#9E62DD;stroke-width:1.5;stroke-linecap:round;stroke-linejoin:round;stroke-dasharray:8.0799;}
	.st12{fill:none;stroke:#9E62DD;stroke-width:1.5;stroke-linecap:round;stroke-linejoin:round;stroke-dasharray:8.6802;}
	.st13{fill:none;stroke:#9E62DD;stroke-width:1.5;stroke-linecap:round;stroke-linejoin:round;stroke-dasharray:8.2385;}
	.st14{fill:none;stroke:#9E62DD;stroke-width:1.5;stroke-linecap:round;stroke-linejoin:round;stroke-dasharray:7.9531;}
	.st15{fill:none;stroke:#9E62DD;stroke-width:1.5;stroke-linecap:round;stroke-linejoin:round;stroke-dasharray:5.3123;}
	.st16{fill:none;stroke:#9E62DD;stroke-width:1.5;stroke-linecap:round;stroke-linejoin:round;stroke-dasharray:13.9701;}
	
		.st17{fill:none;stroke:#9E62DD;stroke-width:1.5;stroke-linecap:round;stroke-linejoin:round;stroke-miterlimit:10;stroke-dasharray:29.7185,5.9437,2.3775,3.5662,3.5662,11.8875;}
	.st18{fill:none;stroke:#9E62DD;stroke-width:1.5;stroke-linecap:round;stroke-linejoin:round;stroke-dasharray:7.3306;}
	
		.st19{fill:none;stroke:#9E62DD;stroke-width:1.5;stroke-linecap:round;stroke-linejoin:round;stroke-miterlimit:10;stroke-dasharray:19.8123,3.9625,1.585,2.3775,2.3775,7.925;}
	.st20{fill:none;stroke:#6738B8;stroke-width:1.5;stroke-linecap:round;stroke-linejoin:round;}
</style>
<title>Snowplow_Website-Services_Icons</title>
<g id="XMLID_289_">
	<line class="st0" x1="80.5" y1="37.8" x2="76.8" y2="41.5"/>
</g>
<g id="XMLID_288_">
	<line class="st1" x1="78" y1="58.1" x2="66.6" y2="58.1"/>
</g>
<g id="XMLID_287_">
	<line class="st2" x1="45.1" y1="10" x2="50.9" y2="15.8"/>
</g>
<g id="XMLID_286_">
	<line class="st3" x1="70" y1="78.4" x2="70" y2="70.1"/>
</g>
<g id="XMLID_285_">
	<line class="st4" x1="74.2" y1="24.4" x2="62.6" y2="24.4"/>
</g>
<g id="XMLID_284_">
	<line class="st5" x1="48.8" y1="40.3" x2="45" y2="36.5"/>
</g>
<g id="XMLID_283_">
	<line class="st6" x1="57.6" y1="12.7" x2="47.7" y2="12.7"/>
</g>
<g id="XMLID_282_">
	<polyline class="st7" points="58.4,72.3 49,62.9 49,58.5 45,58.5 	"/>
</g>
<g id="XMLID_281_">
	<line class="st8" x1="54.7" y1="56.6" x2="54.7" y2="68.5"/>
</g>
<polyline id="XMLID_279_" class="st9" points="69.6,24.4 69.6,32.9 59,43.6 "/>
<g id="XMLID_278_">
	<line class="st10" x1="45" y1="47.7" x2="39.2" y2="41.9"/>
</g>
<g id="XMLID_277_">
	<line class="st11" x1="44.9" y1="23.6" x2="36.8" y2="23.6"/>
</g>
<g id="XMLID_276_">
	<line class="st12" x1="15.5" y1="73.1" x2="15.5" y2="64.4"/>
</g>
<g id="XMLID_275_">
	<line class="st13" x1="39.6" y1="2.5" x2="39.6" y2="10.8"/>
</g>
<g id="XMLID_274_">
	<line class="st14" x1="38.7" y1="59.2" x2="30.7" y2="59.2"/>
</g>
<g id="XMLID_273_">
	<line class="st15" x1="13.4" y1="43" x2="9.7" y2="46.7"/>
</g>
<g id="XMLID_272_">
	<polyline class="st7" points="26.9,18.1 17.4,27.7 17.4,32.1 13.4,32.1 	"/>
</g>
<g id="XMLID_271_">
	<line class="st16" x1="29.6" y1="68.5" x2="19.7" y2="78.4"/>
</g>
<g id="XMLID_269_">
	<polyline class="st7" points="34.3,59.2 34.3,51.5 23.4,40.9 	"/>
</g>
<g id="XMLID_268_">
	<path class="st17" d="M21.7,40.9c-0.2,0-0.6-0.2-0.7-0.4l-0.6-1.1c-0.1-0.2-0.1-0.6,0-0.8l0.6-1.1c0.1-0.2,0.4-0.4,0.7-0.4h1.2
		c0.2,0,0.6,0.2,0.7,0.4l0.6,1.1c0.1,0.2,0.1,0.6,0,0.8l-0.6,1.1c-0.1,0.2-0.4,0.4-0.7,0.4H21.7z"/>
</g>
<g id="XMLID_267_">
	<path class="st17" d="M14.2,43.3c-0.2,0-0.6-0.2-0.7-0.4l-0.6-1.1c-0.1-0.2-0.1-0.6,0-0.8l0.6-1.1c0.1-0.2,0.4-0.4,0.7-0.4h1.2
		c0.2,0,0.6,0.2,0.7,0.4l0.6,1.1c0.1,0.2,0.1,0.6,0,0.8l-0.6,1.1c-0.1,0.2-0.4,0.4-0.7,0.4H14.2z"/>
</g>
<g id="XMLID_266_">
	<path class="st17" d="M14.9,64.4c-0.2,0-0.6-0.2-0.7-0.4L13.6,63c-0.1-0.2-0.1-0.6,0-0.8l0.6-1.1c0.1-0.2,0.4-0.4,0.7-0.4h1.2
		c0.2,0,0.6,0.2,0.7,0.4l0.6,1.1c0.1,0.2,0.1,0.6,0,0.8L16.8,64c-0.1,0.2-0.4,0.4-0.7,0.4H14.9z"/>
</g>
<g id="XMLID_265_">
	<path class="st17" d="M28,61c-0.2,0-0.6-0.2-0.7-0.4l-0.6-1.1c-0.1-0.2-0.1-0.6,0-0.8l0.6-1.1c0.1-0.2,0.4-0.4,0.7-0.4h1.2
		c0.2,0,0.6,0.2,0.7,0.4l0.6,1.1c0.1,0.2,0.1,0.6,0,0.8l-0.6,1.1c-0.1,0.2-0.4,0.4-0.7,0.4H28z"/>
</g>
<g id="XMLID_264_">
	<path class="st17" d="M40,61.1c-0.2,0-0.6-0.2-0.7-0.4l-0.6-1.1c-0.1-0.2-0.1-0.6,0-0.8l0.6-1.1c0.1-0.2,0.4-0.4,0.7-0.4h1.2
		c0.2,0,0.6,0.2,0.7,0.4l0.6,1.1c0.1,0.2,0.1,0.6,0,0.8l-0.6,1.1c-0.1,0.2-0.4,0.4-0.7,0.4H40z"/>
</g>
<g id="XMLID_336_">
	<path class="st17" d="M38.1,78.8c-0.2,0-0.6-0.2-0.7-0.4l-0.6-1.1c-0.1-0.2-0.1-0.6,0-0.8l0.6-1.1c0.1-0.2,0.4-0.4,0.7-0.4h1.2
		c0.2,0,0.6,0.2,0.7,0.4l0.6,1.1c0.1,0.2,0.1,0.6,0,0.8L40,78.4c-0.1,0.2-0.4,0.4-0.7,0.4H38.1z"/>
</g>
<g id="XMLID_263_">
	<path class="st17" d="M30.4,68.9c-0.2,0-0.6-0.2-0.7-0.4l-0.6-1.1c-0.1-0.2-0.1-0.6,0-0.8l0.6-1.1c0.1-0.2,0.4-0.4,0.7-0.4h1.2
		c0.2,0,0.6,0.2,0.7,0.4l0.6,1.1c0.1,0.2,0.1,0.6,0,0.8l-0.6,1.1c-0.1,0.2-0.4,0.4-0.7,0.4H30.4z"/>
</g>
<g id="XMLID_262_">
	<path class="st17" d="M37.2,42.4c-0.2,0-0.6-0.2-0.7-0.4L35.9,41c-0.1-0.2-0.1-0.6,0-0.8l0.6-1.1c0.1-0.2,0.4-0.4,0.7-0.4h1.2
		c0.2,0,0.6,0.2,0.7,0.4l0.6,1.1c0.1,0.2,0.1,0.6,0,0.8l-0.6,1.1c-0.1,0.2-0.4,0.4-0.7,0.4H37.2z"/>
</g>
<g id="XMLID_333_">
	<line class="st18" x1="57.8" y1="84.9" x2="52.6" y2="79.8"/>
</g>
<g id="XMLID_247_">
	<path class="st17" d="M50.7,80.3c-0.2,0-0.6-0.2-0.7-0.4l-0.6-1.1c-0.1-0.2-0.1-0.6,0-0.8L50,77c0.1-0.2,0.4-0.4,0.7-0.4h1.2
		c0.2,0,0.6,0.2,0.7,0.4l0.6,1.1c0.1,0.2,0.1,0.6,0,0.8l-0.6,1.1c-0.1,0.2-0.4,0.4-0.7,0.4H50.7z"/>
</g>
<g id="XMLID_261_">
	<path class="st17" d="M34.2,25.5c-0.2,0-0.6-0.2-0.7-0.4L32.9,24c-0.1-0.2-0.1-0.6,0-0.8l0.6-1.1c0.1-0.2,0.4-0.4,0.7-0.4h1.2
		c0.2,0,0.6,0.2,0.7,0.4l0.6,1.1c0.1,0.2,0.1,0.6,0,0.8l-0.6,1.1c-0.1,0.2-0.4,0.4-0.7,0.4H34.2z"/>
</g>
<g id="XMLID_344_">
	<path class="st17" d="M31.7,33.9c-0.2,0-0.6-0.2-0.7-0.4l-0.6-1.1c-0.1-0.2-0.1-0.6,0-0.8l0.6-1.1c0.1-0.2,0.4-0.4,0.7-0.4h1.2
		c0.2,0,0.6,0.2,0.7,0.4l0.6,1.1c0.1,0.2,0.1,0.6,0,0.8l-0.6,1.1c-0.1,0.2-0.4,0.4-0.7,0.4H31.7z"/>
</g>
<g id="XMLID_341_">
	<line class="st11" x1="45.2" y1="31.7" x2="53.3" y2="31.7"/>
</g>
<g id="XMLID_294_">
	<path class="st17" d="M55.8,33.6c0.2,0,0.6-0.2,0.7-0.4l0.6-1.1c0.1-0.2,0.1-0.6,0-0.8l-0.6-1.1c-0.1-0.2-0.4-0.4-0.7-0.4h-1.2
		c-0.2,0-0.6,0.2-0.7,0.4l-0.6,1.1c-0.1,0.2-0.1,0.6,0,0.8l0.6,1.1c0.1,0.2,0.4,0.4,0.7,0.4H55.8z"/>
</g>
<g id="XMLID_260_">
	<path class="st17" d="M51.6,19c-0.2,0-0.6-0.2-0.7-0.4l-0.6-1.1c-0.1-0.2-0.1-0.6,0-0.8l0.6-1.1c0.1-0.2,0.4-0.4,0.7-0.4h1.2
		c0.2,0,0.6,0.2,0.7,0.4l0.6,1.1c0.1,0.2,0.1,0.6,0,0.8l-0.6,1.1c-0.1,0.2-0.4,0.4-0.7,0.4H51.6z"/>
</g>
<g id="XMLID_259_">
	<path class="st17" d="M59.1,14.5c-0.2,0-0.6-0.2-0.7-0.4L57.8,13c-0.1-0.2-0.1-0.6,0-0.8l0.6-1.1c0.1-0.2,0.4-0.4,0.7-0.4h1.2
		c0.2,0,0.6,0.2,0.7,0.4l0.6,1.1c0.1,0.2,0.1,0.6,0,0.8L61,14.1c-0.1,0.2-0.4,0.4-0.7,0.4H59.1z"/>
</g>
<g id="XMLID_258_">
	<path class="st17" d="M59.8,26.2c-0.2,0-0.6-0.2-0.7-0.4l-0.6-1.1c-0.1-0.2-0.1-0.6,0-0.8l0.6-1.1c0.1-0.2,0.4-0.4,0.7-0.4H61
		c0.2,0,0.6,0.2,0.7,0.4l0.6,1.1c0.1,0.2,0.1,0.6,0,0.8l-0.6,1.1c-0.1,0.2-0.4,0.4-0.7,0.4H59.8z"/>
</g>
<g id="XMLID_257_">
	<path class="st17" d="M57,46.7c-0.2,0-0.6-0.2-0.7-0.4l-0.6-1.1c-0.1-0.2-0.1-0.6,0-0.8l0.6-1.1c0.1-0.2,0.4-0.4,0.7-0.4h1.2
		c0.2,0,0.6,0.2,0.7,0.4l0.6,1.1c0.1,0.2,0.1,0.6,0,0.8l-0.6,1.1c-0.1,0.2-0.4,0.4-0.7,0.4H57z"/>
</g>
<g id="XMLID_256_">
	<path class="st17" d="M74.6,45c-0.2,0-0.6-0.2-0.7-0.4l-0.6-1.1c-0.1-0.2-0.1-0.6,0-0.8l0.6-1.1c0.1-0.2,0.4-0.4,0.7-0.4h1.2
		c0.2,0,0.6,0.2,0.7,0.4l0.6,1.1c0.1,0.2,0.1,0.6,0,0.8l-0.6,1.1c-0.1,0.2-0.4,0.4-0.7,0.4H74.6z"/>
</g>
<g id="XMLID_255_">
	<path class="st17" d="M63.8,59.8c-0.2,0-0.6-0.2-0.7-0.4l-0.6-1.1c-0.1-0.2-0.1-0.6,0-0.8l0.6-1.1c0.1-0.2,0.4-0.4,0.7-0.4H65
		c0.2,0,0.6,0.2,0.7,0.4l0.6,1.1c0.1,0.2,0.1,0.6,0,0.8l-0.6,1.1c-0.1,0.2-0.4,0.4-0.7,0.4H63.8z"/>
</g>
<g id="XMLID_254_">
	<path class="st17" d="M69.4,70.1c-0.2,0-0.6-0.2-0.7-0.4l-0.6-1.1c-0.1-0.2-0.1-0.6,0-0.8l0.6-1.1c0.1-0.2,0.4-0.4,0.7-0.4h1.2
		c0.2,0,0.6,0.2,0.7,0.4l0.6,1.1c0.1,0.2,0.1,0.6,0,0.8l-0.6,1.1c-0.1,0.2-0.4,0.4-0.7,0.4H69.4z"/>
</g>
<g id="XMLID_253_">
	<path class="st17" d="M59.1,75.5c-0.2,0-0.6-0.2-0.7-0.4L57.8,74c-0.1-0.2-0.1-0.6,0-0.8l0.6-1.1c0.1-0.2,0.4-0.4,0.7-0.4h1.2
		c0.2,0,0.6,0.2,0.7,0.4l0.6,1.1c0.1,0.2,0.1,0.6,0,0.8L61,75.1c-0.1,0.2-0.4,0.4-0.7,0.4H59.1z"/>
</g>
<g id="XMLID_252_">
	<path class="st17" d="M49.3,43.9c-0.2,0-0.6-0.2-0.7-0.4L48,42.4c-0.1-0.2-0.1-0.6,0-0.8l0.6-1.1c0.1-0.2,0.4-0.4,0.7-0.4h1.2
		c0.2,0,0.6,0.2,0.7,0.4l0.6,1.1c0.1,0.2,0.1,0.6,0,0.8l-0.6,1.1c-0.1,0.2-0.4,0.4-0.7,0.4H49.3z"/>
</g>
<g id="XMLID_251_">
	<path class="st17" d="M54.1,56.6c-0.2,0-0.6-0.2-0.7-0.4l-0.6-1.1c-0.1-0.2-0.1-0.6,0-0.8l0.6-1.1c0.1-0.2,0.4-0.4,0.7-0.4h1.2
		c0.2,0,0.6,0.2,0.7,0.4l0.6,1.1c0.1,0.2,0.1,0.6,0,0.8L56,56.2c-0.1,0.2-0.4,0.4-0.7,0.4H54.1z"/>
</g>
<g id="XMLID_250_">
	<path class="st17" d="M28,18.4c-0.2,0-0.6-0.2-0.7-0.4l-0.6-1.1c-0.1-0.2-0.1-0.6,0-0.8l0.6-1.1c0.1-0.2,0.4-0.4,0.7-0.4h1.2
		c0.2,0,0.6,0.2,0.7,0.4l0.6,1.1c0.1,0.2,0.1,0.6,0,0.8L29.9,18c-0.1,0.2-0.4,0.4-0.7,0.4H28z"/>
</g>
<g id="XMLID_249_">
	<path class="st17" d="M39,14.5c-0.2,0-0.6-0.2-0.7-0.4L37.7,13c-0.1-0.2-0.1-0.6,0-0.8l0.6-1.1c0.1-0.2,0.4-0.4,0.7-0.4h1.2
		c0.2,0,0.6,0.2,0.7,0.4l0.6,1.1c0.1,0.2,0.1,0.6,0,0.8l-0.6,1.1c-0.1,0.2-0.4,0.4-0.7,0.4H39z"/>
</g>
<polyline id="XMLID_337_" class="st19" points="25,73.1 28.9,76.9 36.8,76.9 "/>
<polyline id="XMLID_345_" class="st9" points="30.1,32.1 25.4,32.1 19.2,25.8 "/>
<g id="XMLID_280_">
	<path class="st20" d="M68.4,80.4c-0.4,0.4-1.2,0.8-1.8,0.8h-3.9c-0.6,0-1.4,0.3-1.8,0.8l-3.6,3.6c-0.4,0.4-1.2,0.8-1.8,0.8h-7.1
		c-0.6,0-1.4-0.3-1.8-0.8l-0.6-0.6c-0.4-0.4-0.8-1.2-0.8-1.8V6.6c0-0.6,0.3-1.4,0.7-1.8l1.4-1.5c0.4-0.4,1.2-0.8,1.8-0.8h3.5
		c0.6,0,1.4,0.4,1.8,0.8l1.5,1.6c0.4,0.4,1.2,0.8,1.8,0.8h2c0.6,0,1.4,0.3,1.8,0.8l10.2,10.3c0.4,0.4,0.8,1.2,0.8,1.8v2.9
		c0,0.6,0.3,1.4,0.8,1.8l2.8,2.7c0.4,0.4,0.8,1.2,0.8,1.8v3.4c0,0.6,0.3,1.4,0.8,1.8l2.5,2.4c0.4,0.4,0.8,1.2,0.8,1.8v15.4
		c0,0.6-0.3,1.4-0.7,1.8l-1.1,1.1C78.4,56,78,56.8,78,57.4v8.5c0,0.6-0.3,1.4-0.7,1.8L75.2,70c-0.4,0.4-0.7,1.3-0.7,1.8v1.4
		c0,0.6-0.3,1.4-0.8,1.8L68.4,80.4z"/>
</g>
<g id="XMLID_270_">
	<path class="st20" d="M21.6,80.4c0.4,0.4,1.2,0.8,1.8,0.8h3.9c0.6,0,1.4,0.3,1.8,0.8l3.6,3.6c0.4,0.4,1.2,0.8,1.8,0.8h7.1
		c0.6,0,1.4-0.3,1.8-0.8l0.6-0.6c0.4-0.4,0.8-1.2,0.8-1.8V6.6c0-0.6-0.3-1.4-0.7-1.8l-1.4-1.5c-0.4-0.4-1.2-0.8-1.8-0.8h-3.5
		c-0.6,0-1.4,0.4-1.8,0.8l-1.5,1.6c-0.4,0.4-1.2,0.8-1.8,0.8h-2c-0.6,0-1.4,0.3-1.8,0.8L18.4,16.7c-0.4,0.4-0.8,1.2-0.8,1.8v2.9
		c0,0.6-0.3,1.4-0.8,1.8L14.1,26c-0.4,0.4-0.8,1.2-0.8,1.8v3.4c0,0.6-0.3,1.4-0.8,1.8l-2.5,2.4c-0.4,0.4-0.8,1.2-0.8,1.8v15.4
		c0,0.6,0.3,1.4,0.7,1.8l1.1,1.1c0.4,0.4,0.7,1.3,0.7,1.8v8.5c0,0.6,0.3,1.4,0.7,1.8l2.1,2.2c0.4,0.4,0.7,1.3,0.7,1.8v1.4
		c0,0.6,0.3,1.4,0.8,1.8L21.6,80.4z"/>
</g>
<g id="XMLID_291_">
	<path class="st20" d="M78,56.4l-5.7-2.2c-0.5-0.2-1-0.9-1-1.5V37.2c0-0.6,0.3-1.4,0.8-1.8l1.5-1.5"/>
</g>
<g id="XMLID_216_">
	<path class="st20" d="M13.4,32.3l4.4,3.2c0.5,0.4,0.9,1.1,0.9,1.7v15.4c0,0.6-0.3,1.4-0.8,1.8L16,56.3"/>
</g>
</svg>
