<?xml version="1.0" encoding="utf-8"?>
<!-- Generator: Adobe Illustrator 23.0.1, SVG Export Plug-In . SVG Version: 6.00 Build 0)  -->
<svg version="1.1" id="Layer_1" xmlns="http://www.w3.org/2000/svg" xmlns:xlink="http://www.w3.org/1999/xlink" x="0px" y="0px"
	 viewBox="0 0 90 90" style="enable-background:new 0 0 90 90;" xml:space="preserve">
<style type="text/css">
	.st0{fill:none;stroke:#9E62DD;stroke-width:1.5;stroke-linecap:round;stroke-linejoin:round;stroke-miterlimit:10;}
	.st1{fill:none;stroke:#6738B8;stroke-width:1.5;stroke-linecap:round;stroke-linejoin:round;stroke-miterlimit:10;}
	.st2{fill:none;stroke:#6738B8;stroke-width:2.3281;stroke-linecap:round;stroke-linejoin:round;stroke-miterlimit:10;}
	.st3{fill:none;stroke:#9E62DD;stroke-width:2.3281;stroke-linecap:round;stroke-linejoin:round;stroke-miterlimit:10;}
</style>
<title>Snowplow_Website-Services_Icons</title>
<g id="XMLID_245_">
	<line id="XMLID_246_" class="st0" x1="17.1" y1="79.5" x2="39.8" y2="79.5"/>
</g>
<g id="XMLID_243_">
	<line id="XMLID_244_" class="st0" x1="44.9" y1="69.2" x2="44.9" y2="74.2"/>
</g>
<g id="XMLID_241_">
	<line id="XMLID_242_" class="st0" x1="50.1" y1="79.5" x2="72.8" y2="79.5"/>
</g>
<path id="XMLID_240_" class="st1" d="M3.7,14.7c0-4,3.2-7.2,7.2-7.2h68c3.9,0,7.2,3.2,7.2,7.2v6.2c0,4-3.2,7.2-7.2,7.2h-68
	c-3.9,0-7.2-3.2-7.2-7.2V14.7z"/>
<line id="XMLID_239_" class="st1" x1="31.9" y1="21.9" x2="11.2" y2="21.9"/>
<line id="XMLID_238_" class="st2" x1="79.9" y1="17.8" x2="79.9" y2="17.8"/>
<line id="XMLID_237_" class="st3" x1="75.8" y1="17.8" x2="75.8" y2="17.8"/>
<path id="XMLID_235_" class="st1" d="M3.7,35.2c0-4,3.2-7.2,7.2-7.2h68c3.9,0,7.2,3.2,7.2,7.2v6.2c0,4-3.2,7.2-7.2,7.2h-68
	c-3.9,0-7.2-3.2-7.2-7.2V35.2z"/>
<line id="XMLID_234_" class="st1" x1="31.9" y1="42.5" x2="11.2" y2="42.5"/>
<line id="XMLID_233_" class="st2" x1="75.8" y1="38.3" x2="75.8" y2="38.3"/>
<line id="XMLID_232_" class="st3" x1="79.9" y1="38.3" x2="79.9" y2="38.3"/>
<path id="XMLID_230_" class="st1" d="M3.7,55.8c0-4,3.2-7.2,7.2-7.2h68c3.9,0,7.2,3.2,7.2,7.2V62c0,4-3.2,7.2-7.2,7.2h-68
	C7,69.2,3.7,66,3.7,62V55.8z"/>
<line id="XMLID_224_" class="st1" x1="31.9" y1="63.1" x2="11.2" y2="63.1"/>
<line id="XMLID_222_" class="st2" x1="79.9" y1="58.9" x2="79.9" y2="58.9"/>
<line id="XMLID_221_" class="st3" x1="75.8" y1="58.9" x2="75.8" y2="58.9"/>
<g id="XMLID_219_">
	<path class="st1" d="M50.1,83c0,1.1-0.9,2.1-2.1,2.1h-6.2c-1.1,0-2.1-0.9-2.1-2.1v-6.2c0-1.1,0.9-2.1,2.1-2.1H48
		c1.1,0,2.1,0.9,2.1,2.1V83z"/>
</g>
</svg>
