<svg id="Layer_1" data-name="Layer 1" xmlns="http://www.w3.org/2000/svg" xmlns:xlink="http://www.w3.org/1999/xlink" viewBox="0 0 158.86 161.56"><defs><clipPath id="clip-path" transform="translate(0.5 0.5)"><rect width="157.86" height="160.56" style="fill:none"/></clipPath><clipPath id="clip-path-2" transform="translate(0.5 0.5)"><rect width="157.86" height="160.56" style="fill:none;stroke:#fff;stroke-miterlimit:10"/></clipPath><clipPath id="clip-path-3" transform="translate(0.5 0.5)"><rect x="121.26" y="66.71" width="27.82" height="25.38" style="fill:none;stroke:#fff;stroke-miterlimit:10"/></clipPath><clipPath id="clip-path-4" transform="translate(0.5 0.5)"><rect x="19.01" y="127.21" width="27.83" height="25.38" style="fill:none;stroke:#fff;stroke-miterlimit:10"/></clipPath><clipPath id="clip-path-5" transform="translate(0.5 0.5)"><rect x="18.51" y="7.96" width="27.83" height="25.38" style="fill:none;stroke:#fff;stroke-miterlimit:10"/></clipPath></defs><title>Vector Smart Object</title><g style="clip-path:url(#clip-path)"><g style="clip-path:url(#clip-path-2)"><line x1="9.84" y1="100.27" x2="4.24" y2="90.58" style="fill:none;stroke:#fff;stroke-linecap:round;stroke-linejoin:round;stroke-width:1.5px;stroke-dasharray:0.001,3.200000047683716,3.200000047683716,9.600000381469727"/><path d="M1.68,85.76C0.1,80.73.53,74.28,3,70L10.1,57.71" transform="translate(0.5 0.5)" style="fill:none;stroke:#fff;stroke-linecap:round;stroke-linejoin:round;stroke-width:1.5px;stroke-dasharray:12.800000190734863,6.400000095367432,0,3.200000047683716,3.200000047683716,9.600000381469727"/><path d="M127.24,99.31a6.84,6.84,0,0,1-5.34-3.08L114,82.48a6.83,6.83,0,0,1,0-6.16l7.94-13.74a6.84,6.84,0,0,1,5.34-3.08h15.87a6.84,6.84,0,0,1,5.33,3.08l7.93,13.74a6.84,6.84,0,0,1,0,6.16l-7.93,13.74a6.83,6.83,0,0,1-5.33,3.08H127.24Z" transform="translate(0.5 0.5)" style="fill:none;stroke:#fff;stroke-linecap:round;stroke-linejoin:round;stroke-width:1.5px"/><g style="opacity:0.5"><g style="clip-path:url(#clip-path-3)"><path d="M130.41,91.35a4.1,4.1,0,0,1-3.2-1.85l-4.76-8.25a4.1,4.1,0,0,1,0-3.7l4.76-8.24a4.1,4.1,0,0,1,3.2-1.85h9.52a4.1,4.1,0,0,1,3.2,1.85l4.76,8.24a4.1,4.1,0,0,1,0,3.7l-4.76,8.25a4.1,4.1,0,0,1-3.2,1.85h-9.52Z" transform="translate(0.5 0.5)" style="fill:none;stroke:#fff;stroke-linecap:round;stroke-linejoin:round;stroke-width:1.5px"/></g><rect x="121.76" y="67.21" width="27.82" height="25.38" style="fill:none;stroke:#fff;stroke-miterlimit:10"/></g><path d="M133.59,83.38a1.36,1.36,0,0,1-1.07-.61L130.93,80a1.36,1.36,0,0,1,0-1.23L132.52,76a1.36,1.36,0,0,1,1.07-.62h3.17a1.37,1.37,0,0,1,1.07.62l1.59,2.75a1.37,1.37,0,0,1,0,1.23l-1.59,2.75a1.36,1.36,0,0,1-1.07.61h-3.17Z" transform="translate(0.5 0.5)" style="fill:none;stroke:#fff;stroke-linecap:round;stroke-linejoin:round;stroke-width:1.5px"/><path d="M25,159.81a6.83,6.83,0,0,1-5.34-3.08L11.72,143a6.82,6.82,0,0,1,0-6.16l7.94-13.74A6.83,6.83,0,0,1,25,120H40.86a6.83,6.83,0,0,1,5.33,3.08l7.93,13.74a6.84,6.84,0,0,1,0,6.16l-7.93,13.74a6.83,6.83,0,0,1-5.33,3.08H25Z" transform="translate(0.5 0.5)" style="fill:none;stroke:#fff;stroke-linecap:round;stroke-linejoin:round;stroke-width:1.5px"/><g style="opacity:0.5"><g style="clip-path:url(#clip-path-4)"><path d="M28.16,151.85A4.1,4.1,0,0,1,25,150l-4.76-8.25a4.1,4.1,0,0,1,0-3.7L25,129.81a4.1,4.1,0,0,1,3.2-1.85h9.52a4.1,4.1,0,0,1,3.2,1.85l4.76,8.24a4.1,4.1,0,0,1,0,3.7L40.89,150a4.1,4.1,0,0,1-3.2,1.85H28.16Z" transform="translate(0.5 0.5)" style="fill:none;stroke:#fff;stroke-linecap:round;stroke-linejoin:round;stroke-width:1.5px"/></g><rect x="19.51" y="127.71" width="27.83" height="25.38" style="fill:none;stroke:#fff;stroke-miterlimit:10"/></g><path d="M31.34,143.88a1.37,1.37,0,0,1-1.07-.61l-1.59-2.75a1.36,1.36,0,0,1,0-1.23l1.59-2.75a1.37,1.37,0,0,1,1.07-.61h3.17a1.37,1.37,0,0,1,1.07.61l1.59,2.75a1.37,1.37,0,0,1,0,1.23l-1.59,2.75a1.37,1.37,0,0,1-1.07.61H31.34Z" transform="translate(0.5 0.5)" style="fill:none;stroke:#fff;stroke-linecap:round;stroke-linejoin:round;stroke-width:1.5px"/><path d="M24.49,40.56a6.83,6.83,0,0,1-5.34-3.08L11.22,23.73a6.83,6.83,0,0,1,0-6.16L19.16,3.83A6.84,6.84,0,0,1,24.49.75H40.36a6.84,6.84,0,0,1,5.33,3.08l7.93,13.74a6.83,6.83,0,0,1,0,6.16L45.69,37.48a6.83,6.83,0,0,1-5.33,3.08H24.49Z" transform="translate(0.5 0.5)" style="fill:none;stroke:#fff;stroke-linecap:round;stroke-linejoin:round;stroke-width:1.5px"/><g style="opacity:0.5"><g style="clip-path:url(#clip-path-5)"><path d="M27.66,32.6a4.1,4.1,0,0,1-3.2-1.85L19.7,22.5a4.1,4.1,0,0,1,0-3.7l4.76-8.24a4.1,4.1,0,0,1,3.2-1.85h9.52a4.1,4.1,0,0,1,3.2,1.85l4.76,8.24a4.1,4.1,0,0,1,0,3.7l-4.76,8.25a4.1,4.1,0,0,1-3.2,1.85H27.66Z" transform="translate(0.5 0.5)" style="fill:none;stroke:#fff;stroke-linecap:round;stroke-linejoin:round;stroke-width:1.5px"/></g><rect x="19.01" y="8.46" width="27.83" height="25.38" style="fill:none;stroke:#fff;stroke-miterlimit:10"/></g><path d="M30.84,24.63A1.37,1.37,0,0,1,29.77,24l-1.59-2.75a1.36,1.36,0,0,1,0-1.23l1.59-2.75a1.37,1.37,0,0,1,1.07-.62H34a1.37,1.37,0,0,1,1.07.62L36.67,20a1.37,1.37,0,0,1,0,1.23L35.08,24a1.37,1.37,0,0,1-1.07.62H30.84Z" transform="translate(0.5 0.5)" style="fill:none;stroke:#fff;stroke-linecap:round;stroke-linejoin:round;stroke-width:1.5px"/></g><rect x="0.5" y="0.5" width="157.86" height="160.56" style="fill:none;stroke:#fff;stroke-miterlimit:10"/></g><line x1="101.31" y1="80.74" x2="106.47" y2="80.74" style="fill:none;stroke:#28d1b1;stroke-linecap:round;stroke-linejoin:round;stroke-width:1.5px;stroke-dasharray:0.001,2.9040000438690186,2.9040000438690186,8.711000442504883"/><line x1="110.83" y1="80.74" x2="120.83" y2="80.74" style="fill:none;stroke:#28d1b1;stroke-linecap:round;stroke-linejoin:round;stroke-width:1.5px"/><line x1="128.63" y1="80.74" x2="138.79" y2="80.74" style="fill:none;stroke:#28d1b1;stroke-linecap:round;stroke-linejoin:round;stroke-width:1.5px;stroke-dasharray:0.001,2.9040000438690186,2.9040000438690186,8.711000442504883"/><line x1="143.15" y1="80.74" x2="147.22" y2="80.74" style="fill:none;stroke:#28d1b1;stroke-linecap:round;stroke-linejoin:round;stroke-width:1.5px"/><line x1="59.4" y1="46.22" x2="64.62" y2="54.76" style="fill:none;stroke:#28d1b1;stroke-linecap:round;stroke-linejoin:round;stroke-width:1.5px"/><line x1="45.12" y1="22.97" x2="47.73" y2="27.15" style="fill:none;stroke:#28d1b1;stroke-linecap:round;stroke-linejoin:round;stroke-width:1.5px"/><line x1="50.77" y1="32.14" x2="56.11" y2="40.86" style="fill:none;stroke:#28d1b1;stroke-linecap:round;stroke-linejoin:round;stroke-width:1.5px;stroke-dasharray:0.001,2.921999931335449,2.921999931335449,8.765999794006348"/><line x1="60.25" y1="116.43" x2="69.5" y2="100.31" style="fill:none;stroke:#28d1b1;stroke-linecap:round;stroke-linejoin:round;stroke-width:1.5px"/><line x1="46.66" y1="139.39" x2="48.91" y2="135.43" style="fill:none;stroke:#28d1b1;stroke-linecap:round;stroke-linejoin:round;stroke-width:1.5px"/><line x1="52.37" y1="129.45" x2="57.56" y2="120.3" style="fill:none;stroke:#28d1b1;stroke-linecap:round;stroke-linejoin:round;stroke-width:1.5px;stroke-dasharray:0.001,3.00600004196167,3.00600004196167,9.017000198364258"/><line x1="73.37" y1="20.3" x2="85.3" y2="20.3" style="fill:none;stroke:#28d1b1;stroke-linecap:round;stroke-linejoin:round;stroke-width:1.5px"/><line x1="91.72" y1="20.3" x2="101.8" y2="20.3" style="fill:none;stroke:#28d1b1;stroke-linecap:round;stroke-linejoin:round;stroke-width:1.5px;stroke-dasharray:0.001,2.75,2.75,9.166000366210938"/><path d="M105.88,19.91c5.57,0.7,11.8,4.59,14.49,9.25L126.63,40" transform="translate(0.5 0.5)" style="fill:none;stroke:#28d1b1;stroke-linecap:round;stroke-linejoin:round;stroke-width:1.5px;stroke-dasharray:13.74899959564209,6.415999889373779,0,2.75,2.75,9.166000366210938"/><line x1="129.42" y1="44.48" x2="135.39" y2="54.81" style="fill:none;stroke:#28d1b1;stroke-linecap:round;stroke-linejoin:round;stroke-width:1.5px"/><line x1="28.42" y1="115.35" x2="23.42" y2="106.69" style="fill:none;stroke:#28d1b1;stroke-linecap:round;stroke-linejoin:round;stroke-width:1.5px"/><line x1="20.22" y1="101.15" x2="14.62" y2="91.45" style="fill:none;stroke:#28d1b1;stroke-linecap:round;stroke-linejoin:round;stroke-width:1.5px;stroke-dasharray:0.001,3.200000047683716,3.200000047683716,9.600000381469727"/><path d="M12.06,86.63c-1.58-5-1.15-11.48,1.3-15.71l7.12-12.33" transform="translate(0.5 0.5)" style="fill:none;stroke:#28d1b1;stroke-linecap:round;stroke-linejoin:round;stroke-width:1.5px;stroke-dasharray:12.800000190734863,6.400000095367432,0,3.200000047683716,3.200000047683716,9.600000381469727"/><line x1="85.5" y1="20.3" x2="73.57" y2="20.3" style="fill:none;stroke:#28d1b1;stroke-linecap:round;stroke-linejoin:round;stroke-width:1.5px"/><line x1="60.07" y1="20.3" x2="70.15" y2="20.3" style="fill:none;stroke:#28d1b1;stroke-linecap:round;stroke-linejoin:round;stroke-width:1.5px;stroke-dasharray:0.001,2.75,2.75,9.166000366210938"/><path d="M52,19.91c-5.57.7-11.8,4.59-14.49,9.25L31.24,40" transform="translate(0.5 0.5)" style="fill:none;stroke:#28d1b1;stroke-linecap:round;stroke-linejoin:round;stroke-width:1.5px;stroke-dasharray:13.74899959564209,6.415999889373779,2.75,2.75,0"/><line x1="29.44" y1="44.48" x2="23.48" y2="54.81" style="fill:none;stroke:#28d1b1;stroke-linecap:round;stroke-linejoin:round;stroke-width:1.5px"/><line x1="85.49" y1="141.26" x2="73.56" y2="141.26" style="fill:none;stroke:#28d1b1;stroke-linecap:round;stroke-linejoin:round;stroke-width:1.5px"/><line x1="67.15" y1="141.26" x2="57.06" y2="141.26" style="fill:none;stroke:#28d1b1;stroke-linecap:round;stroke-linejoin:round;stroke-width:1.5px;stroke-dasharray:0.001,2.75,2.75,9.166000366210938"/><path d="M52,140.65c-5.57-.7-11.8-4.59-14.49-9.25l-6.26-10.85" transform="translate(0.5 0.5)" style="fill:none;stroke:#28d1b1;stroke-linecap:round;stroke-linejoin:round;stroke-width:1.5px;stroke-dasharray:13.74899959564209,6.415999889373779,0,2.75,2.75,9.166000366210938"/><line x1="29.44" y1="117.08" x2="23.47" y2="106.75" style="fill:none;stroke:#28d1b1;stroke-linecap:round;stroke-linejoin:round;stroke-width:1.5px"/><line x1="130.44" y1="46.21" x2="135.44" y2="54.87" style="fill:none;stroke:#28d1b1;stroke-linecap:round;stroke-linejoin:round;stroke-width:1.5px"/><line x1="138.64" y1="60.41" x2="144.24" y2="70.1" style="fill:none;stroke:#28d1b1;stroke-linecap:round;stroke-linejoin:round;stroke-width:1.5px;stroke-dasharray:0.001,3.200000047683716,3.200000047683716,9.600000381469727"/><path d="M145.8,73.93c1.58,5,1.15,11.48-1.3,15.71L137.38,102" transform="translate(0.5 0.5)" style="fill:none;stroke:#28d1b1;stroke-linecap:round;stroke-linejoin:round;stroke-width:1.5px;stroke-dasharray:12.800000190734863,6.400000095367432,0,3.200000047683716,3.200000047683716,9.600000381469727"/><line x1="73.36" y1="141.26" x2="85.29" y2="141.26" style="fill:none;stroke:#28d1b1;stroke-linecap:round;stroke-linejoin:round;stroke-width:1.5px"/><line x1="98.87" y1="141.26" x2="88.79" y2="141.26" style="fill:none;stroke:#28d1b1;stroke-linecap:round;stroke-linejoin:round;stroke-width:1.5px;stroke-dasharray:0.001,2.75,2.75,9.166000366210938"/><path d="M105.87,140.65c5.57-.7,11.8-4.59,14.49-9.25l6.26-10.85" transform="translate(0.5 0.5)" style="fill:none;stroke:#28d1b1;stroke-linecap:round;stroke-linejoin:round;stroke-width:1.5px;stroke-dasharray:13.74899959564209,6.415999889373779,2.75,2.75,0,9.166000366210938"/><line x1="129.42" y1="117.08" x2="135.39" y2="106.75" style="fill:none;stroke:#28d1b1;stroke-linecap:round;stroke-linejoin:round;stroke-width:1.5px"/><path d="M71,100.18a6.83,6.83,0,0,1-5.34-3.08L57.73,83.36a6.83,6.83,0,0,1,0-6.16l7.94-13.74A6.84,6.84,0,0,1,71,60.38H86.87a6.84,6.84,0,0,1,5.33,3.08l7.93,13.74a6.83,6.83,0,0,1,0,6.16L92.2,97.1a6.83,6.83,0,0,1-5.33,3.08H71Z" transform="translate(0.5 0.5)" style="fill:none;stroke:#28d1b1;stroke-linecap:round;stroke-linejoin:round;stroke-width:1.5px"/><g style="opacity:0.5"><path d="M74.17,92.22A4.1,4.1,0,0,1,71,90.37l-4.76-8.25a4.1,4.1,0,0,1,0-3.7L71,70.18a4.1,4.1,0,0,1,3.2-1.85h9.52a4.1,4.1,0,0,1,3.2,1.85l4.76,8.24a4.1,4.1,0,0,1,0,3.7l-4.76,8.25a4.1,4.1,0,0,1-3.2,1.85H74.17Z" transform="translate(0.5 0.5)" style="fill:none;stroke:#28d1b1;stroke-linecap:round;stroke-linejoin:round;stroke-width:1.5px"/></g><path d="M77.35,84.26a1.37,1.37,0,0,1-1.07-.62l-1.59-2.75a1.36,1.36,0,0,1,0-1.23l1.59-2.75a1.37,1.37,0,0,1,1.07-.62h3.17a1.37,1.37,0,0,1,1.07.62l1.59,2.75a1.37,1.37,0,0,1,0,1.23l-1.59,2.75a1.37,1.37,0,0,1-1.07.62H77.35Z" transform="translate(0.5 0.5)" style="fill:none;stroke:#28d1b1;stroke-linecap:round;stroke-linejoin:round;stroke-width:1.5px"/></svg>