<?xml version="1.0" encoding="utf-8"?>
<!-- Generator: Adobe Illustrator 16.0.0, SVG Export Plug-In . SVG Version: 6.00 Build 0)  -->
<!DOCTYPE svg PUBLIC "-//W3C//DTD SVG 1.1//EN" "http://www.w3.org/Graphics/SVG/1.1/DTD/svg11.dtd">
<svg version="1.1" id="Layer_4" xmlns="http://www.w3.org/2000/svg" xmlns:xlink="http://www.w3.org/1999/xlink" x="0px" y="0px"
	 width="210px" height="210px" viewBox="0 0 210 210" enable-background="new 0 0 210 210" xml:space="preserve">
<g>
	<g>
		<g>
			
				<line fill="none" stroke="#BB73FC" stroke-width="1.5" stroke-linecap="round" stroke-linejoin="round" x1="54.333" y1="80.172" x2="60.31" y2="69.846"/>
			
				<line fill="none" stroke="#BB73FC" stroke-width="1.5" stroke-linecap="round" stroke-linejoin="round" stroke-dasharray="0,2.7498,2.7498,9.1659" x1="63.524" y1="64.293" x2="68.575" y2="55.567"/>
			
				<path fill="none" stroke="#BB73FC" stroke-width="1.5" stroke-linecap="round" stroke-linejoin="round" stroke-dasharray="13.7489,6.4161,0,2.7498,2.7498,9.1659" d="
				M70.964,51.659c3.391-4.47,9.883-7.915,15.265-7.91l12.527,0.013"/>
			
				<line fill="none" stroke="#BB73FC" stroke-width="1.5" stroke-linecap="round" stroke-linejoin="round" x1="103.342" y1="43.768" x2="115.273" y2="43.78"/>
		</g>
	</g>
	<g>
		<g>
			
				<line fill="none" stroke="#BB73FC" stroke-width="1.5" stroke-linecap="round" stroke-linejoin="round" x1="115.21" y1="164.746" x2="105.21" y2="164.736"/>
			
				<line fill="none" stroke="#BB73FC" stroke-width="1.5" stroke-linecap="round" stroke-linejoin="round" stroke-dasharray="0,3.2001,3.2001,9.6002" x1="98.81" y1="164.729" x2="87.614" y2="164.718"/>
			
				<path fill="none" stroke="#BB73FC" stroke-width="1.5" stroke-linecap="round" stroke-linejoin="round" stroke-dasharray="12.8002,6.4001,0,3.2001,3.2001,9.6002" d="
				M82.841,164.335c-5.139-1.147-10.509-4.756-12.95-8.996l-7.102-12.335"/>
			
				<line fill="none" stroke="#BB73FC" stroke-width="1.5" stroke-linecap="round" stroke-linejoin="round" x1="60.389" y1="138.836" x2="55.399" y2="130.17"/>
		</g>
	</g>
	<g>
		<g>
			
				<line fill="none" stroke="#BB73FC" stroke-width="1.5" stroke-linecap="round" stroke-linejoin="round" x1="160.222" y1="69.798" x2="166.177" y2="80.137"/>
			
				<line fill="none" stroke="#BB73FC" stroke-width="1.5" stroke-linecap="round" stroke-linejoin="round" stroke-dasharray="0,2.6329,2.6329,8.7761" x1="169.243" y1="85.46" x2="174.059" y2="93.822"/>
			
				<path fill="none" stroke="#BB73FC" stroke-width="1.5" stroke-linecap="round" stroke-linejoin="round" stroke-dasharray="13.1643,6.1433,0,2.6329,2.6329,8.7761" d="
				M175.949,97.771c1.651,5.051,1.233,11.624-1.25,15.915l-6.304,10.891"/>
			
				<line fill="none" stroke="#BB73FC" stroke-width="1.5" stroke-linecap="round" stroke-linejoin="round" x1="166.193" y1="128.382" x2="160.217" y2="138.708"/>
		</g>
	</g>
</g>
<g>
	<g>
		<g>
			<g>
				
					<line fill="none" stroke="#BB73FC" stroke-width="1.5" stroke-linecap="round" stroke-linejoin="round" stroke-dasharray="8.8221" x1="78.524" y1="105" x2="69.702" y2="105"/>
			</g>
		</g>
		<g>
			
				<line fill="none" stroke="#BB73FC" stroke-width="1.5" stroke-linecap="round" stroke-linejoin="round" stroke-dasharray="9.0546" x1="131.13" y1="70.486" x2="126.268" y2="78.125"/>
		</g>
		<g>
			
				<line fill="none" stroke="#BB73FC" stroke-width="1.5" stroke-linecap="round" stroke-linejoin="round" stroke-dasharray="8.5168" x1="130.282" y1="140.693" x2="126.143" y2="133.25"/>
		</g>
	</g>
</g>
<g>
	<g>
		
			<path fill="none" stroke="#5B0098" stroke-width="1.5" stroke-linecap="round" stroke-linejoin="round" stroke-miterlimit="10" d="
			M34.338,85.096c-1.956,0-4.356,1.386-5.335,3.08l-7.937,13.745c-0.978,1.694-0.978,4.466,0,6.16l7.936,13.742
			c0.979,1.694,3.379,3.08,5.335,3.08h15.869c1.956,0,4.357-1.386,5.335-3.08l7.934-13.742c0.978-1.694,0.978-4.466,0-6.161
			l-7.935-13.745c-0.978-1.694-3.378-3.08-5.334-3.08H34.338z"/>
	</g>
	<g>
		
			<path fill="none" stroke="#BB73FC" stroke-width="1.5" stroke-linecap="round" stroke-linejoin="round" stroke-miterlimit="10" d="
			M37.511,93.058c-1.174,0-2.614,0.832-3.201,1.848l-4.762,8.248c-0.587,1.016-0.587,2.68,0,3.696l4.762,8.245
			c0.587,1.017,2.027,1.848,3.201,1.848h9.522c1.174,0,2.614-0.831,3.201-1.848l4.76-8.245c0.586-1.016,0.586-2.68,0-3.696
			l-4.76-8.247c-0.587-1.017-2.027-1.848-3.201-1.848H37.511z"/>
	</g>
	<g>
		
			<path fill="none" stroke="#5B0098" stroke-width="1.5" stroke-linecap="round" stroke-linejoin="round" stroke-miterlimit="10" d="
			M40.685,101.02c-0.391,0-0.871,0.277-1.067,0.616l-1.588,2.749c-0.196,0.338-0.196,0.893,0,1.231l1.588,2.749
			c0.196,0.339,0.676,0.616,1.067,0.616h3.173c0.391,0,0.871-0.277,1.067-0.616l1.588-2.749c0.196-0.338,0.196-0.893,0-1.231
			l-1.588-2.749c-0.196-0.339-0.676-0.616-1.067-0.616H40.685z"/>
	</g>
</g>
<g>
	<g>
		
			<path fill="none" stroke="#5B0098" stroke-width="1.5" stroke-linecap="round" stroke-linejoin="round" stroke-miterlimit="10" d="
			M136.588,145.596c-1.956,0-4.356,1.386-5.335,3.08l-7.937,13.745c-0.978,1.693-0.978,4.466,0,6.16l7.937,13.742
			c0.979,1.694,3.379,3.08,5.335,3.08h15.869c1.956,0,4.356-1.386,5.335-3.08l7.934-13.742c0.979-1.694,0.979-4.467,0-6.16
			l-7.934-13.745c-0.979-1.694-3.379-3.08-5.335-3.08H136.588z"/>
	</g>
	<g>
		
			<path fill="none" stroke="#BB73FC" stroke-width="1.5" stroke-linecap="round" stroke-linejoin="round" stroke-miterlimit="10" d="
			M139.762,153.558c-1.174,0-2.614,0.831-3.201,1.848l-4.762,8.247c-0.587,1.017-0.587,2.68,0,3.696l4.762,8.245
			c0.587,1.017,2.027,1.848,3.201,1.848h9.521c1.174,0,2.614-0.831,3.201-1.848l4.76-8.245c0.587-1.017,0.587-2.68,0-3.696
			l-4.761-8.247c-0.586-1.016-2.026-1.848-3.2-1.848H139.762z"/>
	</g>
	<g>
		
			<path fill="none" stroke="#5B0098" stroke-width="1.5" stroke-linecap="round" stroke-linejoin="round" stroke-miterlimit="10" d="
			M142.936,161.52c-0.392,0-0.872,0.277-1.067,0.616l-1.588,2.748c-0.195,0.339-0.195,0.894,0,1.232l1.588,2.748
			c0.195,0.339,0.676,0.616,1.067,0.616h3.172c0.392,0,0.872-0.277,1.067-0.616l1.588-2.748c0.195-0.339,0.195-0.894,0-1.232
			l-1.588-2.748c-0.195-0.339-0.676-0.616-1.067-0.616H142.936z"/>
	</g>
</g>
<g>
	<g>
		
			<path fill="none" stroke="#5B0098" stroke-width="1.5" stroke-linecap="round" stroke-linejoin="round" stroke-miterlimit="10" d="
			M137.088,26.346c-1.956,0-4.356,1.386-5.335,3.08l-7.937,13.745c-0.978,1.694-0.978,4.466,0,6.16l7.937,13.743
			c0.979,1.694,3.379,3.08,5.335,3.08h15.869c1.956,0,4.356-1.386,5.335-3.08l7.934-13.742c0.979-1.694,0.979-4.466,0-6.161
			l-7.934-13.745c-0.979-1.694-3.379-3.08-5.335-3.08H137.088z"/>
	</g>
	<g>
		
			<path fill="none" stroke="#BB73FC" stroke-width="1.5" stroke-linecap="round" stroke-linejoin="round" stroke-miterlimit="10" d="
			M140.262,34.308c-1.174,0-2.614,0.832-3.201,1.848l-4.762,8.248c-0.587,1.016-0.587,2.68,0,3.696l4.762,8.245
			c0.587,1.016,2.027,1.848,3.201,1.848h9.521c1.174,0,2.614-0.832,3.201-1.848l4.76-8.245c0.587-1.016,0.587-2.68,0-3.696
			l-4.761-8.247c-0.586-1.017-2.026-1.848-3.2-1.848H140.262z"/>
	</g>
	<g>
		
			<path fill="none" stroke="#5B0098" stroke-width="1.5" stroke-linecap="round" stroke-linejoin="round" stroke-miterlimit="10" d="
			M143.436,42.27c-0.392,0-0.872,0.277-1.067,0.616l-1.588,2.749c-0.195,0.338-0.195,0.893,0,1.231l1.588,2.749
			c0.195,0.339,0.676,0.616,1.067,0.616h3.172c0.392,0,0.872-0.277,1.067-0.616l1.588-2.749c0.195-0.338,0.195-0.893,0-1.231
			l-1.588-2.749c-0.195-0.339-0.676-0.616-1.067-0.616H143.436z"/>
	</g>
</g>
<path fill="none" stroke="#5B0098" stroke-width="1.5" stroke-linecap="round" stroke-linejoin="round" stroke-miterlimit="10" d="
	M78.571,118.688V84.799c0-3.595,2.938-6.528,6.526-6.528h57.289c3.594,0,6.531,2.934,6.531,6.528v41.95
	c0,3.588-2.938,6.527-6.531,6.527h-30.511"/>
<line fill="none" stroke="#5B0098" stroke-width="1.5" stroke-linecap="round" stroke-linejoin="round" stroke-miterlimit="10" x1="124.557" y1="85.779" x2="78.049" y2="85.779"/>
<line fill="none" stroke="#BB73FC" stroke-width="1.5" stroke-linecap="round" stroke-linejoin="round" stroke-miterlimit="10" x1="141.41" y1="103.372" x2="104.026" y2="103.372"/>
<line fill="none" stroke="#BB73FC" stroke-width="1.5" stroke-linecap="round" stroke-linejoin="round" stroke-miterlimit="10" x1="141.41" y1="99.618" x2="96.516" y2="99.618"/>
<path fill="none" stroke="#BB73FC" stroke-width="1.5" stroke-linecap="round" stroke-linejoin="round" stroke-miterlimit="10" d="
	M78.632,118.964c-4.694,2.999-7.795,8.252-7.795,14.239c0,9.324,7.541,16.903,16.883,16.903c6.239,0,11.696-3.392,14.625-8.428"/>
<g>
	<path fill="#BB73FC" d="M104.616,134.01c-0.41,0-0.75-0.33-0.74-0.75l0,0l0,0l0,0c0-0.41,0.33-0.75,0.75-0.74l0,0
		c0.41,0,0.75,0.33,0.75,0.75l0,0c-0.01,0.41-0.34,0.74-0.75,0.74l0,0C104.626,134.01,104.626,134.01,104.616,134.01z
		 M105.376,133.27L105.376,133.27L105.376,133.27L105.376,133.27z M101.746,125.189c-0.2-0.359-0.08-0.819,0.28-1.029l0,0
		c0.36-0.21,0.82-0.08,1.02,0.279l0,0c0.21,0.36,0.08,0.82-0.27,1.021l0,0c-0.12,0.07-0.25,0.1-0.38,0.1l0,0
		C102.136,125.56,101.886,125.43,101.746,125.189z M95.866,119.26c0,0,0,0,0-0.01l0,0c-0.36-0.2-0.48-0.66-0.27-1.021l0,0
		c0.21-0.359,0.67-0.479,1.02-0.27l0,0c0.36,0.21,0.48,0.67,0.28,1.02l0,0c-0.14,0.24-0.4,0.38-0.65,0.38l0,0
		C96.116,119.359,95.986,119.319,95.866,119.26z M87.806,117.069c-0.01,0-0.02,0-0.03,0l0,0c-0.01,0-0.03,0-0.04,0l0,0
		c-0.41,0-0.75-0.34-0.75-0.75l0,0c0-0.42,0.34-0.75,0.75-0.75l0,0c0.01,0,0.01,0,0.02,0l0,0c0.02,0,0.04,0,0.06,0l0,0
		c0.41,0,0.74,0.341,0.74,0.75l0,0C88.556,116.729,88.226,117.069,87.806,117.069L87.806,117.069L87.806,117.069z"/>
</g>
<polyline fill="none" stroke="#BB73FC" stroke-width="1.5" stroke-linecap="round" stroke-linejoin="round" stroke-miterlimit="10" points="
	93.362,133.604 87.731,133.604 87.731,121.951 "/>
<polyline fill="none" stroke="#BB73FC" stroke-width="1.5" stroke-linecap="round" stroke-linejoin="round" stroke-miterlimit="10" points="
	113.049,121.626 120.114,117.188 126.555,119.88 141.41,110.656 "/>
</svg>
