<?xml version="1.0" encoding="utf-8"?>
<!-- Generator: Adobe Illustrator 16.0.0, SVG Export Plug-In . SVG Version: 6.00 Build 0)  -->
<!DOCTYPE svg PUBLIC "-//W3C//DTD SVG 1.1//EN" "http://www.w3.org/Graphics/SVG/1.1/DTD/svg11.dtd">
<svg version="1.1" id="Layer_1" xmlns="http://www.w3.org/2000/svg" xmlns:xlink="http://www.w3.org/1999/xlink" x="0px" y="0px"
	 width="80px" height="32px" viewBox="0 0 80 32" enable-background="new 0 0 80 32" xml:space="preserve">
<path id="peak-logo" fill="#00A0E2" d="M9.583,10.1H2V29h3.38v-6.075h3.819c4.231,0,7.693-2.213,7.693-6.48
	C16.892,12.584,14.062,10.1,9.583,10.1z M9.309,19.928H5.38v-6.804h3.929c2.527,0,4.149,1.161,4.149,3.401
	C13.458,18.551,11.864,19.928,9.309,19.928z M20.44,21.073h15.158v-3.136H20.44V21.073z M20.44,5.135h15.158V1.999H20.44V5.135z
	 M20.44,13.062h15.158V9.926H20.44V13.062z M45.066,9.926L36.628,29h3.421l1.985-4.572h9.124L53.115,29h3.584L48.208,9.926H45.066z
	 M43.273,21.479l3.309-7.575l3.336,7.575H43.273z M68.654,18.227l7.988-8.126h-4.146l-9.142,9.503V10.1h-3.377V29h3.377v-5.48
	l2.992-3.024L72.909,29H77L68.654,18.227z"/>
</svg>
