<svg xmlns="http://www.w3.org/2000/svg" viewBox="0 0 210 210"><defs><style>.cls-1{isolation:isolate;}.cls-2{fill:#5b0098;}.cls-3,.cls-4{mix-blend-mode:screen;}.cls-4,.cls-5{fill:none;stroke:#5b0098;stroke-linecap:round;stroke-linejoin:round;}</style></defs><title>Snowplow_Website-Company_Icon_Freddom</title><g class="cls-1"><g id="Layer_4" data-name="Layer 4"><path class="cls-2" d="M115.8,38.37a0.85,0.85,0,0,1,.67.39l0.81,1.4a0.85,0.85,0,0,1,0,.77l-0.81,1.39a0.85,0.85,0,0,1-.67.38h-1.61a0.85,0.85,0,0,1-.67-0.38l-0.81-1.39a0.85,0.85,0,0,1,0-.77l0.81-1.4a0.85,0.85,0,0,1,.67-0.39h1.61Z"/><path class="cls-2" d="M124.05,164.6a0.85,0.85,0,0,1,.67.39l0.81,1.4a0.85,0.85,0,0,1,0,.77l-0.81,1.39a0.85,0.85,0,0,1-.67.38h-1.61a0.85,0.85,0,0,1-.67-0.38L121,167.15a0.85,0.85,0,0,1,0-.77l0.81-1.4a0.85,0.85,0,0,1,.67-0.39h1.61Z"/><path class="cls-2" d="M60,151.81a0.85,0.85,0,0,1,.67.39l0.81,1.4a0.85,0.85,0,0,1,0,.77l-0.81,1.39a0.85,0.85,0,0,1-.67.39H58.44a0.85,0.85,0,0,1-.67-0.39L57,154.36a0.85,0.85,0,0,1,0-.77l0.81-1.4a0.85,0.85,0,0,1,.67-0.39H60Z"/><path class="cls-2" d="M49.11,86.82a0.85,0.85,0,0,1,.67.39l0.81,1.4a0.85,0.85,0,0,1,0,.77l-0.81,1.39a0.85,0.85,0,0,1-.67.39H47.5a0.85,0.85,0,0,1-.67-0.39L46,89.37a0.85,0.85,0,0,1,0-.77l0.81-1.4a0.85,0.85,0,0,1,.67-0.39h1.61Z"/><path class="cls-2" d="M97.89,25.85a0.85,0.85,0,0,1,.67.39L100,28.78a0.85,0.85,0,0,1,0,.77L98.55,32.1a0.85,0.85,0,0,1-.67.38H94.95a0.85,0.85,0,0,1-.67-0.38l-1.47-2.54a0.85,0.85,0,0,1,0-.77l1.47-2.55a0.85,0.85,0,0,1,.67-0.39h2.94Z"/><path class="cls-2" d="M37.65,127.54a0.85,0.85,0,0,1,.67.39l1.47,2.55a0.85,0.85,0,0,1,0,.77l-1.47,2.54a0.85,0.85,0,0,1-.67.38H34.71a0.85,0.85,0,0,1-.67-0.38l-1.47-2.54a0.85,0.85,0,0,1,0-.77L34,127.92a0.85,0.85,0,0,1,.67-0.39h2.94Z"/><path class="cls-2" d="M86.35,45.4a0.85,0.85,0,0,1,.67.39l0.81,1.4a0.85,0.85,0,0,1,0,.77L87,49.34a0.85,0.85,0,0,1-.67.38H84.74a0.85,0.85,0,0,1-.67-0.38L83.26,48a0.85,0.85,0,0,1,0-.77l0.81-1.4a0.85,0.85,0,0,1,.67-0.39h1.61Z"/><path class="cls-2" d="M172.12,86.82a0.85,0.85,0,0,1,.67.39l0.81,1.4a0.85,0.85,0,0,1,0,.77l-0.81,1.39a0.85,0.85,0,0,1-.67.39h-1.61a0.85,0.85,0,0,1-.67-0.39L169,89.37a0.85,0.85,0,0,1,0-.77l0.81-1.4a0.85,0.85,0,0,1,.67-0.39h1.61Z"/><path class="cls-2" d="M160.5,130.85a0.85,0.85,0,0,1,.67.39l0.81,1.4a0.85,0.85,0,0,1,0,.77l-0.81,1.39a0.85,0.85,0,0,1-.67.38h-1.61a0.85,0.85,0,0,1-.67-0.38l-0.81-1.39a0.85,0.85,0,0,1,0-.77l0.81-1.4a0.85,0.85,0,0,1,.67-0.39h1.61Z"/><path class="cls-2" d="M32.37,100.13a1.92,1.92,0,0,1,1.5.87l1.81,3.14a1.92,1.92,0,0,1,0,1.73L33.87,109a1.92,1.92,0,0,1-1.5.87H28.75a1.92,1.92,0,0,1-1.5-.87l-1.81-3.14a1.92,1.92,0,0,1,0-1.73L27.25,101a1.92,1.92,0,0,1,1.5-.87h3.62Z"/><path class="cls-2" d="M181.25,100.13a1.92,1.92,0,0,1,1.5.87l1.81,3.14a1.92,1.92,0,0,1,0,1.73L182.75,109a1.92,1.92,0,0,1-1.5.87h-3.62a1.92,1.92,0,0,1-1.5-.87l-1.81-3.14a1.92,1.92,0,0,1,0-1.73l1.81-3.14a1.92,1.92,0,0,1,1.5-.87h3.62Z"/><path class="cls-2" d="M127.83,95.23a1.92,1.92,0,0,1,1.5.87l4.62,8a1.92,1.92,0,0,1,0,1.73l-4.62,8a1.92,1.92,0,0,1-1.5.87h-9.25a1.92,1.92,0,0,1-1.5-.87l-4.62-8a1.92,1.92,0,0,1,0-1.73l4.62-8a1.92,1.92,0,0,1,1.5-.87h9.25Z"/><path class="cls-2" d="M90.67,95.23a1.92,1.92,0,0,1,1.5.87l4.62,8a1.92,1.92,0,0,1,0,1.73l-4.62,8a1.92,1.92,0,0,1-1.5.87H81.42a1.92,1.92,0,0,1-1.5-.87l-4.62-8a1.92,1.92,0,0,1,0-1.73l4.62-8a1.92,1.92,0,0,1,1.5-.87h9.25Z"/><path class="cls-2" d="M109.62,79.08a1.92,1.92,0,0,1,1.5.87l4.62,8a1.92,1.92,0,0,1,0,1.73l-4.62,8a1.92,1.92,0,0,1-1.5.87h-9.25a1.92,1.92,0,0,1-1.5-.87l-4.62-8a1.92,1.92,0,0,1,0-1.73l4.62-8a1.92,1.92,0,0,1,1.5-.87h9.25Z"/><path class="cls-2" d="M109.62,111.38a1.92,1.92,0,0,1,1.5.87l4.62,8a1.92,1.92,0,0,1,0,1.73l-4.62,8a1.92,1.92,0,0,1-1.5.87h-9.25a1.92,1.92,0,0,1-1.5-.87l-4.62-8a1.92,1.92,0,0,1,0-1.73l4.62-8a1.92,1.92,0,0,1,1.5-.87h9.25Z"/><path class="cls-2" d="M69.35,35.66a1.92,1.92,0,0,1,1.5.87l1.81,3.14a1.92,1.92,0,0,1,0,1.73l-1.81,3.14a1.92,1.92,0,0,1-1.5.87H65.72a1.92,1.92,0,0,1-1.5-.87L62.41,41.4a1.92,1.92,0,0,1,0-1.73l1.81-3.14a1.92,1.92,0,0,1,1.5-.87h3.62Z"/><path class="cls-2" d="M143.88,35.66a1.92,1.92,0,0,1,1.5.87l1.81,3.14a1.92,1.92,0,0,1,0,1.73l-1.81,3.14a1.92,1.92,0,0,1-1.5.87h-3.62a1.92,1.92,0,0,1-1.5-.87l-1.81-3.14a1.92,1.92,0,0,1,0-1.73l1.81-3.14a1.92,1.92,0,0,1,1.5-.87h3.62Z"/><path class="cls-2" d="M69.35,164.6a1.92,1.92,0,0,1,1.5.87l1.81,3.14a1.92,1.92,0,0,1,0,1.73l-1.81,3.14a1.92,1.92,0,0,1-1.5.87H65.72a1.92,1.92,0,0,1-1.5-.87l-1.81-3.14a1.92,1.92,0,0,1,0-1.73l1.81-3.14a1.92,1.92,0,0,1,1.5-.87h3.62Z"/><path class="cls-2" d="M143.88,164.6a1.92,1.92,0,0,1,1.5.87l1.81,3.14a1.92,1.92,0,0,1,0,1.73l-1.81,3.14a1.92,1.92,0,0,1-1.5.87h-3.62a1.92,1.92,0,0,1-1.5-.87l-1.81-3.14a1.92,1.92,0,0,1,0-1.73l1.81-3.14a1.92,1.92,0,0,1,1.5-.87h3.62Z"/><path class="cls-2" d="M64.46,97.7a1.92,1.92,0,0,1,1.5.87l3.22,5.57a1.92,1.92,0,0,1,0,1.73L66,111.44a1.92,1.92,0,0,1-1.5.87H58a1.92,1.92,0,0,1-1.5-.87l-3.22-5.57a1.92,1.92,0,0,1,0-1.73l3.22-5.57A1.92,1.92,0,0,1,58,97.7h6.43Z"/><path class="cls-2" d="M86.81,60.07a1.92,1.92,0,0,1,1.5.87l3.22,5.57a1.92,1.92,0,0,1,0,1.73l-3.22,5.57a1.92,1.92,0,0,1-1.5.87H80.37a1.92,1.92,0,0,1-1.5-.87l-3.22-5.57a1.92,1.92,0,0,1,0-1.73l3.22-5.57a1.92,1.92,0,0,1,1.5-.87h6.43Z"/><path class="cls-2" d="M128.23,63.07a1.92,1.92,0,0,1,1.5.87l3.22,5.57a1.92,1.92,0,0,1,0,1.73l-3.22,5.57a1.92,1.92,0,0,1-1.5.87H121.8a1.92,1.92,0,0,1-1.5-.87l-3.22-5.57a1.92,1.92,0,0,1,0-1.73l3.22-5.57a1.92,1.92,0,0,1,1.5-.87h6.43Z"/><path class="cls-2" d="M152,97.7a1.92,1.92,0,0,1,1.5.87l3.22,5.57a1.92,1.92,0,0,1,0,1.73l-3.22,5.57a1.92,1.92,0,0,1-1.5.87h-6.43a1.92,1.92,0,0,1-1.5-.87l-3.22-5.57a1.92,1.92,0,0,1,0-1.73L144,98.56a1.92,1.92,0,0,1,1.5-.87H152Z"/><path class="cls-2" d="M131.23,137.21a1.92,1.92,0,0,1,1.5.87l3.22,5.57a1.92,1.92,0,0,1,0,1.73l-3.22,5.57a1.92,1.92,0,0,1-1.5.87H124.8a1.92,1.92,0,0,1-1.5-.87l-3.22-5.57a1.92,1.92,0,0,1,0-1.73l3.22-5.57a1.92,1.92,0,0,1,1.5-.87h6.43Z"/><path class="cls-2" d="M86.81,135.21a1.92,1.92,0,0,1,1.5.87l3.22,5.57a1.92,1.92,0,0,1,0,1.73l-3.22,5.57a1.92,1.92,0,0,1-1.5.87H80.37a1.92,1.92,0,0,1-1.5-.87l-3.22-5.57a1.92,1.92,0,0,1,0-1.73l3.22-5.57a1.92,1.92,0,0,1,1.5-.87h6.43Z"/></g><g id="Layer_3" data-name="Layer 3"><g class="cls-3"><polyline class="cls-4" points="85 70.36 105 105 145 105"/><polyline class="cls-5" points="85 139.64 105 105 145 105"/><polyline class="cls-4" points="85 139.64 105 105 85 70.35"/></g><polygon class="cls-4" points="125 139.64 145 105 125 70.36 85 70.36 65 105 85 139.64 125 139.64"/></g></g></svg>