<svg xmlns="http://www.w3.org/2000/svg" xmlns:xlink="http://www.w3.org/1999/xlink" viewBox="0 0 1345 802"><defs><style>.cls-1{isolation:isolate;}.cls-16,.cls-2{opacity:0.33;}.cls-10,.cls-11,.cls-12,.cls-13,.cls-14,.cls-16,.cls-20,.cls-21,.cls-23,.cls-24,.cls-27,.cls-28,.cls-29,.cls-3,.cls-30,.cls-31,.cls-32,.cls-33,.cls-34,.cls-39,.cls-4,.cls-42,.cls-44,.cls-45,.cls-48,.cls-5,.cls-53,.cls-6,.cls-61,.cls-62,.cls-64,.cls-65,.cls-66,.cls-67,.cls-68,.cls-69,.cls-7,.cls-70,.cls-71,.cls-72,.cls-73,.cls-74,.cls-75,.cls-76,.cls-77,.cls-78,.cls-79,.cls-8,.cls-80,.cls-81,.cls-82,.cls-9{fill:none;}.cls-19,.cls-20,.cls-21,.cls-24,.cls-27,.cls-28,.cls-29,.cls-3,.cls-30,.cls-31,.cls-32{stroke:#bb73fc;}.cls-10,.cls-11,.cls-12,.cls-13,.cls-14,.cls-15,.cls-16,.cls-20,.cls-21,.cls-24,.cls-27,.cls-28,.cls-29,.cls-3,.cls-30,.cls-31,.cls-32,.cls-38,.cls-39,.cls-4,.cls-40,.cls-42,.cls-44,.cls-45,.cls-5,.cls-6,.cls-61,.cls-62,.cls-64,.cls-65,.cls-66,.cls-67,.cls-68,.cls-69,.cls-70,.cls-71,.cls-72,.cls-73,.cls-74,.cls-75,.cls-76,.cls-77,.cls-78,.cls-79,.cls-8,.cls-80,.cls-82,.cls-9{stroke-linecap:round;}.cls-10,.cls-11,.cls-12,.cls-13,.cls-14,.cls-15,.cls-16,.cls-20,.cls-21,.cls-24,.cls-27,.cls-28,.cls-29,.cls-3,.cls-30,.cls-31,.cls-32,.cls-38,.cls-39,.cls-4,.cls-40,.cls-42,.cls-44,.cls-45,.cls-5,.cls-6,.cls-61,.cls-62,.cls-64,.cls-65,.cls-66,.cls-67,.cls-68,.cls-69,.cls-7,.cls-70,.cls-71,.cls-72,.cls-73,.cls-74,.cls-75,.cls-76,.cls-77,.cls-78,.cls-79,.cls-8,.cls-80,.cls-82,.cls-9{stroke-linejoin:round;}.cls-10,.cls-11,.cls-12,.cls-13,.cls-19,.cls-25,.cls-3,.cls-34,.cls-4,.cls-5,.cls-53,.cls-6,.cls-7,.cls-8,.cls-81,.cls-82,.cls-9{stroke-width:3px;}.cls-14,.cls-25,.cls-34,.cls-4,.cls-7,.cls-8{stroke:#5b0098;}.cls-5{stroke:url(#linear-gradient);}.cls-6{stroke:url(#linear-gradient-2);}.cls-10,.cls-8{stroke-dasharray:1.67 6.67 3.33 6.67;}.cls-10,.cls-9{stroke:#50a3fc;}.cls-11{stroke:url(#linear-gradient-3);}.cls-12{stroke:url(#linear-gradient-4);}.cls-13{stroke:url(#linear-gradient-5);}.cls-14,.cls-15,.cls-16,.cls-20,.cls-21,.cls-24,.cls-27,.cls-28,.cls-29,.cls-30,.cls-31,.cls-32,.cls-38,.cls-39,.cls-40,.cls-42,.cls-44,.cls-45,.cls-61,.cls-62,.cls-64,.cls-65,.cls-66,.cls-67,.cls-68,.cls-69,.cls-70,.cls-71,.cls-72,.cls-73,.cls-74,.cls-75,.cls-76,.cls-77,.cls-78,.cls-80{stroke-width:1.5px;}.cls-15,.cls-19,.cls-25,.cls-38,.cls-40,.cls-43{fill:#fff;}.cls-15,.cls-79,.cls-80{stroke:#bd99d6;}.cls-16,.cls-40,.cls-42,.cls-44{stroke:#9ba0aa;}.cls-17{font-size:11.54px;}.cls-17,.cls-37,.cls-54,.cls-55{fill:#5b0098;}.cls-17,.cls-18,.cls-22,.cls-26,.cls-35,.cls-54,.cls-55,.cls-56,.cls-58{font-family:Rubik Medium;}.cls-18{font-size:12px;fill:#bb73fc;}.cls-19,.cls-48,.cls-53,.cls-81{stroke-miterlimit:10;}.cls-21{stroke-dasharray:0 6.25;}.cls-22,.cls-26,.cls-35{font-size:8px;}.cls-22{fill:#d2a3fd;}.cls-24{stroke-dasharray:0 6.25;}.cls-26{fill:#9357bb;}.cls-27{stroke-dasharray:0 2.54 0 2.54;}.cls-28{stroke-dasharray:0 2.54 0 2.54 0 2.54;}.cls-29{stroke-dasharray:0 3.02 0 3.02 0 3.02;}.cls-30{stroke-dasharray:0 2.56 0 2.56;}.cls-31{stroke-dasharray:0 2.56 0 2.56 0 2.56;}.cls-32{stroke-dasharray:0 3.03 0 3.03 0 3.03;}.cls-33{stroke:#e1e6f0;}.cls-35,.cls-41,.cls-58{fill:#9ba0aa;}.cls-36{fill:#f5faff;}.cls-38,.cls-39,.cls-45{stroke:#50555c;}.cls-44{stroke-dasharray:6.77 4.52 0 6.77 6.77 11.29;}.cls-45{stroke-dasharray:19.89 9.28 0 3.98 3.98 13.26;}.cls-46,.cls-47,.cls-52{opacity:0.25;}.cls-47,.cls-49,.cls-50,.cls-51{mix-blend-mode:multiply;}.cls-48,.cls-53,.cls-62,.cls-64,.cls-65,.cls-66,.cls-67,.cls-68,.cls-69,.cls-70,.cls-71,.cls-73,.cls-74,.cls-75,.cls-76,.cls-78,.cls-82{stroke:#28d1b1;}.cls-49,.cls-57{opacity:0.5;}.cls-50{opacity:0.75;}.cls-52,.cls-56,.cls-57,.cls-60{fill:#28d1b1;}.cls-54,.cls-58{font-size:9px;}.cls-55,.cls-56{font-size:16px;}.cls-59{white-space:pre;}.cls-61{stroke:#93e8d8;}.cls-63,.cls-76{opacity:0.66;}.cls-64{stroke-dasharray:0.94 6.58 2.82 4.7;}.cls-65{stroke-dasharray:6.58 6.58 0.94 6.58 2.82 4.7;}.cls-66{stroke-dasharray:0.95 6.68 2.86 4.77;}.cls-67{stroke-dasharray:6.68 6.68 0.95 6.68 2.86 4.77;}.cls-68{stroke-dasharray:0.67 4.71 2.02 3.36;}.cls-69{stroke-dasharray:4.71 4.71 0.67 4.71 2.02 3.36;}.cls-70{stroke-dasharray:0.87 6.08 2.6 4.34;}.cls-71{stroke-dasharray:6.08 6.08 0.87 6.08 2.6 4.34;}.cls-72,.cls-77{stroke:#fff;}.cls-73{stroke-dasharray:49.47 16.49 0 10.99 10.99 21.99;}.cls-74,.cls-77{stroke-dasharray:42.59 14.2 0 9.46 9.46 18.93;}.cls-75{stroke-dasharray:15.49 4.34 0 3.1 3.1 6.2;}.cls-76{stroke-dasharray:6.22 6.22 0.89 6.22 2.66 4.44;}.cls-78{stroke-dasharray:21.31 7.1 0 3.55 3.55 10.66;}.cls-79{stroke-width:1.33px;}.cls-81{stroke:url(#linear-gradient-6);}</style><linearGradient id="linear-gradient" x1="1255.13" y1="195.99" x2="1292.05" y2="195.99" gradientUnits="userSpaceOnUse"><stop offset="0" stop-color="#bb73fc"/><stop offset="1" stop-color="#50a3fc"/></linearGradient><linearGradient id="linear-gradient-2" x1="1255.16" y1="241.75" x2="1292.05" y2="241.75" xlink:href="#linear-gradient"/><linearGradient id="linear-gradient-3" x1="1826.14" y1="402.1" x2="1959.25" y2="402.1" gradientTransform="matrix(-1, 0, 0, 1, 2743.08, 0)" gradientUnits="userSpaceOnUse"><stop offset="0" stop-color="#5b0098"/><stop offset="1" stop-color="#28d1b1"/></linearGradient><linearGradient id="linear-gradient-4" x1="1540.03" y1="287.6" x2="1829.33" y2="287.6" gradientTransform="matrix(-1, 0, 0, 1, 2743.08, 0)" gradientUnits="userSpaceOnUse"><stop offset="0" stop-color="#bb73fc"/><stop offset="1" stop-color="#5b0098"/></linearGradient><linearGradient id="linear-gradient-5" x1="1540.03" y1="310.49" x2="1829.33" y2="310.49" xlink:href="#linear-gradient-4"/><linearGradient id="linear-gradient-6" x1="401.46" y1="402.22" x2="469.51" y2="402.22" gradientTransform="matrix(1, 0, 0, 1, 0, 0)" xlink:href="#linear-gradient-3"/></defs><title>Snowplow_Website-Product-Insights_Infographics_Pipeline</title><g class="cls-1"><g id="Insights"><g class="cls-2"><path class="cls-3" d="M1272.53,249.88l-1.57-7.43a1.86,1.86,0,0,0-2.52-1.4l-6.45,2.34"/></g><g class="cls-2"><path class="cls-3" d="M1262,193.83l6.45,2.34a1.86,1.86,0,0,0,2.52-1.4l1.57-7.43"/></g><g class="cls-2"><path class="cls-4" d="M1272.53,617.22l-1.57-7.43a1.86,1.86,0,0,0-2.52-1.4l-6.45,2.34"/></g><g class="cls-2"><path class="cls-4" d="M1262,564.17l6.45,2.34a1.86,1.86,0,0,0,2.52-1.4l1.57-7.43"/></g><path class="cls-5" d="M1290.55,218.87h-3.75c-2.06,0-5.75-3.46-8.19-7.69l-22-38.07"/><path class="cls-6" d="M1256.66,264.61l21.95-38c2.44-4.23,6.13-7.69,8.19-7.69h3.75"/><path class="cls-7" d="M1290.55,586.68h-3.75c-2.06,0-5.75-3.46-8.19-7.69L1230,494.79"/><path class="cls-4" d="M1230,678.6l48.61-84.2c2.44-4.23,6.13-7.69,8.19-7.69h3.75"/><line class="cls-4" x1="1340.55" y1="586.71" x2="1330.55" y2="586.71"/><line class="cls-8" x1="1323.88" y1="586.71" x2="1308.88" y2="586.71"/><line class="cls-4" x1="1305.55" y1="586.71" x2="1295.55" y2="586.71"/><line class="cls-9" x1="1340.55" y1="218.67" x2="1330.55" y2="218.67"/><line class="cls-10" x1="1323.88" y1="218.67" x2="1308.88" y2="218.67"/><line class="cls-9" x1="1305.55" y1="218.67" x2="1295.55" y2="218.67"/><line class="cls-11" x1="785.33" y1="402.1" x2="915.44" y2="402.1"/><path class="cls-12" d="M1201.54,173.11l-22,38.07a17.06,17.06,0,0,1-13.32,7.69H1077.9a17,17,0,0,0-13.31,7.69L967.87,394.41a17,17,0,0,1-13.31,7.69H915.25"/><path class="cls-13" d="M1201.54,264.48l-22-37.92a17.09,17.09,0,0,0-13.33-7.68H1077.9a17,17,0,0,0-13.31,7.69L967.87,394.41a17,17,0,0,1-13.31,7.69H915.25"/><path class="cls-14" d="M1093,560c0-13-17.12-23.53-38.24-23.53S1016.55,547,1016.55,560v59c0,13,17.12,23.53,38.24,23.53S1093,632,1093,619V560Z"/><ellipse class="cls-15" cx="1054.79" cy="618.19" rx="38.24" ry="23.53"/><ellipse class="cls-15" cx="1054.79" cy="607.19" rx="38.24" ry="23.53"/><ellipse class="cls-15" cx="1054.79" cy="595.38" rx="38.24" ry="23.53"/><ellipse class="cls-15" cx="1054.79" cy="583.57" rx="38.24" ry="23.53"/><ellipse class="cls-15" cx="1054.79" cy="571.76" rx="38.24" ry="23.53"/><ellipse class="cls-15" cx="1054.79" cy="559.95" rx="38.24" ry="23.53"/><ellipse class="cls-16" cx="1054.79" cy="559.95" rx="15.19" ry="9.34"/><path class="cls-4" d="M1093,560c0-13-17.12-23.53-38.24-23.53S1016.55,547,1016.55,560v59c0,13,17.12,23.53,38.24,23.53S1093,632,1093,619V560Z"/><g class="cls-2"><path class="cls-4" d="M984.63,449.55l6.45,2.34a1.86,1.86,0,0,0,2.52-1.4l1.57-7.43"/></g><g class="cls-2"><path class="cls-4" d="M1015.27,503.16l6.45,2.34a1.86,1.86,0,0,0,2.52-1.4l1.57-7.43"/></g><path class="cls-4" d="M1046.28,556.77l6.45,2.34a1.86,1.86,0,0,0,2.52-1.4l1.57-7.43"/><path class="cls-4" d="M1053.55,557.67L967.89,409.79a17.09,17.09,0,0,0-13.33-7.68H915.33"/><g class="cls-2"><path class="cls-3" d="M1184.32,190.42l6.45-2.34a1.86,1.86,0,0,1,2.52,1.4l1.57,7.43"/></g><g class="cls-2"><path class="cls-3" d="M1184.32,246.79l6.45,2.34a1.86,1.86,0,0,0,2.52-1.4l1.57-7.43"/></g><g class="cls-2"><path class="cls-4" d="M1184.32,560.76l6.45-2.34a1.86,1.86,0,0,1,2.52,1.4l1.57,7.43"/></g><g class="cls-2"><path class="cls-4" d="M1184.32,614.13l6.45,2.34a1.86,1.86,0,0,0,2.52-1.4l1.57-7.43"/></g><text class="cls-17" transform="translate(1210.04 590.17)">B<tspan x="7.83" y="0">A</tspan><tspan x="15" y="0">T</tspan><tspan x="21.84" y="0">CH</tspan></text><text class="cls-18" transform="translate(1197.43 224.34)">REA<tspan x="23.89" y="0">L</tspan><tspan x="30.28" y="0">-</tspan><tspan x="35.3" y="0">TIME</tspan></text><g class="cls-2"><path class="cls-3" d="M1128,224.86l5.34-4.31a1.86,1.86,0,0,0,.11-2.88l-5.55-5.19"/></g><g class="cls-2"><path class="cls-4" d="M1128,592.81l5.34-4.31a1.86,1.86,0,0,0,.11-2.88l-5.55-5.19"/></g><circle class="cls-19" cx="1229.13" cy="127.07" r="53.05"/><path class="cls-14" d="M1252.31,123.62V97.16a4.62,4.62,0,0,0-4.61-4.61h-40.48a4.63,4.63,0,0,0-4.62,4.61V126.8a4.63,4.63,0,0,0,4.62,4.61h24.56"/><line class="cls-14" x1="1218.81" y1="97.85" x2="1251.67" y2="97.85"/><line class="cls-20" x1="1207.91" y1="110.28" x2="1234.32" y2="110.28"/><line class="cls-20" x1="1207.91" y1="107.63" x2="1239.63" y2="107.63"/><path class="cls-20" d="M1237.74,121.56a11.94,11.94,0,1,0,16.3,16.32"/><path class="cls-21" d="M1231.78,131.9A11.94,11.94,0,1,0,1243.71,120,11.93,11.93,0,0,0,1231.78,131.9Z"/><polyline class="cls-20" points="1247.69 132.18 1243.72 132.18 1243.72 123.95"/><polyline class="cls-20" points="1207.91 123.18 1212.9 120.04 1217.45 121.94 1227.95 115.43"/><text class="cls-22" transform="translate(1208 155.45)">REA<tspan x="15.93" y="0">L</tspan><tspan x="20.18" y="0">-</tspan><tspan x="23.54" y="0">TIME</tspan><tspan x="-6.18" y="8">D</tspan><tspan x="-0.67" y="8">A</tspan><tspan x="4.8" y="8">SHB</tspan><tspan x="21.28" y="8">O</tspan><tspan x="26.73" y="8">ARDS</tspan></text><circle class="cls-19" cx="1229.13" cy="310.33" r="53.05"/><path class="cls-14" d="M1215.2,306.84H1207a2.46,2.46,0,0,1-2.45-2.45V294.7a2.46,2.46,0,0,1,2.45-2.45h8.16"/><path class="cls-23" d="M1235.07,311.48h-15.86a4,4,0,0,1-4-4V291.62a4,4,0,0,1,4-4h15.86a4,4,0,0,1,4,4v15.85"/><line class="cls-20" x1="1239.07" y1="291.62" x2="1239.07" y2="302.49"/><path class="cls-20" d="M1219.21,311.48a4,4,0,0,1-4-4V291.62a4,4,0,0,1,4-4h15.86"/><path class="cls-14" d="M1231.8,320.76h-9.51a2.46,2.46,0,0,1-2.45-2.45v-9.69a2.46,2.46,0,0,1,2.45-2.45h10.37"/><path class="cls-20" d="M1235.75,303.79a11.94,11.94,0,1,0,16.3,16.32"/><path class="cls-24" d="M1229.79,314.13a11.94,11.94,0,1,0,11.93-11.93A11.93,11.93,0,0,0,1229.79,314.13Z"/><polyline class="cls-20" points="1245.71 314.41 1241.73 314.41 1241.73 306.17"/><rect class="cls-14" x="1235.1" y="283.63" width="7.96" height="7.96" rx="2.45" ry="2.45"/><rect class="cls-14" x="1211.22" y="277" width="7.96" height="7.96" rx="2.45" ry="2.45"/><text class="cls-22" transform="translate(1208 338.69)">REA<tspan x="15.93" y="0">L</tspan><tspan x="20.18" y="0">-</tspan><tspan x="23.54" y="0">TIME</tspan><tspan x="10.5" y="8">APPS</tspan></text><path class="cls-7" d="M1139,586.68h27.23a17.06,17.06,0,0,0,13.32-7.69l48.61-84.2"/><path class="cls-7" d="M1228.17,678.8l-48.62-84.43a17,17,0,0,0-13.31-7.69H1094"/><circle class="cls-25" cx="1229.13" cy="495.49" r="53.05"/><text class="cls-26" transform="translate(1205.73 524.9)">PREDICTIVE<tspan x="2.91" y="8">MODELING</tspan></text><line class="cls-20" x1="1240.54" y1="466.25" x2="1240.54" y2="466.25"/><line class="cls-27" x1="1239.27" y1="468.45" x2="1237.37" y2="471.74"/><line class="cls-28" x1="1236.74" y1="472.84" x2="1229.76" y2="484.92"/><line class="cls-20" x1="1229.13" y1="486.02" x2="1229.13" y2="486.02"/><path class="cls-29" d="M1220,508.43a7.89,7.89,0,0,1-6.16-3.55L1204.65,489a7.89,7.89,0,0,1,0-7.11l9.16-15.86a7.89,7.89,0,0,1,6.16-3.55h18.32a7.89,7.89,0,0,1,6.16,3.55l9.16,15.86a7.89,7.89,0,0,1,0,7.11l-9.16,15.86a7.88,7.88,0,0,1-6.16,3.56H1220Z"/><line class="cls-20" x1="1229.13" y1="485.46" x2="1229.13" y2="485.46"/><line class="cls-30" x1="1231.68" y1="485.46" x2="1235.52" y2="485.46"/><line class="cls-31" x1="1236.79" y1="485.46" x2="1250.85" y2="485.46"/><line class="cls-20" x1="1252.13" y1="485.46" x2="1252.13" y2="485.46"/><line class="cls-14" x1="1216.38" y1="464.13" x2="1229.13" y2="486.02"/><line class="cls-14" x1="1216.94" y1="506.93" x2="1229.13" y2="486.02"/><line class="cls-14" x1="1203.93" y1="486.02" x2="1229.13" y2="486.02"/><line class="cls-32" x1="1240.13" y1="505.19" x2="1236.35" y2="498.61"/><line class="cls-14" x1="1235.41" y1="496.96" x2="1229.13" y2="486.02"/><path class="cls-14" d="M1229.13,508.43H1220a7.89,7.89,0,0,1-6.16-3.55L1204.65,489a7.89,7.89,0,0,1,0-7.11l9.16-15.86a7.89,7.89,0,0,1,6.16-3.56h13.81"/><circle class="cls-25" cx="1229.13" cy="677.85" r="53.05"/><text class="cls-26" transform="translate(1219.08 703.27)">D<tspan x="5.51" y="0">AT</tspan><tspan x="14.74" y="0">A</tspan><tspan x="-17.22" y="8">EXP</tspan><tspan x="-1.65" y="8">L</tspan><tspan x="2.92" y="8">OR</tspan><tspan x="13.88" y="8">A</tspan><tspan x="18.84" y="8">TION</tspan></text><path class="cls-14" d="M1220,683.67v-17a2.46,2.46,0,0,1,2.45-2.45h1.73a2.46,2.46,0,0,1,2.45,2.45v17"/><path class="cls-20" d="M1210.76,679.69V660a2.46,2.46,0,0,1,2.45-2.45h1.73a2.46,2.46,0,0,1,2.45,2.45v22.31"/><path class="cls-16" d="M1236,679.69v-25a2.46,2.46,0,0,0-2.45-2.45h-1.73a2.46,2.46,0,0,0-2.45,2.45v27.61"/><circle class="cls-14" cx="1223.36" cy="663.21" r="20.76" transform="translate(-110.65 1059.28) rotate(-45)"/><line class="cls-14" x1="1238.04" y1="677.89" x2="1255.65" y2="695.5"/><line class="cls-33" x1="57.49" y1="402.22" x2="93.77" y2="402.22"/><line class="cls-33" x1="40.87" y1="520.4" x2="200.81" y2="520.4"/><path class="cls-33" d="M36.51,522.79a0.89,0.89,0,0,1-.7-0.4l-1-1.79a0.89,0.89,0,0,1,0-.8l1-1.79a0.89,0.89,0,0,1,.7-0.4h2.07a0.89,0.89,0,0,1,.7.4l1,1.79a0.89,0.89,0,0,1,0,.8l-1,1.79a0.89,0.89,0,0,1-.7.4H36.51Z"/><path class="cls-33" d="M63.56,196.39H82a11.52,11.52,0,0,0,9.78-6.49l13.58-32.24"/><path class="cls-33" d="M59.69,193.8a0.89,0.89,0,0,0-.7.4L58,196a0.89,0.89,0,0,0,0,.8l1,1.79a0.89,0.89,0,0,0,.7.4h2.07a0.89,0.89,0,0,0,.7-0.4l1-1.79a0.89,0.89,0,0,0,0-.8l-1-1.79a0.89,0.89,0,0,0-.7-0.4H59.69Z"/><path class="cls-33" d="M72.45,136.61h9.61a11.52,11.52,0,0,1,9.78,6.49l13.58,32.24"/><path class="cls-33" d="M68.57,139.21a0.89,0.89,0,0,1-.7-0.4l-1-1.79a0.89,0.89,0,0,1,0-.8l1-1.79a0.89,0.89,0,0,1,.7-0.4h2.07a0.89,0.89,0,0,1,.7.4l1,1.79a0.89,0.89,0,0,1,0,.8l-1,1.79a0.89,0.89,0,0,1-.7.4H68.57Z"/><path class="cls-33" d="M28,432.07H82a11.52,11.52,0,0,0,9.78-6.49l13.58-32.24"/><path class="cls-33" d="M24.17,429.47a0.89,0.89,0,0,0-.7.4l-1,1.79a0.89,0.89,0,0,0,0,.8l1,1.79a0.89,0.89,0,0,0,.7.4h2.07a0.89,0.89,0,0,0,.7-0.4l1-1.79a0.89,0.89,0,0,0,0-.8l-1-1.79a0.89,0.89,0,0,0-.7-0.4H24.17Z"/><path class="cls-33" d="M10.29,372.29H82.05a11.52,11.52,0,0,1,9.78,6.49L105.41,411"/><path class="cls-33" d="M53.41,404.81a0.89,0.89,0,0,1-.7-0.4l-1-1.79a0.89,0.89,0,0,1,0-.8l1-1.79a0.89,0.89,0,0,1,.7-0.4h2.07a0.89,0.89,0,0,1,.7.4l1,1.79a0.89,0.89,0,0,1,0,.8l-1,1.79a0.89,0.89,0,0,1-.7.4H53.41Z"/><path class="cls-33" d="M6.42,374.89a0.89,0.89,0,0,1-.7-0.4l-1-1.79a0.89,0.89,0,0,1,0-.8l1-1.79a0.89,0.89,0,0,1,.7-0.4H8.49a0.89,0.89,0,0,1,.7.4l1,1.79a0.89,0.89,0,0,1,0,.8l-1,1.79a0.89,0.89,0,0,1-.7.4H6.42Z"/><line class="cls-33" x1="75.25" y1="639.06" x2="93.77" y2="639.06"/><path class="cls-33" d="M71.17,641.65a0.89,0.89,0,0,1-.7-0.4l-1-1.79a0.89,0.89,0,0,1,0-.8l1-1.79a0.89,0.89,0,0,1,.7-0.4h2.07a0.89,0.89,0,0,1,.7.4l1,1.79a0.89,0.89,0,0,1,0,.8l-1,1.79a0.89,0.89,0,0,1-.7.4H71.17Z"/><path class="cls-33" d="M28,668.91H82a11.52,11.52,0,0,0,9.78-6.49l13.58-32.24"/><path class="cls-33" d="M24.17,666.31a0.89,0.89,0,0,0-.7.4l-1,1.79a0.89,0.89,0,0,0,0,.8l1,1.79a0.89,0.89,0,0,0,.7.4h2.07a0.89,0.89,0,0,0,.7-0.4l1-1.79a0.89,0.89,0,0,0,0-.8l-1-1.79a0.89,0.89,0,0,0-.7-0.4H24.17Z"/><path class="cls-33" d="M90.2,541.57h80.64a11.52,11.52,0,0,0,9.78-6.49l13.58-32.24"/><path class="cls-33" d="M86.33,539a0.89,0.89,0,0,0-.7.4l-1,1.79a0.89,0.89,0,0,0,0,.8l1,1.79a0.89,0.89,0,0,0,.7.4H88.4a0.89,0.89,0,0,0,.7-0.4l1-1.79a0.89,0.89,0,0,0,0-.8l-1-1.79a0.89,0.89,0,0,0-.7-0.4H86.33Z"/><path class="cls-33" d="M116.84,499.55h54a11.52,11.52,0,0,1,9.78,6.49l13.58,32.24"/><path class="cls-33" d="M113,502.15a0.89,0.89,0,0,1-.7-0.4l-1-1.79a0.89,0.89,0,0,1,0-.8l1-1.79a0.89,0.89,0,0,1,.7-0.4H115a0.89,0.89,0,0,1,.7.4l1,1.79a0.89,0.89,0,0,1,0,.8l-1,1.79a0.89,0.89,0,0,1-.7.4H113Z"/><path class="cls-33" d="M99.08,306.66h71.76a11.52,11.52,0,0,0,9.78-6.49l13.58-32.24"/><path class="cls-33" d="M95.21,304.06a0.89,0.89,0,0,0-.7.4l-1,1.79a0.89,0.89,0,0,0,0,.8l1,1.79a0.89,0.89,0,0,0,.7.4h2.07a0.89,0.89,0,0,0,.7-0.4l1-1.79a0.89,0.89,0,0,0,0-.8l-1-1.79a0.89,0.89,0,0,0-.7-0.4H95.21Z"/><path class="cls-33" d="M54.69,609.13H82.05a11.52,11.52,0,0,1,9.78,6.49l13.58,32.24"/><path class="cls-33" d="M50.81,611.73a0.89,0.89,0,0,1-.7-0.4l-1-1.79a0.89,0.89,0,0,1,0-.8l1-1.79a0.89,0.89,0,0,1,.7-0.4h2.07a0.89,0.89,0,0,1,.7.4l1,1.79a0.89,0.89,0,0,1,0,.8l-1,1.79a0.89,0.89,0,0,1-.7.4H50.81Z"/><path class="cls-33" d="M53.21,94h55.31a13.83,13.83,0,0,1,11.77,7.85l34.82,83.6"/><path class="cls-33" d="M58.21,238.7h50.31a13.83,13.83,0,0,0,11.77-7.85l34.82-83.6"/><line class="cls-33" x1="61.21" y1="165.41" x2="117.02" y2="165.41"/><line class="cls-33" x1="135.64" y1="283.48" x2="198.56" y2="283.48"/><line class="cls-34" x1="190.79" y1="402.22" x2="403.36" y2="402.22"/><path class="cls-34" d="M226.17,284.67H303.8c6,0,13.39,4.25,16.41,9.45l57.26,98.64c3,5.2,3,13.7,0,18.89l-57.26,98.66c-3,5.2-10.4,9.45-16.41,9.45H226.17"/><path class="cls-34" d="M99.26,166H234.61c6.28,0,14,4.44,17.14,9.87L377.22,392.32c3.15,5.43,3.15,14.32,0,19.75L251.75,628.57c-3.15,5.43-10.86,9.87-17.13,9.87H99.26"/><path class="cls-33" d="M131.56,286.08a0.89,0.89,0,0,1-.7-0.4l-1-1.79a0.89,0.89,0,0,1,0-.8l1-1.79a0.89,0.89,0,0,1,.7-0.4h2.07a0.89,0.89,0,0,1,.7.4l1,1.79a0.89,0.89,0,0,1,0,.8l-1,1.79a0.89,0.89,0,0,1-.7.4h-2.07Z"/><text class="cls-35" transform="translate(9.28 277.78)">F<tspan x="4.62" y="0">aceboo</tspan><tspan x="32.79" y="0">k</tspan><tspan x="37.15" y="0"> </tspan><tspan x="38.77" y="0">A</tspan><tspan x="44.27" y="0">d</tspan></text><text class="cls-35" transform="translate(22.72 193.3)">E<tspan x="4.95" y="0">ca</tspan><tspan x="14.1" y="0">r</tspan><tspan x="17.39" y="0">d</tspan></text><text class="cls-35" transform="translate(7.32 130.72)">Co<tspan x="10.22" y="0">n</tspan><tspan x="15.18" y="0">tact </tspan><tspan x="33.05" y="0">F</tspan><tspan x="37.78" y="0">orm</tspan></text><circle class="cls-36" cx="144.09" cy="164.07" r="53.05"/><path class="cls-36" d="M162.41,211.45a15.77,15.77,0,0,0,12.31-7.11L193,172.61a15.77,15.77,0,0,0,0-14.22l-18.32-31.72a15.78,15.78,0,0,0-12.32-7.11H125.77a15.78,15.78,0,0,0-12.32,7.11L95.14,158.39a15.77,15.77,0,0,0,0,14.22l18.32,31.73a15.77,15.77,0,0,0,12.31,7.11h36.63Z"/><path class="cls-37" d="M195.76,162.53a1.19,1.19,0,0,0-.93.54l-1.38,2.39a1.19,1.19,0,0,0,0,1.07l1.38,2.39a1.19,1.19,0,0,0,.93.54h2.76a1.19,1.19,0,0,0,.93-0.54l1.38-2.39a1.19,1.19,0,0,0,0-1.07l-1.38-2.39a1.19,1.19,0,0,0-.93-0.54h-2.76Z"/><text class="cls-35" transform="translate(135.62 199.11)">WEB</text><circle class="cls-36" cx="230.81" cy="282.95" r="53.05"/><path class="cls-36" d="M249.89,328.9a15.77,15.77,0,0,0,12.31-7.11l18.32-31.73a15.77,15.77,0,0,0,0-14.22L262.2,244.12A15.77,15.77,0,0,0,249.89,237H213.25a15.78,15.78,0,0,0-12.32,7.11l-18.32,31.72a15.77,15.77,0,0,0,0,14.22l18.32,31.73a15.77,15.77,0,0,0,12.31,7.11h36.63Z"/><path class="cls-37" d="M282.48,281.18a1.19,1.19,0,0,0-.93.54l-1.38,2.39a1.19,1.19,0,0,0,0,1.07l1.38,2.39a1.19,1.19,0,0,0,.93.54h2.76a1.19,1.19,0,0,0,.93-0.54l1.38-2.39a1.19,1.19,0,0,0,0-1.07l-1.38-2.39a1.19,1.19,0,0,0-.93-0.54h-2.76Z"/><text class="cls-35" transform="translate(220.18 317.84)">APPS</text><circle class="cls-36" cx="230.81" cy="520.71" r="53.05"/><path class="cls-36" d="M248.68,566.66A15.77,15.77,0,0,0,261,559.55l18.32-31.73a15.77,15.77,0,0,0,0-14.22L261,481.88a15.77,15.77,0,0,0-12.31-7.11H212.05a15.77,15.77,0,0,0-12.31,7.11L181.42,513.6a15.77,15.77,0,0,0,0,14.22l18.32,31.73a15.77,15.77,0,0,0,12.31,7.11h36.63Z"/><text class="cls-35" transform="translate(211.28 555.31)">3</text><text class="cls-35" transform="translate(216.32 552.64) scale(0.58)">RD</text><text class="cls-35" transform="translate(222.75 555.31)"> <tspan x="1.82" y="0">P</tspan><tspan x="6.74" y="0">A</tspan><tspan x="12.3" y="0">R</tspan><tspan x="17.62" y="0">T</tspan><tspan x="22.47" y="0">Y</tspan></text><circle class="cls-36" cx="144.09" cy="401.83" r="53.05"/><path class="cls-36" d="M162.41,447.78a15.77,15.77,0,0,0,12.31-7.11L193,408.94a15.77,15.77,0,0,0,0-14.22L174.72,363a15.78,15.78,0,0,0-12.32-7.11H125.77A15.77,15.77,0,0,0,113.46,363L95.14,394.72a15.77,15.77,0,0,0,0,14.22l18.32,31.73a15.77,15.77,0,0,0,12.31,7.11h36.63Z"/><path class="cls-37" d="M195.76,398.75a1.19,1.19,0,0,0-.93.54l-1.38,2.39a1.19,1.19,0,0,0,0,1.07l1.38,2.39a1.19,1.19,0,0,0,.93.54h2.76a1.19,1.19,0,0,0,.93-0.54l1.38-2.39a1.19,1.19,0,0,0,0-1.07l-1.38-2.39a1.19,1.19,0,0,0-.93-0.54h-2.76Z"/><text class="cls-35" transform="translate(125.99 437.03)">SE<tspan x="10.13" y="0">R</tspan><tspan x="15.34" y="0">VERS</tspan></text><circle class="cls-36" cx="144.13" cy="639.59" r="53.05"/><path class="cls-36" d="M162.41,685.54a15.77,15.77,0,0,0,12.31-7.11L193,646.7a15.77,15.77,0,0,0,0-14.22l-18.32-31.72a15.78,15.78,0,0,0-12.32-7.11H125.77a15.77,15.77,0,0,0-12.31,7.11L95.14,632.48a15.77,15.77,0,0,0,0,14.22l18.32,31.73a15.77,15.77,0,0,0,12.31,7.11h36.63Z"/><path class="cls-38" d="M33,242.67v16.76a3.74,3.74,0,0,1-3.73,3.72H12.54a3.74,3.74,0,0,1-3.72-3.72V224a3.73,3.73,0,0,1,3.72-3.72H29.3A3.74,3.74,0,0,1,33,224v18.63Z"/><line class="cls-39" x1="22.32" y1="223.77" x2="19.53" y2="223.77"/><circle class="cls-39" cx="20.92" cy="258.64" r="1.86"/><path class="cls-40" d="M33.33,247.89h14a3,3,0,0,0,3-2.95v-8.85a3,3,0,0,0-3-2.95H31.86a3,3,0,0,0-2.95,2.95v16.22Z"/><path class="cls-40" d="M18.46,242.24h8.68A1.83,1.83,0,0,0,29,240.41v-5.48a1.83,1.83,0,0,0-1.83-1.83H17.55a1.83,1.83,0,0,0-1.83,1.83v10Z"/><path class="cls-38" d="M29.09,241.16H53.73A5.21,5.21,0,0,0,58.93,236V219.51a5.21,5.21,0,0,0-5.19-5.19H26.49a5.2,5.2,0,0,0-5.19,5.19v29.43Z"/><path class="cls-41" d="M46.24,225a3,3,0,0,1,1.26.25,2.08,2.08,0,0,1,.81.62,1.39,1.39,0,0,1,.3.73,0.18,0.18,0,0,1-.06.17,0.25,0.25,0,0,1-.17.06h-0.6a0.37,0.37,0,0,1-.21-0.05,0.44,0.44,0,0,1-.14-0.15,1.07,1.07,0,0,0-.42-0.39,1.6,1.6,0,0,0-.75-0.15,1.52,1.52,0,0,0-.79.19,0.57,0.57,0,0,0-.32.51,0.53,0.53,0,0,0,.15.4,1.16,1.16,0,0,0,.47.24q0.32,0.09,1,.25a3.39,3.39,0,0,1,1.51.63,1.4,1.4,0,0,1,.47,1.11,1.53,1.53,0,0,1-.3.93,2,2,0,0,1-.87.64,3.77,3.77,0,0,1-2.54,0,2.21,2.21,0,0,1-.9-0.59,1.38,1.38,0,0,1-.37-0.88,0.2,0.2,0,0,1,.06-0.17,0.25,0.25,0,0,1,.17-0.06h0.6a0.39,0.39,0,0,1,.22.05,0.37,0.37,0,0,1,.13.16,1.11,1.11,0,0,0,.43.45,1.74,1.74,0,0,0,.87.17,2.22,2.22,0,0,0,.95-0.18,0.58,0.58,0,0,0,.38-0.54,0.42,0.42,0,0,0-.15-0.33,1.14,1.14,0,0,0-.41-0.21l-0.81-.21-0.56-.13a2.85,2.85,0,0,1-1.31-.61,1.7,1.7,0,0,1-.11-2.06,2,2,0,0,1,.82-0.63,2.84,2.84,0,0,1,1.16-.23m-5.78.09A2.31,2.31,0,0,1,43,227.42c0,0.14,0,.36,0,0.64s0,0.49,0,.64a2.6,2.6,0,0,1-.7,1.76,2.5,2.5,0,0,1-1.84.63H38.32a0.22,0.22,0,0,1-.16-0.07,0.23,0.23,0,0,1-.07-0.16v-5.58a0.24,0.24,0,0,1,.23-0.23h2.13m-1.2,5h1.2a1.39,1.39,0,0,0,1-.35,1.42,1.42,0,0,0,.39-0.95c0-.14,0-0.36,0-0.64s0-.5,0-0.64a1.4,1.4,0,0,0-.39-0.95,1.46,1.46,0,0,0-1.07-.35H39.26V230m-4.4-5a0.29,0.29,0,0,1,.2.07,0.56,0.56,0,0,1,.13.22l2.12,5.46a0.27,0.27,0,0,1,0,.06,0.22,0.22,0,0,1-.07.16,0.22,0.22,0,0,1-.16.07H36.45a0.32,0.32,0,0,1-.34-0.22l-0.37-1H33l-0.37,1a0.32,0.32,0,0,1-.34.22H31.68a0.24,0.24,0,0,1-.23-0.23,0.15,0.15,0,0,1,0-.06l2.11-5.46a0.55,0.55,0,0,1,.13-0.22,0.28,0.28,0,0,1,.2-0.07h0.95m-1.42,3.79h1.9l-1-2.46-0.95,2.46m12.81-5.38a4.34,4.34,0,0,0-1.76.36,3.6,3.6,0,0,0-1.12.76,4,4,0,0,0-2.9-1H38.32a1.74,1.74,0,0,0-1.7,1.37l0-.12a1.93,1.93,0,0,0-.5-0.78,1.78,1.78,0,0,0-1.22-.47H33.9a1.78,1.78,0,0,0-1.23.48,2,2,0,0,0-.51.82l-2.09,5.4a1.63,1.63,0,0,0-.12.62,1.71,1.71,0,0,0,.52,1.23,1.69,1.69,0,0,0,1.21.5h0.62A1.83,1.83,0,0,0,34,231.41h0.67a1.81,1.81,0,0,0,1.73,1.17h0.62a1.74,1.74,0,0,0,.63-0.12,1.74,1.74,0,0,0,.63.12H40.5a4,4,0,0,0,2.79-1,3.81,3.81,0,0,0,1.26.75,5,5,0,0,0,1.73.3,5,5,0,0,0,1.89-.34,3.49,3.49,0,0,0,1.5-1.14,3.06,3.06,0,0,0,.6-1.82,3,3,0,0,0-.53-1.75,1.7,1.7,0,0,0,.35-1.2,2.87,2.87,0,0,0-.59-1.49,3.56,3.56,0,0,0-1.38-1.08,4.49,4.49,0,0,0-1.89-.39h0Z"/><line class="cls-42" x1="22.18" y1="168.92" x2="13.23" y2="168.92"/><path class="cls-38" d="M26,151.79H56.51a3.79,3.79,0,0,1,3.79,3.79v18.88a3.78,3.78,0,0,1-3.78,3.78H26a3.79,3.79,0,0,1-3.79-3.79V155.57A3.79,3.79,0,0,1,26,151.79Z"/><rect class="cls-39" x="43.15" y="157.75" width="12.82" height="4.44" rx="1.27" ry="1.27"/><line class="cls-39" x1="43.15" y1="166.1" x2="55.97" y2="166.1"/><line class="cls-39" x1="43.15" y1="172.09" x2="52.78" y2="172.09"/><line class="cls-39" x1="43.15" y1="168.89" x2="45.73" y2="168.89"/><line class="cls-42" x1="13.89" y1="159.1" x2="7.45" y2="159.1"/><line class="cls-42" x1="20.27" y1="165.65" x2="7.45" y2="165.65"/><line class="cls-42" x1="25.37" y1="162.38" x2="12.55" y2="162.38"/><path class="cls-41" d="M31.15,161.86a0.32,0.32,0,0,1,.1.24v1.24a0.35,0.35,0,0,1-.34.34H29.74a0.34,0.34,0,0,1-.34-0.34V162.1a0.34,0.34,0,0,1,.34-0.34h1.17A0.32,0.32,0,0,1,31.15,161.86Zm0,4.42a0.32,0.32,0,0,1,.1.24v1.24a0.35,0.35,0,0,1-.34.34H29.74a0.33,0.33,0,0,1-.24-0.1,0.32,0.32,0,0,1-.1-0.24v-1.24a0.32,0.32,0,0,1,.1-0.24,0.33,0.33,0,0,1,.24-0.1h1.17A0.32,0.32,0,0,1,31.15,166.27Z"/><path class="cls-41" d="M35.7,162.53a3.29,3.29,0,0,0-.51-1.43,1.37,1.37,0,0,0-1-.57,0.4,0.4,0,0,1-.24-0.11,0.31,0.31,0,0,1-.1-0.23v-0.83a0.34,0.34,0,0,1,.34-0.34,2.81,2.81,0,0,1,2,.67,3.82,3.82,0,0,1,1,2,17.07,17.07,0,0,1,0,6.52,3.85,3.85,0,0,1-1,2,2.78,2.78,0,0,1-2,.68,0.35,0.35,0,0,1-.34-0.34v-0.83a0.31,0.31,0,0,1,.1-0.23,0.38,0.38,0,0,1,.24-0.11,1.38,1.38,0,0,0,1-.57,3.31,3.31,0,0,0,.51-1.43A19.8,19.8,0,0,0,35.7,162.53Z"/><rect class="cls-38" x="14.73" y="71.7" width="30.94" height="44.56" rx="4.43" ry="4.43"/><line class="cls-42" x1="20.23" y1="80.22" x2="25.5" y2="80.22"/><rect class="cls-39" x="20.23" y="82.45" width="7.5" height="3.72" rx="1.07" ry="1.07"/><line class="cls-42" x1="32.13" y1="80.22" x2="37.4" y2="80.22"/><rect class="cls-39" x="32.13" y="82.45" width="7.5" height="3.72" rx="1.07" ry="1.07"/><line class="cls-42" x1="20.23" y1="91.38" x2="25.5" y2="91.38"/><rect class="cls-39" x="20.23" y="93.61" width="19.93" height="3.72" rx="1.07" ry="1.07"/><rect class="cls-39" x="20.23" y="102.53" width="19.93" height="7.43" rx="1.07" ry="1.07"/><polygon class="cls-42" points="53.02 107.69 51.66 110.52 50.31 107.69 50.31 78.8 53.02 78.8 53.02 107.69"/><rect class="cls-38" x="117.6" y="137.19" width="53.05" height="38.87" rx="4.61" ry="4.61"/><line class="cls-39" x1="122.91" y1="142.5" x2="122.91" y2="142.5"/><line class="cls-42" x1="125.56" y1="142.5" x2="125.56" y2="142.5"/><line class="cls-42" x1="128.21" y1="142.5" x2="128.21" y2="142.5"/><path class="cls-41" d="M137.88,154.84a0.29,0.29,0,0,1,.29.29v0.09l-1.83,5.5a0.39,0.39,0,0,1-.36.34H135.6a0.3,0.3,0,0,1-.23-0.09,0.71,0.71,0,0,1-.14-0.25l-1.42-4-1.42,4a0.72,0.72,0,0,1-.14.25,0.29,0.29,0,0,1-.22.09h-0.37a0.39,0.39,0,0,1-.36-0.34l-1.83-5.5v-0.09a0.28,0.28,0,0,1,.29-0.29h0.39a0.41,0.41,0,0,1,.41.29l1.34,4,1.43-4a0.38,0.38,0,0,1,.37-0.29h0.26a0.38,0.38,0,0,1,.37.29l1.44,4,1.34-4a0.4,0.4,0,0,1,.41-0.29h0.39m0-1.5h-0.39a1.9,1.9,0,0,0-1.79,1.21,1.87,1.87,0,0,0-1.76-1.21h-0.26a1.87,1.87,0,0,0-1.76,1.21,1.91,1.91,0,0,0-1.79-1.21h-0.39a1.78,1.78,0,0,0-1.79,1.79v0.25l0,0.16L128,155.7l1.83,5.5a1.86,1.86,0,0,0,1.78,1.36H132a1.78,1.78,0,0,0,1.32-.56,2.19,2.19,0,0,0,.45-0.73l0-.07v0a2.21,2.21,0,0,0,.47.77,1.78,1.78,0,0,0,1.31.56H136a1.86,1.86,0,0,0,1.79-1.38l1.82-5.48,0-.14,0-.15v-0.28a1.79,1.79,0,0,0-1.79-1.79h0Z"/><path class="cls-41" d="M148.11,154.84a0.28,0.28,0,0,1,.29.29v0.09l-1.83,5.5a0.39,0.39,0,0,1-.36.34h-0.37a0.3,0.3,0,0,1-.23-0.09,0.77,0.77,0,0,1-.14-0.25l-1.42-4-1.42,4a0.76,0.76,0,0,1-.14.25,0.3,0.3,0,0,1-.23.09h-0.37a0.39,0.39,0,0,1-.36-0.34l-1.83-5.5v-0.09a0.28,0.28,0,0,1,.08-0.2,0.27,0.27,0,0,1,.2-0.08h0.4a0.4,0.4,0,0,1,.41.29l1.34,4,1.43-4a0.38,0.38,0,0,1,.37-0.29h0.26a0.38,0.38,0,0,1,.37.29l1.43,4,1.34-4a0.4,0.4,0,0,1,.4-0.29h0.39m0-1.5h-0.39a1.89,1.89,0,0,0-1.79,1.22,1.87,1.87,0,0,0-1.76-1.22H143.9a1.87,1.87,0,0,0-1.76,1.22,1.9,1.9,0,0,0-1.79-1.22H140a1.79,1.79,0,0,0-1.79,1.79v0.28l0,0.15,0,0.14,1.83,5.5a1.86,1.86,0,0,0,1.78,1.36h0.37a1.79,1.79,0,0,0,1.31-.56,2.25,2.25,0,0,0,.46-0.74l0-.06v0a2.29,2.29,0,0,0,.44.74,1.81,1.81,0,0,0,1.34.59h0.37a1.86,1.86,0,0,0,1.78-1.37l1.83-5.49,0-.14,0-.15v-0.28a1.79,1.79,0,0,0-.5-1.24l0,0,0,0a1.79,1.79,0,0,0-1.24-.5h0Z"/><path class="cls-41" d="M158.34,154.84a0.27,0.27,0,0,1,.2.08,0.28,0.28,0,0,1,.09.2v0.09l-1.83,5.5a0.39,0.39,0,0,1-.36.34h-0.37a0.29,0.29,0,0,1-.22-0.09,0.75,0.75,0,0,1-.14-0.25l-1.42-4-1.42,4a0.74,0.74,0,0,1-.15.25,0.29,0.29,0,0,1-.23.09h-0.37a0.39,0.39,0,0,1-.36-0.34l-1.83-5.5v-0.09a0.28,0.28,0,0,1,.08-0.2,0.28,0.28,0,0,1,.2-0.08h0.39a0.4,0.4,0,0,1,.41.29l1.34,4,1.43-4a0.38,0.38,0,0,1,.37-0.29h0.26a0.38,0.38,0,0,1,.37.29l1.43,4,1.34-4a0.4,0.4,0,0,1,.41-0.29h0.39m0-1.5H158a1.9,1.9,0,0,0-1.79,1.21,1.87,1.87,0,0,0-1.75-1.21h-0.26a1.87,1.87,0,0,0-1.76,1.22,1.9,1.9,0,0,0-1.79-1.22h-0.39a1.79,1.79,0,0,0-1.79,1.79v0.29l0,0.14,0,0.13,1.83,5.5a1.85,1.85,0,0,0,1.78,1.36h0.37a1.78,1.78,0,0,0,1.33-.58,2.19,2.19,0,0,0,.44-0.72l0-.06v0a2.29,2.29,0,0,0,.47.77,1.77,1.77,0,0,0,1.31.56h0.37a1.86,1.86,0,0,0,1.79-1.38L160,155.7l0-.14,0-.15v-0.28a1.78,1.78,0,0,0-.51-1.25,1.76,1.76,0,0,0-1.28-.54h0Z"/><line class="cls-39" x1="133.81" y1="142.5" x2="170.65" y2="142.5"/><line class="cls-42" x1="232.39" y1="255.03" x2="232.39" y2="255.73"/><path class="cls-40" d="M217.79,269.63a3,3,0,0,1-2.95-2.94V255a3,3,0,0,1,2.95-2.95h11.65"/><path class="cls-38" d="M221.83,264.11v-3.83a3.85,3.85,0,0,1,3.84-3.84h17.28a3.85,3.85,0,0,1,3.84,3.84v36.48a3.85,3.85,0,0,1-3.84,3.84H225.66a3.85,3.85,0,0,1-3.84-3.84V276.31"/><line class="cls-39" x1="235.75" y1="259.99" x2="232.87" y2="259.99"/><circle class="cls-39" cx="234.3" cy="295.94" r="1.92"/><rect class="cls-43" x="229.44" y="247.55" width="6.63" height="6.63" rx="2.04" ry="2.04"/><rect class="cls-39" x="229.44" y="247.55" width="6.63" height="6.63" rx="2.04" ry="2.04"/><rect class="cls-42" x="239.06" y="268.8" width="3.31" height="3.31" rx="1.1" ry="1.1"/><path class="cls-42" d="M233.49,283v3.31a1.11,1.11,0,0,1-1.1,1.11h-3.31a1.11,1.11,0,0,1-1.1-1.11V283a1.11,1.11,0,0,1,1.1-1.1h3.31"/><rect class="cls-39" x="232.43" y="275.15" width="7.73" height="7.73" rx="2.04" ry="2.04"/><rect class="cls-43" x="218.15" y="264.11" width="12.15" height="12.15" rx="2.04" ry="2.04"/><rect class="cls-39" x="218.15" y="264.11" width="12.15" height="12.15" rx="2.04" ry="2.04"/><line class="cls-42" x1="229.24" y1="513.95" x2="231.82" y2="518.67"/><path class="cls-44" d="M228.16,532h-8.33a6.93,6.93,0,0,1-5.41-3.12l-8-13.94a6.79,6.79,0,0,1-.07-6.12l1.73-3"/><line class="cls-42" x1="248.59" y1="516.28" x2="245.2" y2="522.16"/><path class="cls-44" d="M232.9,491.65h3.31a6.65,6.65,0,0,1,5.11,3.12l4.08,7.07"/><path class="cls-43" d="M246,516.28a2.48,2.48,0,0,1-1.94-1.12l-2.88-5a2.48,2.48,0,0,1,0-2.23l2.88-5a2.48,2.48,0,0,1,1.94-1.12h5.75a2.48,2.48,0,0,1,1.94,1.12l2.88,5a2.48,2.48,0,0,1,0,2.23l-2.88,5a2.48,2.48,0,0,1-1.94,1.12H246Z"/><path class="cls-39" d="M246,516.28a2.48,2.48,0,0,1-1.94-1.12l-2.88-5a2.48,2.48,0,0,1,0-2.23l2.88-5a2.48,2.48,0,0,1,1.94-1.12h5.75a2.48,2.48,0,0,1,1.94,1.12l2.88,5a2.48,2.48,0,0,1,0,2.23l-2.88,5a2.48,2.48,0,0,1-1.94,1.12H246Z"/><path class="cls-42" d="M248.14,510.88a0.62,0.62,0,0,1-.49-0.28l-0.73-1.25a0.62,0.62,0,0,1,0-.56l0.73-1.26a0.62,0.62,0,0,1,.49-0.28h1.45a0.62,0.62,0,0,1,.49.28l0.73,1.26a0.62,0.62,0,0,1,0,.56l-0.73,1.25a0.62,0.62,0,0,1-.49.28h-1.45Z"/><path class="cls-43" d="M233.58,538.36a3.38,3.38,0,0,1-2.64-1.52L227,530a3.38,3.38,0,0,1,0-3l3.92-6.8a3.38,3.38,0,0,1,2.64-1.52h7.85a3.38,3.38,0,0,1,2.64,1.52L248,527a3.38,3.38,0,0,1,0,3l-3.92,6.8a3.38,3.38,0,0,1-2.64,1.52h-7.85Z"/><path class="cls-39" d="M233.58,538.36a3.38,3.38,0,0,1-2.64-1.52L227,530a3.38,3.38,0,0,1,0-3l3.92-6.8a3.38,3.38,0,0,1,2.64-1.52h7.85a3.38,3.38,0,0,1,2.64,1.52L248,527a3.38,3.38,0,0,1,0,3l-3.92,6.8a3.38,3.38,0,0,1-2.64,1.52h-7.85Z"/><path class="cls-42" d="M236.17,531.87a1.15,1.15,0,0,1-.9-0.52L233.93,529a1.15,1.15,0,0,1,0-1l1.33-2.31a1.15,1.15,0,0,1,.9-0.52h2.67a1.15,1.15,0,0,1,.9.52l1.34,2.31a1.15,1.15,0,0,1,0,1l-1.34,2.31a1.15,1.15,0,0,1-.9.52h-2.67Z"/><path class="cls-43" d="M215.26,513.95a4.92,4.92,0,0,1-3.84-2.22l-5.71-9.89a4.91,4.91,0,0,1,0-4.43l5.71-9.89a4.92,4.92,0,0,1,3.84-2.22h11.42a4.91,4.91,0,0,1,3.84,2.22l5.71,9.89a4.92,4.92,0,0,1,0,4.43l-5.71,9.89a4.92,4.92,0,0,1-3.84,2.22H215.26Z"/><path class="cls-39" d="M215.26,513.95a4.92,4.92,0,0,1-3.84-2.22l-5.71-9.89a4.91,4.91,0,0,1,0-4.43l5.71-9.89a4.92,4.92,0,0,1,3.84-2.22h11.42a4.91,4.91,0,0,1,3.84,2.22l5.71,9.89a4.92,4.92,0,0,1,0,4.43l-5.71,9.89a4.92,4.92,0,0,1-3.84,2.22H215.26Z"/><path class="cls-42" d="M218.75,505.18a1.91,1.91,0,0,1-1.49-.86l-2.21-3.83a1.91,1.91,0,0,1,0-1.72l2.21-3.83a1.9,1.9,0,0,1,1.49-.86h4.43a1.91,1.91,0,0,1,1.49.86l2.21,3.83a1.91,1.91,0,0,1,0,1.72l-2.21,3.83a1.91,1.91,0,0,1-1.49.86h-4.43Z"/><line class="cls-42" x1="126.19" y1="414.39" x2="140.84" y2="414.39"/><line class="cls-42" x1="144.13" y1="407.76" x2="144.13" y2="410.95"/><line class="cls-42" x1="147.44" y1="414.39" x2="162.09" y2="414.39"/><path class="cls-38" d="M117.6,372.61a4.64,4.64,0,0,1,4.61-4.64H166a4.64,4.64,0,0,1,4.62,4.64v4a4.64,4.64,0,0,1-4.62,4.64H122.21a4.64,4.64,0,0,1-4.61-4.64v-4Z"/><line class="cls-39" x1="135.76" y1="377.28" x2="122.43" y2="377.28"/><line class="cls-39" x1="166.67" y1="374.6" x2="166.67" y2="374.6"/><line class="cls-42" x1="164.02" y1="374.6" x2="164.02" y2="374.6"/><path class="cls-38" d="M117.6,385.87a4.64,4.64,0,0,1,4.61-4.64H166a4.64,4.64,0,0,1,4.62,4.64v4a4.64,4.64,0,0,1-4.62,4.64H122.21a4.64,4.64,0,0,1-4.61-4.64v-4Z"/><line class="cls-39" x1="135.76" y1="390.55" x2="122.43" y2="390.55"/><line class="cls-39" x1="164.02" y1="387.86" x2="164.02" y2="387.86"/><line class="cls-42" x1="166.67" y1="387.86" x2="166.67" y2="387.86"/><path class="cls-38" d="M117.6,399.14a4.64,4.64,0,0,1,4.61-4.64H166a4.64,4.64,0,0,1,4.62,4.64v4a4.64,4.64,0,0,1-4.62,4.64H122.21a4.64,4.64,0,0,1-4.61-4.64v-4Z"/><line class="cls-39" x1="135.76" y1="403.81" x2="122.43" y2="403.81"/><line class="cls-39" x1="166.67" y1="401.13" x2="166.67" y2="401.13"/><line class="cls-42" x1="164.02" y1="401.13" x2="164.02" y2="401.13"/><rect class="cls-43" x="140.81" y="411.31" width="6.63" height="6.63" rx="1.33" ry="1.33"/><rect class="cls-39" x="140.81" y="411.31" width="6.63" height="6.63" rx="1.33" ry="1.33"/><path class="cls-45" d="M135,652.53a7.89,7.89,0,0,1-6.16-3.55l-9.16-15.86a7.89,7.89,0,0,1,0-7.11l9.16-15.86a7.89,7.89,0,0,1,6.16-3.55h18.32a7.89,7.89,0,0,1,6.16,3.55L168.6,626a7.89,7.89,0,0,1,0,7.11L159.44,649a7.89,7.89,0,0,1-6.16,3.56H135Z"/><path class="cls-41" d="M137.87,626.54a0.23,0.23,0,0,1,.17.07,0.23,0.23,0,0,1,.07.16v5.58a0.23,0.23,0,0,1-.07.16,0.22,0.22,0,0,1-.17.07h-0.7a0.23,0.23,0,0,1-.23-0.23v-5.58a0.24,0.24,0,0,1,.23-0.23h0.7m0-1.5h-0.7a1.73,1.73,0,0,0-1.73,1.73v5.58a1.72,1.72,0,0,0,.51,1.22,1.7,1.7,0,0,0,1.22.51h0.7a1.74,1.74,0,0,0,1.73-1.73v-5.58a1.73,1.73,0,0,0-.49-1.21,1.75,1.75,0,0,0-1.24-.53h0Z"/><path class="cls-41" d="M142.64,626.45a2.3,2.3,0,0,1,2.54,2.34c0,0.26,0,.5,0,0.69s0,0.54,0,.85a2.54,2.54,0,0,1-5.07,0c0-.31,0-0.6,0-0.85s0-.43,0-0.69a2.31,2.31,0,0,1,2.54-2.34m0,5.14a1.38,1.38,0,0,0,1-.34,1.35,1.35,0,0,0,.4-1c0-.14,0-0.39,0-0.73s0-.58,0-0.73a1.37,1.37,0,0,0-2.74,0c0,0.29,0,.53,0,0.73s0,0.45,0,.73a1.34,1.34,0,0,0,.4,1,1.38,1.38,0,0,0,1,.34m0-6.64a3.92,3.92,0,0,0-2.92,1.1,4,4,0,0,0-1.12,2.66c0,0.29,0,.55,0,0.76s0,0.58,0,.92a4,4,0,0,0,8.07,0c0-.34,0-0.65,0-0.92s0-.47,0-0.76a4,4,0,0,0-1.12-2.68,3.92,3.92,0,0,0-2.91-1.09h0Z"/><path class="cls-41" d="M151.09,626.54a0.22,0.22,0,0,1,.16.07,0.22,0.22,0,0,1,.07.16v0.61a0.22,0.22,0,0,1-.07.16,0.21,0.21,0,0,1-.16.07h-1.56v4.73a0.24,0.24,0,0,1-.23.23h-0.7a0.24,0.24,0,0,1-.23-0.23v-4.73h-1.55a0.22,0.22,0,0,1-.16-0.07,0.22,0.22,0,0,1-.07-0.16v-0.61a0.24,0.24,0,0,1,.24-0.23h4.27m0-1.5h-4.27a1.74,1.74,0,0,0-1.74,1.73v0.61a1.74,1.74,0,0,0,1.74,1.73h0.05v3.23a1.74,1.74,0,0,0,1.73,1.73h0.7a1.74,1.74,0,0,0,1.73-1.73v-3.23h0.06a1.74,1.74,0,0,0,1.73-1.73v-0.61a1.72,1.72,0,0,0-.51-1.23,1.69,1.69,0,0,0-1.22-.5h0Z"/><line class="cls-42" x1="120.85" y1="634.71" x2="120.85" y2="634.71"/><line class="cls-42" x1="161.08" y1="645.76" x2="161.08" y2="645.76"/><circle class="cls-40" cx="125.33" cy="616.31" r="2.31"/><circle class="cls-40" cx="164.48" cy="618.62" r="2.31"/><circle class="cls-40" cx="144.24" cy="652.53" r="2.31"/><text class="cls-35" transform="translate(137.87 674.68)">I<tspan x="2.4" y="0">O</tspan><tspan x="7.86" y="0">T</tspan></text><path class="cls-37" d="M282.48,516.3a1.19,1.19,0,0,0-.93.54l-1.38,2.39a1.19,1.19,0,0,0,0,1.07l1.38,2.39a1.19,1.19,0,0,0,.93.54h2.76a1.19,1.19,0,0,0,.93-0.54l1.38-2.39a1.19,1.19,0,0,0,0-1.07l-1.38-2.39a1.19,1.19,0,0,0-.93-0.54h-2.76Z"/><path class="cls-37" d="M195.8,635a1.19,1.19,0,0,0-.93.54l-1.38,2.39a1.19,1.19,0,0,0,0,1.07l1.38,2.39a1.19,1.19,0,0,0,.93.54h2.76a1.19,1.19,0,0,0,.93-0.54l1.38-2.39a1.19,1.19,0,0,0,0-1.07l-1.38-2.39a1.19,1.19,0,0,0-.93-0.54H195.8Z"/><path class="cls-43" d="M643.23,494.21c-9,0-20.08-6.39-24.58-14.2L582.1,416.66c-4.51-7.81-4.5-20.58,0-28.39L618.65,325c4.51-7.81,15.57-14.2,24.59-14.2H716.4c9,0,20.08,6.39,24.59,14.2l36.55,63.31c4.51,7.81,4.51,20.58,0,28.39L741,480c-4.51,7.81-15.57,14.2-24.58,14.2H643.23Z"/><g class="cls-46"><g class="cls-47"><path class="cls-48" d="M609.32,345.59a6.57,6.57,0,0,1-5.13-3l-17-29.45a6.57,6.57,0,0,1,0-5.92l17-29.45a6.57,6.57,0,0,1,5.13-3h34a6.57,6.57,0,0,1,5.13,3l17,29.45a6.57,6.57,0,0,1,0,5.92l-17,29.45a6.57,6.57,0,0,1-5.13,3h-34Z"/></g><g class="cls-49"><path class="cls-48" d="M613,337.9a5.14,5.14,0,0,1-4-2.32L595.7,312.53a5.14,5.14,0,0,1,0-4.63l13.31-23a5.14,5.14,0,0,1,4-2.32h26.62a5.14,5.14,0,0,1,4,2.32l13.31,23a5.14,5.14,0,0,1,0,4.63l-13.31,23.05a5.14,5.14,0,0,1-4,2.32H613Z"/></g><g class="cls-50"><path class="cls-48" d="M616.72,330.21a3.71,3.71,0,0,1-2.9-1.67l-9.61-16.65a3.71,3.71,0,0,1,0-3.35l9.61-16.65a3.71,3.71,0,0,1,2.9-1.67h19.22a3.71,3.71,0,0,1,2.9,1.67l9.61,16.65a3.71,3.71,0,0,1,0,3.35l-9.61,16.65a3.71,3.71,0,0,1-2.9,1.67H616.72Z"/></g></g><g class="cls-46"><g class="cls-47"><path class="cls-48" d="M715.12,345.59a6.57,6.57,0,0,1-5.13-3l-17-29.45a6.57,6.57,0,0,1,0-5.92l17-29.45a6.57,6.57,0,0,1,5.13-3h34a6.57,6.57,0,0,1,5.13,3l17,29.45a6.57,6.57,0,0,1,0,5.92l-17,29.45a6.57,6.57,0,0,1-5.13,3h-34Z"/></g><g class="cls-49"><path class="cls-48" d="M718.81,337.9a5.14,5.14,0,0,1-4-2.32l-13.31-23.05a5.14,5.14,0,0,1,0-4.63l13.31-23.05a5.14,5.14,0,0,1,4-2.32h26.62a5.14,5.14,0,0,1,4,2.32l13.31,23.05a5.14,5.14,0,0,1,0,4.63l-13.31,23.05a5.14,5.14,0,0,1-4,2.32H718.81Z"/></g><g class="cls-50"><path class="cls-48" d="M722.51,330.21a3.71,3.71,0,0,1-2.9-1.67L710,311.89a3.71,3.71,0,0,1,0-3.35l9.61-16.65a3.71,3.71,0,0,1,2.9-1.67h19.22a3.71,3.71,0,0,1,2.9,1.67l9.61,16.65a3.71,3.71,0,0,1,0,3.35l-9.61,16.65a3.71,3.71,0,0,1-2.9,1.67H722.51Z"/></g></g><g class="cls-46"><g class="cls-47"><path class="cls-48" d="M716,529.48a6.57,6.57,0,0,1-5.13-3l-17-29.45a6.57,6.57,0,0,1,0-5.92l17-29.45a6.57,6.57,0,0,1,5.13-3h34a6.57,6.57,0,0,1,5.13,3l17,29.45a6.57,6.57,0,0,1,0,5.92l-17,29.45a6.57,6.57,0,0,1-5.13,3H716Z"/></g><g class="cls-49"><path class="cls-48" d="M719.74,521.79a5.14,5.14,0,0,1-4-2.32l-13.31-23.05a5.14,5.14,0,0,1,0-4.63l13.31-23.05a5.14,5.14,0,0,1,4-2.32h26.62a5.14,5.14,0,0,1,4,2.32l13.31,23.05a5.14,5.14,0,0,1,0,4.63l-13.31,23.05a5.14,5.14,0,0,1-4,2.32H719.74Z"/></g><g class="cls-50"><path class="cls-48" d="M723.44,514.1a3.71,3.71,0,0,1-2.9-1.67l-9.61-16.65a3.71,3.71,0,0,1,0-3.35l9.61-16.65a3.71,3.71,0,0,1,2.9-1.67h19.22a3.71,3.71,0,0,1,2.9,1.67l9.61,16.65a3.71,3.71,0,0,1,0,3.35l-9.61,16.65a3.71,3.71,0,0,1-2.9,1.67H723.44Z"/></g></g><g class="cls-51"><path class="cls-52" d="M462.27,494.11A17.06,17.06,0,0,1,449,486.42l-44.17-76.51a17.06,17.06,0,0,1,0-15.38L449,318a17.06,17.06,0,0,1,13.32-7.69h88.35A17.06,17.06,0,0,1,563.95,318l44.17,76.51a17.06,17.06,0,0,1,0,15.38l-44.17,76.51a17.06,17.06,0,0,1-13.32,7.69H462.27Z"/><path class="cls-53" d="M462.27,494.11A17.06,17.06,0,0,1,449,486.42l-44.17-76.51a17.06,17.06,0,0,1,0-15.38L449,318a17.06,17.06,0,0,1,13.32-7.69h88.35A17.06,17.06,0,0,1,563.95,318l44.17,76.51a17.06,17.06,0,0,1,0,15.38l-44.17,76.51a17.06,17.06,0,0,1-13.32,7.69H462.27Z"/></g><text class="cls-54" transform="translate(1037.49 666.27)">D<tspan x="6.2" y="0">AT</tspan><tspan x="16.59" y="0">A</tspan><tspan x="-16.53" y="9">W</tspan><tspan x="-9.44" y="9">AREHOUSE</tspan></text><text class="cls-55" transform="translate(841.35 473.03)">UNIFIED <tspan x="66.83" y="0">L</tspan><tspan x="75.98" y="0">OG</tspan></text><text class="cls-56" transform="translate(456.82 556.43)">COLL<tspan x="40.67" y="0">E</tspan><tspan x="50.54" y="0">CTING</tspan></text><g class="cls-51"><path class="cls-57" d="M635,494.11a17.06,17.06,0,0,1-13.32-7.69l-44.17-76.51a17.06,17.06,0,0,1,0-15.38L621.73,318A17.06,17.06,0,0,1,635,310.33H723.4A17.06,17.06,0,0,1,736.72,318l44.17,76.51a17.06,17.06,0,0,1,0,15.38l-44.17,76.51a17.06,17.06,0,0,1-13.32,7.69H635Z"/></g><path class="cls-53" d="M462.27,494.11A17.06,17.06,0,0,1,449,486.42l-44.17-76.51a17.06,17.06,0,0,1,0-15.38L449,318a17.06,17.06,0,0,1,13.32-7.69h88.35A17.06,17.06,0,0,1,563.95,318l44.17,76.51a17.06,17.06,0,0,1,0,15.38l-44.17,76.51a17.06,17.06,0,0,1-13.32,7.69H462.27Z"/><path class="cls-53" d="M635,494.11a17.06,17.06,0,0,1-13.32-7.69l-44.17-76.51a17.06,17.06,0,0,1,0-15.38L621.73,318A17.06,17.06,0,0,1,635,310.33H723.4A17.06,17.06,0,0,1,736.72,318l44.17,76.51a17.06,17.06,0,0,1,0,15.38l-44.17,76.51a17.06,17.06,0,0,1-13.32,7.69H635Z"/><text class="cls-58" transform="translate(639.16 285.62)">V<tspan x="5.61" y="0">ALI</tspan><tspan x="19.78" y="0">D</tspan><tspan x="25.98" y="0">A</tspan><tspan x="31.57" y="0">TION</tspan></text><text class="cls-58" transform="translate(746.85 285.62)">ENRICHMEN<tspan x="52.75" y="0">T</tspan></text><text class="cls-58" transform="translate(746.85 524.28)">D<tspan x="6.2" y="0">AT</tspan><tspan x="16.59" y="0">A</tspan><tspan class="cls-59" x="22.6" y="0"> MODELING</tspan></text><g class="cls-51"><path class="cls-60" d="M726.15,322.1a2.31,2.31,0,0,1-1.8-1l-6-10.35a2.31,2.31,0,0,1,0-2.08l6-10.35a2.31,2.31,0,0,1,1.8-1H738.1a2.31,2.31,0,0,1,1.8,1l6,10.35a2.31,2.31,0,0,1,0,2.08l-6,10.35a2.31,2.31,0,0,1-1.8,1H726.15Z"/></g><g class="cls-51"><path class="cls-60" d="M620.35,322.64a2.31,2.31,0,0,1-1.8-1l-6-10.35a2.31,2.31,0,0,1,0-2.08l6-10.35a2.31,2.31,0,0,1,1.8-1H632.3a2.31,2.31,0,0,1,1.8,1l6,10.35a2.31,2.31,0,0,1,0,2.08l-6,10.35a2.31,2.31,0,0,1-1.8,1H620.35Z"/></g><g class="cls-51"><path class="cls-60" d="M727.07,506.1a2.31,2.31,0,0,1-1.8-1l-6-10.35a2.31,2.31,0,0,1,0-2.08l6-10.35a2.31,2.31,0,0,1,1.8-1H739a2.31,2.31,0,0,1,1.8,1l6,10.35a2.31,2.31,0,0,1,0,2.08l-6,10.35a2.31,2.31,0,0,1-1.8,1H727.07Z"/></g><path class="cls-43" d="M624.56,314.66a1.52,1.52,0,0,1-1.19-.69l-1.77-3.07a1.53,1.53,0,0,1,0-1.37l1.77-3.07a1.52,1.52,0,0,1,1.19-.69h3.54a1.52,1.52,0,0,1,1.19.69l1.77,3.07a1.53,1.53,0,0,1,0,1.37L629.29,314a1.52,1.52,0,0,1-1.19.69h-3.54Z"/><path class="cls-43" d="M731.28,498.11a1.52,1.52,0,0,1-1.19-.69l-1.77-3.07a1.52,1.52,0,0,1,0-1.37l1.77-3.06a1.52,1.52,0,0,1,1.19-.69h3.54a1.52,1.52,0,0,1,1.19.69l1.77,3.06a1.52,1.52,0,0,1,0,1.37L736,497.43a1.52,1.52,0,0,1-1.19.69h-3.54Z"/><path class="cls-43" d="M730.35,314.11a1.52,1.52,0,0,1-1.19-.69l-1.77-3.07a1.52,1.52,0,0,1,0-1.37l1.77-3.06a1.52,1.52,0,0,1,1.19-.69h3.54a1.52,1.52,0,0,1,1.19.69l1.77,3.06a1.52,1.52,0,0,1,0,1.37l-1.77,3.07a1.52,1.52,0,0,1-1.19.69h-3.54Z"/><path class="cls-61" d="M441.32,510.16a6.82,6.82,0,0,1-5.33-3.08l-6-10.34a6.82,6.82,0,0,1,0-6.15l6-10.33a6.82,6.82,0,0,1,5.33-3.08h11.93a6.82,6.82,0,0,1,5.33,3.08l6,10.33a6.82,6.82,0,0,1,0,6.15l-6,10.34a6.82,6.82,0,0,1-5.33,3.08H441.32Z"/><g class="cls-2"><path class="cls-62" d="M491.83,434.6a8.53,8.53,0,0,1-6.66-3.85L470.89,406a8.53,8.53,0,0,1,0-7.69l14.29-24.74a8.53,8.53,0,0,1,6.66-3.84h28.58a8.53,8.53,0,0,1,6.66,3.84l14.29,24.74a8.53,8.53,0,0,1,0,7.69l-14.29,24.75a8.53,8.53,0,0,1-6.66,3.85H491.83Z"/></g><path class="cls-61" d="M553.36,324.2a5.12,5.12,0,0,1-4-2.31l-3.08-5.33a5.12,5.12,0,0,1,0-4.61l3.08-5.32a5.12,5.12,0,0,1,4-2.31h6.15a5.12,5.12,0,0,1,4,2.31l3.07,5.32a5.12,5.12,0,0,1,0,4.61l-3.07,5.32a5.12,5.12,0,0,1-4,2.31h-6.15Z"/><path class="cls-62" d="M449.61,411.92a5.12,5.12,0,0,1-4-2.31l-3.08-5.33a5.12,5.12,0,0,1,0-4.61l3.08-5.32a5.12,5.12,0,0,1,4-2.31h6.15a5.12,5.12,0,0,1,4,2.31l3.07,5.32a5.12,5.12,0,0,1,0,4.61l-3.07,5.32a5.12,5.12,0,0,1-4,2.31h-6.15Z"/><g class="cls-63"><line class="cls-62" x1="509.05" y1="397.35" x2="510.58" y2="394.65"/><line class="cls-64" x1="513.84" y1="388.94" x2="520.11" y2="377.92"/><line class="cls-65" x1="521.27" y1="375.88" x2="547.99" y2="328.94"/><line class="cls-62" x1="549.15" y1="326.9" x2="550.69" y2="324.2"/></g><g class="cls-63"><line class="cls-62" x1="456.47" y1="478.14" x2="458.19" y2="475.55"/><line class="cls-66" x1="461.87" y1="469.98" x2="468.98" y2="459.24"/><line class="cls-67" x1="470.3" y1="457.25" x2="500.58" y2="411.5"/><line class="cls-62" x1="501.9" y1="409.51" x2="503.61" y2="406.92"/></g><g class="cls-63"><line class="cls-62" x1="529.75" y1="443.3" x2="528.21" y2="440.6"/><line class="cls-68" x1="525.88" y1="436.51" x2="521.39" y2="428.61"/><line class="cls-69" x1="520.56" y1="427.15" x2="511.41" y2="411.08"/><line class="cls-62" x1="510.58" y1="409.62" x2="509.05" y2="406.92"/></g><g class="cls-63"><line class="cls-62" x1="503.5" y1="397.35" x2="501.92" y2="394.67"/><line class="cls-70" x1="498.84" y1="389.44" x2="492.9" y2="379.34"/><line class="cls-71" x1="491.8" y1="377.46" x2="466.51" y2="334.45"/><line class="cls-62" x1="465.41" y1="332.57" x2="463.84" y2="329.9"/></g><path class="cls-62" d="M532.19,463.17a5.12,5.12,0,0,1-4-2.31l-3.07-5.33a5.12,5.12,0,0,1,0-4.61l3.07-5.32a5.12,5.12,0,0,1,4-2.31h6.15a5.12,5.12,0,0,1,4,2.31l3.07,5.32a5.12,5.12,0,0,1,0,4.61l-3.07,5.33a5.12,5.12,0,0,1-4,2.31h-6.15Z"/><path class="cls-72" d="M504.38,407a1.71,1.71,0,0,1-1.33-.77l-1.89-3.27a1.7,1.7,0,0,1,0-1.54l1.89-3.27a1.71,1.71,0,0,1,1.33-.77h3.78a1.71,1.71,0,0,1,1.33.77l1.89,3.27a1.71,1.71,0,0,1,0,1.54l-1.89,3.27a1.71,1.71,0,0,1-1.33.77h-3.78Z"/><path class="cls-72" d="M458.88,329.9a1.71,1.71,0,0,1-1.33-.77l-1.89-3.27a1.7,1.7,0,0,1,0-1.54l1.89-3.27a1.71,1.71,0,0,1,1.33-.77h3.78A1.71,1.71,0,0,1,464,321l1.89,3.27a1.7,1.7,0,0,1,0,1.54L464,329.13a1.71,1.71,0,0,1-1.33.77h-3.78Z"/><path class="cls-73" d="M441.32,510.16a6.82,6.82,0,0,1-5.33-3.08l-6-10.34a6.82,6.82,0,0,1,0-6.15l6-10.33a6.82,6.82,0,0,1,5.33-3.08h11.93a6.82,6.82,0,0,1,5.33,3.08l6,10.33a6.82,6.82,0,0,1,0,6.15l-6,10.34a6.82,6.82,0,0,1-5.33,3.08H441.32Z"/><path class="cls-74" d="M553.36,324.2a5.12,5.12,0,0,1-4-2.31l-3.08-5.33a5.12,5.12,0,0,1,0-4.61l3.08-5.32a5.12,5.12,0,0,1,4-2.31h6.15a5.12,5.12,0,0,1,4,2.31l3.07,5.32a5.12,5.12,0,0,1,0,4.61l-3.07,5.32a5.12,5.12,0,0,1-4,2.31h-6.15Z"/><path class="cls-75" d="M458.88,329.9a1.71,1.71,0,0,1-1.33-.77l-1.89-3.27a1.7,1.7,0,0,1,0-1.54l1.89-3.27a1.71,1.71,0,0,1,1.33-.77h3.78A1.71,1.71,0,0,1,464,321l1.89,3.27a1.7,1.7,0,0,1,0,1.54L464,329.13a1.71,1.71,0,0,1-1.33.77h-3.78Z"/><line class="cls-76" x1="463.27" y1="401.98" x2="501.6" y2="401.98"/><path class="cls-62" d="M567.82,389.23a6.57,6.57,0,0,1,5.13,3l3.95,6.83a6.56,6.56,0,0,1,0,5.92l-3.95,6.83a6.57,6.57,0,0,1-5.13,3h-7.89a6.57,6.57,0,0,1-5.13-3l-3.94-6.83a6.57,6.57,0,0,1,0-5.92l3.94-6.83a6.56,6.56,0,0,1,5.13-3h7.89Z"/><line class="cls-76" x1="549.16" y1="401.99" x2="510.82" y2="401.99"/><g class="cls-63"><path class="cls-72" d="M636.2,401.57s20.19-23.66,42.59-23.66,42.59,23.66,42.59,23.66-18.3,23.66-42.59,23.66S636.2,401.57,636.2,401.57Z"/></g><circle class="cls-62" cx="678.79" cy="401.57" r="23.66" transform="translate(-85.14 597.59) rotate(-45)"/><circle class="cls-77" cx="678.79" cy="401.57" r="23.66" transform="translate(-85.14 597.59) rotate(-45)"/><path class="cls-60" d="M678.79,392.1a9.42,9.42,0,0,0-3.94.87,3.3,3.3,0,1,1-4.66,4.66A9.46,9.46,0,1,0,678.79,392.1Z"/><path class="cls-23" d="M672.64,398.73a3.34,3.34,0,1,0-2.45-1.1A3.31,3.31,0,0,0,672.64,398.73Z"/><circle class="cls-78" cx="678.79" cy="401.57" r="35.52"/><path class="cls-79" d="M893.32,384.11H887.7a3.06,3.06,0,0,0-3.06,3v30a3.06,3.06,0,0,0,3.06,3h5.62a3.06,3.06,0,0,0,3.06-3v-30A3.06,3.06,0,0,0,893.32,384.11Z"/><path class="cls-36" d="M869.7,384.11h-5.62a3.06,3.06,0,0,0-3.06,3v30a3.06,3.06,0,0,0,3.06,3h5.62a3.06,3.06,0,0,1,6.12,0h5.76a3,3,0,0,0,.58-0.06l0.18,0a2.53,2.53,0,0,0,.36-0.11l0.2-.09,0.29-.16,0.19-.13,0.25-.2,0.17-.17L884,419l0.14-.19a3.21,3.21,0,0,0,.16-0.29c0-.07.07-0.13,0.1-0.21a3,3,0,0,0,.16-0.51,3.07,3.07,0,0,0,3,2.41h5.9a3.07,3.07,0,0,0,3-2.41h0a3.06,3.06,0,0,0,.16.51c0,0.07.07,0.14,0.1,0.2a3.09,3.09,0,0,0,.16.29L897,419l0.2,0.24,0.17,0.17,0.25,0.2,0.19,0.13,0.29,0.16,0.2,0.09a2.68,2.68,0,0,0,.36.11l0.18,0a3.07,3.07,0,0,0,.58.06h5.76a3.06,3.06,0,0,1,6.12,0h5.62a3.06,3.06,0,0,0,3.06-3v-30a3.06,3.06,0,0,0-3.06-3h-5.62a3.06,3.06,0,0,1-6.12,0h-5.76a3.16,3.16,0,0,0-.58.06l-0.18,0a3.15,3.15,0,0,0-.36.11l-0.2.09-0.29.16-0.19.13-0.24.2-0.17.17-0.2.24-0.14.2a2.94,2.94,0,0,0-.16.28c0,0.07-.07.13-0.1,0.21a3,3,0,0,0-.16.51h0a3.07,3.07,0,0,0-3-2.41h-5.9a2,2,0,1,1-3.15,1.9c0-.07-0.07-0.14-0.1-0.21a2.92,2.92,0,0,0-.16-0.28c0-.07-0.1-0.13-0.15-0.2a2.79,2.79,0,0,0-.2-0.24l-0.17-.17-0.24-.2-0.19-.13-0.29-.16-0.2-.09a3.18,3.18,0,0,0-.36-0.11l-0.18,0a3.13,3.13,0,0,0-.58-0.06h-5.76A3.06,3.06,0,0,1,869.7,384.11Z"/><path class="cls-80" d="M881.44,384.11h-5.62a3.06,3.06,0,0,0-3.06,3v30a3.06,3.06,0,0,0,3.06,3h5.62a3.06,3.06,0,0,0,3.06-3v-30A3.06,3.06,0,0,0,881.44,384.11Z"/><path class="cls-80" d="M905.2,384.11h-5.62a3.06,3.06,0,0,0-3.06,3v30a3.06,3.06,0,0,0,3.06,3h5.62a3.06,3.06,0,0,0,3.06-3v-30A3.06,3.06,0,0,0,905.2,384.11Z"/><path class="cls-4" d="M869.7,384.11h-5.62a3.06,3.06,0,0,0-3.06,3v30a3.06,3.06,0,0,0,3.06,3h5.62a3.06,3.06,0,0,1,6.12,0h5.76a3,3,0,0,0,.58-0.06l0.18,0a2.53,2.53,0,0,0,.36-0.11l0.2-.09,0.29-.16,0.19-.13,0.25-.2,0.17-.17L884,419l0.14-.19a3.21,3.21,0,0,0,.16-0.29c0-.07.07-0.13,0.1-0.21a3,3,0,0,0,.16-0.51,3.07,3.07,0,0,0,3,2.41h5.9a3.07,3.07,0,0,0,3-2.41h0a3.06,3.06,0,0,0,.16.51c0,0.07.07,0.14,0.1,0.2a3.09,3.09,0,0,0,.16.29L897,419l0.2,0.24,0.17,0.17,0.25,0.2,0.19,0.13,0.29,0.16,0.2,0.09a2.68,2.68,0,0,0,.36.11l0.18,0a3.07,3.07,0,0,0,.58.06h5.76a3.06,3.06,0,0,1,6.12,0h5.62a3.06,3.06,0,0,0,3.06-3v-30a3.06,3.06,0,0,0-3.06-3h-5.62a3.06,3.06,0,0,1-6.12,0h-5.76a3.16,3.16,0,0,0-.58.06l-0.18,0a3.15,3.15,0,0,0-.36.11l-0.2.09-0.29.16-0.19.13-0.24.2-0.17.17-0.2.24-0.14.2a2.94,2.94,0,0,0-.16.28c0,0.07-.07.13-0.1,0.21a3,3,0,0,0-.16.51h0a3.07,3.07,0,0,0-3-2.41h-5.9a2,2,0,1,1-3.15,1.9c0-.07-0.07-0.14-0.1-0.21a2.92,2.92,0,0,0-.16-0.28c0-.07-0.1-0.13-0.15-0.2a2.79,2.79,0,0,0-.2-0.24l-0.17-.17-0.24-.2-0.19-.13-0.29-.16-0.2-.09a3.18,3.18,0,0,0-.36-0.11l-0.18,0a3.13,3.13,0,0,0-.58-0.06h-5.76A3.06,3.06,0,0,1,869.7,384.11Z"/><path class="cls-81" d="M469.51,494.11h-8.06c-4.43,0-10.05-3.46-12.5-7.69l-44.17-76.51a17.06,17.06,0,0,1,0-15.38L449,318c2.44-4.23,8.06-7.69,12.49-7.69h8.06"/><g class="cls-2"><path class="cls-4" d="M352.2,337l-1,6.8a1.86,1.86,0,0,1-2.42,1.57l-7.3-2.11"/></g><g class="cls-2"><path class="cls-4" d="M283,219.15l-1,6.8a1.86,1.86,0,0,1-2.42,1.57l-7.3-2.11"/></g><g class="cls-2"><path class="cls-4" d="M277.18,396.42l5.34,4.31a1.86,1.86,0,0,1,.11,2.88l-5.55,5.19"/></g><g class="cls-2"><path class="cls-4" d="M351.61,469.12l-1-6.8a1.86,1.86,0,0,0-2.42-1.57l-7.3,2.11"/></g><g class="cls-2"><path class="cls-4" d="M282.41,587.47l-1-6.8a1.86,1.86,0,0,0-2.42-1.57l-7.3,2.11"/></g><g class="cls-2"><path class="cls-4" d="M432.39,445.91l-6.45-2.34a1.86,1.86,0,0,0-2.52,1.4l-1.57,7.43"/></g><g class="cls-2"><path class="cls-4" d="M422,352.27l6.45-2.34a1.86,1.86,0,0,1,2.52,1.4l1.57,7.43"/></g><g class="cls-2"><path class="cls-82" d="M594.35,352.27l6.45-2.34a1.86,1.86,0,0,1,2.52,1.4l1.57,7.43"/></g><g class="cls-2"><path class="cls-82" d="M605.7,446.58l-6.45-2.34a1.86,1.86,0,0,0-2.52,1.4l-1.57,7.43"/></g><g class="cls-2"><path class="cls-82" d="M765.46,447.6l-6.32,2.69a1.86,1.86,0,0,1-2.59-1.26l-2-7.34"/></g><g class="cls-2"><path class="cls-82" d="M508.43,316.6l5.34-4.31a1.86,1.86,0,0,0,.11-2.88l-5.55-5.19"/></g><g class="cls-2"><path class="cls-82" d="M675.31,316.6l5.34-4.31a1.86,1.86,0,0,0,.11-2.88l-5.55-5.19"/></g><g class="cls-2"><path class="cls-82" d="M515.34,488.07L510,492.38a1.86,1.86,0,0,0-.1,2.88l5.55,5.19"/></g><text class="cls-56" transform="translate(629.18 556.43)">P<tspan x="10.56" y="0">R</tspan><tspan x="21.31" y="0">OCESSING</tspan></text><g class="cls-2"><path class="cls-82" d="M751.69,355.38l6.45,2.34a1.86,1.86,0,0,0,2.52-1.4l1.57-7.43"/></g><g class="cls-2"><path class="cls-4" d="M996.89,356.63L990.44,359a1.86,1.86,0,0,1-2.52-1.4l-1.57-7.43"/></g><g class="cls-2"><path class="cls-4" d="M1029.34,300.41l-1.37-6.73a1.86,1.86,0,0,0-2.51-1.42l-7.16,2.53"/></g><g class="cls-2"><path class="cls-3" d="M1054.3,232.57l1.37,6.73a1.86,1.86,0,0,0,2.51,1.42l7.16-2.53"/></g></g></g></svg>