<svg id="Insigths" xmlns="http://www.w3.org/2000/svg" viewBox="0 0 800 800"><defs><style>.cls-1{fill:#fff;}.cls-2,.cls-20{opacity:0.66;}.cls-10,.cls-11,.cls-12,.cls-13,.cls-14,.cls-15,.cls-16,.cls-17,.cls-18,.cls-19,.cls-20,.cls-21,.cls-22,.cls-3,.cls-4,.cls-5,.cls-6,.cls-7,.cls-8,.cls-9{fill:none;}.cls-10,.cls-11,.cls-12,.cls-13,.cls-14,.cls-15,.cls-16,.cls-17,.cls-18,.cls-19,.cls-20,.cls-21,.cls-3,.cls-4,.cls-5,.cls-6,.cls-7,.cls-8,.cls-9{stroke:#fff;stroke-linecap:round;stroke-linejoin:round;}.cls-12,.cls-13,.cls-14,.cls-17,.cls-18,.cls-3{stroke-width:8px;}.cls-10,.cls-11,.cls-15,.cls-16,.cls-19,.cls-20,.cls-21,.cls-4,.cls-5,.cls-6,.cls-7,.cls-8,.cls-9{stroke-width:4px;}.cls-5{stroke-dasharray:3.36 23.53 10.09 16.81;}.cls-6{stroke-dasharray:23.53 23.53 3.36 23.53 10.09 16.81;}.cls-7{stroke-dasharray:2.23 15.62 6.69 11.16;}.cls-8{stroke-dasharray:2.78 19.44 8.33 13.88;}.cls-9{stroke-dasharray:19.44 19.44 2.78 19.44 8.33 13.88;}.cls-10{stroke-dasharray:3.33 23.34 10 16.67;}.cls-11{stroke-dasharray:23.34 23.34 3.33 23.34 10 16.67;}.cls-12{stroke-dasharray:155.98 51.99 0 34.66 34.66 69.33;}.cls-13{stroke-dasharray:209.45 69.82 0 46.54 46.54 93.09;}.cls-14{stroke-dasharray:76.23 21.34 0 15.25 15.25 30.49;}.cls-15{stroke-dasharray:2.58 18.06 7.74 12.9;}.cls-16{stroke-dasharray:18.06 18.06 2.58 18.06 7.74 12.9;}.cls-17{opacity:0.8;}.cls-18{stroke-dasharray:148.09 49.36 0 32.91 32.91 65.82;}.cls-19{stroke-dasharray:104.8 34.93 0 17.47 17.47 52.4;}.cls-21{stroke-dasharray:45 15 0 10 10 20;}</style></defs><title>Snowplow_Website-Home_Icon_Insights</title><path class="cls-1" d="M53.32,718.25q-4.23-3.9-13.24-5.73c-4.68-1-7-1.67-8.89-2.15A13.76,13.76,0,0,1,27,708.73a2.87,2.87,0,0,1-1.36-2.51,3.38,3.38,0,0,1,2.2-3.14,9.92,9.92,0,0,1,4.69-1,12.63,12.63,0,0,1,4.53.75,7.83,7.83,0,0,1,2.87,1.7L41,705.69a5.79,5.79,0,0,0,1.5,1,4.63,4.63,0,0,0,1.83.29H55A14.13,14.13,0,0,0,52.17,698a19.6,19.6,0,0,0-7.46-6.09,28.23,28.23,0,0,0-11.8-2.43,21.63,21.63,0,0,0-10.34,2.35,19.24,19.24,0,0,0-7.93,6.29,14.52,14.52,0,0,0-2.79,8.56q0,6.85,3.83,10.95c2.55,2.73,5.58,4.68,11,5.85l3.59,0.72q5.58,1.19,8.14,1.83a13.14,13.14,0,0,1,3.95,1.55,2.67,2.67,0,0,1,1.39,2.27q0,4.22-9.89,4.22a12.48,12.48,0,0,1-5-.92A9,9,0,0,1,25.73,731c-0.69-.77-0.9-0.88-1.27-1.28a3.37,3.37,0,0,0-2.6-.89H10v1.41c0,2.71,1.35,5.33,3.48,7.88a23.12,23.12,0,0,0,8.84,6.21,26.9,26.9,0,0,0,11.51,2.39,30.88,30.88,0,0,0,11.78-2.11,19.85,19.85,0,0,0,8.78-6,14.3,14.3,0,0,0,3.15-9.19Q57.54,722.15,53.32,718.25Z"/><path class="cls-1" d="M314.58,732.76V693a3.64,3.64,0,0,0-3.84-3.37h-10.9V747h28.64c2,0,4.11-1.81,4.11-3.79v-10.4h-18Z"/><path class="cls-1" d="M288.38,694.48c-4-3.25-9.57-4.84-16.66-4.84H248V747H258.8a4.08,4.08,0,0,0,3.93-3.79V728.39h9c7.1,0,12.65-1.92,16.66-5.19s6-8.19,6-14.47S292.39,697.73,288.38,694.48ZM278.06,713.6a9.53,9.53,0,0,1-5.77,1.7h-9.56v-13.1h9.56a9.51,9.51,0,0,1,5.77,1.56,5.56,5.56,0,0,1,2.17,4.82A5.94,5.94,0,0,1,278.06,713.6Z"/><path class="cls-1" d="M161.22,700.06a21,21,0,0,0-8.36-7.76,26.31,26.31,0,0,0-23.88,0,21,21,0,0,0-8.37,7.76A23.25,23.25,0,0,0,117.36,711c-0.11,3-.11,11.3,0,14.17a23.24,23.24,0,0,0,3.26,10.94,20.91,20.91,0,0,0,8.37,7.76,26.31,26.31,0,0,0,23.88,0,20.91,20.91,0,0,0,8.36-7.76,23.21,23.21,0,0,0,3.26-10.94c0.1-1.43.1-12.68,0-14.17A23.22,23.22,0,0,0,161.22,700.06Zm-11.17,24.15a9.74,9.74,0,0,1-2.62,6.16,10.37,10.37,0,0,1-13,0,9.73,9.73,0,0,1-2.62-6.16c-0.14-1.75-.14-10.64,0-12.24a9.73,9.73,0,0,1,2.63-6.16,10.37,10.37,0,0,1,13,0,9.74,9.74,0,0,1,2.63,6.16C150.2,713.57,150.2,722.46,150.05,724.21Z"/><path class="cls-1" d="M107.06,689.64H96.25v29.53l-15-26A7.81,7.81,0,0,0,77,689.9l-0.34-.1h0l-0.25-.05a4.55,4.55,0,0,0-.91-0.1H64.58V747h11a3.7,3.7,0,0,0,3.62-3.69s0-13.17,0-26.05l17.08,29.54V747h10.94l0.36,0c1.62-.18,3.11-1.56,2.83-3a4.54,4.54,0,0,0,.06-0.72V693A3.24,3.24,0,0,0,107.06,689.64Z"/><path class="cls-1" d="M381.84,700.06a21,21,0,0,0-8.36-7.76,26.3,26.3,0,0,0-23.88,0,21,21,0,0,0-8.37,7.76A23.21,23.21,0,0,0,338,711c-0.11,3-.11,11.3,0,14.17a23.2,23.2,0,0,0,3.26,10.94,20.92,20.92,0,0,0,8.37,7.76,26.31,26.31,0,0,0,23.88,0,20.92,20.92,0,0,0,8.36-7.76,23.22,23.22,0,0,0,3.26-10.94c0.1-1.43.1-12.68,0-14.17A23.23,23.23,0,0,0,381.84,700.06Zm-11.17,24.15a9.74,9.74,0,0,1-2.62,6.16,10.37,10.37,0,0,1-13,0,9.73,9.73,0,0,1-2.63-6.16c-0.14-1.75-.14-10.64,0-12.24a9.73,9.73,0,0,1,2.63-6.16,10.37,10.37,0,0,1,13,0,9.74,9.74,0,0,1,2.63,6.16C370.81,713.57,370.81,722.46,370.67,724.21Z"/><path class="cls-1" d="M466,689.64H453.72l-16.87,29V693c0-2-2-3.37-3.94-3.37h-10.8v0.15l-16.92,29.5V693a3.62,3.62,0,0,0-3.81-3.37H391V747h10.38c2,0,4.55-1.71,5.69-3.69l15-26.06V747H433a7.69,7.69,0,0,0,5.6-3.68l28.92-50.1C468.66,691.19,467.94,689.64,466,689.64Z"/><path class="cls-1" d="M238.17,689.64H227.46l-9.11,28.7-6.46-25.29a5.18,5.18,0,0,0-4.83-3.41H196.22l-9.12,28.7-6.67-26.11a3.58,3.58,0,0,0-3.49-2.59H165l13.89,54.47h0l0.72,2.84H191a3.63,3.63,0,0,0,3.39-2.64L203.23,717l6.93,27.15h0l0.72,2.84h10.8a3.1,3.1,0,0,0,2.28-1,5.76,5.76,0,0,0,2.06-2.75l16.07-49.87C242.72,691.35,240.14,689.64,238.17,689.64Z"/><path class="cls-1" d="M480.75,689.43H479.2a1.69,1.69,0,0,0-1.8,1.8v53.71a1.69,1.69,0,0,0,1.8,1.8h1.55a1.69,1.69,0,0,0,1.8-1.8V691.23A1.69,1.69,0,0,0,480.75,689.43Z"/><path class="cls-1" d="M532.58,689.43h-1.47a1.7,1.7,0,0,0-1.31.53,1.92,1.92,0,0,0-.49,1.35v45.28l-30.21-46.18a2,2,0,0,0-1.72-1h-1.72a1.7,1.7,0,0,0-1.31.53,1.92,1.92,0,0,0-.49,1.35v53.63a1.69,1.69,0,0,0,1.8,1.8h1.47a1.91,1.91,0,0,0,1.35-.49,1.7,1.7,0,0,0,.53-1.31v-45.2l30.13,46a2,2,0,0,0,1.72,1h1.8a1.69,1.69,0,0,0,1.31-.53,1.9,1.9,0,0,0,.49-1.35V691.31A1.71,1.71,0,0,0,532.58,689.43Z"/><path class="cls-1" d="M575.89,720a68.07,68.07,0,0,0-10.48-4.09,103.05,103.05,0,0,1-9.91-3.64,13.37,13.37,0,0,1-5-3.6,9.15,9.15,0,0,1,2-12.65q3.73-2.46,10-2.46a16.94,16.94,0,0,1,9.78,2.66,9.37,9.37,0,0,1,4.38,6.75,1.57,1.57,0,0,0,.65,1.27,2.11,2.11,0,0,0,1.15.37h1.64a1.62,1.62,0,0,0,1.72-1.64,13.16,13.16,0,0,0-2.37-6.67,16.5,16.5,0,0,0-6.55-5.49,23,23,0,0,0-10.4-2.17,24.51,24.51,0,0,0-10.15,1.92,15,15,0,0,0-6.51,5.28,13.21,13.21,0,0,0-2.25,7.53,14,14,0,0,0,1.72,7.29,13.61,13.61,0,0,0,5.28,4.83,58.47,58.47,0,0,0,9.87,4q7.12,2.29,10.64,3.81a15.53,15.53,0,0,1,5.36,3.52,7.28,7.28,0,0,1,1.84,5.12,9.27,9.27,0,0,1-3.81,7.9q-3.81,2.82-11.59,2.82-7.37,0-11.3-2.95a10.47,10.47,0,0,1-4.5-6.88,1.74,1.74,0,0,0-1.8-1.64h-1.64a1.66,1.66,0,0,0-1.23.49,1.57,1.57,0,0,0-.49,1.15,12.78,12.78,0,0,0,2.66,7.21,17.61,17.61,0,0,0,7.21,5.44A27.19,27.19,0,0,0,563,747.56q9.58,0,15.07-4.14a13.59,13.59,0,0,0,5.49-11.5,12.41,12.41,0,0,0-1.92-7.21A15.37,15.37,0,0,0,575.89,720Z"/><path class="cls-1" d="M594.56,689.43H593a1.69,1.69,0,0,0-1.8,1.8v53.71a1.69,1.69,0,0,0,1.8,1.8h1.56a1.69,1.69,0,0,0,1.8-1.8V691.23A1.69,1.69,0,0,0,594.56,689.43Z"/><path class="cls-1" d="M647.54,716.37H630a1.7,1.7,0,0,0-1.31.53,1.91,1.91,0,0,0-.49,1.35v1.15a1.91,1.91,0,0,0,.49,1.35,1.69,1.69,0,0,0,1.31.53h14.25v4.18q0,8.52-4.67,12.85t-12.28,4.34q-7.62,0-12-4.18t-4.71-13q-0.08-2.46-.08-7.37t0.08-7.37q0.33-8.84,4.71-13t12-4.18q6.71,0,10.68,2.95a14.46,14.46,0,0,1,5.36,7.29,3.53,3.53,0,0,0,.66,1.31,1.46,1.46,0,0,0,1.07.33h1.8a1.85,1.85,0,0,0,1.23-.41,1.32,1.32,0,0,0,.49-1.06v-0.16a13.47,13.47,0,0,0-2.5-6.35,19.46,19.46,0,0,0-7.08-6.18,24,24,0,0,0-11.71-2.62q-10.24,0-15.88,5.89t-6,15.8q-0.08,2.46-.08,7.78t0.08,7.78q0.33,9.91,6,15.8t15.88,5.89a24,24,0,0,0,11.87-2.78A18.68,18.68,0,0,0,646.8,737a24.5,24.5,0,0,0,2.62-11.55v-7.21A1.71,1.71,0,0,0,647.54,716.37Z"/><path class="cls-1" d="M698,689.43H696.5a1.7,1.7,0,0,0-1.31.53,1.92,1.92,0,0,0-.49,1.35v23.91h-31.6V691.31a1.71,1.71,0,0,0-1.88-1.88h-1.47a1.7,1.7,0,0,0-1.31.53,1.92,1.92,0,0,0-.49,1.35v53.63a1.69,1.69,0,0,0,1.8,1.8h1.47a1.92,1.92,0,0,0,1.35-.49,1.7,1.7,0,0,0,.53-1.31V720.13h31.6v24.81a1.69,1.69,0,0,0,1.8,1.8H698a1.91,1.91,0,0,0,1.35-.49,1.69,1.69,0,0,0,.53-1.31V691.31A1.71,1.71,0,0,0,698,689.43Z"/><path class="cls-1" d="M745,689.43h-37.5a1.7,1.7,0,0,0-1.31.53,1.92,1.92,0,0,0-.49,1.35v1.23a1.69,1.69,0,0,0,1.8,1.8h16.21v50.6a1.69,1.69,0,0,0,1.8,1.8H727a1.91,1.91,0,0,0,1.35-.49,1.7,1.7,0,0,0,.53-1.31v-50.6H745a1.92,1.92,0,0,0,1.35-.49,1.7,1.7,0,0,0,.53-1.31v-1.23A1.71,1.71,0,0,0,745,689.43Z"/><path class="cls-1" d="M788.08,724.72a15.38,15.38,0,0,0-5.69-4.75,68,68,0,0,0-10.48-4.09,103.23,103.23,0,0,1-9.91-3.64,13.37,13.37,0,0,1-5-3.6A9.15,9.15,0,0,1,759,696q3.72-2.46,10-2.46a17,17,0,0,1,9.79,2.66,9.37,9.37,0,0,1,4.38,6.75,1.57,1.57,0,0,0,.66,1.27,2.1,2.1,0,0,0,1.15.37h1.64a1.61,1.61,0,0,0,1.72-1.64,13.13,13.13,0,0,0-2.37-6.67,16.49,16.49,0,0,0-6.55-5.49,23,23,0,0,0-10.4-2.17,24.51,24.51,0,0,0-10.15,1.92,15,15,0,0,0-6.51,5.28,13.2,13.2,0,0,0-2.25,7.53,14,14,0,0,0,1.72,7.29,13.63,13.63,0,0,0,5.28,4.83,58.45,58.45,0,0,0,9.87,4q7.12,2.29,10.64,3.81a15.54,15.54,0,0,1,5.36,3.52,7.27,7.27,0,0,1,1.84,5.12,9.27,9.27,0,0,1-3.81,7.9q-3.81,2.82-11.59,2.82-7.37,0-11.3-2.95a10.47,10.47,0,0,1-4.5-6.88,1.74,1.74,0,0,0-1.8-1.64h-1.64a1.67,1.67,0,0,0-1.23.49,1.57,1.57,0,0,0-.49,1.15,12.78,12.78,0,0,0,2.66,7.21,17.61,17.61,0,0,0,7.21,5.44,27.19,27.19,0,0,0,11.09,2.09q9.58,0,15.07-4.14a13.59,13.59,0,0,0,5.49-11.5A12.42,12.42,0,0,0,788.08,724.72Z"/><g class="cls-2"><path class="cls-3" d="M286.39,541.39c-7.15,0-15.93-5.07-19.51-11.27L245,492.27c-3.58-6.2-3.58-16.34,0-22.53l21.85-37.85c3.58-6.2,12.36-11.27,19.51-11.27h43.71c7.15,0,15.93,5.07,19.51,11.27l21.85,37.85c3.58,6.2,3.58,16.34,0,22.53l-21.85,37.86c-3.58,6.2-12.36,11.27-19.51,11.27H286.39Z"/></g><g class="cls-2"><path class="cls-3" d="M530.49,119c-7.21,0-16-5.1-19.65-11.34L495.71,81.47c-3.6-6.24-3.6-16.45,0-22.69L510.84,32.6c3.6-6.24,12.45-11.34,19.65-11.34h30.23c7.21,0,16,5.11,19.65,11.35l15.11,26.18c3.6,6.24,3.6,16.45,0,22.69l-15.11,26.18c-3.6,6.24-12.45,11.35-19.65,11.35H530.49Z"/></g><path class="cls-4" d="M108.55,368.75c-7.21,0-16-5.1-19.65-11.34L73.76,331.21c-3.6-6.24-3.6-16.45,0-22.69l15.13-26.18C92.5,276.1,101.34,271,108.55,271h30.23c7.21,0,16,5.11,19.65,11.34l15.12,26.18c3.6,6.24,3.6,16.45,0,22.69l-15.12,26.19c-3.6,6.24-12.45,11.35-19.65,11.35H108.55Z"/><g class="cls-2"><line class="cls-4" x1="413.95" y1="298.7" x2="421.52" y2="285.43"/><line class="cls-5" x1="433.19" y1="264.99" x2="455.69" y2="225.57"/><line class="cls-6" x1="459.86" y1="218.27" x2="505.7" y2="137.97"/><line class="cls-4" x1="509.87" y1="130.67" x2="517.44" y2="117.4"/></g><g class="cls-2"><line class="cls-4" x1="346.56" y1="415.46" x2="354.31" y2="402.28"/><line class="cls-7" x1="362.23" y1="388.82" x2="377.5" y2="362.86"/><line class="cls-4" x1="380.33" y1="358.05" x2="388.08" y2="344.88"/></g><g class="cls-2"><line class="cls-4" x1="499.84" y1="497.68" x2="492.16" y2="484.47"/><line class="cls-8" x1="482.39" y1="467.66" x2="463.55" y2="435.25"/><line class="cls-9" x1="460.06" y1="429.25" x2="421.67" y2="363.23"/><line class="cls-4" x1="418.18" y1="357.23" x2="410.5" y2="344.01"/></g><g class="cls-2"><line class="cls-4" x1="387.51" y1="297.84" x2="379.78" y2="284.65"/><line class="cls-10" x1="367.98" y1="264.52" x2="345.21" y2="225.68"/><line class="cls-11" x1="341" y1="218.49" x2="294.62" y2="139.38"/><line class="cls-4" x1="290.41" y1="132.19" x2="282.68" y2="119"/></g><path class="cls-4" d="M511.84,592.85c-7.21,0-16-5.11-19.65-11.35l-15.12-26.19c-3.6-6.24-3.6-16.45,0-22.69l15.12-26.18c3.6-6.24,12.45-11.34,19.65-11.34h30.23c7.21,0,16,5.1,19.65,11.34l15.12,26.18c3.6,6.24,3.6,16.45,0,22.69L561.72,581.5c-3.6,6.24-12.44,11.35-19.65,11.35H511.84Z"/><g class="cls-2"><path class="cls-3" d="M254.88,111.25a8.39,8.39,0,0,1-6.55-3.78L239,91.39a8.39,8.39,0,0,1,0-7.56l9.29-16.09A8.39,8.39,0,0,1,254.88,64h18.56A8.39,8.39,0,0,1,280,67.74l9.29,16.09a8.38,8.38,0,0,1,0,7.56L280,107.47a8.39,8.39,0,0,1-6.55,3.78H254.88Z"/></g><path class="cls-12" d="M286.39,541.39c-7.15,0-15.93-5.07-19.51-11.27L245,492.27c-3.58-6.2-3.58-16.34,0-22.53l21.85-37.85c3.58-6.2,12.36-11.27,19.51-11.27h43.71c7.15,0,15.93,5.07,19.51,11.27l21.85,37.85c3.58,6.2,3.58,16.34,0,22.53l-21.85,37.86c-3.58,6.2-12.36,11.27-19.51,11.27H286.39Z"/><path class="cls-13" d="M530.49,119c-7.21,0-16-5.1-19.65-11.34L495.71,81.47c-3.6-6.24-3.6-16.45,0-22.69L510.84,32.6c3.6-6.24,12.45-11.34,19.65-11.34h30.23c7.21,0,16,5.11,19.65,11.35l15.11,26.18c3.6,6.24,3.6,16.45,0,22.69l-15.11,26.18c-3.6,6.24-12.45,11.35-19.65,11.35H530.49Z"/><path class="cls-14" d="M254.88,111.25a8.39,8.39,0,0,1-6.55-3.78L239,91.39a8.39,8.39,0,0,1,0-7.56l9.29-16.09A8.39,8.39,0,0,1,254.88,64h18.56A8.39,8.39,0,0,1,280,67.74l9.29,16.09a8.38,8.38,0,0,1,0,7.56L280,107.47a8.39,8.39,0,0,1-6.55,3.78H254.88Z"/><g class="cls-2"><line class="cls-4" x1="176.59" y1="319.88" x2="191.87" y2="319.88"/><line class="cls-15" x1="209.93" y1="319.88" x2="244.77" y2="319.88"/><line class="cls-16" x1="251.22" y1="319.88" x2="322.17" y2="319.88"/><line class="cls-4" x1="328.63" y1="319.88" x2="343.91" y2="319.88"/></g><path class="cls-17" d="M341.83,261.7a82.27,82.27,0,1,1,0,116.35A82.27,82.27,0,0,1,341.83,261.7Z"/><path class="cls-18" d="M458.18,378.05a82.27,82.27,0,1,1,0-116.35A82.28,82.28,0,0,1,458.18,378.05Z"/><circle class="cls-1" cx="400" cy="319.57" r="4" transform="translate(-108.81 376.51) rotate(-45.01)"/><path class="cls-19" d="M225.33,319.87A174.67,174.67,0,1,1,400,494.55,174.67,174.67,0,0,1,225.33,319.87Z"/><g class="cls-2"><path class="cls-4" d="M355,319.87s21.34-25,45-25,45,25,45,25-19.33,25-45,25S355,319.87,355,319.87Z"/></g><circle class="cls-20" cx="400" cy="319.88" r="25" transform="translate(-109.03 376.53) rotate(-45)"/><circle class="cls-21" cx="400" cy="319.88" r="25" transform="translate(-109.03 376.52) rotate(-45)"/><path class="cls-1" d="M400,309.87a9.94,9.94,0,0,0-4.16.91,3.49,3.49,0,1,1-4.93,4.93A10,10,0,1,0,400,309.87Z"/><path class="cls-22" d="M393.5,316.87a3.53,3.53,0,1,0-2.59-1.16A3.5,3.5,0,0,0,393.5,316.87Z"/></svg>