<?xml version="1.0" encoding="utf-8"?>
<!-- Generator: Adobe Illustrator 19.2.1, SVG Export Plug-In . SVG Version: 6.00 Build 0)  -->
<svg version="1.1" baseProfile="tiny" xmlns="http://www.w3.org/2000/svg" xmlns:xlink="http://www.w3.org/1999/xlink" x="0px"
	 y="0px" viewBox="0 0 839.2 288.9" xml:space="preserve">
<g id="Layer_14_copy_2" display="none">
	<g display="inline">
		<path fill="#34373D" d="M62.2,32.2c-1.4,0-2.5-0.2-3.3-0.5c-0.8-0.4-1.7-1-2.7-1.9c-0.2-0.2-0.9-0.9-2-2.1
			c-1.1-1.2-2.9-2.2-5.3-3.1c-2.4-0.9-5.2-1.4-8.3-1.4c-4.4,0-6.2,0.7-8.6,1.8c-2.4,1-4,3-4,5.8c0,1.9,0.8,3.5,2.5,4.6
			c1.7,1.1,4.2,2.1,7.7,3c3.5,0.9,7.7,2.2,16.3,3.9c11,2.2,19.1,5.7,24.2,10.5c5.2,4.8,7.7,11.6,7.7,20.4c0,6.4-1.9,12-5.8,16.8
			c-3.8,4.8-9.2,8.5-16.1,11.1c-6.9,2.6-12.9,3.9-21.6,3.9c-8.4,0-14.3-1.5-21.1-4.4C15,97.7,9.6,93.9,5.7,89.2
			c-3.9-4.7-6.4-9.5-6.4-14.4c0-0.9,0-2.6,0-2.6H21c2,0,3.6,0.4,4.8,1.6c0.7,0.7,1.1,0.9,2.3,2.3c1.3,1.4,3.2,2.7,5.8,3.8
			c2.6,1.1,5.6,1.7,9.1,1.7c12.1,0,18.1-2.6,18.1-7.7c0-1.7-0.9-3-2.6-4.2c-1.7-1.1-4.1-2.1-7.2-2.8c-3.1-0.8-8.1-1.9-14.9-3.4
			l-6.6-1.3c-9.9-2.1-15.5-5.7-20.2-10.7c-4.7-5-7-11.7-7-20.1c0-5.6,1.7-10.9,5.1-15.7c3.4-4.8,8.3-8.6,14.5-11.5
			C28.6,1.4,33.1,0,41.3,0c7.9,0,15.1,1.5,21.6,4.5c6.5,3,11.5,8,13.7,11.2c5.1,7.3,5.2,12.8,5.2,16.6
			C79.3,32.2,62.2,32.2,62.2,32.2z"/>
		<g>
			<path fill="#34373D" d="M582.8,79.2h-52.5v26h52.5c3.6,0,7.5-3.2,7.5-6.8V79.2H582.8z"/>
			<g>
				<path fill="#34373D" d="M550.3,0.2h-20v105h20c3.6,0,7-3.2,7-6.8V6.6C557.3,2.9,553.9,0.2,550.3,0.2z"/>
			</g>
		</g>
		<g>
			<g>
				<path fill="#34373D" d="M455.1,0.2h-19.8v105h19.8c3.6,0,7.2-3.2,7.2-6.8V6.6C462.3,2.9,458.7,0.2,455.1,0.2z"/>
			</g>
			<path fill="#34373D" d="M435.3,71.2h43.5c13,0,23.2-3.4,30.5-9.4c7.3-6,11-15,11-26.5c0-11.5-3.7-20.2-11-26.2
				c-7.4-5.9-17.5-8.9-30.5-8.9h-43.5v23h44.5c4.4,0,7.9,1,10.6,2.9c2.7,1.9,4,4.9,4,8.9c0,4-1.3,7.2-4,9.1c-2.7,2-6.2,3-10.6,3
				h-44.5V71.2z"/>
		</g>
		<path fill="#34373D" d="M261,5.2c6.6,3.5,11.7,8.2,15.3,14.2c3.6,6,5.6,12.7,6,20.1c0.2,2.7,0.2,23.3,0,26
			c-0.4,7.4-2.4,14.1-6,20.1c-3.6,6-8.7,10.7-15.3,14.2c-6.6,3.5-12.8,5.2-21.9,5.2c-9.1,0-15.3-1.7-21.9-5.2
			c-6.6-3.5-11.7-8.2-15.3-14.2c-3.6-6-5.6-12.7-6-20.1c-0.2-5.2-0.2-20.5,0-26c0.4-7.4,2.4-14.1,6-20.1c3.6-6,8.7-10.7,15.3-14.2
			C223.9,1.7,230,0,239.1,0C248.3,0,254.4,1.7,261,5.2z M251.1,30c-2.8-2.8-6.7-4.2-11.9-4.2c-5.2,0-9.2,1.4-11.9,4.2
			c-2.8,2.8-4.4,6.6-4.8,11.3c-0.3,2.9-0.3,19.2,0,22.4c0.4,4.7,2,8.5,4.8,11.3c2.8,2.8,6.7,4.2,11.9,4.2c5.2,0,9.2-1.4,11.9-4.2
			c2.8-2.8,4.4-6.6,4.8-11.3c0.3-3.2,0.3-19.5,0-22.4C255.4,36.6,253.8,32.8,251.1,30z"/>
		<g>
			<g>
				<path fill="#34373D" d="M119.4,0.2h-20v4.5l58.2,100.5h19.8c3.6,0,7.2-3.3,5.4-6.7l-53-91.8C127.7,3.1,123,0.2,119.4,0.2z"/>
			</g>
			<path fill="#34373D" d="M119,0.2H99.3v105h20.1c3.6,0,6.6-3,6.6-6.7c0,0,0-91.6,0-92.5C126,2.6,123.5,0.2,119,0.2z"/>
			<g>
				<path fill="#34373D" d="M177.1,0.2h-19.8v105h20c3.6,0,6-3.2,6-6.8V6.6C183.3,2.9,180.7,0.2,177.1,0.2z"/>
			</g>
		</g>
		<path fill="#34373D" d="M665.2,5.2c6.6,3.5,11.7,8.2,15.3,14.2c3.6,6,5.6,12.7,6,20.1c0.2,2.7,0.2,23.3,0,26
			c-0.4,7.4-2.4,14.1-6,20.1c-3.6,6-8.7,10.7-15.3,14.2c-6.6,3.5-12.8,5.2-21.9,5.2c-9.1,0-15.3-1.7-21.9-5.2
			c-6.6-3.5-11.7-8.2-15.3-14.2c-3.6-6-5.6-12.7-6-20.1c-0.2-5.2-0.2-20.5,0-26c0.4-7.4,2.4-14.1,6-20.1c3.6-6,8.7-10.7,15.3-14.2
			c6.6-3.5,12.8-5.2,21.9-5.2C652.4,0,658.6,1.7,665.2,5.2z M655.2,30c-2.8-2.8-6.7-4.2-11.9-4.2c-5.2,0-9.2,1.4-11.9,4.2
			c-2.8,2.8-4.4,6.6-4.8,11.3c-0.3,2.9-0.3,19.2,0,22.4c0.4,4.7,2,8.5,4.8,11.3c2.8,2.8,6.7,4.2,11.9,4.2c5.2,0,9.2-1.4,11.9-4.2
			c2.8-2.8,4.4-6.6,4.8-11.3c0.3-3.2,0.3-19.5,0-22.4C659.6,36.6,658,32.8,655.2,30z"/>
		<g>
			<g>
				<path fill="#34373D" d="M774.1,0.2h-19.6L697.3,100v5.2h19c3.6,0,8.3-3,10.4-6.7l52.8-91.5C781.6,3.5,777.7,0.2,774.1,0.2z"/>
			</g>
			<g>
				<path fill="#34373D" d="M834.6,0.2h-22.4L754.3,100v5.2h19.8c3.6,0,8.3-3,10.4-6.7l53-91.8C839.6,3.1,838.2,0.2,834.6,0.2z"/>
			</g>
			<g>
				<path fill="#34373D" d="M716.3,0.2h-19v105h19c3.6,0,7-3.2,7-6.8V6.6C723.3,2.9,719.9,0.2,716.3,0.2z"/>
			</g>
			<g>
				<path fill="#34373D" d="M774.1,0.2h-19.8v105h19.8c3.6,0,7.2-3.2,7.2-6.8V6.6C781.3,2.9,777.7,0.2,774.1,0.2z"/>
			</g>
		</g>
		<g>
			<g>
				<path fill="#34373D" d="M417.3,0.2h-19.6L366,100l1.3,5.2h19c3.6,0,7.6-3.2,8.7-6.8L424.5,7C425.7,3.4,420.9,0.2,417.3,0.2z"/>
			</g>
			<g>
				<path fill="#34373D" d="M360.3,0.2h-19.8l26.8,105h19.8c3.6,0,6.4-3.3,5.5-6.9L369.2,6.5C368.2,2.9,363.9,0.2,360.3,0.2z"/>
			</g>
			<path fill="#34373D" d="M335.4,98.3c0,0-23.8-93.1-23.8-93.3c-0.8-2.8-3.4-4.8-6.4-4.8c-0.3,0-21.8,0-21.8,0l26.8,105h19.8
				C333.5,105.2,336.3,102,335.4,98.3z"/>
			<path fill="#34373D" d="M360.1,0.2h-19.6L308.8,100l1.3,5.2c0,0,20.5,0,20.8,0c3,0,5.4-2.1,6.2-4.7c0.1-0.3,30.1-93.4,30.1-93.4
				C368.4,3.4,363.7,0.2,360.1,0.2z"/>
		</g>
	</g>
</g>
<g id="Layer_14_copy_3">
	<g>
		<g>
			<path fill="#9B9FAA" d="M424.4,227.7c-5.8-2.5-10.2-5.9-13.2-10c-3.1-4.1-4.7-8.5-4.9-13.2c0-0.8,0.3-1.5,0.9-2.1
				c0.6-0.6,1.4-0.9,2.2-0.9h3c1.8,0,2.9,1,3.3,3c0.7,4.8,3.4,9,8.2,12.6c4.8,3.6,11.7,5.4,20.7,5.4c9.5,0,16.6-1.7,21.2-5.2
				c4.6-3.5,7-8.3,7-14.5c0-3.8-1.1-6.9-3.4-9.4c-2.2-2.4-5.5-4.6-9.8-6.4c-4.3-1.8-10.8-4.2-19.5-7c-7.7-2.5-13.7-5-18.1-7.3
				c-4.4-2.4-7.6-5.3-9.7-8.9c-2.1-3.5-3.1-7.9-3.1-13.3c0-5.1,1.4-9.7,4.1-13.8c2.7-4.1,6.7-7.3,11.9-9.7
				c5.2-2.3,11.4-3.5,18.6-3.5c7.4,0,13.7,1.3,19.1,4c5.3,2.7,9.3,6,12,10.1c2.7,4,4.1,8.1,4.3,12.2c0,0.8-0.3,1.5-0.8,2.1
				c-0.6,0.6-1.3,0.9-2.3,0.9h-3c-0.7,0-1.4-0.2-2.1-0.7c-0.7-0.5-1.1-1.2-1.2-2.3c-0.6-5-3.3-9.1-8-12.4
				c-4.8-3.2-10.7-4.9-17.9-4.9c-7.7,0-13.8,1.5-18.4,4.5c-4.6,3-6.8,7.5-6.8,13.5c0,3.9,1,7.1,3.1,9.7c2,2.5,5.1,4.8,9.2,6.6
				c4.1,1.9,10.1,4.1,18.1,6.7c8.2,2.6,14.6,5.1,19.2,7.5c4.6,2.4,8.1,5.3,10.4,8.7c2.3,3.4,3.5,7.8,3.5,13.2c0,9-3.4,16-10,21.1
				c-6.7,5.1-15.9,7.6-27.6,7.6C436.9,231.5,430.1,230.2,424.4,227.7z"/>
			<path fill="#9B9FAA" d="M481.6,229.1c-0.6-0.6-0.9-1.3-0.9-2.1l0.3-1.7l37.9-97.3c0.8-2,2.2-3,4.4-3h5.1c2.1,0,3.5,1,4.4,3
				l37.9,97.3l0.3,1.7c0,0.8-0.3,1.5-0.9,2.1c-0.6,0.6-1.3,0.9-2.1,0.9h-3c-0.9,0-1.6-0.2-2.2-0.8c-0.6-0.5-0.9-1-1.1-1.5l-9.3-24
				h-53.1l-9.3,24c-0.2,0.5-0.6,1-1.1,1.5c-0.6,0.5-1.3,0.8-2.2,0.8h-3C482.9,230,482.2,229.7,481.6,229.1z M502.9,194.7h45.9
				l-23-59.1L502.9,194.7z"/>
			<path fill="#9B9FAA" d="M584.7,221.1c-6.7-6.9-10-17.5-10-31.7v-60.9c0-1,0.3-1.8,0.9-2.5c0.6-0.6,1.4-1,2.4-1h2.7
				c1.1,0,2,0.3,2.5,0.9c0.6,0.6,0.9,1.5,0.9,2.5v61.3c0,11,2.5,19.2,7.6,24.6c5.1,5.4,12.3,8.1,21.6,8.1c9.2,0,16.3-2.7,21.4-8.1
				c5.1-5.4,7.7-13.6,7.7-24.6v-61.3c0-1.1,0.3-2,1-2.5c0.6-0.6,1.5-0.9,2.5-0.9h2.7c1,0,1.8,0.3,2.4,1c0.6,0.7,0.9,1.5,0.9,2.5
				v60.9c0,14.3-3.3,24.9-9.9,31.8c-6.6,6.9-16.2,10.3-28.6,10.3C600.9,231.5,591.4,228,584.7,221.1z"/>
			<path fill="#9B9FAA" d="M668.9,229.1c-0.6-0.6-0.9-1.4-0.9-2.4v-98.2c0-1,0.3-1.8,0.9-2.5c0.6-0.6,1.4-1,2.4-1h3.1
				c1.3,0,2.3,0.6,3.2,1.8l55.3,84.6v-83c0-1,0.3-1.8,0.9-2.5c0.6-0.6,1.4-1,2.4-1h2.7c1.1,0,2,0.3,2.5,0.9c0.6,0.6,0.9,1.5,0.9,2.5
				v98.1c0,1-0.3,1.8-0.9,2.5c-0.6,0.7-1.4,1-2.4,1h-3.3c-1.3,0-2.4-0.6-3.2-1.8l-55.2-84.3v82.8c0,1-0.3,1.8-1,2.4
				c-0.7,0.6-1.5,0.9-2.5,0.9h-2.7C670.3,230,669.5,229.7,668.9,229.1z"/>
			<path fill="#9B9FAA" d="M749.8,229.1c-0.6-0.6-0.9-1.3-0.9-2.1l0.3-1.7l37.9-97.3c0.8-2,2.2-3,4.4-3h5.1c2.1,0,3.5,1,4.4,3
				l37.9,97.3l0.3,1.7c0,0.8-0.3,1.5-0.9,2.1c-0.6,0.6-1.3,0.9-2.1,0.9h-3c-0.9,0-1.6-0.2-2.2-0.8c-0.6-0.5-0.9-1-1.1-1.5l-9.3-24
				h-53.1l-9.3,24c-0.2,0.5-0.6,1-1.1,1.5c-0.6,0.5-1.3,0.8-2.2,0.8h-3C751.1,230,750.4,229.7,749.8,229.1z M771.1,194.7H817
				l-23-59.1L771.1,194.7z"/>
		</g>
		<g>
			<path fill="#9B9FAA" d="M578.7,286.3c-1.9-1.7-2.9-4.3-3-7.8c0-0.7,0-1.8,0-3.2c0-1.4,0-2.5,0-3.3c0.1-3.4,1.1-6,3.1-7.8
				c2-1.8,4.6-2.7,8-2.7c3.3,0,6,0.9,8,2.7c2,1.8,3,4.4,3.1,7.8c0.1,1.5,0.1,2.6,0.1,3.3c0,0.7,0,1.8-0.1,3.2
				c-0.1,3.4-1.1,6-3.1,7.8s-4.6,2.6-8.1,2.6C583.3,288.9,580.6,288.1,578.7,286.3z M590.8,283c1-1,1.5-2.6,1.6-4.7
				c0.1-1.5,0.1-2.5,0.1-3.1c0-0.6,0-1.6-0.1-3.1c-0.1-2.1-0.6-3.6-1.6-4.7c-1-1-2.3-1.5-4-1.5c-1.7,0-3,0.5-4,1.5
				c-1,1-1.5,2.6-1.6,4.7c0,0.7,0,1.8,0,3.1c0,1.3,0,2.3,0,3.1c0.1,2.1,0.6,3.6,1.6,4.7c1,1,2.3,1.5,4,1.5
				C588.5,284.5,589.8,284,590.8,283z"/>
			<path fill="#9B9FAA" d="M604.3,288.3c-0.2-0.2-0.3-0.4-0.3-0.6v-24.7c0-0.3,0.1-0.5,0.2-0.7c0.2-0.2,0.4-0.3,0.7-0.3h10.2
				c3.1,0,5.5,0.7,7.2,2.2c1.7,1.4,2.6,3.5,2.6,6.3c0,2.7-0.9,4.8-2.6,6.2c-1.7,1.4-4.2,2.1-7.2,2.1h-5.6v8.9c0,0.3-0.1,0.5-0.3,0.7
				c-0.2,0.2-0.4,0.2-0.7,0.2H605C604.7,288.6,604.5,288.5,604.3,288.3z M615,274.5c1.5,0,2.6-0.3,3.4-1c0.8-0.7,1.2-1.7,1.2-3.1
				c0-1.3-0.4-2.3-1.1-3.1c-0.7-0.7-1.9-1.1-3.4-1.1h-5.5v8.3H615z"/>
			<path fill="#9B9FAA" d="M630.6,288.3c-0.2-0.2-0.3-0.4-0.3-0.6v-24.7c0-0.3,0.1-0.5,0.2-0.7c0.2-0.2,0.4-0.3,0.7-0.3H648
				c0.3,0,0.5,0.1,0.7,0.3c0.2,0.2,0.3,0.4,0.3,0.7v2.5c0,0.3-0.1,0.5-0.3,0.7c-0.2,0.2-0.4,0.2-0.7,0.2h-12.5v6.7h11.6
				c0.3,0,0.5,0.1,0.7,0.3c0.2,0.2,0.3,0.4,0.3,0.7v2.4c0,0.3-0.1,0.5-0.3,0.7c-0.2,0.2-0.4,0.2-0.7,0.2h-11.6v6.9h12.8
				c0.3,0,0.5,0.1,0.7,0.2c0.2,0.2,0.3,0.4,0.3,0.7v2.6c0,0.3-0.1,0.5-0.3,0.7c-0.2,0.2-0.4,0.2-0.7,0.2h-17.1
				C631,288.6,630.7,288.5,630.6,288.3z"/>
			<path fill="#9B9FAA" d="M655.4,288.3c-0.2-0.2-0.3-0.4-0.3-0.6v-24.7c0-0.3,0.1-0.5,0.2-0.7c0.2-0.2,0.4-0.3,0.7-0.3h3
				c0.5,0,0.8,0.2,1.1,0.6l10.9,16.9v-16.6c0-0.3,0.1-0.5,0.2-0.7c0.2-0.2,0.4-0.3,0.7-0.3h3.3c0.3,0,0.5,0.1,0.7,0.3
				c0.2,0.2,0.3,0.4,0.3,0.7v24.7c0,0.3-0.1,0.5-0.3,0.7c-0.2,0.2-0.4,0.3-0.6,0.3h-3c-0.5,0-0.9-0.2-1.1-0.6l-10.8-16.5v16.2
				c0,0.3-0.1,0.5-0.2,0.6c-0.2,0.2-0.4,0.3-0.7,0.3H656C655.8,288.6,655.6,288.5,655.4,288.3z"/>
			<path fill="#9B9FAA" d="M686.5,287.9c-1.6-0.7-2.8-1.6-3.7-2.7c-0.8-1.1-1.3-2.3-1.3-3.6c0-0.2,0.1-0.4,0.2-0.6
				c0.2-0.2,0.3-0.2,0.6-0.2h3.5c0.3,0,0.5,0.1,0.7,0.2c0.2,0.1,0.3,0.3,0.5,0.5c0.3,0.9,0.8,1.6,1.7,2.2c0.9,0.6,2.1,0.9,3.7,0.9
				c1.8,0,3.1-0.3,4-0.9c0.9-0.6,1.3-1.4,1.3-2.5c0-0.7-0.2-1.3-0.7-1.7s-1.1-0.9-2.1-1.2c-0.9-0.3-2.3-0.8-4.1-1.2
				c-3-0.7-5.2-1.6-6.6-2.8c-1.4-1.2-2.1-2.8-2.1-5c0-1.5,0.4-2.8,1.2-3.9c0.8-1.2,2-2.1,3.5-2.7c1.5-0.7,3.3-1,5.3-1
				c2.1,0,3.9,0.4,5.5,1.1c1.5,0.7,2.7,1.7,3.5,2.8s1.2,2.2,1.3,3.3c0,0.2-0.1,0.4-0.2,0.6c-0.2,0.2-0.3,0.2-0.6,0.2H698
				c-0.6,0-0.9-0.2-1.1-0.7c-0.1-0.8-0.6-1.5-1.5-2c-0.9-0.5-1.9-0.8-3.2-0.8c-1.4,0-2.5,0.3-3.3,0.8c-0.8,0.5-1.2,1.3-1.2,2.3
				c0,0.7,0.2,1.3,0.6,1.7s1,0.9,1.9,1.2c0.9,0.3,2.1,0.7,3.8,1.2c2.3,0.5,4,1.1,5.4,1.7s2.3,1.4,2.9,2.4c0.6,1,1,2.2,1,3.7
				c0,1.6-0.5,3.1-1.3,4.3c-0.9,1.2-2.2,2.1-3.8,2.8s-3.5,1-5.7,1C690.1,288.9,688.2,288.6,686.5,287.9z"/>
			<path fill="#9B9FAA" d="M710.9,286.3c-1.9-1.7-2.9-4.3-3-7.8c0-0.7,0-1.8,0-3.2c0-1.4,0-2.5,0-3.3c0.1-3.4,1.1-6,3.1-7.8
				c2-1.8,4.6-2.7,8-2.7c3.3,0,6,0.9,8,2.7c2,1.8,3,4.4,3.1,7.8c0,1.5,0.1,2.6,0.1,3.3c0,0.7,0,1.8-0.1,3.2c-0.1,3.4-1.1,6-3.1,7.8
				c-1.9,1.7-4.6,2.6-8.1,2.6C715.5,288.9,712.8,288.1,710.9,286.3z M723,283c1-1,1.5-2.6,1.6-4.7c0.1-1.5,0.1-2.5,0.1-3.1
				c0-0.6,0-1.6-0.1-3.1c-0.1-2.1-0.6-3.6-1.6-4.7c-1-1-2.3-1.5-4-1.5c-1.7,0-3,0.5-4,1.5c-1,1-1.5,2.6-1.6,4.7c0,0.7,0,1.8,0,3.1
				c0,1.3,0,2.3,0,3.1c0.1,2.1,0.6,3.6,1.6,4.7c1,1,2.3,1.5,4,1.5S722,284,723,283z"/>
			<path fill="#9B9FAA" d="M738.9,286.3c-1.9-1.7-2.8-4.4-2.8-7.9v-15.5c0-0.3,0.1-0.5,0.2-0.7c0.2-0.2,0.4-0.3,0.7-0.3h3.5
				c0.3,0,0.5,0.1,0.7,0.3c0.2,0.2,0.3,0.4,0.3,0.7v15.5c0,2,0.5,3.5,1.4,4.5c1,1,2.3,1.5,4,1.5s3.1-0.5,4-1.5c1-1,1.4-2.5,1.4-4.5
				v-15.5c0-0.3,0.1-0.5,0.3-0.7c0.2-0.2,0.4-0.3,0.7-0.3h3.5c0.3,0,0.5,0.1,0.7,0.3c0.2,0.2,0.2,0.4,0.2,0.7v15.5
				c0,3.5-0.9,6.2-2.8,7.9c-1.9,1.7-4.5,2.6-8,2.6C743.4,288.9,740.8,288.1,738.9,286.3z"/>
			<path fill="#9B9FAA" d="M764.8,288.3c-0.2-0.2-0.3-0.4-0.3-0.6v-24.7c0-0.3,0.1-0.5,0.2-0.7c0.2-0.2,0.4-0.3,0.7-0.3h9.8
				c3.1,0,5.6,0.7,7.3,2.2c1.8,1.4,2.6,3.5,2.6,6.2c0,1.8-0.4,3.4-1.3,4.7s-2.1,2.2-3.7,2.7l5.5,9.7c0.1,0.2,0.1,0.3,0.1,0.4
				c0,0.2-0.1,0.4-0.2,0.6c-0.2,0.2-0.3,0.2-0.6,0.2h-3.5c-0.4,0-0.7-0.1-1-0.3c-0.2-0.2-0.4-0.4-0.6-0.7l-4.9-9h-5.2v9.1
				c0,0.3-0.1,0.5-0.3,0.6c-0.2,0.2-0.4,0.3-0.7,0.3h-3.5C765.2,288.6,765,288.5,764.8,288.3z M775.2,274.2c1.5,0,2.7-0.3,3.4-1
				c0.8-0.7,1.1-1.7,1.1-2.9s-0.4-2.3-1.1-3c-0.8-0.7-1.9-1-3.4-1h-5.3v8H775.2z"/>
			<path fill="#9B9FAA" d="M793.3,286.3c-1.9-1.8-2.9-4.3-3.1-7.6c0-0.7,0-1.8,0-3.3c0-1.6,0-2.7,0-3.4c0.1-3.2,1.2-5.8,3.1-7.6
				c1.9-1.8,4.6-2.7,8.1-2.7c2.3,0,4.2,0.4,5.9,1.2c1.7,0.8,3,1.8,3.9,3.2c0.9,1.3,1.4,2.9,1.5,4.5v0.1c0,0.2-0.1,0.4-0.2,0.5
				c-0.2,0.1-0.3,0.2-0.6,0.2h-3.7c-0.3,0-0.5-0.1-0.7-0.2c-0.2-0.1-0.3-0.4-0.4-0.7c-0.4-1.6-1-2.7-2-3.3c-0.9-0.6-2.2-1-3.7-1
				c-3.6,0-5.5,2-5.7,6.1c0,0.7,0,1.7,0,3.2s0,2.5,0,3.2c0.2,4.1,2,6.1,5.7,6.1c1.5,0,2.8-0.3,3.7-1c1-0.6,1.6-1.8,2-3.3
				c0.1-0.4,0.2-0.6,0.4-0.7c0.2-0.1,0.4-0.2,0.7-0.2h3.7c0.2,0,0.4,0.1,0.6,0.2s0.2,0.3,0.2,0.6c-0.1,1.7-0.5,3.2-1.5,4.5
				s-2.2,2.4-3.9,3.2c-1.7,0.8-3.6,1.2-5.9,1.2C798,288.9,795.2,288,793.3,286.3z"/>
			<path fill="#9B9FAA" d="M818.6,288.3c-0.2-0.2-0.3-0.4-0.3-0.6v-24.7c0-0.3,0.1-0.5,0.2-0.7c0.2-0.2,0.4-0.3,0.7-0.3H836
				c0.3,0,0.5,0.1,0.7,0.3c0.2,0.2,0.3,0.4,0.3,0.7v2.5c0,0.3-0.1,0.5-0.3,0.7c-0.2,0.2-0.4,0.2-0.7,0.2h-12.5v6.7h11.6
				c0.3,0,0.5,0.1,0.7,0.3c0.2,0.2,0.3,0.4,0.3,0.7v2.4c0,0.3-0.1,0.5-0.3,0.7c-0.2,0.2-0.4,0.2-0.7,0.2h-11.6v6.9h12.8
				c0.3,0,0.5,0.1,0.7,0.2c0.2,0.2,0.3,0.4,0.3,0.7v2.6c0,0.3-0.1,0.5-0.3,0.7c-0.2,0.2-0.4,0.2-0.7,0.2h-17.1
				C819,288.6,818.8,288.5,818.6,288.3z"/>
		</g>
		<g>
			<g>
				<g>
					<path fill="#9B9FAA" d="M244,0c-20.1,0-37.4,13.7-42.9,32.4c-0.9,3.6-1.8,7.3-1.8,11.4c0,3.6,0,16.4,0,20.1
						c0,4.1,0.9,7.8,1.8,11.4c5,18.7,22.3,32.8,42.9,32.8s37.4-13.7,42.4-32.8c0.9-3.6,1.4-7.3,1.4-11.4c0-3.6,0-16.4,0-20.1
						c0-4.1-0.5-7.8-1.4-11.4C281.4,14.1,264.5,0,244,0z M260.9,64.3c0,4.1-1.4,7.8-4.1,10.5c-3.2,3.6-7.8,5.9-12.8,5.9
						c-5,0-10-2.3-13.2-5.9c-2.3-2.7-4.6-6.4-4.6-10.5c0-3.6,0-15.5,0-19.2c0-4.6,2.3-8.7,5.5-11.9c3.2-3.2,7.3-5,11.9-5
						c4.6,0,8.7,1.8,11.9,5c3.2,3.2,5,7.3,5,11.9C260.9,48.8,260.9,60.7,260.9,64.3z"/>
				</g>
			</g>
			<g>
				<g>
					<path fill="#9B9FAA" d="M655.4,0c-20.1,0-37.4,13.7-42.9,32.4c-0.9,3.6-1.8,7.3-1.8,11.4c0,3.6,0,16.4,0,20.1
						c0,4.1,0.9,7.8,1.8,11.4c5,18.7,22.3,32.8,42.9,32.8s37.4-13.7,42.4-32.8c0.9-3.6,1.4-7.3,1.4-11.4c0-3.6,0-16.4,0-20.1
						c0-4.1-0.5-7.8-1.4-11.4C692.8,14.1,675.4,0,655.4,0z M672.3,64.3c0,4.1-1.4,7.8-4.1,10.5c-3.2,3.6-7.8,5.9-12.8,5.9
						s-10-2.3-13.2-5.9c-2.3-2.7-4.1-6.4-4.1-10.5c0-3.6,0-15.5,0-19.2c0-4.6,2.3-8.7,5.5-11.9c3.2-3.2,7.3-5,11.9-5s8.7,1.8,11.9,5
						c3.2,3.2,5,7.3,5,11.9C671.8,48.8,672.3,60.7,672.3,64.3z"/>
				</g>
			</g>
			<g>
				<path fill="#9B9FAA" d="M187,4.1h-27.4v46.5l-24.2-42c0,0-2.7-4.6-8.2-4.6c-1.8,0-27.4,0-27.4,0v100.3c0,0,12.3,0,17.3,0
					c5,0,10-2.7,10-9.1c0-3.6,0-26.5,0-47.4l33.3,56.6h16c5,0,10-2.7,10-8.7V4.1H187z"/>
			</g>
			<g>
				<path fill="#9B9FAA" d="M565.5,81.6V4.1h-27.4v100.3c0,0,48.3,0,51.5,0c6.4,0,7.8-4.1,7.8-9.1s0-13.7,0-13.7H565.5z"/>
			</g>
			<g>
				<path fill="#9B9FAA" d="M491.2,2.7c-3.2,0-49.7,0-49.7,0v103.1c0,0,10.9,0,16,0s9.6-4.1,9.6-10.5c0-1.8,0-20.1,0-20.1h24.2
					c20.1,0,36-16.4,36-36S511.3,2.7,491.2,2.7z M491.2,49.3H467c0-6.8,0-13.7,0-20.5h24.2c5.9,0,10,4.6,10,10
					S496.7,49.3,491.2,49.3z"/>
			</g>
			<g>
				<path fill="#9B9FAA" d="M334.8,105.4c6.4,0,9.1-3.6,10.5-7.8c0.5-0.9,7.8-25.1,14.6-48.8l13.7,45.6l3.2,9.6c0,0,8.7,0,13.2,0
					s7.8-2.3,9.1-5.5c0.5-0.9,0.9-0.9,0.9-1.4c0.5-1.8,27.8-93,27.8-93h-27.4l-13.7,46.1c-5.5-18.7-10.9-36.5-11.9-38.8
					c-1.4-4.6-5-7.3-9.1-7.3c-2.7,0-19.2,0-20.1,0l0,0L332,49.7c-5.5-18.7-10.9-36.5-11.9-38.3c-0.9-5.5-5.5-7.3-9.6-7.3
					c-6.4,0-19.6,0-19.6,0l30.6,102.2L334.8,105.4z"/>
			</g>
			<g>
				<path fill="#9B9FAA" d="M745.7,105.4c6.4,0,9.1-3.6,10.5-7.8c0.5-0.9,7.8-25.1,14.6-48.8l13.7,45.6l3.2,9.6c0,0,8.7,0,13.2,0
					c4.6,0,7.8-2.3,9.1-5.5c0.5-0.9,0.9-0.9,0.9-1.4c0.9-1.8,28.3-93,28.3-93h-27.4l-13.7,46.1c-5.5-18.7-10.9-36.5-11.9-38.8
					c-1.4-4.6-5-7.3-9.1-7.3c-2.7,0-19.2,0-20.1,0l0,0l-13.7,45.6c-5.5-18.7-10.9-36.5-11.9-38.3c-1.4-5.5-5.9-7.3-10-7.3
					c-6.4,0-19.6,0-19.6,0l30.6,102.2L745.7,105.4z"/>
			</g>
			<g>
				<path fill="#9B9FAA" d="M83.9,59.3c-2.7-4.1-7.3-7.8-12.8-10c-5-2.3-11.4-4.6-19.6-6.8c-6.4-1.8-11.4-3.2-14.6-4.6
					c-3.2-1.4-5.9-2.3-5.9-4.6s0.9-3.6,2.3-4.1c2.3-1.4,5.9-2.3,10.5-2.3c4.1,0,7.8,0.5,10,2.3c2.7,1.8,3.2,2.7,3.2,2.7l0,0h28.3
					v-1.4c-0.5-5-2.3-10-5.5-14.6S71.6,7.8,65.2,4.6C59.7,1.4,52,0,43.8,0c-7.8,0-15.1,1.4-21,3.6c-6.4,2.7-11.4,6.8-14.6,11.4
					c-3.6,5-5.5,10.5-5.5,16.4c0,6.4,1.4,11.4,4.6,16c2.7,4.1,6.8,7.8,12.3,10.5c4.6,2.3,10.9,4.6,18.2,6.8c7.3,1.8,12.3,3.6,16,5
					c3.2,1.4,5,2.3,5.9,3.2c0.5,0.5,0.9,0.9,0.9,2.3c0,2.3-0.9,3.6-2.7,5c-1.8,1.4-5.5,2.7-13.2,2.7c-5.5,0-9.6-0.5-12.3-2.3
					c-1.8-1.4-3.2-4.1-4.1-4.1H0c0,0,0,0,0,0.5l0,0C0.5,82.5,2.3,88,5.9,93c3.6,4.6,9.1,8.2,16,11.4c6.4,2.7,14.1,4.1,22.8,4.1
					c12.8,0,23.3-2.7,31-8.2c8.7-5.9,12.8-14.6,12.8-25.1C88.9,68.9,87.1,63.4,83.9,59.3z"/>
			</g>
		</g>
	</g>
</g>
</svg>
