<svg id="Layer_3" data-name="Layer 3" xmlns="http://www.w3.org/2000/svg" xmlns:xlink="http://www.w3.org/1999/xlink" viewBox="0 0 1920 1080"><defs><style>.cls-1,.cls-10,.cls-13,.cls-14,.cls-16,.cls-19,.cls-20,.cls-21,.cls-23,.cls-24,.cls-6,.cls-7,.cls-9{fill:none;}.cls-1,.cls-12,.cls-13,.cls-16,.cls-18,.cls-19,.cls-20,.cls-23,.cls-24,.cls-3,.cls-6,.cls-7,.cls-9{stroke:#5b0098;}.cls-1{stroke-miterlimit:10;stroke-width:0.83px;}.cls-12,.cls-17,.cls-18,.cls-2,.cls-3{fill:#fcfdff;}.cls-10,.cls-12,.cls-13,.cls-14,.cls-16,.cls-17,.cls-18,.cls-19,.cls-20,.cls-21,.cls-23,.cls-24,.cls-3,.cls-6,.cls-7,.cls-9{stroke-linecap:round;stroke-linejoin:round;}.cls-10,.cls-3,.cls-9{stroke-width:2.85px;}.cls-4{opacity:0.5;}.cls-5{fill:#5b0098;}.cls-6{stroke-width:1.68px;stroke-dasharray:66.4 66.4 8.3 24.9 16.6 29.05;}.cls-7{stroke-width:5.27px;}.cls-8{fill:#f8f1ff;}.cls-10,.cls-14,.cls-17,.cls-21{stroke:#bb73fc;}.cls-11{fill:#bb73fc;}.cls-12,.cls-13,.cls-14,.cls-17{stroke-width:2.66px;}.cls-15{opacity:0.75;}.cls-16{stroke-width:1.28px;}.cls-18,.cls-19,.cls-20,.cls-21{stroke-width:2.61px;}.cls-20{stroke-dasharray:0 6.63 0 0 0 0;}.cls-22{clip-path:url(#clip-path);}.cls-23{stroke-width:3.54px;}.cls-24{stroke-width:3.68px;}.cls-25{fill:#323743;}</style><clipPath id="clip-path"><path class="cls-1" d="M1353.7,489.76a9.23,9.23,0,0,0-7.19,4.17l-24.25,42a9.22,9.22,0,0,0,0,8.3l24.25,42a9.23,9.23,0,0,0,7.19,4.18h48.5a9.23,9.23,0,0,0,7.19-4.17l24.25-42a9.22,9.22,0,0,0,0-8.3l-24.25-42a9.23,9.23,0,0,0-7.19-4.18h-48.5Z"/></clipPath></defs><title>Snowplow_Website-Infographics_Cases_SimplyBusiness_Img1</title><rect class="cls-2" x="420" y="-420" width="1080" height="1920" transform="translate(420 1500) rotate(-90)"/><line class="cls-3" x1="1494.56" y1="338.41" x2="1449.25" y2="416.37"/><line class="cls-3" x1="1216.34" y1="438.82" x2="1271.23" y2="471.45"/><g class="cls-4"><path class="cls-5" d="M1300.11,881.32a10.18,10.18,0,0,0,8-4.59l11.83-20.49a10.19,10.19,0,0,0,0-9.18l-11.83-20.48a10.19,10.19,0,0,0-8-4.59h-23.65a10.19,10.19,0,0,0-8,4.59l-11.83,20.48a10.19,10.19,0,0,0,0,9.18l11.83,20.49a10.19,10.19,0,0,0,8,4.59h23.65Z"/></g><g class="cls-4"><path class="cls-5" d="M1110.14,351.14a10.18,10.18,0,0,0,8-4.59l11.83-20.49a10.19,10.19,0,0,0,0-9.18L1118.1,296.4a10.19,10.19,0,0,0-8-4.59h-23.65a10.19,10.19,0,0,0-8,4.59l-11.83,20.48a10.19,10.19,0,0,0,0,9.18l11.83,20.49a10.19,10.19,0,0,0,8,4.59h23.65Z"/></g><path class="cls-5" d="M1543.3,713.65A3,3,0,0,0,1541,715l-3.48,6a3,3,0,0,0,0,2.7l3.48,6a3,3,0,0,0,2.34,1.35h7a3,3,0,0,0,2.34-1.35l3.48-6a3,3,0,0,0,0-2.7l-3.48-6a3,3,0,0,0-2.34-1.35h-7Z"/><path class="cls-6" d="M1247.76,816.84c-16.28,0-36.25-11.53-44.39-25.63L1073.22,565.75c-8.14-14.1-8.14-37.17,0-51.26L1203.37,289c8.14-14.1,28.11-25.63,44.39-25.63h260.36c16.28,0,36.25,11.53,44.39,25.63l130.16,225.47c8.14,14.1,8.14,37.17,0,51.26L1552.52,791.21c-8.14,14.1-28.12,25.63-44.39,25.63H1247.76Z"/><line class="cls-3" x1="1489.15" y1="600.99" x2="1543.05" y2="633.03"/><line class="cls-3" x1="1306.46" y1="663.97" x2="1260.2" y2="742.9"/><path class="cls-7" d="M1265.72,774.34c-12.65,0-28.18-9-34.51-19.93L1119,560c-6.33-11-6.33-28.89,0-39.85l112.2-194.38c6.33-11,21.86-19.93,34.51-19.93h224.45c12.65,0,28.18,9,34.51,19.93l112.21,194.38c6.33,11,6.33,28.89,0,39.85L1524.68,754.41c-6.33,11-21.86,19.93-34.51,19.93H1265.72Z"/><path class="cls-8" d="M1572.4,351.14c8.58,0,19.11-6.08,23.4-13.51l34.81-60.3c4.29-7.43,4.29-19.59,0-27L1595.8,190c-4.29-7.43-14.82-13.51-23.41-13.51h-69.62c-8.58,0-19.11,6.08-23.4,13.51l-34.81,60.28c-4.29,7.43-4.29,19.59,0,27l34.81,60.3c4.29,7.43,14.82,13.51,23.4,13.51h69.62Z"/><path class="cls-8" d="M1252,904.79c8.58,0,19.11-6.08,23.4-13.51l34.81-60.3c4.29-7.43,4.29-19.59,0-27l-34.81-60.28c-4.29-7.43-14.82-13.51-23.41-13.51h-69.62c-8.58,0-19.11,6.08-23.4,13.51L1124.14,804c-4.29,7.43-4.29,19.59,0,27l34.81,60.3c4.29,7.43,14.82,13.51,23.4,13.51H1252Z"/><rect class="cls-3" x="1487.18" y="226.89" width="100.83" height="73.87" rx="8.77" ry="8.77"/><line class="cls-9" x1="1497.26" y1="236.98" x2="1497.26" y2="236.98"/><line class="cls-10" x1="1502.3" y1="236.98" x2="1502.3" y2="236.98"/><line class="cls-10" x1="1507.34" y1="236.98" x2="1507.34" y2="236.98"/><path class="cls-11" d="M1525.71,260.44a0.54,0.54,0,0,1,.39.16,0.52,0.52,0,0,1,.16.39l0,0.18-3.48,10.45a0.74,0.74,0,0,1-.68.63h-0.7a0.57,0.57,0,0,1-.43-0.17,1.33,1.33,0,0,1-.27-0.46l-2.7-7.54-2.7,7.54a1.46,1.46,0,0,1-.27.46,0.56,0.56,0,0,1-.43.17h-0.71a0.74,0.74,0,0,1-.68-0.63l-3.48-10.45,0-.18a0.52,0.52,0,0,1,.16-0.39,0.54,0.54,0,0,1,.38-0.16H1511a0.77,0.77,0,0,1,.77.55l2.54,7.58L1517,261a0.73,0.73,0,0,1,.71-0.55h0.5a0.72,0.72,0,0,1,.7.55l2.73,7.58,2.54-7.58a0.77,0.77,0,0,1,.78-0.55h0.74m0-2.85H1525a3.61,3.61,0,0,0-3.41,2.31,3.55,3.55,0,0,0-3.34-2.31h-0.5a3.56,3.56,0,0,0-3.34,2.31,3.62,3.62,0,0,0-3.41-2.31h-0.75a3.39,3.39,0,0,0-2.36,1l0,0,0,0a3.38,3.38,0,0,0-1,2.4v0.15l0,0.15,0,0.18,0,0.31,0.1,0.29,3.48,10.45a3.53,3.53,0,0,0,3.39,2.58h0.71a3.39,3.39,0,0,0,2.52-1.09,4.2,4.2,0,0,0,.83-1.33l0-.05,0-.05,0-.06,0,0.06a4.2,4.2,0,0,0,.89,1.47,3.4,3.4,0,0,0,2.5,1.06h0.7a3.54,3.54,0,0,0,3.4-2.62l3.47-10.41,0.09-.28,0-.3,0-.18,0-.16V261a3.37,3.37,0,0,0-1-2.41,3.41,3.41,0,0,0-2.4-1h0Z"/><path class="cls-11" d="M1545.16,260.44a0.55,0.55,0,0,1,.39.16,0.53,0.53,0,0,1,.16.39l0,0.18-3.48,10.45a0.74,0.74,0,0,1-.68.63h-0.71a0.57,0.57,0,0,1-.43-0.17,1.44,1.44,0,0,1-.27-0.46l-2.7-7.54-2.7,7.54a1.44,1.44,0,0,1-.28.46,0.57,0.57,0,0,1-.43.17h-0.71a0.75,0.75,0,0,1-.68-0.63l-3.47-10.45,0-.18a0.53,0.53,0,0,1,.16-0.39,0.53,0.53,0,0,1,.38-0.16h0.75a0.76,0.76,0,0,1,.77.55l2.55,7.58,2.72-7.58a0.73,0.73,0,0,1,.71-0.55h0.5a0.73,0.73,0,0,1,.71.55l2.72,7.58,2.55-7.58a0.76,0.76,0,0,1,.77-0.55h0.75m0-2.85h-0.75a3.62,3.62,0,0,1-6.74,0h-0.5a3.62,3.62,0,0,1-6.75,0h-0.75a3.4,3.4,0,0,0-3.39,3.4v0.19l0,0.18,0,0.18,0,0.27,0.09,0.26,3.47,10.45a3.54,3.54,0,0,0,3.38,2.59H1534a3.41,3.41,0,0,0,2.49-1,4.23,4.23,0,0,0,.87-1.38l0-.05,0-.05,0,0,0,0v0.07a4.27,4.27,0,0,0,.84,1.37l0,0,0,0a3.42,3.42,0,0,0,2.49,1h0.71a3.54,3.54,0,0,0,3.39-2.6l3.47-10.43,0.09-.28,0-.29,0-.18,0-.17V261a3.38,3.38,0,0,0-1-2.38l0,0,0,0a3.41,3.41,0,0,0-2.35-.94h0Z"/><path class="cls-11" d="M1564.61,260.44a0.51,0.51,0,0,1,.38.16,0.53,0.53,0,0,1,.16.39l0,0.18-3.48,10.45a0.74,0.74,0,0,1-.68.63h-0.71a0.56,0.56,0,0,1-.43-0.17,1.4,1.4,0,0,1-.27-0.46l-2.71-7.54-2.7,7.54a1.39,1.39,0,0,1-.28.46,0.56,0.56,0,0,1-.43.17h-0.7a0.74,0.74,0,0,1-.68-0.63l-3.47-10.45,0-.18a0.55,0.55,0,0,1,.16-0.39,0.54,0.54,0,0,1,.39-0.16h0.74a0.76,0.76,0,0,1,.78.55l2.55,7.58,2.73-7.58a0.73,0.73,0,0,1,.7-0.55h0.5a0.73,0.73,0,0,1,.7.55l2.72,7.58,2.55-7.58a0.77,0.77,0,0,1,.77-0.55h0.75m0-2.85h-0.75a3.62,3.62,0,0,0-3.41,2.31,3.56,3.56,0,0,0-3.34-2.31h-0.5a3.56,3.56,0,0,0-3.34,2.31,3.59,3.59,0,0,0-3.41-2.31h-0.74a3.38,3.38,0,0,0-2.41,1l0,0,0,0a3.4,3.4,0,0,0-.94,2.35v0.22l0,0.22,0,0.18,0,0.24,0.08,0.23,3.47,10.45a3.53,3.53,0,0,0,3.39,2.59h0.7A3.39,3.39,0,0,0,1556,274a4.23,4.23,0,0,0,.85-1.38v-0.07l0-.06,0,0.06v0l0,0a4.18,4.18,0,0,0,.86,1.39,3.38,3.38,0,0,0,2.49,1.06H1561a3.54,3.54,0,0,0,3.4-2.63l3.47-10.41,0.09-.27,0-.28,0-.18,0-.18V261a3.41,3.41,0,0,0-3.4-3.4h0Z"/><line class="cls-9" x1="1517.98" y1="236.98" x2="1588" y2="236.98"/><rect class="cls-12" x="1196.46" y="794.01" width="67.6" height="46.94" rx="6.72" ry="6.72"/><rect class="cls-13" x="1233.63" y="804.6" width="22.74" height="7.88" rx="2.26" ry="2.26"/><line class="cls-13" x1="1233.63" y1="819.41" x2="1256.38" y2="819.41"/><line class="cls-13" x1="1233.63" y1="830.04" x2="1250.72" y2="830.04"/><line class="cls-13" x1="1233.63" y1="824.36" x2="1238.2" y2="824.36"/><path class="cls-11" d="M1212.33,811.88a0.58,0.58,0,0,1,.18.43v2.2a0.58,0.58,0,0,1-.18.42,0.57,0.57,0,0,1-.42.18h-2.08a0.57,0.57,0,0,1-.43-0.18,0.58,0.58,0,0,1-.18-0.42v-2.2a0.59,0.59,0,0,1,.18-0.43,0.58,0.58,0,0,1,.43-0.18h2.08A0.57,0.57,0,0,1,1212.33,811.88Zm0,7.84a0.58,0.58,0,0,1,.18.42v2.2a0.61,0.61,0,0,1-.61.6h-2.08a0.6,0.6,0,0,1-.61-0.6v-2.2a0.58,0.58,0,0,1,.18-0.42,0.57,0.57,0,0,1,.43-0.18h2.08A0.57,0.57,0,0,1,1212.33,819.72Z"/><path class="cls-11" d="M1220.4,813.08a5.86,5.86,0,0,0-.91-2.53,2.43,2.43,0,0,0-1.84-1,0.71,0.71,0,0,1-.43-0.19,0.56,0.56,0,0,1-.18-0.42v-1.48a0.61,0.61,0,0,1,.6-0.6,5,5,0,0,1,3.49,1.18,6.75,6.75,0,0,1,1.86,3.48,30.19,30.19,0,0,1,0,11.57,6.81,6.81,0,0,1-1.86,3.49,4.94,4.94,0,0,1-3.49,1.2,0.61,0.61,0,0,1-.6-0.6v-1.48a0.55,0.55,0,0,1,.18-0.41,0.68,0.68,0,0,1,.43-0.19,2.44,2.44,0,0,0,1.84-1,5.88,5.88,0,0,0,.91-2.54A35.14,35.14,0,0,0,1220.4,813.08Z"/><line class="cls-14" x1="1196.42" y1="824.41" x2="1180.54" y2="824.41"/><line class="cls-14" x1="1181.71" y1="806.99" x2="1170.28" y2="806.99"/><line class="cls-14" x1="1193.02" y1="818.6" x2="1170.28" y2="818.6"/><line class="cls-14" x1="1202.07" y1="812.8" x2="1179.33" y2="812.8"/><path class="cls-5" d="M1138.57,766.08a2.72,2.72,0,0,0-2.12,1.23l-3.16,5.47a2.72,2.72,0,0,0,0,2.45l3.16,5.47a2.72,2.72,0,0,0,2.12,1.23h6.32a2.72,2.72,0,0,0,2.12-1.23l3.16-5.47a2.72,2.72,0,0,0,0-2.45L1147,767.3a2.72,2.72,0,0,0-2.12-1.23h-6.32Z"/><g class="cls-4"><path class="cls-5" d="M1289.62,769.61a3.11,3.11,0,0,0,2.43-1.4l3.62-6.26a3.11,3.11,0,0,0,0-2.81l-3.61-6.26a3.11,3.11,0,0,0-2.43-1.4h-7.23a3.11,3.11,0,0,0-2.43,1.4l-3.61,6.26a3.11,3.11,0,0,0,0,2.81l3.62,6.26a3.11,3.11,0,0,0,2.43,1.4h7.23Z"/></g><g class="cls-4"><path class="cls-5" d="M1577.41,603.13a5.58,5.58,0,0,0,4.36-2.51l6.48-11.22a5.58,5.58,0,0,0,0-5l-6.48-11.22a5.58,5.58,0,0,0-4.36-2.51h-13a5.58,5.58,0,0,0-4.36,2.51l-6.48,11.22a5.58,5.58,0,0,0,0,5l6.48,11.22a5.58,5.58,0,0,0,4.36,2.51h13Z"/></g><g class="cls-15"><path class="cls-11" d="M1280.43,764.51a3.11,3.11,0,0,0-2.43,1.4l-1.54,2.66a3.11,3.11,0,0,0,0,2.81L1278,774a3.11,3.11,0,0,0,2.43,1.4h3.07a3.11,3.11,0,0,0,2.43-1.4l1.54-2.66a3.11,3.11,0,0,0,0-2.81l-1.54-2.66a3.11,3.11,0,0,0-2.43-1.4h-3.07Z"/></g><path class="cls-16" d="M1230.42,383.78a3.11,3.11,0,0,0,2.43-1.4l3.62-6.26a3.11,3.11,0,0,0,0-2.81l-3.61-6.26a3.11,3.11,0,0,0-2.43-1.4h-7.23a3.11,3.11,0,0,0-2.43,1.4l-3.61,6.26a3.11,3.11,0,0,0,0,2.81l3.62,6.26a3.11,3.11,0,0,0,2.43,1.4h7.23Z"/><path class="cls-5" d="M1383.94,808.92a2.72,2.72,0,0,0-2.12,1.23l-3.16,5.47a2.72,2.72,0,0,0,0,2.45l3.16,5.47a2.72,2.72,0,0,0,2.12,1.23h6.32a2.72,2.72,0,0,0,2.12-1.23l3.16-5.47a2.72,2.72,0,0,0,0-2.45l-3.16-5.47a2.72,2.72,0,0,0-2.12-1.23h-6.32Z"/><path class="cls-5" d="M1064.38,435.08a2.71,2.71,0,0,0-2.11,1.22l-3.14,5.45a2.71,2.71,0,0,0,0,2.44l3.14,5.44a2.71,2.71,0,0,0,2.11,1.22h6.29a2.71,2.71,0,0,0,2.11-1.22l3.14-5.44a2.71,2.71,0,0,0,0-2.44l-3.14-5.45a2.71,2.71,0,0,0-2.11-1.22h-6.29Z"/><g class="cls-4"><path class="cls-16" d="M1288,291a9.38,9.38,0,0,0,7.32-4.23l10.89-18.86a9.38,9.38,0,0,0,0-8.45l-10.89-18.86a9.38,9.38,0,0,0-7.32-4.23h-21.78a9.38,9.38,0,0,0-7.32,4.23L1248,259.42a9.38,9.38,0,0,0,0,8.45l10.89,18.86a9.38,9.38,0,0,0,7.32,4.23H1288Z"/></g><g class="cls-15"><path class="cls-16" d="M1610.39,302.42a3.11,3.11,0,0,0-2.43,1.4l-1.54,2.66a3.11,3.11,0,0,0,0,2.81L1608,312a3.11,3.11,0,0,0,2.43,1.4h3.07a3.11,3.11,0,0,0,2.43-1.4l1.54-2.66a3.11,3.11,0,0,0,0-2.81l-1.54-2.66a3.11,3.11,0,0,0-2.43-1.4h-3.07Z"/></g><path class="cls-16" d="M1407.81,830.17a4.58,4.58,0,0,0,3.57-2.06l5.31-9.21a4.58,4.58,0,0,0,0-4.13l-5.31-9.2a4.58,4.58,0,0,0-3.57-2.06h-10.63a4.58,4.58,0,0,0-3.57,2.06l-5.31,9.2a4.58,4.58,0,0,0,0,4.13l5.31,9.21a4.58,4.58,0,0,0,3.57,2.06h10.63Z"/><path class="cls-16" d="M1296.24,249.87a4.58,4.58,0,0,0,3.57-2.06l5.31-9.21a4.58,4.58,0,0,0,0-4.13l-5.31-9.2a4.58,4.58,0,0,0-3.57-2.06h-10.63a4.58,4.58,0,0,0-3.57,2.06l-5.31,9.2a4.58,4.58,0,0,0,0,4.13l5.31,9.21a4.58,4.58,0,0,0,3.57,2.06h10.63Z"/><path class="cls-16" d="M1464.87,314.12a3.11,3.11,0,0,0,2.43-1.4l3.61-6.26a3.11,3.11,0,0,0,0-2.81l-3.61-6.26a3.11,3.11,0,0,0-2.43-1.4h-7.23a3.11,3.11,0,0,0-2.43,1.4l-3.61,6.26a3.11,3.11,0,0,0,0,2.81l3.61,6.26a3.11,3.11,0,0,0,2.43,1.4h7.23Z"/><path class="cls-8" d="M1174.92,484.14c8.58,0,19.11-6.08,23.4-13.51l34.81-60.3c4.29-7.43,4.29-19.59,0-27L1198.33,323c-4.29-7.43-14.82-13.51-23.41-13.51H1105.3c-8.58,0-19.11,6.08-23.4,13.51l-34.81,60.28c-4.29,7.43-4.29,19.59,0,27l34.81,60.3c4.29,7.43,14.82,13.51,23.4,13.51h69.62Z"/><path class="cls-8" d="M1654,762.34c8.58,0,19.11-6.08,23.4-13.51l34.81-60.3c4.29-7.43,4.29-19.59,0-27l-34.81-60.28c-4.29-7.43-14.82-13.51-23.41-13.51h-69.62c-8.58,0-19.11,6.08-23.4,13.51l-34.81,60.28c-4.29,7.43-4.29,19.59,0,27l34.81,60.3c4.29,7.43,14.82,13.51,23.4,13.51H1654Z"/><path class="cls-12" d="M1623.79,682v29.75a6.63,6.63,0,0,1-6.61,6.61h-29.74a6.63,6.63,0,0,1-6.61-6.61v-62.8a6.63,6.63,0,0,1,6.61-6.61h29.74a6.63,6.63,0,0,1,6.61,6.61V682Z"/><line class="cls-13" x1="1604.78" y1="648.46" x2="1599.83" y2="648.46"/><path class="cls-13" d="M1599,710.34a3.31,3.31,0,1,0,3.31-3.3A3.3,3.3,0,0,0,1599,710.34Z"/><path class="cls-17" d="M1624.32,691.26h24.86a5.26,5.26,0,0,0,5.24-5.24v-15.7a5.26,5.26,0,0,0-5.24-5.24H1621.7a5.25,5.25,0,0,0-5.23,5.24v28.78Z"/><path class="cls-17" d="M1597.94,681.23h15.4a3.26,3.26,0,0,0,3.24-3.24v-9.73a3.25,3.25,0,0,0-3.24-3.24h-17a3.25,3.25,0,0,0-3.24,3.24v17.82Z"/><path class="cls-12" d="M1616.79,679.31h43.73a9.25,9.25,0,0,0,9.22-9.21v-29.2a9.24,9.24,0,0,0-9.22-9.21h-48.34a9.23,9.23,0,0,0-9.21,9.21v52.22Z"/><path class="cls-11" d="M1647.23,650.56a5.22,5.22,0,0,1,2.23.44,3.64,3.64,0,0,1,1.43,1.09,2.45,2.45,0,0,1,.53,1.29,0.33,0.33,0,0,1-.11.3,0.43,0.43,0,0,1-.3.11h-1.07a0.63,0.63,0,0,1-.38-0.09,0.73,0.73,0,0,1-.25-0.27,1.87,1.87,0,0,0-.75-0.69,2.8,2.8,0,0,0-1.33-.26,2.7,2.7,0,0,0-1.4.33,1,1,0,0,0-.56.9,0.94,0.94,0,0,0,.27.72,2,2,0,0,0,.84.42q0.56,0.17,1.85.44a6,6,0,0,1,2.68,1.12,2.46,2.46,0,0,1,.83,2,2.73,2.73,0,0,1-.53,1.65,3.52,3.52,0,0,1-1.54,1.14,6.66,6.66,0,0,1-4.5,0,3.86,3.86,0,0,1-1.6-1.05,2.42,2.42,0,0,1-.66-1.55,0.36,0.36,0,0,1,.11-0.3,0.46,0.46,0,0,1,.31-0.11h1.07a0.7,0.7,0,0,1,.39.09,0.67,0.67,0,0,1,.24.28,2,2,0,0,0,.76.8,3.07,3.07,0,0,0,1.54.3,3.89,3.89,0,0,0,1.68-.32,1,1,0,0,0,.67-1,0.73,0.73,0,0,0-.26-0.59,2,2,0,0,0-.73-0.37c-0.32-.09-0.8-0.22-1.44-0.38l-1-.23a5,5,0,0,1-2.32-1.09,3,3,0,0,1-.19-3.64,3.58,3.58,0,0,1,1.45-1.12,5,5,0,0,1,2.06-.41m-10.26.15a4.1,4.1,0,0,1,4.58,4.23c0,0.26,0,.64,0,1.14s0,0.88,0,1.13a4.64,4.64,0,0,1-1.24,3.12,4.44,4.44,0,0,1-3.26,1.11h-3.86a0.39,0.39,0,0,1-.29-0.12,0.41,0.41,0,0,1-.12-0.29v-9.89a0.43,0.43,0,0,1,.42-0.41H1637m-2.13,8.81H1637a2.46,2.46,0,0,0,1.83-.62,2.54,2.54,0,0,0,.69-1.69c0-.25,0-0.63,0-1.13s0-.88,0-1.14a2.49,2.49,0,0,0-.7-1.68,2.58,2.58,0,0,0-1.9-.63h-2.05v6.89m-7.81-8.81a0.5,0.5,0,0,1,.36.13,1,1,0,0,1,.22.39l3.75,9.68a0.54,0.54,0,0,1,0,.11,0.4,0.4,0,0,1-.12.29,0.39,0.39,0,0,1-.29.12h-1.1a0.57,0.57,0,0,1-.6-0.38l-0.66-1.7h-4.84l-0.66,1.7a0.57,0.57,0,0,1-.6.38h-1.1A0.42,0.42,0,0,1,1621,661a0.29,0.29,0,0,1,0-.11l3.75-9.68a1,1,0,0,1,.22-0.39,0.5,0.5,0,0,1,.36-0.13H1627m-2.53,6.72h3.37l-1.69-4.36-1.68,4.36m22.73-9.54a7.66,7.66,0,0,0-3.14.64,6.37,6.37,0,0,0-2,1.35A7.13,7.13,0,0,0,1637,648h-3.78a3,3,0,0,0-2.2.93,3,3,0,0,0-.81,1.5l-0.07-.18a3.53,3.53,0,0,0-.9-1.42A3.16,3.16,0,0,0,1627,648h-1.69a3.16,3.16,0,0,0-2.16.83,3.49,3.49,0,0,0-.91,1.42l-3.74,9.65a2.9,2.9,0,0,0-.2,1.07,3.08,3.08,0,0,0,3.08,3.08h1.1a3.2,3.2,0,0,0,3.08-2.08h1.19a3.2,3.2,0,0,0,3.08,2.08h1.1a3.12,3.12,0,0,1,2.23,0H1637a7.08,7.08,0,0,0,5-1.71,6.71,6.71,0,0,0,2.24,1.34,9.31,9.31,0,0,0,6.43-.08,6.15,6.15,0,0,0,2.67-2,5.45,5.45,0,0,0,1.06-3.23,5.24,5.24,0,0,0-.95-3.11,3,3,0,0,0,.63-2.12,5.08,5.08,0,0,0-1-2.65,6.26,6.26,0,0,0-2.46-1.92,7.87,7.87,0,0,0-3.34-.68h0Z"/><path class="cls-18" d="M1134.69,404.22h43.73a9.25,9.25,0,0,0,9.22-9.21v-29.2a9.24,9.24,0,0,0-9.22-9.21h-48.34a9.23,9.23,0,0,0-9.21,9.21V418Z"/><path class="cls-18" d="M1092.59,435.08L1104,415.34a6,6,0,0,1,4.64-2.68h22.81a6,6,0,0,1,4.64,2.68l11.41,19.75h-54.9Z"/><circle class="cls-18" cx="1120.04" cy="392.33" r="12.54"/><line class="cls-19" x1="1154.24" y1="383.1" x2="1154.24" y2="383.1"/><line class="cls-20" x1="1148.32" y1="386.09" x2="1142.39" y2="389.07"/><line class="cls-19" x1="1142.39" y1="389.07" x2="1142.39" y2="389.07"/><path class="cls-21" d="M1164.28,382a1.73,1.73,0,0,1-1.35-.78l-3.33-5.76a1.73,1.73,0,0,1,0-1.56l3.33-5.76a1.73,1.73,0,0,1,1.35-.78h6.65a1.73,1.73,0,0,1,1.35.78l3.33,5.76a1.73,1.73,0,0,1,0,1.56l-3.33,5.76a1.73,1.73,0,0,1-1.35.78h-6.65Z"/><path class="cls-16" d="M1680.94,606.36a1.52,1.52,0,0,0-1.18.68l-1.76,3.05a1.52,1.52,0,0,0,0,1.37l1.76,3a1.52,1.52,0,0,0,1.18.68h3.52a1.52,1.52,0,0,0,1.18-.68l1.76-3a1.52,1.52,0,0,0,0-1.37l-1.76-3.05a1.52,1.52,0,0,0-1.18-.68h-3.52Z"/><path class="cls-9" d="M1317.22,666.86c-6.85,0-15.25-4.85-18.68-10.78L1237.82,550.9c-3.42-5.93-3.42-15.64,0-21.57l60.72-105.19c3.42-5.93,11.83-10.78,18.68-10.78h121.46c6.85,0,15.25,4.85,18.68,10.78l60.72,105.19c3.42,5.93,3.42,15.64,0,21.57l-60.72,105.18c-3.42,5.93-11.83,10.78-18.68,10.78H1317.22Z"/><path class="cls-8" d="M1412.76,627.43c8.58,0,19.11-6.08,23.4-13.51l34.81-60.3c4.29-7.43,4.29-19.59,0-27l-34.81-60.28c-4.29-7.43-14.82-13.51-23.41-13.51h-69.62c-8.58,0-19.11,6.08-23.4,13.51l-34.81,60.28c-4.29,7.43-4.29,19.59,0,27l34.81,60.3c4.29,7.43,14.82,13.51,23.4,13.51h69.62Z"/><g class="cls-22"><polygon class="cls-23" points="1401.18 540.32 1430.36 489.81 1418.74 469.47 1395.51 469.47 1366.33 519.99 1377.95 540.32 1401.18 540.32"/><polygon class="cls-23" points="1401.18 540.32 1430.36 590.63 1418.74 610.76 1395.51 610.76 1366.33 560.45 1377.95 540.32 1401.18 540.32"/><polygon class="cls-23" points="1366.33 560.41 1377.95 540.39 1366.33 520.38 1308.25 520.38 1296.64 540.39 1308.25 560.41 1366.33 560.41"/></g><path class="cls-1" d="M1353.7,489.76a9.23,9.23,0,0,0-7.19,4.17l-24.25,42a9.22,9.22,0,0,0,0,8.3l24.25,42a9.23,9.23,0,0,0,7.19,4.18h48.5a9.23,9.23,0,0,0,7.19-4.17l24.25-42a9.22,9.22,0,0,0,0-8.3l-24.25-42a9.23,9.23,0,0,0-7.19-4.18h-48.5Z"/><path class="cls-24" d="M1402.2,590.46a9.23,9.23,0,0,0,7.19-4.17l24.25-42a9.22,9.22,0,0,0,0-8.3l-24.25-42a9.23,9.23,0,0,0-7.19-4.18h-48.5a9.23,9.23,0,0,0-7.19,4.17l-24.25,42a9.22,9.22,0,0,0,0,8.3l24.25,42a9.23,9.23,0,0,0,7.19,4.18h48.5Z"/><polygon class="cls-23" points="1389.56 560.41 1401.18 540.39 1389.56 520.38 1366.33 520.38 1354.72 540.39 1366.33 560.41 1389.56 560.41"/><path class="cls-25" d="M204.82,344.78q-0.07-2.16-.07-6t0.07-6q0.29-9.79,5.33-14.83t13.68-5q8.64,0,13.68,5t5.33,14.83q0.14,4.32.14,6t-0.14,6q-0.5,19.87-19,19.87T204.82,344.78Zm29.34,11.63q3.85-3.92,4.14-12,0.14-4.32.14-5.69T238.3,333q-0.29-8.06-4.18-12a15.47,15.47,0,0,0-20.59,0q-3.89,3.93-4.18,12-0.07,2.16-.07,5.69t0.07,5.69q0.29,8.06,4.14,12t10.33,3.92Q230.31,360.33,234.16,356.41Z"/><path class="cls-25" d="M255.8,377.18a1.56,1.56,0,0,1-.43-1.15v-48a1.49,1.49,0,0,1,1.58-1.58h1.22a1.49,1.49,0,0,1,1.58,1.58v3.38q4.17-5.69,12.1-5.69t11.48,4.93a20.69,20.69,0,0,1,3.92,12.13q0.07,0.72.07,2.38t-0.07,2.38a20.69,20.69,0,0,1-3.92,12.13q-3.71,4.93-11.48,4.93T259.76,359V376a1.49,1.49,0,0,1-1.58,1.58H257A1.56,1.56,0,0,1,255.8,377.18ZM280,356.77a16.91,16.91,0,0,0,2.92-9.54q0.07-.72.07-2a21,21,0,0,0-2.59-11q-2.59-4.28-8.93-4.28-5.69,0-8.57,3.78a15.37,15.37,0,0,0-3.1,8.89l-0.07,2.81,0.07,2.81a14.48,14.48,0,0,0,1.37,5.87,11.33,11.33,0,0,0,3.89,4.57,11,11,0,0,0,6.41,1.8Q277.26,360.47,280,356.77Z"/><path class="cls-25" d="M303.46,360.73q-2.23-3.2-2.23-8.82V330.67h-5.62a1.49,1.49,0,0,1-1.58-1.58v-1a1.49,1.49,0,0,1,1.58-1.58h5.62v-12.1a1.49,1.49,0,0,1,1.58-1.58H304a1.49,1.49,0,0,1,1.58,1.58v12.1h8.93a1.49,1.49,0,0,1,1.58,1.58v1a1.49,1.49,0,0,1-1.58,1.58h-8.93v21A11.26,11.26,0,0,0,307,357.7a4.88,4.88,0,0,0,4.43,2.05h3.89a1.49,1.49,0,0,1,1.58,1.58v1a1.49,1.49,0,0,1-1.58,1.58H311Q305.69,363.93,303.46,360.73Z"/><path class="cls-25" d="M325.71,318.35a1.55,1.55,0,0,1-.43-1.15v-2.74a1.68,1.68,0,0,1,.43-1.19,1.49,1.49,0,0,1,1.15-.47h2.74a1.6,1.6,0,0,1,1.66,1.66v2.74a1.49,1.49,0,0,1-.47,1.15,1.68,1.68,0,0,1-1.19.43h-2.74A1.55,1.55,0,0,1,325.71,318.35Zm0.79,45.14a1.56,1.56,0,0,1-.43-1.15V328.07a1.49,1.49,0,0,1,1.58-1.58h1.22a1.49,1.49,0,0,1,1.58,1.58v34.27a1.49,1.49,0,0,1-1.58,1.58h-1.22A1.55,1.55,0,0,1,326.5,363.5Z"/><path class="cls-25" d="M344.36,363.5a1.56,1.56,0,0,1-.43-1.15V328.07a1.49,1.49,0,0,1,1.58-1.58h1.22a1.49,1.49,0,0,1,1.58,1.58v2.52a12.65,12.65,0,0,1,4.36-3.6,13.32,13.32,0,0,1,5.94-1.22q8.06,0,11.52,6.77a12.82,12.82,0,0,1,4.93-4.93,14.43,14.43,0,0,1,7.31-1.84,12.61,12.61,0,0,1,9.72,4.07q3.74,4.07,3.74,11.56v21a1.49,1.49,0,0,1-1.58,1.58H393a1.49,1.49,0,0,1-1.58-1.58V342.11q0-6.55-2.7-9.36a9.39,9.39,0,0,0-7.09-2.81,9.2,9.2,0,0,0-6.73,2.84q-2.85,2.85-2.84,9.32v20.23a1.49,1.49,0,0,1-1.58,1.58h-1.22a1.49,1.49,0,0,1-1.58-1.58V342.11q0-6.48-2.81-9.32a9.42,9.42,0,0,0-7-2.84,9.2,9.2,0,0,0-6.73,2.84q-2.84,2.85-2.84,9.25v20.3a1.49,1.49,0,0,1-1.58,1.58h-1.22A1.55,1.55,0,0,1,344.36,363.5Z"/><path class="cls-25" d="M408.58,318.35a1.55,1.55,0,0,1-.43-1.15v-2.74a1.68,1.68,0,0,1,.43-1.19,1.49,1.49,0,0,1,1.15-.47h2.74a1.6,1.6,0,0,1,1.66,1.66v2.74a1.49,1.49,0,0,1-.47,1.15,1.68,1.68,0,0,1-1.19.43h-2.74A1.55,1.55,0,0,1,408.58,318.35Zm0.79,45.14a1.56,1.56,0,0,1-.43-1.15V328.07a1.49,1.49,0,0,1,1.58-1.58h1.22a1.49,1.49,0,0,1,1.58,1.58v34.27a1.49,1.49,0,0,1-1.58,1.58h-1.22A1.55,1.55,0,0,1,409.37,363.5Z"/><path class="cls-25" d="M424.42,363.5a1.56,1.56,0,0,1-.43-1.15v-1.22a4.49,4.49,0,0,1,1-2.23l21.17-28.22H426.29a1.49,1.49,0,0,1-1.58-1.58v-1a1.49,1.49,0,0,1,1.58-1.58h24.19a1.49,1.49,0,0,1,1.58,1.58v1.22a4.5,4.5,0,0,1-1,2.23l-21,28.22h21.89a1.49,1.49,0,0,1,1.58,1.58v1a1.49,1.49,0,0,1-1.58,1.58H425.57A1.56,1.56,0,0,1,424.42,363.5Z"/><path class="cls-25" d="M463.52,318.35a1.55,1.55,0,0,1-.43-1.15v-2.74a1.68,1.68,0,0,1,.43-1.19,1.49,1.49,0,0,1,1.15-.47h2.74a1.6,1.6,0,0,1,1.66,1.66v2.74a1.49,1.49,0,0,1-.47,1.15,1.68,1.68,0,0,1-1.19.43h-2.74A1.55,1.55,0,0,1,463.52,318.35Zm0.79,45.14a1.56,1.56,0,0,1-.43-1.15V328.07a1.49,1.49,0,0,1,1.58-1.58h1.22a1.49,1.49,0,0,1,1.58,1.58v34.27a1.49,1.49,0,0,1-1.58,1.58h-1.22A1.55,1.55,0,0,1,464.31,363.5Z"/><path class="cls-25" d="M482.16,363.5a1.56,1.56,0,0,1-.43-1.15V328.07a1.49,1.49,0,0,1,1.58-1.58h1.22a1.49,1.49,0,0,1,1.58,1.58v3.38a14.92,14.92,0,0,1,4.93-4.25,15.53,15.53,0,0,1,7.16-1.44q7.06,0,10.87,4.5t3.82,11.63v20.45a1.49,1.49,0,0,1-1.58,1.58H510.1a1.49,1.49,0,0,1-1.58-1.58V342.26q0-5.83-2.84-9.07t-8.17-3.24a10.86,10.86,0,0,0-8.28,3.28q-3.1,3.28-3.1,9v20.09a1.49,1.49,0,0,1-1.58,1.58h-1.22A1.55,1.55,0,0,1,482.16,363.5Z"/><path class="cls-25" d="M531,377.83a11.77,11.77,0,0,1-4.72-4.43,9.5,9.5,0,0,1-1.33-4.36,1.4,1.4,0,0,1,.47-1.08,1.59,1.59,0,0,1,1.12-.43h1a1.6,1.6,0,0,1,1,.32,2.59,2.59,0,0,1,.68,1.19q2.23,6.55,10.37,6.55,6.19,0,9.14-2.56t3-9.11v-5q-4.18,5.69-12.1,5.69t-11.48-5.08a21.48,21.48,0,0,1-3.92-12.35l-0.07-2,0.07-2a21.48,21.48,0,0,1,3.92-12.35q3.71-5.08,11.48-5.08t12.1,5.69v-3.31a1.69,1.69,0,0,1,.43-1.19,1.49,1.49,0,0,1,1.15-.47h1.15a1.6,1.6,0,0,1,1.66,1.66v35.06q0,7.7-3.6,12.13T540,379.77A18,18,0,0,1,531,377.83Zm17.64-21.13a15.37,15.37,0,0,0,3.1-8.89q0.07-.72.07-2.59t-0.07-2.59a15.38,15.38,0,0,0-3.1-8.89q-2.88-3.78-8.57-3.78t-8.53,3.71a16.92,16.92,0,0,0-2.92,9.54l-0.07,2,0.07,2a16.91,16.91,0,0,0,2.92,9.54q2.7,3.71,8.53,3.71T548.62,356.69Z"/><path class="cls-25" d="M592.61,360.29q-4.1-4.35-4.32-12.2l-0.07-2.88,0.07-2.88q0.22-7.85,4.32-12.2t11.59-4.36a17.8,17.8,0,0,1,8.1,1.69,12.25,12.25,0,0,1,5,4.32,11.18,11.18,0,0,1,1.8,5.44,1.27,1.27,0,0,1-.43,1.12,1.64,1.64,0,0,1-1.15.47h-1a1.43,1.43,0,0,1-1-.32,3.84,3.84,0,0,1-.68-1.19,10.91,10.91,0,0,0-4-5.65,11.77,11.77,0,0,0-6.55-1.69,11,11,0,0,0-8.24,3.13q-3.06,3.13-3.28,9.61l-0.07,2.52,0.07,2.52q0.22,6.48,3.28,9.61a11,11,0,0,0,8.24,3.13,11.76,11.76,0,0,0,6.55-1.69,10.9,10.9,0,0,0,4-5.65,3.84,3.84,0,0,1,.68-1.19,1.43,1.43,0,0,1,1-.32h1a1.65,1.65,0,0,1,1.15.47,1.27,1.27,0,0,1,.43,1.12,11.18,11.18,0,0,1-1.8,5.44,12.23,12.23,0,0,1-5,4.32,17.8,17.8,0,0,1-8.1,1.69Q596.71,364.65,592.61,360.29Z"/><path class="cls-25" d="M633.72,360.19q-3.67-4.46-3.67-11.66V328.07a1.49,1.49,0,0,1,1.58-1.58h1.22a1.49,1.49,0,0,1,1.58,1.58v20.09q0,12.31,10.73,12.31a10.74,10.74,0,0,0,8.24-3.28q3.06-3.28,3.06-9V328.07a1.49,1.49,0,0,1,1.58-1.58h1.22a1.49,1.49,0,0,1,1.58,1.58v34.27a1.49,1.49,0,0,1-1.58,1.58h-1.22a1.49,1.49,0,0,1-1.58-1.58V359a14.92,14.92,0,0,1-4.93,4.25,15.34,15.34,0,0,1-7.09,1.44Q637.39,364.65,633.72,360.19Z"/><path class="cls-25" d="M678.33,363.07a14.06,14.06,0,0,1-4.82-3.6,5.9,5.9,0,0,1-1.62-3.24,1.26,1.26,0,0,1,.5-1,1.72,1.72,0,0,1,1.08-.4h1.08a1.7,1.7,0,0,1,.83.18,2.76,2.76,0,0,1,.76.76,11.59,11.59,0,0,0,3.85,3.49,12.89,12.89,0,0,0,6.23,1.26,13.55,13.55,0,0,0,7.2-1.69,5.39,5.39,0,0,0,2.74-4.86,4.52,4.52,0,0,0-1.12-3.17,9,9,0,0,0-3.6-2.12,71.3,71.3,0,0,0-7.38-2.05q-6.41-1.44-8.75-4a9,9,0,0,1-2.34-6.41,9.39,9.39,0,0,1,1.48-5,10.92,10.92,0,0,1,4.39-3.89,15.09,15.09,0,0,1,7-1.51,16.4,16.4,0,0,1,7.31,1.48,12.34,12.34,0,0,1,4.46,3.42,5.86,5.86,0,0,1,1.48,3.17,1.3,1.3,0,0,1-.47,1,1.67,1.67,0,0,1-1.12.4h-1.08a1.78,1.78,0,0,1-1.58-.94,10.66,10.66,0,0,0-3.28-3.28,11.36,11.36,0,0,0-5.72-1.12q-4.18,0-6.34,1.73a5.53,5.53,0,0,0-2.16,4.54,4.66,4.66,0,0,0,.86,2.88,7.61,7.61,0,0,0,3.24,2.12,45.24,45.24,0,0,0,6.91,2q6.7,1.51,9.43,4a8.67,8.67,0,0,1,2.74,6.7,9.43,9.43,0,0,1-1.66,5.4,11.21,11.21,0,0,1-4.9,3.89,19.06,19.06,0,0,1-7.78,1.44A17.69,17.69,0,0,1,678.33,363.07Z"/><path class="cls-25" d="M716.59,360.73q-2.23-3.2-2.23-8.82V330.67h-5.62a1.49,1.49,0,0,1-1.58-1.58v-1a1.49,1.49,0,0,1,1.58-1.58h5.62v-12.1a1.49,1.49,0,0,1,1.58-1.58h1.22a1.49,1.49,0,0,1,1.58,1.58v12.1h8.93a1.49,1.49,0,0,1,1.58,1.58v1a1.49,1.49,0,0,1-1.58,1.58h-8.93v21a11.26,11.26,0,0,0,1.33,6.08,4.88,4.88,0,0,0,4.43,2.05h3.89a1.49,1.49,0,0,1,1.58,1.58v1a1.49,1.49,0,0,1-1.58,1.58h-4.25Q718.82,363.93,716.59,360.73Z"/><path class="cls-25" d="M741.83,360.08a17.79,17.79,0,0,1-4.36-11.84l-0.07-3,0.07-3a17.79,17.79,0,0,1,4.36-11.84q4.14-4.57,11.63-4.57t11.63,4.57a17.8,17.8,0,0,1,4.36,11.84q0.07,0.72.07,3t-0.07,3a17.79,17.79,0,0,1-4.36,11.84q-4.14,4.57-11.63,4.57T741.83,360.08Zm19.87-2.88q3.13-3.28,3.35-9.32,0.07-.72.07-2.66T765,342.55q-0.22-6-3.35-9.32a12,12,0,0,0-16.49,0q-3.13,3.28-3.35,9.32l-0.07,2.66,0.07,2.66q0.22,6,3.35,9.32A12,12,0,0,0,761.7,357.2Z"/><path class="cls-25" d="M781.61,363.5a1.56,1.56,0,0,1-.43-1.15V328.07a1.49,1.49,0,0,1,1.58-1.58H784a1.49,1.49,0,0,1,1.58,1.58v2.52a12.65,12.65,0,0,1,4.36-3.6,13.32,13.32,0,0,1,5.94-1.22q8.06,0,11.52,6.77a12.82,12.82,0,0,1,4.93-4.93,14.43,14.43,0,0,1,7.31-1.84,12.61,12.61,0,0,1,9.72,4.07q3.74,4.07,3.74,11.56v21a1.49,1.49,0,0,1-1.58,1.58h-1.22a1.49,1.49,0,0,1-1.58-1.58V342.11q0-6.55-2.7-9.36a9.39,9.39,0,0,0-7.09-2.81,9.2,9.2,0,0,0-6.73,2.84q-2.85,2.85-2.84,9.32v20.23a1.49,1.49,0,0,1-1.58,1.58h-1.22a1.49,1.49,0,0,1-1.58-1.58V342.11q0-6.48-2.81-9.32a9.42,9.42,0,0,0-7-2.84,9.2,9.2,0,0,0-6.73,2.84q-2.84,2.85-2.84,9.25v20.3a1.49,1.49,0,0,1-1.58,1.58h-1.22A1.55,1.55,0,0,1,781.61,363.5Z"/><path class="cls-25" d="M849.07,360.15q-4.18-4.5-4.75-12.06l-0.07-2.88,0.07-2.88q0.58-7.49,4.72-12a14.24,14.24,0,0,1,11.05-4.54q7.49,0,11.7,5T876,344.35v1.08a1.49,1.49,0,0,1-.47,1.15,1.69,1.69,0,0,1-1.19.43H848.71v0.72a15.91,15.91,0,0,0,1.55,6.3,11.87,11.87,0,0,0,3.92,4.68,10,10,0,0,0,5.9,1.76,12,12,0,0,0,6.44-1.55,11.78,11.78,0,0,0,3.56-3.13,5.19,5.19,0,0,1,1-1.08,2.3,2.3,0,0,1,1.19-.22h1.15a1.63,1.63,0,0,1,1.08.36,1.16,1.16,0,0,1,.43.94q0,1.51-1.91,3.64a15.88,15.88,0,0,1-5.29,3.67,18.15,18.15,0,0,1-7.63,1.55A14.32,14.32,0,0,1,849.07,360.15ZM871.61,343v-0.29a13.43,13.43,0,0,0-3.13-9.14,10.56,10.56,0,0,0-8.39-3.6,10.34,10.34,0,0,0-8.32,3.6,13.62,13.62,0,0,0-3.06,9.14V343h22.9Z"/><path class="cls-25" d="M887.74,363.5a1.56,1.56,0,0,1-.43-1.15v-34.2a1.69,1.69,0,0,1,.43-1.19,1.49,1.49,0,0,1,1.15-.47H890a1.6,1.6,0,0,1,1.66,1.66v3.31q2.59-5,9.79-5h2.66a1.49,1.49,0,0,1,1.58,1.58v1a1.49,1.49,0,0,1-1.58,1.58h-3.1A8.7,8.7,0,0,0,891.7,340v22.32a1.49,1.49,0,0,1-.47,1.15,1.69,1.69,0,0,1-1.19.43h-1.15A1.56,1.56,0,0,1,887.74,363.5Z"/><path class="cls-25" d="M208.71,440.15q-4.18-4.5-4.75-12.06l-0.07-2.88,0.07-2.88q0.58-7.49,4.72-12a14.24,14.24,0,0,1,11.05-4.54q7.49,0,11.7,5t4.21,13.61v1.08a1.49,1.49,0,0,1-.47,1.15A1.68,1.68,0,0,1,234,427H208.35v0.72a15.92,15.92,0,0,0,1.55,6.3,11.87,11.87,0,0,0,3.92,4.68,10,10,0,0,0,5.9,1.76,12,12,0,0,0,6.44-1.55,11.77,11.77,0,0,0,3.56-3.13,5.2,5.2,0,0,1,1-1.08,2.3,2.3,0,0,1,1.19-.22H233a1.63,1.63,0,0,1,1.08.36,1.16,1.16,0,0,1,.43.94q0,1.51-1.91,3.64a15.87,15.87,0,0,1-5.29,3.67,18.15,18.15,0,0,1-7.63,1.55A14.32,14.32,0,0,1,208.71,440.15ZM231.25,423v-0.29a13.43,13.43,0,0,0-3.13-9.14,10.56,10.56,0,0,0-8.39-3.6,10.34,10.34,0,0,0-8.32,3.6,13.62,13.62,0,0,0-3.06,9.14V423h22.9Z"/><path class="cls-25" d="M247.38,443.5a1.56,1.56,0,0,1-.43-1.15V408.07a1.49,1.49,0,0,1,1.58-1.58h1.22a1.49,1.49,0,0,1,1.58,1.58v3.38a14.92,14.92,0,0,1,4.93-4.25,15.53,15.53,0,0,1,7.16-1.44q7.06,0,10.87,4.5t3.82,11.63v20.45a1.49,1.49,0,0,1-1.58,1.58h-1.22a1.49,1.49,0,0,1-1.58-1.58V422.26q0-5.83-2.84-9.07t-8.17-3.24a10.86,10.86,0,0,0-8.28,3.28q-3.1,3.28-3.1,9v20.09a1.49,1.49,0,0,1-1.58,1.58h-1.22A1.55,1.55,0,0,1,247.38,443.5Z"/><path class="cls-25" d="M296.19,457.83a11.77,11.77,0,0,1-4.72-4.43,9.5,9.5,0,0,1-1.33-4.36,1.4,1.4,0,0,1,.47-1.08,1.59,1.59,0,0,1,1.12-.43h1a1.6,1.6,0,0,1,1,.32,2.59,2.59,0,0,1,.68,1.19q2.23,6.55,10.37,6.55,6.19,0,9.14-2.56t3-9.11v-5q-4.18,5.69-12.1,5.69t-11.48-5.08a21.48,21.48,0,0,1-3.92-12.35l-0.07-2,0.07-2a21.48,21.48,0,0,1,3.92-12.35q3.71-5.08,11.48-5.08t12.1,5.69v-3.31a1.69,1.69,0,0,1,.43-1.19,1.49,1.49,0,0,1,1.15-.47h1.15a1.6,1.6,0,0,1,1.66,1.66v35.06q0,7.7-3.6,12.13t-12.53,4.43A18,18,0,0,1,296.19,457.83Zm17.64-21.13a15.37,15.37,0,0,0,3.1-8.89q0.07-.72.07-2.59t-0.07-2.59a15.38,15.38,0,0,0-3.1-8.89q-2.88-3.78-8.57-3.78t-8.53,3.71a16.92,16.92,0,0,0-2.92,9.54l-0.07,2,0.07,2a16.91,16.91,0,0,0,2.92,9.54q2.7,3.71,8.53,3.71T313.83,436.69Z"/><path class="cls-25" d="M338.53,443.21a12.35,12.35,0,0,1-4.72-3.89,9,9,0,0,1-1.76-5.4,9.45,9.45,0,0,1,3.85-7.78,21,21,0,0,1,10.4-3.89l11.38-1.58v-2.52a7.68,7.68,0,0,0-2.41-6.08q-2.41-2.12-7.38-2.12a11.32,11.32,0,0,0-6,1.44,6.48,6.48,0,0,0-3,3.46,2.59,2.59,0,0,1-.68,1.19,1.6,1.6,0,0,1-1,.32h-1a1.6,1.6,0,0,1-1.58-1.58,6.93,6.93,0,0,1,1.44-3.71,11.92,11.92,0,0,1,4.46-3.71,15.84,15.84,0,0,1,7.42-1.58q7.7,0,10.94,3.67a13,13,0,0,1,3.24,8.93v24a1.49,1.49,0,0,1-1.58,1.58h-1.22a1.49,1.49,0,0,1-1.58-1.58V439a12.67,12.67,0,0,1-4.64,4,17,17,0,0,1-8.1,1.66A14.42,14.42,0,0,1,338.53,443.21ZM354.29,437q3.38-3.46,3.38-9.94v-2.45l-9.29,1.3q-5.9.79-8.93,2.74a5.77,5.77,0,0,0-.25,10A12.49,12.49,0,0,0,354.29,437Z"/><path class="cls-25" d="M380.21,457.83a11.77,11.77,0,0,1-4.72-4.43,9.5,9.5,0,0,1-1.33-4.36,1.4,1.4,0,0,1,.47-1.08,1.59,1.59,0,0,1,1.12-.43h1a1.6,1.6,0,0,1,1,.32,2.59,2.59,0,0,1,.68,1.19q2.23,6.55,10.37,6.55,6.19,0,9.14-2.56t3-9.11v-5q-4.18,5.69-12.1,5.69t-11.48-5.08a21.48,21.48,0,0,1-3.92-12.35l-0.07-2,0.07-2a21.48,21.48,0,0,1,3.92-12.35q3.71-5.08,11.48-5.08t12.1,5.69v-3.31a1.69,1.69,0,0,1,.43-1.19,1.49,1.49,0,0,1,1.15-.47h1.15a1.6,1.6,0,0,1,1.66,1.66v35.06q0,7.7-3.6,12.13t-12.53,4.43A18,18,0,0,1,380.21,457.83Zm17.64-21.13a15.37,15.37,0,0,0,3.1-8.89q0.07-.72.07-2.59T401,422.62a15.38,15.38,0,0,0-3.1-8.89q-2.88-3.78-8.57-3.78t-8.53,3.71a16.92,16.92,0,0,0-2.92,9.54l-0.07,2,0.07,2a16.91,16.91,0,0,0,2.92,9.54q2.7,3.71,8.53,3.71T397.85,436.69Z"/><path class="cls-25" d="M421.76,440.15q-4.18-4.5-4.75-12.06l-0.07-2.88,0.07-2.88q0.58-7.49,4.72-12a14.24,14.24,0,0,1,11.05-4.54q7.49,0,11.7,5t4.21,13.61v1.08a1.49,1.49,0,0,1-.47,1.15A1.68,1.68,0,0,1,447,427H421.4v0.72a15.92,15.92,0,0,0,1.55,6.3,11.87,11.87,0,0,0,3.92,4.68,10,10,0,0,0,5.9,1.76,12,12,0,0,0,6.44-1.55,11.77,11.77,0,0,0,3.56-3.13,5.2,5.2,0,0,1,1-1.08,2.3,2.3,0,0,1,1.19-.22h1.15a1.63,1.63,0,0,1,1.08.36,1.16,1.16,0,0,1,.43.94q0,1.51-1.91,3.64a15.87,15.87,0,0,1-5.29,3.67,18.15,18.15,0,0,1-7.63,1.55A14.32,14.32,0,0,1,421.76,440.15ZM444.29,423v-0.29a13.43,13.43,0,0,0-3.13-9.14,10.56,10.56,0,0,0-8.39-3.6,10.34,10.34,0,0,0-8.32,3.6,13.62,13.62,0,0,0-3.06,9.14V423h22.9Z"/><path class="cls-25" d="M460.42,443.5a1.56,1.56,0,0,1-.43-1.15V408.07a1.49,1.49,0,0,1,1.58-1.58h1.22a1.49,1.49,0,0,1,1.58,1.58v2.52a12.65,12.65,0,0,1,4.36-3.6,13.32,13.32,0,0,1,5.94-1.22q8.06,0,11.52,6.77a12.82,12.82,0,0,1,4.93-4.93,14.43,14.43,0,0,1,7.31-1.84,12.61,12.61,0,0,1,9.72,4.07q3.74,4.07,3.74,11.56v21a1.49,1.49,0,0,1-1.58,1.58h-1.22a1.49,1.49,0,0,1-1.58-1.58V422.11q0-6.55-2.7-9.36a9.39,9.39,0,0,0-7.09-2.81,9.2,9.2,0,0,0-6.73,2.84q-2.85,2.85-2.84,9.32v20.23a1.49,1.49,0,0,1-1.58,1.58h-1.22a1.49,1.49,0,0,1-1.58-1.58V422.11q0-6.48-2.81-9.32a9.42,9.42,0,0,0-7-2.84,9.2,9.2,0,0,0-6.73,2.84q-2.84,2.85-2.84,9.25v20.3a1.49,1.49,0,0,1-1.58,1.58h-1.22A1.55,1.55,0,0,1,460.42,443.5Z"/><path class="cls-25" d="M527.88,440.15q-4.18-4.5-4.75-12.06l-0.07-2.88,0.07-2.88q0.58-7.49,4.72-12a14.24,14.24,0,0,1,11.05-4.54q7.49,0,11.7,5t4.21,13.61v1.08a1.49,1.49,0,0,1-.47,1.15,1.68,1.68,0,0,1-1.19.43H527.52v0.72a15.92,15.92,0,0,0,1.55,6.3,11.87,11.87,0,0,0,3.92,4.68,10,10,0,0,0,5.9,1.76,12,12,0,0,0,6.44-1.55,11.77,11.77,0,0,0,3.56-3.13,5.2,5.2,0,0,1,1-1.08,2.3,2.3,0,0,1,1.19-.22h1.15a1.63,1.63,0,0,1,1.08.36,1.16,1.16,0,0,1,.43.94q0,1.51-1.91,3.64a15.87,15.87,0,0,1-5.29,3.67,18.15,18.15,0,0,1-7.63,1.55A14.32,14.32,0,0,1,527.88,440.15ZM550.42,423v-0.29a13.43,13.43,0,0,0-3.13-9.14,10.56,10.56,0,0,0-8.39-3.6,10.34,10.34,0,0,0-8.32,3.6,13.62,13.62,0,0,0-3.06,9.14V423h22.9Z"/><path class="cls-25" d="M566.55,443.5a1.56,1.56,0,0,1-.43-1.15V408.07a1.49,1.49,0,0,1,1.58-1.58h1.22a1.49,1.49,0,0,1,1.58,1.58v3.38a14.92,14.92,0,0,1,4.93-4.25,15.53,15.53,0,0,1,7.16-1.44q7.06,0,10.87,4.5t3.82,11.63v20.45a1.49,1.49,0,0,1-1.58,1.58h-1.22a1.49,1.49,0,0,1-1.58-1.58V422.26q0-5.83-2.84-9.07t-8.17-3.24a10.86,10.86,0,0,0-8.28,3.28q-3.1,3.28-3.1,9v20.09a1.49,1.49,0,0,1-1.58,1.58H567.7A1.55,1.55,0,0,1,566.55,443.5Z"/><path class="cls-25" d="M614.86,440.73q-2.23-3.2-2.23-8.82V410.67H607a1.49,1.49,0,0,1-1.58-1.58v-1a1.49,1.49,0,0,1,1.58-1.58h5.62v-12.1a1.49,1.49,0,0,1,1.58-1.58h1.22a1.49,1.49,0,0,1,1.58,1.58v12.1h8.93a1.49,1.49,0,0,1,1.58,1.58v1a1.49,1.49,0,0,1-1.58,1.58H617v21a11.26,11.26,0,0,0,1.33,6.08,4.88,4.88,0,0,0,4.43,2.05h3.89a1.49,1.49,0,0,1,1.58,1.58v1a1.49,1.49,0,0,1-1.58,1.58h-4.25Q617.09,443.93,614.86,440.73Z"/><path class="cls-25" d="M661.51,443.21a12.35,12.35,0,0,1-4.72-3.89,9,9,0,0,1-1.76-5.4,9.45,9.45,0,0,1,3.85-7.78,21,21,0,0,1,10.4-3.89l11.38-1.58v-2.52a7.68,7.68,0,0,0-2.41-6.08q-2.41-2.12-7.38-2.12a11.32,11.32,0,0,0-6,1.44,6.48,6.48,0,0,0-3,3.46,2.59,2.59,0,0,1-.68,1.19,1.6,1.6,0,0,1-1,.32h-1a1.6,1.6,0,0,1-1.58-1.58,6.93,6.93,0,0,1,1.44-3.71,11.92,11.92,0,0,1,4.46-3.71,15.84,15.84,0,0,1,7.42-1.58q7.7,0,10.94,3.67a13,13,0,0,1,3.24,8.93v24a1.49,1.49,0,0,1-1.58,1.58h-1.22a1.49,1.49,0,0,1-1.58-1.58V439a12.67,12.67,0,0,1-4.64,4,17,17,0,0,1-8.1,1.66A14.42,14.42,0,0,1,661.51,443.21ZM677.28,437q3.38-3.46,3.38-9.94v-2.45l-9.29,1.3q-5.9.79-8.93,2.74a5.77,5.77,0,0,0-.25,10A12.49,12.49,0,0,0,677.28,437Z"/><path class="cls-25" d="M700.83,440.29q-4.1-4.35-4.32-12.2l-0.07-2.88,0.07-2.88q0.22-7.85,4.32-12.2t11.59-4.36a17.8,17.8,0,0,1,8.1,1.69,12.25,12.25,0,0,1,5,4.32,11.18,11.18,0,0,1,1.8,5.44,1.27,1.27,0,0,1-.43,1.12,1.64,1.64,0,0,1-1.15.47h-1a1.43,1.43,0,0,1-1-.32,3.84,3.84,0,0,1-.68-1.19,10.91,10.91,0,0,0-4-5.65,11.77,11.77,0,0,0-6.55-1.69,11,11,0,0,0-8.24,3.13q-3.06,3.13-3.28,9.61l-0.07,2.52,0.07,2.52q0.22,6.48,3.28,9.61a11,11,0,0,0,8.24,3.13,11.76,11.76,0,0,0,6.55-1.69,10.9,10.9,0,0,0,4-5.65,3.84,3.84,0,0,1,.68-1.19,1.43,1.43,0,0,1,1-.32h1a1.65,1.65,0,0,1,1.15.47,1.27,1.27,0,0,1,.43,1.12,11.18,11.18,0,0,1-1.8,5.44,12.23,12.23,0,0,1-5,4.32,17.8,17.8,0,0,1-8.1,1.69Q704.93,444.65,700.83,440.29Z"/><path class="cls-25" d="M739.06,443.5a1.56,1.56,0,0,1-.43-1.15v-34.2a1.69,1.69,0,0,1,.43-1.19,1.49,1.49,0,0,1,1.15-.47h1.15a1.6,1.6,0,0,1,1.66,1.66v3.31q2.59-5,9.79-5h2.66a1.49,1.49,0,0,1,1.58,1.58v1a1.49,1.49,0,0,1-1.58,1.58h-3.1A8.7,8.7,0,0,0,743,420v22.32a1.49,1.49,0,0,1-.47,1.15,1.68,1.68,0,0,1-1.19.43h-1.15A1.55,1.55,0,0,1,739.06,443.5Z"/><path class="cls-25" d="M767.25,440.08a17.79,17.79,0,0,1-4.36-11.84l-0.07-3,0.07-3a17.79,17.79,0,0,1,4.36-11.84q4.14-4.57,11.63-4.57t11.63,4.57a17.8,17.8,0,0,1,4.36,11.84q0.07,0.72.07,3t-0.07,3a17.79,17.79,0,0,1-4.36,11.84q-4.14,4.57-11.63,4.57T767.25,440.08Zm19.87-2.88q3.13-3.28,3.35-9.32,0.07-.72.07-2.66t-0.07-2.66q-0.22-6-3.35-9.32a12,12,0,0,0-16.49,0q-3.13,3.28-3.35,9.32l-0.07,2.66,0.07,2.66q0.22,6,3.35,9.32A12,12,0,0,0,787.12,437.2Z"/><path class="cls-25" d="M810.59,443.07a14.06,14.06,0,0,1-4.82-3.6,5.9,5.9,0,0,1-1.62-3.24,1.26,1.26,0,0,1,.5-1,1.72,1.72,0,0,1,1.08-.4h1.08a1.7,1.7,0,0,1,.83.18,2.76,2.76,0,0,1,.76.76,11.59,11.59,0,0,0,3.85,3.49,12.89,12.89,0,0,0,6.23,1.26,13.55,13.55,0,0,0,7.2-1.69,5.39,5.39,0,0,0,2.74-4.86,4.52,4.52,0,0,0-1.12-3.17,9,9,0,0,0-3.6-2.12,71.3,71.3,0,0,0-7.38-2.05q-6.41-1.44-8.75-4a9,9,0,0,1-2.34-6.41,9.39,9.39,0,0,1,1.48-5,10.92,10.92,0,0,1,4.39-3.89,15.09,15.09,0,0,1,7-1.51,16.4,16.4,0,0,1,7.31,1.48,12.34,12.34,0,0,1,4.46,3.42,5.85,5.85,0,0,1,1.48,3.17,1.3,1.3,0,0,1-.47,1,1.67,1.67,0,0,1-1.12.4H828.7a1.78,1.78,0,0,1-1.58-.94,10.66,10.66,0,0,0-3.28-3.28,11.36,11.36,0,0,0-5.72-1.12q-4.18,0-6.34,1.73a5.53,5.53,0,0,0-2.16,4.54,4.66,4.66,0,0,0,.86,2.88,7.61,7.61,0,0,0,3.24,2.12,45.24,45.24,0,0,0,6.91,2q6.7,1.51,9.43,4a8.67,8.67,0,0,1,2.74,6.7,9.43,9.43,0,0,1-1.66,5.4,11.21,11.21,0,0,1-4.9,3.89,19.06,19.06,0,0,1-7.78,1.44A17.69,17.69,0,0,1,810.59,443.07Z"/><path class="cls-25" d="M847.81,443.07a14.06,14.06,0,0,1-4.82-3.6,5.9,5.9,0,0,1-1.62-3.24,1.26,1.26,0,0,1,.5-1,1.72,1.72,0,0,1,1.08-.4H844a1.71,1.71,0,0,1,.83.18,2.76,2.76,0,0,1,.76.76,11.59,11.59,0,0,0,3.85,3.49,12.89,12.89,0,0,0,6.23,1.26,13.55,13.55,0,0,0,7.2-1.69,5.39,5.39,0,0,0,2.74-4.86,4.52,4.52,0,0,0-1.12-3.17,9,9,0,0,0-3.6-2.12,71.21,71.21,0,0,0-7.38-2.05q-6.41-1.44-8.75-4a9,9,0,0,1-2.34-6.41,9.39,9.39,0,0,1,1.48-5,10.91,10.91,0,0,1,4.39-3.89,15.09,15.09,0,0,1,7-1.51,16.4,16.4,0,0,1,7.31,1.48,12.34,12.34,0,0,1,4.46,3.42,5.85,5.85,0,0,1,1.48,3.17,1.3,1.3,0,0,1-.47,1,1.67,1.67,0,0,1-1.12.4h-1.08a1.78,1.78,0,0,1-1.58-.94,10.65,10.65,0,0,0-3.28-3.28,11.36,11.36,0,0,0-5.72-1.12q-4.18,0-6.34,1.73a5.53,5.53,0,0,0-2.16,4.54,4.66,4.66,0,0,0,.86,2.88,7.62,7.62,0,0,0,3.24,2.12,45.22,45.22,0,0,0,6.91,2q6.7,1.51,9.43,4a8.67,8.67,0,0,1,2.74,6.7,9.43,9.43,0,0,1-1.66,5.4,11.2,11.2,0,0,1-4.9,3.89,19.06,19.06,0,0,1-7.78,1.44A17.69,17.69,0,0,1,847.81,443.07Z"/><path class="cls-25" d="M209.5,523.21a12.35,12.35,0,0,1-4.72-3.89,9,9,0,0,1-1.76-5.4,9.45,9.45,0,0,1,3.85-7.78,21,21,0,0,1,10.4-3.89l11.38-1.58v-2.52a7.68,7.68,0,0,0-2.41-6.08q-2.41-2.12-7.38-2.12a11.32,11.32,0,0,0-6,1.44,6.48,6.48,0,0,0-3,3.46,2.59,2.59,0,0,1-.68,1.19,1.6,1.6,0,0,1-1,.32h-1a1.6,1.6,0,0,1-1.58-1.58,6.93,6.93,0,0,1,1.44-3.71,11.92,11.92,0,0,1,4.46-3.71,15.84,15.84,0,0,1,7.42-1.58q7.7,0,10.94,3.67a13,13,0,0,1,3.24,8.93v24a1.49,1.49,0,0,1-1.58,1.58h-1.22a1.49,1.49,0,0,1-1.58-1.58V519a12.67,12.67,0,0,1-4.64,4,17,17,0,0,1-8.1,1.66A14.42,14.42,0,0,1,209.5,523.21ZM225.27,517q3.38-3.46,3.38-9.94v-2.45l-9.29,1.3q-5.9.79-8.93,2.74a5.77,5.77,0,0,0-.25,10A12.49,12.49,0,0,0,225.27,517Z"/><path class="cls-25" d="M246.73,523.5a1.56,1.56,0,0,1-.43-1.15v-48a1.49,1.49,0,0,1,1.58-1.58h1.22a1.49,1.49,0,0,1,1.58,1.58v48a1.49,1.49,0,0,1-1.58,1.58h-1.22A1.56,1.56,0,0,1,246.73,523.5Z"/><path class="cls-25" d="M264.73,523.5a1.56,1.56,0,0,1-.43-1.15v-48a1.49,1.49,0,0,1,1.58-1.58h1.22a1.49,1.49,0,0,1,1.58,1.58v48a1.49,1.49,0,0,1-1.58,1.58h-1.22A1.56,1.56,0,0,1,264.73,523.5Z"/><path class="cls-25" d="M305.19,520.29q-4.1-4.35-4.32-12.2l-0.07-2.88,0.07-2.88q0.22-7.85,4.32-12.2t11.59-4.36a17.8,17.8,0,0,1,8.1,1.69,12.25,12.25,0,0,1,5,4.32,11.18,11.18,0,0,1,1.8,5.44,1.27,1.27,0,0,1-.43,1.12,1.64,1.64,0,0,1-1.15.47h-1a1.43,1.43,0,0,1-1-.32,3.84,3.84,0,0,1-.68-1.19,10.91,10.91,0,0,0-4-5.65,11.77,11.77,0,0,0-6.55-1.69,11,11,0,0,0-8.24,3.13q-3.06,3.13-3.28,9.61l-0.07,2.52,0.07,2.52q0.22,6.48,3.28,9.61a11,11,0,0,0,8.24,3.13,11.76,11.76,0,0,0,6.55-1.69,10.9,10.9,0,0,0,4-5.65,3.84,3.84,0,0,1,.68-1.19,1.43,1.43,0,0,1,1-.32h1a1.65,1.65,0,0,1,1.15.47,1.27,1.27,0,0,1,.43,1.12,11.18,11.18,0,0,1-1.8,5.44,12.23,12.23,0,0,1-5,4.32,17.8,17.8,0,0,1-8.1,1.69Q309.29,524.65,305.19,520.29Z"/><path class="cls-25" d="M343.49,523.5a1.56,1.56,0,0,1-.43-1.15v-48a1.49,1.49,0,0,1,1.58-1.58h1.22a1.49,1.49,0,0,1,1.58,1.58v17.06a14.92,14.92,0,0,1,4.93-4.25,15.52,15.52,0,0,1,7.16-1.44q7.06,0,10.87,4.5t3.82,11.63v20.45a1.49,1.49,0,0,1-1.58,1.58h-1.22a1.49,1.49,0,0,1-1.58-1.58V502.26q0-5.83-2.84-9.07t-8.17-3.24a10.85,10.85,0,0,0-8.28,3.28q-3.1,3.28-3.1,9v20.09a1.49,1.49,0,0,1-1.58,1.58h-1.22A1.56,1.56,0,0,1,343.49,523.5Z"/><path class="cls-25" d="M391,523.21a12.35,12.35,0,0,1-4.72-3.89,9,9,0,0,1-1.76-5.4,9.45,9.45,0,0,1,3.85-7.78,21,21,0,0,1,10.4-3.89l11.38-1.58v-2.52a7.68,7.68,0,0,0-2.41-6.08q-2.41-2.12-7.38-2.12a11.32,11.32,0,0,0-6,1.44,6.48,6.48,0,0,0-3,3.46,2.59,2.59,0,0,1-.68,1.19,1.6,1.6,0,0,1-1,.32h-1a1.6,1.6,0,0,1-1.58-1.58,6.93,6.93,0,0,1,1.44-3.71,11.92,11.92,0,0,1,4.46-3.71,15.84,15.84,0,0,1,7.42-1.58q7.7,0,10.94,3.67a13,13,0,0,1,3.24,8.93v24a1.49,1.49,0,0,1-1.58,1.58h-1.22a1.49,1.49,0,0,1-1.58-1.58V519a12.67,12.67,0,0,1-4.64,4,17,17,0,0,1-8.1,1.66A14.42,14.42,0,0,1,391,523.21ZM406.78,517q3.38-3.46,3.38-9.94v-2.45l-9.29,1.3q-5.9.79-8.93,2.74a5.77,5.77,0,0,0-.25,10A12.49,12.49,0,0,0,406.78,517Z"/><path class="cls-25" d="M428.17,523.5a1.56,1.56,0,0,1-.43-1.15V488.07a1.49,1.49,0,0,1,1.58-1.58h1.22a1.49,1.49,0,0,1,1.58,1.58v3.38a14.92,14.92,0,0,1,4.93-4.25,15.53,15.53,0,0,1,7.16-1.44q7.06,0,10.87,4.5t3.82,11.63v20.45a1.49,1.49,0,0,1-1.58,1.58H456.1a1.49,1.49,0,0,1-1.58-1.58V502.26q0-5.83-2.84-9.07t-8.17-3.24a10.86,10.86,0,0,0-8.28,3.28q-3.1,3.28-3.1,9v20.09a1.49,1.49,0,0,1-1.58,1.58h-1.22A1.55,1.55,0,0,1,428.17,523.5Z"/><path class="cls-25" d="M472.44,523.5a1.56,1.56,0,0,1-.43-1.15V488.07a1.49,1.49,0,0,1,1.58-1.58h1.22a1.49,1.49,0,0,1,1.58,1.58v3.38a14.92,14.92,0,0,1,4.93-4.25,15.53,15.53,0,0,1,7.16-1.44q7.06,0,10.87,4.5t3.82,11.63v20.45a1.49,1.49,0,0,1-1.58,1.58h-1.22a1.49,1.49,0,0,1-1.58-1.58V502.26q0-5.83-2.84-9.07t-8.17-3.24a10.86,10.86,0,0,0-8.28,3.28q-3.1,3.28-3.1,9v20.09a1.49,1.49,0,0,1-1.58,1.58H473.6A1.55,1.55,0,0,1,472.44,523.5Z"/><path class="cls-25" d="M519.17,520.15q-4.18-4.5-4.75-12.06l-0.07-2.88,0.07-2.88q0.58-7.49,4.72-12a14.24,14.24,0,0,1,11.05-4.54q7.49,0,11.7,5t4.21,13.61v1.08a1.49,1.49,0,0,1-.47,1.15,1.68,1.68,0,0,1-1.19.43H518.81v0.72a15.92,15.92,0,0,0,1.55,6.3,11.87,11.87,0,0,0,3.92,4.68,10,10,0,0,0,5.9,1.76,12,12,0,0,0,6.44-1.55,11.77,11.77,0,0,0,3.56-3.13,5.2,5.2,0,0,1,1-1.08,2.3,2.3,0,0,1,1.19-.22h1.15a1.63,1.63,0,0,1,1.08.36,1.16,1.16,0,0,1,.43.94q0,1.51-1.91,3.64a15.87,15.87,0,0,1-5.29,3.67,18.15,18.15,0,0,1-7.63,1.55A14.32,14.32,0,0,1,519.17,520.15ZM541.71,503v-0.29a13.43,13.43,0,0,0-3.13-9.14,10.56,10.56,0,0,0-8.39-3.6,10.34,10.34,0,0,0-8.32,3.6,13.62,13.62,0,0,0-3.06,9.14V503h22.9Z"/><path class="cls-25" d="M557.91,523.5a1.56,1.56,0,0,1-.43-1.15v-48a1.49,1.49,0,0,1,1.58-1.58h1.22a1.49,1.49,0,0,1,1.58,1.58v48a1.49,1.49,0,0,1-1.58,1.58h-1.22A1.56,1.56,0,0,1,557.91,523.5Z"/><path class="cls-25" d="M579.4,523.07a14.06,14.06,0,0,1-4.82-3.6,5.9,5.9,0,0,1-1.62-3.24,1.26,1.26,0,0,1,.5-1,1.72,1.72,0,0,1,1.08-.4h1.08a1.7,1.7,0,0,1,.83.18,2.76,2.76,0,0,1,.76.76,11.59,11.59,0,0,0,3.85,3.49,12.89,12.89,0,0,0,6.23,1.26,13.55,13.55,0,0,0,7.2-1.69,5.39,5.39,0,0,0,2.74-4.86,4.52,4.52,0,0,0-1.12-3.17,9,9,0,0,0-3.6-2.12,71.3,71.3,0,0,0-7.38-2.05q-6.41-1.44-8.75-4a9,9,0,0,1-2.34-6.41,9.39,9.39,0,0,1,1.48-5,10.92,10.92,0,0,1,4.39-3.89,15.09,15.09,0,0,1,7-1.51,16.4,16.4,0,0,1,7.31,1.48,12.34,12.34,0,0,1,4.46,3.42,5.86,5.86,0,0,1,1.48,3.17,1.3,1.3,0,0,1-.47,1,1.67,1.67,0,0,1-1.12.4h-1.08a1.78,1.78,0,0,1-1.58-.94,10.66,10.66,0,0,0-3.28-3.28,11.36,11.36,0,0,0-5.72-1.12q-4.18,0-6.34,1.73a5.53,5.53,0,0,0-2.16,4.54,4.66,4.66,0,0,0,.86,2.88,7.61,7.61,0,0,0,3.24,2.12,45.24,45.24,0,0,0,6.91,2q6.7,1.51,9.43,4a8.67,8.67,0,0,1,2.74,6.7,9.43,9.43,0,0,1-1.66,5.4,11.21,11.21,0,0,1-4.9,3.89,19.06,19.06,0,0,1-7.78,1.44A17.69,17.69,0,0,1,579.4,523.07Z"/><path class="cls-25" d="M612.55,498.3a1.56,1.56,0,0,1-.43-1.15v-3.46a1.69,1.69,0,0,1,.43-1.19,1.49,1.49,0,0,1,1.15-.47h3.46a1.6,1.6,0,0,1,1.66,1.66v3.46a1.49,1.49,0,0,1-.47,1.15,1.69,1.69,0,0,1-1.19.43h-3.46A1.56,1.56,0,0,1,612.55,498.3Zm0,25.2a1.56,1.56,0,0,1-.43-1.15v-3.46a1.69,1.69,0,0,1,.43-1.19,1.49,1.49,0,0,1,1.15-.47h3.46a1.6,1.6,0,0,1,1.66,1.66v3.46a1.49,1.49,0,0,1-.47,1.15,1.69,1.69,0,0,1-1.19.43h-3.46A1.56,1.56,0,0,1,612.55,523.5Z"/><path class="cls-25" d="M205.47,558.35a1.56,1.56,0,0,1-.43-1.15v-2.74a1.69,1.69,0,0,1,.43-1.19,1.49,1.49,0,0,1,1.15-.47h2.74a1.6,1.6,0,0,1,1.66,1.66v2.74a1.49,1.49,0,0,1-.47,1.15,1.68,1.68,0,0,1-1.19.43h-2.74A1.55,1.55,0,0,1,205.47,558.35Zm0.79,45.14a1.55,1.55,0,0,1-.43-1.15V568.07a1.49,1.49,0,0,1,1.58-1.58h1.22a1.49,1.49,0,0,1,1.58,1.58v34.27a1.49,1.49,0,0,1-1.58,1.58h-1.22A1.56,1.56,0,0,1,206.26,603.5Z"/><path class="cls-25" d="M224.12,603.5a1.55,1.55,0,0,1-.43-1.15V568.07a1.49,1.49,0,0,1,1.58-1.58h1.22a1.49,1.49,0,0,1,1.58,1.58v3.38a14.92,14.92,0,0,1,4.93-4.25,15.53,15.53,0,0,1,7.16-1.44q7.06,0,10.87,4.5t3.82,11.63v20.45a1.49,1.49,0,0,1-1.58,1.58h-1.22a1.49,1.49,0,0,1-1.58-1.58V582.26q0-5.83-2.84-9.07t-8.17-3.24a10.86,10.86,0,0,0-8.28,3.28q-3.1,3.28-3.1,9v20.09a1.49,1.49,0,0,1-1.58,1.58h-1.22A1.56,1.56,0,0,1,224.12,603.5Z"/><path class="cls-25" d="M270.56,600.29q-4.1-4.35-4.32-12.2l-0.07-2.88,0.07-2.88q0.22-7.85,4.32-12.2t11.59-4.36a17.8,17.8,0,0,1,8.1,1.69,12.25,12.25,0,0,1,5,4.32,11.18,11.18,0,0,1,1.8,5.44,1.27,1.27,0,0,1-.43,1.12,1.64,1.64,0,0,1-1.15.47h-1a1.43,1.43,0,0,1-1-.32,3.84,3.84,0,0,1-.68-1.19,10.91,10.91,0,0,0-4-5.65,11.76,11.76,0,0,0-6.55-1.69,11,11,0,0,0-8.24,3.13q-3.06,3.13-3.28,9.61l-0.07,2.52,0.07,2.52q0.22,6.48,3.28,9.61a11,11,0,0,0,8.24,3.13,11.75,11.75,0,0,0,6.55-1.69,10.9,10.9,0,0,0,4-5.65,3.84,3.84,0,0,1,.68-1.19,1.43,1.43,0,0,1,1-.32h1a1.65,1.65,0,0,1,1.15.47,1.27,1.27,0,0,1,.43,1.12,11.18,11.18,0,0,1-1.8,5.44,12.23,12.23,0,0,1-5,4.32,17.8,17.8,0,0,1-8.1,1.69Q274.66,604.65,270.56,600.29Z"/><path class="cls-25" d="M308.86,603.5a1.55,1.55,0,0,1-.43-1.15v-48a1.49,1.49,0,0,1,1.58-1.58h1.22a1.49,1.49,0,0,1,1.58,1.58v48a1.49,1.49,0,0,1-1.58,1.58H310A1.56,1.56,0,0,1,308.86,603.5Z"/><path class="cls-25" d="M329.67,600.19Q326,595.72,326,588.52V568.07a1.49,1.49,0,0,1,1.58-1.58h1.22a1.49,1.49,0,0,1,1.58,1.58v20.09q0,12.31,10.73,12.31a10.74,10.74,0,0,0,8.24-3.28q3.06-3.28,3.06-9V568.07a1.49,1.49,0,0,1,1.58-1.58h1.22a1.49,1.49,0,0,1,1.58,1.58v34.27a1.49,1.49,0,0,1-1.58,1.58H354a1.49,1.49,0,0,1-1.58-1.58V599a14.92,14.92,0,0,1-4.93,4.25,15.34,15.34,0,0,1-7.09,1.44Q333.34,604.65,329.67,600.19Z"/><path class="cls-25" d="M372.33,599.57a21.48,21.48,0,0,1-3.92-12.35l-0.07-2,0.07-2a21.48,21.48,0,0,1,3.92-12.35q3.71-5.08,11.48-5.08t12.1,5.69V554.39a1.49,1.49,0,0,1,1.58-1.58h1.22a1.49,1.49,0,0,1,1.58,1.58v48a1.49,1.49,0,0,1-1.58,1.58h-1.22a1.49,1.49,0,0,1-1.58-1.58V599q-4.18,5.69-12.1,5.69T372.33,599.57Zm20.48-2.88a15.37,15.37,0,0,0,3.1-8.89q0.07-.72.07-2.81t-0.07-2.81a14.52,14.52,0,0,0-1.37-5.87,11.35,11.35,0,0,0-3.89-4.57,11,11,0,0,0-6.41-1.8q-5.83,0-8.53,3.71a16.91,16.91,0,0,0-2.92,9.54l-0.07,2a21,21,0,0,0,2.59,11q2.59,4.28,8.93,4.28Q389.93,600.47,392.81,596.69Z"/><path class="cls-25" d="M413.48,558.35a1.56,1.56,0,0,1-.43-1.15v-2.74a1.69,1.69,0,0,1,.43-1.19,1.49,1.49,0,0,1,1.15-.47h2.74a1.6,1.6,0,0,1,1.66,1.66v2.74a1.49,1.49,0,0,1-.47,1.15,1.68,1.68,0,0,1-1.19.43h-2.74A1.55,1.55,0,0,1,413.48,558.35Zm0.79,45.14a1.55,1.55,0,0,1-.43-1.15V568.07a1.49,1.49,0,0,1,1.58-1.58h1.22a1.49,1.49,0,0,1,1.58,1.58v34.27a1.49,1.49,0,0,1-1.58,1.58h-1.22A1.56,1.56,0,0,1,414.27,603.5Z"/><path class="cls-25" d="M432.12,603.5a1.55,1.55,0,0,1-.43-1.15V568.07a1.49,1.49,0,0,1,1.58-1.58h1.22a1.49,1.49,0,0,1,1.58,1.58v3.38a14.92,14.92,0,0,1,4.93-4.25,15.53,15.53,0,0,1,7.16-1.44q7.06,0,10.87,4.5t3.82,11.63v20.45a1.49,1.49,0,0,1-1.58,1.58h-1.22a1.49,1.49,0,0,1-1.58-1.58V582.26q0-5.83-2.84-9.07t-8.17-3.24a10.86,10.86,0,0,0-8.28,3.28q-3.1,3.28-3.1,9v20.09a1.49,1.49,0,0,1-1.58,1.58h-1.22A1.56,1.56,0,0,1,432.12,603.5Z"/><path class="cls-25" d="M480.94,617.83a11.77,11.77,0,0,1-4.72-4.43,9.5,9.5,0,0,1-1.33-4.36,1.4,1.4,0,0,1,.47-1.08,1.59,1.59,0,0,1,1.12-.43h1a1.6,1.6,0,0,1,1,.32,2.59,2.59,0,0,1,.68,1.19q2.23,6.55,10.37,6.55,6.19,0,9.14-2.56t3-9.11v-5q-4.18,5.69-12.1,5.69t-11.48-5.08a21.48,21.48,0,0,1-3.92-12.35l-0.07-2,0.07-2a21.48,21.48,0,0,1,3.92-12.35q3.71-5.08,11.48-5.08t12.1,5.69v-3.31a1.69,1.69,0,0,1,.43-1.19,1.49,1.49,0,0,1,1.15-.47h1.15a1.6,1.6,0,0,1,1.66,1.66v35.06q0,7.7-3.6,12.13t-12.53,4.43A18,18,0,0,1,480.94,617.83Zm17.64-21.13a15.37,15.37,0,0,0,3.1-8.89q0.07-.72.07-2.59t-0.07-2.59a15.37,15.37,0,0,0-3.1-8.89q-2.88-3.78-8.57-3.78t-8.53,3.71a16.92,16.92,0,0,0-2.92,9.54l-0.07,2,0.07,2a16.91,16.91,0,0,0,2.92,9.54q2.7,3.71,8.53,3.71T498.58,596.69Z"/><path class="cls-25" d="M542.61,600.08a17.79,17.79,0,0,1-4.36-11.84l-0.07-3,0.07-3a17.79,17.79,0,0,1,4.36-11.84q4.14-4.57,11.63-4.57t11.63,4.57a17.8,17.8,0,0,1,4.36,11.84q0.07,0.72.07,3t-0.07,3a17.79,17.79,0,0,1-4.36,11.84q-4.14,4.57-11.63,4.57T542.61,600.08Zm19.87-2.88q3.13-3.28,3.35-9.32,0.07-.72.07-2.66t-0.07-2.66q-0.22-6-3.35-9.32a12,12,0,0,0-16.49,0q-3.13,3.28-3.35,9.32l-0.07,2.66,0.07,2.66q0.22,6,3.35,9.32A12,12,0,0,0,562.48,597.2Z"/><path class="cls-25" d="M582.39,603.5a1.55,1.55,0,0,1-.43-1.15V568.07a1.49,1.49,0,0,1,1.58-1.58h1.22a1.49,1.49,0,0,1,1.58,1.58v3.38a14.92,14.92,0,0,1,4.93-4.25,15.53,15.53,0,0,1,7.16-1.44q7.06,0,10.87,4.5t3.82,11.63v20.45a1.49,1.49,0,0,1-1.58,1.58h-1.22a1.49,1.49,0,0,1-1.58-1.58V582.26q0-5.83-2.84-9.07t-8.17-3.24a10.86,10.86,0,0,0-8.28,3.28q-3.1,3.28-3.1,9v20.09a1.49,1.49,0,0,1-1.58,1.58h-1.22A1.56,1.56,0,0,1,582.39,603.5Z"/><path class="cls-25" d="M626.16,584a1.56,1.56,0,0,1-.43-1.15v-1a1.49,1.49,0,0,1,1.58-1.58h21.24a1.49,1.49,0,0,1,1.58,1.58v1a1.49,1.49,0,0,1-1.58,1.58H627.31A1.56,1.56,0,0,1,626.16,584Z"/><path class="cls-25" d="M667.09,603.07a14.06,14.06,0,0,1-4.82-3.6,5.9,5.9,0,0,1-1.62-3.24,1.26,1.26,0,0,1,.5-1,1.71,1.71,0,0,1,1.08-.4h1.08a1.7,1.7,0,0,1,.83.18,2.76,2.76,0,0,1,.76.76,11.59,11.59,0,0,0,3.85,3.49,12.9,12.9,0,0,0,6.23,1.26,13.54,13.54,0,0,0,7.2-1.69,5.39,5.39,0,0,0,2.74-4.86,4.52,4.52,0,0,0-1.12-3.17,9,9,0,0,0-3.6-2.12,71.27,71.27,0,0,0-7.38-2.05q-6.41-1.44-8.75-4a9,9,0,0,1-2.34-6.41,9.39,9.39,0,0,1,1.48-5,10.91,10.91,0,0,1,4.39-3.89,15.09,15.09,0,0,1,7-1.51,16.4,16.4,0,0,1,7.31,1.48,12.34,12.34,0,0,1,4.46,3.42,5.86,5.86,0,0,1,1.48,3.17,1.3,1.3,0,0,1-.47,1,1.67,1.67,0,0,1-1.12.4H685.2a1.78,1.78,0,0,1-1.58-.94,10.66,10.66,0,0,0-3.28-3.28,11.35,11.35,0,0,0-5.72-1.12q-4.18,0-6.34,1.73a5.53,5.53,0,0,0-2.16,4.54,4.67,4.67,0,0,0,.86,2.88,7.62,7.62,0,0,0,3.24,2.12,45.3,45.3,0,0,0,6.91,2q6.7,1.51,9.43,4a8.67,8.67,0,0,1,2.74,6.7,9.43,9.43,0,0,1-1.66,5.4,11.2,11.2,0,0,1-4.9,3.89,19.06,19.06,0,0,1-7.78,1.44A17.68,17.68,0,0,1,667.09,603.07Z"/><path class="cls-25" d="M700,558.35a1.56,1.56,0,0,1-.43-1.15v-2.74a1.69,1.69,0,0,1,.43-1.19,1.49,1.49,0,0,1,1.15-.47h2.74a1.6,1.6,0,0,1,1.66,1.66v2.74a1.49,1.49,0,0,1-.47,1.15,1.68,1.68,0,0,1-1.19.43h-2.74A1.55,1.55,0,0,1,700,558.35Zm0.79,45.14a1.55,1.55,0,0,1-.43-1.15V568.07a1.49,1.49,0,0,1,1.58-1.58h1.22a1.49,1.49,0,0,1,1.58,1.58v34.27a1.49,1.49,0,0,1-1.58,1.58h-1.22A1.56,1.56,0,0,1,700.75,603.5Z"/><path class="cls-25" d="M723.22,600.73q-2.23-3.2-2.23-8.82V570.67h-5.62a1.49,1.49,0,0,1-1.58-1.58v-1a1.49,1.49,0,0,1,1.58-1.58H721v-12.1a1.49,1.49,0,0,1,1.58-1.58h1.22a1.49,1.49,0,0,1,1.58,1.58v12.1h8.93a1.49,1.49,0,0,1,1.58,1.58v1a1.49,1.49,0,0,1-1.58,1.58h-8.93v21a11.26,11.26,0,0,0,1.33,6.08,4.88,4.88,0,0,0,4.43,2.05H735a1.49,1.49,0,0,1,1.58,1.58v1a1.49,1.49,0,0,1-1.58,1.58h-4.25Q725.45,603.93,723.22,600.73Z"/><path class="cls-25" d="M748.7,600.15q-4.18-4.5-4.75-12.06l-0.07-2.88,0.07-2.88q0.58-7.49,4.72-12a14.24,14.24,0,0,1,11.05-4.54q7.49,0,11.7,5t4.21,13.61v1.08a1.49,1.49,0,0,1-.47,1.15A1.68,1.68,0,0,1,774,587H748.34v0.72a15.92,15.92,0,0,0,1.55,6.3,11.87,11.87,0,0,0,3.92,4.68,10,10,0,0,0,5.9,1.76,12,12,0,0,0,6.44-1.55,11.77,11.77,0,0,0,3.56-3.13,5.2,5.2,0,0,1,1-1.08,2.29,2.29,0,0,1,1.19-.22H773a1.63,1.63,0,0,1,1.08.36,1.16,1.16,0,0,1,.43.94q0,1.51-1.91,3.64a15.88,15.88,0,0,1-5.29,3.67,18.16,18.16,0,0,1-7.63,1.55A14.32,14.32,0,0,1,748.7,600.15ZM771.24,583v-0.29a13.43,13.43,0,0,0-3.13-9.14,10.56,10.56,0,0,0-8.39-3.6,10.34,10.34,0,0,0-8.32,3.6,13.62,13.62,0,0,0-3.06,9.14V583h22.9Z"/><path class="cls-25" d="M785.5,608.9a1.35,1.35,0,0,1-.14-1.08l1.37-8.64q0.22-1.94,1.8-1.94h3.24a1,1,0,0,1,.79.36,1.25,1.25,0,0,1,.29.79,3.19,3.19,0,0,1-.29,1.3l-3.1,8.14a3.58,3.58,0,0,1-.76,1.15,1.61,1.61,0,0,1-1.12.36h-1.22A1,1,0,0,1,785.5,608.9Z"/><path class="cls-25" d="M208.42,680.29q-4.1-4.35-4.32-12.2L204,665.21l0.07-2.88q0.22-7.85,4.32-12.2T220,645.77a17.8,17.8,0,0,1,8.1,1.69,12.25,12.25,0,0,1,5,4.32,11.18,11.18,0,0,1,1.8,5.44,1.27,1.27,0,0,1-.43,1.12,1.64,1.64,0,0,1-1.15.47h-1a1.43,1.43,0,0,1-1-.32,3.84,3.84,0,0,1-.68-1.19,10.91,10.91,0,0,0-4-5.65,11.76,11.76,0,0,0-6.55-1.69,11,11,0,0,0-8.24,3.13q-3.06,3.13-3.28,9.61l-0.07,2.52,0.07,2.52q0.22,6.48,3.28,9.61a11,11,0,0,0,8.24,3.13,11.75,11.75,0,0,0,6.55-1.69,10.9,10.9,0,0,0,4-5.65,3.84,3.84,0,0,1,.68-1.19,1.43,1.43,0,0,1,1-.32h1a1.65,1.65,0,0,1,1.15.47,1.27,1.27,0,0,1,.43,1.12,11.18,11.18,0,0,1-1.8,5.44,12.23,12.23,0,0,1-5,4.32,17.8,17.8,0,0,1-8.1,1.69Q212.53,684.65,208.42,680.29Z"/><path class="cls-25" d="M249.9,683.21a12.34,12.34,0,0,1-4.72-3.89,9,9,0,0,1-1.76-5.4,9.45,9.45,0,0,1,3.85-7.78,21,21,0,0,1,10.4-3.89L269,660.67v-2.52a7.68,7.68,0,0,0-2.41-6.08q-2.41-2.12-7.38-2.12a11.32,11.32,0,0,0-6,1.44,6.48,6.48,0,0,0-3,3.46,2.59,2.59,0,0,1-.68,1.19,1.6,1.6,0,0,1-1,.32h-1a1.6,1.6,0,0,1-1.58-1.58,6.93,6.93,0,0,1,1.44-3.71,11.92,11.92,0,0,1,4.46-3.71,15.83,15.83,0,0,1,7.42-1.58q7.7,0,10.94,3.67a13,13,0,0,1,3.24,8.93v24a1.49,1.49,0,0,1-1.58,1.58h-1.22a1.49,1.49,0,0,1-1.58-1.58V679a12.67,12.67,0,0,1-4.64,4,17,17,0,0,1-8.1,1.66A14.42,14.42,0,0,1,249.9,683.21ZM265.66,677q3.38-3.46,3.38-9.94v-2.45l-9.29,1.3q-5.9.79-8.93,2.74a5.77,5.77,0,0,0-.25,10A12.49,12.49,0,0,0,265.66,677Z"/><path class="cls-25" d="M287.12,683.5a1.55,1.55,0,0,1-.43-1.15v-48a1.49,1.49,0,0,1,1.58-1.58h1.22a1.49,1.49,0,0,1,1.58,1.58v48a1.49,1.49,0,0,1-1.58,1.58h-1.22A1.56,1.56,0,0,1,287.12,683.5Z"/><path class="cls-25" d="M305.12,683.5a1.55,1.55,0,0,1-.43-1.15v-48a1.49,1.49,0,0,1,1.58-1.58h1.22a1.49,1.49,0,0,1,1.58,1.58v48a1.49,1.49,0,0,1-1.58,1.58h-1.22A1.56,1.56,0,0,1,305.12,683.5Z"/><path class="cls-25" d="M345.58,680.29q-4.1-4.35-4.32-12.2l-0.07-2.88,0.07-2.88q0.22-7.85,4.32-12.2t11.59-4.36a17.8,17.8,0,0,1,8.1,1.69,12.25,12.25,0,0,1,5,4.32,11.18,11.18,0,0,1,1.8,5.44,1.27,1.27,0,0,1-.43,1.12,1.64,1.64,0,0,1-1.15.47h-1a1.43,1.43,0,0,1-1-.32,3.84,3.84,0,0,1-.68-1.19,10.91,10.91,0,0,0-4-5.65,11.76,11.76,0,0,0-6.55-1.69,11,11,0,0,0-8.24,3.13q-3.06,3.13-3.28,9.61l-0.07,2.52,0.07,2.52q0.22,6.48,3.28,9.61a11,11,0,0,0,8.24,3.13,11.75,11.75,0,0,0,6.55-1.69,10.9,10.9,0,0,0,4-5.65,3.84,3.84,0,0,1,.68-1.19,1.43,1.43,0,0,1,1-.32h1a1.65,1.65,0,0,1,1.15.47,1.27,1.27,0,0,1,.43,1.12,11.18,11.18,0,0,1-1.8,5.44,12.23,12.23,0,0,1-5,4.32,17.8,17.8,0,0,1-8.1,1.69Q349.68,684.65,345.58,680.29Z"/><path class="cls-25" d="M386.26,680.15q-4.18-4.5-4.75-12.06l-0.07-2.88,0.07-2.88q0.58-7.49,4.72-12a14.24,14.24,0,0,1,11.05-4.54q7.49,0,11.7,5t4.21,13.61v1.08a1.49,1.49,0,0,1-.47,1.15,1.68,1.68,0,0,1-1.19.43H385.9v0.72a15.92,15.92,0,0,0,1.55,6.3,11.87,11.87,0,0,0,3.92,4.68,10,10,0,0,0,5.9,1.76,12,12,0,0,0,6.44-1.55,11.77,11.77,0,0,0,3.56-3.13,5.2,5.2,0,0,1,1-1.08,2.29,2.29,0,0,1,1.19-.22h1.15a1.63,1.63,0,0,1,1.08.36,1.16,1.16,0,0,1,.43.94q0,1.51-1.91,3.64a15.88,15.88,0,0,1-5.29,3.67,18.16,18.16,0,0,1-7.63,1.55A14.32,14.32,0,0,1,386.26,680.15ZM408.8,663v-0.29a13.43,13.43,0,0,0-3.13-9.14,10.56,10.56,0,0,0-8.39-3.6,10.34,10.34,0,0,0-8.32,3.6,13.62,13.62,0,0,0-3.06,9.14V663h22.9Z"/><path class="cls-25" d="M424.92,683.5a1.55,1.55,0,0,1-.43-1.15V648.07a1.49,1.49,0,0,1,1.58-1.58h1.22a1.49,1.49,0,0,1,1.58,1.58v3.38a14.92,14.92,0,0,1,4.93-4.25,15.53,15.53,0,0,1,7.16-1.44q7.06,0,10.87,4.5t3.82,11.63v20.45a1.49,1.49,0,0,1-1.58,1.58h-1.22a1.49,1.49,0,0,1-1.58-1.58V662.26q0-5.83-2.84-9.07t-8.17-3.24a10.86,10.86,0,0,0-8.28,3.28q-3.1,3.28-3.1,9v20.09a1.49,1.49,0,0,1-1.58,1.58h-1.22A1.56,1.56,0,0,1,424.92,683.5Z"/><path class="cls-25" d="M473.24,680.73q-2.23-3.2-2.23-8.82V650.67h-5.62a1.49,1.49,0,0,1-1.58-1.58v-1a1.49,1.49,0,0,1,1.58-1.58H471v-12.1a1.49,1.49,0,0,1,1.58-1.58h1.22a1.49,1.49,0,0,1,1.58,1.58v12.1h8.93a1.49,1.49,0,0,1,1.58,1.58v1a1.49,1.49,0,0,1-1.58,1.58H475.4v21a11.26,11.26,0,0,0,1.33,6.08,4.88,4.88,0,0,0,4.43,2.05H485a1.49,1.49,0,0,1,1.58,1.58v1a1.49,1.49,0,0,1-1.58,1.58H480.8Q475.47,683.93,473.24,680.73Z"/><path class="cls-25" d="M498.72,680.15q-4.18-4.5-4.75-12.06l-0.07-2.88,0.07-2.88q0.58-7.49,4.72-12a14.24,14.24,0,0,1,11.05-4.54q7.49,0,11.7,5t4.21,13.61v1.08a1.49,1.49,0,0,1-.47,1.15A1.68,1.68,0,0,1,524,667H498.36v0.72a15.92,15.92,0,0,0,1.55,6.3,11.87,11.87,0,0,0,3.92,4.68,10,10,0,0,0,5.9,1.76,12,12,0,0,0,6.44-1.55,11.77,11.77,0,0,0,3.56-3.13,5.2,5.2,0,0,1,1-1.08,2.29,2.29,0,0,1,1.19-.22h1.15a1.63,1.63,0,0,1,1.08.36,1.16,1.16,0,0,1,.43.94q0,1.51-1.91,3.64a15.88,15.88,0,0,1-5.29,3.67,18.16,18.16,0,0,1-7.63,1.55A14.32,14.32,0,0,1,498.72,680.15ZM521.26,663v-0.29a13.43,13.43,0,0,0-3.13-9.14,10.56,10.56,0,0,0-8.39-3.6,10.34,10.34,0,0,0-8.32,3.6,13.62,13.62,0,0,0-3.06,9.14V663h22.9Z"/><path class="cls-25" d="M537.39,683.5a1.55,1.55,0,0,1-.43-1.15v-34.2a1.69,1.69,0,0,1,.43-1.19,1.49,1.49,0,0,1,1.15-.47h1.15a1.6,1.6,0,0,1,1.66,1.66v3.31q2.59-5,9.79-5h2.66a1.49,1.49,0,0,1,1.58,1.58v1a1.49,1.49,0,0,1-1.58,1.58h-3.1a8.7,8.7,0,0,0-9.36,9.36v22.32a1.49,1.49,0,0,1-.47,1.15,1.68,1.68,0,0,1-1.19.43h-1.15A1.56,1.56,0,0,1,537.39,683.5Z"/><path class="cls-25" d="M586.13,683.21a12.34,12.34,0,0,1-4.72-3.89,9,9,0,0,1-1.76-5.4,9.45,9.45,0,0,1,3.85-7.78,21,21,0,0,1,10.4-3.89l11.38-1.58v-2.52a7.68,7.68,0,0,0-2.41-6.08q-2.41-2.12-7.38-2.12a11.32,11.32,0,0,0-6,1.44,6.48,6.48,0,0,0-3,3.46,2.59,2.59,0,0,1-.68,1.19,1.6,1.6,0,0,1-1,.32h-1a1.6,1.6,0,0,1-1.58-1.58,6.93,6.93,0,0,1,1.44-3.71,11.92,11.92,0,0,1,4.46-3.71,15.83,15.83,0,0,1,7.42-1.58q7.7,0,10.94,3.67a13,13,0,0,1,3.24,8.93v24a1.49,1.49,0,0,1-1.58,1.58h-1.22a1.49,1.49,0,0,1-1.58-1.58V679a12.67,12.67,0,0,1-4.64,4,17,17,0,0,1-8.1,1.66A14.42,14.42,0,0,1,586.13,683.21ZM601.9,677q3.38-3.46,3.38-9.94v-2.45l-9.29,1.3q-5.9.79-8.93,2.74a5.77,5.77,0,0,0-.25,10A12.49,12.49,0,0,0,601.9,677Z"/><path class="cls-25" d="M623.28,683.5a1.55,1.55,0,0,1-.43-1.15V648.07a1.49,1.49,0,0,1,1.58-1.58h1.22a1.49,1.49,0,0,1,1.58,1.58v3.38a14.92,14.92,0,0,1,4.93-4.25,15.53,15.53,0,0,1,7.16-1.44q7.06,0,10.87,4.5T654,661.9v20.45a1.49,1.49,0,0,1-1.58,1.58h-1.22a1.49,1.49,0,0,1-1.58-1.58V662.26q0-5.83-2.84-9.07t-8.17-3.24a10.86,10.86,0,0,0-8.28,3.28q-3.1,3.28-3.1,9v20.09a1.49,1.49,0,0,1-1.58,1.58h-1.22A1.56,1.56,0,0,1,623.28,683.5Z"/><path class="cls-25" d="M669.18,679.57a21.48,21.48,0,0,1-3.92-12.35l-0.07-2,0.07-2a21.48,21.48,0,0,1,3.92-12.35q3.71-5.08,11.48-5.08t12.1,5.69V634.39a1.49,1.49,0,0,1,1.58-1.58h1.22a1.49,1.49,0,0,1,1.58,1.58v48a1.49,1.49,0,0,1-1.58,1.58h-1.22a1.49,1.49,0,0,1-1.58-1.58V679q-4.18,5.69-12.1,5.69T669.18,679.57Zm20.48-2.88a15.37,15.37,0,0,0,3.1-8.89q0.07-.72.07-2.81t-0.07-2.81a14.52,14.52,0,0,0-1.37-5.87,11.35,11.35,0,0,0-3.89-4.57,11,11,0,0,0-6.41-1.8q-5.83,0-8.53,3.71a16.91,16.91,0,0,0-2.92,9.54l-0.07,2a21,21,0,0,0,2.59,11q2.59,4.28,8.93,4.28Q686.79,680.47,689.67,676.69Z"/><path class="cls-25" d="M207.88,759.57A21.48,21.48,0,0,1,204,747.23l-0.07-2,0.07-2a21.48,21.48,0,0,1,3.92-12.35q3.71-5.08,11.48-5.08t12.1,5.69V714.39a1.49,1.49,0,0,1,1.58-1.58h1.22a1.49,1.49,0,0,1,1.58,1.58v48a1.49,1.49,0,0,1-1.58,1.58H233a1.49,1.49,0,0,1-1.58-1.58V759q-4.18,5.69-12.1,5.69T207.88,759.57Zm20.48-2.88a15.37,15.37,0,0,0,3.1-8.89q0.07-.72.07-2.81t-0.07-2.81a14.52,14.52,0,0,0-1.37-5.87,11.35,11.35,0,0,0-3.89-4.57,11,11,0,0,0-6.41-1.8q-5.83,0-8.53,3.71a16.91,16.91,0,0,0-2.92,9.54l-0.07,2a21,21,0,0,0,2.59,11q2.59,4.28,8.93,4.28Q225.49,760.47,228.37,756.69Z"/><path class="cls-25" d="M249,718.35a1.56,1.56,0,0,1-.43-1.15v-2.74a1.69,1.69,0,0,1,.43-1.19,1.49,1.49,0,0,1,1.15-.47h2.74a1.6,1.6,0,0,1,1.66,1.66v2.74a1.49,1.49,0,0,1-.47,1.15,1.68,1.68,0,0,1-1.19.43h-2.74A1.55,1.55,0,0,1,249,718.35Zm0.79,45.14a1.55,1.55,0,0,1-.43-1.15V728.07a1.49,1.49,0,0,1,1.58-1.58h1.22a1.49,1.49,0,0,1,1.58,1.58v34.27a1.49,1.49,0,0,1-1.58,1.58H251A1.56,1.56,0,0,1,249.82,763.5Z"/><path class="cls-25" d="M272.21,777.83a11.77,11.77,0,0,1-4.72-4.43,9.5,9.5,0,0,1-1.33-4.36,1.4,1.4,0,0,1,.47-1.08,1.59,1.59,0,0,1,1.12-.43h1a1.6,1.6,0,0,1,1,.32,2.59,2.59,0,0,1,.68,1.19q2.23,6.55,10.37,6.55,6.19,0,9.14-2.56t3-9.11v-5q-4.18,5.69-12.1,5.69t-11.48-5.08a21.48,21.48,0,0,1-3.92-12.35l-0.07-2,0.07-2a21.48,21.48,0,0,1,3.92-12.35q3.71-5.08,11.48-5.08t12.1,5.69v-3.31a1.69,1.69,0,0,1,.43-1.19,1.49,1.49,0,0,1,1.15-.47h1.15a1.6,1.6,0,0,1,1.66,1.66v35.06q0,7.7-3.6,12.13t-12.53,4.43A18,18,0,0,1,272.21,777.83Zm17.64-21.13a15.37,15.37,0,0,0,3.1-8.89q0.07-.72.07-2.59T293,742.62a15.37,15.37,0,0,0-3.1-8.89q-2.88-3.78-8.57-3.78t-8.53,3.71a16.92,16.92,0,0,0-2.92,9.54l-0.07,2,0.07,2a16.91,16.91,0,0,0,2.92,9.54q2.7,3.71,8.53,3.71T289.85,756.69Z"/><path class="cls-25" d="M310.52,718.35a1.56,1.56,0,0,1-.43-1.15v-2.74a1.69,1.69,0,0,1,.43-1.19,1.49,1.49,0,0,1,1.15-.47h2.74a1.6,1.6,0,0,1,1.66,1.66v2.74a1.49,1.49,0,0,1-.47,1.15,1.68,1.68,0,0,1-1.19.43h-2.74A1.55,1.55,0,0,1,310.52,718.35Zm0.79,45.14a1.55,1.55,0,0,1-.43-1.15V728.07a1.49,1.49,0,0,1,1.58-1.58h1.22a1.49,1.49,0,0,1,1.58,1.58v34.27a1.49,1.49,0,0,1-1.58,1.58h-1.22A1.56,1.56,0,0,1,311.31,763.5Z"/><path class="cls-25" d="M333.77,760.73q-2.23-3.2-2.23-8.82V730.67h-5.62a1.49,1.49,0,0,1-1.58-1.58v-1a1.49,1.49,0,0,1,1.58-1.58h5.62v-12.1a1.49,1.49,0,0,1,1.58-1.58h1.22a1.49,1.49,0,0,1,1.58,1.58v12.1h8.93a1.49,1.49,0,0,1,1.58,1.58v1a1.49,1.49,0,0,1-1.58,1.58h-8.93v21a11.26,11.26,0,0,0,1.33,6.08,4.88,4.88,0,0,0,4.43,2.05h3.89a1.49,1.49,0,0,1,1.58,1.58v1a1.49,1.49,0,0,1-1.58,1.58h-4.25Q336,763.93,333.77,760.73Z"/><path class="cls-25" d="M360.05,763.21a12.34,12.34,0,0,1-4.72-3.89,9,9,0,0,1-1.76-5.4,9.45,9.45,0,0,1,3.85-7.78,21,21,0,0,1,10.4-3.89l11.38-1.58v-2.52a7.68,7.68,0,0,0-2.41-6.08q-2.41-2.12-7.38-2.12a11.32,11.32,0,0,0-6,1.44,6.48,6.48,0,0,0-3,3.46,2.59,2.59,0,0,1-.68,1.19,1.6,1.6,0,0,1-1,.32h-1a1.6,1.6,0,0,1-1.58-1.58,6.93,6.93,0,0,1,1.44-3.71,11.92,11.92,0,0,1,4.46-3.71,15.83,15.83,0,0,1,7.42-1.58q7.7,0,10.94,3.67a13,13,0,0,1,3.24,8.93v24a1.49,1.49,0,0,1-1.58,1.58h-1.22a1.49,1.49,0,0,1-1.58-1.58V759a12.67,12.67,0,0,1-4.64,4,17,17,0,0,1-8.1,1.66A14.42,14.42,0,0,1,360.05,763.21ZM375.82,757q3.38-3.46,3.38-9.94v-2.45l-9.29,1.3q-5.9.79-8.93,2.74a5.77,5.77,0,0,0-.25,10A12.49,12.49,0,0,0,375.82,757Z"/><path class="cls-25" d="M397.28,763.5a1.55,1.55,0,0,1-.43-1.15v-48a1.49,1.49,0,0,1,1.58-1.58h1.22a1.49,1.49,0,0,1,1.58,1.58v48a1.49,1.49,0,0,1-1.58,1.58h-1.22A1.56,1.56,0,0,1,397.28,763.5Z"/><path class="cls-25" d="M435.58,763.5a1.55,1.55,0,0,1-.43-1.15V728.07a1.49,1.49,0,0,1,1.58-1.58H438a1.49,1.49,0,0,1,1.58,1.58v2.52a12.66,12.66,0,0,1,4.36-3.6,13.32,13.32,0,0,1,5.94-1.22q8.06,0,11.52,6.77a12.81,12.81,0,0,1,4.93-4.93,14.43,14.43,0,0,1,7.31-1.84,12.6,12.6,0,0,1,9.72,4.07q3.74,4.07,3.74,11.56v21a1.49,1.49,0,0,1-1.58,1.58h-1.22a1.49,1.49,0,0,1-1.58-1.58V742.11q0-6.55-2.7-9.36a9.39,9.39,0,0,0-7.09-2.81,9.2,9.2,0,0,0-6.73,2.84q-2.85,2.85-2.84,9.32v20.23a1.49,1.49,0,0,1-1.58,1.58h-1.22a1.49,1.49,0,0,1-1.58-1.58V742.11q0-6.48-2.81-9.32a9.42,9.42,0,0,0-7-2.84,9.2,9.2,0,0,0-6.73,2.84q-2.84,2.85-2.84,9.25v20.3a1.49,1.49,0,0,1-1.58,1.58h-1.22A1.56,1.56,0,0,1,435.58,763.5Z"/><path class="cls-25" d="M503.83,763.21a12.34,12.34,0,0,1-4.72-3.89,9,9,0,0,1-1.76-5.4,9.45,9.45,0,0,1,3.85-7.78,21,21,0,0,1,10.4-3.89L523,740.67v-2.52a7.68,7.68,0,0,0-2.41-6.08q-2.41-2.12-7.38-2.12a11.32,11.32,0,0,0-6,1.44,6.48,6.48,0,0,0-3,3.46,2.59,2.59,0,0,1-.68,1.19,1.6,1.6,0,0,1-1,.32h-1a1.6,1.6,0,0,1-1.58-1.58,6.93,6.93,0,0,1,1.44-3.71,11.92,11.92,0,0,1,4.46-3.71,15.83,15.83,0,0,1,7.42-1.58q7.7,0,10.94,3.67a13,13,0,0,1,3.24,8.93v24a1.49,1.49,0,0,1-1.58,1.58h-1.22a1.49,1.49,0,0,1-1.58-1.58V759a12.67,12.67,0,0,1-4.64,4,17,17,0,0,1-8.1,1.66A14.42,14.42,0,0,1,503.83,763.21ZM519.6,757q3.38-3.46,3.38-9.94v-2.45l-9.29,1.3q-5.9.79-8.93,2.74a5.77,5.77,0,0,0-.25,10A12.49,12.49,0,0,0,519.6,757Z"/><path class="cls-25" d="M541,763.5a1.55,1.55,0,0,1-.43-1.15v-34.2A1.69,1.69,0,0,1,541,727a1.49,1.49,0,0,1,1.15-.47h1.15a1.6,1.6,0,0,1,1.66,1.66v3.31q2.59-5,9.79-5h2.66a1.49,1.49,0,0,1,1.58,1.58v1a1.49,1.49,0,0,1-1.58,1.58h-3.1a8.7,8.7,0,0,0-9.36,9.36v22.32a1.49,1.49,0,0,1-.47,1.15,1.68,1.68,0,0,1-1.19.43h-1.15A1.56,1.56,0,0,1,541,763.5Z"/><path class="cls-25" d="M567.91,763.5a1.55,1.55,0,0,1-.43-1.15v-48a1.49,1.49,0,0,1,1.58-1.58h1.22a1.49,1.49,0,0,1,1.58,1.58v25.49l16.06-12.17a9.58,9.58,0,0,1,1.58-1,4.08,4.08,0,0,1,1.44-.18h1.37a1.36,1.36,0,0,1,1.44,1.44,1.8,1.8,0,0,1-.94,1.44l-18.22,13.82,20,17.86a2.32,2.32,0,0,1,.94,1.44,1.36,1.36,0,0,1-1.44,1.44H593a3.32,3.32,0,0,1-3-1.22l-18.07-16.06v15.7a1.49,1.49,0,0,1-1.58,1.58h-1.22A1.56,1.56,0,0,1,567.91,763.5Z"/><path class="cls-25" d="M605.35,760.15q-4.18-4.5-4.75-12.06l-0.07-2.88,0.07-2.88q0.58-7.49,4.72-12a14.24,14.24,0,0,1,11.05-4.54q7.49,0,11.7,5t4.21,13.61v1.08a1.49,1.49,0,0,1-.47,1.15,1.68,1.68,0,0,1-1.19.43H605v0.72a15.92,15.92,0,0,0,1.55,6.3,11.87,11.87,0,0,0,3.92,4.68,10,10,0,0,0,5.9,1.76,12,12,0,0,0,6.44-1.55,11.77,11.77,0,0,0,3.56-3.13,5.2,5.2,0,0,1,1-1.08,2.29,2.29,0,0,1,1.19-.22h1.15a1.63,1.63,0,0,1,1.08.36,1.16,1.16,0,0,1,.43.94q0,1.51-1.91,3.64A15.88,15.88,0,0,1,624,763.1a18.16,18.16,0,0,1-7.63,1.55A14.32,14.32,0,0,1,605.35,760.15ZM627.89,743v-0.29a13.43,13.43,0,0,0-3.13-9.14,10.56,10.56,0,0,0-8.39-3.6,10.34,10.34,0,0,0-8.32,3.6,13.62,13.62,0,0,0-3.06,9.14V743h22.9Z"/><path class="cls-25" d="M648.34,760.73q-2.23-3.2-2.23-8.82V730.67h-5.62a1.49,1.49,0,0,1-1.58-1.58v-1a1.49,1.49,0,0,1,1.58-1.58h5.62v-12.1a1.49,1.49,0,0,1,1.58-1.58h1.22a1.49,1.49,0,0,1,1.58,1.58v12.1h8.93a1.49,1.49,0,0,1,1.58,1.58v1a1.49,1.49,0,0,1-1.58,1.58H650.5v21a11.26,11.26,0,0,0,1.33,6.08,4.88,4.88,0,0,0,4.43,2.05h3.89a1.49,1.49,0,0,1,1.58,1.58v1a1.49,1.49,0,0,1-1.58,1.58H655.9Q650.57,763.93,648.34,760.73Z"/><path class="cls-25" d="M670.59,718.35a1.56,1.56,0,0,1-.43-1.15v-2.74a1.69,1.69,0,0,1,.43-1.19,1.49,1.49,0,0,1,1.15-.47h2.74a1.6,1.6,0,0,1,1.66,1.66v2.74a1.49,1.49,0,0,1-.47,1.15,1.68,1.68,0,0,1-1.19.43h-2.74A1.55,1.55,0,0,1,670.59,718.35Zm0.79,45.14a1.55,1.55,0,0,1-.43-1.15V728.07a1.49,1.49,0,0,1,1.58-1.58h1.22a1.49,1.49,0,0,1,1.58,1.58v34.27a1.49,1.49,0,0,1-1.58,1.58h-1.22A1.56,1.56,0,0,1,671.38,763.5Z"/><path class="cls-25" d="M689.23,763.5a1.55,1.55,0,0,1-.43-1.15V728.07a1.49,1.49,0,0,1,1.58-1.58h1.22a1.49,1.49,0,0,1,1.58,1.58v3.38a14.92,14.92,0,0,1,4.93-4.25,15.53,15.53,0,0,1,7.16-1.44q7.06,0,10.87,4.5T720,741.9v20.45a1.49,1.49,0,0,1-1.58,1.58h-1.22a1.49,1.49,0,0,1-1.58-1.58V742.26q0-5.83-2.84-9.07t-8.17-3.24a10.86,10.86,0,0,0-8.28,3.28q-3.1,3.28-3.1,9v20.09a1.49,1.49,0,0,1-1.58,1.58h-1.22A1.56,1.56,0,0,1,689.23,763.5Z"/><path class="cls-25" d="M738,777.83a11.77,11.77,0,0,1-4.72-4.43A9.5,9.5,0,0,1,732,769a1.4,1.4,0,0,1,.47-1.08,1.59,1.59,0,0,1,1.12-.43h1a1.6,1.6,0,0,1,1,.32,2.59,2.59,0,0,1,.68,1.19q2.23,6.55,10.37,6.55,6.19,0,9.14-2.56t3-9.11v-5q-4.18,5.69-12.1,5.69t-11.48-5.08a21.48,21.48,0,0,1-3.92-12.35l-0.07-2,0.07-2a21.48,21.48,0,0,1,3.92-12.35q3.71-5.08,11.48-5.08t12.1,5.69v-3.31a1.69,1.69,0,0,1,.43-1.19,1.49,1.49,0,0,1,1.15-.47h1.15a1.6,1.6,0,0,1,1.66,1.66v35.06q0,7.7-3.6,12.13T747,779.77A18,18,0,0,1,738,777.83Zm17.64-21.13a15.37,15.37,0,0,0,3.1-8.89q0.07-.72.07-2.59t-0.07-2.59a15.37,15.37,0,0,0-3.1-8.89q-2.88-3.78-8.57-3.78t-8.53,3.71a16.92,16.92,0,0,0-2.92,9.54l-0.07,2,0.07,2a16.91,16.91,0,0,0,2.92,9.54q2.7,3.71,8.53,3.71T755.69,756.69Z"/><path class="cls-25" d="M776.57,763.5a1.55,1.55,0,0,1-.43-1.15v-3.46a1.69,1.69,0,0,1,.43-1.19,1.49,1.49,0,0,1,1.15-.47h3.46a1.6,1.6,0,0,1,1.66,1.66v3.46a1.49,1.49,0,0,1-.47,1.15,1.68,1.68,0,0,1-1.19.43h-3.46A1.56,1.56,0,0,1,776.57,763.5Z"/></svg>