<svg xmlns="http://www.w3.org/2000/svg" viewBox="0 0 210 210"><defs><style>.cls-1{isolation:isolate;}.cls-2,.cls-6{mix-blend-mode:screen;}.cls-3,.cls-4,.cls-5,.cls-6{fill:none;}.cls-4,.cls-6{stroke:#c9abdd;}.cls-4,.cls-5,.cls-6{stroke-linecap:round;stroke-linejoin:round;}.cls-5{stroke:#bb73fc;}</style></defs><title>Snowplow_Website-Company_Icon_Ownership</title><g class="cls-1"><g id="Layer_1" data-name="Layer 1"><g class="cls-2"><path class="cls-3" d="M147.86,191.6a13.72,13.72,0,0,0,10.71-6.19l42.86-74.23a13.72,13.72,0,0,0,0-12.37L158.57,24.58a13.72,13.72,0,0,0-10.71-6.19H62.14a13.72,13.72,0,0,0-10.71,6.19L8.57,98.81a13.72,13.72,0,0,0,0,12.37l42.86,74.24a13.72,13.72,0,0,0,10.71,6.19h85.71Z"/></g><polygon class="cls-4" points="125 139.64 145 105 125 70.36 85 70.36 65 105 85 139.64 125 139.64"/><path class="cls-5" d="M34.58,53.16A1.78,1.78,0,0,1,36,54l1.89,3.27a1.78,1.78,0,0,1,0,1.6L36,62.09a1.78,1.78,0,0,1-1.39.8H30.8a1.78,1.78,0,0,1-1.39-.8l-1.89-3.27a1.78,1.78,0,0,1,0-1.6L29.41,54a1.78,1.78,0,0,1,1.39-.8h3.77Z"/><path class="cls-5" d="M39.09,9.32a0.73,0.73,0,0,1,.57.33L40.43,11a0.73,0.73,0,0,1,0,.66L39.66,13a0.73,0.73,0,0,1-.57.33H37.54A0.73,0.73,0,0,1,37,13l-0.78-1.34a0.73,0.73,0,0,1,0-.66L37,9.65a0.73,0.73,0,0,1,.57-0.33h1.55Z"/><path class="cls-5" d="M149,39.69a0.73,0.73,0,0,1,.57.33l0.78,1.34a0.73,0.73,0,0,1,0,.66l-0.78,1.34a0.73,0.73,0,0,1-.57.33h-1.55a0.73,0.73,0,0,1-.57-0.33L146.07,42a0.73,0.73,0,0,1,0-.66L146.84,40a0.73,0.73,0,0,1,.57-0.33H149Z"/><path class="cls-5" d="M71.4,200.5a0.73,0.73,0,0,1,.57.33l0.78,1.34a0.73,0.73,0,0,1,0,.66L72,204.17a0.73,0.73,0,0,1-.57.33H69.85a0.73,0.73,0,0,1-.57-0.33l-0.78-1.34a0.73,0.73,0,0,1,0-.66l0.78-1.34a0.73,0.73,0,0,1,.57-0.33H71.4Z"/><path class="cls-5" d="M149,146.3a0.73,0.73,0,0,1,.57.33l0.78,1.34a0.73,0.73,0,0,1,0,.66L149.53,150a0.73,0.73,0,0,1-.57.33h-1.55a0.73,0.73,0,0,1-.57-0.33l-0.78-1.34a0.73,0.73,0,0,1,0-.66l0.78-1.34a0.73,0.73,0,0,1,.57-0.33H149Z"/><path class="cls-5" d="M161.58,126.47a1.78,1.78,0,0,1,1.39.8l1.89,3.27a1.78,1.78,0,0,1,0,1.6L163,135.41a1.78,1.78,0,0,1-1.39.8H157.8a1.78,1.78,0,0,1-1.39-.8l-1.89-3.27a1.78,1.78,0,0,1,0-1.6l1.89-3.27a1.78,1.78,0,0,1,1.39-.8h3.77Z"/><path class="cls-5" d="M168.06,164.53a2.59,2.59,0,0,1,2,1.17l2.75,4.76a2.59,2.59,0,0,1,0,2.33l-2.75,4.76a2.59,2.59,0,0,1-2,1.17h-5.5a2.59,2.59,0,0,1-2-1.17l-2.75-4.76a2.59,2.59,0,0,1,0-2.33l2.75-4.76a2.59,2.59,0,0,1,2-1.17h5.5Z"/><path class="cls-5" d="M115.94,11.33a2.59,2.59,0,0,1,2,1.17l2.75,4.76a2.59,2.59,0,0,1,0,2.33L118,24.34a2.59,2.59,0,0,1-2,1.17h-5.5a2.59,2.59,0,0,1-2-1.17l-2.75-4.76a2.59,2.59,0,0,1,0-2.33l2.75-4.76a2.59,2.59,0,0,1,2-1.17h5.5Z"/><path class="cls-5" d="M19.65,119.38a2.59,2.59,0,0,1,2,1.17l2.75,4.76a2.59,2.59,0,0,1,0,2.33l-2.75,4.76a2.59,2.59,0,0,1-2,1.17h-5.5a2.59,2.59,0,0,1-2-1.17l-2.75-4.76a2.59,2.59,0,0,1,0-2.33l2.75-4.76a2.59,2.59,0,0,1,2-1.17h5.5Z"/><path class="cls-5" d="M164.32,66.7a4.36,4.36,0,0,1,3.41,2l4.64,8a4.36,4.36,0,0,1,0,3.93l-4.63,8a4.36,4.36,0,0,1-3.41,2h-9.27a4.36,4.36,0,0,1-3.41-2l-4.63-8a4.36,4.36,0,0,1,0-3.93l4.64-8a4.36,4.36,0,0,1,3.41-2h9.27Z"/><path class="cls-5" d="M89.07,58a4.36,4.36,0,0,1,3.41,2l4.64,8a4.36,4.36,0,0,1,0,3.93l-4.63,8a4.36,4.36,0,0,1-3.41,2H79.8a4.36,4.36,0,0,1-3.41-2l-4.63-8a4.36,4.36,0,0,1,0-3.93l4.64-8a4.36,4.36,0,0,1,3.41-2h9.27Z"/><path class="cls-5" d="M104,152.57a4.36,4.36,0,0,1,3.41,2l4.64,8a4.36,4.36,0,0,1,0,3.93l-4.63,8a4.36,4.36,0,0,1-3.41,2H94.74a4.36,4.36,0,0,1-3.41-2l-4.63-8a4.36,4.36,0,0,1,0-3.93l4.64-8a4.36,4.36,0,0,1,3.41-2H104Z"/><path class="cls-5" d="M66.89,134.77a1.78,1.78,0,0,1,1.39.8l1.89,3.27a1.78,1.78,0,0,1,0,1.6l-1.89,3.27a1.78,1.78,0,0,1-1.39.8H63.11a1.78,1.78,0,0,1-1.39-.8l-1.89-3.27a1.78,1.78,0,0,1,0-1.6l1.89-3.27a1.78,1.78,0,0,1,1.39-.8h3.77Z"/><g class="cls-2"><polyline class="cls-6" points="145 105 195.24 18.39 175.24 -16.25 135.24 -16.25 85 70.36"/><polyline class="cls-4" points="145 105 195.24 191.6 175.24 226.24 135.24 226.24 85 139.64"/><polyline class="cls-6" points="85 70.35 -15 70.35 -35 105 -15 139.64 85 139.64"/></g></g></g></svg>