<svg id="Layer_3" data-name="Layer 3" xmlns="http://www.w3.org/2000/svg" xmlns:xlink="http://www.w3.org/1999/xlink" viewBox="0 0 1920 1080"><defs><style>.cls-1,.cls-10,.cls-13,.cls-14,.cls-16,.cls-19,.cls-20,.cls-21,.cls-23,.cls-24,.cls-6,.cls-7,.cls-9{fill:none;}.cls-1,.cls-12,.cls-13,.cls-16,.cls-18,.cls-19,.cls-20,.cls-23,.cls-24,.cls-3,.cls-6,.cls-7,.cls-9{stroke:#5b0098;}.cls-1{stroke-miterlimit:10;}.cls-12,.cls-17,.cls-18,.cls-2,.cls-3{fill:#fcfdff;}.cls-10,.cls-12,.cls-13,.cls-14,.cls-16,.cls-17,.cls-18,.cls-19,.cls-20,.cls-21,.cls-23,.cls-24,.cls-3,.cls-6,.cls-7,.cls-9{stroke-linecap:round;stroke-linejoin:round;}.cls-10,.cls-3,.cls-9{stroke-width:3.43px;}.cls-4{opacity:0.5;}.cls-5{fill:#5b0098;}.cls-6{stroke-width:2.02px;stroke-dasharray:80 80 10 30 20 35;}.cls-7{stroke-width:6.35px;}.cls-8{fill:#f8f1ff;}.cls-10,.cls-14,.cls-17,.cls-21{stroke:#bb73fc;}.cls-11{fill:#bb73fc;}.cls-12,.cls-13,.cls-14,.cls-17{stroke-width:3.21px;}.cls-15{opacity:0.75;}.cls-16{stroke-width:1.54px;}.cls-18,.cls-19,.cls-20,.cls-21{stroke-width:3.14px;}.cls-20{stroke-dasharray:0 7.99 0 0 0 0;}.cls-22{clip-path:url(#clip-path);}.cls-23{stroke-width:4.26px;}.cls-24{stroke-width:4.43px;}</style><clipPath id="clip-path"><path class="cls-1" d="M930.79,479.34a11.12,11.12,0,0,0-8.66,5L892.91,535a11.1,11.1,0,0,0,0,10l29.22,50.64a11.12,11.12,0,0,0,8.66,5h58.43a11.12,11.12,0,0,0,8.66-5L1027.09,545a11.1,11.1,0,0,0,0-10l-29.21-50.63a11.12,11.12,0,0,0-8.66-5H930.79Z"/></clipPath></defs><title>Snowplow_Website-Infographics_Cases_SimplyBusiness_Img1</title><rect class="cls-2" width="1920" height="1080"/><line class="cls-3" x1="1100.48" y1="297" x2="1045.9" y2="390.92"/><line class="cls-3" x1="765.3" y1="417.97" x2="831.43" y2="457.28"/><g class="cls-4"><path class="cls-5" d="M866.23,951.07a12.27,12.27,0,0,0,9.58-5.53l14.25-24.68a12.27,12.27,0,0,0,0-11.06l-14.25-24.68a12.27,12.27,0,0,0-9.58-5.53h-28.5a12.27,12.27,0,0,0-9.58,5.53L813.9,909.79a12.27,12.27,0,0,0,0,11.06l14.25,24.68a12.27,12.27,0,0,0,9.58,5.53h28.5Z"/></g><g class="cls-4"><path class="cls-5" d="M637.36,312.34a12.27,12.27,0,0,0,9.58-5.53l14.25-24.68a12.27,12.27,0,0,0,0-11.06l-14.25-24.68a12.27,12.27,0,0,0-9.58-5.53h-28.5a12.27,12.27,0,0,0-9.58,5.53L585,271.06a12.27,12.27,0,0,0,0,11.06l14.25,24.68a12.27,12.27,0,0,0,9.58,5.53h28.5Z"/></g><path class="cls-5" d="M1159.21,749.06a3.61,3.61,0,0,0-2.82,1.63L1152.2,758a3.61,3.61,0,0,0,0,3.25l4.19,7.25a3.61,3.61,0,0,0,2.82,1.63h8.39a3.61,3.61,0,0,0,2.82-1.63l4.19-7.25a3.61,3.61,0,0,0,0-3.25l-4.19-7.27a3.61,3.61,0,0,0-2.82-1.63h-8.39Z"/><path class="cls-6" d="M803.16,873.39c-19.61,0-43.68-13.9-53.48-30.88L592.88,570.89c-9.8-17-9.8-44.78,0-61.76l156.8-271.63c9.8-17,33.87-30.88,53.48-30.88h313.67c19.61,0,43.68,13.9,53.48,30.88l156.81,271.63c9.8,17,9.8,44.77,0,61.76L1170.31,842.51c-9.8,17-33.87,30.88-53.48,30.88H803.16Z"/><line class="cls-3" x1="1093.97" y1="613.35" x2="1158.9" y2="651.95"/><line class="cls-3" x1="873.87" y1="689.22" x2="818.14" y2="784.3"/><path class="cls-7" d="M824.79,822.18c-15.25,0-34-10.8-41.58-24L648,564c-7.62-13.2-7.62-34.81,0-48L783.21,281.83c7.62-13.2,26.33-24,41.58-24H1095.2c15.25,0,34,10.8,41.58,24L1272,516c7.62,13.2,7.62,34.81,0,48L1136.78,798.17c-7.62,13.2-26.33,24-41.58,24H824.79Z"/><path class="cls-8" d="M1194.26,312.34c10.34,0,23-7.33,28.2-16.28l41.94-72.65c5.17-9,5.17-23.6,0-32.56l-41.94-72.63c-5.17-9-17.86-16.28-28.2-16.28h-83.87c-10.34,0-23,7.33-28.2,16.28l-41.94,72.63c-5.17,9-5.17,23.6,0,32.56l41.94,72.65c5.17,9,17.86,16.28,28.2,16.28h83.87Z"/><path class="cls-8" d="M808.23,979.35c10.34,0,23-7.33,28.2-16.28l41.94-72.65c5.17-9,5.17-23.6,0-32.56l-41.94-72.63c-5.17-9-17.86-16.28-28.2-16.28H724.36c-10.34,0-23,7.33-28.2,16.28l-41.94,72.63c-5.17,9-5.17,23.6,0,32.56l41.94,72.65c5.17,9,17.86,16.28,28.2,16.28h83.87Z"/><path class="cls-3" d="M1102.16,162.65H1202.5a10.57,10.57,0,0,1,10.57,10.57v67.86a10.56,10.56,0,0,1-10.56,10.56H1102.15a10.56,10.56,0,0,1-10.56-10.56V173.22A10.56,10.56,0,0,1,1102.16,162.65Z"/><line class="cls-9" x1="1103.74" y1="174.8" x2="1103.74" y2="174.8"/><line class="cls-10" x1="1109.81" y1="174.8" x2="1109.81" y2="174.8"/><line class="cls-10" x1="1115.88" y1="174.8" x2="1115.88" y2="174.8"/><path class="cls-11" d="M1138,203.07a0.65,0.65,0,0,1,.47.19,0.63,0.63,0,0,1,.19.47l0,0.22-4.19,12.59a0.89,0.89,0,0,1-.82.76h-0.85a0.69,0.69,0,0,1-.52-0.21,1.61,1.61,0,0,1-.33-0.56l-3.26-9.08-3.26,9.08a1.77,1.77,0,0,1-.33.56,0.67,0.67,0,0,1-.51.21h-0.85a0.89,0.89,0,0,1-.82-0.76l-4.19-12.59,0-.22a0.63,0.63,0,0,1,.19-0.47,0.65,0.65,0,0,1,.46-0.19h0.91a0.93,0.93,0,0,1,.93.66l3.06,9.14,3.28-9.14a0.87,0.87,0,0,1,.85-0.66h0.6a0.87,0.87,0,0,1,.85.66l3.29,9.14,3.06-9.14a0.93,0.93,0,0,1,.94-0.66H1138m0-3.43h-0.89a4.35,4.35,0,0,0-4.11,2.79,4.28,4.28,0,0,0-4-2.79h-0.6a4.28,4.28,0,0,0-4,2.78,4.36,4.36,0,0,0-4.11-2.78h-0.91a4.09,4.09,0,0,0-2.84,1.15l0,0,0,0a4.07,4.07,0,0,0-1.19,2.9v0.18l0,0.18,0,0.22,0,0.37,0.12,0.35,4.19,12.59a4.25,4.25,0,0,0,4.08,3.11h0.85a4.08,4.08,0,0,0,3-1.31,5.08,5.08,0,0,0,1-1.61l0-.06,0-.06,0-.07,0,0.07a5.07,5.07,0,0,0,1.07,1.77,4.1,4.1,0,0,0,3,1.27h0.85a4.26,4.26,0,0,0,4.09-3.16l4.18-12.55,0.11-.34,0-.36,0-.22,0-.19v-0.19a4.06,4.06,0,0,0-1.21-2.91,4.11,4.11,0,0,0-2.88-1.19h0Z"/><path class="cls-11" d="M1161.45,203.07a0.66,0.66,0,0,1,.47.19,0.64,0.64,0,0,1,.19.47l0,0.22-4.19,12.59a0.89,0.89,0,0,1-.82.76h-0.85a0.69,0.69,0,0,1-.52-0.21,1.74,1.74,0,0,1-.33-0.56l-3.25-9.08-3.25,9.08a1.75,1.75,0,0,1-.33.56,0.69,0.69,0,0,1-.52.21h-0.85a0.9,0.9,0,0,1-.82-0.76l-4.19-12.59,0-.22a0.66,0.66,0,0,1,.66-0.66h0.91a0.92,0.92,0,0,1,.93.66l3.07,9.14,3.28-9.14a0.88,0.88,0,0,1,.85-0.66h0.6a0.88,0.88,0,0,1,.85.66l3.28,9.14,3.07-9.14a0.91,0.91,0,0,1,.93-0.66h0.9m0-3.43h-0.9a4.36,4.36,0,0,1-8.13,0h-0.6a4.36,4.36,0,0,1-8.13,0h-0.91a4.1,4.1,0,0,0-4.09,4.1V204l0,0.22,0,0.22,0,0.33,0.1,0.31,4.19,12.59a4.27,4.27,0,0,0,4.08,3.12H1148a4.11,4.11,0,0,0,3-1.26,5.11,5.11,0,0,0,1-1.66l0-.06,0-.06,0-.06,0,0.06v0l0,0a5.15,5.15,0,0,0,1,1.65l0,0,0,0a4.12,4.12,0,0,0,3,1.26h0.85a4.26,4.26,0,0,0,4.08-3.13l4.18-12.57,0.11-.33,0-.35,0-.22,0-.2v-0.2a4.08,4.08,0,0,0-1.17-2.87l0,0-0.05,0a4.11,4.11,0,0,0-2.82-1.13h0Z"/><path class="cls-11" d="M1184.88,203.07a0.62,0.62,0,0,1,.46.19,0.63,0.63,0,0,1,.2.47l0,0.22-4.19,12.59a0.89,0.89,0,0,1-.82.76h-0.85a0.68,0.68,0,0,1-.51-0.21,1.7,1.7,0,0,1-.33-0.56l-3.26-9.08-3.25,9.08a1.68,1.68,0,0,1-.33.56,0.67,0.67,0,0,1-.52.21h-0.85a0.89,0.89,0,0,1-.82-0.76l-4.18-12.59,0-.22a0.66,0.66,0,0,1,.19-0.47,0.65,0.65,0,0,1,.47-0.19h0.89a0.92,0.92,0,0,1,.93.66l3.07,9.14,3.28-9.14a0.88,0.88,0,0,1,.85-0.66h0.6a0.87,0.87,0,0,1,.85.66l3.28,9.14,3.07-9.14a0.92,0.92,0,0,1,.93-0.66h0.9m0-3.43H1184a4.36,4.36,0,0,0-4.11,2.78,4.28,4.28,0,0,0-4-2.78h-0.6a4.28,4.28,0,0,0-4,2.79,4.33,4.33,0,0,0-4.11-2.79h-0.89a4.07,4.07,0,0,0-2.9,1.2l0,0,0,0a4.1,4.1,0,0,0-1.14,2.84V204l0,0.26,0,0.22,0,0.29,0.09,0.27,4.18,12.59a4.26,4.26,0,0,0,4.08,3.12h0.85a4.08,4.08,0,0,0,3-1.29,5.1,5.1,0,0,0,1-1.67l0,0v0l0-.07,0,0.07,0,0,0,0a5,5,0,0,0,1,1.67,4.08,4.08,0,0,0,3,1.27h0.85a4.26,4.26,0,0,0,4.09-3.13l4.18-12.57,0.11-.32,0-.34,0-.22,0-.21v-0.21a4.1,4.1,0,0,0-4.09-4.1h0Z"/><line class="cls-9" x1="1128.71" y1="174.8" x2="1213.06" y2="174.8"/><rect class="cls-12" x="741.35" y="845.88" width="81.44" height="56.55" rx="8.09" ry="8.09"/><rect class="cls-13" x="786.14" y="858.64" width="27.4" height="9.49" rx="2.72" ry="2.72"/><line class="cls-13" x1="786.14" y1="876.48" x2="813.54" y2="876.48"/><line class="cls-13" x1="786.14" y1="889.28" x2="806.72" y2="889.28"/><line class="cls-13" x1="786.14" y1="882.45" x2="791.64" y2="882.45"/><path class="cls-11" d="M760.48,867.41a0.7,0.7,0,0,1,.22.51v2.65a0.69,0.69,0,0,1-.22.51,0.69,0.69,0,0,1-.51.22h-2.51a0.69,0.69,0,0,1-.52-0.22,0.7,0.7,0,0,1-.21-0.51v-2.65a0.71,0.71,0,0,1,.21-0.51,0.7,0.7,0,0,1,.52-0.21H760A0.69,0.69,0,0,1,760.48,867.41Zm0,9.44a0.7,0.7,0,0,1,.22.51V880a0.73,0.73,0,0,1-.73.72h-2.51a0.73,0.73,0,0,1-.73-0.72v-2.65a0.7,0.7,0,0,1,.21-0.51,0.69,0.69,0,0,1,.52-0.22H760A0.69,0.69,0,0,1,760.48,876.85Z"/><path class="cls-11" d="M770.2,868.85a7.06,7.06,0,0,0-1.09-3,2.93,2.93,0,0,0-2.21-1.22,0.86,0.86,0,0,1-.51-0.23,0.67,0.67,0,0,1-.21-0.5v-1.78a0.73,0.73,0,0,1,.73-0.73,6,6,0,0,1,4.21,1.43,8.13,8.13,0,0,1,2.24,4.2,36.37,36.37,0,0,1,0,13.94,8.21,8.21,0,0,1-2.24,4.21,6,6,0,0,1-4.21,1.44,0.74,0.74,0,0,1-.73-0.73v-1.78a0.66,0.66,0,0,1,.21-0.5,0.82,0.82,0,0,1,.51-0.23,3,3,0,0,0,2.21-1.22,7.08,7.08,0,0,0,1.09-3.06A42.33,42.33,0,0,0,770.2,868.85Z"/><line class="cls-14" x1="741.3" y1="882.5" x2="722.17" y2="882.5"/><line class="cls-14" x1="723.58" y1="861.52" x2="709.81" y2="861.52"/><line class="cls-14" x1="737.21" y1="875.51" x2="709.81" y2="875.51"/><line class="cls-14" x1="748.12" y1="868.52" x2="720.71" y2="868.52"/><path class="cls-5" d="M671.61,812.23a3.28,3.28,0,0,0-2.56,1.48l-3.81,6.6a3.28,3.28,0,0,0,0,3l3.81,6.59a3.28,3.28,0,0,0,2.56,1.48h7.61a3.28,3.28,0,0,0,2.56-1.48l3.81-6.59a3.28,3.28,0,0,0,0-3l-3.81-6.6a3.28,3.28,0,0,0-2.56-1.48h-7.61Z"/><g class="cls-4"><path class="cls-5" d="M853.58,816.48a3.75,3.75,0,0,0,2.93-1.69l4.35-7.54a3.75,3.75,0,0,0,0-3.38l-4.35-7.54a3.75,3.75,0,0,0-2.93-1.69h-8.71a3.75,3.75,0,0,0-2.93,1.69l-4.35,7.54a3.75,3.75,0,0,0,0,3.38l4.35,7.54a3.75,3.75,0,0,0,2.93,1.69h8.71Z"/></g><g class="cls-4"><path class="cls-5" d="M1200.29,615.92a6.72,6.72,0,0,0,5.25-3l7.8-13.52a6.72,6.72,0,0,0,0-6.06l-7.8-13.52a6.72,6.72,0,0,0-5.25-3h-15.61a6.72,6.72,0,0,0-5.25,3l-7.8,13.52a6.72,6.72,0,0,0,0,6.06l7.8,13.52a6.72,6.72,0,0,0,5.25,3h15.61Z"/></g><g class="cls-15"><path class="cls-11" d="M842.52,810.34a3.75,3.75,0,0,0-2.93,1.69l-1.85,3.21a3.75,3.75,0,0,0,0,3.38l1.85,3.21a3.75,3.75,0,0,0,2.93,1.69h3.7a3.75,3.75,0,0,0,2.93-1.69l1.85-3.21a3.75,3.75,0,0,0,0-3.38L849.15,812a3.75,3.75,0,0,0-2.93-1.69h-3.7Z"/></g><path class="cls-16" d="M782.27,351.66A3.75,3.75,0,0,0,785.2,350l4.35-7.54a3.75,3.75,0,0,0,0-3.38l-4.35-7.54a3.75,3.75,0,0,0-2.93-1.69h-8.71a3.75,3.75,0,0,0-2.93,1.69L766.28,339a3.75,3.75,0,0,0,0,3.38l4.35,7.54a3.75,3.75,0,0,0,2.93,1.69h8.71Z"/><path class="cls-5" d="M967.22,863.84a3.28,3.28,0,0,0-2.56,1.48l-3.81,6.6a3.28,3.28,0,0,0,0,3l3.81,6.59a3.28,3.28,0,0,0,2.56,1.48h7.61a3.28,3.28,0,0,0,2.56-1.48l3.81-6.59a3.28,3.28,0,0,0,0-3l-3.81-6.6a3.28,3.28,0,0,0-2.56-1.48h-7.61Z"/><path class="cls-5" d="M582.24,413.47a3.26,3.26,0,0,0-2.55,1.47l-3.79,6.56a3.26,3.26,0,0,0,0,2.94l3.79,6.55a3.26,3.26,0,0,0,2.55,1.47h7.58a3.26,3.26,0,0,0,2.55-1.47l3.79-6.55a3.26,3.26,0,0,0,0-2.94l-3.79-6.56a3.26,3.26,0,0,0-2.55-1.47h-7.58Z"/><g class="cls-4"><path class="cls-16" d="M851.65,239.84a11.3,11.3,0,0,0,8.82-5.09L873.59,212a11.3,11.3,0,0,0,0-10.18l-13.12-22.72a11.3,11.3,0,0,0-8.82-5.09H825.41a11.3,11.3,0,0,0-8.82,5.09l-13.12,22.72a11.3,11.3,0,0,0,0,10.18l13.12,22.72a11.3,11.3,0,0,0,8.82,5.09h26.24Z"/></g><g class="cls-15"><path class="cls-16" d="M1240,253.64a3.75,3.75,0,0,0-2.93,1.69l-1.85,3.21a3.75,3.75,0,0,0,0,3.38l1.85,3.21a3.75,3.75,0,0,0,2.93,1.69h3.7a3.75,3.75,0,0,0,2.93-1.69l1.85-3.21a3.75,3.75,0,0,0,0-3.38l-1.85-3.21a3.75,3.75,0,0,0-2.93-1.69H1240Z"/></g><path class="cls-16" d="M996,889.44a5.51,5.51,0,0,0,4.3-2.49l6.4-11.09a5.51,5.51,0,0,0,0-5l-6.4-11.09a5.51,5.51,0,0,0-4.3-2.49h-12.8a5.51,5.51,0,0,0-4.3,2.49l-6.4,11.09a5.51,5.51,0,0,0,0,5l6.4,11.09a5.51,5.51,0,0,0,4.3,2.49H996Z"/><path class="cls-16" d="M861.56,190.33a5.51,5.51,0,0,0,4.3-2.49l6.4-11.09a5.51,5.51,0,0,0,0-5l-6.4-11.09a5.51,5.51,0,0,0-4.3-2.49h-12.8a5.51,5.51,0,0,0-4.3,2.48L838,171.79a5.51,5.51,0,0,0,0,5l6.4,11.09a5.51,5.51,0,0,0,4.3,2.49h12.8Z"/><path class="cls-16" d="M1064.71,267.74a3.75,3.75,0,0,0,2.93-1.69l4.36-7.54a3.75,3.75,0,0,0,0-3.38l-4.36-7.54a3.75,3.75,0,0,0-2.93-1.69H1056a3.75,3.75,0,0,0-2.93,1.69l-4.35,7.54a3.75,3.75,0,0,0,0,3.38l4.35,7.54a3.75,3.75,0,0,0,2.93,1.69h8.71Z"/><path class="cls-8" d="M715.4,472.57c10.34,0,23-7.33,28.2-16.28l41.94-72.65c5.17-9,5.17-23.6,0-32.56L743.6,278.46c-5.17-9-17.86-16.28-28.2-16.28H631.53c-10.34,0-23,7.33-28.2,16.28L561.4,351.09c-5.17,9-5.17,23.6,0,32.56l41.94,72.65c5.17,9,17.86,16.28,28.2,16.28H715.4Z"/><path class="cls-8" d="M1292.55,807.73c10.34,0,23-7.33,28.2-16.28l41.94-72.65c5.17-9,5.17-23.6,0-32.56l-41.94-72.63c-5.17-9-17.86-16.28-28.2-16.28h-83.87c-10.34,0-23,7.33-28.2,16.28l-41.94,72.63c-5.17,9-5.17,23.6,0,32.56l41.94,72.65c5.17,9,17.86,16.28,28.2,16.28h83.87Z"/><path class="cls-12" d="M1256.17,710.94v35.84a8,8,0,0,1-8,8h-35.83a8,8,0,0,1-8-8V671.12a8,8,0,0,1,8-8h35.83a8,8,0,0,1,8,8v39.82Z"/><line class="cls-13" x1="1233.28" y1="670.53" x2="1227.31" y2="670.53"/><path class="cls-13" d="M1226.31,745.08a4,4,0,1,0,4-4A4,4,0,0,0,1226.31,745.08Z"/><path class="cls-17" d="M1256.81,722.1h29.95a6.33,6.33,0,0,0,6.31-6.31V696.88a6.33,6.33,0,0,0-6.31-6.31h-33.1a6.32,6.32,0,0,0-6.3,6.31v34.68Z"/><path class="cls-17" d="M1225,710h18.55a3.92,3.92,0,0,0,3.91-3.9V694.4a3.92,3.92,0,0,0-3.91-3.9h-20.5a3.92,3.92,0,0,0-3.9,3.9v21.47Z"/><path class="cls-12" d="M1247.74,707.7h52.69a11.14,11.14,0,0,0,11.1-11.09V661.43a11.13,11.13,0,0,0-11.1-11.1H1242.2a11.12,11.12,0,0,0-11.09,11.1v62.91Z"/><path class="cls-11" d="M1284.41,673.06a6.29,6.29,0,0,1,2.69.53,4.38,4.38,0,0,1,1.73,1.32,3,3,0,0,1,.64,1.55,0.39,0.39,0,0,1-.13.36,0.52,0.52,0,0,1-.37.14h-1.29a0.76,0.76,0,0,1-.46-0.11,0.88,0.88,0,0,1-.3-0.33,2.25,2.25,0,0,0-.91-0.83,3.38,3.38,0,0,0-1.61-.31,3.26,3.26,0,0,0-1.68.4,1.22,1.22,0,0,0-.68,1.08,1.13,1.13,0,0,0,.32.86,2.47,2.47,0,0,0,1,.51q0.68,0.2,2.23.54a7.23,7.23,0,0,1,3.23,1.35,3,3,0,0,1,1,2.38,3.29,3.29,0,0,1-.64,2,4.25,4.25,0,0,1-1.86,1.37,8,8,0,0,1-5.42.06,4.66,4.66,0,0,1-1.93-1.27,2.92,2.92,0,0,1-.8-1.87,0.43,0.43,0,0,1,.13-0.36,0.55,0.55,0,0,1,.37-0.14H1281a0.85,0.85,0,0,1,.47.11,0.81,0.81,0,0,1,.29.33,2.35,2.35,0,0,0,.91,1,3.7,3.7,0,0,0,1.86.36,4.69,4.69,0,0,0,2-.39,1.24,1.24,0,0,0,.81-1.16,0.88,0.88,0,0,0-.32-0.71,2.42,2.42,0,0,0-.88-0.44c-0.39-.11-1-0.27-1.74-0.45-0.31-.06-0.71-0.16-1.2-0.28a6.07,6.07,0,0,1-2.8-1.31,3.63,3.63,0,0,1-.23-4.39,4.31,4.31,0,0,1,1.74-1.35,6,6,0,0,1,2.48-.49m-12.36.18a4.94,4.94,0,0,1,5.52,5.09c0,0.31,0,.77,0,1.37s0,1.06,0,1.36a5.59,5.59,0,0,1-1.5,3.76,5.35,5.35,0,0,1-3.92,1.34h-4.65a0.47,0.47,0,0,1-.35-0.15,0.49,0.49,0,0,1-.15-0.35V673.74a0.51,0.51,0,0,1,.5-0.5H1272m-2.57,10.61H1272a3,3,0,0,0,2.2-.75,3.06,3.06,0,0,0,.83-2c0-.3,0-0.76,0-1.36s0-1.06,0-1.37a3,3,0,0,0-.84-2,3.11,3.11,0,0,0-2.28-.76h-2.47v8.3m-9.41-10.61a0.6,0.6,0,0,1,.43.15,1.14,1.14,0,0,1,.27.47l4.52,11.66a0.65,0.65,0,0,1,0,.13,0.48,0.48,0,0,1-.14.35,0.47,0.47,0,0,1-.35.15h-1.33a0.68,0.68,0,0,1-.72-0.46l-0.8-2.05h-5.83l-0.79,2.05a0.68,0.68,0,0,1-.72.46h-1.33a0.5,0.5,0,0,1-.5-0.5,0.35,0.35,0,0,1,0-.13l4.52-11.66a1.15,1.15,0,0,1,.27-0.47,0.6,0.6,0,0,1,.43-0.15h2m-3,8.1h4.06l-2-5.26-2,5.26m27.39-11.49a9.23,9.23,0,0,0-3.78.77,7.66,7.66,0,0,0-2.38,1.63A8.59,8.59,0,0,0,1272,670h-4.56a3.67,3.67,0,0,0-2.65,1.12,3.61,3.61,0,0,0-1,1.81l-0.08-.22a4.25,4.25,0,0,0-1.09-1.71,3.8,3.8,0,0,0-2.62-1h-2a3.81,3.81,0,0,0-2.6,1,4.21,4.21,0,0,0-1.1,1.71l-4.51,11.63a3.5,3.5,0,0,0-.24,1.29,3.71,3.71,0,0,0,3.7,3.7h1.33a3.86,3.86,0,0,0,3.71-2.51h1.43a3.86,3.86,0,0,0,3.71,2.51h1.33a3.76,3.76,0,0,1,2.68,0h4.65a8.53,8.53,0,0,0,6-2.07,8.09,8.09,0,0,0,2.69,1.61,11.22,11.22,0,0,0,7.75-.1,7.42,7.42,0,0,0,3.21-2.43,6.56,6.56,0,0,0,1.27-3.9,6.31,6.31,0,0,0-1.14-3.74,3.63,3.63,0,0,0,.76-2.56,6.12,6.12,0,0,0-1.26-3.2,7.53,7.53,0,0,0-3-2.32,9.48,9.48,0,0,0-4-.82h0Z"/><path class="cls-18" d="M666.94,376.29h52.69a11.14,11.14,0,0,0,11.1-11.09V330a11.13,11.13,0,0,0-11.1-11.1H661.39A11.12,11.12,0,0,0,650.3,330v62.91Z"/><path class="cls-18" d="M616.21,413.47L630,389.68a7.16,7.16,0,0,1,5.59-3.23H663a7.16,7.16,0,0,1,5.59,3.23l13.74,23.79H616.21Z"/><circle class="cls-18" cx="649.28" cy="361.96" r="15.1"/><line class="cls-19" x1="690.49" y1="350.85" x2="690.49" y2="350.85"/><line class="cls-20" x1="683.35" y1="354.44" x2="676.22" y2="358.03"/><line class="cls-19" x1="676.22" y1="358.03" x2="676.22" y2="358.03"/><path class="cls-21" d="M702.59,349.55a2.09,2.09,0,0,1-1.63-.94l-4-6.94a2.09,2.09,0,0,1,0-1.88l4-6.94a2.09,2.09,0,0,1,1.63-.94h8a2.09,2.09,0,0,1,1.63.94l4,6.94a2.08,2.08,0,0,1,0,1.88l-4,6.94a2.09,2.09,0,0,1-1.63.94h-8Z"/><path class="cls-16" d="M1325,619.81a1.83,1.83,0,0,0-1.43.82l-2.12,3.68a1.82,1.82,0,0,0,0,1.65l2.12,3.67a1.83,1.83,0,0,0,1.43.82h4.24a1.83,1.83,0,0,0,1.43-.82l2.12-3.67a1.82,1.82,0,0,0,0-1.65l-2.12-3.68a1.83,1.83,0,0,0-1.43-.82H1325Z"/><path class="cls-9" d="M886.83,692.7c-8.25,0-18.37-5.85-22.5-13L791.18,553c-4.12-7.14-4.12-18.84,0-26l73.15-126.72c4.12-7.15,14.25-13,22.5-13h146.33c8.25,0,18.37,5.85,22.5,13L1128.82,527c4.12,7.14,4.12,18.84,0,26l-73.15,126.72c-4.12,7.14-14.25,13-22.5,13H886.83Z"/><path class="cls-8" d="M1001.93,645.19c10.34,0,23-7.33,28.2-16.28l41.94-72.65c5.17-9,5.17-23.6,0-32.56l-41.94-72.63c-5.17-9-17.86-16.28-28.2-16.28H918.06c-10.34,0-23,7.33-28.2,16.28l-41.94,72.63c-5.17,9-5.17,23.6,0,32.56l41.94,72.65c5.17,9,17.86,16.28,28.2,16.28h83.87Z"/><g class="cls-22"><polygon class="cls-23" points="987.99 540.26 1023.14 479.39 1009.15 454.89 981.16 454.89 946 515.76 960 540.26 987.99 540.26"/><polygon class="cls-23" points="987.99 540.26 1023.14 600.86 1009.15 625.11 981.16 625.11 946 564.5 960 540.26 987.99 540.26"/><polygon class="cls-23" points="946 564.45 960 540.34 946 516.23 876.03 516.23 862.04 540.34 876.03 564.45 946 564.45"/></g><path class="cls-1" d="M930.79,479.34a11.12,11.12,0,0,0-8.66,5L892.91,535a11.1,11.1,0,0,0,0,10l29.22,50.64a11.12,11.12,0,0,0,8.66,5h58.43a11.12,11.12,0,0,0,8.66-5L1027.09,545a11.1,11.1,0,0,0,0-10l-29.21-50.63a11.12,11.12,0,0,0-8.66-5H930.79Z"/><path class="cls-24" d="M989.21,600.66a11.12,11.12,0,0,0,8.66-5L1027.09,545a11.1,11.1,0,0,0,0-10l-29.21-50.63a11.12,11.12,0,0,0-8.66-5H930.79a11.12,11.12,0,0,0-8.66,5L892.91,535a11.1,11.1,0,0,0,0,10l29.22,50.64a11.12,11.12,0,0,0,8.66,5h58.43Z"/><polygon class="cls-23" points="973.99 564.45 987.99 540.34 973.99 516.23 946 516.23 932.01 540.34 946 564.45 973.99 564.45"/></svg>