<svg id="Layer_2" data-name="Layer 2" xmlns="http://www.w3.org/2000/svg" viewBox="0 0 90 90"><defs><style>.cls-1,.cls-2{fill:none;stroke-linecap:round;stroke-linejoin:round;stroke-width:1.5px;}.cls-1{stroke:#5b0098;}.cls-2{stroke:#bb73fc;}</style></defs><title>Snowplow_Website-Services_Icons</title><path class="cls-1" d="M68.38,82.92h-30a12.93,12.93,0,0,1-10.09-5.83l-15-26a12.93,12.93,0,0,1,0-11.66l15-26A12.93,12.93,0,0,1,38.36,7.6h30"/><path class="cls-1" d="M68.38,82.92h-30a12.93,12.93,0,0,1-10.09-5.83l-15-26a12.93,12.93,0,0,1,0-11.66l15-26A12.93,12.93,0,0,1,38.36,7.6h30"/><path class="cls-1" d="M78.12,1.12a2.23,2.23,0,0,1,1.74,1L82.44,6.6a2.22,2.22,0,0,1,0,2l-2.59,4.48a2.23,2.23,0,0,1-1.74,1H72.95a2.23,2.23,0,0,1-1.74-1L68.62,8.61a2.23,2.23,0,0,1,0-2l2.59-4.48a2.23,2.23,0,0,1,1.74-1h5.17Z"/><path class="cls-1" d="M78.12,76.44a2.23,2.23,0,0,1,1.74,1l2.59,4.48a2.22,2.22,0,0,1,0,2L79.86,88.4a2.23,2.23,0,0,1-1.74,1H72.95a2.23,2.23,0,0,1-1.74-1l-2.59-4.48a2.23,2.23,0,0,1,0-2l2.59-4.48a2.23,2.23,0,0,1,1.74-1h5.17Z"/><path class="cls-1" d="M57.5,60.15H45.63a5.11,5.11,0,0,1-4-2.3L35.7,47.57a5.11,5.11,0,0,1,0-4.61l5.94-10.28a5.11,5.11,0,0,1,4-2.3H57.5"/><line class="cls-1" x1="35.15" y1="45.26" x2="11.87" y2="45.26"/><path class="cls-2" d="M63.69,26.25a1.42,1.42,0,0,1,1.11.64l1.64,2.85a1.41,1.41,0,0,1,0,1.28L64.8,33.86a1.42,1.42,0,0,1-1.11.64H60.4a1.41,1.41,0,0,1-1.1-.64L57.66,31a1.42,1.42,0,0,1,0-1.28l1.64-2.85a1.42,1.42,0,0,1,1.1-.64h3.29Z"/><path class="cls-2" d="M63.69,56a1.42,1.42,0,0,1,1.11.64l1.64,2.85a1.41,1.41,0,0,1,0,1.28L64.8,63.64a1.42,1.42,0,0,1-1.11.64H60.4a1.42,1.42,0,0,1-1.1-.64l-1.64-2.85a1.42,1.42,0,0,1,0-1.28l1.64-2.85A1.41,1.41,0,0,1,60.4,56h3.29Z"/></svg>