<svg xmlns="http://www.w3.org/2000/svg" xmlns:xlink="http://www.w3.org/1999/xlink" viewBox="0 0 210 210"><defs><style>.cls-1,.cls-4,.cls-5{fill:none;}.cls-2{isolation:isolate;}.cls-3,.cls-5{mix-blend-mode:screen;}.cls-4,.cls-5{stroke:#28d1b1;stroke-linecap:round;stroke-linejoin:round;}.cls-6{clip-path:url(#clip-path);}.cls-10,.cls-11,.cls-12,.cls-14,.cls-7,.cls-8,.cls-9{fill:#28d1b1;}.cls-13,.cls-7{opacity:0.2;}.cls-8{opacity:0.4;}.cls-9{opacity:0.6;}.cls-10{opacity:0.8;}.cls-11{opacity:0.1;}.cls-12{opacity:0.5;}</style><clipPath id="clip-path"><path class="cls-1" d="M147.86,191.6a13.72,13.72,0,0,0,10.71-6.19l42.86-74.23a13.73,13.73,0,0,0,0-12.37L158.57,24.58a13.72,13.72,0,0,0-10.71-6.19H62.14a13.72,13.72,0,0,0-10.71,6.19L8.57,98.81a13.72,13.72,0,0,0,0,12.37l42.86,74.24a13.72,13.72,0,0,0,10.71,6.19h85.71Z"/></clipPath></defs><title>Snowplow_Website-Product_Icon_Insights-Evolve</title><g class="cls-2"><g id="Layer_5" data-name="Layer 5"><g class="cls-3"><path class="cls-4" d="M147.86,191.6a13.72,13.72,0,0,0,10.71-6.19l42.86-74.23a13.72,13.72,0,0,0,0-12.37L158.57,24.58a13.72,13.72,0,0,0-10.71-6.19H62.14a13.72,13.72,0,0,0-10.71,6.19L8.57,98.81a13.72,13.72,0,0,0,0,12.37l42.86,74.24a13.72,13.72,0,0,0,10.71,6.19h85.71Z"/></g><g class="cls-3"><polygon class="cls-5" points="145 105 195.24 18.39 175.24 -16.25 135.24 -16.25 85 70.36 105 105 145 105"/><polygon class="cls-4" points="145 105 195.24 191.6 175.24 226.24 135.24 226.24 85 139.64 105 105 145 105"/><polygon class="cls-5" points="85 139.64 105 105 85 70.35 -15 70.35 -35 105 -15 139.64 85 139.64"/></g><polygon class="cls-4" points="125 139.64 145 105 125 70.36 85 70.36 65 105 85 139.64 125 139.64"/></g><g id="Layer_6" data-name="Layer 6"><g class="cls-6"><polygon class="cls-7" points="85 140 125 140 145 105 105 105 85 140"/><polygon class="cls-8" points="105 105 85 70.35 125 70.36 145 105 105 105"/><polygon class="cls-9" points="205 105 175.07 53.16 145 105 175.07 157 205 105"/><polygon class="cls-10" points="105 105 85 70.35 65 105 85 140 105 105"/><polygon class="cls-7" points="25 70 85 70 65 104.82 5 105 25 70"/><polygon class="cls-11" points="25 70 85 70 115 18 55 18 25 70"/><polygon class="cls-12" points="115 192 55.01 192 25 140 85 140 115 192"/><polygon class="cls-7" points="85 70 125 70 155 18 115 18 85 70"/><polygon class="cls-10" points="145 105 125 70 155 18 175.07 53.16 145 105"/><polygon class="cls-10" points="155.06 192 175.07 157 145.07 105 125 140.16 155.06 192"/><polygon class="cls-8" points="155 192 115.01 192 85 140 125 140 155 192"/><polygon class="cls-8" points="25 140 85 140 65 104.82 5 105 25 140"/></g></g><g id="Layer_7" data-name="Layer 7"><g class="cls-13"><path class="cls-14" d="M107.29,97.64a3.76,3.76,0,0,1,2.93,1.69l2.29,4a3.76,3.76,0,0,1,0,3.39l-2.29,4a3.76,3.76,0,0,1-2.93,1.69h-4.59a3.76,3.76,0,0,1-2.93-1.69l-2.29-4a3.76,3.76,0,0,1,0-3.39l2.29-4a3.76,3.76,0,0,1,2.93-1.69h4.59Z"/></g><g class="cls-13"><path class="cls-14" d="M128.93,57.75a6.44,6.44,0,0,1,5,2.9l3.93,6.81a6.44,6.44,0,0,1,0,5.8L134,80.06a6.44,6.44,0,0,1-5,2.9h-7.86a6.44,6.44,0,0,1-5-2.9l-3.93-6.8a6.44,6.44,0,0,1,0-5.8L116,60.65a6.44,6.44,0,0,1,5-2.9h7.86Z"/></g><g class="cls-13"><path class="cls-14" d="M68.93,92.39a6.44,6.44,0,0,1,5,2.9l3.93,6.81a6.44,6.44,0,0,1,0,5.8L74,114.71a6.44,6.44,0,0,1-5,2.9H61.07a6.44,6.44,0,0,1-5-2.9l-3.93-6.8a6.44,6.44,0,0,1,0-5.8L56,95.29a6.44,6.44,0,0,1,5-2.9h7.86Z"/></g><g class="cls-13"><path class="cls-14" d="M74,111.5a3.12,3.12,0,0,1,2.44,1.41l1.9,3.3a3.12,3.12,0,0,1,0,2.81l-1.9,3.3A3.12,3.12,0,0,1,74,123.72H70.15a3.12,3.12,0,0,1-2.44-1.41l-1.9-3.3a3.12,3.12,0,0,1,0-2.81l1.9-3.3a3.12,3.12,0,0,1,2.44-1.41H74Z"/></g><g class="cls-13"><path class="cls-14" d="M134,51.64A3.12,3.12,0,0,1,136.4,53l1.9,3.3a3.12,3.12,0,0,1,0,2.81l-1.9,3.3A3.12,3.12,0,0,1,134,63.86h-3.81a3.12,3.12,0,0,1-2.44-1.41l-1.9-3.3a3.12,3.12,0,0,1,0-2.81l1.9-3.3a3.12,3.12,0,0,1,2.44-1.41H134Z"/></g><g class="cls-13"><path class="cls-14" d="M134,120.93a3.12,3.12,0,0,1,2.44,1.41l1.9,3.3a3.12,3.12,0,0,1,0,2.81l-1.9,3.3a3.12,3.12,0,0,1-2.44,1.41h-3.81a3.12,3.12,0,0,1-2.44-1.41l-1.9-3.3a3.12,3.12,0,0,1,0-2.81l1.9-3.3a3.12,3.12,0,0,1,2.44-1.41H134Z"/></g><g class="cls-13"><path class="cls-14" d="M59.07,88.77a1.85,1.85,0,0,1,1.44.83l1.13,2a1.85,1.85,0,0,1,0,1.67l-1.13,2a1.85,1.85,0,0,1-1.44.83H56.81a1.85,1.85,0,0,1-1.44-.83l-1.13-2a1.85,1.85,0,0,1,0-1.67l1.13-2a1.85,1.85,0,0,1,1.44-.83h2.26Z"/></g><g class="cls-13"><path class="cls-14" d="M148.94,66.73a1.85,1.85,0,0,1,1.44.83l1.13,2a1.85,1.85,0,0,1,0,1.67l-1.13,2a1.85,1.85,0,0,1-1.44.83h-2.26a1.85,1.85,0,0,1-1.44-.83l-1.13-2a1.85,1.85,0,0,1,0-1.67l1.13-2a1.85,1.85,0,0,1,1.44-.83h2.26Z"/></g><g class="cls-13"><path class="cls-14" d="M138.35,157.52a1.85,1.85,0,0,1,1.44.83l1.13,2a1.85,1.85,0,0,1,0,1.67l-1.13,2a1.85,1.85,0,0,1-1.44.83h-2.26a1.85,1.85,0,0,1-1.44-.83l-1.13-2a1.85,1.85,0,0,1,0-1.67l1.13-2a1.85,1.85,0,0,1,1.44-.83h2.26Z"/></g><g class="cls-13"><path class="cls-14" d="M128.93,127a6.44,6.44,0,0,1,5,2.9l3.93,6.81a6.44,6.44,0,0,1,0,5.8l-3.93,6.8a6.44,6.44,0,0,1-5,2.9h-7.86a6.44,6.44,0,0,1-5-2.9l-3.93-6.8a6.44,6.44,0,0,1,0-5.8l3.93-6.81a6.44,6.44,0,0,1,5-2.9h7.86Z"/></g></g></g></svg>