<svg id="React" xmlns="http://www.w3.org/2000/svg" viewBox="0 0 680.15 681.96"><defs><style>.cls-1{opacity:0.66;}.cls-10,.cls-11,.cls-13,.cls-14,.cls-15,.cls-16,.cls-17,.cls-18,.cls-19,.cls-2,.cls-3,.cls-4,.cls-6,.cls-8,.cls-9{fill:none;stroke:#fff;stroke-linecap:round;stroke-linejoin:round;}.cls-10,.cls-11,.cls-13,.cls-14,.cls-18,.cls-19,.cls-2,.cls-3,.cls-4,.cls-9{stroke-width:4px;}.cls-3{stroke-dasharray:2.62 18.36 7.87 13.12;}.cls-4{stroke-dasharray:4.2 29.37 12.59 20.98;}.cls-5{opacity:0.8;}.cls-15,.cls-16,.cls-17,.cls-6,.cls-8{stroke-width:8px;}.cls-7{opacity:0.6;}.cls-8{stroke-dasharray:3.05 21.34 9.15 15.24;}.cls-9{stroke-dasharray:3.79 26.52 11.37 18.94;}.cls-10{stroke-dasharray:2.78 19.49 8.35 13.92;}.cls-11{stroke-dasharray:1.92 13.47 5.77 9.62;}.cls-12{opacity:0.33;}.cls-13{stroke-dasharray:1.76 12.31;}.cls-14{stroke-dasharray:1.76 12.31;}.cls-15{stroke-dasharray:209.45 69.82 0 46.54 46.54 93.09;}.cls-16{stroke-dasharray:77.6 21.73 0 15.52 15.52 31.04;}.cls-17{stroke-dasharray:109.17 30.57 0 21.83 21.83 43.67;}.cls-18{stroke-dasharray:2.5 17.49 7.5 12.49;}.cls-19{stroke-dasharray:1.76 12.31;}.cls-20{fill:#fff;}</style></defs><title>Snowplow_Website-Home_Icon_React</title><g class="cls-1"><line class="cls-2" x1="123.51" y1="351.1" x2="108.22" y2="351.1"/><line class="cls-3" x1="89.86" y1="351.1" x2="54.44" y2="351.1"/><line class="cls-2" x1="47.88" y1="351.1" x2="32.6" y2="351.1"/></g><g class="cls-1"><path class="cls-2" d="M260.8,528.72c-9.61,0-21.4-6.81-26.2-15.13l-29.34-50.83c-4.8-8.32-4.8-21.93,0-30.25l29.34-50.82c4.8-8.32,16.59-15.13,26.2-15.13h58.69c9.61,0,21.4,6.81,26.2,15.13L375,432.5c4.8,8.32,4.8,21.93,0,30.25l-29.35,50.83c-4.8,8.32-16.59,15.13-26.2,15.13H260.8Z" transform="translate(-59.93 -96.54)"/></g><line class="cls-2" x1="162.11" y1="223.33" x2="146.82" y2="223.33"/><line class="cls-4" x1="117.46" y1="223.33" x2="60.82" y2="223.33"/><line class="cls-2" x1="50.33" y1="223.33" x2="35.05" y2="223.33"/><g class="cls-5"><path class="cls-6" d="M329.73,479.39c-12,0-26.75-8.51-32.75-18.91L226.73,338.77c-6-10.4-6-27.42,0-37.82L297,179.27c6-10.4,20.74-18.91,32.75-18.91H470.27c12,0,26.75,8.51,32.75,18.91L573.27,301c6,10.4,6,27.42,0,37.82L503,460.48c-6,10.4-20.74,18.91-32.75,18.91H329.73Z" transform="translate(-59.93 -96.54)"/></g><g class="cls-7"><path class="cls-6" d="M320.38,577.6c-7.21,0-16-5.1-19.65-11.34l-15.12-26.19c-3.6-6.24-3.6-16.45,0-22.69l15.12-26.18c3.6-6.24,12.45-11.34,19.65-11.34h30.24c7.2,0,16,5.11,19.65,11.35l15.11,26.18c3.6,6.24,3.6,16.45,0,22.69l-15.11,26.18c-3.6,6.24-12.44,11.35-19.65,11.35H320.38Z" transform="translate(-59.93 -96.54)"/></g><line class="cls-6" x1="219.13" y1="432.17" x2="203.85" y2="432.17"/><line class="cls-8" x1="182.51" y1="432.17" x2="141.36" y2="432.17"/><line class="cls-6" x1="133.74" y1="432.17" x2="118.45" y2="432.17"/><g class="cls-1"><path class="cls-2" d="M543.81,440.63c-7.21,0-16-5.1-19.65-11.34L509,403.09c-3.6-6.24-3.6-16.45,0-22.69l15.12-26.18c3.6-6.24,12.45-11.34,19.65-11.34H574c7.21,0,16,5.1,19.65,11.34l15.12,26.18c3.6,6.24,3.6,16.45,0,22.69L593.7,429.28c-3.6,6.24-12.45,11.35-19.65,11.35H543.81Z" transform="translate(-59.93 -96.54)"/></g><g class="cls-1"><line class="cls-2" x1="434.97" y1="295.21" x2="419.69" y2="295.21"/><line class="cls-9" x1="393.17" y1="295.21" x2="342.02" y2="295.21"/><line class="cls-2" x1="332.55" y1="295.21" x2="317.27" y2="295.21"/></g><g class="cls-1"><path class="cls-2" d="M545.11,550.08c-5.3,0-11.79-3.75-14.44-8.34L519.56,522.5c-2.65-4.59-2.65-12.09,0-16.68l11.11-19.25c2.65-4.59,9.15-8.34,14.44-8.34h22.23c5.3,0,11.8,3.75,14.44,8.34l11.11,19.25c2.65,4.59,2.65,12.09,0,16.68l-11.11,19.25c-2.65,4.59-9.15,8.34-14.44,8.34H545.11Z" transform="translate(-59.93 -96.54)"/></g><g class="cls-1"><line class="cls-2" x1="449.76" y1="417.62" x2="438.53" y2="417.62"/><line class="cls-10" x1="419.03" y1="417.62" x2="381.44" y2="417.62"/><line class="cls-2" x1="374.48" y1="417.62" x2="363.24" y2="417.62"/></g><g class="cls-1"><path class="cls-2" d="M521.27,148.18a12.78,12.78,0,0,1-10-5.76l-7.68-13.3a12.78,12.78,0,0,1,0-11.52l7.68-13.3a12.78,12.78,0,0,1,10-5.76h15.36a12.78,12.78,0,0,1,10,5.76l7.68,13.3a12.78,12.78,0,0,1,0,11.52l-7.68,13.3a12.78,12.78,0,0,1-10,5.76H521.27Z" transform="translate(-59.93 -96.54)"/></g><g class="cls-1"><line class="cls-2" x1="435.3" y1="26.82" x2="427.54" y2="26.82"/><line class="cls-11" x1="414.07" y1="26.82" x2="388.1" y2="26.82"/><line class="cls-2" x1="383.29" y1="26.82" x2="375.53" y2="26.82"/></g><g class="cls-12"><path class="cls-2" d="M390.71,343.52a8.39,8.39,0,0,1-6.55-3.78l-9.29-16.08a8.39,8.39,0,0,1,0-7.56L384.16,300a8.39,8.39,0,0,1,6.55-3.78h18.57a8.39,8.39,0,0,1,6.55,3.78l9.29,16.08a8.38,8.38,0,0,1,0,7.56l-9.29,16.08a8.39,8.39,0,0,1-6.55,3.78H390.71Z" transform="translate(-59.93 -96.54)"/></g><g class="cls-12"><line class="cls-2" x1="327.17" y1="222.96" x2="311.88" y2="222.96"/><line class="cls-13" x1="299.58" y1="222.96" x2="291.67" y2="222.96"/><line class="cls-2" x1="285.51" y1="222.96" x2="270.23" y2="222.96"/></g><g class="cls-12"><path class="cls-6" d="M548.81,250.33a8.39,8.39,0,0,1-6.55-3.78L533,230.46a8.39,8.39,0,0,1,0-7.56l9.29-16.08a8.39,8.39,0,0,1,6.55-3.78h18.56a8.39,8.39,0,0,1,6.55,3.78l9.29,16.08a8.38,8.38,0,0,1,0,7.56l-9.29,16.09a8.39,8.39,0,0,1-6.55,3.78H548.81Z" transform="translate(-59.93 -96.54)"/></g><g class="cls-12"><line class="cls-2" x1="460.86" y1="130.14" x2="445.57" y2="130.14"/><line class="cls-14" x1="433.27" y1="130.14" x2="425.36" y2="130.14"/><line class="cls-2" x1="419.2" y1="130.14" x2="403.92" y2="130.14"/></g><path class="cls-15" d="M329.73,479.39c-12,0-26.75-8.51-32.75-18.91L226.73,338.77c-6-10.4-6-27.42,0-37.82L297,179.27c6-10.4,20.74-18.91,32.75-18.91H470.27c12,0,26.75,8.51,32.75,18.91L573.27,301c6,10.4,6,27.42,0,37.82L503,460.48c-6,10.4-20.74,18.91-32.75,18.91H329.73Z" transform="translate(-59.93 -96.54)"/><path class="cls-16" d="M320.38,577.6c-7.21,0-16-5.1-19.65-11.34l-15.12-26.19c-3.6-6.24-3.6-16.45,0-22.69l15.12-26.18c3.6-6.24,12.45-11.34,19.65-11.34h30.24c7.2,0,16,5.11,19.65,11.35l15.11,26.18c3.6,6.24,3.6,16.45,0,22.69l-15.11,26.18c-3.6,6.24-12.44,11.35-19.65,11.35H320.38Z" transform="translate(-59.93 -96.54)"/><path class="cls-17" d="M548.81,250.33a8.39,8.39,0,0,1-6.55-3.78L533,230.46a8.39,8.39,0,0,1,0-7.56l9.29-16.08a8.39,8.39,0,0,1,6.55-3.78h18.56a8.39,8.39,0,0,1,6.55,3.78l9.29,16.08a8.38,8.38,0,0,1,0,7.56l-9.29,16.09a8.39,8.39,0,0,1-6.55,3.78H548.81Z" transform="translate(-59.93 -96.54)"/><path class="cls-2" d="M292.19,209.66c-7.21,0-16-5.1-19.65-11.34l-15.12-26.19c-3.6-6.24-3.6-16.45,0-22.69l15.12-26.19c3.6-6.24,12.45-11.34,19.65-11.34h30.24c7.21,0,16,5.11,19.65,11.35l15.11,26.18c3.6,6.24,3.6,16.45,0,22.69l-15.12,26.19c-3.6,6.24-12.44,11.35-19.65,11.35H292.19Z" transform="translate(-59.93 -96.54)"/><line class="cls-2" x1="173.47" y1="64.24" x2="158.19" y2="64.24"/><line class="cls-18" x1="140.7" y1="64.24" x2="106.96" y2="64.24"/><line class="cls-2" x1="100.72" y1="64.24" x2="85.43" y2="64.24"/><path class="cls-2" d="M531.56,370.89A8.39,8.39,0,0,1,525,367.1L515.72,351a8.39,8.39,0,0,1,0-7.56L525,327.38a8.39,8.39,0,0,1,6.55-3.78h18.57a8.39,8.39,0,0,1,6.55,3.78L566,343.46a8.38,8.38,0,0,1,0,7.56l-9.29,16.08a8.39,8.39,0,0,1-6.55,3.78H531.56Z" transform="translate(-59.93 -96.54)"/><line class="cls-2" x1="455" y1="250.7" x2="439.71" y2="250.7"/><line class="cls-19" x1="427.4" y1="250.7" x2="419.49" y2="250.7"/><line class="cls-2" x1="413.33" y1="250.7" x2="398.05" y2="250.7"/><path class="cls-20" d="M515.35,746.12a1.76,1.76,0,0,1-.49-1.31V691.31a1.91,1.91,0,0,1,.49-1.35,1.7,1.7,0,0,1,1.31-.53h19q8.82,0,13.81,4.17t5,12.33q0,6.45-3.19,10.42a15.92,15.92,0,0,1-9.15,5.35l13.15,22.38a2,2,0,0,1,.24.9,1.67,1.67,0,0,1-1.63,1.63h-1a2.73,2.73,0,0,1-1.84-.53,6.44,6.44,0,0,1-1.27-1.67l-13-22H520v22.38a1.69,1.69,0,0,1-.53,1.31,1.91,1.91,0,0,1-1.35.49h-1.47A1.77,1.77,0,0,1,515.35,746.12Zm19.93-28.59q7.11,0,10.58-2.9t3.47-8.7q0-5.8-3.47-8.7t-10.58-2.9H520v23.2h15.28Z" transform="translate(-59.93 -96.54)"/><path class="cls-20" d="M563.55,746.12a1.77,1.77,0,0,1-.49-1.31V691.31a1.92,1.92,0,0,1,.49-1.35,1.69,1.69,0,0,1,1.31-.53h31.86a1.71,1.71,0,0,1,1.88,1.88v1.23a1.69,1.69,0,0,1-.53,1.31,1.91,1.91,0,0,1-1.35.49H568.2v20.83h26.71A1.71,1.71,0,0,1,596.8,717v1.23a1.69,1.69,0,0,1-.53,1.31,1.91,1.91,0,0,1-1.35.49H568.2v21.65h29.16a1.71,1.71,0,0,1,1.88,1.88v1.22a1.69,1.69,0,0,1-.53,1.31,1.92,1.92,0,0,1-1.35.49H564.85A1.76,1.76,0,0,1,563.55,746.12Z" transform="translate(-59.93 -96.54)"/><path class="cls-20" d="M602.1,746.12a1.57,1.57,0,0,1-.49-1.14l0.16-.9,20.67-53a2.37,2.37,0,0,1,2.37-1.63h2.78a2.37,2.37,0,0,1,2.37,1.63l20.67,53,0.16,0.9a1.68,1.68,0,0,1-1.63,1.63h-1.63a1.69,1.69,0,0,1-1.18-.41,2.29,2.29,0,0,1-.61-0.82l-5.06-13.07H611.74l-5.06,13.07a2.31,2.31,0,0,1-.61.82,1.69,1.69,0,0,1-1.18.41h-1.63A1.56,1.56,0,0,1,602.1,746.12Zm11.6-18.71h25l-12.5-32.19Z" transform="translate(-59.93 -96.54)"/><path class="cls-20" d="M658.8,741.42q-5.31-6-5.72-16.13-0.08-2.21-.08-7.19t0.08-7.35q0.41-10.13,5.72-16.13t15.93-6a24.84,24.84,0,0,1,12.09,2.65A18,18,0,0,1,694,698a18.62,18.62,0,0,1,2.57,8.29v0.16a1.31,1.31,0,0,1-.49,1.06,1.85,1.85,0,0,1-1.23.41h-1.63a1.77,1.77,0,0,1-1.8-1.72q-1.55-6.94-5.64-9.8t-11-2.86q-7.68,0-11.93,4.33t-4.57,13.32q-0.08,2.2-.08,6.78t0.08,6.94q0.33,9,4.57,13.31t11.93,4.33q6.94,0,11-2.86t5.64-9.8a1.77,1.77,0,0,1,1.8-1.72h1.63a1.9,1.9,0,0,1,1.27.45,1.28,1.28,0,0,1,.45,1.18,18.61,18.61,0,0,1-2.57,8.29,18,18,0,0,1-7.15,6.7,24.82,24.82,0,0,1-12.09,2.65Q664.1,747.43,658.8,741.42Z" transform="translate(-59.93 -96.54)"/><path class="cls-20" d="M717.45,746.12a1.76,1.76,0,0,1-.49-1.31V694.33H700.78a1.69,1.69,0,0,1-1.8-1.8v-1.23a1.92,1.92,0,0,1,.49-1.35,1.7,1.7,0,0,1,1.31-.53H738.2a1.71,1.71,0,0,1,1.88,1.88v1.23a1.69,1.69,0,0,1-.53,1.31,1.91,1.91,0,0,1-1.35.49H722.1v50.48a1.69,1.69,0,0,1-.53,1.31,1.91,1.91,0,0,1-1.35.49h-1.47A1.76,1.76,0,0,1,717.45,746.12Z" transform="translate(-59.93 -96.54)"/><path class="cls-20" d="M687.76,778.36a0.48,0.48,0,0,1-.14-0.35V764.53a0.53,0.53,0,0,1,.13-0.37,0.47,0.47,0,0,1,.36-0.14h6a5.32,5.32,0,0,1,3.62,1.07,3.69,3.69,0,0,1,1.2,2.91,3.17,3.17,0,0,1-1.76,2.92,3.64,3.64,0,0,1,2.07,3.31,4,4,0,0,1-1.3,3.1,5.23,5.23,0,0,1-3.64,1.18h-6.19A0.48,0.48,0,0,1,687.76,778.36Zm6-8.4a2.33,2.33,0,0,0,1.62-.52,1.78,1.78,0,0,0,.57-1.39,1.67,1.67,0,0,0-.56-1.34,2.46,2.46,0,0,0-1.63-.48h-3.21V770h3.21Zm0.21,6.33a2.29,2.29,0,0,0,1.68-.59,2.16,2.16,0,0,0,0-3,2.3,2.3,0,0,0-1.67-.59h-3.41v4.18h3.41Z" transform="translate(-59.93 -96.54)"/><path class="cls-20" d="M702.6,778.36a0.48,0.48,0,0,1-.14-0.35V764.53a0.52,0.52,0,0,1,.13-0.37A0.47,0.47,0,0,1,703,764h9.13a0.5,0.5,0,0,1,.52.52v1.39a0.47,0.47,0,0,1-.14.36,0.53,0.53,0,0,1-.37.13h-6.79V770h6.33a0.5,0.5,0,0,1,.52.52v1.3a0.47,0.47,0,0,1-.14.36,0.53,0.53,0,0,1-.37.13h-6.33v3.75h7a0.53,0.53,0,0,1,.37.13,0.47,0.47,0,0,1,.14.36V778a0.47,0.47,0,0,1-.14.36,0.52,0.52,0,0,1-.37.13H703A0.48,0.48,0,0,1,702.6,778.36Z" transform="translate(-59.93 -96.54)"/><path class="cls-20" d="M719.3,778.36a0.48,0.48,0,0,1-.14-0.35V766.6h-3.83a0.48,0.48,0,0,1-.35-0.15,0.51,0.51,0,0,1-.15-0.37v-1.55a0.52,0.52,0,0,1,.13-0.37,0.47,0.47,0,0,1,.36-0.14H725.9a0.5,0.5,0,0,1,.52.52v1.55a0.5,0.5,0,0,1-.52.52h-3.81V778a0.5,0.5,0,0,1-.13.35,0.47,0.47,0,0,1-.36.14h-1.95A0.48,0.48,0,0,1,719.3,778.36Z" transform="translate(-59.93 -96.54)"/><path class="cls-20" d="M726.42,778.38a0.42,0.42,0,0,1-.12-0.31l0-.19,5-13.35A0.75,0.75,0,0,1,732,764h2.28a0.75,0.75,0,0,1,.75.52l5,13.35,0,0.19a0.41,0.41,0,0,1-.13.31,0.43,0.43,0,0,1-.3.12H737.8a0.6,0.6,0,0,1-.6-0.39l-1-2.5h-6.12l-1,2.5a0.6,0.6,0,0,1-.6.39h-1.84A0.42,0.42,0,0,1,726.42,778.38Zm4.43-5.17h4.68l-2.34-6.37Z" transform="translate(-59.93 -96.54)"/><path class="cls-20" d="M189.55,689.49a23.66,23.66,0,0,0-22.7,17.21,22.76,22.76,0,0,0-1,6.13v10.68a22.75,22.75,0,0,0,1,6,23.45,23.45,0,0,0,45.27,0,22.72,22.72,0,0,0,.82-6c0-1.84,0-8.84,0-10.68a22.73,22.73,0,0,0-.83-6.13A23.45,23.45,0,0,0,189.55,689.49Zm8.88,34a8.56,8.56,0,0,1-2.11,5.63,9,9,0,0,1-6.78,3.21,9.46,9.46,0,0,1-7-3.21,8.74,8.74,0,0,1-2.32-5.63V713.31a9,9,0,0,1,2.83-6.25,9.19,9.19,0,0,1,6.4-2.59,9.06,9.06,0,0,1,6.24,2.59,8.64,8.64,0,0,1,2.72,6.25C198.4,715.21,198.43,721.61,198.43,723.52Z" transform="translate(-59.93 -96.54)"/><path class="cls-20" d="M407.93,689.49a23.63,23.63,0,0,0-22.67,17.21,22.75,22.75,0,0,0-1,6.13v10.68a22.74,22.74,0,0,0,.93,6,23.44,23.44,0,0,0,45.25,0,22.72,22.72,0,0,0,.81-6c0-1.84,0-8.84,0-10.68a22.73,22.73,0,0,0-.83-6.13A23.45,23.45,0,0,0,407.93,689.49Zm8.88,34a8.56,8.56,0,0,1-2.11,5.63,9,9,0,0,1-6.78,3.21,9.41,9.41,0,0,1-7-3.21,8.72,8.72,0,0,1-2.3-5.63V713.31a9,9,0,0,1,2.81-6.25,9.16,9.16,0,0,1,6.39-2.59,9,9,0,0,1,6.24,2.59,8.64,8.64,0,0,1,2.71,6.25C416.78,715.21,416.81,721.61,416.81,723.52Z" transform="translate(-59.93 -96.54)"/><path class="cls-20" d="M159,691.16H145v25.12l-12.9-22.53a5.51,5.51,0,0,0-4.43-2.58H114v54h8.42A5.31,5.31,0,0,0,128,740V714.82l17.32,30.34h8.52a4.92,4.92,0,0,0,5.16-5.09V691.16Z" transform="translate(-59.93 -96.54)"/><path class="cls-20" d="M360,732.16v-41H347v54h26c3.35,0,5-2.62,5-5.36v-7.64H360Z" transform="translate(-59.93 -96.54)"/><path class="cls-20" d="M320.73,690.8H294.38v54.64h8.46A5.18,5.18,0,0,0,308,740V729.41h12.77A19.31,19.31,0,0,0,320.73,690.8Zm0,24.73H308V704.69h12.73A5.42,5.42,0,0,1,320.76,715.52Z" transform="translate(-59.93 -96.54)"/><path class="cls-20" d="M237.58,745.44c3.37,0,4.8-2,5.6-4.07,0.17-.45,4-13.43,7.71-26l7.34,24.46,1.68,5.3H267a5.29,5.29,0,0,0,4.88-3.17,6.64,6.64,0,0,0,.54-1.07c0.3-.93,14.8-49.76,14.8-49.76H272.67l-7.24,24.59c-3-10-5.87-19.49-6.2-20.62a5.23,5.23,0,0,0-4.93-4H243.55l-7.2,24.44c-3-9.9-5.92-19.37-6.24-20.5a5.27,5.27,0,0,0-5.31-3.95H214.49L230.8,745.6Z" transform="translate(-59.93 -96.54)"/><path class="cls-20" d="M455.91,745.44c3.37,0,4.8-2,5.6-4.07,0.17-.45,4-13.43,7.71-26l7.34,24.46,1.68,5.3h7.08A5.29,5.29,0,0,0,490.2,742a6.64,6.64,0,0,0,.54-1.07c0.3-.93,14.8-49.76,14.8-49.76H491l-7.24,24.59c-3-10-5.87-19.49-6.2-20.62a5.23,5.23,0,0,0-4.93-4H461.89l-7.2,24.44c-3-9.9-5.92-19.37-6.24-20.5a5.27,5.27,0,0,0-5.31-3.95H432.82l16.31,54.43Z" transform="translate(-59.93 -96.54)"/><path class="cls-20" d="M104.58,720.78a17.18,17.18,0,0,0-6.86-5.39,64.53,64.53,0,0,0-10.44-3.56,72.53,72.53,0,0,1-7.73-2.52c-1.71-.71-3.12-1.19-3.12-2.53a2.28,2.28,0,0,1,1.12-2.25,10.89,10.89,0,0,1,5.68-1.2,10.18,10.18,0,0,1,5.45,1.24,4.91,4.91,0,0,1,1.75,1.59H105.5v-0.71a14.18,14.18,0,0,0-3-7.75,19.82,19.82,0,0,0-7.7-6,27.2,27.2,0,0,0-11.57-2.29,28.75,28.75,0,0,0-11.16,2,18.08,18.08,0,0,0-7.84,6,15.81,15.81,0,0,0-.52,17.25,17,17,0,0,0,6.49,5.56A49.37,49.37,0,0,0,80,723.78c3.8,1.06,6.66,2,8.5,2.67a8.58,8.58,0,0,1,3,1.73,1.61,1.61,0,0,1,.42,1.27,2.84,2.84,0,0,1-1.38,2.63c-0.92.62-2.88,1.45-7,1.45-2.93,0-5.2-.34-6.54-1.26-1.08-.73-1.76-2.11-2.06-2.11h-15a0.43,0.43,0,0,0,0,.21v0a14.33,14.33,0,0,0,3.24,8.38,19.89,19.89,0,0,0,8.39,5.94,32,32,0,0,0,12,2.09c6.81,0,12.38-1.48,16.56-4.38a15.45,15.45,0,0,0,6.88-13.2A14.23,14.23,0,0,0,104.58,720.78Z" transform="translate(-59.93 -96.54)"/></svg>