<svg id="React" xmlns="http://www.w3.org/2000/svg" viewBox="0 0 800 800"><defs><style>.cls-1{opacity:0.66;}.cls-10,.cls-11,.cls-13,.cls-14,.cls-15,.cls-16,.cls-17,.cls-18,.cls-19,.cls-2,.cls-3,.cls-4,.cls-6,.cls-8,.cls-9{fill:none;stroke:#fff;stroke-linecap:round;stroke-linejoin:round;}.cls-10,.cls-11,.cls-13,.cls-14,.cls-18,.cls-19,.cls-2,.cls-3,.cls-4,.cls-9{stroke-width:4px;}.cls-3{stroke-dasharray:2.62 18.36 7.87 13.12;}.cls-4{stroke-dasharray:4.2 29.37 12.59 20.98;}.cls-5{opacity:0.8;}.cls-15,.cls-16,.cls-17,.cls-6,.cls-8{stroke-width:8px;}.cls-7{opacity:0.6;}.cls-8{stroke-dasharray:3.05 21.34 9.15 15.24;}.cls-9{stroke-dasharray:3.79 26.52 11.37 18.94;}.cls-10{stroke-dasharray:2.78 19.49 8.35 13.92;}.cls-11{stroke-dasharray:1.92 13.47 5.77 9.62;}.cls-12{opacity:0.33;}.cls-13{stroke-dasharray:1.76 12.31;}.cls-14{stroke-dasharray:1.76 12.31;}.cls-15{stroke-dasharray:209.45 69.82 0 46.54 46.54 93.09;}.cls-16{stroke-dasharray:77.6 21.73 0 15.52 15.52 31.04;}.cls-17{stroke-dasharray:109.17 30.57 0 21.83 21.83 43.67;}.cls-18{stroke-dasharray:2.5 17.49 7.5 12.49;}.cls-19{stroke-dasharray:1.76 12.31;}.cls-20{fill:#fff;}</style></defs><title>Snowplow_Website-Home_Icon_React</title><g class="cls-1"><line class="cls-2" x1="183.43" y1="447.64" x2="168.15" y2="447.64"/><line class="cls-3" x1="149.79" y1="447.64" x2="114.37" y2="447.64"/><line class="cls-2" x1="107.81" y1="447.64" x2="92.53" y2="447.64"/></g><g class="cls-1"><path class="cls-2" d="M260.8,528.72c-9.61,0-21.4-6.81-26.2-15.13l-29.34-50.83c-4.8-8.32-4.8-21.93,0-30.25l29.34-50.82c4.8-8.32,16.59-15.13,26.2-15.13h58.69c9.61,0,21.4,6.81,26.2,15.13L375,432.5c4.8,8.32,4.8,21.93,0,30.25l-29.35,50.83c-4.8,8.32-16.59,15.13-26.2,15.13H260.8Z"/></g><line class="cls-2" x1="222.03" y1="319.88" x2="206.75" y2="319.88"/><line class="cls-4" x1="177.38" y1="319.88" x2="120.75" y2="319.88"/><line class="cls-2" x1="110.26" y1="319.88" x2="94.98" y2="319.88"/><g class="cls-5"><path class="cls-6" d="M329.73,479.39c-12,0-26.75-8.51-32.75-18.91L226.73,338.77c-6-10.4-6-27.42,0-37.82L297,179.27c6-10.4,20.74-18.91,32.75-18.91H470.27c12,0,26.75,8.51,32.75,18.91L573.27,301c6,10.4,6,27.42,0,37.82L503,460.48c-6,10.4-20.74,18.91-32.75,18.91H329.73Z"/></g><g class="cls-7"><path class="cls-6" d="M320.38,577.6c-7.21,0-16-5.1-19.65-11.34l-15.12-26.19c-3.6-6.24-3.6-16.45,0-22.69l15.12-26.18c3.6-6.24,12.45-11.34,19.65-11.34h30.24c7.2,0,16,5.11,19.65,11.35l15.11,26.18c3.6,6.24,3.6,16.45,0,22.69l-15.11,26.18c-3.6,6.24-12.44,11.35-19.65,11.35H320.38Z"/></g><line class="cls-6" x1="279.06" y1="528.72" x2="263.78" y2="528.72"/><line class="cls-8" x1="242.44" y1="528.72" x2="201.28" y2="528.72"/><line class="cls-6" x1="193.66" y1="528.72" x2="178.38" y2="528.72"/><g class="cls-1"><path class="cls-2" d="M543.81,440.63c-7.21,0-16-5.1-19.65-11.34L509,403.09c-3.6-6.24-3.6-16.45,0-22.69l15.12-26.18c3.6-6.24,12.45-11.34,19.65-11.34H574c7.21,0,16,5.1,19.65,11.34l15.12,26.18c3.6,6.24,3.6,16.45,0,22.69L593.7,429.28c-3.6,6.24-12.45,11.35-19.65,11.35H543.81Z"/></g><g class="cls-1"><line class="cls-2" x1="494.9" y1="391.75" x2="479.62" y2="391.75"/><line class="cls-9" x1="453.09" y1="391.75" x2="401.95" y2="391.75"/><line class="cls-2" x1="392.48" y1="391.75" x2="377.19" y2="391.75"/></g><g class="cls-1"><path class="cls-2" d="M545.11,550.08c-5.3,0-11.79-3.75-14.44-8.34L519.56,522.5c-2.65-4.59-2.65-12.09,0-16.68l11.11-19.25c2.65-4.59,9.15-8.34,14.44-8.34h22.23c5.3,0,11.8,3.75,14.44,8.34l11.11,19.25c2.65,4.59,2.65,12.09,0,16.68l-11.11,19.25c-2.65,4.59-9.15,8.34-14.44,8.34H545.11Z"/></g><g class="cls-1"><line class="cls-2" x1="509.69" y1="514.16" x2="498.45" y2="514.16"/><line class="cls-10" x1="478.96" y1="514.16" x2="441.37" y2="514.16"/><line class="cls-2" x1="434.4" y1="514.16" x2="423.17" y2="514.16"/></g><g class="cls-1"><path class="cls-2" d="M521.27,148.18a12.78,12.78,0,0,1-10-5.76l-7.68-13.3a12.78,12.78,0,0,1,0-11.52l7.68-13.3a12.78,12.78,0,0,1,10-5.76h15.36a12.78,12.78,0,0,1,10,5.76l7.68,13.3a12.78,12.78,0,0,1,0,11.52l-7.68,13.3a12.78,12.78,0,0,1-10,5.76H521.27Z"/></g><g class="cls-1"><line class="cls-2" x1="495.23" y1="123.36" x2="487.47" y2="123.36"/><line class="cls-11" x1="474" y1="123.36" x2="448.03" y2="123.36"/><line class="cls-2" x1="443.22" y1="123.36" x2="435.46" y2="123.36"/></g><g class="cls-12"><path class="cls-2" d="M390.71,343.52a8.39,8.39,0,0,1-6.55-3.78l-9.29-16.08a8.39,8.39,0,0,1,0-7.56L384.16,300a8.39,8.39,0,0,1,6.55-3.78h18.57a8.39,8.39,0,0,1,6.55,3.78l9.29,16.08a8.38,8.38,0,0,1,0,7.56l-9.29,16.08a8.39,8.39,0,0,1-6.55,3.78H390.71Z"/></g><g class="cls-12"><line class="cls-2" x1="387.09" y1="319.51" x2="371.81" y2="319.51"/><line class="cls-13" x1="359.5" y1="319.51" x2="351.59" y2="319.51"/><line class="cls-2" x1="345.44" y1="319.51" x2="330.16" y2="319.51"/></g><g class="cls-12"><path class="cls-6" d="M548.81,250.33a8.39,8.39,0,0,1-6.55-3.78L533,230.46a8.39,8.39,0,0,1,0-7.56l9.29-16.08a8.39,8.39,0,0,1,6.55-3.78h18.56a8.39,8.39,0,0,1,6.55,3.78l9.29,16.08a8.38,8.38,0,0,1,0,7.56l-9.29,16.09a8.39,8.39,0,0,1-6.55,3.78H548.81Z"/></g><g class="cls-12"><line class="cls-2" x1="520.78" y1="226.68" x2="505.5" y2="226.68"/><line class="cls-14" x1="493.19" y1="226.68" x2="485.28" y2="226.68"/><line class="cls-2" x1="479.13" y1="226.68" x2="463.85" y2="226.68"/></g><path class="cls-15" d="M329.73,479.39c-12,0-26.75-8.51-32.75-18.91L226.73,338.77c-6-10.4-6-27.42,0-37.82L297,179.27c6-10.4,20.74-18.91,32.75-18.91H470.27c12,0,26.75,8.51,32.75,18.91L573.27,301c6,10.4,6,27.42,0,37.82L503,460.48c-6,10.4-20.74,18.91-32.75,18.91H329.73Z"/><path class="cls-16" d="M320.38,577.6c-7.21,0-16-5.1-19.65-11.34l-15.12-26.19c-3.6-6.24-3.6-16.45,0-22.69l15.12-26.18c3.6-6.24,12.45-11.34,19.65-11.34h30.24c7.2,0,16,5.11,19.65,11.35l15.11,26.18c3.6,6.24,3.6,16.45,0,22.69l-15.11,26.18c-3.6,6.24-12.44,11.35-19.65,11.35H320.38Z"/><path class="cls-17" d="M548.81,250.33a8.39,8.39,0,0,1-6.55-3.78L533,230.46a8.39,8.39,0,0,1,0-7.56l9.29-16.08a8.39,8.39,0,0,1,6.55-3.78h18.56a8.39,8.39,0,0,1,6.55,3.78l9.29,16.08a8.38,8.38,0,0,1,0,7.56l-9.29,16.09a8.39,8.39,0,0,1-6.55,3.78H548.81Z"/><path class="cls-2" d="M292.19,209.66c-7.21,0-16-5.1-19.65-11.34l-15.12-26.19c-3.6-6.24-3.6-16.45,0-22.69l15.12-26.19c3.6-6.24,12.45-11.34,19.65-11.34h30.24c7.21,0,16,5.11,19.65,11.35l15.11,26.18c3.6,6.24,3.6,16.45,0,22.69l-15.12,26.19c-3.6,6.24-12.44,11.35-19.65,11.35H292.19Z"/><line class="cls-2" x1="233.4" y1="160.78" x2="218.11" y2="160.78"/><line class="cls-18" x1="200.62" y1="160.78" x2="166.89" y2="160.78"/><line class="cls-2" x1="160.64" y1="160.78" x2="145.36" y2="160.78"/><path class="cls-2" d="M531.56,370.89A8.39,8.39,0,0,1,525,367.1L515.72,351a8.39,8.39,0,0,1,0-7.56L525,327.38a8.39,8.39,0,0,1,6.55-3.78h18.57a8.39,8.39,0,0,1,6.55,3.78L566,343.46a8.38,8.38,0,0,1,0,7.56l-9.29,16.08a8.39,8.39,0,0,1-6.55,3.78H531.56Z"/><line class="cls-2" x1="514.92" y1="347.24" x2="499.64" y2="347.24"/><line class="cls-19" x1="487.33" y1="347.24" x2="479.41" y2="347.24"/><line class="cls-2" x1="473.26" y1="347.24" x2="457.97" y2="347.24"/><path class="cls-20" d="M97.45,718.18q-4.22-3.89-13.21-5.72c-4.67-1-7-1.67-8.87-2.14a13.72,13.72,0,0,1-4.18-1.63,2.86,2.86,0,0,1-1.35-2.5A3.37,3.37,0,0,1,72,703a9.91,9.91,0,0,1,4.68-1,12.6,12.6,0,0,1,4.52.75,7.83,7.83,0,0,1,2.86,1.7l1.08,1.12a5.83,5.83,0,0,0,1.49,1,4.63,4.63,0,0,0,1.82.29H99.12a14.1,14.1,0,0,0-2.81-9,19.54,19.54,0,0,0-7.44-6.08,28.17,28.17,0,0,0-11.77-2.42,21.58,21.58,0,0,0-10.31,2.34A19.2,19.2,0,0,0,58.87,698a14.48,14.48,0,0,0-2.78,8.54q0,6.83,3.82,10.92c2.54,2.73,5.57,4.67,11,5.84l3.58,0.71q5.57,1.19,8.12,1.83a13.1,13.1,0,0,1,3.94,1.55,2.67,2.67,0,0,1,1.39,2.26q0,4.21-9.86,4.21a12.45,12.45,0,0,1-5-.91,8.94,8.94,0,0,1-3.14-2.06c-0.69-.77-0.89-0.88-1.27-1.28a3.36,3.36,0,0,0-2.59-.89H54.24v1.41c0,2.7,1.35,5.32,3.47,7.86a23.08,23.08,0,0,0,8.82,6.19A26.84,26.84,0,0,0,78,746.61a30.81,30.81,0,0,0,11.75-2.1,19.79,19.79,0,0,0,8.76-6,14.27,14.27,0,0,0,3.15-9.17Q101.67,722.07,97.45,718.18Z"/><path class="cls-20" d="M358.12,732.66V693a3.63,3.63,0,0,0-3.83-3.37H343.41v57.18H372c2,0,4.1-1.81,4.1-3.78V732.66h-18Z"/><path class="cls-20" d="M332,694.46c-4-3.24-9.55-4.83-16.63-4.83H291.68v57.18h10.78a4.07,4.07,0,0,0,3.92-3.78V728.3h9c7.08,0,12.62-1.91,16.63-5.18s6-8.17,6-14.44S336,697.7,332,694.46Zm-10.3,19.08a9.51,9.51,0,0,1-5.76,1.69h-9.53V702.16h9.53a9.49,9.49,0,0,1,5.76,1.56,5.55,5.55,0,0,1,2.17,4.81A5.93,5.93,0,0,1,321.67,713.54Z"/><path class="cls-20" d="M205.11,700a20.91,20.91,0,0,0-8.34-7.74,26.25,26.25,0,0,0-23.82,0A20.9,20.9,0,0,0,164.6,700,23.18,23.18,0,0,0,161.35,711c-0.11,3-.11,11.28,0,14.14A23.18,23.18,0,0,0,164.6,736a20.87,20.87,0,0,0,8.35,7.74,26.25,26.25,0,0,0,23.82,0,20.88,20.88,0,0,0,8.34-7.74,23.17,23.17,0,0,0,3.25-10.92c0.1-1.43.1-12.65,0-14.14A23.18,23.18,0,0,0,205.11,700ZM194,724.13a9.72,9.72,0,0,1-2.62,6.14,10.34,10.34,0,0,1-13,0,9.7,9.7,0,0,1-2.62-6.14c-0.14-1.75-.14-10.61,0-12.21a9.7,9.7,0,0,1,2.62-6.14,10.35,10.35,0,0,1,13,0,9.72,9.72,0,0,1,2.62,6.14C194.11,713.51,194.11,722.38,194,724.13Z"/><path class="cls-20" d="M151.07,689.64H140.28V719.1l-15-25.94a7.79,7.79,0,0,0-4.18-3.27,4.47,4.47,0,0,0-.6-0.16,4.55,4.55,0,0,0-.91-0.1H108.7v57.18h10.93a3.69,3.69,0,0,0,3.61-3.68s0-13.14,0-26l17,29.48v0.2H151.2l0.36,0c1.62-.18,3.11-1.56,2.82-3a4.63,4.63,0,0,0,.06-0.72V693A3.23,3.23,0,0,0,151.07,689.64Z"/><path class="cls-20" d="M425.22,700a20.9,20.9,0,0,0-8.34-7.74,26.25,26.25,0,0,0-23.82,0A20.91,20.91,0,0,0,384.7,700,23.17,23.17,0,0,0,381.46,711c-0.11,3-.11,11.28,0,14.14A23.17,23.17,0,0,0,384.7,736a20.88,20.88,0,0,0,8.35,7.74,26.25,26.25,0,0,0,23.82,0,20.87,20.87,0,0,0,8.34-7.74,23.17,23.17,0,0,0,3.25-10.92c0.1-1.43.1-12.65,0-14.14A23.17,23.17,0,0,0,425.22,700Zm-11.15,24.1a9.72,9.72,0,0,1-2.62,6.14,10.34,10.34,0,0,1-13,0,9.71,9.71,0,0,1-2.62-6.14c-0.14-1.75-.14-10.61,0-12.21a9.71,9.71,0,0,1,2.62-6.14,10.34,10.34,0,0,1,13,0,9.72,9.72,0,0,1,2.62,6.14C414.22,713.51,414.22,722.38,414.07,724.13Z"/><path class="cls-20" d="M509.14,689.64H496.94l-16.83,29V693c0-2-2-3.37-3.93-3.37H465.4v0.15l-16.88,29.43V693a3.61,3.61,0,0,0-3.8-3.37H434.36v57.18h10.35c2,0,4.54-1.7,5.68-3.68l15-26v29.68h10.86a7.67,7.67,0,0,0,5.59-3.67l28.86-50C511.84,691.19,511.12,689.64,509.14,689.64Z"/><path class="cls-20" d="M281.87,689.64H271.19l-9.09,28.63L255.65,693a5.17,5.17,0,0,0-4.81-3.4H240l-9.1,28.64-6.66-26.05a3.57,3.57,0,0,0-3.48-2.59H208.91L222.77,744h0l0.72,2.83h11.35a3.63,3.63,0,0,0,3.38-2.63l8.8-27.3L253.93,744h0l0.72,2.83h10.78a3.09,3.09,0,0,0,2.28-1,5.74,5.74,0,0,0,2.05-2.74l16-49.76C286.42,691.35,283.85,689.64,281.87,689.64Z"/><path class="cls-20" d="M521,746.12a1.76,1.76,0,0,1-.49-1.31V691.31A1.91,1.91,0,0,1,521,690a1.7,1.7,0,0,1,1.31-.53h19q8.82,0,13.81,4.17t5,12.33q0,6.45-3.19,10.42a15.92,15.92,0,0,1-9.15,5.35L561,744.08a2,2,0,0,1,.24.9,1.67,1.67,0,0,1-1.63,1.63h-1a2.73,2.73,0,0,1-1.84-.53,6.44,6.44,0,0,1-1.27-1.67l-13-22H525.7v22.38a1.69,1.69,0,0,1-.53,1.31,1.91,1.91,0,0,1-1.35.49h-1.47A1.77,1.77,0,0,1,521,746.12ZM541,717.53q7.11,0,10.58-2.9t3.47-8.7q0-5.8-3.47-8.7T541,694.33H525.7v23.2H541Z"/><path class="cls-20" d="M569.24,746.12a1.77,1.77,0,0,1-.49-1.31V691.31a1.92,1.92,0,0,1,.49-1.35,1.69,1.69,0,0,1,1.31-.53H602.4a1.71,1.71,0,0,1,1.88,1.88v1.23a1.69,1.69,0,0,1-.53,1.31,1.91,1.91,0,0,1-1.35.49H573.89v20.83h26.71a1.71,1.71,0,0,1,1.88,1.88v1.23a1.69,1.69,0,0,1-.53,1.31,1.91,1.91,0,0,1-1.35.49H573.89v21.65h29.16a1.71,1.71,0,0,1,1.88,1.88v1.22a1.69,1.69,0,0,1-.53,1.31,1.92,1.92,0,0,1-1.35.49H570.54A1.76,1.76,0,0,1,569.24,746.12Z"/><path class="cls-20" d="M607.79,746.12a1.57,1.57,0,0,1-.49-1.14l0.16-.9,20.67-53a2.37,2.37,0,0,1,2.37-1.63h2.78a2.37,2.37,0,0,1,2.37,1.63l20.67,53,0.16,0.9a1.68,1.68,0,0,1-1.63,1.63h-1.63a1.69,1.69,0,0,1-1.18-.41,2.29,2.29,0,0,1-.61-0.82l-5.06-13.07H617.43l-5.06,13.07a2.31,2.31,0,0,1-.61.82,1.69,1.69,0,0,1-1.18.41h-1.63A1.56,1.56,0,0,1,607.79,746.12Zm11.6-18.71h25l-12.5-32.19Z"/><path class="cls-20" d="M664.49,741.42q-5.31-6-5.72-16.13-0.08-2.21-.08-7.19t0.08-7.35q0.41-10.13,5.72-16.13t15.93-6a24.84,24.84,0,0,1,12.09,2.65,18,18,0,0,1,7.15,6.7,18.62,18.62,0,0,1,2.57,8.29v0.16a1.31,1.31,0,0,1-.49,1.06,1.85,1.85,0,0,1-1.23.41h-1.63a1.77,1.77,0,0,1-1.8-1.72q-1.55-6.94-5.64-9.8t-11-2.86q-7.68,0-11.93,4.33t-4.57,13.32q-0.08,2.2-.08,6.78t0.08,6.94q0.33,9,4.57,13.31t11.93,4.33q6.94,0,11-2.86t5.64-9.8a1.77,1.77,0,0,1,1.8-1.72h1.63a1.9,1.9,0,0,1,1.27.45,1.28,1.28,0,0,1,.45,1.18,18.61,18.61,0,0,1-2.57,8.29,18,18,0,0,1-7.15,6.7,24.82,24.82,0,0,1-12.09,2.65Q669.79,747.43,664.49,741.42Z"/><path class="cls-20" d="M723.14,746.12a1.76,1.76,0,0,1-.49-1.31V694.33H706.47a1.69,1.69,0,0,1-1.8-1.8v-1.23a1.92,1.92,0,0,1,.49-1.35,1.7,1.7,0,0,1,1.31-.53h37.41a1.71,1.71,0,0,1,1.88,1.88v1.23a1.69,1.69,0,0,1-.53,1.31,1.91,1.91,0,0,1-1.35.49H727.79v50.48a1.69,1.69,0,0,1-.53,1.31,1.91,1.91,0,0,1-1.35.49h-1.47A1.76,1.76,0,0,1,723.14,746.12Z"/><path class="cls-20" d="M693.45,778.36a0.48,0.48,0,0,1-.14-0.35V764.53a0.53,0.53,0,0,1,.13-0.37,0.47,0.47,0,0,1,.36-0.14h6a5.32,5.32,0,0,1,3.62,1.07,3.69,3.69,0,0,1,1.2,2.91,3.17,3.17,0,0,1-1.76,2.92,3.64,3.64,0,0,1,2.07,3.31,4,4,0,0,1-1.3,3.1A5.23,5.23,0,0,1,700,778.5H693.8A0.48,0.48,0,0,1,693.45,778.36Zm6-8.4a2.33,2.33,0,0,0,1.62-.52,1.78,1.78,0,0,0,.57-1.39,1.67,1.67,0,0,0-.56-1.34,2.46,2.46,0,0,0-1.63-.48h-3.21V770h3.21Zm0.21,6.33a2.29,2.29,0,0,0,1.68-.59,2.16,2.16,0,0,0,0-3,2.3,2.3,0,0,0-1.67-.59h-3.41v4.18h3.41Z"/><path class="cls-20" d="M708.29,778.36a0.48,0.48,0,0,1-.14-0.35V764.53a0.52,0.52,0,0,1,.13-0.37,0.47,0.47,0,0,1,.36-0.14h9.13a0.5,0.5,0,0,1,.52.52v1.39a0.47,0.47,0,0,1-.14.36,0.53,0.53,0,0,1-.37.13H711V770h6.33a0.5,0.5,0,0,1,.52.52v1.3a0.47,0.47,0,0,1-.14.36,0.53,0.53,0,0,1-.37.13H711v3.75h7a0.53,0.53,0,0,1,.37.13,0.47,0.47,0,0,1,.14.36V778a0.47,0.47,0,0,1-.14.36,0.52,0.52,0,0,1-.37.13h-9.29A0.48,0.48,0,0,1,708.29,778.36Z"/><path class="cls-20" d="M725,778.36a0.48,0.48,0,0,1-.14-0.35V766.6H721a0.48,0.48,0,0,1-.35-0.15,0.51,0.51,0,0,1-.15-0.37v-1.55a0.52,0.52,0,0,1,.13-0.37A0.47,0.47,0,0,1,721,764h10.58a0.5,0.5,0,0,1,.52.52v1.55a0.5,0.5,0,0,1-.52.52h-3.81V778a0.5,0.5,0,0,1-.13.35,0.47,0.47,0,0,1-.36.14h-1.95A0.48,0.48,0,0,1,725,778.36Z"/><path class="cls-20" d="M732.11,778.38a0.42,0.42,0,0,1-.12-0.31l0-.19,5-13.35a0.75,0.75,0,0,1,.74-0.52H740a0.75,0.75,0,0,1,.75.52l5,13.35,0,0.19a0.41,0.41,0,0,1-.13.31,0.43,0.43,0,0,1-.3.12h-1.84a0.6,0.6,0,0,1-.6-0.39l-1-2.5h-6.12l-1,2.5a0.6,0.6,0,0,1-.6.39h-1.84A0.42,0.42,0,0,1,732.11,778.38Zm4.43-5.17h4.68l-2.34-6.37Z"/></svg>