<svg xmlns="http://www.w3.org/2000/svg" viewBox="0 0 210 210"><defs><style>.cls-1{isolation:isolate;}.cls-2{fill:#5b0098;}.cls-3,.cls-5,.cls-6{mix-blend-mode:screen;}.cls-4,.cls-6{fill:none;stroke:#5b0098;stroke-linecap:round;stroke-linejoin:round;}.cls-5{opacity:0.2;}</style></defs><title>Snowplow_Website-Company_Icon_Control</title><g class="cls-1"><g id="Layer_1" data-name="Layer 1"><path class="cls-2" d="M54.31,134.77a1.92,1.92,0,0,1,1.5.87l1.81,3.14a1.92,1.92,0,0,1,0,1.73l-1.81,3.14a1.92,1.92,0,0,1-1.5.87H50.69a1.92,1.92,0,0,1-1.5-.87l-1.81-3.14a1.92,1.92,0,0,1,0-1.73l1.81-3.14a1.92,1.92,0,0,1,1.5-.87h3.62Z"/><path class="cls-2" d="M54.31,65.49a1.92,1.92,0,0,1,1.5.87l1.81,3.14a1.92,1.92,0,0,1,0,1.73l-1.81,3.14a1.92,1.92,0,0,1-1.5.87H50.69a1.92,1.92,0,0,1-1.5-.87l-1.81-3.14a1.92,1.92,0,0,1,0-1.73l1.81-3.14a1.92,1.92,0,0,1,1.5-.87h3.62Z"/><path class="cls-2" d="M25.85,68a0.85,0.85,0,0,1,.67.39l0.81,1.4a0.85,0.85,0,0,1,0,.77L26.51,72a0.85,0.85,0,0,1-.67.38H24.24A0.85,0.85,0,0,1,23.57,72l-0.81-1.39a0.85,0.85,0,0,1,0-.77l0.81-1.4A0.85,0.85,0,0,1,24.24,68h1.61Z"/><path class="cls-2" d="M175.56,50.87a0.85,0.85,0,0,1,.67.39l0.81,1.4a0.85,0.85,0,0,1,0,.77l-0.81,1.39a0.85,0.85,0,0,1-.67.38h-1.61a0.85,0.85,0,0,1-.67-0.38l-0.81-1.39a0.85,0.85,0,0,1,0-.77l0.81-1.4a0.85,0.85,0,0,1,.67-0.39h1.61Z"/><path class="cls-2" d="M175.8,154.74a0.85,0.85,0,0,1,.67.39l0.81,1.4a0.85,0.85,0,0,1,0,.77l-0.81,1.39a0.85,0.85,0,0,1-.67.39h-1.61a0.85,0.85,0,0,1-.67-0.39l-0.81-1.39a0.85,0.85,0,0,1,0-.77l0.81-1.4a0.85,0.85,0,0,1,.67-0.39h1.61Z"/><path class="cls-2" d="M115.81,189.34a0.85,0.85,0,0,1,.67.39l0.81,1.4a0.85,0.85,0,0,1,0,.77l-0.81,1.39a0.85,0.85,0,0,1-.67.38h-1.61a0.85,0.85,0,0,1-.67-0.38l-0.81-1.39a0.85,0.85,0,0,1,0-.77l0.81-1.4a0.85,0.85,0,0,1,.67-0.39h1.61Z"/><path class="cls-2" d="M115.81,16.23a0.85,0.85,0,0,1,.67.39l0.81,1.4a0.85,0.85,0,0,1,0,.77l-0.81,1.39a0.85,0.85,0,0,1-.67.39h-1.61a0.85,0.85,0,0,1-.67-0.39l-0.81-1.39a0.85,0.85,0,0,1,0-.77l0.81-1.4a0.85,0.85,0,0,1,.67-0.39h1.61Z"/><path class="cls-2" d="M25.85,137.47a0.85,0.85,0,0,1,.67.38l0.81,1.4a0.85,0.85,0,0,1,0,.77l-0.81,1.39a0.85,0.85,0,0,1-.67.38H24.24a0.85,0.85,0,0,1-.67-0.38L22.76,140a0.85,0.85,0,0,1,0-.77l0.81-1.4a0.85,0.85,0,0,1,.67-0.38h1.61Z"/><path class="cls-2" d="M126.56,134.77a1.92,1.92,0,0,1,1.5.87l1.81,3.14a1.93,1.93,0,0,1,0,1.73l-1.81,3.14a1.92,1.92,0,0,1-1.5.87h-3.62a1.92,1.92,0,0,1-1.5-.87l-1.81-3.14a1.93,1.93,0,0,1,0-1.73l1.81-3.14a1.92,1.92,0,0,1,1.5-.87h3.62Z"/><path class="cls-2" d="M87,134.77a1.92,1.92,0,0,1,1.5.87l1.81,3.14a1.93,1.93,0,0,1,0,1.73l-1.81,3.14a1.92,1.92,0,0,1-1.5.87H83.39a1.92,1.92,0,0,1-1.5-.87l-1.81-3.14a1.93,1.93,0,0,1,0-1.73l1.81-3.14a1.92,1.92,0,0,1,1.5-.87H87Z"/><path class="cls-2" d="M161.81,126.27a1.92,1.92,0,0,1,1.5.87l1.81,3.14a1.93,1.93,0,0,1,0,1.73l-1.81,3.14a1.92,1.92,0,0,1-1.5.87h-3.62a1.92,1.92,0,0,1-1.5-.87L154.88,132a1.93,1.93,0,0,1,0-1.73l1.81-3.14a1.92,1.92,0,0,1,1.5-.87h3.62Z"/><path class="cls-2" d="M126.56,65.49a1.92,1.92,0,0,1,1.5.87l1.81,3.14a1.93,1.93,0,0,1,0,1.73l-1.81,3.14a1.92,1.92,0,0,1-1.5.87h-3.62a1.92,1.92,0,0,1-1.5-.87l-1.81-3.14a1.93,1.93,0,0,1,0-1.73l1.81-3.14a1.92,1.92,0,0,1,1.5-.87h3.62Z"/><path class="cls-2" d="M87,65.49a1.92,1.92,0,0,1,1.5.87l1.81,3.14a1.93,1.93,0,0,1,0,1.73l-1.81,3.14a1.92,1.92,0,0,1-1.5.87H83.39a1.92,1.92,0,0,1-1.5-.87l-1.81-3.14a1.93,1.93,0,0,1,0-1.73l1.81-3.14a1.92,1.92,0,0,1,1.5-.87H87Z"/><path class="cls-2" d="M161.81,73.74a1.92,1.92,0,0,1,1.5.87l1.81,3.14a1.93,1.93,0,0,1,0,1.73l-1.81,3.14a1.92,1.92,0,0,1-1.5.87h-3.62a1.92,1.92,0,0,1-1.5-.87l-1.81-3.14a1.93,1.93,0,0,1,0-1.73l1.81-3.14a1.92,1.92,0,0,1,1.5-.87h3.62Z"/><path class="cls-2" d="M66.81,100.13a1.92,1.92,0,0,1,1.5.87l1.81,3.14a1.93,1.93,0,0,1,0,1.73L68.31,109a1.92,1.92,0,0,1-1.5.87H63.19a1.92,1.92,0,0,1-1.5-.87l-1.81-3.14a1.93,1.93,0,0,1,0-1.73L61.69,101a1.92,1.92,0,0,1,1.5-.87h3.62Z"/><path class="cls-2" d="M106.81,100.13a1.92,1.92,0,0,1,1.5.87l1.81,3.14a1.92,1.92,0,0,1,0,1.73L108.31,109a1.92,1.92,0,0,1-1.5.87h-3.62a1.92,1.92,0,0,1-1.5-.87l-1.81-3.14a1.92,1.92,0,0,1,0-1.73l1.81-3.14a1.92,1.92,0,0,1,1.5-.87h3.62Z"/><path class="cls-2" d="M146.81,100.13a1.92,1.92,0,0,1,1.5.87l1.81,3.14a1.93,1.93,0,0,1,0,1.73L148.31,109a1.92,1.92,0,0,1-1.5.87h-3.62a1.92,1.92,0,0,1-1.5-.87l-1.81-3.14a1.93,1.93,0,0,1,0-1.73l1.81-3.14a1.92,1.92,0,0,1,1.5-.87h3.62Z"/><path class="cls-2" d="M103.06,37.88a1.92,1.92,0,0,1,1.5.87l1.81,3.14a1.93,1.93,0,0,1,0,1.73l-1.81,3.14a1.92,1.92,0,0,1-1.5.87H99.44a1.92,1.92,0,0,1-1.5-.87l-1.81-3.14a1.93,1.93,0,0,1,0-1.73l1.81-3.14a1.92,1.92,0,0,1,1.5-.87h3.62Z"/><path class="cls-2" d="M103.06,162.13a1.92,1.92,0,0,1,1.5.87l1.81,3.14a1.93,1.93,0,0,1,0,1.73L104.56,171a1.92,1.92,0,0,1-1.5.87H99.44a1.92,1.92,0,0,1-1.5-.87l-1.81-3.14a1.93,1.93,0,0,1,0-1.73L97.94,163a1.92,1.92,0,0,1,1.5-.87h3.62Z"/><g class="cls-3"><path class="cls-4" d="M134,167.57a13.72,13.72,0,0,0,10.71-6.19l29-50.2a13.72,13.72,0,0,0,0-12.37l-29-50.2A13.72,13.72,0,0,0,134,42.43H76A13.72,13.72,0,0,0,65.3,48.61l-29,50.2a13.72,13.72,0,0,0,0,12.37l29,50.2A13.72,13.72,0,0,0,76,167.57h58Z"/></g></g><g id="Layer_3" data-name="Layer 3"><g class="cls-5"><polyline class="cls-6" points="85 70.36 105 105 145 105"/><polyline class="cls-4" points="85 139.64 105 105 145 105"/><polyline class="cls-6" points="85 139.64 105 105 85 70.35"/></g><g class="cls-3"><g class="cls-3"><path class="cls-4" d="M115,18.4h32.86a13.72,13.72,0,0,1,10.71,6.19L175,53"/></g><g class="cls-3"><path class="cls-4" d="M25,139.64L8.62,111.18a13.73,13.73,0,0,1,0-12.37L25,70.35"/></g><path class="cls-4" d="M115,191.5h32.86a13.73,13.73,0,0,0,10.72-6.18L175,156.91"/></g></g><g id="Layer_5" data-name="Layer 5"><g class="cls-3"><polyline class="cls-6" points="175 53.04 145 105 124.75 70.35 85 70.36 115 18.39"/><polyline class="cls-6" points="25.04 70.35 85.71 70.35 65.71 105 85 139.64 25.04 139.64"/><polyline class="cls-4" points="175 156.91 145 105 125 139.64 85 139.59 115 191.5"/></g></g></g></svg>