<svg id="Infographic" xmlns="http://www.w3.org/2000/svg" viewBox="0 0 1070 280"><defs><style>.cls-1,.cls-10,.cls-11,.cls-13,.cls-14,.cls-15,.cls-16,.cls-17,.cls-18,.cls-19,.cls-20,.cls-21,.cls-22,.cls-23,.cls-24,.cls-25,.cls-26,.cls-27,.cls-3,.cls-34,.cls-35,.cls-37,.cls-38,.cls-4,.cls-40,.cls-41,.cls-42,.cls-43,.cls-44,.cls-45,.cls-46,.cls-47,.cls-48,.cls-49,.cls-5,.cls-50,.cls-51,.cls-52,.cls-53,.cls-54,.cls-55,.cls-56,.cls-57,.cls-58,.cls-59,.cls-6,.cls-60,.cls-61,.cls-63,.cls-64,.cls-65,.cls-7,.cls-8,.cls-9{fill:none;}.cls-1,.cls-10,.cls-15,.cls-38,.cls-42,.cls-9{stroke:#5b0098;}.cls-1,.cls-10,.cls-11,.cls-13,.cls-14,.cls-15,.cls-16,.cls-17,.cls-18,.cls-19,.cls-20,.cls-21,.cls-22,.cls-23,.cls-24,.cls-25,.cls-26,.cls-27,.cls-3,.cls-34,.cls-35,.cls-38,.cls-4,.cls-40,.cls-41,.cls-42,.cls-43,.cls-44,.cls-45,.cls-46,.cls-47,.cls-48,.cls-49,.cls-5,.cls-50,.cls-51,.cls-52,.cls-53,.cls-54,.cls-55,.cls-56,.cls-57,.cls-58,.cls-59,.cls-6,.cls-60,.cls-61,.cls-63,.cls-64,.cls-65,.cls-7,.cls-8,.cls-9{stroke-linecap:round;stroke-linejoin:round;}.cls-1,.cls-14,.cls-22,.cls-23,.cls-24,.cls-26,.cls-27,.cls-34,.cls-35,.cls-64,.cls-65,.cls-7,.cls-8{stroke-width:2px;}.cls-2,.cls-25{opacity:0.66;}.cls-11,.cls-13,.cls-16,.cls-17,.cls-18,.cls-19,.cls-20,.cls-21,.cls-22,.cls-23,.cls-24,.cls-25,.cls-26,.cls-27,.cls-3,.cls-34,.cls-35,.cls-4,.cls-40,.cls-43,.cls-44,.cls-45,.cls-46,.cls-49,.cls-5,.cls-50,.cls-55,.cls-57,.cls-58,.cls-59,.cls-6,.cls-60,.cls-61,.cls-63,.cls-64,.cls-65{stroke:#fff;}.cls-4{stroke-dasharray:0.73 5.09 2.18 3.63;}.cls-5{stroke-dasharray:0.57 3.96 1.7 2.83;}.cls-6{stroke-dasharray:3.96 3.96 0.57 3.96 1.7 2.83;}.cls-14,.cls-41,.cls-47,.cls-48,.cls-51,.cls-52,.cls-53,.cls-54,.cls-56,.cls-7,.cls-8{stroke:#bb73fc;}.cls-11,.cls-8{stroke-dasharray:0.87 6.07 2.6 4.34;}.cls-10{stroke-dasharray:0.82 5.77 2.47 4.12;}.cls-12{opacity:0.33;}.cls-13{stroke-dasharray:0.4 2.82;}.cls-14,.cls-15{stroke-dasharray:0.4 2.82;}.cls-16{stroke-dasharray:0.7 4.88 2.09 3.49;}.cls-17{stroke-dasharray:0.57 4.01 1.72 2.86;}.cls-18{stroke-dasharray:0.76 5.3 2.27 3.79;}.cls-19{stroke-dasharray:5.3 5.3 0.76 5.3 2.27 3.79;}.cls-20{stroke-dasharray:0.94 6.56 2.81 4.69;}.cls-21{stroke-dasharray:6.56 6.56 0.94 6.56 2.81 4.69;}.cls-22{stroke-dasharray:35.72 11.91 0 7.94 7.94 15.88;}.cls-23{stroke-dasharray:47.96 15.99 0 10.66 10.66 21.32;}.cls-24{stroke-dasharray:17.45 4.88 0 3.49 3.49 6.98;}.cls-25{stroke-dasharray:7 7 1 7 3 5;}.cls-26{stroke-dasharray:17.77 4.98 0 3.55 3.55 7.11;}.cls-27{stroke-dasharray:25 7 0 5 5 10;}.cls-28{font-size:18px;}.cls-28,.cls-62{fill:#fff;}.cls-28,.cls-31{font-family:Rubik Medium;}.cls-29{white-space:pre;}.cls-30,.cls-32{font-size:16px;}.cls-30,.cls-33{font-family:Rubik;}.cls-35{stroke-dasharray:33.91 11.3 0 7.54 7.54 15.07;}.cls-36{fill:#5b0098;}.cls-38{stroke-dasharray:24 8 0 4 4 12;}.cls-39{opacity:0.6;}.cls-40,.cls-41{stroke-dasharray:9.41;}.cls-42{stroke-dasharray:21.48;}.cls-43{stroke-dasharray:9.41;}.cls-44{stroke-dasharray:9.41;}.cls-45{stroke-dasharray:9.41;}.cls-46{stroke-dasharray:13.36;}.cls-47{stroke-dasharray:10.79;}.cls-48{stroke-dasharray:89.36;}.cls-49{stroke-dasharray:4.71;}.cls-50,.cls-53{stroke-dasharray:11.78;}.cls-51{stroke-dasharray:17.51;}.cls-52{stroke-dasharray:17.51;}.cls-55{stroke-dasharray:12.82;}.cls-56{stroke-dasharray:19.7;}.cls-57{stroke-dasharray:9.41;}.cls-58{stroke-dasharray:9.41;}.cls-59{stroke-dasharray:4.71;}.cls-60{stroke-dasharray:15.15;}.cls-61{stroke-dasharray:0.35 0.52 0.52 1.73;}.cls-63{stroke-dasharray:21.48 4.3 1.72 2.58 2.58 8.59;}.cls-64{stroke-dasharray:20.82 4.16 1.04 2.08 2.08 8.33;}.cls-65{stroke-dasharray:20 4 1 2 2 8;}</style></defs><title>Snowplow_Website-Products_Infographics_Hero</title><path class="cls-1" d="M173.33,186.32c-6,0-13.47-4.29-16.5-9.52l-42.29-73.26c-3-5.24-3-13.81,0-19l42.29-73.26c3-5.24,10.45-9.52,16.5-9.52h84.59c6,0,13.47,4.29,16.5,9.52l42.29,73.26c3,5.24,3,13.81,0,19l-42.29,73.26c-3,5.24-10.45,9.52-16.5,9.52H173.33Z"/><path class="cls-1" d="M492.67,186.32c-6,0-13.47-4.29-16.5-9.52l-42.29-73.26c-3-5.24-3-13.81,0-19l42.29-73.26c3-5.24,10.45-9.52,16.5-9.52h84.59c6,0,13.47,4.29,16.5,9.52l42.29,73.26c3,5.24,3,13.81,0,19l-42.29,73.26c-3,5.24-10.45,9.52-16.5,9.52H492.67Z"/><path class="cls-1" d="M812.33,186.32c-6,0-13.47-4.29-16.5-9.52l-42.29-73.26c-3-5.24-3-13.81,0-19l42.29-73.26c3-5.24,10.45-9.52,16.5-9.52h84.59c6,0,13.47,4.29,16.5,9.52l42.29,73.26c3,5.24,3,13.81,0,19l-42.29,73.26c-3,5.24-10.45,9.52-16.5,9.52H812.33Z"/><path class="cls-1" d="M958,93.69h99a11,11,0,0,1,11,11V267.3a11,11,0,0,1-11,11H13.07a11,11,0,0,1-11-11V104.69a11,11,0,0,1,11-11H91.3"/><line class="cls-1" x1="638.55" y1="93.69" x2="731.97" y2="93.69"/><line class="cls-1" x1="319.21" y1="93.69" x2="411.95" y2="93.69"/><polyline class="cls-1" points="401.97 82.38 413.28 93.69 401.97 105"/><polyline class="cls-1" points="81.56 82.38 92.88 93.69 81.56 105"/><polyline class="cls-1" points="720.66 82.38 731.97 93.69 720.66 105"/><g class="cls-2"><line class="cls-3" x1="805.76" y1="123.38" x2="802.26" y2="123.38"/><line class="cls-4" x1="797.17" y1="123.38" x2="787.36" y2="123.38"/><line class="cls-3" x1="785.54" y1="123.38" x2="782.04" y2="123.38"/></g><g class="cls-2"><path class="cls-3" d="M823.48,142a7.68,7.68,0,0,1-6-3.46l-6.72-11.64a7.69,7.69,0,0,1,0-6.93l6.72-11.64a7.68,7.68,0,0,1,6-3.46h13.44a7.68,7.68,0,0,1,6,3.46l6.72,11.64a7.69,7.69,0,0,1,0,6.93l-6.72,11.64a7.68,7.68,0,0,1-6,3.46H823.48Z"/></g><line class="cls-3" x1="809.74" y1="94.23" x2="806.24" y2="94.23"/><line class="cls-5" x1="802.28" y1="94.23" x2="794.65" y2="94.23"/><line class="cls-6" x1="793.24" y1="94.23" x2="777.69" y2="94.23"/><line class="cls-3" x1="776.27" y1="94.23" x2="772.77" y2="94.23"/><path class="cls-7" d="M838.83,130.76a9.61,9.61,0,0,1-7.5-4.33L815.24,98.56a9.61,9.61,0,0,1,0-8.66L831.33,62a9.61,9.61,0,0,1,7.5-4.33H871a9.61,9.61,0,0,1,7.5,4.33L894.6,89.9a9.61,9.61,0,0,1,0,8.66l-16.09,27.87a9.61,9.61,0,0,1-7.5,4.33H838.83Z"/><path class="cls-7" d="M836.25,153.14a5.76,5.76,0,0,1-4.5-2.6l-3.46-6a5.76,5.76,0,0,1,0-5.2l3.46-6a5.76,5.76,0,0,1,4.5-2.6h6.92a5.76,5.76,0,0,1,4.5,2.6l3.46,6a5.76,5.76,0,0,1,0,5.2l-3.46,6a5.76,5.76,0,0,1-4.5,2.6h-6.92Z"/><line class="cls-7" x1="827.79" y1="141.95" x2="824.29" y2="141.95"/><line class="cls-8" x1="818.22" y1="141.95" x2="806.5" y2="141.95"/><line class="cls-7" x1="804.34" y1="141.95" x2="800.84" y2="141.95"/><path class="cls-9" d="M829.15,68.89a5.76,5.76,0,0,1-4.5-2.6l-3.46-6a5.76,5.76,0,0,1,0-5.2l3.46-6a5.77,5.77,0,0,1,4.5-2.6h6.92a5.76,5.76,0,0,1,4.5,2.6l3.46,6a5.76,5.76,0,0,1,0,5.2l-3.46,6a5.76,5.76,0,0,1-4.5,2.6h-6.92Z"/><line class="cls-9" x1="815.69" y1="57.7" x2="812.19" y2="57.7"/><line class="cls-10" x1="806.42" y1="57.7" x2="795.29" y2="57.7"/><line class="cls-9" x1="793.23" y1="57.7" x2="789.73" y2="57.7"/><g class="cls-2"><path class="cls-3" d="M893.78,127.39a5.76,5.76,0,0,1-4.5-2.6l-3.46-6a5.76,5.76,0,0,1,0-5.2l3.46-6a5.76,5.76,0,0,1,4.5-2.6h6.92a5.76,5.76,0,0,1,4.5,2.6l3.46,6a5.76,5.76,0,0,1,0,5.2l-3.46,6a5.76,5.76,0,0,1-4.5,2.6h-6.92Z"/></g><g class="cls-2"><line class="cls-3" x1="884.32" y1="116.19" x2="880.82" y2="116.19"/><line class="cls-11" x1="874.74" y1="116.19" x2="863.03" y2="116.19"/><line class="cls-3" x1="860.86" y1="116.19" x2="857.36" y2="116.19"/></g><g class="cls-12"><path class="cls-3" d="M853,99.64a1.92,1.92,0,0,1-1.5-.87l-2.13-3.68a1.92,1.92,0,0,1,0-1.73l2.13-3.68a1.92,1.92,0,0,1,1.5-.87h4.25a1.92,1.92,0,0,1,1.5.87l2.13,3.68a1.92,1.92,0,0,1,0,1.73l-2.13,3.68a1.92,1.92,0,0,1-1.5.87H853Z"/></g><g class="cls-12"><line class="cls-3" x1="846.83" y1="94.23" x2="843.33" y2="94.23"/><line class="cls-13" x1="840.51" y1="94.23" x2="838.7" y2="94.23"/><line class="cls-3" x1="837.29" y1="94.23" x2="833.79" y2="94.23"/></g><g class="cls-12"><path class="cls-7" d="M880.64,74.92a1.92,1.92,0,0,1-1.5-.87L877,70.37a1.92,1.92,0,0,1,0-1.73L879.14,65a1.92,1.92,0,0,1,1.5-.87h4.25a1.92,1.92,0,0,1,1.5.87l2.13,3.68a1.92,1.92,0,0,1,0,1.73l-2.13,3.68a1.92,1.92,0,0,1-1.5.87h-4.25Z"/></g><g class="cls-12"><line class="cls-7" x1="874.51" y1="69.5" x2="871.01" y2="69.5"/><line class="cls-14" x1="868.19" y1="69.5" x2="866.38" y2="69.5"/><line class="cls-7" x1="864.97" y1="69.5" x2="861.47" y2="69.5"/></g><path class="cls-9" d="M888,110.42a1.92,1.92,0,0,1-1.5-.87l-2.13-3.68a1.92,1.92,0,0,1,0-1.73l2.13-3.68a1.92,1.92,0,0,1,1.5-.87h4.25a1.92,1.92,0,0,1,1.5.87l2.13,3.68a1.92,1.92,0,0,1,0,1.73l-2.13,3.68a1.92,1.92,0,0,1-1.5.87H888Z"/><line class="cls-9" x1="881.85" y1="105" x2="878.35" y2="105"/><line class="cls-15" x1="875.53" y1="105" x2="873.72" y2="105"/><line class="cls-9" x1="872.31" y1="105" x2="868.81" y2="105"/><path class="cls-7" d="M190,144.59a5.72,5.72,0,0,1-4.47-2.58l-5-8.67a5.72,5.72,0,0,1,0-5.16l5-8.67a5.72,5.72,0,0,1,4.47-2.58h10a5.72,5.72,0,0,1,4.47,2.58l5,8.67a5.72,5.72,0,0,1,0,5.16l-5,8.67a5.72,5.72,0,0,1-4.47,2.58H190Z"/><path class="cls-7" d="M234,68.89a5.76,5.76,0,0,1-4.5-2.6l-3.46-6a5.76,5.76,0,0,1,0-5.2l3.46-6a5.77,5.77,0,0,1,4.5-2.6h6.92a5.76,5.76,0,0,1,4.5,2.6l3.46,6a5.76,5.76,0,0,1,0,5.2l-3.46,6a5.76,5.76,0,0,1-4.5,2.6H234Z"/><path class="cls-3" d="M152.45,105.22a5.76,5.76,0,0,1-4.5-2.6l-3.46-6a5.76,5.76,0,0,1,0-5.2l3.46-6a5.77,5.77,0,0,1,4.5-2.6h6.92a5.76,5.76,0,0,1,4.5,2.6l3.46,6a5.76,5.76,0,0,1,0,5.2l-3.46,6a5.76,5.76,0,0,1-4.5,2.6h-6.92Z"/><g class="cls-2"><line class="cls-3" x1="219.38" y1="88.81" x2="221.14" y2="85.79"/><line class="cls-16" x1="223.59" y1="81.57" x2="228.32" y2="73.43"/><line class="cls-3" x1="229.19" y1="71.92" x2="230.95" y2="68.89"/></g><g class="cls-2"><line class="cls-3" x1="202.97" y1="116.93" x2="204.75" y2="113.92"/><line class="cls-17" x1="206.8" y1="110.47" x2="210.75" y2="103.83"/><line class="cls-3" x1="211.48" y1="102.59" x2="213.27" y2="99.59"/></g><g class="cls-2"><line class="cls-3" x1="242.7" y1="140.56" x2="240.97" y2="137.52"/><line class="cls-18" x1="238.35" y1="132.91" x2="233.29" y2="124.02"/><line class="cls-19" x1="232.35" y1="122.38" x2="222.05" y2="104.27"/><line class="cls-3" x1="221.12" y1="102.63" x2="219.38" y2="99.59"/></g><g class="cls-2"><line class="cls-3" x1="213.13" y1="88.81" x2="211.36" y2="85.8"/><line class="cls-20" x1="208.03" y1="80.14" x2="201.61" y2="69.23"/><line class="cls-21" x1="200.43" y1="67.21" x2="187.36" y2="44.98"/><line class="cls-3" x1="186.17" y1="42.96" x2="184.39" y2="39.94"/></g><path class="cls-3" d="M245.45,162.94a5.76,5.76,0,0,1-4.5-2.6l-3.46-6a5.76,5.76,0,0,1,0-5.2l3.46-6a5.76,5.76,0,0,1,4.5-2.6h6.92a5.76,5.76,0,0,1,4.5,2.6l3.46,6a5.76,5.76,0,0,1,0,5.2l-3.46,6a5.76,5.76,0,0,1-4.5,2.6h-6.92Z"/><path class="cls-7" d="M178.81,39.94a1.92,1.92,0,0,1-1.5-.87l-2.13-3.68a1.92,1.92,0,0,1,0-1.73L177.31,30a1.92,1.92,0,0,1,1.5-.87h4.25a1.92,1.92,0,0,1,1.5.87l2.13,3.68a1.92,1.92,0,0,1,0,1.73l-2.13,3.68a1.92,1.92,0,0,1-1.5.87h-4.25Z"/><path class="cls-22" d="M190,144.59a5.72,5.72,0,0,1-4.47-2.58l-5-8.67a5.72,5.72,0,0,1,0-5.16l5-8.67a5.72,5.72,0,0,1,4.47-2.58h10a5.72,5.72,0,0,1,4.47,2.58l5,8.67a5.72,5.72,0,0,1,0,5.16l-5,8.67a5.72,5.72,0,0,1-4.47,2.58H190Z"/><path class="cls-23" d="M234,68.89a5.76,5.76,0,0,1-4.5-2.6l-3.46-6a5.76,5.76,0,0,1,0-5.2l3.46-6a5.77,5.77,0,0,1,4.5-2.6h6.92a5.76,5.76,0,0,1,4.5,2.6l3.46,6a5.76,5.76,0,0,1,0,5.2l-3.46,6a5.76,5.76,0,0,1-4.5,2.6H234Z"/><path class="cls-24" d="M178.81,39.94a1.92,1.92,0,0,1-1.5-.87l-2.13-3.68a1.92,1.92,0,0,1,0-1.73L177.31,30a1.92,1.92,0,0,1,1.5-.87h4.25a1.92,1.92,0,0,1,1.5.87l2.13,3.68a1.92,1.92,0,0,1,0,1.73l-2.13,3.68a1.92,1.92,0,0,1-1.5.87h-4.25Z"/><line class="cls-25" x1="167.84" y1="94.03" x2="211.01" y2="94.03"/><path class="cls-23" d="M838.83,130.76a9.61,9.61,0,0,1-7.5-4.33L815.24,98.56a9.61,9.61,0,0,1,0-8.66L831.33,62a9.61,9.61,0,0,1,7.5-4.33H871a9.61,9.61,0,0,1,7.5,4.33L894.6,89.9a9.61,9.61,0,0,1,0,8.66l-16.09,27.87a9.61,9.61,0,0,1-7.5,4.33H838.83Z"/><path class="cls-26" d="M836.25,153.14a5.76,5.76,0,0,1-4.5-2.6l-3.46-6a5.76,5.76,0,0,1,0-5.2l3.46-6a5.76,5.76,0,0,1,4.5-2.6h6.92a5.76,5.76,0,0,1,4.5,2.6l3.46,6a5.76,5.76,0,0,1,0,5.2l-3.46,6a5.76,5.76,0,0,1-4.5,2.6h-6.92Z"/><path class="cls-27" d="M880.64,74.92a1.92,1.92,0,0,1-1.5-.87L877,70.37a1.92,1.92,0,0,1,0-1.73L879.14,65a1.92,1.92,0,0,1,1.5-.87h4.25a1.92,1.92,0,0,1,1.5.87l2.13,3.68a1.92,1.92,0,0,1,0,1.73l-2.13,3.68a1.92,1.92,0,0,1-1.5.87h-4.25Z"/><text class="cls-28" transform="translate(449.85 226.68)">D<tspan x="13.55" y="0">E</tspan><tspan x="25.56" y="0">VE</tspan><tspan x="50.72" y="0">L</tspan><tspan x="61.92" y="0">O</tspan><tspan x="75.33" y="0">P</tspan><tspan class="cls-29" x="87.71" y="0"> INSIGH</tspan><tspan x="158.97" y="0">T</tspan><tspan class="cls-30"><tspan x="-33.01" y="24">Under</tspan><tspan x="16.32" y="24">s</tspan><tspan x="25.23" y="24">tand </tspan><tspan class="cls-31" x="67.34" y="24">w</tspan><tspan class="cls-31" x="81.28" y="24">h</tspan><tspan class="cls-31" x="91.87" y="24">y</tspan><tspan class="cls-31" x="101.45" y="24"> </tspan><tspan x="105.9" y="24">it happened</tspan></tspan></text><text class="cls-28" transform="translate(145.99 226.68)">COLL<tspan x="49.36" y="0">E</tspan><tspan x="61.36" y="0">C</tspan><tspan x="74.59" y="0">T</tspan><tspan x="85.97" y="0"> </tspan><tspan x="90.97" y="0">D</tspan><tspan x="104.27" y="0">AT</tspan><tspan x="126.84" y="0">A</tspan><tspan class="cls-30"><tspan x="-25.28" y="24">R</tspan><tspan x="-14.12" y="24">eco</tspan><tspan x="15.18" y="24">r</tspan><tspan x="21.82" y="24">d </tspan><tspan class="cls-31" x="36.86" y="24">wh</tspan><tspan class="cls-31" x="61.67" y="24">a</tspan><tspan class="cls-31" x="71.55" y="24">t</tspan><tspan class="cls-29" x="79.24" y="24"> happened</tspan></tspan></text><text class="cls-28" transform="translate(837.41 226.68)">A<tspan x="13.14" y="0">C</tspan><tspan x="26.37" y="0">T</tspan><tspan class="cls-32"><tspan x="-56.86" y="24">Change </tspan><tspan class="cls-33" x="11.69" y="24">the</tspan><tspan class="cls-33" x="38.95" y="24"> </tspan><tspan class="cls-33" x="43.38" y="24">futu</tspan><tspan class="cls-33" x="78.1" y="24">r</tspan><tspan class="cls-33" x="84.76" y="24">e</tspan></tspan></text><g class="cls-2"><path class="cls-34" d="M182.51,93.85S198.59,75,216.42,75s33.91,18.84,33.91,18.84-14.57,18.84-33.91,18.84S182.51,93.85,182.51,93.85Z"/></g><circle class="cls-7" cx="216.42" cy="93.85" r="18.84" transform="translate(-2.97 180.53) rotate(-45)"/><circle class="cls-35" cx="216.42" cy="93.85" r="18.84" transform="translate(-2.98 180.52) rotate(-45)"/><path class="cls-36" d="M216.42,86.32a7.49,7.49,0,0,0-3.13.69,2.63,2.63,0,1,1-3.71,3.71A7.53,7.53,0,1,0,216.42,86.32Z"/><path class="cls-37" d="M211.53,91.59a2.66,2.66,0,1,0-2-.87A2.63,2.63,0,0,0,211.53,91.59Z"/><circle class="cls-38" cx="216.42" cy="94.03" r="40"/><g class="cls-39"><line class="cls-40" x1="573.33" y1="85.93" x2="566.68" y2="92.59"/><line class="cls-41" x1="568.63" y1="120.37" x2="575.28" y2="127.03"/><circle class="cls-42" cx="576.35" cy="128.12" r="1.24" transform="translate(78.13 444.94) rotate(-44.99)"/><line class="cls-43" x1="570.67" y1="108.05" x2="561.26" y2="108.05"/><line class="cls-44" x1="534.96" y1="55.92" x2="541.61" y2="62.57"/><line class="cls-45" x1="562" y1="130.03" x2="562" y2="120.61"/><line class="cls-46" x1="566.5" y1="71.55" x2="553.13" y2="71.55"/><line class="cls-47" x1="495.64" y1="101.36" x2="484.86" y2="101.36"/><circle class="cls-48" cx="483.33" cy="101.34" r="5.15"/><circle class="cls-48" cx="576.35" cy="128.12" r="5.16"/><circle class="cls-48" cx="485.78" cy="55.92" r="5.15"/><circle class="cls-48" cx="505.68" cy="149.29" r="5.15"/><circle class="cls-48" cx="549.38" cy="29.82" r="5.15"/><circle class="cls-48" cx="562.38" cy="45.61" r="5.15"/><circle class="cls-42" cx="483.33" cy="101.34" r="1.24"/><line class="cls-49" x1="538.19" y1="87.97" x2="534.86" y2="84.64"/><line class="cls-50" x1="549.62" y1="58.79" x2="537.84" y2="58.79"/><line class="cls-51" x1="519.16" y1="135.84" x2="506.78" y2="148.22"/><circle class="cls-42" cx="505.68" cy="149.29" r="1.24" transform="translate(42.4 401.03) rotate(-44.97)"/><circle class="cls-48" cx="588.58" cy="78.07" r="5.15" transform="translate(117.19 439.05) rotate(-45)"/><line class="cls-52" x1="569.54" y1="78.04" x2="587.05" y2="78.04"/><circle class="cls-42" cx="588.58" cy="78.07" r="1.24"/><line class="cls-53" x1="561.15" y1="45.63" x2="549.37" y2="45.63"/><circle class="cls-42" cx="562.39" cy="45.61" r="1.24"/><polyline class="cls-3" points="549.95 123.99 539.24 113.28 539.24 108.51 534.86 108.51"/><polyline class="cls-54" points="486.66 57.03 497.37 67.74 502.14 67.74 502.14 72.12"/><circle class="cls-42" cx="485.78" cy="56.12" r="1.24" transform="translate(102.43 359.72) rotate(-44.97)"/><line class="cls-55" x1="545.41" y1="106.51" x2="545.41" y2="119.33"/><line class="cls-56" x1="549.39" y1="31.08" x2="549.39" y2="50.78"/><circle class="cls-42" cx="549.36" cy="29.82" r="1.24"/><path class="cls-7" d="M560.2,132.26a3.24,3.24,0,0,1-2,.82H554a3.24,3.24,0,0,0-2,.82l-3.94,3.94a3.24,3.24,0,0,1-2,.82h-7.75a3.27,3.27,0,0,1-2-.82l-0.7-.69a3.2,3.2,0,0,1-.83-2V52.25a3.33,3.33,0,0,1,.81-2l1.52-1.58a3.14,3.14,0,0,1,2-.84H543a3.07,3.07,0,0,1,2,.85l1.59,1.71a3.07,3.07,0,0,0,2,.85h2.17a3.22,3.22,0,0,1,2,.82L563.68,63.2a3.25,3.25,0,0,1,.82,2v3.18a3.19,3.19,0,0,0,.83,2l3,2.94a3.19,3.19,0,0,1,.83,2v3.64a3.15,3.15,0,0,0,.84,2l2.67,2.57a3.15,3.15,0,0,1,.84,2v16.74a3.31,3.31,0,0,1-.81,2l-1.17,1.2a3.31,3.31,0,0,0-.81,2v9.22a3.33,3.33,0,0,1-.81,2l-2.26,2.35a3.33,3.33,0,0,0-.81,2v1.55a3.23,3.23,0,0,1-.82,2Z"/><polyline class="cls-3" points="561.56 71.55 561.56 79.87 549.45 91.98"/><line class="cls-40" x1="534.86" y1="96.81" x2="528.21" y2="90.15"/><line class="cls-43" x1="534.77" y1="70.68" x2="525.36" y2="70.68"/><line class="cls-57" x1="502.89" y1="124.32" x2="502.89" y2="114.9"/><line class="cls-58" x1="529.03" y1="47.83" x2="529.03" y2="57.24"/><line class="cls-45" x1="528.03" y1="109.24" x2="518.61" y2="109.24"/><line class="cls-59" x1="499.48" y1="92.82" x2="496.16" y2="96.15"/><polyline class="cls-3" points="515.66 64.36 504.95 75.07 504.95 79.84 500.57 79.84"/><line class="cls-60" x1="524.2" y1="122.25" x2="513.49" y2="132.96"/><path class="cls-7" d="M509.52,132.26a3.24,3.24,0,0,0,2,.82h4.19a3.24,3.24,0,0,1,2,.82l3.94,3.94a3.24,3.24,0,0,0,2,.82h7.75a3.27,3.27,0,0,0,2-.82l0.7-.69a3.2,3.2,0,0,0,.83-2V52.25a3.33,3.33,0,0,0-.81-2l-1.52-1.58a3.14,3.14,0,0,0-2-.84h-3.8a3.06,3.06,0,0,0-2,.85l-1.59,1.71a3.06,3.06,0,0,1-2,.85H519.1a3.22,3.22,0,0,0-2,.82L506,63.2a3.25,3.25,0,0,0-.82,2v3.18a3.19,3.19,0,0,1-.83,2l-3,2.94a3.19,3.19,0,0,0-.83,2v3.64a3.15,3.15,0,0,1-.84,2l-2.66,2.57a3.15,3.15,0,0,0-.84,2v16.74a3.31,3.31,0,0,0,.81,2l1.17,1.2a3.31,3.31,0,0,1,.81,2v9.22a3.33,3.33,0,0,0,.81,2l2.26,2.35a3.33,3.33,0,0,1,.81,2v1.55a3.23,3.23,0,0,0,.82,2Z"/><polyline class="cls-3" points="523.32 109.24 523.32 100.92 521.61 99.21"/><line class="cls-61" x1="521" y1="98.6" x2="519.42" y2="97.01"/><line class="cls-3" x1="518.81" y1="96.4" x2="511.21" y2="88.81"/><circle class="cls-62" cx="559.73" cy="142.03" r="1.2"/><circle class="cls-36" cx="488.96" cy="91.64" r="1.2"/><circle class="cls-36" cx="577.59" cy="72.91" r="1.2"/><circle class="cls-62" cx="499.48" cy="61.07" r="1.2"/><circle class="cls-36" cx="541.44" cy="39.25" r="1.2"/><circle class="cls-62" cx="584.06" cy="114.26" r="1.2"/><circle class="cls-62" cx="589.82" cy="89.09" r="1.2"/><circle class="cls-62" cx="474.94" cy="94.48" r="1.2"/><circle class="cls-36" cx="587.73" cy="123.7" r="1.2"/><circle class="cls-36" cx="513.49" cy="158.08" r="1.2"/><circle class="cls-62" cx="506.92" cy="138.66" r="1.2"/><path class="cls-63" d="M509.82,88.71a0.63,0.63,0,0,1-.49-0.28l-0.45-.77a0.63,0.63,0,0,1,0-.57l0.45-.77a0.63,0.63,0,0,1,.49-0.28h0.89a0.63,0.63,0,0,1,.49.28l0.45,0.77a0.63,0.63,0,0,1,0,.57l-0.45.77a0.63,0.63,0,0,1-.49.28h-0.89Z"/><path class="cls-63" d="M500.13,93a0.63,0.63,0,0,1-.49-0.28l-0.45-.77a0.63,0.63,0,0,1,0-.57l0.45-.77a0.63,0.63,0,0,1,.49-0.28H501a0.63,0.63,0,0,1,.49.28L502,91.36a0.63,0.63,0,0,1,0,.57l-0.45.77A0.63,0.63,0,0,1,501,93h-0.89Z"/><path class="cls-63" d="M502.42,114.26a0.63,0.63,0,0,1-.49-0.28l-0.44-.77a0.63,0.63,0,0,1,0-.57l0.44-.77a0.63,0.63,0,0,1,.49-0.28h0.89a0.63,0.63,0,0,1,.49.28l0.45,0.77a0.63,0.63,0,0,1,0,.57l-0.45.77a0.63,0.63,0,0,1-.49.28h-0.89Z"/><path class="cls-63" d="M516.64,110.58a0.63,0.63,0,0,1-.49-0.28l-0.45-.77a0.63,0.63,0,0,1,0-.57l0.45-.77a0.63,0.63,0,0,1,.49-0.28h0.89a0.63,0.63,0,0,1,.49.28l0.45,0.77a0.63,0.63,0,0,1,0,.57l-0.45.77a0.63,0.63,0,0,1-.49.28h-0.89Z"/><path class="cls-63" d="M529.67,110.62a0.63,0.63,0,0,1-.49-0.28l-0.44-.77a0.64,0.64,0,0,1,0-.57l0.44-.77a0.63,0.63,0,0,1,.49-0.28h0.89a0.63,0.63,0,0,1,.49.28L531.5,109a0.63,0.63,0,0,1,0,.57l-0.45.77a0.63,0.63,0,0,1-.49.28h-0.89Z"/><path class="cls-63" d="M525.28,122a0.63,0.63,0,0,1-.49-0.28l-0.45-.77a0.63,0.63,0,0,1,0-.57l0.45-.77a0.63,0.63,0,0,1,.49-0.28h0.89a0.63,0.63,0,0,1,.49.28l0.45,0.77a0.63,0.63,0,0,1,0,.57l-0.45.77a0.63,0.63,0,0,1-.49.28h-0.89Z"/><path class="cls-63" d="M526.66,90.42a0.63,0.63,0,0,1-.49-0.28l-0.45-.77a0.63,0.63,0,0,1,0-.57l0.45-.77a0.63,0.63,0,0,1,.49-0.28h0.89A0.63,0.63,0,0,1,528,88l0.45,0.77a0.63,0.63,0,0,1,0,.57l-0.45.77a0.63,0.63,0,0,1-.49.28h-0.89Z"/><path class="cls-63" d="M523.42,72a0.63,0.63,0,0,1-.49-0.28L522.48,71a0.63,0.63,0,0,1,0-.57l0.45-.77a0.63,0.63,0,0,1,.49-0.28h0.89a0.63,0.63,0,0,1,.49.28l0.45,0.77a0.63,0.63,0,0,1,0,.57l-0.45.77a0.63,0.63,0,0,1-.49.28h-0.89Z"/><path class="cls-63" d="M542.23,65a0.63,0.63,0,0,1-.49-0.28L541.3,64a0.63,0.63,0,0,1,0-.57l0.45-.77a0.63,0.63,0,0,1,.49-0.28h0.89a0.63,0.63,0,0,1,.49.28l0.45,0.77a0.63,0.63,0,0,1,0,.57l-0.45.77a0.63,0.63,0,0,1-.49.28h-0.89Z"/><path class="cls-63" d="M550.41,60.11a0.63,0.63,0,0,1-.49-0.28l-0.44-.77a0.63,0.63,0,0,1,0-.57l0.44-.77a0.63,0.63,0,0,1,.49-0.28h0.89a0.63,0.63,0,0,1,.49.28l0.45,0.77a0.63,0.63,0,0,1,0,.57l-0.45.77a0.63,0.63,0,0,1-.49.28h-0.89Z"/><path class="cls-63" d="M551.16,72.86a0.63,0.63,0,0,1-.49-0.28l-0.45-.77a0.63,0.63,0,0,1,0-.57l0.45-.77a0.63,0.63,0,0,1,.49-0.28H552a0.63,0.63,0,0,1,.49.28L553,71.24a0.63,0.63,0,0,1,0,.57l-0.45.77a0.63,0.63,0,0,1-.49.28h-0.89Z"/><path class="cls-63" d="M548.06,94.16a0.63,0.63,0,0,1-.49-0.28l-0.44-.77a0.64,0.64,0,0,1,0-.57l0.44-.77a0.63,0.63,0,0,1,.49-0.28h0.89a0.63,0.63,0,0,1,.49.28l0.45,0.77a0.63,0.63,0,0,1,0,.57l-0.45.77a0.63,0.63,0,0,1-.49.28h-0.89Z"/><path class="cls-63" d="M565.13,95.06a0.63,0.63,0,0,1-.49-0.28L564.2,94a0.63,0.63,0,0,1,0-.57l0.45-.77a0.63,0.63,0,0,1,.49-0.28H566a0.63,0.63,0,0,1,.49.28L567,93.44a0.63,0.63,0,0,1,0,.57l-0.45.77a0.63,0.63,0,0,1-.49.28h-0.89Z"/><path class="cls-63" d="M559.37,109.24a0.63,0.63,0,0,1-.49-0.28l-0.45-.77a0.63,0.63,0,0,1,0-.57l0.45-.77a0.63,0.63,0,0,1,.49-0.28h0.89a0.63,0.63,0,0,1,.49.28l0.45,0.77a0.63,0.63,0,0,1,0,.57l-0.45.77a0.63,0.63,0,0,1-.49.28h-0.89Z"/><path class="cls-63" d="M561.58,120.42a0.63,0.63,0,0,1-.49-0.28l-0.44-.77a0.63,0.63,0,0,1,0-.57l0.44-.77a0.63,0.63,0,0,1,.49-0.28h0.89a0.63,0.63,0,0,1,.49.28l0.45,0.77a0.63,0.63,0,0,1,0,.57l-0.45.77a0.63,0.63,0,0,1-.49.28h-0.89Z"/><path class="cls-63" d="M550.41,126.24a0.63,0.63,0,0,1-.49-0.28l-0.44-.77a0.63,0.63,0,0,1,0-.57l0.44-.77a0.63,0.63,0,0,1,.49-0.28h0.89a0.63,0.63,0,0,1,.49.28l0.45,0.77a0.63,0.63,0,0,1,0,.57l-0.45.77a0.63,0.63,0,0,1-.49.28h-0.89Z"/><path class="cls-63" d="M538.65,90.9a0.63,0.63,0,0,1-.49-0.28l-0.44-.77a0.64,0.64,0,0,1,0-.57l0.44-.77a0.63,0.63,0,0,1,.49-0.28h0.89a0.63,0.63,0,0,1,.49.28l0.45,0.77a0.63,0.63,0,0,1,0,.57l-0.45.77a0.63,0.63,0,0,1-.49.28h-0.89Z"/><path class="cls-63" d="M545,106.58a0.63,0.63,0,0,1-.49-0.28l-0.45-.77a0.63,0.63,0,0,1,0-.57l0.45-.77a0.63,0.63,0,0,1,.49-0.28h0.89a0.63,0.63,0,0,1,.49.28l0.45,0.77a0.63,0.63,0,0,1,0,.57l-0.45.77a0.63,0.63,0,0,1-.49.28H545Z"/><path class="cls-63" d="M516.62,64.36a0.63,0.63,0,0,1-.49-0.28l-0.45-.77a0.63,0.63,0,0,1,0-.57l0.45-.77a0.63,0.63,0,0,1,.49-0.28h0.89A0.63,0.63,0,0,1,518,62l0.45,0.77a0.63,0.63,0,0,1,0,.57l-0.45.77a0.63,0.63,0,0,1-.49.28h-0.89Z"/><path class="cls-63" d="M528.61,60.13a0.63,0.63,0,0,1-.49-0.28l-0.45-.77a0.63,0.63,0,0,1,0-.57l0.45-.77a0.63,0.63,0,0,1,.49-0.28h0.89a0.63,0.63,0,0,1,.49.28l0.45,0.77a0.63,0.63,0,0,1,0,.57l-0.45.77a0.63,0.63,0,0,1-.49.28h-0.89Z"/></g><path class="cls-64" d="M560.2,132.26a3.24,3.24,0,0,1-2,.82H554a3.24,3.24,0,0,0-2,.82l-3.94,3.94a3.24,3.24,0,0,1-2,.82h-7.75a3.27,3.27,0,0,1-2-.82l-0.7-.69a3.2,3.2,0,0,1-.83-2V52.25a3.33,3.33,0,0,1,.81-2l1.52-1.58a3.14,3.14,0,0,1,2-.84H543a3.07,3.07,0,0,1,2,.85l1.59,1.71a3.07,3.07,0,0,0,2,.85h2.17a3.22,3.22,0,0,1,2,.82L563.68,63.2a3.25,3.25,0,0,1,.82,2v3.18a3.19,3.19,0,0,0,.83,2l3,2.94a3.19,3.19,0,0,1,.83,2v3.64a2.6,2.6,0,0,1-.93,1.85l-3.79,2.8a2.61,2.61,0,0,0-.93,1.85v16.74a1.85,1.85,0,0,0,1.08,1.59l5,2a1.85,1.85,0,0,1,1.08,1.59v9.22a3.33,3.33,0,0,1-.81,2l-2.26,2.35a3.33,3.33,0,0,0-.81,2v1.55a3.23,3.23,0,0,1-.82,2Z"/><path class="cls-65" d="M509.52,132.26a3.24,3.24,0,0,0,2,.82h4.19a3.24,3.24,0,0,1,2,.82l3.94,3.94a3.24,3.24,0,0,0,2,.82h7.75a3.27,3.27,0,0,0,2-.82l0.7-.69a3.2,3.2,0,0,0,.83-2V52.25a3.33,3.33,0,0,0-.81-2l-1.52-1.58a3.14,3.14,0,0,0-2-.84h-3.8a3.06,3.06,0,0,0-2,.85l-1.59,1.71a3.06,3.06,0,0,1-2,.85H519.1a3.22,3.22,0,0,0-2,.82L506,63.2a3.25,3.25,0,0,0-.82,2v3.18a3.19,3.19,0,0,1-.83,2l-3,2.94a3.19,3.19,0,0,0-.83,2v3.64a2.6,2.6,0,0,0,.93,1.85l3.79,2.8a2.6,2.6,0,0,1,.93,1.85v16.74a1.85,1.85,0,0,1-1.08,1.59l-5.05,2a1.85,1.85,0,0,0-1.08,1.59v9.22a3.33,3.33,0,0,0,.81,2l2.26,2.35a3.33,3.33,0,0,1,.81,2v1.55a3.23,3.23,0,0,0,.82,2Z"/></svg>