<svg id="Insigths" xmlns="http://www.w3.org/2000/svg" viewBox="0 0 800 800"><defs><style>.cls-1{fill:#fff;}.cls-2,.cls-20{opacity:0.66;}.cls-10,.cls-11,.cls-12,.cls-13,.cls-14,.cls-15,.cls-16,.cls-17,.cls-18,.cls-19,.cls-20,.cls-21,.cls-22,.cls-3,.cls-4,.cls-5,.cls-6,.cls-7,.cls-8,.cls-9{fill:none;}.cls-10,.cls-11,.cls-12,.cls-13,.cls-14,.cls-15,.cls-16,.cls-17,.cls-18,.cls-19,.cls-20,.cls-21,.cls-3,.cls-4,.cls-5,.cls-6,.cls-7,.cls-8,.cls-9{stroke:#fff;stroke-linecap:round;stroke-linejoin:round;}.cls-12,.cls-13,.cls-14,.cls-17,.cls-18,.cls-3{stroke-width:8px;}.cls-10,.cls-11,.cls-15,.cls-16,.cls-19,.cls-20,.cls-21,.cls-4,.cls-5,.cls-6,.cls-7,.cls-8,.cls-9{stroke-width:4px;}.cls-5{stroke-dasharray:3.36 23.53 10.09 16.81;}.cls-6{stroke-dasharray:23.53 23.53 3.36 23.53 10.09 16.81;}.cls-7{stroke-dasharray:2.23 15.62 6.69 11.16;}.cls-8{stroke-dasharray:2.78 19.44 8.33 13.88;}.cls-9{stroke-dasharray:19.44 19.44 2.78 19.44 8.33 13.88;}.cls-10{stroke-dasharray:3.33 23.34 10 16.67;}.cls-11{stroke-dasharray:23.34 23.34 3.33 23.34 10 16.67;}.cls-12{stroke-dasharray:155.98 51.99 0 34.66 34.66 69.33;}.cls-13{stroke-dasharray:209.45 69.82 0 46.54 46.54 93.09;}.cls-14{stroke-dasharray:76.23 21.34 0 15.25 15.25 30.49;}.cls-15{stroke-dasharray:2.58 18.06 7.74 12.9;}.cls-16{stroke-dasharray:18.06 18.06 2.58 18.06 7.74 12.9;}.cls-17{opacity:0.8;}.cls-18{stroke-dasharray:148.09 49.36 0 32.91 32.91 65.82;}.cls-19{stroke-dasharray:104.8 34.93 0 17.47 17.47 52.4;}.cls-21{stroke-dasharray:45 15 0 10 10 20;}</style></defs><title>Snowplow_Website-Home_Icon_Insights</title><path class="cls-1" d="M474.24,689.43h-1.55a1.69,1.69,0,0,0-1.8,1.8v53.71a1.69,1.69,0,0,0,1.8,1.8h1.55a1.69,1.69,0,0,0,1.8-1.8V691.23A1.69,1.69,0,0,0,474.24,689.43Z"/><path class="cls-1" d="M526.07,689.43h-1.47a1.7,1.7,0,0,0-1.31.53,1.92,1.92,0,0,0-.49,1.35v45.28l-30.21-46.18a2,2,0,0,0-1.72-1h-1.72a1.7,1.7,0,0,0-1.31.53,1.92,1.92,0,0,0-.49,1.35v53.63a1.69,1.69,0,0,0,1.8,1.8h1.47a1.91,1.91,0,0,0,1.35-.49,1.7,1.7,0,0,0,.53-1.31v-45.2l30.13,46a2,2,0,0,0,1.72,1h1.8a1.69,1.69,0,0,0,1.31-.53,1.9,1.9,0,0,0,.49-1.35V691.31A1.71,1.71,0,0,0,526.07,689.43Z"/><path class="cls-1" d="M569.38,720a68.07,68.07,0,0,0-10.48-4.09,103.05,103.05,0,0,1-9.91-3.64,13.37,13.37,0,0,1-5-3.6A9.15,9.15,0,0,1,546,696q3.73-2.46,10-2.46a16.94,16.94,0,0,1,9.78,2.66,9.37,9.37,0,0,1,4.38,6.75,1.57,1.57,0,0,0,.65,1.27,2.11,2.11,0,0,0,1.15.37h1.64a1.62,1.62,0,0,0,1.72-1.64,13.16,13.16,0,0,0-2.37-6.67,16.5,16.5,0,0,0-6.55-5.49,23,23,0,0,0-10.4-2.17,24.51,24.51,0,0,0-10.15,1.92,15,15,0,0,0-6.51,5.28,13.21,13.21,0,0,0-2.25,7.53,14,14,0,0,0,1.72,7.29,13.61,13.61,0,0,0,5.28,4.83,58.47,58.47,0,0,0,9.87,4q7.12,2.29,10.64,3.81a15.53,15.53,0,0,1,5.36,3.52,7.28,7.28,0,0,1,1.84,5.12,9.27,9.27,0,0,1-3.81,7.9q-3.81,2.82-11.59,2.82-7.37,0-11.3-2.95a10.47,10.47,0,0,1-4.5-6.88,1.74,1.74,0,0,0-1.8-1.64H537.2a1.66,1.66,0,0,0-1.23.49,1.57,1.57,0,0,0-.49,1.15,12.78,12.78,0,0,0,2.66,7.21,17.61,17.61,0,0,0,7.21,5.44,27.19,27.19,0,0,0,11.09,2.09q9.58,0,15.07-4.14a13.59,13.59,0,0,0,5.49-11.5,12.41,12.41,0,0,0-1.92-7.21A15.37,15.37,0,0,0,569.38,720Z"/><path class="cls-1" d="M588,689.43h-1.56a1.69,1.69,0,0,0-1.8,1.8v53.71a1.69,1.69,0,0,0,1.8,1.8H588a1.69,1.69,0,0,0,1.8-1.8V691.23A1.69,1.69,0,0,0,588,689.43Z"/><path class="cls-1" d="M641,716.37H623.5a1.7,1.7,0,0,0-1.31.53,1.91,1.91,0,0,0-.49,1.35v1.15a1.91,1.91,0,0,0,.49,1.35,1.69,1.69,0,0,0,1.31.53h14.25v4.18q0,8.52-4.67,12.85t-12.28,4.34q-7.62,0-12-4.18t-4.71-13Q604,723,604,718.09t0.08-7.37q0.33-8.84,4.71-13t12-4.18q6.71,0,10.68,2.95a14.46,14.46,0,0,1,5.36,7.29,3.53,3.53,0,0,0,.66,1.31,1.46,1.46,0,0,0,1.07.33h1.8a1.85,1.85,0,0,0,1.23-.41,1.32,1.32,0,0,0,.49-1.06v-0.16a13.47,13.47,0,0,0-2.5-6.35,19.46,19.46,0,0,0-7.08-6.18,24,24,0,0,0-11.71-2.62q-10.24,0-15.88,5.89t-6,15.8q-0.08,2.46-.08,7.78t0.08,7.78q0.33,9.91,6,15.8t15.88,5.89a24,24,0,0,0,11.87-2.78,18.68,18.68,0,0,0,7.61-7.78,24.5,24.5,0,0,0,2.62-11.55v-7.21A1.71,1.71,0,0,0,641,716.37Z"/><path class="cls-1" d="M691.46,689.43H690a1.7,1.7,0,0,0-1.31.53,1.92,1.92,0,0,0-.49,1.35v23.91h-31.6V691.31a1.71,1.71,0,0,0-1.88-1.88h-1.47a1.7,1.7,0,0,0-1.31.53,1.92,1.92,0,0,0-.49,1.35v53.63a1.69,1.69,0,0,0,1.8,1.8h1.47a1.92,1.92,0,0,0,1.35-.49,1.7,1.7,0,0,0,.53-1.31V720.13h31.6v24.81a1.69,1.69,0,0,0,1.8,1.8h1.47a1.91,1.91,0,0,0,1.35-.49,1.69,1.69,0,0,0,.53-1.31V691.31A1.71,1.71,0,0,0,691.46,689.43Z"/><path class="cls-1" d="M738.45,689.43H701a1.7,1.7,0,0,0-1.31.53,1.92,1.92,0,0,0-.49,1.35v1.23a1.69,1.69,0,0,0,1.8,1.8h16.21v50.6a1.69,1.69,0,0,0,1.8,1.8h1.47a1.91,1.91,0,0,0,1.35-.49,1.7,1.7,0,0,0,.53-1.31v-50.6h16.13a1.92,1.92,0,0,0,1.35-.49,1.7,1.7,0,0,0,.53-1.31v-1.23A1.71,1.71,0,0,0,738.45,689.43Z"/><path class="cls-1" d="M781.56,724.72a15.38,15.38,0,0,0-5.69-4.75,68,68,0,0,0-10.48-4.09,103.23,103.23,0,0,1-9.91-3.64,13.37,13.37,0,0,1-5-3.6,9.15,9.15,0,0,1,2-12.65q3.72-2.46,10-2.46a17,17,0,0,1,9.79,2.66,9.37,9.37,0,0,1,4.38,6.75,1.57,1.57,0,0,0,.66,1.27,2.1,2.1,0,0,0,1.15.37h1.64a1.61,1.61,0,0,0,1.72-1.64,13.13,13.13,0,0,0-2.37-6.67,16.49,16.49,0,0,0-6.55-5.49,23,23,0,0,0-10.4-2.17,24.51,24.51,0,0,0-10.15,1.92,15,15,0,0,0-6.51,5.28,13.2,13.2,0,0,0-2.25,7.53,14,14,0,0,0,1.72,7.29,13.63,13.63,0,0,0,5.28,4.83,58.45,58.45,0,0,0,9.87,4q7.12,2.29,10.64,3.81a15.54,15.54,0,0,1,5.36,3.52,7.27,7.27,0,0,1,1.84,5.12,9.27,9.27,0,0,1-3.81,7.9q-3.81,2.82-11.58,2.82-7.37,0-11.3-2.95a10.47,10.47,0,0,1-4.5-6.88,1.74,1.74,0,0,0-1.8-1.64h-1.64a1.67,1.67,0,0,0-1.23.49,1.57,1.57,0,0,0-.49,1.15,12.78,12.78,0,0,0,2.66,7.21,17.61,17.61,0,0,0,7.21,5.44,27.19,27.19,0,0,0,11.09,2.09q9.58,0,15.07-4.14a13.59,13.59,0,0,0,5.49-11.5A12.42,12.42,0,0,0,781.56,724.72Z"/><path class="cls-1" d="M146,689.7a23.63,23.63,0,0,0-22.67,17.18,22.73,22.73,0,0,0-1,6.12v10.66a22.72,22.72,0,0,0,1,6,23.42,23.42,0,0,0,45.21,0,22.69,22.69,0,0,0,.82-6c0-1.83,0-8.83,0-10.66a22.7,22.7,0,0,0-.83-6.12A23.41,23.41,0,0,0,146,689.7Zm8.87,34a8.55,8.55,0,0,1-2.11,5.63,9,9,0,0,1-6.77,3.21,9.44,9.44,0,0,1-7-3.21,8.73,8.73,0,0,1-2.32-5.63v-10.2a9,9,0,0,1,2.82-6.24,9.18,9.18,0,0,1,6.39-2.59,9,9,0,0,1,6.23,2.59,8.63,8.63,0,0,1,2.71,6.24C154.81,715.38,154.84,721.78,154.84,723.68Z"/><path class="cls-1" d="M364.06,689.7a23.6,23.6,0,0,0-22.64,17.18,22.72,22.72,0,0,0-1,6.12v10.66a22.71,22.71,0,0,0,.93,6,23.4,23.4,0,0,0,45.19,0,22.69,22.69,0,0,0,.81-6c0-1.83,0-8.83,0-10.66a22.7,22.7,0,0,0-.83-6.12A23.42,23.42,0,0,0,364.06,689.7Zm8.87,34a8.55,8.55,0,0,1-2.11,5.63,9,9,0,0,1-6.77,3.21,9.4,9.4,0,0,1-7-3.21,8.71,8.71,0,0,1-2.3-5.63v-10.2a8.93,8.93,0,0,1,2.8-6.24,9.15,9.15,0,0,1,6.38-2.59,9,9,0,0,1,6.23,2.59,8.63,8.63,0,0,1,2.71,6.24C372.9,715.38,372.93,721.78,372.93,723.68Z"/><path class="cls-1" d="M115,691.16H102v25.29L88.85,693.85s-1.77-2.68-4.68-2.68H70v54h8.92A4.79,4.79,0,0,0,84,740.1V715l17.79,30.16h8.51c2.71,0,4.7-1.67,4.7-5v-49Z"/><path class="cls-1" d="M317,732.16v-41H303v54h26.13c3.34,0,4.87-2.48,4.87-5.22v-7.78H317Z"/><path class="cls-1" d="M277,691H250.66v54.57h8.45a5.17,5.17,0,0,0,5.12-5.48V729.57H277A19.28,19.28,0,0,0,277,691Zm0,24.69H264.22V704.88h12.71A5.41,5.41,0,0,1,277,715.7Z"/><path class="cls-1" d="M193.93,745.58c3.37,0,4.8-2,5.59-4.06,0.17-.45,4-13.42,7.7-25.93l7.33,24.36,1.68,5.22h7.07a5.23,5.23,0,0,0,4.87-3.1,7.2,7.2,0,0,0,.54-1.14c0.29-.93,14.78-49.76,14.78-49.76H229l-7.23,24.66c-3-9.94-5.86-19.52-6.19-20.64a5.27,5.27,0,0,0-4.92-4H199.9l-7.19,24.52c-3-9.89-5.92-19.39-6.23-20.52a5.31,5.31,0,0,0-5.31-4h-10.3l16.29,54.47Z"/><path class="cls-1" d="M412,745.58c3.37,0,4.8-2,5.59-4.06,0.17-.45,4-13.42,7.7-25.93l7.33,24.36,1.68,5.22h7.07a5.23,5.23,0,0,0,4.87-3.1,7.2,7.2,0,0,0,.54-1.14c0.29-.93,14.78-49.76,14.78-49.76H447l-7.23,24.66c-3-9.94-5.86-19.52-6.19-20.64a5.27,5.27,0,0,0-4.92-4H417.94l-7.19,24.52c-3-9.89-5.92-19.39-6.23-20.52a5.31,5.31,0,0,0-5.31-4h-10.3l16.29,54.47Z"/><path class="cls-1" d="M61.11,721a17.16,17.16,0,0,0-6.85-5.39A64.45,64.45,0,0,0,43.83,712a72.44,72.44,0,0,1-7.72-2.52c-1.7-.71-3.11-1.18-3.11-2.53a2.27,2.27,0,0,1,1.12-2.24,10.88,10.88,0,0,1,5.67-1.2,10.2,10.2,0,0,1,5.44,1.14,5.45,5.45,0,0,1,1.75,1.5H62v-0.61a14,14,0,0,0-3-7.7,19.75,19.75,0,0,0-7.69-6,27.17,27.17,0,0,0-11.55-2.28,28.71,28.71,0,0,0-11.15,2,18.06,18.06,0,0,0-7.83,6,15.79,15.79,0,0,0-.52,17.23,17,17,0,0,0,6.48,5.55,49.31,49.31,0,0,0,9.77,3.56c3.79,1.06,6.65,2,8.49,2.67a8.57,8.57,0,0,1,3,1.73,1.61,1.61,0,0,1,.42,1.27,2.83,2.83,0,0,1-1.38,2.63c-0.92.62-2.87,1.45-6.94,1.45-2.93,0-5.19-.42-6.53-1.33-1.08-.73-1.76-1.19-2.06-2.19h-15a1.06,1.06,0,0,0,0,.29v0.08a14.37,14.37,0,0,0,3.24,8.39,19.88,19.88,0,0,0,8.38,5.94,32,32,0,0,0,12,2.09c6.8,0,12.36-1.47,16.54-4.37a15.43,15.43,0,0,0,6.88-13.18A14.21,14.21,0,0,0,61.11,721Z"/><g class="cls-2"><path class="cls-3" d="M286.39,541.39c-7.15,0-15.93-5.07-19.51-11.27L245,492.27c-3.58-6.2-3.58-16.34,0-22.53l21.85-37.85c3.58-6.2,12.36-11.27,19.51-11.27h43.71c7.15,0,15.93,5.07,19.51,11.27l21.85,37.85c3.58,6.2,3.58,16.34,0,22.53l-21.85,37.86c-3.58,6.2-12.36,11.27-19.51,11.27H286.39Z"/></g><g class="cls-2"><path class="cls-3" d="M530.49,119c-7.21,0-16-5.1-19.65-11.34L495.71,81.47c-3.6-6.24-3.6-16.45,0-22.69L510.84,32.6c3.6-6.24,12.45-11.34,19.65-11.34h30.23c7.21,0,16,5.11,19.65,11.35l15.11,26.18c3.6,6.24,3.6,16.45,0,22.69l-15.11,26.18c-3.6,6.24-12.45,11.35-19.65,11.35H530.49Z"/></g><path class="cls-4" d="M108.55,368.75c-7.21,0-16-5.1-19.65-11.34L73.76,331.21c-3.6-6.24-3.6-16.45,0-22.69l15.13-26.18C92.5,276.1,101.34,271,108.55,271h30.23c7.21,0,16,5.11,19.65,11.34l15.12,26.18c3.6,6.24,3.6,16.45,0,22.69l-15.12,26.19c-3.6,6.24-12.45,11.35-19.65,11.35H108.55Z"/><g class="cls-2"><line class="cls-4" x1="413.95" y1="298.7" x2="421.52" y2="285.43"/><line class="cls-5" x1="433.19" y1="264.99" x2="455.69" y2="225.57"/><line class="cls-6" x1="459.86" y1="218.27" x2="505.7" y2="137.97"/><line class="cls-4" x1="509.87" y1="130.67" x2="517.44" y2="117.4"/></g><g class="cls-2"><line class="cls-4" x1="346.56" y1="415.46" x2="354.31" y2="402.28"/><line class="cls-7" x1="362.23" y1="388.82" x2="377.5" y2="362.86"/><line class="cls-4" x1="380.33" y1="358.05" x2="388.08" y2="344.88"/></g><g class="cls-2"><line class="cls-4" x1="499.84" y1="497.68" x2="492.16" y2="484.47"/><line class="cls-8" x1="482.39" y1="467.66" x2="463.55" y2="435.25"/><line class="cls-9" x1="460.06" y1="429.25" x2="421.67" y2="363.23"/><line class="cls-4" x1="418.18" y1="357.23" x2="410.5" y2="344.01"/></g><g class="cls-2"><line class="cls-4" x1="387.51" y1="297.84" x2="379.78" y2="284.65"/><line class="cls-10" x1="367.98" y1="264.52" x2="345.21" y2="225.68"/><line class="cls-11" x1="341" y1="218.49" x2="294.62" y2="139.38"/><line class="cls-4" x1="290.41" y1="132.19" x2="282.68" y2="119"/></g><path class="cls-4" d="M511.84,592.85c-7.21,0-16-5.11-19.65-11.35l-15.12-26.19c-3.6-6.24-3.6-16.45,0-22.69l15.12-26.18c3.6-6.24,12.45-11.34,19.65-11.34h30.23c7.21,0,16,5.1,19.65,11.34l15.12,26.18c3.6,6.24,3.6,16.45,0,22.69L561.72,581.5c-3.6,6.24-12.44,11.35-19.65,11.35H511.84Z"/><g class="cls-2"><path class="cls-3" d="M254.88,111.25a8.39,8.39,0,0,1-6.55-3.78L239,91.39a8.39,8.39,0,0,1,0-7.56l9.29-16.09A8.39,8.39,0,0,1,254.88,64h18.56A8.39,8.39,0,0,1,280,67.74l9.29,16.09a8.38,8.38,0,0,1,0,7.56L280,107.47a8.39,8.39,0,0,1-6.55,3.78H254.88Z"/></g><path class="cls-12" d="M286.39,541.39c-7.15,0-15.93-5.07-19.51-11.27L245,492.27c-3.58-6.2-3.58-16.34,0-22.53l21.85-37.85c3.58-6.2,12.36-11.27,19.51-11.27h43.71c7.15,0,15.93,5.07,19.51,11.27l21.85,37.85c3.58,6.2,3.58,16.34,0,22.53l-21.85,37.86c-3.58,6.2-12.36,11.27-19.51,11.27H286.39Z"/><path class="cls-13" d="M530.49,119c-7.21,0-16-5.1-19.65-11.34L495.71,81.47c-3.6-6.24-3.6-16.45,0-22.69L510.84,32.6c3.6-6.24,12.45-11.34,19.65-11.34h30.23c7.21,0,16,5.11,19.65,11.35l15.11,26.18c3.6,6.24,3.6,16.45,0,22.69l-15.11,26.18c-3.6,6.24-12.45,11.35-19.65,11.35H530.49Z"/><path class="cls-14" d="M254.88,111.25a8.39,8.39,0,0,1-6.55-3.78L239,91.39a8.39,8.39,0,0,1,0-7.56l9.29-16.09A8.39,8.39,0,0,1,254.88,64h18.56A8.39,8.39,0,0,1,280,67.74l9.29,16.09a8.38,8.38,0,0,1,0,7.56L280,107.47a8.39,8.39,0,0,1-6.55,3.78H254.88Z"/><g class="cls-2"><line class="cls-4" x1="176.59" y1="319.88" x2="191.87" y2="319.88"/><line class="cls-15" x1="209.93" y1="319.88" x2="244.77" y2="319.88"/><line class="cls-16" x1="251.22" y1="319.88" x2="322.17" y2="319.88"/><line class="cls-4" x1="328.63" y1="319.88" x2="343.91" y2="319.88"/></g><path class="cls-17" d="M341.83,261.7a82.27,82.27,0,1,1,0,116.35A82.27,82.27,0,0,1,341.83,261.7Z"/><path class="cls-18" d="M458.18,378.05a82.27,82.27,0,1,1,0-116.35A82.28,82.28,0,0,1,458.18,378.05Z"/><circle class="cls-1" cx="400" cy="319.57" r="4" transform="translate(-108.81 376.51) rotate(-45.01)"/><path class="cls-19" d="M225.33,319.87A174.67,174.67,0,1,1,400,494.55,174.67,174.67,0,0,1,225.33,319.87Z"/><g class="cls-2"><path class="cls-4" d="M355,319.87s21.34-25,45-25,45,25,45,25-19.33,25-45,25S355,319.87,355,319.87Z"/></g><circle class="cls-20" cx="400" cy="319.88" r="25" transform="translate(-109.03 376.53) rotate(-45)"/><circle class="cls-21" cx="400" cy="319.88" r="25" transform="translate(-109.03 376.52) rotate(-45)"/><path class="cls-1" d="M400,309.87a9.94,9.94,0,0,0-4.16.91,3.49,3.49,0,1,1-4.93,4.93A10,10,0,1,0,400,309.87Z"/><path class="cls-22" d="M393.5,316.87a3.53,3.53,0,1,0-2.59-1.16A3.5,3.5,0,0,0,393.5,316.87Z"/></svg>