<svg xmlns="http://www.w3.org/2000/svg" viewBox="0 0 210 210"><defs><style>.cls-1{isolation:isolate;}.cls-2{opacity:0.2;}.cls-3{fill:#50a3fc;}.cls-4,.cls-5{fill:none;stroke:#50a3fc;stroke-linecap:round;stroke-linejoin:round;}.cls-4{mix-blend-mode:screen;}</style></defs><title>Snowplow_Website-Product_Icon_React-MultiPlatform</title><g class="cls-1"><g id="Layer_3" data-name="Layer 3"><g class="cls-2"><path class="cls-3" d="M130,54.58a7.83,7.83,0,0,1,6.11,3.53l25,43.37a7.83,7.83,0,0,1,0,7.06l-25,43.35a7.83,7.83,0,0,1-6.11,3.53H80a7.83,7.83,0,0,1-6.11-3.53l-25-43.35a7.83,7.83,0,0,1,0-7.06l25-43.37A7.83,7.83,0,0,1,80,54.58H130Z"/></g><g class="cls-2"><path class="cls-3" d="M182.35,140.76a2.28,2.28,0,0,1,1.78,1l7.28,12.6a2.28,2.28,0,0,1,0,2.05L184.13,169a2.28,2.28,0,0,1-1.78,1H167.8a2.28,2.28,0,0,1-1.78-1l-7.28-12.6a2.28,2.28,0,0,1,0-2.05l7.28-12.6a2.28,2.28,0,0,1,1.78-1h14.56Z"/></g><g class="cls-2"><path class="cls-3" d="M147.69,30.1a2.28,2.28,0,0,1,1.78,1l7.28,12.61a2.28,2.28,0,0,1,0,2.05l-7.28,12.6a2.28,2.28,0,0,1-1.78,1H133.13a2.28,2.28,0,0,1-1.78-1l-7.28-12.6a2.28,2.28,0,0,1,0-2.05l7.28-12.61a2.28,2.28,0,0,1,1.78-1h14.56Z"/></g><g class="cls-2"><path class="cls-3" d="M71.17,151.72a1.87,1.87,0,0,1,1.46.84l6,10.37a1.87,1.87,0,0,1,0,1.69l-6,10.37a1.87,1.87,0,0,1-1.46.84h-12a1.87,1.87,0,0,1-1.46-.84l-6-10.37a1.87,1.87,0,0,1,0-1.69l6-10.37a1.87,1.87,0,0,1,1.46-.84h12Z"/></g><g class="cls-2"><path class="cls-3" d="M67,101a0.62,0.62,0,0,1,.48.28l2,3.42a0.62,0.62,0,0,1,0,.56l-2,3.42A0.62,0.62,0,0,1,67,109H63a0.62,0.62,0,0,1-.48-0.28l-2-3.42a0.62,0.62,0,0,1,0-.56l2-3.42A0.62,0.62,0,0,1,63,101H67Z"/></g><g class="cls-2"><path class="cls-3" d="M40.51,41.78a0.62,0.62,0,0,1,.48.28l1.39,2.42a0.62,0.62,0,0,1,0,.56L41,47.44a0.62,0.62,0,0,1-.48.28H37.72a0.62,0.62,0,0,1-.48-0.28L35.85,45a0.62,0.62,0,0,1,0-.56l1.39-2.42a0.62,0.62,0,0,1,.48-0.28h2.79Z"/></g><g class="cls-2"><path class="cls-3" d="M30.31,118.34a0.62,0.62,0,0,1,.48.28l0.83,1.43a0.62,0.62,0,0,1,0,.56L30.79,122a0.62,0.62,0,0,1-.48.28H28.65a0.62,0.62,0,0,1-.48-0.28l-0.83-1.43a0.62,0.62,0,0,1,0-.56l0.83-1.43a0.62,0.62,0,0,1,.48-0.28h1.65Z"/></g><g class="cls-2"><path class="cls-3" d="M130.39,62.1a0.62,0.62,0,0,1,.48.28l0.83,1.43a0.62,0.62,0,0,1,0,.56l-0.83,1.43a0.62,0.62,0,0,1-.48.28h-1.65a0.62,0.62,0,0,1-.48-0.28l-0.83-1.43a0.62,0.62,0,0,1,0-.56l0.83-1.43a0.62,0.62,0,0,1,.48-0.28h1.65Z"/></g><g class="cls-2"><path class="cls-3" d="M147,131.69a0.62,0.62,0,0,1,.48.28l2,3.42a0.62,0.62,0,0,1,0,.56l-2,3.42a0.62,0.62,0,0,1-.48.28H143a0.62,0.62,0,0,1-.48-0.28l-2-3.42a0.62,0.62,0,0,1,0-.56l2-3.42a0.62,0.62,0,0,1,.48-0.28H147Z"/></g><g class="cls-2"><path class="cls-3" d="M45.06,34.71a0.62,0.62,0,0,1,.48.28l2.58,4.46a0.62,0.62,0,0,1,0,.56l-2.58,4.46a0.62,0.62,0,0,1-.48.28H39.9a0.62,0.62,0,0,1-.48-0.28L36.85,40a0.62,0.62,0,0,1,0-.56L39.42,35a0.62,0.62,0,0,1,.48-0.28h5.15Z"/></g><g class="cls-2"><path class="cls-3" d="M160.73,150.28a0.62,0.62,0,0,1,.48.28l2.58,4.46a0.62,0.62,0,0,1,0,.56L161.21,160a0.62,0.62,0,0,1-.48.28h-5.15a0.62,0.62,0,0,1-.48-0.28l-2.58-4.46a0.62,0.62,0,0,1,0-.56l2.58-4.46a0.62,0.62,0,0,1,.48-0.28h5.15Z"/></g><g class="cls-2"><path class="cls-3" d="M160.5,90a1.11,1.11,0,0,1,.87.5l3.55,6.15a1.11,1.11,0,0,1,0,1l-3.55,6.15a1.11,1.11,0,0,1-.87.5h-7.1a1.11,1.11,0,0,1-.87-0.5L149,97.64a1.11,1.11,0,0,1,0-1l3.55-6.15a1.11,1.11,0,0,1,.87-0.5h7.1Z"/></g><g class="cls-2"><path class="cls-3" d="M75.73,168.69a1.11,1.11,0,0,1,.87.5l3.55,6.15a1.11,1.11,0,0,1,0,1l-3.55,6.15a1.11,1.11,0,0,1-.87.5h-7.1a1.11,1.11,0,0,1-.87-0.5l-3.55-6.15a1.11,1.11,0,0,1,0-1l3.55-6.15a1.11,1.11,0,0,1,.87-0.5h7.1Z"/></g><g class="cls-2"><path class="cls-3" d="M32.07,87.68a1.11,1.11,0,0,1,.87.5l4.89,8.46a1.11,1.11,0,0,1,0,1l-4.89,8.46a1.11,1.11,0,0,1-.87.5H22.3a1.11,1.11,0,0,1-.87-0.5l-4.88-8.46a1.11,1.11,0,0,1,0-1l4.88-8.46a1.11,1.11,0,0,1,.87-0.5h9.77Z"/></g><g class="cls-2"><path class="cls-3" d="M115.56,83.73a3.3,3.3,0,0,1,2.58,1.49l10.56,18.29a3.3,3.3,0,0,1,0,3l-10.56,18.29a3.3,3.3,0,0,1-2.58,1.49H94.44a3.3,3.3,0,0,1-2.58-1.49L81.3,106.49a3.3,3.3,0,0,1,0-3L91.86,85.22a3.3,3.3,0,0,1,2.58-1.49h21.13Z"/></g><polyline class="cls-4" points="85 70.36 105 105 145 105"/><polyline class="cls-5" points="85 139.64 105 105 145 105"/><polyline class="cls-4" points="85 139.64 105 105 85 70.35"/><polygon class="cls-5" points="125 139.64 145 105 125 70.36 85 70.36 65 105 85 139.64 125 139.64"/><path class="cls-5" d="M123.28,18.42A9.9,9.9,0,0,1,131,22.88l31.66,54.84a9.9,9.9,0,0,1,0,8.93L131,141.45a9.9,9.9,0,0,1-7.73,4.46H60a9.9,9.9,0,0,1-7.73-4.46L20.57,86.64a9.9,9.9,0,0,1,0-8.93L52.23,22.88A9.9,9.9,0,0,1,60,18.42h63.33Z"/><path class="cls-5" d="M149.74,64.08a9.9,9.9,0,0,1,7.73,4.46l31.66,54.83a9.9,9.9,0,0,1,0,8.93l-31.66,54.81a9.9,9.9,0,0,1-7.73,4.46H86.41a9.9,9.9,0,0,1-7.73-4.46L47,132.31a9.9,9.9,0,0,1,0-8.93L78.68,68.55a9.9,9.9,0,0,1,7.73-4.46h63.33Z"/></g></g></svg>