<svg xmlns="http://www.w3.org/2000/svg" viewBox="0 0 90 90"><defs><style>.cls-1{isolation:isolate;}.cls-2,.cls-3,.cls-4,.cls-5{fill:none;stroke-linecap:round;stroke-linejoin:round;stroke-width:1.5px;}.cls-2,.cls-3{stroke:#bb73fc;}.cls-2,.cls-5{stroke-dasharray:10 6 0 8 8 28;}.cls-4,.cls-5{stroke:#5b0098;}.cls-6{mix-blend-mode:screen;}</style></defs><title>Snowplow_Website-Services_Icons</title><g class="cls-1"><g id="Layer_2" data-name="Layer 2"><line class="cls-2" x1="26.96" y1="21.18" x2="6.63" y2="21.18"/><line class="cls-3" x1="1" y1="57.13" x2="21.33" y2="57.13"/><line class="cls-4" x1="7.53" y1="39.96" x2="28.74" y2="39.96"/><line class="cls-5" x1="25.06" y1="67.5" x2="9.47" y2="67.5"/><g class="cls-6"><path class="cls-4" d="M69.72,75.33a4.81,4.81,0,0,0,3.75-2.17l15-26a4.81,4.81,0,0,0,0-4.33l-15-26a4.81,4.81,0,0,0-3.75-2.17h-30A4.81,4.81,0,0,0,36,16.84l-15,26a4.81,4.81,0,0,0,0,4.33l15,26a4.81,4.81,0,0,0,3.75,2.17h30Z"/></g><polyline class="cls-4" points="58.27 14.67 47.71 32.87 54.72 45 68.72 45 79.25 26.84"/><polyline class="cls-4" points="58.27 75.33 47.71 57.13 54.72 45 68.72 45 79.25 63.16"/><polyline class="cls-4" points="26.7 57.13 47.71 57.13 54.72 45 47.71 32.87 26.7 32.87"/><path class="cls-4" d="M69.72,75.33a4.81,4.81,0,0,0,3.75-2.17l15-26a4.81,4.81,0,0,0,0-4.33l-15-26a4.81,4.81,0,0,0-3.75-2.17h-30A4.81,4.81,0,0,0,36,16.84l-15,26a4.81,4.81,0,0,0,0,4.33l15,26a4.81,4.81,0,0,0,3.75,2.17h30Z"/><polygon class="cls-4" points="61.72 57.13 68.72 45 61.72 32.87 47.71 32.87 40.71 45 47.71 57.13 61.72 57.13"/></g></g></svg>