<svg xmlns="http://www.w3.org/2000/svg" xmlns:xlink="http://www.w3.org/1999/xlink" viewBox="0 0 1056 1056"><defs><style>.cls-1,.cls-10,.cls-11,.cls-12,.cls-13,.cls-14,.cls-15,.cls-16,.cls-17,.cls-18,.cls-20,.cls-21,.cls-22,.cls-23,.cls-24,.cls-25,.cls-26,.cls-27,.cls-28,.cls-29,.cls-30,.cls-31,.cls-32,.cls-33,.cls-34,.cls-35,.cls-36,.cls-37,.cls-38,.cls-39,.cls-40,.cls-42,.cls-44,.cls-45,.cls-46,.cls-47,.cls-48,.cls-49,.cls-5,.cls-50,.cls-51,.cls-52,.cls-53,.cls-54,.cls-55,.cls-57,.cls-58,.cls-59,.cls-6,.cls-60,.cls-61,.cls-62,.cls-63,.cls-64,.cls-65,.cls-66,.cls-67,.cls-68,.cls-69,.cls-70,.cls-71,.cls-8,.cls-9{fill:none;}.cls-2{isolation:isolate;}.cls-3{clip-path:url(#clip-path);}.cls-4{mix-blend-mode:multiply;}.cls-5{stroke:#f5faff;stroke-miterlimit:10;stroke-width:1.74px;}.cls-25,.cls-26,.cls-27,.cls-42,.cls-45,.cls-6,.cls-70,.cls-71{stroke:#5b0098;}.cls-10,.cls-11,.cls-12,.cls-13,.cls-14,.cls-15,.cls-16,.cls-17,.cls-18,.cls-20,.cls-21,.cls-22,.cls-23,.cls-24,.cls-25,.cls-26,.cls-27,.cls-28,.cls-29,.cls-30,.cls-31,.cls-32,.cls-33,.cls-34,.cls-35,.cls-36,.cls-37,.cls-38,.cls-39,.cls-40,.cls-42,.cls-44,.cls-45,.cls-46,.cls-47,.cls-48,.cls-49,.cls-50,.cls-51,.cls-52,.cls-53,.cls-54,.cls-55,.cls-57,.cls-58,.cls-59,.cls-6,.cls-60,.cls-61,.cls-62,.cls-63,.cls-64,.cls-65,.cls-66,.cls-67,.cls-68,.cls-69,.cls-70,.cls-71,.cls-8,.cls-9{stroke-linecap:round;stroke-linejoin:round;}.cls-12,.cls-13,.cls-22,.cls-23,.cls-24,.cls-35,.cls-36,.cls-37,.cls-39,.cls-40,.cls-6,.cls-70,.cls-71{stroke-width:2.53px;}.cls-38,.cls-7{opacity:0.66;}.cls-10,.cls-11,.cls-14,.cls-17,.cls-20,.cls-23,.cls-24,.cls-28,.cls-29,.cls-30,.cls-31,.cls-32,.cls-33,.cls-34,.cls-35,.cls-36,.cls-37,.cls-38,.cls-39,.cls-8,.cls-9{stroke:#e1e6f0;}.cls-10,.cls-11,.cls-14,.cls-15,.cls-16,.cls-17,.cls-18,.cls-20,.cls-21,.cls-25,.cls-26,.cls-27,.cls-28,.cls-29,.cls-30,.cls-31,.cls-32,.cls-33,.cls-34,.cls-38,.cls-42,.cls-44,.cls-45,.cls-46,.cls-47,.cls-48,.cls-49,.cls-50,.cls-51,.cls-52,.cls-53,.cls-54,.cls-55,.cls-57,.cls-58,.cls-59,.cls-60,.cls-61,.cls-62,.cls-63,.cls-64,.cls-65,.cls-66,.cls-67,.cls-68,.cls-69,.cls-8,.cls-9{stroke-width:1.27px;}.cls-9{stroke-dasharray:0.92 6.44 2.76 4.6;}.cls-10{stroke-dasharray:0.72 5.01 2.15 3.58;}.cls-11{stroke-dasharray:5.01 5.01 0.72 5.01 2.15 3.58;}.cls-12,.cls-13,.cls-15,.cls-16,.cls-18,.cls-21,.cls-22,.cls-40,.cls-44,.cls-46,.cls-47,.cls-48,.cls-49,.cls-50,.cls-51,.cls-52,.cls-53,.cls-54,.cls-55,.cls-57,.cls-58,.cls-59,.cls-60,.cls-61,.cls-62,.cls-63,.cls-64,.cls-65,.cls-66,.cls-67,.cls-68,.cls-69{stroke:#bb73fc;}.cls-13{stroke-dasharray:1.04 7.31 3.13 5.22;}.cls-14{stroke-dasharray:1.1 7.69 3.3 5.49;}.cls-16{stroke-dasharray:0.81 5.65 2.42 4.04;}.cls-17{stroke-dasharray:0.56 3.91 1.67 2.79;}.cls-18{stroke-dasharray:0.9 6.27 2.69 4.48;}.cls-19{opacity:0.33;}.cls-20,.cls-21{stroke-dasharray:0.51 3.57;}.cls-22,.cls-36{stroke-dasharray:60.75 20.25 0 13.5 13.5 27;}.cls-23{stroke-dasharray:22.51 6.3 0 4.5 4.5 9;}.cls-24,.cls-71{stroke-dasharray:31.67 8.87 0 6.33 6.33 12.67;}.cls-26{stroke-dasharray:1.04 7.31 3.13 5.22;}.cls-27{stroke-dasharray:0.51 3.57;}.cls-28{stroke-dasharray:1 7.01 3 5;}.cls-29{stroke-dasharray:7.01 7.01 1 7.01 3 5;}.cls-30{stroke-dasharray:0.73 5.08 2.18 3.63;}.cls-31{stroke-dasharray:1.22 8.53 3.65 6.09;}.cls-32{stroke-dasharray:8.53 8.53 1.22 8.53 3.65 6.09;}.cls-33{stroke-dasharray:1.11 7.8 3.34 5.57;}.cls-34{stroke-dasharray:7.8 7.8 1.11 7.8 3.34 5.57;}.cls-35{stroke-dasharray:45.25 15.08 0 10.05 10.05 20.11;}.cls-37{stroke-dasharray:22.1 6.19 0 4.42 4.42 8.84;}.cls-38{stroke-dasharray:8.87 8.87 1.27 8.87 3.8 6.33;}.cls-40{stroke-dasharray:42.96 14.32 0 9.55 9.55 19.09;}.cls-41{fill:#5b0098;}.cls-42{stroke-dasharray:30.4 10.13 0 5.07 5.07 15.2;}.cls-43{opacity:0.6;}.cls-44{stroke-dasharray:1.27 1.91 1.91 6.37;}.cls-45{stroke-dasharray:27.21;}.cls-46{stroke-dasharray:26.33;}.cls-47{stroke-dasharray:113.18;}.cls-48{stroke-dasharray:1.38 2.08 2.08 6.92;}.cls-49{stroke-dasharray:1.93 2.9 2.9 9.66;}.cls-50{stroke-dasharray:24.15 4.83 1.93 2.9 2.9 9.66;}.cls-51{stroke-dasharray:0.97 1.45 1.45 4.83;}.cls-52{stroke-dasharray:1.32 1.98 1.98 6.6;}.cls-53{stroke-dasharray:16.5 3.3 1.32 1.98 1.98 6.6;}.cls-54{stroke-dasharray:1.29 1.94 1.94 6.46;}.cls-55{stroke-dasharray:16.15 3.23 1.29 1.94 1.94 6.46;}.cls-56{fill:#bb73fc;}.cls-57{stroke-dasharray:11.92;}.cls-58{stroke-dasharray:11.92;}.cls-59{stroke-dasharray:11.92;}.cls-60{stroke-dasharray:11.92;}.cls-61{stroke-dasharray:16.93;}.cls-62{stroke-dasharray:5.96;}.cls-63{stroke-dasharray:14.92;}.cls-64{stroke-dasharray:16.24;}.cls-65{stroke-dasharray:11.92;}.cls-66{stroke-dasharray:11.92;}.cls-67{stroke-dasharray:5.96;}.cls-68{stroke-dasharray:19.19;}.cls-69{stroke-dasharray:27.21 5.44 2.18 3.27 3.27 10.88;}.cls-70{stroke-dasharray:35.18 9.85 0 7.04 7.04 14.07;}</style><clipPath id="clip-path"><rect class="cls-1" width="1056" height="1056"/></clipPath></defs><title>Snowplow_Website-Home_Infographics_Products</title><g class="cls-2"><g id="Layer_6_copy" data-name="Layer 6 copy"><g class="cls-3"><g class="cls-4"><polyline class="cls-5" points="257.84 119.03 325.35 235.95 257.84 352.87 122.84 352.87"/><polyline class="cls-5" points="460.36 235.95 392.86 352.87 257.84 352.87 190.35 235.95 257.84 119.03"/><polyline class="cls-5" points="527.87 119.03 595.37 235.95 527.87 352.87 392.86 352.87 325.35 235.95 392.86 119.03"/><polyline class="cls-5" points="730.38 235.95 662.88 352.87 527.87 352.87 460.36 235.95 527.87 119.03 662.88 119.03"/><polyline class="cls-5" points="797.88 352.87 662.88 352.87 595.37 235.95 662.88 119.03 797.88 119.03 865.39 235.95"/><polyline class="cls-5" points="122.84 352.87 257.84 352.87 325.35 469.79 257.84 586.72 122.84 586.72 55.32 469.79"/><polygon class="cls-5" points="257.84 586.72 190.35 469.79 257.84 352.87 392.86 352.87 460.36 469.79 392.86 586.72 257.84 586.72"/><polyline class="cls-5" points="392.86 586.72 325.35 469.79 392.86 352.87 527.87 352.87 595.37 469.79 527.87 586.72"/><polyline class="cls-5" points="460.36 469.79 527.87 352.87 662.88 352.87 730.38 469.79 662.88 586.72 527.87 586.72"/><polyline class="cls-5" points="865.39 469.79 797.88 586.72 662.88 586.72 595.37 469.79 662.88 352.87 797.88 352.87"/><polyline class="cls-5" points="1000.4 469.79 932.9 586.72 797.88 586.72 730.38 469.79 797.88 352.87 932.9 352.87"/><line class="cls-5" x1="190.35" y1="469.79" x2="865.39" y2="469.79"/><polyline class="cls-5" points="122.84 586.72 190.35 703.64 122.84 820.56"/><polyline class="cls-5" points="55.32 703.64 122.84 586.72 257.84 586.72 325.35 703.64 257.84 820.56 122.84 820.56"/><polyline class="cls-5" points="392.86 820.56 257.84 820.56 190.35 703.64 257.84 586.72 392.86 586.72 460.36 703.64"/><polyline class="cls-5" points="392.86 820.56 325.35 703.64 392.86 586.72"/><polyline class="cls-5" points="527.87 586.72 595.37 703.64 527.87 820.56"/><polyline class="cls-5" points="460.36 703.64 527.87 586.72 662.88 586.72 730.38 703.64 662.88 820.56 527.87 820.56"/><polygon class="cls-5" points="662.88 820.56 595.37 703.64 662.88 586.72 797.88 586.72 865.39 703.64 797.88 820.56 662.88 820.56"/><polygon class="cls-5" points="797.88 820.56 730.38 703.64 797.88 586.72 932.9 586.72 1000.4 703.64 932.9 820.56 797.88 820.56"/><line class="cls-5" x1="191.17" y1="702.25" x2="1000.4" y2="703.64"/><polyline class="cls-5" points="190.35 937.48 257.84 820.56 392.86 820.56 460.36 937.48"/><line class="cls-5" x1="325.35" y1="937.48" x2="392.86" y2="820.56"/><line class="cls-5" x1="527.87" y1="820.56" x2="595.37" y2="937.48"/><polyline class="cls-5" points="527.87 820.56 662.88 820.56 730.38 937.48"/><polyline class="cls-5" points="595.37 937.48 662.88 820.56 797.88 820.56"/><line class="cls-5" x1="865.39" y1="937.48" x2="932.9" y2="820.56"/><polygon class="cls-5" points="-147.19 1288.25 -214.68 1171.32 -147.19 1054.4 -12.18 1054.4 55.32 1171.32 -12.18 1288.25 -147.19 1288.25"/><polyline class="cls-5" points="392.86 1054.4 460.36 1171.32 392.86 1288.25 257.84 1288.25 190.35 1171.32"/><polyline class="cls-5" points="1202.91 1054.4 1270.42 1171.32 1202.91 1288.25 1067.91 1288.25 1000.4 1171.32"/><line class="cls-5" x1="55.32" y1="235.95" x2="865.39" y2="235.95"/></g></g></g><g id="Layer_4" data-name="Layer 4"><line class="cls-6" x1="599.97" y1="702.25" x2="481.64" y2="702.25"/><polyline class="cls-6" points="495.97 716.58 481.64 702.25 495.97 687.92"/><line class="cls-6" x1="593.44" y1="466.04" x2="649.17" y2="563.6"/><polyline class="cls-6" points="654.41 544.02 649.17 563.6 629.6 558.36"/><line class="cls-6" x1="390.35" y1="588.27" x2="446.78" y2="492.51"/><polyline class="cls-6" points="452.01 512.09 446.77 492.51 427.2 497.75"/><path class="cls-6" d="M677.93,819.17c-7.66,0-17.06-5.43-20.9-12.06l-53.57-92.79c-3.83-6.64-3.83-17.49,0-24.13L657,597.39c3.83-6.64,13.23-12.06,20.9-12.06H785.08c7.66,0,17.07,5.43,20.9,12.06l53.57,92.8c3.83,6.64,3.83,17.49,0,24.13L806,807.11c-3.83,6.64-13.23,12.06-20.9,12.06H677.93Z"/><g class="cls-7"><line class="cls-8" x1="682.27" y1="739.46" x2="677.83" y2="739.46"/><line class="cls-9" x1="671.39" y1="739.46" x2="658.96" y2="739.46"/><line class="cls-8" x1="656.66" y1="739.46" x2="652.23" y2="739.46"/></g><g class="cls-7"><path class="cls-8" d="M704.71,763a9.73,9.73,0,0,1-7.6-4.39l-8.51-14.75a9.73,9.73,0,0,1,0-8.78l8.51-14.74a9.74,9.74,0,0,1,7.6-4.39h17a9.74,9.74,0,0,1,7.6,4.39l8.51,14.74a9.73,9.73,0,0,1,0,8.78l-8.51,14.75a9.74,9.74,0,0,1-7.6,4.39h-17Z"/></g><line class="cls-8" x1="674.64" y1="702.53" x2="670.21" y2="702.53"/><line class="cls-10" x1="665.2" y1="702.53" x2="655.53" y2="702.53"/><line class="cls-11" x1="653.74" y1="702.53" x2="634.04" y2="702.53"/><line class="cls-8" x1="632.25" y1="702.53" x2="627.81" y2="702.53"/><path class="cls-6" d="M711.49,748.8a12.17,12.17,0,0,1-9.5-5.48L681.61,708a12.17,12.17,0,0,1,0-11L702,661.74a12.17,12.17,0,0,1,9.5-5.48h40.76a12.17,12.17,0,0,1,9.5,5.48L782.13,697a12.17,12.17,0,0,1,0,11l-20.38,35.3a12.17,12.17,0,0,1-9.5,5.49H711.49Z"/><path class="cls-12" d="M720.89,777.15a7.3,7.3,0,0,1-5.7-3.29l-4.39-7.6a7.3,7.3,0,0,1,0-6.58l4.39-7.6a7.3,7.3,0,0,1,5.7-3.29h8.77a7.3,7.3,0,0,1,5.7,3.29l4.38,7.59a7.3,7.3,0,0,1,0,6.58l-4.38,7.6a7.3,7.3,0,0,1-5.7,3.29h-8.77Z"/><line class="cls-12" x1="708.9" y1="762.98" x2="704.47" y2="762.98"/><line class="cls-13" x1="697.16" y1="762.98" x2="683.07" y2="762.98"/><line class="cls-12" x1="680.46" y1="762.98" x2="676.03" y2="762.98"/><g class="cls-7"><path class="cls-8" d="M797.56,744.53a7.3,7.3,0,0,1-5.7-3.29l-4.39-7.6a7.3,7.3,0,0,1,0-6.58l4.39-7.6a7.3,7.3,0,0,1,5.7-3.29h8.77a7.3,7.3,0,0,1,5.7,3.29l4.39,7.6a7.3,7.3,0,0,1,0,6.58l-4.39,7.6a7.3,7.3,0,0,1-5.7,3.29h-8.77Z"/></g><g class="cls-7"><line class="cls-8" x1="785.57" y1="730.35" x2="781.14" y2="730.35"/><line class="cls-14" x1="773.45" y1="730.35" x2="758.61" y2="730.35"/><line class="cls-8" x1="755.86" y1="730.35" x2="751.43" y2="730.35"/></g><g class="cls-7"><path class="cls-15" d="M811.76,799.63a5.36,5.36,0,0,1-4.19-2.42l-3.22-5.58a5.37,5.37,0,0,1,0-4.84l3.22-5.58a5.36,5.36,0,0,1,4.19-2.42h6.45a5.36,5.36,0,0,1,4.19,2.42l3.22,5.58a5.37,5.37,0,0,1,0,4.84l-3.22,5.58a5.36,5.36,0,0,1-4.19,2.42h-6.45Z"/></g><g class="cls-7"><line class="cls-15" x1="802.95" y1="789.21" x2="799.69" y2="789.21"/><line class="cls-16" x1="794.04" y1="789.21" x2="783.13" y2="789.21"/><line class="cls-15" x1="781.12" y1="789.21" x2="777.86" y2="789.21"/></g><g class="cls-7"><path class="cls-8" d="M638.91,633.06a3.71,3.71,0,0,1-2.89-1.67l-2.23-3.86a3.71,3.71,0,0,1,0-3.34l2.23-3.86a3.71,3.71,0,0,1,2.89-1.67h4.45a3.71,3.71,0,0,1,2.89,1.67l2.23,3.86a3.7,3.7,0,0,1,0,3.34l-2.23,3.86a3.71,3.71,0,0,1-2.89,1.67h-4.45Z"/></g><g class="cls-7"><line class="cls-8" x1="632.82" y1="625.86" x2="630.57" y2="625.86"/><line class="cls-17" x1="626.66" y1="625.86" x2="619.13" y2="625.86"/><line class="cls-8" x1="617.74" y1="625.86" x2="615.48" y2="625.86"/></g><g class="cls-7"><path class="cls-15" d="M830.39,656.37a6,6,0,0,1-4.65-2.68l-3.57-6.19a6,6,0,0,1,0-5.36l3.57-6.19a6,6,0,0,1,4.65-2.68h7.15a6,6,0,0,1,4.64,2.68l3.57,6.19a6,6,0,0,1,0,5.36l-3.57,6.19a6,6,0,0,1-4.64,2.68h-7.15Z"/></g><g class="cls-7"><line class="cls-15" x1="820.62" y1="644.82" x2="817.01" y2="644.82"/><line class="cls-18" x1="810.74" y1="644.82" x2="798.65" y2="644.82"/><line class="cls-15" x1="796.42" y1="644.82" x2="792.8" y2="644.82"/></g><g class="cls-19"><path class="cls-8" d="M729.39,709.39a2.44,2.44,0,0,1-1.9-1.1l-2.69-4.66a2.43,2.43,0,0,1,0-2.19l2.69-4.67a2.44,2.44,0,0,1,1.9-1.1h5.39a2.44,2.44,0,0,1,1.9,1.1l2.69,4.67a2.43,2.43,0,0,1,0,2.19l-2.69,4.66a2.44,2.44,0,0,1-1.9,1.1h-5.39Z"/></g><g class="cls-19"><line class="cls-8" x1="721.63" y1="702.53" x2="717.19" y2="702.53"/><line class="cls-20" x1="713.62" y1="702.53" x2="711.33" y2="702.53"/><line class="cls-8" x1="709.54" y1="702.53" x2="705.11" y2="702.53"/></g><g class="cls-19"><path class="cls-12" d="M783.45,678.07a2.44,2.44,0,0,1-1.9-1.1l-2.69-4.67a2.43,2.43,0,0,1,0-2.19l2.69-4.66a2.44,2.44,0,0,1,1.9-1.1h5.38a2.44,2.44,0,0,1,1.9,1.1l2.7,4.66a2.43,2.43,0,0,1,0,2.19l-2.7,4.67a2.44,2.44,0,0,1-1.9,1.1h-5.38Z"/></g><g class="cls-19"><line class="cls-15" x1="775.68" y1="671.21" x2="771.25" y2="671.21"/><line class="cls-21" x1="767.68" y1="671.21" x2="765.38" y2="671.21"/><line class="cls-15" x1="763.6" y1="671.21" x2="759.17" y2="671.21"/></g><path class="cls-22" d="M711.49,748.8a12.17,12.17,0,0,1-9.5-5.48L681.61,708a12.17,12.17,0,0,1,0-11L702,661.74a12.17,12.17,0,0,1,9.5-5.48h40.76a12.17,12.17,0,0,1,9.5,5.48L782.13,697a12.17,12.17,0,0,1,0,11l-20.38,35.3a12.17,12.17,0,0,1-9.5,5.49H711.49Z"/><path class="cls-23" d="M720.89,777.15a7.3,7.3,0,0,1-5.7-3.29l-4.39-7.6a7.3,7.3,0,0,1,0-6.58l4.39-7.6a7.3,7.3,0,0,1,5.7-3.29h8.77a7.3,7.3,0,0,1,5.7,3.29l4.38,7.59a7.3,7.3,0,0,1,0,6.58l-4.38,7.6a7.3,7.3,0,0,1-5.7,3.29h-8.77Z"/><path class="cls-24" d="M783.45,678.07a2.44,2.44,0,0,1-1.9-1.1l-2.69-4.67a2.43,2.43,0,0,1,0-2.19l2.69-4.66a2.44,2.44,0,0,1,1.9-1.1h5.38a2.44,2.44,0,0,1,1.9,1.1l2.7,4.66a2.43,2.43,0,0,1,0,2.19l-2.7,4.67a2.44,2.44,0,0,1-1.9,1.1h-5.38Z"/><path class="cls-25" d="M718.23,664.1a7.3,7.3,0,0,1-5.7-3.29l-4.39-7.6a7.3,7.3,0,0,1,0-6.58l4.39-7.6a7.3,7.3,0,0,1,5.7-3.29H727a7.3,7.3,0,0,1,5.7,3.29l4.38,7.59a7.3,7.3,0,0,1,0,6.58l-4.38,7.6a7.3,7.3,0,0,1-5.7,3.29h-8.77Z"/><line class="cls-25" x1="701.18" y1="649.92" x2="696.74" y2="649.92"/><line class="cls-26" x1="689.44" y1="649.92" x2="675.35" y2="649.92"/><line class="cls-25" x1="672.74" y1="649.92" x2="668.3" y2="649.92"/><path class="cls-25" d="M794,724.3a2.44,2.44,0,0,1-1.9-1.1l-2.69-4.66a2.43,2.43,0,0,1,0-2.19l2.69-4.67a2.44,2.44,0,0,1,1.9-1.1h5.39a2.44,2.44,0,0,1,1.9,1.1l2.7,4.67a2.43,2.43,0,0,1,0,2.19l-2.7,4.66a2.44,2.44,0,0,1-1.9,1.1H794Z"/><line class="cls-25" x1="786.24" y1="717.44" x2="781.81" y2="717.44"/><line class="cls-27" x1="778.24" y1="717.44" x2="775.94" y2="717.44"/><line class="cls-25" x1="774.16" y1="717.44" x2="769.72" y2="717.44"/><path class="cls-6" d="M272.59,819.17c-7.66,0-17.07-5.43-20.9-12.06l-53.57-92.79c-3.83-6.64-3.83-17.49,0-24.13l53.57-92.8c3.83-6.64,13.23-12.06,20.9-12.06H379.75c7.66,0,17.07,5.43,20.9,12.06l53.57,92.8c3.83,6.64,3.83,17.49,0,24.13l-53.57,92.79c-3.83,6.64-13.23,12.06-20.9,12.06H272.59Z"/><path class="cls-12" d="M293.68,766.32A7.25,7.25,0,0,1,288,763l-6.34-11a7.25,7.25,0,0,1,0-6.54l6.34-11a7.25,7.25,0,0,1,5.66-3.27h12.68a7.25,7.25,0,0,1,5.66,3.27l6.34,11a7.25,7.25,0,0,1,0,6.54L312,763a7.25,7.25,0,0,1-5.66,3.27H293.68Z"/><path class="cls-12" d="M364.48,643.79a7.3,7.3,0,0,1-5.7-3.29l-4.39-7.6a7.3,7.3,0,0,1,0-6.58l4.39-7.6a7.3,7.3,0,0,1,5.7-3.29h8.77a7.3,7.3,0,0,1,5.7,3.29l4.38,7.59a7.3,7.3,0,0,1,0,6.58l-4.38,7.6a7.3,7.3,0,0,1-5.7,3.29h-8.77Z"/><path class="cls-8" d="M193.77,716.45a7.3,7.3,0,0,1-5.7-3.29l-4.39-7.6a7.3,7.3,0,0,1,0-6.58l4.39-7.59a7.3,7.3,0,0,1,5.7-3.29h8.77a7.3,7.3,0,0,1,5.7,3.29l4.38,7.59a7.3,7.3,0,0,1,0,6.58l-4.39,7.6a7.3,7.3,0,0,1-5.7,3.29h-8.77Z"/><g class="cls-7"><line class="cls-8" x1="330.93" y1="695.67" x2="333.15" y2="691.83"/><line class="cls-28" x1="336.66" y1="685.77" x2="343.43" y2="674.07"/><line class="cls-29" x1="344.68" y1="671.91" x2="358.47" y2="648.08"/><line class="cls-8" x1="359.72" y1="645.92" x2="361.95" y2="642.08"/></g><g class="cls-7"><line class="cls-8" x1="310.13" y1="731.28" x2="312.39" y2="727.47"/><line class="cls-30" x1="314.99" y1="723.11" x2="319.98" y2="714.68"/><line class="cls-8" x1="320.91" y1="713.13" x2="323.17" y2="709.31"/></g><g class="cls-7"><line class="cls-8" x1="385.13" y1="805" x2="382.94" y2="801.14"/><line class="cls-31" x1="378.74" y1="793.72" x2="370.63" y2="779.41"/><line class="cls-32" x1="369.13" y1="776.76" x2="334.61" y2="715.82"/><line class="cls-8" x1="333.11" y1="713.17" x2="330.93" y2="709.31"/></g><g class="cls-7"><line class="cls-8" x1="323.01" y1="695.67" x2="320.77" y2="691.84"/><line class="cls-33" x1="316.83" y1="685.12" x2="309.22" y2="672.14"/><line class="cls-34" x1="307.82" y1="669.74" x2="258.55" y2="585.63"/><line class="cls-8" x1="257.14" y1="583.23" x2="254.9" y2="579.4"/></g><path class="cls-8" d="M388.61,833.35a7.3,7.3,0,0,1-5.7-3.29l-4.39-7.6a7.3,7.3,0,0,1,0-6.58l4.38-7.59a7.3,7.3,0,0,1,5.7-3.29h8.77a7.3,7.3,0,0,1,5.7,3.29l4.38,7.59a7.3,7.3,0,0,1,0,6.58l-4.39,7.6a7.3,7.3,0,0,1-5.7,3.29h-8.77Z"/><path class="cls-12" d="M247.83,579.4a2.44,2.44,0,0,1-1.9-1.1l-2.69-4.66a2.43,2.43,0,0,1,0-2.19l2.69-4.67a2.44,2.44,0,0,1,1.9-1.1h5.39a2.44,2.44,0,0,1,1.9,1.1l2.69,4.67a2.43,2.43,0,0,1,0,2.19l-2.69,4.66a2.44,2.44,0,0,1-1.9,1.1h-5.39Z"/><path class="cls-35" d="M293.68,766.32A7.25,7.25,0,0,1,288,763l-6.34-11a7.25,7.25,0,0,1,0-6.54l6.34-11a7.25,7.25,0,0,1,5.66-3.27h12.68a7.25,7.25,0,0,1,5.66,3.27l6.34,11a7.25,7.25,0,0,1,0,6.54L312,763a7.25,7.25,0,0,1-5.66,3.27H293.68Z"/><path class="cls-36" d="M364.48,643.79a7.3,7.3,0,0,1-5.7-3.29l-4.39-7.6a7.3,7.3,0,0,1,0-6.58l4.39-7.6a7.3,7.3,0,0,1,5.7-3.29h8.77a7.3,7.3,0,0,1,5.7,3.29l4.38,7.59a7.3,7.3,0,0,1,0,6.58l-4.38,7.6a7.3,7.3,0,0,1-5.7,3.29h-8.77Z"/><path class="cls-37" d="M247.83,579.4a2.44,2.44,0,0,1-1.9-1.1l-2.69-4.66a2.43,2.43,0,0,1,0-2.19l2.69-4.67a2.44,2.44,0,0,1,1.9-1.1h5.39a2.44,2.44,0,0,1,1.9,1.1l2.69,4.67a2.43,2.43,0,0,1,0,2.19l-2.69,4.66a2.44,2.44,0,0,1-1.9,1.1h-5.39Z"/><line class="cls-38" x1="213.25" y1="702.28" x2="320.31" y2="702.28"/><g class="cls-7"><path class="cls-39" d="M284.22,702.05s20.37-23.86,43-23.86,43,23.86,43,23.86-18.45,23.87-43,23.87S284.22,702.05,284.22,702.05Z"/></g><circle class="cls-6" cx="327.17" cy="702.05" r="23.87" transform="translate(-400.6 436.98) rotate(-45)"/><circle class="cls-40" cx="327.18" cy="702.05" r="23.86" transform="translate(-400.6 436.97) rotate(-45)"/><path class="cls-41" d="M327.17,692.51a9.49,9.49,0,0,0-4,.87,3.33,3.33,0,1,1-4.7,4.7A9.54,9.54,0,1,0,327.17,692.51Z"/><path class="cls-1" d="M321,699.19a3.37,3.37,0,1,0-2.47-1.11A3.34,3.34,0,0,0,321,699.19Z"/><circle class="cls-42" cx="327.17" cy="702.28" r="50.67"/><path class="cls-6" d="M474.42,469.57c-7.66,0-17.06-5.43-20.9-12.06L400,364.72c-3.83-6.64-3.83-17.49,0-24.13l53.57-92.8c3.83-6.64,13.23-12.06,20.9-12.06H581.57c7.66,0,17.07,5.43,20.9,12.06L656,340.59c3.83,6.64,3.83,17.49,0,24.13l-53.57,92.79c-3.83,6.64-13.23,12.06-20.9,12.06H474.42Z"/><g class="cls-43"><line class="cls-15" x1="570.63" y1="386.04" x2="580.18" y2="395.73"/><line class="cls-44" x1="582.41" y1="398" x2="588.22" y2="403.9"/><line class="cls-15" x1="590.46" y1="406.17" x2="600" y2="415.87"/><circle class="cls-45" cx="601.35" cy="417.26" r="1.57" transform="translate(-118.97 547.11) rotate(-44.97)"/><line class="cls-46" x1="478.19" y1="361.96" x2="451.86" y2="361.96"/><circle class="cls-47" cx="449.92" cy="361.93" r="6.53"/><circle class="cls-47" cx="601.35" cy="417.26" r="6.53"/><circle class="cls-47" cx="427.2" cy="265.29" r="6.53"/><circle class="cls-47" cx="482.95" cy="443.07" r="6.53"/><circle class="cls-47" cx="546.26" cy="223.21" r="6.53"/><circle class="cls-47" cx="575.39" cy="264.74" r="6.53"/><circle class="cls-45" cx="449.92" cy="361.93" r="1.57"/><line class="cls-15" x1="507.97" y1="405.64" x2="500.52" y2="417.02"/><line class="cls-48" x1="498.62" y1="419.92" x2="493.69" y2="427.45"/><line class="cls-15" x1="491.79" y1="430.34" x2="484.34" y2="441.72"/><circle class="cls-45" cx="482.95" cy="443.07" r="1.57" transform="translate(-171.84 471.35) rotate(-45.01)"/><circle class="cls-47" cx="669.54" cy="332.46" r="6.53" transform="translate(-38.98 570.81) rotate(-45)"/><line class="cls-15" x1="571.79" y1="332.43" x2="585.39" y2="332.43"/><line class="cls-49" x1="590.23" y1="332.43" x2="602.79" y2="332.43"/><line class="cls-50" x1="607.62" y1="332.43" x2="649.16" y2="332.43"/><line class="cls-15" x1="653.99" y1="332.43" x2="667.6" y2="332.43"/><circle class="cls-45" cx="669.54" cy="332.46" r="1.57"/><line class="cls-15" x1="573.82" y1="264.77" x2="564.03" y2="274.21"/><line class="cls-51" x1="562.29" y1="275.89" x2="557.77" y2="280.25"/><line class="cls-15" x1="556.03" y1="281.93" x2="546.23" y2="291.37"/><circle class="cls-45" cx="575.39" cy="264.74" r="1.57"/><line class="cls-15" x1="428.31" y1="266.7" x2="437.87" y2="276.37"/><line class="cls-52" x1="440.19" y1="278.72" x2="446.22" y2="284.82"/><line class="cls-53" x1="448.54" y1="287.17" x2="468.49" y2="307.35"/><polyline class="cls-15" points="470.81 309.7 480.37 319.38 486.41 319.38 486.41 324.92"/><circle class="cls-45" cx="427.2" cy="265.55" r="1.57" transform="translate(-62.61 380.02) rotate(-45.02)"/><line class="cls-15" x1="546.26" y1="224.81" x2="546.26" y2="238.41"/><line class="cls-54" x1="546.26" y1="241.65" x2="546.26" y2="250.04"/><line class="cls-55" x1="546.26" y1="253.28" x2="546.26" y2="281.06"/><line class="cls-15" x1="546.26" y1="284.29" x2="546.26" y2="297.89"/><circle class="cls-45" cx="546.23" cy="223.21" r="1.57"/><circle class="cls-56" cx="559.37" cy="413.48" r="1.52"/><circle class="cls-41" cx="457.06" cy="349.65" r="1.52"/><circle class="cls-41" cx="581.98" cy="325.93" r="1.52"/><circle class="cls-56" cx="483.05" cy="310.93" r="1.52"/><circle class="cls-41" cx="536.19" cy="283.29" r="1.52"/><circle class="cls-56" cx="590.18" cy="378.3" r="1.53"/><circle class="cls-56" cx="671.11" cy="346.41" r="1.52"/><circle class="cls-56" cx="439.29" cy="353.25" r="1.52"/><circle class="cls-41" cx="594.82" cy="390.26" r="1.52"/><circle class="cls-41" cx="492.84" cy="454.21" r="1.52"/><circle class="cls-56" cx="492.47" cy="409.21" r="1.52"/></g><line class="cls-57" x1="576.59" y1="342.42" x2="568.16" y2="350.85"/><line class="cls-58" x1="573.23" y1="370.44" x2="561.31" y2="370.44"/><line class="cls-59" x1="527.98" y1="304.4" x2="536.42" y2="312.83"/><line class="cls-60" x1="562.24" y1="398.27" x2="562.24" y2="386.35"/><line class="cls-61" x1="567.93" y1="324.2" x2="551.01" y2="324.2"/><line class="cls-62" x1="532.08" y1="345" x2="527.86" y2="340.79"/><line class="cls-63" x1="546.56" y1="308.04" x2="531.63" y2="308.04"/><polyline class="cls-15" points="546.98 390.63 533.41 377.06 533.41 371.02 527.86 371.02"/><line class="cls-64" x1="541.23" y1="368.48" x2="541.23" y2="384.73"/><path class="cls-12" d="M560,401.1a4.1,4.1,0,0,1-2.51,1h-5.3a4.1,4.1,0,0,0-2.51,1l-5,5a4.1,4.1,0,0,1-2.51,1h-9.82a4.14,4.14,0,0,1-2.52-1l-0.89-.88a4.05,4.05,0,0,1-1-2.51v-105a4.22,4.22,0,0,1,1-2.53l1.92-2a4,4,0,0,1,2.49-1.06h4.81a3.89,3.89,0,0,1,2.48,1.08l2,2.17a3.89,3.89,0,0,0,2.48,1.08h2.75a4.08,4.08,0,0,1,2.51,1l14,14.11a4.11,4.11,0,0,1,1,2.52v4a4,4,0,0,0,1,2.51l3.79,3.73a4,4,0,0,1,1,2.51v4.61a4,4,0,0,0,1.06,2.49l3.38,3.26a4,4,0,0,1,1.06,2.49V363a4.18,4.18,0,0,1-1,2.53L574.28,367a4.18,4.18,0,0,0-1,2.53v11.68a4.22,4.22,0,0,1-1,2.53l-2.87,3a4.22,4.22,0,0,0-1,2.53v2a4.1,4.1,0,0,1-1,2.51Z"/><polyline class="cls-15" points="561.68 324.2 561.68 334.75 546.34 350.08"/><line class="cls-65" x1="527.86" y1="356.19" x2="519.43" y2="347.76"/><line class="cls-66" x1="527.74" y1="323.1" x2="515.82" y2="323.1"/><line class="cls-66" x1="487.37" y1="391.04" x2="487.37" y2="379.12"/><line class="cls-66" x1="520.48" y1="294.15" x2="520.48" y2="306.08"/><line class="cls-66" x1="519.2" y1="371.95" x2="507.28" y2="371.95"/><line class="cls-67" x1="483.05" y1="351.14" x2="478.84" y2="355.36"/><polyline class="cls-15" points="503.54 315.09 489.98 328.66 489.98 334.7 484.43 334.7"/><line class="cls-68" x1="514.35" y1="388.42" x2="500.79" y2="401.99"/><path class="cls-12" d="M495.76,401.1a4.1,4.1,0,0,0,2.51,1h5.3a4.1,4.1,0,0,1,2.51,1l5,5a4.1,4.1,0,0,0,2.51,1h9.82a4.14,4.14,0,0,0,2.52-1l0.89-.88a4.06,4.06,0,0,0,1-2.51v-105a4.22,4.22,0,0,0-1-2.53l-1.92-2a4,4,0,0,0-2.49-1.06h-4.81a3.88,3.88,0,0,0-2.48,1.08l-2,2.17a3.89,3.89,0,0,1-2.48,1.08h-2.75a4.08,4.08,0,0,0-2.51,1l-14,14.11a4.11,4.11,0,0,0-1,2.52v4a4,4,0,0,1-1,2.51l-3.79,3.73a4,4,0,0,0-1,2.51v4.61a4,4,0,0,1-1.06,2.49L480,339.27a4,4,0,0,0-1.06,2.5V363a4.19,4.19,0,0,0,1,2.53l1.48,1.52a4.18,4.18,0,0,1,1,2.53v11.68a4.22,4.22,0,0,0,1,2.53l2.87,3a4.22,4.22,0,0,1,1,2.53v2a4.1,4.1,0,0,0,1,2.51Z"/><polyline class="cls-15" points="513.24 371.95 513.24 361.4 497.9 346.06"/><path class="cls-69" d="M496.14,345.93a0.8,0.8,0,0,1-.62-0.36l-0.56-1a0.8,0.8,0,0,1,0-.72l0.56-1a0.8,0.8,0,0,1,.62-0.36h1.13a0.8,0.8,0,0,1,.62.36l0.56,1a0.8,0.8,0,0,1,0,.72l-0.56,1a0.8,0.8,0,0,1-.62.36h-1.13Z"/><path class="cls-69" d="M483.87,351.35a0.8,0.8,0,0,1-.62-0.36l-0.56-1a0.8,0.8,0,0,1,0-.72l0.56-1a0.8,0.8,0,0,1,.62-0.36H485a0.8,0.8,0,0,1,.62.36l0.56,1a0.8,0.8,0,0,1,0,.72l-0.56,1a0.8,0.8,0,0,1-.62.36h-1.13Z"/><path class="cls-69" d="M486.78,378.3a0.8,0.8,0,0,1-.62-0.36l-0.56-1a0.81,0.81,0,0,1,0-.72l0.56-1a0.8,0.8,0,0,1,.62-0.36h1.13a0.8,0.8,0,0,1,.62.36l0.56,1a0.8,0.8,0,0,1,0,.72l-0.56,1a0.8,0.8,0,0,1-.62.36h-1.13Z"/><path class="cls-69" d="M504.78,373.64a0.8,0.8,0,0,1-.62-0.36l-0.56-1a0.8,0.8,0,0,1,0-.72l0.56-1a0.8,0.8,0,0,1,.62-0.36h1.13a0.8,0.8,0,0,1,.62.36l0.56,1a0.8,0.8,0,0,1,0,.72l-0.56,1a0.8,0.8,0,0,1-.62.36h-1.13Z"/><path class="cls-69" d="M521.29,373.68a0.8,0.8,0,0,1-.62-0.36l-0.56-1a0.8,0.8,0,0,1,0-.72l0.56-1a0.8,0.8,0,0,1,.62-0.36h1.13a0.8,0.8,0,0,1,.62.36l0.56,1a0.8,0.8,0,0,1,0,.72l-0.56,1a0.8,0.8,0,0,1-.62.36h-1.13Z"/><path class="cls-69" d="M515.73,388a0.8,0.8,0,0,1-.62-0.36l-0.56-1a0.8,0.8,0,0,1,0-.72l0.56-1a0.8,0.8,0,0,1,.62-0.36h1.13a0.8,0.8,0,0,1,.62.36l0.56,1a0.8,0.8,0,0,1,0,.72l-0.56,1a0.8,0.8,0,0,1-.62.36h-1.12Z"/><path class="cls-69" d="M517.48,348.11a0.8,0.8,0,0,1-.62-0.36l-0.56-1a0.8,0.8,0,0,1,0-.72l0.56-1a0.8,0.8,0,0,1,.62-0.36h1.13a0.8,0.8,0,0,1,.62.36l0.56,1a0.8,0.8,0,0,1,0,.72l-0.56,1a0.8,0.8,0,0,1-.62.36h-1.13Z"/><path class="cls-69" d="M513.37,324.82a0.8,0.8,0,0,1-.62-0.36l-0.56-1a0.8,0.8,0,0,1,0-.72l0.56-1a0.8,0.8,0,0,1,.62-0.36h1.13a0.8,0.8,0,0,1,.62.36l0.56,1a0.8,0.8,0,0,1,0,.72l-0.56,1a0.8,0.8,0,0,1-.62.36h-1.13Z"/><path class="cls-69" d="M537.2,315.92a0.8,0.8,0,0,1-.62-0.36l-0.56-1a0.8,0.8,0,0,1,0-.72l0.56-1a0.8,0.8,0,0,1,.62-0.36h1.13a0.8,0.8,0,0,1,.62.36l0.56,1a0.8,0.8,0,0,1,0,.72l-0.56,1a0.8,0.8,0,0,1-.62.36H537.2Z"/><path class="cls-69" d="M547.56,309.71a0.8,0.8,0,0,1-.62-0.36l-0.56-1a0.8,0.8,0,0,1,0-.72l0.56-1a0.8,0.8,0,0,1,.62-0.36h1.13a0.8,0.8,0,0,1,.62.36l0.56,1a0.8,0.8,0,0,1,0,.72l-0.56,1a0.8,0.8,0,0,1-.62.36h-1.13Z"/><path class="cls-69" d="M548.5,325.86a0.8,0.8,0,0,1-.62-0.36l-0.56-1a0.8,0.8,0,0,1,0-.72l0.56-1a0.8,0.8,0,0,1,.62-0.36h1.13a0.8,0.8,0,0,1,.62.36l0.56,1a0.8,0.8,0,0,1,0,.72l-0.56,1a0.8,0.8,0,0,1-.62.36H548.5Z"/><path class="cls-69" d="M544.58,352.84a0.8,0.8,0,0,1-.62-0.36l-0.56-1a0.8,0.8,0,0,1,0-.72l0.56-1a0.8,0.8,0,0,1,.62-0.36h1.13a0.8,0.8,0,0,1,.62.36l0.56,1a0.8,0.8,0,0,1,0,.72l-0.56,1a0.8,0.8,0,0,1-.62.36h-1.12Z"/><path class="cls-69" d="M566.21,354a0.8,0.8,0,0,1-.62-0.36l-0.56-1a0.8,0.8,0,0,1,0-.72l0.56-1a0.8,0.8,0,0,1,.62-0.36h1.13a0.8,0.8,0,0,1,.62.36l0.56,1a0.8,0.8,0,0,1,0,.72l-0.56,1a0.8,0.8,0,0,1-.62.36h-1.13Z"/><path class="cls-69" d="M558.91,371.95a0.8,0.8,0,0,1-.62-0.36l-0.57-1a0.8,0.8,0,0,1,0-.72l0.57-1a0.8,0.8,0,0,1,.62-0.36H560a0.8,0.8,0,0,1,.62.36l0.56,1a0.8,0.8,0,0,1,0,.72l-0.56,1a0.8,0.8,0,0,1-.62.36h-1.12Z"/><path class="cls-69" d="M561.71,386.11a0.8,0.8,0,0,1-.62-0.36l-0.56-1a0.8,0.8,0,0,1,0-.72l0.56-1a0.8,0.8,0,0,1,.62-0.36h1.13a0.8,0.8,0,0,1,.62.36l0.56,1a0.8,0.8,0,0,1,0,.72l-0.56,1a0.8,0.8,0,0,1-.62.36h-1.13Z"/><path class="cls-69" d="M547.56,393.48a0.8,0.8,0,0,1-.62-0.36l-0.56-1a0.8,0.8,0,0,1,0-.72l0.56-1a0.8,0.8,0,0,1,.62-0.36h1.13a0.8,0.8,0,0,1,.62.36l0.56,1a0.8,0.8,0,0,1,0,.72l-0.56,1a0.8,0.8,0,0,1-.62.36h-1.13Z"/><path class="cls-69" d="M532.66,348.72a0.8,0.8,0,0,1-.62-0.36l-0.56-1a0.8,0.8,0,0,1,0-.72l0.56-1a0.8,0.8,0,0,1,.62-0.36h1.13a0.8,0.8,0,0,1,.62.36l0.56,1a0.8,0.8,0,0,1,0,.72l-0.56,1a0.8,0.8,0,0,1-.62.36h-1.13Z"/><path class="cls-69" d="M540.66,368.58a0.8,0.8,0,0,1-.62-0.36l-0.56-1a0.8,0.8,0,0,1,0-.72l0.56-1a0.8,0.8,0,0,1,.62-0.36h1.13a0.8,0.8,0,0,1,.62.36l0.56,1a0.8,0.8,0,0,1,0,.72l-0.56,1a0.8,0.8,0,0,1-.62.36h-1.13Z"/><path class="cls-69" d="M504.76,315.09a0.8,0.8,0,0,1-.62-0.36l-0.56-1a0.8,0.8,0,0,1,0-.72l0.56-1a0.8,0.8,0,0,1,.62-0.36h1.13a0.8,0.8,0,0,1,.62.36l0.57,1a0.8,0.8,0,0,1,0,.72l-0.57,1a0.8,0.8,0,0,1-.62.36h-1.13Z"/><path class="cls-69" d="M519.94,309.74a0.8,0.8,0,0,1-.62-0.36l-0.57-1a0.8,0.8,0,0,1,0-.72l0.57-1a0.8,0.8,0,0,1,.62-0.36h1.13a0.8,0.8,0,0,1,.62.36l0.56,1a0.8,0.8,0,0,1,0,.72l-0.56,1a0.8,0.8,0,0,1-.62.36h-1.12Z"/><path class="cls-70" d="M560,401.1a4.1,4.1,0,0,1-2.51,1h-5.3a4.1,4.1,0,0,0-2.51,1l-5,5a4.1,4.1,0,0,1-2.51,1h-9.82a4.14,4.14,0,0,1-2.52-1l-0.89-.88a4.05,4.05,0,0,1-1-2.51v-105a4.22,4.22,0,0,1,1-2.53l1.92-2a4,4,0,0,1,2.49-1.06h4.81a3.89,3.89,0,0,1,2.48,1.08l2,2.17a3.89,3.89,0,0,0,2.48,1.08h2.75a4.08,4.08,0,0,1,2.51,1l14,14.11a4.11,4.11,0,0,1,1,2.52v4a4,4,0,0,0,1,2.51l3.79,3.73a4,4,0,0,1,1,2.51v4.61a3.3,3.3,0,0,1-1.18,2.35l-4.8,3.55a3.3,3.3,0,0,0-1.18,2.35V363a2.35,2.35,0,0,0,1.37,2l6.4,2.54a2.35,2.35,0,0,1,1.37,2v11.68a4.22,4.22,0,0,1-1,2.53l-2.87,3a4.22,4.22,0,0,0-1,2.53v2a4.1,4.1,0,0,1-1,2.51Z"/><path class="cls-71" d="M495.76,401.1a4.1,4.1,0,0,0,2.51,1h5.3a4.1,4.1,0,0,1,2.51,1l5,5a4.1,4.1,0,0,0,2.51,1h9.82a4.14,4.14,0,0,0,2.52-1l0.89-.88a4.06,4.06,0,0,0,1-2.51v-105a4.22,4.22,0,0,0-1-2.53l-1.92-2a4,4,0,0,0-2.49-1.06h-4.81a3.88,3.88,0,0,0-2.48,1.08l-2,2.17a3.89,3.89,0,0,1-2.48,1.08h-2.75a4.08,4.08,0,0,0-2.51,1l-14,14.11a4.11,4.11,0,0,0-1,2.52v4a4,4,0,0,1-1,2.51l-3.79,3.73a4,4,0,0,0-1,2.51v4.61a3.3,3.3,0,0,0,1.18,2.35l4.8,3.55a3.3,3.3,0,0,1,1.18,2.35V363a2.35,2.35,0,0,1-1.37,2l-6.4,2.54a2.35,2.35,0,0,0-1.37,2v11.68a4.22,4.22,0,0,0,1,2.53l2.87,3a4.22,4.22,0,0,1,1,2.53v2a4.1,4.1,0,0,0,1,2.51Z"/></g></g></svg>