<svg id="Layer_2" data-name="Layer 2" xmlns="http://www.w3.org/2000/svg" viewBox="0 0 90 90"><defs><style>.cls-1,.cls-2,.cls-3,.cls-4{fill:none;}.cls-1{stroke:#5b0098;}.cls-1,.cls-3,.cls-4{stroke-linecap:round;stroke-linejoin:round;stroke-width:1.5px;}.cls-3,.cls-4{stroke:#bb73fc;}.cls-4{stroke-dasharray:0 7.91;}</style></defs><title>Snowplow_Website-Services_Icons</title><path class="cls-1" d="M20,54.51H5.39A4.4,4.4,0,0,1,1,50.12V32.74a4.4,4.4,0,0,1,4.39-4.39H20"/><path class="cls-2" d="M55.65,62.84H27.21A7.21,7.21,0,0,1,20,55.65V27.22A7.21,7.21,0,0,1,27.21,20H55.65a7.21,7.21,0,0,1,7.19,7.19V55.65"/><line class="cls-3" x1="62.84" y1="27.22" x2="62.84" y2="46.72"/><path class="cls-3" d="M28.21,62.84c-6,0-8.18-3.23-8.18-7.19V27.22A7.21,7.21,0,0,1,27.21,20H55.65"/><path class="cls-1" d="M49.79,79.49h-17a4.41,4.41,0,0,1-4.4-4.39V57.72a4.41,4.41,0,0,1,4.4-4.39H51.33"/><path class="cls-4" d="M46.19,67.58a21.37,21.37,0,1,0,8.47-17.06A21.4,21.4,0,0,0,46.19,67.58Z"/><path class="cls-3" d="M54.65,50.52a21.41,21.41,0,1,0,31.46,27.8"/><polyline class="cls-3" points="74.73 68.09 67.59 68.09 67.59 53.32"/><rect class="cls-1" x="55.7" y="12.89" width="14.27" height="14.27" rx="2.45" ry="2.45"/><rect class="cls-1" x="12.89" y="1" width="14.27" height="14.27" rx="2.45" ry="2.45"/></svg>