<svg xmlns="http://www.w3.org/2000/svg" viewBox="0 0 1056 1056"><defs><style>.cls-1{isolation:isolate;}.cls-2,.cls-23{fill:#5b0098;}.cls-16,.cls-18,.cls-20,.cls-21,.cls-22,.cls-24,.cls-27,.cls-3,.cls-4,.cls-5{fill:none;}.cls-15,.cls-16,.cls-22,.cls-24,.cls-26,.cls-27,.cls-3,.cls-4,.cls-5{stroke:#5b0098;}.cls-3{stroke-width:4.61px;}.cls-15,.cls-16,.cls-17,.cls-18,.cls-20,.cls-21,.cls-22,.cls-24,.cls-25,.cls-26,.cls-27,.cls-4{stroke-linecap:round;stroke-linejoin:round;}.cls-27,.cls-4,.cls-5{stroke-width:1.54px;}.cls-4{stroke-dasharray:67.64 67.64 6.76 27.06 13.53 27.06;}.cls-6{opacity:0.2;}.cls-12,.cls-7{opacity:0.5;}.cls-10,.cls-8{opacity:0.75;}.cls-9{fill:#bb73fc;}.cls-10,.cls-11,.cls-12{mix-blend-mode:multiply;}.cls-11{opacity:0.1;}.cls-13,.cls-15,.cls-17,.cls-25,.cls-26{fill:#fff;}.cls-14{fill:#f8f1ff;}.cls-15,.cls-16,.cls-17,.cls-18{stroke-width:2.43px;}.cls-17,.cls-18,.cls-20,.cls-21,.cls-25{stroke:#bb73fc;}.cls-19{font-size:12.98px;fill:#9ba0aa;}.cls-19,.cls-23{font-family:Rubik Medium;}.cls-20,.cls-21,.cls-22,.cls-24,.cls-25,.cls-26{stroke-width:2.61px;}.cls-21{stroke-dasharray:11.77 7.85 0 11.77 11.77 19.62;}.cls-23{font-size:13.9px;}.cls-24{stroke-dasharray:34.57 16.13 0 6.91 6.91 23.04;}</style></defs><title>Snowplow_Website-Company_Infographics_DigitalData</title><g class="cls-1"><g id="Layer_1" data-name="Layer 1"><path class="cls-2" d="M253.73,595.28a3.28,3.28,0,0,0-2.56,1.48l-3.81,6.6a3.28,3.28,0,0,0,0,3l3.81,6.59a3.28,3.28,0,0,0,2.56,1.48h7.61a3.28,3.28,0,0,0,2.56-1.48l3.81-6.59a3.28,3.28,0,0,0,0-3l-3.81-6.6a3.28,3.28,0,0,0-2.56-1.48h-7.61Z"/><path class="cls-2" d="M335.8,446.6a3.26,3.26,0,0,0-2.55,1.47l-3.79,6.56a3.26,3.26,0,0,0,0,2.94l3.79,6.55a3.26,3.26,0,0,0,2.55,1.47h7.58a3.26,3.26,0,0,0,2.55-1.47l3.79-6.55a3.26,3.26,0,0,0,0-2.94l-3.79-6.56a3.26,3.26,0,0,0-2.55-1.47H335.8Z"/><path class="cls-3" d="M422.2,727.37c-5.07,0-11.29-3.59-13.83-8l-106-183.61c-2.53-4.39-2.53-11.58,0-16l106-183.62c2.53-4.39,8.76-8,13.83-8h212c5.07,0,11.29,3.59,13.83,8l106,183.62c2.53,4.39,2.53,11.58,0,16l-106,183.61c-2.53,4.39-8.76,8-13.83,8h-212Z"/><path class="cls-4" d="M409.2,780.79c-14.88,0-33.14-10.55-40.58-23.43l-119-206.12c-7.44-12.89-7.44-34,0-46.87l119-206.13c7.44-12.89,25.7-23.43,40.58-23.43h238c14.88,0,33.14,10.54,40.58,23.43l119,206.13c7.44,12.89,7.44,34,0,46.87l-119,206.12c-7.44,12.89-25.7,23.43-40.59,23.43h-238Z"/><line class="cls-5" x1="789.62" y1="678.57" x2="690.28" y2="678.57"/><g class="cls-6"><g class="cls-7"><path class="cls-2" d="M336.08,364.42a11.3,11.3,0,0,0,8.82-5.09L358,336.6a11.3,11.3,0,0,0,0-10.18L344.9,303.7a11.3,11.3,0,0,0-8.82-5.09H309.84A11.3,11.3,0,0,0,301,303.7L287.9,326.42a11.3,11.3,0,0,0,0,10.18L301,359.32a11.3,11.3,0,0,0,8.82,5.09h26.24Z"/></g><path class="cls-2" d="M681.38,353.57a1.83,1.83,0,0,0-1.43.82l-2.12,3.68a1.82,1.82,0,0,0,0,1.65l2.12,3.67a1.83,1.83,0,0,0,1.43.82h4.24a1.83,1.83,0,0,0,1.43-.82l2.12-3.67a1.82,1.82,0,0,0,0-1.65l-2.12-3.68a1.83,1.83,0,0,0-1.43-.82h-4.24Z"/><g class="cls-8"><path class="cls-9" d="M669,690.87a8.34,8.34,0,0,0-6.51,3.76l-9.68,16.78a8.34,8.34,0,0,0,0,7.52l9.68,16.76a8.34,8.34,0,0,0,6.51,3.76h19.37a8.34,8.34,0,0,0,6.51-3.76l9.68-16.76a8.34,8.34,0,0,0,0-7.52l-9.68-16.78a8.33,8.33,0,0,0-6.51-3.76H669Z"/></g><g class="cls-6"><path class="cls-5" d="M475.53,627a8.8,8.8,0,0,1-6.87-4L416,531.76a8.8,8.8,0,0,1,0-7.93l52.67-91.25a8.8,8.8,0,0,1,6.87-4H580.9a8.8,8.8,0,0,1,6.87,4l52.68,91.25a8.8,8.8,0,0,1,0,7.93L587.77,623a8.8,8.8,0,0,1-6.87,4H475.53Z"/></g><g class="cls-10"><path class="cls-9" d="M460.71,421.46a14.54,14.54,0,0,0,11.35-6.56L489,385.65a14.54,14.54,0,0,0,0-13.11l-16.89-29.24a14.55,14.55,0,0,0-11.35-6.55H426.94a14.55,14.55,0,0,0-11.35,6.55L398.7,372.54a14.54,14.54,0,0,0,0,13.11l16.89,29.25a14.54,14.54,0,0,0,11.35,6.56h33.77Z"/></g><g class="cls-10"><path class="cls-9" d="M754.95,388.2c5.57,0,12.41-3.95,15.2-8.77l22.6-39.15c2.79-4.83,2.79-12.72,0-17.55l-22.6-39.14c-2.79-4.83-9.62-8.77-15.2-8.77h-45.2c-5.57,0-12.41,3.95-15.2,8.77l-22.6,39.14c-2.79,4.83-2.79,12.72,0,17.55l22.6,39.15c2.79,4.83,9.62,8.77,15.2,8.77h45.2Z"/></g><g class="cls-11"><path class="cls-2" d="M471.61,784.07c5.57,0,12.41-3.95,15.2-8.77l22.6-39.15c2.79-4.83,2.79-12.72,0-17.55l-22.6-39.14c-2.79-4.83-9.62-8.77-15.2-8.77h-45.2c-5.57,0-12.41,3.95-15.2,8.77l-22.6,39.14c-2.79,4.83-2.79,12.72,0,17.55l22.6,39.15c2.79,4.83,9.62,8.77,15.2,8.77h45.2Z"/></g><g class="cls-10"><path class="cls-9" d="M312.43,560.91a12.33,12.33,0,0,0,9.63-5.56l14.32-24.8a12.33,12.33,0,0,0,0-11.12l-14.32-24.8a12.33,12.33,0,0,0-9.63-5.56H283.8a12.33,12.33,0,0,0-9.63,5.56l-14.32,24.8a12.33,12.33,0,0,0,0,11.12l14.32,24.8a12.33,12.33,0,0,0,9.63,5.56h28.64Z"/></g><g class="cls-10"><path class="cls-9" d="M619,687.64c5.57,0,12.41-3.95,15.2-8.77l22.6-39.15c2.79-4.83,2.79-12.72,0-17.55L634.19,583c-2.79-4.83-9.62-8.77-15.2-8.77h-45.2c-5.57,0-12.41,3.95-15.2,8.77L536,622.16c-2.79,4.83-2.79,12.72,0,17.55l22.6,39.15c2.79,4.83,9.62,8.77,15.2,8.77H619Z"/></g><g class="cls-12"><path class="cls-9" d="M609.39,284.24a9.93,9.93,0,0,0,7.75-4.48l11.53-20a9.93,9.93,0,0,0,0-9l-11.53-20a9.93,9.93,0,0,0-7.75-4.48H586.33a9.93,9.93,0,0,0-7.75,4.48l-11.53,20a9.93,9.93,0,0,0,0,9l11.53,20a9.93,9.93,0,0,0,7.75,4.48h23.07Z"/></g><g class="cls-12"><path class="cls-2" d="M589.69,777.75a9.93,9.93,0,0,0,7.75-4.48l11.53-20a9.93,9.93,0,0,0,0-9l-11.53-20a9.93,9.93,0,0,0-7.75-4.48H566.63a9.93,9.93,0,0,0-7.75,4.48l-11.53,20a9.93,9.93,0,0,0,0,9l11.53,20a9.93,9.93,0,0,0,7.75,4.48h23.06Z"/></g><g class="cls-7"><path class="cls-2" d="M667.33,399.79c7.1,0,15.81-5,19.36-11.18l28.8-49.89c3.55-6.15,3.55-16.21,0-22.36l-28.8-49.88c-3.55-6.15-12.26-11.18-19.36-11.18h-57.6c-7.1,0-15.81,5-19.36,11.18l-28.8,49.88c-3.55,6.15-3.55,16.21,0,22.36l28.8,49.89c3.55,6.15,12.26,11.18,19.36,11.18h57.6Z"/></g><g class="cls-7"><path class="cls-2" d="M397.54,712a10.53,10.53,0,0,0,8.23-4.75L418,686.09a10.54,10.54,0,0,0,0-9.5L405.77,655.4a10.54,10.54,0,0,0-8.23-4.75H373.07a10.53,10.53,0,0,0-8.23,4.75l-12.23,21.19a10.54,10.54,0,0,0,0,9.5l12.23,21.19a10.53,10.53,0,0,0,8.23,4.75h24.47Z"/></g><g class="cls-7"><path class="cls-13" d="M733.79,338.84a7,7,0,0,0,5.45-3.15l8.11-14.05a7,7,0,0,0,0-6.3l-8.11-14a7,7,0,0,0-5.45-3.15H717.57a7,7,0,0,0-5.45,3.15l-8.11,14a7,7,0,0,0,0,6.3l8.11,14.05a7,7,0,0,0,5.45,3.15h16.22Z"/></g><g class="cls-8"><path class="cls-13" d="M608.86,321.63a3.75,3.75,0,0,0-2.93,1.69l-1.85,3.21a3.75,3.75,0,0,0,0,3.38l1.85,3.21a3.75,3.75,0,0,0,2.93,1.69h3.7a3.75,3.75,0,0,0,2.93-1.69l1.85-3.21a3.75,3.75,0,0,0,0-3.38l-1.85-3.21a3.75,3.75,0,0,0-2.93-1.69h-3.7Z"/></g></g><path class="cls-5" d="M788,562.68H713.53c-7.58,0-17.15,5.22-21.25,11.59L604.16,711"/><path class="cls-5" d="M784.76,797.46H713.53c-7.58,0-17.15-5.22-21.25-11.59L604.16,649.11"/><path class="cls-14" d="M806.22,762.89c-5.18,0-11.53,3.67-14.12,8.15l-10.87,18.83c-2.59,4.48-2.59,11.82,0,16.3L792.1,825c2.59,4.48,8.95,8.15,14.12,8.15h21.72c5.18,0,11.53-3.67,14.12-8.15l10.86-18.81c2.59-4.48,2.59-11.82,0-16.31L842.06,771c-2.59-4.48-8.94-8.15-14.12-8.15H806.22Z"/><path class="cls-14" d="M806.22,643.82c-5.18,0-11.53,3.67-14.12,8.15L781.22,670.8c-2.59,4.48-2.59,11.82,0,16.3l10.87,18.82c2.59,4.48,8.95,8.15,14.12,8.15h21.72c5.18,0,11.53-3.67,14.12-8.15l10.86-18.82c2.59-4.48,2.59-11.82,0-16.31L842.06,652c-2.59-4.48-8.94-8.15-14.12-8.15H806.22Z"/><path class="cls-14" d="M806.22,527c-5.18,0-11.53,3.67-14.12,8.15l-10.87,18.83c-2.59,4.48-2.59,11.82,0,16.3l10.87,18.82c2.59,4.48,8.95,8.15,14.12,8.15h21.72c5.18,0,11.53-3.67,14.12-8.15l10.86-18.81c2.59-4.48,2.59-11.82,0-16.31l-10.86-18.82c-2.59-4.48-8.94-8.15-14.12-8.15H806.22Z"/><path class="cls-15" d="M815.71,803.91V831.1a6.06,6.06,0,0,1-6,6H782.47a6.06,6.06,0,0,1-6-6V773.69a6.06,6.06,0,0,1,6-6h27.19a6.06,6.06,0,0,1,6,6v30.22Z"/><line class="cls-16" x1="798.34" y1="773.24" x2="793.81" y2="773.24"/><path class="cls-16" d="M793,829.81a3,3,0,1,0,3-3A3,3,0,0,0,793,829.81Z"/><path class="cls-17" d="M816.2,812.37h22.72a4.81,4.81,0,0,0,4.79-4.79V793.23a4.8,4.8,0,0,0-4.79-4.79H813.8a4.8,4.8,0,0,0-4.78,4.79v26.31Z"/><path class="cls-17" d="M792.07,803.2h14.08a3,3,0,0,0,3-3v-8.89a3,3,0,0,0-3-3H790.59a3,3,0,0,0-3,3v16.3Z"/><path class="cls-15" d="M809.31,801.45h40a8.45,8.45,0,0,0,8.43-8.42v-26.7a8.45,8.45,0,0,0-8.43-8.42H805.1a8.44,8.44,0,0,0-8.42,8.42v47.74Z"/><path class="cls-9" d="M837.14,775.16a4.77,4.77,0,0,1,2,.4,3.32,3.32,0,0,1,1.31,1,2.24,2.24,0,0,1,.49,1.18,0.3,0.3,0,0,1-.1.27,0.39,0.39,0,0,1-.28.1h-1a0.57,0.57,0,0,1-.35-0.09,0.67,0.67,0,0,1-.22-0.25,1.71,1.71,0,0,0-.69-0.63,2.56,2.56,0,0,0-1.22-.24,2.47,2.47,0,0,0-1.28.3,0.93,0.93,0,0,0-.51.82,0.86,0.86,0,0,0,.24.65,1.87,1.87,0,0,0,.76.39q0.51,0.15,1.69.41a5.49,5.49,0,0,1,2.45,1,2.25,2.25,0,0,1,.76,1.8,2.5,2.5,0,0,1-.49,1.51,3.22,3.22,0,0,1-1.41,1,6.09,6.09,0,0,1-4.11,0,3.53,3.53,0,0,1-1.47-1,2.21,2.21,0,0,1-.61-1.42,0.33,0.33,0,0,1,.1-0.27,0.42,0.42,0,0,1,.28-0.1h1a0.64,0.64,0,0,1,.35.08,0.61,0.61,0,0,1,.22.25,1.78,1.78,0,0,0,.69.74,2.81,2.81,0,0,0,1.41.27,3.56,3.56,0,0,0,1.54-.3,0.94,0.94,0,0,0,.62-0.88,0.67,0.67,0,0,0-.24-0.54,1.84,1.84,0,0,0-.67-0.34c-0.29-.09-0.73-0.2-1.32-0.34l-0.91-.21a4.61,4.61,0,0,1-2.12-1,2.75,2.75,0,0,1-.17-3.33,3.27,3.27,0,0,1,1.32-1,4.58,4.58,0,0,1,1.88-.37m-9.38.14a3.75,3.75,0,0,1,4.19,3.86c0,0.23,0,.58,0,1s0,0.8,0,1a4.24,4.24,0,0,1-1.14,2.85,4.06,4.06,0,0,1-3,1H824.3A0.36,0.36,0,0,1,824,785a0.37,0.37,0,0,1-.11-0.27v-9a0.39,0.39,0,0,1,.38-0.38h3.46m-1.95,8.05h1.95a2.25,2.25,0,0,0,1.67-.57,2.32,2.32,0,0,0,.63-1.54c0-.23,0-0.58,0-1s0-.8,0-1a2.28,2.28,0,0,0-.64-1.54,2.36,2.36,0,0,0-1.73-.57h-1.88v6.3m-7.14-8.05a0.45,0.45,0,0,1,.33.12,0.87,0.87,0,0,1,.2.36l3.43,8.85a0.49,0.49,0,0,1,0,.1,0.37,0.37,0,0,1-.11.27,0.36,0.36,0,0,1-.27.11h-1a0.52,0.52,0,0,1-.54-0.35l-0.6-1.56h-4.42l-0.6,1.56a0.52,0.52,0,0,1-.55.35h-1a0.38,0.38,0,0,1-.38-0.38,0.26,0.26,0,0,1,0-.1l3.43-8.85a0.87,0.87,0,0,1,.2-0.36,0.46,0.46,0,0,1,.33-0.12h1.54m-2.31,6.15h3.08l-1.55-4-1.54,4m20.78-8.72a7,7,0,0,0-2.87.58,5.82,5.82,0,0,0-1.81,1.24,6.52,6.52,0,0,0-4.71-1.68H824.3a2.79,2.79,0,0,0-2,.85,2.75,2.75,0,0,0-.74,1.38l-0.06-.16a3.22,3.22,0,0,0-.83-1.29,2.89,2.89,0,0,0-2-.77h-1.54a2.89,2.89,0,0,0-2,.76,3.2,3.2,0,0,0-.83,1.3l-3.42,8.83a2.63,2.63,0,0,0-.18,1,2.82,2.82,0,0,0,2.81,2.81h1a2.93,2.93,0,0,0,2.82-1.91h1.09a2.93,2.93,0,0,0,2.82,1.91h1a2.85,2.85,0,0,1,2,0h3.53a6.47,6.47,0,0,0,4.53-1.57,6.14,6.14,0,0,0,2,1.22,8.51,8.51,0,0,0,5.88-.08,5.63,5.63,0,0,0,2.44-1.84,5,5,0,0,0,1-3,4.79,4.79,0,0,0-.86-2.84,2.75,2.75,0,0,0,.57-1.94,4.64,4.64,0,0,0-1-2.43,5.71,5.71,0,0,0-2.25-1.76,7.2,7.2,0,0,0-3.05-.62h0Z"/><path class="cls-15" d="M829,598.82a7.2,7.2,0,0,0,7.18-7.18V533.72a7.2,7.2,0,0,0-7.18-7.19H793.2a7.21,7.21,0,0,0-7.18,7.19v57.91a7.2,7.2,0,0,0,7.18,7.18H829Z"/><line class="cls-18" x1="794.94" y1="540.36" x2="803.49" y2="540.36"/><path class="cls-16" d="M807.11,545.71a1.74,1.74,0,0,0-1.73-1.73h-8.7a1.74,1.74,0,0,0-1.73,1.73v2.57a1.74,1.74,0,0,0,1.73,1.73h8.7a1.74,1.74,0,0,0,1.73-1.73v-2.57Z"/><line class="cls-18" x1="814.25" y1="540.36" x2="822.79" y2="540.36"/><path class="cls-16" d="M826.42,545.71a1.74,1.74,0,0,0-1.73-1.73H816a1.74,1.74,0,0,0-1.73,1.73v2.57A1.74,1.74,0,0,0,816,550h8.7a1.74,1.74,0,0,0,1.73-1.73v-2.57Z"/><line class="cls-18" x1="794.94" y1="558.46" x2="803.49" y2="558.46"/><rect class="cls-16" x="794.94" y="562.08" width="32.33" height="6.03" rx="1.73" ry="1.73"/><rect class="cls-16" x="794.94" y="576.56" width="32.33" height="12.06" rx="1.73" ry="1.73"/><polygon class="cls-17" points="848.13 584.93 845.94 589.51 843.74 584.93 843.74 538.06 848.13 538.06 848.13 584.93"/><text class="cls-19" transform="translate(777.18 860.86)">F<tspan x="7.49" y="0">aceboo</tspan><tspan x="53.2" y="0">k</tspan><tspan x="60.27" y="0"> </tspan><tspan x="62.89" y="0">A</tspan><tspan x="71.82" y="0">d</tspan></text><text class="cls-19" transform="translate(798.98 733.46)">E<tspan x="8.03" y="0">ca</tspan><tspan x="22.88" y="0">r</tspan><tspan x="28.21" y="0">d</tspan></text><text class="cls-19" transform="translate(774 622.29)">Co<tspan x="16.59" y="0">n</tspan><tspan x="24.62" y="0">tact </tspan><tspan x="53.61" y="0">F</tspan><tspan x="61.3" y="0">orm</tspan></text><rect class="cls-15" x="798.14" y="656.46" width="61.8" height="42.91" rx="6.14" ry="6.14"/><rect class="cls-16" x="832.13" y="666.14" width="20.79" height="7.2" rx="2.07" ry="2.07"/><line class="cls-16" x1="832.13" y1="679.68" x2="852.92" y2="679.68"/><line class="cls-16" x1="832.13" y1="689.4" x2="847.75" y2="689.4"/><line class="cls-16" x1="832.13" y1="684.21" x2="836.3" y2="684.21"/><path class="cls-9" d="M812.66,672.8a0.53,0.53,0,0,1,.17.39v2a0.53,0.53,0,0,1-.17.39,0.52,0.52,0,0,1-.39.17h-1.9a0.52,0.52,0,0,1-.39-0.17,0.53,0.53,0,0,1-.16-0.39v-2a0.54,0.54,0,0,1,.16-0.39,0.53,0.53,0,0,1,.39-0.16h1.9A0.52,0.52,0,0,1,812.66,672.8Zm0,7.17a0.53,0.53,0,0,1,.17.39v2a0.56,0.56,0,0,1-.55.55h-1.9a0.55,0.55,0,0,1-.55-0.55v-2A0.53,0.53,0,0,1,810,680a0.52,0.52,0,0,1,.39-0.16h1.9A0.52,0.52,0,0,1,812.66,680Z"/><path class="cls-9" d="M820,673.89a5.35,5.35,0,0,0-.83-2.31,2.22,2.22,0,0,0-1.68-.92,0.65,0.65,0,0,1-.39-0.17,0.51,0.51,0,0,1-.16-0.38v-1.35a0.55,0.55,0,0,1,.55-0.55,4.56,4.56,0,0,1,3.19,1.08,6.17,6.17,0,0,1,1.7,3.18,27.6,27.6,0,0,1,0,10.58,6.23,6.23,0,0,1-1.7,3.19,4.52,4.52,0,0,1-3.19,1.1,0.56,0.56,0,0,1-.55-0.55v-1.35a0.5,0.5,0,0,1,.16-0.38,0.62,0.62,0,0,1,.39-0.17,2.24,2.24,0,0,0,1.68-.92,5.37,5.37,0,0,0,.83-2.32A32.12,32.12,0,0,0,820,673.89Z"/><line class="cls-18" x1="798.11" y1="684.25" x2="783.59" y2="684.25"/><line class="cls-18" x1="784.66" y1="668.33" x2="774.21" y2="668.33"/><line class="cls-18" x1="795" y1="678.95" x2="774.21" y2="678.95"/><line class="cls-18" x1="803.28" y1="673.64" x2="782.48" y2="673.64"/><path class="cls-14" d="M445,408.82c7.85,0,17.47-5.56,21.4-12.35l31.83-55.13c3.92-6.79,3.92-17.91,0-24.71l-31.82-55.11c-3.92-6.79-13.55-12.35-21.4-12.35H381.39c-7.85,0-17.47,5.56-21.4,12.35l-31.82,55.11c-3.92,6.79-3.92,17.91,0,24.71L360,396.46c3.92,6.79,13.55,12.35,21.4,12.35H445Z"/><line class="cls-20" x1="411.25" y1="317.24" x2="415.75" y2="325.45"/><path class="cls-21" d="M409.38,348.63H394.9a12,12,0,0,1-9.4-5.43l-14-24.22a11.79,11.79,0,0,1-.13-10.63l3-5.2"/><line class="cls-20" x1="444.89" y1="321.29" x2="438.99" y2="331.51"/><path class="cls-21" d="M417.62,278.5h5.75c3.16,0,7.15,2.44,8.88,5.43l7.09,12.28"/><path class="cls-13" d="M440.36,321.29a4.31,4.31,0,0,1-3.36-1.94l-5-8.66a4.3,4.3,0,0,1,0-3.88l5-8.66a4.31,4.31,0,0,1,3.36-1.94h10a4.31,4.31,0,0,1,3.36,1.94l5,8.66a4.31,4.31,0,0,1,0,3.88l-5,8.66a4.31,4.31,0,0,1-3.36,1.94h-10Z"/><path class="cls-22" d="M440.36,321.29a4.31,4.31,0,0,1-3.36-1.94l-5-8.66a4.3,4.3,0,0,1,0-3.88l5-8.66a4.31,4.31,0,0,1,3.36-1.94h10a4.31,4.31,0,0,1,3.36,1.94l5,8.66a4.31,4.31,0,0,1,0,3.88l-5,8.66a4.31,4.31,0,0,1-3.36,1.94h-10Z"/><path class="cls-20" d="M444.1,311.9a1.09,1.09,0,0,1-.85-0.49L442,309.24a1.08,1.08,0,0,1,0-1l1.26-2.18a1.09,1.09,0,0,1,.85-0.49h2.52a1.08,1.08,0,0,1,.85.49l1.26,2.18a1.08,1.08,0,0,1,0,1l-1.26,2.18a1.08,1.08,0,0,1-.85.49H444.1Z"/><path class="cls-13" d="M418.8,359.65a5.87,5.87,0,0,1-4.58-2.65l-6.82-11.81a5.87,5.87,0,0,1,0-5.29l6.82-11.81a5.87,5.87,0,0,1,4.58-2.65h13.64a5.87,5.87,0,0,1,4.58,2.65l6.82,11.81a5.87,5.87,0,0,1,0,5.29L437,357a5.87,5.87,0,0,1-4.58,2.65H418.8Z"/><path class="cls-22" d="M418.8,359.65a5.87,5.87,0,0,1-4.58-2.65l-6.82-11.81a5.87,5.87,0,0,1,0-5.29l6.82-11.81a5.87,5.87,0,0,1,4.58-2.65h13.64a5.87,5.87,0,0,1,4.58,2.65l6.82,11.81a5.87,5.87,0,0,1,0,5.29L437,357a5.87,5.87,0,0,1-4.58,2.65H418.8Z"/><path class="cls-20" d="M423.3,348.37a2,2,0,0,1-1.56-.9l-2.32-4a2,2,0,0,1,0-1.8l2.32-4a2,2,0,0,1,1.56-.9h4.64a2,2,0,0,1,1.56.9l2.32,4a2,2,0,0,1,0,1.8l-2.32,4a2,2,0,0,1-1.56.9H423.3Z"/><path class="cls-13" d="M387,317.24a8.55,8.55,0,0,1-6.67-3.85l-9.93-17.19a8.54,8.54,0,0,1,0-7.7l9.93-17.18a8.55,8.55,0,0,1,6.67-3.85h19.84a8.54,8.54,0,0,1,6.67,3.85l9.92,17.18a8.54,8.54,0,0,1,0,7.7l-9.92,17.18a8.54,8.54,0,0,1-6.67,3.85H387Z"/><path class="cls-22" d="M387,317.24a8.55,8.55,0,0,1-6.67-3.85l-9.93-17.19a8.54,8.54,0,0,1,0-7.7l9.93-17.18a8.55,8.55,0,0,1,6.67-3.85h19.84a8.54,8.54,0,0,1,6.67,3.85l9.92,17.18a8.54,8.54,0,0,1,0,7.7l-9.92,17.18a8.54,8.54,0,0,1-6.67,3.85H387Z"/><path class="cls-20" d="M393,302a3.31,3.31,0,0,1-2.58-1.49l-3.84-6.66a3.31,3.31,0,0,1,0-3l3.84-6.65a3.31,3.31,0,0,1,2.58-1.49h7.69a3.31,3.31,0,0,1,2.58,1.49l3.84,6.65a3.31,3.31,0,0,1,0,3l-3.84,6.66a3.31,3.31,0,0,1-2.58,1.49H393Z"/><text class="cls-23" transform="translate(380.05 389.1)">3</text><text class="cls-23" transform="translate(388.82 384.47) scale(0.58)">RD</text><text class="cls-23" transform="translate(399.98 389.1)"> <tspan x="3.17" y="0">P</tspan><tspan x="11.72" y="0">A</tspan><tspan x="21.36" y="0">R</tspan><tspan x="30.62" y="0">T</tspan><tspan x="39.04" y="0">Y</tspan></text><path class="cls-14" d="M261.75,604.82c7.85,0,17.47-5.56,21.4-12.35L315,537.34c3.92-6.79,3.92-17.91,0-24.71l-31.82-55.11c-3.92-6.79-13.55-12.35-21.4-12.35H198.11c-7.85,0-17.47,5.56-21.4,12.35l-31.82,55.11c-3.92,6.79-3.92,17.91,0,24.71l31.82,55.13c3.92,6.79,13.55,12.35,21.4,12.35h63.65Z"/><path class="cls-24" d="M214.08,547.48a13.7,13.7,0,0,1-10.7-6.18l-15.92-27.57a13.7,13.7,0,0,1,0-12.35l15.91-27.56a13.7,13.7,0,0,1,10.7-6.18h31.82a13.7,13.7,0,0,1,10.7,6.18l15.91,27.56a13.7,13.7,0,0,1,0,12.35L256.61,541.3a13.7,13.7,0,0,1-10.7,6.18H214.08Z"/><path class="cls-9" d="M219.11,502.32a0.4,0.4,0,0,1,.29.12,0.4,0.4,0,0,1,.12.29v9.69a0.39,0.39,0,0,1-.12.28,0.39,0.39,0,0,1-.29.12H217.9a0.39,0.39,0,0,1-.28-0.12,0.39,0.39,0,0,1-.12-0.28v-9.69a0.4,0.4,0,0,1,.12-0.29,0.39,0.39,0,0,1,.28-0.12h1.21m0-2.61H217.9a3,3,0,0,0-2.13.89,3,3,0,0,0-.88,2.12v9.69a3,3,0,0,0,.87,2.11,3,3,0,0,0,2.14.9h1.21a3,3,0,0,0,3-3v-9.69a3,3,0,0,0-.87-2.11l0,0,0,0a3,3,0,0,0-2.1-.85h0Z"/><path class="cls-9" d="M227.41,502.17a4,4,0,0,1,4.41,4.06c0,0.46,0,.86,0,1.2s0,0.95,0,1.49a4.41,4.41,0,0,1-8.82,0q0-.81,0-1.49,0-.51,0-1.2a4,4,0,0,1,4.41-4.06m0,8.93a2.4,2.4,0,0,0,1.69-.59,2.34,2.34,0,0,0,.69-1.66q0-.38,0-1.28c0-.59,0-1,0-1.26a2.38,2.38,0,0,0-4.77,0c0,0.5,0,.92,0,1.26s0,0.77,0,1.28a2.33,2.33,0,0,0,.69,1.66,2.4,2.4,0,0,0,1.69.59m0-11.53a6.81,6.81,0,0,0-5.07,1.91,7,7,0,0,0-1.94,4.63c0,0.49,0,.94,0,1.33s0,1,0,1.6a6.94,6.94,0,0,0,1.95,4.64,7.7,7.7,0,0,0,10.13,0,6.91,6.91,0,0,0,1.95-4.63c0-.6,0-1.13,0-1.61s0-.81,0-1.32a6.59,6.59,0,0,0-7-6.55h0Z"/><path class="cls-9" d="M242.08,502.32a0.41,0.41,0,0,1,.4.41v1.06a0.38,0.38,0,0,1-.12.29,0.37,0.37,0,0,1-.28.12h-2.7v8.22a0.39,0.39,0,0,1-.12.28,0.39,0.39,0,0,1-.29.12h-1.21a0.38,0.38,0,0,1-.29-0.12,0.37,0.37,0,0,1-.12-0.28v-8.22h-2.7a0.37,0.37,0,0,1-.28-0.12,0.38,0.38,0,0,1-.12-0.29v-1.06a0.41,0.41,0,0,1,.41-0.41h7.42m0-2.61h-7.42a3,3,0,0,0-3,3v1.06a3,3,0,0,0,3,3h0.09v5.61a3,3,0,0,0,3,3H239a3,3,0,0,0,3-3V506.8h0.09a3,3,0,0,0,3-3v-1.06a3,3,0,0,0-3-3h0Z"/><line class="cls-20" x1="189.54" y1="516.51" x2="189.54" y2="516.51"/><line class="cls-20" x1="259.45" y1="535.72" x2="259.45" y2="535.72"/><circle class="cls-25" cx="197.33" cy="484.55" r="4.01"/><circle class="cls-25" cx="265.36" cy="488.55" r="4.01"/><path class="cls-25" d="M226.18,547.48a4,4,0,1,0,4-4A4,4,0,0,0,226.18,547.48Z"/><text class="cls-23" transform="translate(219.12 585.96)">I<tspan x="4.17" y="0">O</tspan><tspan x="13.65" y="0">T</tspan></text><path class="cls-14" d="M724.93,317.53c7.85,0,17.47-5.56,21.4-12.35L778.16,250c3.92-6.79,3.92-17.91,0-24.71l-31.83-55.11c-3.92-6.79-13.55-12.35-21.4-12.35H661.29c-7.85,0-17.47,5.56-21.4,12.35l-31.82,55.11c-3.92,6.79-3.92,17.91,0,24.71l31.83,55.13c3.92,6.79,13.55,12.35,21.4,12.35h63.65Z"/><line class="cls-20" x1="662.01" y1="259.51" x2="687.46" y2="259.51"/><line class="cls-20" x1="693.17" y1="247.99" x2="693.17" y2="253.53"/><line class="cls-20" x1="698.93" y1="259.51" x2="724.38" y2="259.51"/><path class="cls-26" d="M647.09,186.92a8.06,8.06,0,0,1,8-8.07h76.14a8.06,8.06,0,0,1,8,8.07v6.92a8.07,8.07,0,0,1-8,8.06H655.1a8.06,8.06,0,0,1-8-8.06v-6.92Z"/><line class="cls-22" x1="678.64" y1="195.04" x2="655.47" y2="195.04"/><line class="cls-22" x1="732.35" y1="190.38" x2="732.35" y2="190.38"/><line class="cls-20" x1="727.74" y1="190.38" x2="727.74" y2="190.38"/><path class="cls-26" d="M647.09,210a8.06,8.06,0,0,1,8-8.06h76.14a8.06,8.06,0,0,1,8,8.06v6.92a8.06,8.06,0,0,1-8,8.06H655.1a8.06,8.06,0,0,1-8-8.06V210Z"/><line class="cls-22" x1="678.64" y1="218.09" x2="655.47" y2="218.09"/><line class="cls-22" x1="727.74" y1="213.42" x2="727.74" y2="213.42"/><line class="cls-20" x1="732.35" y1="213.42" x2="732.35" y2="213.42"/><path class="cls-26" d="M647.09,233a8.06,8.06,0,0,1,8-8.07h76.14a8.06,8.06,0,0,1,8,8.07v6.92a8.07,8.07,0,0,1-8,8.06H655.1a8.06,8.06,0,0,1-8-8.06V233Z"/><line class="cls-22" x1="678.64" y1="241.13" x2="655.47" y2="241.13"/><line class="cls-22" x1="732.35" y1="236.47" x2="732.35" y2="236.47"/><line class="cls-20" x1="727.74" y1="236.47" x2="727.74" y2="236.47"/><rect class="cls-13" x="687.41" y="254.16" width="11.52" height="11.52" rx="2.3" ry="2.3"/><rect class="cls-22" x="687.41" y="254.16" width="11.52" height="11.52" rx="2.3" ry="2.3"/><text class="cls-23" transform="translate(661.67 298.85)">SE<tspan x="17.6" y="0">R</tspan><tspan x="26.66" y="0">VERS</tspan></text><path class="cls-14" d="M660.41,760c7.85,0,17.47-5.56,21.4-12.35l31.83-55.13c3.92-6.79,3.92-17.91,0-24.71l-31.83-55.11c-3.92-6.79-13.55-12.35-21.4-12.35H596.76c-7.85,0-17.47,5.56-21.4,12.35l-31.82,55.11c-3.92,6.79-3.92,17.91,0,24.71l31.83,55.13c3.92,6.79,13.55,12.35,21.4,12.35h63.65Z"/><rect class="cls-26" x="582.56" y="630.94" width="92.18" height="67.53" rx="8.02" ry="8.02"/><line class="cls-22" x1="591.78" y1="640.16" x2="591.78" y2="640.16"/><line class="cls-20" x1="596.39" y1="640.16" x2="596.39" y2="640.16"/><line class="cls-20" x1="600.99" y1="640.16" x2="600.99" y2="640.16"/><path class="cls-9" d="M617.79,661.61a0.49,0.49,0,0,1,.36.15,0.48,0.48,0,0,1,.14.35l0,0.16-3.18,9.55a0.68,0.68,0,0,1-.62.58h-0.64a0.52,0.52,0,0,1-.4-0.16,1.22,1.22,0,0,1-.25-0.42l-2.47-6.89-2.47,6.89a1.34,1.34,0,0,1-.25.42,0.51,0.51,0,0,1-.39.16H607a0.67,0.67,0,0,1-.62-0.58l-3.18-9.55,0-.16a0.48,0.48,0,0,1,.14-0.35,0.49,0.49,0,0,1,.35-0.15h0.69a0.7,0.7,0,0,1,.71.5l2.33,6.93,2.49-6.93a0.66,0.66,0,0,1,.65-0.5h0.45a0.66,0.66,0,0,1,.64.5l2.5,6.93,2.32-6.93a0.7,0.7,0,0,1,.71-0.5h0.68m0-2.61h-0.68a3.3,3.3,0,0,0-3.12,2.12,3.24,3.24,0,0,0-3.05-2.12h-0.45a3.25,3.25,0,0,0-3.05,2.11,3.31,3.31,0,0,0-3.12-2.11h-0.69a3.1,3.1,0,0,0-2.16.87l0,0,0,0a3.09,3.09,0,0,0-.91,2.2v0.28l0,0.16,0,0.28,0.09,0.27,3.18,9.55A3.23,3.23,0,0,0,607,675h0.64a3.1,3.1,0,0,0,2.3-1,3.86,3.86,0,0,0,.75-1.22l0,0,0,0,0-.05,0,0.05a3.83,3.83,0,0,0,.82,1.34,3.11,3.11,0,0,0,2.28,1h0.64a3.23,3.23,0,0,0,3.1-2.4l3.17-9.52,0.09-.26,0-.27,0-.16,0-.15v-0.15a3.08,3.08,0,0,0-.92-2.21,3.12,3.12,0,0,0-2.19-.9h0Z"/><path class="cls-9" d="M635.57,661.61a0.5,0.5,0,0,1,.36.15,0.48,0.48,0,0,1,.14.35l0,0.16-3.18,9.55a0.68,0.68,0,0,1-.62.58h-0.64a0.52,0.52,0,0,1-.4-0.16,1.32,1.32,0,0,1-.25-0.42l-2.47-6.89L626,671.83a1.32,1.32,0,0,1-.25.42,0.52,0.52,0,0,1-.39.16h-0.65a0.68,0.68,0,0,1-.62-0.58l-3.18-9.55,0-.16a0.49,0.49,0,0,1,.15-0.35,0.48,0.48,0,0,1,.35-0.15h0.69a0.7,0.7,0,0,1,.7.5l2.33,6.93,2.49-6.93a0.67,0.67,0,0,1,.65-0.5h0.46a0.67,0.67,0,0,1,.65.5l2.49,6.93,2.33-6.93a0.69,0.69,0,0,1,.7-0.5h0.68m0-2.61h-0.68a3.3,3.3,0,0,1-6.17,0h-0.46a3.31,3.31,0,0,1-6.17,0h-0.69a3.11,3.11,0,0,0-3.1,3.11v0.17l0,0.17,0,0.16,0,0.25,0.08,0.24,3.18,9.55a3.24,3.24,0,0,0,3.09,2.36h0.65a3.12,3.12,0,0,0,2.27-1,3.86,3.86,0,0,0,.79-1.26l0,0,0,0,0,0,0,0v0.06a3.93,3.93,0,0,0,.77,1.25l0,0,0,0a3.12,3.12,0,0,0,2.27,1h0.64a3.24,3.24,0,0,0,3.1-2.38l3.17-9.54,0.08-.25,0-.26,0-.16,0-.15v-0.15a3.09,3.09,0,0,0-.89-2.18l0,0,0,0a3.12,3.12,0,0,0-2.14-.86h0Z"/><path class="cls-9" d="M653.35,661.61a0.47,0.47,0,0,1,.35.15,0.48,0.48,0,0,1,.15.35l0,0.16-3.18,9.55a0.67,0.67,0,0,1-.62.58h-0.64a0.51,0.51,0,0,1-.39-0.16,1.28,1.28,0,0,1-.25-0.42l-2.47-6.89-2.47,6.89a1.27,1.27,0,0,1-.25.42,0.51,0.51,0,0,1-.39.16h-0.64a0.68,0.68,0,0,1-.62-0.58l-3.17-9.55,0-.16a0.5,0.5,0,0,1,.15-0.35,0.49,0.49,0,0,1,.36-0.15h0.68a0.69,0.69,0,0,1,.71.5l2.33,6.93,2.49-6.93a0.67,0.67,0,0,1,.64-0.5h0.46a0.66,0.66,0,0,1,.64.5l2.49,6.93,2.33-6.93a0.7,0.7,0,0,1,.71-0.5h0.68m0-2.61h-0.68a3.31,3.31,0,0,0-3.12,2.12A3.26,3.26,0,0,0,646.5,659H646a3.25,3.25,0,0,0-3.05,2.11,3.28,3.28,0,0,0-3.12-2.11h-0.68a3.09,3.09,0,0,0-2.2.91l0,0,0,0a3.11,3.11,0,0,0-.86,2.15v0.2l0,0.2,0,0.16,0,0.22,0.07,0.21,3.17,9.55a3.23,3.23,0,0,0,3.1,2.36h0.64a3.1,3.1,0,0,0,2.3-1,3.87,3.87,0,0,0,.78-1.26v-0.06l0-.05,0,0.05v0.07a3.81,3.81,0,0,0,.79,1.27,3.09,3.09,0,0,0,2.28,1H650a3.23,3.23,0,0,0,3.11-2.4l3.17-9.52,0.08-.24,0-.26,0-.16,0-.16v-0.16a3.12,3.12,0,0,0-3.11-3.11h0Z"/><line class="cls-22" x1="610.73" y1="640.16" x2="674.74" y2="640.16"/><text class="cls-23" transform="translate(613.87 738.53)">WEB</text><g class="cls-12"><path class="cls-9" d="M714.88,672.52a5.51,5.51,0,0,0,4.3-2.49l6.4-11.09a5.52,5.52,0,0,0,0-5l-6.4-11.09a5.51,5.51,0,0,0-4.3-2.49H702.07a5.51,5.51,0,0,0-4.3,2.49L691.37,654a5.51,5.51,0,0,0,0,5l6.4,11.09a5.51,5.51,0,0,0,4.3,2.49h12.81Z"/></g><g class="cls-12"><path class="cls-9" d="M282.48,620.88a5.51,5.51,0,0,0,4.3-2.49l6.4-11.09a5.51,5.51,0,0,0,0-5l-6.4-11.09a5.51,5.51,0,0,0-4.3-2.49h-12.8a5.51,5.51,0,0,0-4.3,2.49L259,602.34a5.51,5.51,0,0,0,0,5l6.4,11.09a5.51,5.51,0,0,0,4.3,2.49h12.8Z"/></g><g class="cls-10"><path class="cls-9" d="M346,314.91a5.51,5.51,0,0,0,4.3-2.49l6.4-11.09a5.51,5.51,0,0,0,0-5l-6.4-11.09a5.51,5.51,0,0,0-4.3-2.49h-12.8a5.51,5.51,0,0,0-4.3,2.48l-6.4,11.09a5.51,5.51,0,0,0,0,5l6.4,11.09a5.51,5.51,0,0,0,4.3,2.49H346Z"/></g><g class="cls-7"><path class="cls-2" d="M563.26,730.82a3.75,3.75,0,0,0,2.93-1.69l4.36-7.54a3.75,3.75,0,0,0,0-3.38l-4.35-7.54a3.75,3.75,0,0,0-2.93-1.69h-8.71a3.75,3.75,0,0,0-2.93,1.69l-4.35,7.54a3.75,3.75,0,0,0,0,3.38l4.36,7.54a3.75,3.75,0,0,0,2.93,1.69h8.71Z"/></g><g class="cls-7"><path class="cls-2" d="M188.26,456.1a3.75,3.75,0,0,0,2.93-1.69l4.35-7.54a3.75,3.75,0,0,0,0-3.38l-4.35-7.54a3.75,3.75,0,0,0-2.93-1.69h-8.71a3.75,3.75,0,0,0-2.93,1.69l-4.35,7.54a3.75,3.75,0,0,0,0,3.38l4.35,7.54a3.75,3.75,0,0,0,2.93,1.69h8.71Z"/></g><g class="cls-11"><path class="cls-9" d="M554.44,672.54a5.52,5.52,0,0,0,4.31-2.49l6.41-11.1a5.52,5.52,0,0,0,0-5l-6.41-11.09a5.52,5.52,0,0,0-4.31-2.49H541.63a5.52,5.52,0,0,0-4.31,2.49L530.92,654a5.52,5.52,0,0,0,0,5l6.4,11.1a5.52,5.52,0,0,0,4.31,2.49h12.81Z"/></g><g class="cls-7"><path class="cls-2" d="M494.07,370.19A3.75,3.75,0,0,0,497,368.5l4.35-7.54a3.75,3.75,0,0,0,0-3.38L497,350a3.75,3.75,0,0,0-2.93-1.69h-8.71a3.75,3.75,0,0,0-2.93,1.69l-4.35,7.54a3.75,3.75,0,0,0,0,3.38l4.35,7.54a3.75,3.75,0,0,0,2.93,1.69h8.71Z"/></g><path class="cls-14" d="M413.8,841c7.85,0,17.47-5.56,21.4-12.35L467,773.52c3.92-6.79,3.92-17.91,0-24.71L435.2,693.7c-3.92-6.79-13.55-12.35-21.4-12.35H350.15c-7.85,0-17.47,5.56-21.4,12.35l-31.82,55.11c-3.92,6.79-3.92,17.91,0,24.71l31.82,55.13c3.92,6.79,13.55,12.35,21.4,12.35H413.8Z"/><line class="cls-20" x1="383.39" y1="712.66" x2="383.39" y2="713.87"/><path class="cls-25" d="M358,738a5.13,5.13,0,0,1-5.12-5.12V712.66a5.14,5.14,0,0,1,5.12-5.12h20.24"/><path class="cls-26" d="M365,728.43v-6.66a6.69,6.69,0,0,1,6.66-6.67h30a6.69,6.69,0,0,1,6.67,6.67v63.39a6.69,6.69,0,0,1-6.67,6.67h-30a6.69,6.69,0,0,1-6.66-6.67V749.63"/><line class="cls-22" x1="389.23" y1="721.27" x2="384.23" y2="721.27"/><circle class="cls-22" cx="386.73" cy="783.74" r="3.34"/><rect class="cls-13" x="378.27" y="699.65" width="11.51" height="11.51" rx="3.54" ry="3.54"/><rect class="cls-22" x="378.27" y="699.65" width="11.51" height="11.51" rx="3.54" ry="3.54"/><rect class="cls-20" x="394.98" y="736.58" width="5.75" height="5.75" rx="1.92" ry="1.92"/><path class="cls-20" d="M385.31,761.23V767a1.93,1.93,0,0,1-1.92,1.92h-5.76a1.92,1.92,0,0,1-1.92-1.92v-5.76a1.92,1.92,0,0,1,1.92-1.92h5.76"/><rect class="cls-22" x="383.47" y="747.61" width="13.43" height="13.43" rx="3.54" ry="3.54"/><rect class="cls-13" x="358.67" y="728.43" width="21.1" height="21.1" rx="3.54" ry="3.54"/><rect class="cls-22" x="358.67" y="728.43" width="21.1" height="21.1" rx="3.54" ry="3.54"/><text class="cls-23" transform="translate(362.19 821.79)">APPS</text><g class="cls-12"><path class="cls-9" d="M316.6,753a7.62,7.62,0,0,0,5.95-3.43l8.85-15.33a7.62,7.62,0,0,0,0-6.87l-8.85-15.32a7.62,7.62,0,0,0-5.95-3.43H298.91a7.62,7.62,0,0,0-5.95,3.43l-8.85,15.32a7.62,7.62,0,0,0,0,6.87L293,749.58a7.62,7.62,0,0,0,5.95,3.43H316.6Z"/></g><g class="cls-7"><path class="cls-2" d="M325.4,814.92a3.75,3.75,0,0,0,2.93-1.69l4.35-7.54a3.75,3.75,0,0,0,0-3.38l-4.35-7.54a3.75,3.75,0,0,0-2.93-1.69h-8.71a3.75,3.75,0,0,0-2.93,1.69l-4.35,7.54a3.75,3.75,0,0,0,0,3.38l4.35,7.54a3.75,3.75,0,0,0,2.93,1.69h8.71Z"/></g><g class="cls-8"><path class="cls-9" d="M314.33,808.78a3.75,3.75,0,0,0-2.93,1.69l-1.85,3.21a3.75,3.75,0,0,0,0,3.38l1.85,3.21a3.75,3.75,0,0,0,2.93,1.69H318a3.75,3.75,0,0,0,2.93-1.69l1.85-3.21a3.75,3.75,0,0,0,0-3.38L321,810.47a3.75,3.75,0,0,0-2.93-1.69h-3.7Z"/></g><path class="cls-2" d="M455.65,773.23a3.61,3.61,0,0,0-2.82,1.63l-4.19,7.27a3.61,3.61,0,0,0,0,3.25l4.19,7.25a3.61,3.61,0,0,0,2.82,1.63H464a3.61,3.61,0,0,0,2.82-1.63l4.19-7.25a3.61,3.61,0,0,0,0-3.25l-4.19-7.27a3.61,3.61,0,0,0-2.82-1.63h-8.39Z"/></g><g id="Layer_1_copy" data-name="Layer 1 copy"><path class="cls-27" d="M325.4,814.92a3.75,3.75,0,0,0,2.93-1.69l4.35-7.54a3.75,3.75,0,0,0,0-3.38l-4.35-7.54a3.75,3.75,0,0,0-2.93-1.69h-8.71a3.75,3.75,0,0,0-2.93,1.69l-4.35,7.54a3.75,3.75,0,0,0,0,3.38l4.35,7.54a3.75,3.75,0,0,0,2.93,1.69h8.71Z"/><path class="cls-2" d="M253.73,595.28a3.28,3.28,0,0,0-2.56,1.48l-3.81,6.6a3.28,3.28,0,0,0,0,3l3.81,6.59a3.28,3.28,0,0,0,2.56,1.48h7.61a3.28,3.28,0,0,0,2.56-1.48l3.81-6.59a3.28,3.28,0,0,0,0-3l-3.81-6.6a3.28,3.28,0,0,0-2.56-1.48h-7.61Z"/><path class="cls-2" d="M335.8,446.6a3.26,3.26,0,0,0-2.55,1.47l-3.79,6.56a3.26,3.26,0,0,0,0,2.94l3.79,6.55a3.26,3.26,0,0,0,2.55,1.47h7.58a3.26,3.26,0,0,0,2.55-1.47l3.79-6.55a3.26,3.26,0,0,0,0-2.94l-3.79-6.56a3.26,3.26,0,0,0-2.55-1.47H335.8Z"/><path class="cls-3" d="M422.2,727.37c-5.07,0-11.29-3.59-13.83-8l-106-183.61c-2.53-4.39-2.53-11.58,0-16l106-183.62c2.53-4.39,8.76-8,13.83-8h212c5.07,0,11.29,3.59,13.83,8l106,183.62c2.53,4.39,2.53,11.58,0,16l-106,183.61c-2.53,4.39-8.76,8-13.83,8h-212Z"/><path class="cls-4" d="M409.2,780.79c-14.88,0-33.14-10.55-40.58-23.43l-119-206.12c-7.44-12.89-7.44-34,0-46.87l119-206.13c7.44-12.89,25.7-23.43,40.58-23.43h238c14.88,0,33.14,10.54,40.58,23.43l119,206.13c7.44,12.89,7.44,34,0,46.87l-119,206.12c-7.44,12.89-25.7,23.43-40.59,23.43h-238Z"/><line class="cls-5" x1="789.62" y1="678.57" x2="690.28" y2="678.57"/><g class="cls-7"><path class="cls-27" d="M336.08,364.42a11.3,11.3,0,0,0,8.82-5.09L358,336.6a11.3,11.3,0,0,0,0-10.18L344.9,303.7a11.3,11.3,0,0,0-8.82-5.09H309.84A11.3,11.3,0,0,0,301,303.7L287.9,326.42a11.3,11.3,0,0,0,0,10.18L301,359.32a11.3,11.3,0,0,0,8.82,5.09h26.24Z"/></g><path class="cls-27" d="M681.38,353.57a1.83,1.83,0,0,0-1.43.82l-2.12,3.68a1.82,1.82,0,0,0,0,1.65l2.12,3.67a1.83,1.83,0,0,0,1.43.82h4.24a1.83,1.83,0,0,0,1.43-.82l2.12-3.67a1.82,1.82,0,0,0,0-1.65l-2.12-3.68a1.83,1.83,0,0,0-1.43-.82h-4.24Z"/><g class="cls-8"><path class="cls-27" d="M669,690.87a8.34,8.34,0,0,0-6.51,3.76l-9.68,16.78a8.34,8.34,0,0,0,0,7.52l9.68,16.76a8.34,8.34,0,0,0,6.51,3.76h19.37a8.34,8.34,0,0,0,6.51-3.76l9.68-16.76a8.34,8.34,0,0,0,0-7.52l-9.68-16.78a8.33,8.33,0,0,0-6.51-3.76H669Z"/></g><g class="cls-6"><path class="cls-27" d="M475.53,627a8.8,8.8,0,0,1-6.87-4L416,531.76a8.8,8.8,0,0,1,0-7.93l52.67-91.25a8.8,8.8,0,0,1,6.87-4H580.9a8.8,8.8,0,0,1,6.87,4l52.68,91.25a8.8,8.8,0,0,1,0,7.93L587.77,623a8.8,8.8,0,0,1-6.87,4H475.53Z"/></g><g class="cls-10"><path class="cls-27" d="M460.71,421.46a14.54,14.54,0,0,0,11.35-6.56L489,385.65a14.54,14.54,0,0,0,0-13.11l-16.89-29.24a14.54,14.54,0,0,0-11.35-6.55H426.94a14.54,14.54,0,0,0-11.35,6.55L398.7,372.54a14.54,14.54,0,0,0,0,13.11l16.89,29.25a14.54,14.54,0,0,0,11.35,6.56h33.77Z"/></g><g class="cls-10"><path class="cls-27" d="M754.95,388.2c5.57,0,12.41-3.95,15.2-8.77l22.6-39.15c2.79-4.83,2.79-12.72,0-17.55l-22.6-39.14c-2.79-4.83-9.62-8.77-15.2-8.77h-45.2c-5.57,0-12.41,3.95-15.2,8.77l-22.6,39.14c-2.79,4.83-2.79,12.72,0,17.55l22.6,39.15c2.79,4.83,9.62,8.77,15.2,8.77h45.2Z"/></g><g class="cls-11"><path class="cls-27" d="M471.61,784.07c5.57,0,12.41-3.95,15.2-8.77l22.6-39.15c2.79-4.83,2.79-12.72,0-17.55l-22.6-39.14c-2.79-4.83-9.62-8.77-15.2-8.77h-45.2c-5.57,0-12.41,3.95-15.2,8.77l-22.6,39.14c-2.79,4.83-2.79,12.72,0,17.55l22.6,39.15c2.79,4.83,9.62,8.77,15.2,8.77h45.2Z"/></g><g class="cls-10"><path class="cls-27" d="M312.43,560.91a12.33,12.33,0,0,0,9.63-5.56l14.32-24.8a12.33,12.33,0,0,0,0-11.12l-14.32-24.8a12.33,12.33,0,0,0-9.63-5.56H283.8a12.33,12.33,0,0,0-9.63,5.56l-14.32,24.8a12.33,12.33,0,0,0,0,11.12l14.32,24.8a12.33,12.33,0,0,0,9.63,5.56h28.64Z"/></g><g class="cls-10"><path class="cls-27" d="M619,687.64c5.57,0,12.41-3.95,15.2-8.77l22.6-39.15c2.79-4.83,2.79-12.72,0-17.55L634.19,583c-2.79-4.83-9.62-8.77-15.2-8.77h-45.2c-5.57,0-12.41,3.95-15.2,8.77L536,622.16c-2.79,4.83-2.79,12.72,0,17.55l22.6,39.15c2.79,4.83,9.62,8.77,15.2,8.77H619Z"/></g><g class="cls-12"><path class="cls-27" d="M609.39,284.24a9.93,9.93,0,0,0,7.75-4.48l11.53-20a9.93,9.93,0,0,0,0-9l-11.53-20a9.93,9.93,0,0,0-7.75-4.48H586.33a9.93,9.93,0,0,0-7.75,4.48l-11.53,20a9.93,9.93,0,0,0,0,9l11.53,20a9.93,9.93,0,0,0,7.75,4.48h23.07Z"/></g><g class="cls-12"><path class="cls-27" d="M589.69,777.75a9.93,9.93,0,0,0,7.75-4.48l11.53-20a9.93,9.93,0,0,0,0-9l-11.53-20a9.93,9.93,0,0,0-7.75-4.48H566.63a9.93,9.93,0,0,0-7.75,4.48l-11.53,20a9.93,9.93,0,0,0,0,9l11.53,20a9.93,9.93,0,0,0,7.75,4.48h23.06Z"/></g><g class="cls-7"><path class="cls-27" d="M667.33,399.79c7.1,0,15.81-5,19.36-11.18l28.8-49.89c3.55-6.15,3.55-16.21,0-22.36l-28.8-49.88c-3.55-6.15-12.26-11.18-19.36-11.18h-57.6c-7.1,0-15.81,5-19.36,11.18l-28.8,49.88c-3.55,6.15-3.55,16.21,0,22.36l28.8,49.89c3.55,6.15,12.26,11.18,19.36,11.18h57.6Z"/></g><g class="cls-7"><path class="cls-27" d="M397.54,712a10.53,10.53,0,0,0,8.23-4.75L418,686.09a10.54,10.54,0,0,0,0-9.5L405.77,655.4a10.54,10.54,0,0,0-8.23-4.75H373.07a10.53,10.53,0,0,0-8.23,4.75l-12.23,21.19a10.54,10.54,0,0,0,0,9.5l12.23,21.19a10.53,10.53,0,0,0,8.23,4.75h24.47Z"/></g><g class="cls-7"><path class="cls-27" d="M733.79,338.84a7,7,0,0,0,5.45-3.15l8.11-14.05a7,7,0,0,0,0-6.3l-8.11-14a7,7,0,0,0-5.45-3.15H717.57a7,7,0,0,0-5.45,3.15l-8.11,14a7,7,0,0,0,0,6.3l8.11,14.05a7,7,0,0,0,5.45,3.15h16.22Z"/></g><g class="cls-8"><path class="cls-27" d="M608.86,321.63a3.75,3.75,0,0,0-2.93,1.69l-1.85,3.21a3.75,3.75,0,0,0,0,3.38l1.85,3.21a3.75,3.75,0,0,0,2.93,1.69h3.7a3.75,3.75,0,0,0,2.93-1.69l1.85-3.21a3.75,3.75,0,0,0,0-3.38l-1.85-3.21a3.75,3.75,0,0,0-2.93-1.69h-3.7Z"/></g><path class="cls-5" d="M788,562.68H713.53c-7.58,0-17.15,5.22-21.25,11.59L604.16,711"/><path class="cls-5" d="M784.76,797.46H713.53c-7.58,0-17.15-5.22-21.25-11.59L604.16,649.11"/><path class="cls-14" d="M806.22,762.89c-5.18,0-11.53,3.67-14.12,8.15l-10.87,18.83c-2.59,4.48-2.59,11.82,0,16.3L792.1,825c2.59,4.48,8.95,8.15,14.12,8.15h21.72c5.18,0,11.53-3.67,14.12-8.15l10.86-18.81c2.59-4.48,2.59-11.82,0-16.31L842.06,771c-2.59-4.48-8.94-8.15-14.12-8.15H806.22Z"/><path class="cls-14" d="M806.22,643.82c-5.18,0-11.53,3.67-14.12,8.15L781.22,670.8c-2.59,4.48-2.59,11.82,0,16.3l10.87,18.82c2.59,4.48,8.95,8.15,14.12,8.15h21.72c5.18,0,11.53-3.67,14.12-8.15l10.86-18.82c2.59-4.48,2.59-11.82,0-16.31L842.06,652c-2.59-4.48-8.94-8.15-14.12-8.15H806.22Z"/><path class="cls-14" d="M806.22,527c-5.18,0-11.53,3.67-14.12,8.15l-10.87,18.83c-2.59,4.48-2.59,11.82,0,16.3l10.87,18.82c2.59,4.48,8.95,8.15,14.12,8.15h21.72c5.18,0,11.53-3.67,14.12-8.15l10.86-18.81c2.59-4.48,2.59-11.82,0-16.31l-10.86-18.82c-2.59-4.48-8.94-8.15-14.12-8.15H806.22Z"/><path class="cls-15" d="M815.71,803.91V831.1a6.06,6.06,0,0,1-6,6H782.47a6.06,6.06,0,0,1-6-6V773.69a6.06,6.06,0,0,1,6-6h27.19a6.06,6.06,0,0,1,6,6v30.22Z"/><line class="cls-16" x1="798.34" y1="773.24" x2="793.81" y2="773.24"/><path class="cls-16" d="M793,829.81a3,3,0,1,0,3-3A3,3,0,0,0,793,829.81Z"/><path class="cls-17" d="M816.2,812.37h22.72a4.81,4.81,0,0,0,4.79-4.79V793.23a4.8,4.8,0,0,0-4.79-4.79H813.8a4.8,4.8,0,0,0-4.78,4.79v26.31Z"/><path class="cls-17" d="M792.07,803.2h14.08a3,3,0,0,0,3-3v-8.89a3,3,0,0,0-3-3H790.59a3,3,0,0,0-3,3v16.3Z"/><path class="cls-15" d="M809.31,801.45h40a8.45,8.45,0,0,0,8.43-8.42v-26.7a8.45,8.45,0,0,0-8.43-8.42H805.1a8.44,8.44,0,0,0-8.42,8.42v47.74Z"/><path class="cls-9" d="M837.14,775.16a4.77,4.77,0,0,1,2,.4,3.32,3.32,0,0,1,1.31,1,2.24,2.24,0,0,1,.49,1.18,0.3,0.3,0,0,1-.1.27,0.39,0.39,0,0,1-.28.1h-1a0.57,0.57,0,0,1-.35-0.09,0.67,0.67,0,0,1-.22-0.25,1.71,1.71,0,0,0-.69-0.63,2.56,2.56,0,0,0-1.22-.24,2.47,2.47,0,0,0-1.28.3,0.93,0.93,0,0,0-.51.82,0.86,0.86,0,0,0,.24.65,1.87,1.87,0,0,0,.76.39q0.51,0.15,1.69.41a5.49,5.49,0,0,1,2.45,1,2.25,2.25,0,0,1,.76,1.8,2.5,2.5,0,0,1-.49,1.51,3.22,3.22,0,0,1-1.41,1,6.09,6.09,0,0,1-4.11,0,3.53,3.53,0,0,1-1.47-1,2.21,2.21,0,0,1-.61-1.42,0.33,0.33,0,0,1,.1-0.27,0.42,0.42,0,0,1,.28-0.1h1a0.64,0.64,0,0,1,.35.08,0.61,0.61,0,0,1,.22.25,1.78,1.78,0,0,0,.69.74,2.81,2.81,0,0,0,1.41.27,3.56,3.56,0,0,0,1.54-.3,0.94,0.94,0,0,0,.62-0.88,0.67,0.67,0,0,0-.24-0.54,1.84,1.84,0,0,0-.67-0.34c-0.29-.09-0.73-0.2-1.32-0.34l-0.91-.21a4.61,4.61,0,0,1-2.12-1,2.75,2.75,0,0,1-.17-3.33,3.27,3.27,0,0,1,1.32-1,4.58,4.58,0,0,1,1.88-.37m-9.38.14a3.75,3.75,0,0,1,4.19,3.86c0,0.23,0,.58,0,1s0,0.8,0,1a4.24,4.24,0,0,1-1.14,2.85,4.06,4.06,0,0,1-3,1H824.3A0.36,0.36,0,0,1,824,785a0.37,0.37,0,0,1-.11-0.27v-9a0.39,0.39,0,0,1,.38-0.38h3.46m-1.95,8.05h1.95a2.25,2.25,0,0,0,1.67-.57,2.32,2.32,0,0,0,.63-1.54c0-.23,0-0.58,0-1s0-.8,0-1a2.28,2.28,0,0,0-.64-1.54,2.36,2.36,0,0,0-1.73-.57h-1.88v6.3m-7.14-8.05a0.45,0.45,0,0,1,.33.12,0.87,0.87,0,0,1,.2.36l3.43,8.85a0.49,0.49,0,0,1,0,.1,0.37,0.37,0,0,1-.11.27,0.36,0.36,0,0,1-.27.11h-1a0.52,0.52,0,0,1-.54-0.35l-0.6-1.56h-4.42l-0.6,1.56a0.52,0.52,0,0,1-.55.35h-1a0.38,0.38,0,0,1-.38-0.38,0.26,0.26,0,0,1,0-.1l3.43-8.85a0.87,0.87,0,0,1,.2-0.36,0.46,0.46,0,0,1,.33-0.12h1.54m-2.31,6.15h3.08l-1.55-4-1.54,4m20.78-8.72a7,7,0,0,0-2.87.58,5.82,5.82,0,0,0-1.81,1.24,6.52,6.52,0,0,0-4.71-1.68H824.3a2.79,2.79,0,0,0-2,.85,2.75,2.75,0,0,0-.74,1.38l-0.06-.16a3.22,3.22,0,0,0-.83-1.29,2.89,2.89,0,0,0-2-.77h-1.54a2.89,2.89,0,0,0-2,.76,3.2,3.2,0,0,0-.83,1.3l-3.42,8.83a2.63,2.63,0,0,0-.18,1,2.82,2.82,0,0,0,2.81,2.81h1a2.93,2.93,0,0,0,2.82-1.91h1.09a2.93,2.93,0,0,0,2.82,1.91h1a2.85,2.85,0,0,1,2,0h3.53a6.47,6.47,0,0,0,4.53-1.57,6.14,6.14,0,0,0,2,1.22,8.51,8.51,0,0,0,5.88-.08,5.63,5.63,0,0,0,2.44-1.84,5,5,0,0,0,1-3,4.79,4.79,0,0,0-.86-2.84,2.75,2.75,0,0,0,.57-1.94,4.64,4.64,0,0,0-1-2.43,5.71,5.71,0,0,0-2.25-1.76,7.2,7.2,0,0,0-3.05-.62h0Z"/><path class="cls-15" d="M829,598.82a7.2,7.2,0,0,0,7.18-7.18V533.72a7.2,7.2,0,0,0-7.18-7.19H793.2a7.21,7.21,0,0,0-7.18,7.19v57.91a7.2,7.2,0,0,0,7.18,7.18H829Z"/><line class="cls-18" x1="794.94" y1="540.36" x2="803.49" y2="540.36"/><path class="cls-16" d="M807.11,545.71a1.74,1.74,0,0,0-1.73-1.73h-8.7a1.74,1.74,0,0,0-1.73,1.73v2.57a1.74,1.74,0,0,0,1.73,1.73h8.7a1.74,1.74,0,0,0,1.73-1.73v-2.57Z"/><line class="cls-18" x1="814.25" y1="540.36" x2="822.79" y2="540.36"/><path class="cls-16" d="M826.42,545.71a1.74,1.74,0,0,0-1.73-1.73H816a1.74,1.74,0,0,0-1.73,1.73v2.57A1.74,1.74,0,0,0,816,550h8.7a1.74,1.74,0,0,0,1.73-1.73v-2.57Z"/><line class="cls-18" x1="794.94" y1="558.46" x2="803.49" y2="558.46"/><rect class="cls-16" x="794.94" y="562.08" width="32.33" height="6.03" rx="1.73" ry="1.73"/><rect class="cls-16" x="794.94" y="576.56" width="32.33" height="12.06" rx="1.73" ry="1.73"/><polygon class="cls-17" points="848.13 584.93 845.94 589.51 843.74 584.93 843.74 538.06 848.13 538.06 848.13 584.93"/><text class="cls-19" transform="translate(777.18 860.86)">F<tspan x="7.49" y="0">aceboo</tspan><tspan x="53.2" y="0">k</tspan><tspan x="60.27" y="0"> </tspan><tspan x="62.89" y="0">A</tspan><tspan x="71.82" y="0">d</tspan></text><text class="cls-19" transform="translate(798.98 733.46)">E<tspan x="8.03" y="0">ca</tspan><tspan x="22.88" y="0">r</tspan><tspan x="28.21" y="0">d</tspan></text><text class="cls-19" transform="translate(774 622.29)">Co<tspan x="16.59" y="0">n</tspan><tspan x="24.62" y="0">tact </tspan><tspan x="53.61" y="0">F</tspan><tspan x="61.3" y="0">orm</tspan></text><rect class="cls-15" x="798.14" y="656.46" width="61.8" height="42.91" rx="6.14" ry="6.14"/><rect class="cls-16" x="832.13" y="666.14" width="20.79" height="7.2" rx="2.07" ry="2.07"/><line class="cls-16" x1="832.13" y1="679.68" x2="852.92" y2="679.68"/><line class="cls-16" x1="832.13" y1="689.4" x2="847.75" y2="689.4"/><line class="cls-16" x1="832.13" y1="684.21" x2="836.3" y2="684.21"/><path class="cls-9" d="M812.66,672.8a0.53,0.53,0,0,1,.17.39v2a0.53,0.53,0,0,1-.17.39,0.52,0.52,0,0,1-.39.17h-1.9a0.52,0.52,0,0,1-.39-0.17,0.53,0.53,0,0,1-.16-0.39v-2a0.54,0.54,0,0,1,.16-0.39,0.53,0.53,0,0,1,.39-0.16h1.9A0.52,0.52,0,0,1,812.66,672.8Zm0,7.17a0.53,0.53,0,0,1,.17.39v2a0.56,0.56,0,0,1-.55.55h-1.9a0.55,0.55,0,0,1-.55-0.55v-2A0.53,0.53,0,0,1,810,680a0.52,0.52,0,0,1,.39-0.16h1.9A0.52,0.52,0,0,1,812.66,680Z"/><path class="cls-9" d="M820,673.89a5.35,5.35,0,0,0-.83-2.31,2.22,2.22,0,0,0-1.68-.92,0.65,0.65,0,0,1-.39-0.17,0.51,0.51,0,0,1-.16-0.38v-1.35a0.55,0.55,0,0,1,.55-0.55,4.56,4.56,0,0,1,3.19,1.08,6.17,6.17,0,0,1,1.7,3.18,27.6,27.6,0,0,1,0,10.58,6.23,6.23,0,0,1-1.7,3.19,4.52,4.52,0,0,1-3.19,1.1,0.56,0.56,0,0,1-.55-0.55v-1.35a0.5,0.5,0,0,1,.16-0.38,0.62,0.62,0,0,1,.39-0.17,2.24,2.24,0,0,0,1.68-.92,5.37,5.37,0,0,0,.83-2.32A32.12,32.12,0,0,0,820,673.89Z"/><line class="cls-18" x1="798.11" y1="684.25" x2="783.59" y2="684.25"/><line class="cls-18" x1="784.66" y1="668.33" x2="774.21" y2="668.33"/><line class="cls-18" x1="795" y1="678.95" x2="774.21" y2="678.95"/><line class="cls-18" x1="803.28" y1="673.64" x2="782.48" y2="673.64"/><path class="cls-14" d="M445,408.82c7.85,0,17.47-5.56,21.4-12.35l31.83-55.13c3.92-6.79,3.92-17.91,0-24.71l-31.82-55.11c-3.92-6.79-13.55-12.35-21.4-12.35H381.39c-7.85,0-17.47,5.56-21.4,12.35l-31.82,55.11c-3.92,6.79-3.92,17.91,0,24.71L360,396.46c3.92,6.79,13.55,12.35,21.4,12.35H445Z"/><line class="cls-20" x1="411.25" y1="317.24" x2="415.75" y2="325.45"/><path class="cls-21" d="M409.38,348.63H394.9a12,12,0,0,1-9.4-5.43l-14-24.22a11.79,11.79,0,0,1-.13-10.63l3-5.2"/><line class="cls-20" x1="444.89" y1="321.29" x2="438.99" y2="331.51"/><path class="cls-21" d="M417.62,278.5h5.75c3.16,0,7.15,2.44,8.88,5.43l7.09,12.28"/><path class="cls-13" d="M440.36,321.29a4.31,4.31,0,0,1-3.36-1.94l-5-8.66a4.3,4.3,0,0,1,0-3.88l5-8.66a4.31,4.31,0,0,1,3.36-1.94h10a4.31,4.31,0,0,1,3.36,1.94l5,8.66a4.31,4.31,0,0,1,0,3.88l-5,8.66a4.31,4.31,0,0,1-3.36,1.94h-10Z"/><path class="cls-22" d="M440.36,321.29a4.31,4.31,0,0,1-3.36-1.94l-5-8.66a4.3,4.3,0,0,1,0-3.88l5-8.66a4.31,4.31,0,0,1,3.36-1.94h10a4.31,4.31,0,0,1,3.36,1.94l5,8.66a4.31,4.31,0,0,1,0,3.88l-5,8.66a4.31,4.31,0,0,1-3.36,1.94h-10Z"/><path class="cls-20" d="M444.1,311.9a1.09,1.09,0,0,1-.85-0.49L442,309.24a1.08,1.08,0,0,1,0-1l1.26-2.18a1.09,1.09,0,0,1,.85-0.49h2.52a1.08,1.08,0,0,1,.85.49l1.26,2.18a1.08,1.08,0,0,1,0,1l-1.26,2.18a1.08,1.08,0,0,1-.85.49H444.1Z"/><path class="cls-13" d="M418.8,359.65a5.87,5.87,0,0,1-4.58-2.65l-6.82-11.81a5.87,5.87,0,0,1,0-5.29l6.82-11.81a5.87,5.87,0,0,1,4.58-2.65h13.64a5.87,5.87,0,0,1,4.58,2.65l6.82,11.81a5.87,5.87,0,0,1,0,5.29L437,357a5.87,5.87,0,0,1-4.58,2.65H418.8Z"/><path class="cls-22" d="M418.8,359.65a5.87,5.87,0,0,1-4.58-2.65l-6.82-11.81a5.87,5.87,0,0,1,0-5.29l6.82-11.81a5.87,5.87,0,0,1,4.58-2.65h13.64a5.87,5.87,0,0,1,4.58,2.65l6.82,11.81a5.87,5.87,0,0,1,0,5.29L437,357a5.87,5.87,0,0,1-4.58,2.65H418.8Z"/><path class="cls-20" d="M423.3,348.37a2,2,0,0,1-1.56-.9l-2.32-4a2,2,0,0,1,0-1.8l2.32-4a2,2,0,0,1,1.56-.9h4.64a2,2,0,0,1,1.56.9l2.32,4a2,2,0,0,1,0,1.8l-2.32,4a2,2,0,0,1-1.56.9H423.3Z"/><path class="cls-13" d="M387,317.24a8.55,8.55,0,0,1-6.67-3.85l-9.93-17.19a8.54,8.54,0,0,1,0-7.7l9.93-17.18a8.55,8.55,0,0,1,6.67-3.85h19.84a8.54,8.54,0,0,1,6.67,3.85l9.92,17.18a8.54,8.54,0,0,1,0,7.7l-9.92,17.18a8.54,8.54,0,0,1-6.67,3.85H387Z"/><path class="cls-22" d="M387,317.24a8.55,8.55,0,0,1-6.67-3.85l-9.93-17.19a8.54,8.54,0,0,1,0-7.7l9.93-17.18a8.55,8.55,0,0,1,6.67-3.85h19.84a8.54,8.54,0,0,1,6.67,3.85l9.92,17.18a8.54,8.54,0,0,1,0,7.7l-9.92,17.18a8.54,8.54,0,0,1-6.67,3.85H387Z"/><path class="cls-20" d="M393,302a3.31,3.31,0,0,1-2.58-1.49l-3.84-6.66a3.31,3.31,0,0,1,0-3l3.84-6.65a3.31,3.31,0,0,1,2.58-1.49h7.69a3.31,3.31,0,0,1,2.58,1.49l3.84,6.65a3.31,3.31,0,0,1,0,3l-3.84,6.66a3.31,3.31,0,0,1-2.58,1.49H393Z"/><text class="cls-23" transform="translate(380.05 389.1)">3</text><text class="cls-23" transform="translate(388.82 384.47) scale(0.58)">RD</text><text class="cls-23" transform="translate(399.98 389.1)"> <tspan x="3.17" y="0">P</tspan><tspan x="11.72" y="0">A</tspan><tspan x="21.36" y="0">R</tspan><tspan x="30.62" y="0">T</tspan><tspan x="39.04" y="0">Y</tspan></text><path class="cls-14" d="M261.75,604.82c7.85,0,17.47-5.56,21.4-12.35L315,537.34c3.92-6.79,3.92-17.91,0-24.71l-31.82-55.11c-3.92-6.79-13.55-12.35-21.4-12.35H198.11c-7.85,0-17.47,5.56-21.4,12.35l-31.82,55.11c-3.92,6.79-3.92,17.91,0,24.71l31.82,55.13c3.92,6.79,13.55,12.35,21.4,12.35h63.65Z"/><path class="cls-24" d="M214.08,547.48a13.7,13.7,0,0,1-10.7-6.18l-15.92-27.57a13.7,13.7,0,0,1,0-12.35l15.91-27.56a13.7,13.7,0,0,1,10.7-6.18h31.82a13.7,13.7,0,0,1,10.7,6.18l15.91,27.56a13.7,13.7,0,0,1,0,12.35L256.61,541.3a13.7,13.7,0,0,1-10.7,6.18H214.08Z"/><path class="cls-9" d="M219.11,502.32a0.4,0.4,0,0,1,.29.12,0.4,0.4,0,0,1,.12.29v9.69a0.39,0.39,0,0,1-.12.28,0.39,0.39,0,0,1-.29.12H217.9a0.39,0.39,0,0,1-.28-0.12,0.39,0.39,0,0,1-.12-0.28v-9.69a0.4,0.4,0,0,1,.12-0.29,0.39,0.39,0,0,1,.28-0.12h1.21m0-2.61H217.9a3,3,0,0,0-2.13.89,3,3,0,0,0-.88,2.12v9.69a3,3,0,0,0,.87,2.11,3,3,0,0,0,2.14.9h1.21a3,3,0,0,0,3-3v-9.69a3,3,0,0,0-.87-2.11l0,0,0,0a3,3,0,0,0-2.1-.85h0Z"/><path class="cls-9" d="M227.41,502.17a4,4,0,0,1,4.41,4.06c0,0.46,0,.86,0,1.2s0,0.95,0,1.49a4.41,4.41,0,0,1-8.82,0q0-.81,0-1.49,0-.51,0-1.2a4,4,0,0,1,4.41-4.06m0,8.93a2.4,2.4,0,0,0,1.69-.59,2.34,2.34,0,0,0,.69-1.66q0-.38,0-1.28c0-.59,0-1,0-1.26a2.38,2.38,0,0,0-4.77,0c0,0.5,0,.92,0,1.26s0,0.77,0,1.28a2.33,2.33,0,0,0,.69,1.66,2.4,2.4,0,0,0,1.69.59m0-11.53a6.81,6.81,0,0,0-5.07,1.91,7,7,0,0,0-1.94,4.63c0,0.49,0,.94,0,1.33s0,1,0,1.6a6.94,6.94,0,0,0,1.95,4.64,7.7,7.7,0,0,0,10.13,0,6.91,6.91,0,0,0,1.95-4.63c0-.6,0-1.13,0-1.61s0-.81,0-1.32a6.59,6.59,0,0,0-7-6.55h0Z"/><path class="cls-9" d="M242.08,502.32a0.41,0.41,0,0,1,.4.41v1.06a0.38,0.38,0,0,1-.12.29,0.37,0.37,0,0,1-.28.12h-2.7v8.22a0.39,0.39,0,0,1-.12.28,0.39,0.39,0,0,1-.29.12h-1.21a0.38,0.38,0,0,1-.29-0.12,0.37,0.37,0,0,1-.12-0.28v-8.22h-2.7a0.37,0.37,0,0,1-.28-0.12,0.38,0.38,0,0,1-.12-0.29v-1.06a0.41,0.41,0,0,1,.41-0.41h7.42m0-2.61h-7.42a3,3,0,0,0-3,3v1.06a3,3,0,0,0,3,3h0.09v5.61a3,3,0,0,0,3,3H239a3,3,0,0,0,3-3V506.8h0.09a3,3,0,0,0,3-3v-1.06a3,3,0,0,0-3-3h0Z"/><line class="cls-20" x1="189.54" y1="516.51" x2="189.54" y2="516.51"/><line class="cls-20" x1="259.45" y1="535.72" x2="259.45" y2="535.72"/><circle class="cls-25" cx="197.33" cy="484.55" r="4.01"/><circle class="cls-25" cx="265.36" cy="488.55" r="4.01"/><path class="cls-25" d="M226.18,547.48a4,4,0,1,0,4-4A4,4,0,0,0,226.18,547.48Z"/><text class="cls-23" transform="translate(219.12 585.96)">I<tspan x="4.17" y="0">O</tspan><tspan x="13.65" y="0">T</tspan></text><path class="cls-14" d="M724.93,317.53c7.85,0,17.47-5.56,21.4-12.35L778.16,250c3.92-6.79,3.92-17.91,0-24.71l-31.83-55.11c-3.92-6.79-13.55-12.35-21.4-12.35H661.29c-7.85,0-17.47,5.56-21.4,12.35l-31.82,55.11c-3.92,6.79-3.92,17.91,0,24.71l31.83,55.13c3.92,6.79,13.55,12.35,21.4,12.35h63.65Z"/><line class="cls-20" x1="662.01" y1="259.51" x2="687.46" y2="259.51"/><line class="cls-20" x1="693.17" y1="247.99" x2="693.17" y2="253.53"/><line class="cls-20" x1="698.93" y1="259.51" x2="724.38" y2="259.51"/><path class="cls-26" d="M647.09,186.92a8.06,8.06,0,0,1,8-8.07h76.14a8.06,8.06,0,0,1,8,8.07v6.92a8.07,8.07,0,0,1-8,8.06H655.1a8.06,8.06,0,0,1-8-8.06v-6.92Z"/><line class="cls-22" x1="678.64" y1="195.04" x2="655.47" y2="195.04"/><line class="cls-22" x1="732.35" y1="190.38" x2="732.35" y2="190.38"/><line class="cls-20" x1="727.74" y1="190.38" x2="727.74" y2="190.38"/><path class="cls-26" d="M647.09,210a8.06,8.06,0,0,1,8-8.06h76.14a8.06,8.06,0,0,1,8,8.06v6.92a8.06,8.06,0,0,1-8,8.06H655.1a8.06,8.06,0,0,1-8-8.06V210Z"/><line class="cls-22" x1="678.64" y1="218.09" x2="655.47" y2="218.09"/><line class="cls-22" x1="727.74" y1="213.42" x2="727.74" y2="213.42"/><line class="cls-20" x1="732.35" y1="213.42" x2="732.35" y2="213.42"/><path class="cls-26" d="M647.09,233a8.06,8.06,0,0,1,8-8.07h76.14a8.06,8.06,0,0,1,8,8.07v6.92a8.07,8.07,0,0,1-8,8.06H655.1a8.06,8.06,0,0,1-8-8.06V233Z"/><line class="cls-22" x1="678.64" y1="241.13" x2="655.47" y2="241.13"/><line class="cls-22" x1="732.35" y1="236.47" x2="732.35" y2="236.47"/><line class="cls-20" x1="727.74" y1="236.47" x2="727.74" y2="236.47"/><rect class="cls-13" x="687.41" y="254.16" width="11.52" height="11.52" rx="2.3" ry="2.3"/><rect class="cls-22" x="687.41" y="254.16" width="11.52" height="11.52" rx="2.3" ry="2.3"/><text class="cls-23" transform="translate(661.67 298.85)">SE<tspan x="17.6" y="0">R</tspan><tspan x="26.66" y="0">VERS</tspan></text><path class="cls-14" d="M660.41,760c7.85,0,17.47-5.56,21.4-12.35l31.83-55.13c3.92-6.79,3.92-17.91,0-24.71l-31.83-55.11c-3.92-6.79-13.55-12.35-21.4-12.35H596.76c-7.85,0-17.47,5.56-21.4,12.35l-31.82,55.11c-3.92,6.79-3.92,17.91,0,24.71l31.83,55.13c3.92,6.79,13.55,12.35,21.4,12.35h63.65Z"/><rect class="cls-26" x="582.56" y="630.94" width="92.18" height="67.53" rx="8.02" ry="8.02"/><line class="cls-22" x1="591.78" y1="640.16" x2="591.78" y2="640.16"/><line class="cls-20" x1="596.39" y1="640.16" x2="596.39" y2="640.16"/><line class="cls-20" x1="600.99" y1="640.16" x2="600.99" y2="640.16"/><path class="cls-9" d="M617.79,661.61a0.49,0.49,0,0,1,.36.15,0.48,0.48,0,0,1,.14.35l0,0.16-3.18,9.55a0.68,0.68,0,0,1-.62.58h-0.64a0.52,0.52,0,0,1-.4-0.16,1.22,1.22,0,0,1-.25-0.42l-2.47-6.89-2.47,6.89a1.34,1.34,0,0,1-.25.42,0.51,0.51,0,0,1-.39.16H607a0.67,0.67,0,0,1-.62-0.58l-3.18-9.55,0-.16a0.48,0.48,0,0,1,.14-0.35,0.49,0.49,0,0,1,.35-0.15h0.69a0.7,0.7,0,0,1,.71.5l2.33,6.93,2.49-6.93a0.66,0.66,0,0,1,.65-0.5h0.45a0.66,0.66,0,0,1,.64.5l2.5,6.93,2.32-6.93a0.7,0.7,0,0,1,.71-0.5h0.68m0-2.61h-0.68a3.3,3.3,0,0,0-3.12,2.12,3.24,3.24,0,0,0-3.05-2.12h-0.45a3.25,3.25,0,0,0-3.05,2.11,3.31,3.31,0,0,0-3.12-2.11h-0.69a3.1,3.1,0,0,0-2.16.87l0,0,0,0a3.09,3.09,0,0,0-.91,2.2v0.28l0,0.16,0,0.28,0.09,0.27,3.18,9.55A3.23,3.23,0,0,0,607,675h0.64a3.1,3.1,0,0,0,2.3-1,3.86,3.86,0,0,0,.75-1.22l0,0,0,0,0-.05,0,0.05a3.83,3.83,0,0,0,.82,1.34,3.11,3.11,0,0,0,2.28,1h0.64a3.23,3.23,0,0,0,3.1-2.4l3.17-9.52,0.09-.26,0-.27,0-.16,0-.15v-0.15a3.08,3.08,0,0,0-.92-2.21,3.12,3.12,0,0,0-2.19-.9h0Z"/><path class="cls-9" d="M635.57,661.61a0.5,0.5,0,0,1,.36.15,0.48,0.48,0,0,1,.14.35l0,0.16-3.18,9.55a0.68,0.68,0,0,1-.62.58h-0.64a0.52,0.52,0,0,1-.4-0.16,1.32,1.32,0,0,1-.25-0.42l-2.47-6.89L626,671.83a1.32,1.32,0,0,1-.25.42,0.52,0.52,0,0,1-.39.16h-0.65a0.68,0.68,0,0,1-.62-0.58l-3.18-9.55,0-.16a0.49,0.49,0,0,1,.15-0.35,0.48,0.48,0,0,1,.35-0.15h0.69a0.7,0.7,0,0,1,.7.5l2.33,6.93,2.49-6.93a0.67,0.67,0,0,1,.65-0.5h0.46a0.67,0.67,0,0,1,.65.5l2.49,6.93,2.33-6.93a0.69,0.69,0,0,1,.7-0.5h0.68m0-2.61h-0.68a3.3,3.3,0,0,1-6.17,0h-0.46a3.31,3.31,0,0,1-6.17,0h-0.69a3.11,3.11,0,0,0-3.1,3.11v0.17l0,0.17,0,0.16,0,0.25,0.08,0.24,3.18,9.55a3.24,3.24,0,0,0,3.09,2.36h0.65a3.12,3.12,0,0,0,2.27-1,3.86,3.86,0,0,0,.79-1.26l0,0,0,0,0,0,0,0v0.06a3.93,3.93,0,0,0,.77,1.25l0,0,0,0a3.12,3.12,0,0,0,2.27,1h0.64a3.24,3.24,0,0,0,3.1-2.38l3.17-9.54,0.08-.25,0-.26,0-.16,0-.15v-0.15a3.09,3.09,0,0,0-.89-2.18l0,0,0,0a3.12,3.12,0,0,0-2.14-.86h0Z"/><path class="cls-9" d="M653.35,661.61a0.47,0.47,0,0,1,.35.15,0.48,0.48,0,0,1,.15.35l0,0.16-3.18,9.55a0.67,0.67,0,0,1-.62.58h-0.64a0.51,0.51,0,0,1-.39-0.16,1.28,1.28,0,0,1-.25-0.42l-2.47-6.89-2.47,6.89a1.27,1.27,0,0,1-.25.42,0.51,0.51,0,0,1-.39.16h-0.64a0.68,0.68,0,0,1-.62-0.58l-3.17-9.55,0-.16a0.5,0.5,0,0,1,.15-0.35,0.49,0.49,0,0,1,.36-0.15h0.68a0.69,0.69,0,0,1,.71.5l2.33,6.93,2.49-6.93a0.67,0.67,0,0,1,.64-0.5h0.46a0.66,0.66,0,0,1,.64.5l2.49,6.93,2.33-6.93a0.7,0.7,0,0,1,.71-0.5h0.68m0-2.61h-0.68a3.31,3.31,0,0,0-3.12,2.12A3.26,3.26,0,0,0,646.5,659H646a3.25,3.25,0,0,0-3.05,2.11,3.28,3.28,0,0,0-3.12-2.11h-0.68a3.09,3.09,0,0,0-2.2.91l0,0,0,0a3.11,3.11,0,0,0-.86,2.15v0.2l0,0.2,0,0.16,0,0.22,0.07,0.21,3.17,9.55a3.23,3.23,0,0,0,3.1,2.36h0.64a3.1,3.1,0,0,0,2.3-1,3.87,3.87,0,0,0,.78-1.26v-0.06l0-.05,0,0.05v0.07a3.81,3.81,0,0,0,.79,1.27,3.09,3.09,0,0,0,2.28,1H650a3.23,3.23,0,0,0,3.11-2.4l3.17-9.52,0.08-.24,0-.26,0-.16,0-.16v-0.16a3.12,3.12,0,0,0-3.11-3.11h0Z"/><line class="cls-22" x1="610.73" y1="640.16" x2="674.74" y2="640.16"/><text class="cls-23" transform="translate(613.87 738.53)">WEB</text><path class="cls-27" d="M714.88,672.52a5.51,5.51,0,0,0,4.3-2.49l6.4-11.09a5.52,5.52,0,0,0,0-5l-6.4-11.09a5.51,5.51,0,0,0-4.3-2.49h-12.8a5.51,5.51,0,0,0-4.3,2.49L691.37,654a5.51,5.51,0,0,0,0,5l6.4,11.09a5.51,5.51,0,0,0,4.3,2.49h12.8Z"/><path class="cls-27" d="M282.48,620.88a5.51,5.51,0,0,0,4.3-2.49l6.4-11.09a5.51,5.51,0,0,0,0-5l-6.4-11.09a5.51,5.51,0,0,0-4.3-2.49h-12.8a5.51,5.51,0,0,0-4.3,2.49L259,602.34a5.51,5.51,0,0,0,0,5l6.4,11.09a5.51,5.51,0,0,0,4.3,2.49h12.8Z"/><path class="cls-27" d="M346,314.91a5.51,5.51,0,0,0,4.3-2.49l6.4-11.09a5.51,5.51,0,0,0,0-5l-6.4-11.09a5.51,5.51,0,0,0-4.3-2.49h-12.8a5.51,5.51,0,0,0-4.3,2.48l-6.4,11.09a5.51,5.51,0,0,0,0,5l6.4,11.09a5.51,5.51,0,0,0,4.3,2.49H346Z"/><path class="cls-27" d="M188.26,456.1a3.75,3.75,0,0,0,2.93-1.69l4.35-7.54a3.75,3.75,0,0,0,0-3.38l-4.35-7.54a3.75,3.75,0,0,0-2.93-1.69h-8.71a3.75,3.75,0,0,0-2.93,1.69l-4.35,7.54a3.75,3.75,0,0,0,0,3.38l4.35,7.54a3.75,3.75,0,0,0,2.93,1.69h8.71Z"/><path class="cls-27" d="M554.44,672.54a5.52,5.52,0,0,0,4.31-2.49l6.41-11.1a5.51,5.51,0,0,0,0-5l-6.41-11.09a5.52,5.52,0,0,0-4.31-2.49H541.63a5.52,5.52,0,0,0-4.31,2.49L530.92,654a5.52,5.52,0,0,0,0,5l6.4,11.1a5.52,5.52,0,0,0,4.31,2.49h12.81Z"/><path class="cls-27" d="M494.07,370.19A3.75,3.75,0,0,0,497,368.5l4.35-7.54a3.75,3.75,0,0,0,0-3.38L497,350a3.75,3.75,0,0,0-2.93-1.69h-8.71a3.75,3.75,0,0,0-2.93,1.69l-4.35,7.54a3.75,3.75,0,0,0,0,3.38l4.35,7.54a3.75,3.75,0,0,0,2.93,1.69h8.71Z"/><path class="cls-14" d="M413.8,841c7.85,0,17.47-5.56,21.4-12.35L467,773.52c3.92-6.79,3.92-17.91,0-24.71L435.2,693.7c-3.92-6.79-13.55-12.35-21.4-12.35H350.15c-7.85,0-17.47,5.56-21.4,12.35l-31.82,55.11c-3.92,6.79-3.92,17.91,0,24.71l31.82,55.13c3.92,6.79,13.55,12.35,21.4,12.35H413.8Z"/><line class="cls-20" x1="383.39" y1="712.66" x2="383.39" y2="713.87"/><path class="cls-25" d="M358,738a5.13,5.13,0,0,1-5.12-5.12V712.66a5.14,5.14,0,0,1,5.12-5.12h20.24"/><path class="cls-26" d="M365,728.43v-6.66a6.69,6.69,0,0,1,6.66-6.67h30a6.69,6.69,0,0,1,6.67,6.67v63.39a6.69,6.69,0,0,1-6.67,6.67h-30a6.69,6.69,0,0,1-6.66-6.67V749.63"/><line class="cls-22" x1="389.23" y1="721.27" x2="384.23" y2="721.27"/><circle class="cls-22" cx="386.73" cy="783.74" r="3.34"/><rect class="cls-13" x="378.27" y="699.65" width="11.51" height="11.51" rx="3.54" ry="3.54"/><rect class="cls-22" x="378.27" y="699.65" width="11.51" height="11.51" rx="3.54" ry="3.54"/><rect class="cls-20" x="394.98" y="736.58" width="5.75" height="5.75" rx="1.92" ry="1.92"/><path class="cls-20" d="M385.31,761.23V767a1.93,1.93,0,0,1-1.92,1.92h-5.76a1.92,1.92,0,0,1-1.92-1.92v-5.76a1.92,1.92,0,0,1,1.92-1.92h5.76"/><rect class="cls-22" x="383.47" y="747.61" width="13.43" height="13.43" rx="3.54" ry="3.54"/><rect class="cls-13" x="358.67" y="728.43" width="21.1" height="21.1" rx="3.54" ry="3.54"/><rect class="cls-22" x="358.67" y="728.43" width="21.1" height="21.1" rx="3.54" ry="3.54"/><text class="cls-23" transform="translate(362.19 821.79)">APPS</text><path class="cls-27" d="M316.6,753a7.62,7.62,0,0,0,5.95-3.43l8.85-15.33a7.62,7.62,0,0,0,0-6.87l-8.85-15.32a7.62,7.62,0,0,0-5.95-3.43H298.91a7.62,7.62,0,0,0-5.95,3.43l-8.85,15.32a7.62,7.62,0,0,0,0,6.87L293,749.58a7.62,7.62,0,0,0,5.95,3.43H316.6Z"/><path class="cls-2" d="M455.65,773.23a3.61,3.61,0,0,0-2.82,1.63l-4.19,7.27a3.61,3.61,0,0,0,0,3.25l4.19,7.25a3.61,3.61,0,0,0,2.82,1.63H464a3.61,3.61,0,0,0,2.82-1.63l4.19-7.25a3.61,3.61,0,0,0,0-3.25l-4.19-7.27a3.61,3.61,0,0,0-2.82-1.63h-8.39Z"/></g></g></svg>