<svg xmlns="http://www.w3.org/2000/svg" xmlns:xlink="http://www.w3.org/1999/xlink" viewBox="0 0 1058.61 802"><defs><style>.cls-1{isolation:isolate;}.cls-108,.cls-2{opacity:0.33;}.cls-10,.cls-102,.cls-103,.cls-104,.cls-105,.cls-106,.cls-107,.cls-108,.cls-11,.cls-14,.cls-17,.cls-18,.cls-22,.cls-23,.cls-25,.cls-26,.cls-27,.cls-28,.cls-29,.cls-3,.cls-30,.cls-31,.cls-32,.cls-33,.cls-34,.cls-35,.cls-36,.cls-37,.cls-38,.cls-39,.cls-4,.cls-40,.cls-42,.cls-43,.cls-44,.cls-46,.cls-47,.cls-49,.cls-5,.cls-50,.cls-51,.cls-52,.cls-53,.cls-54,.cls-55,.cls-56,.cls-57,.cls-58,.cls-59,.cls-6,.cls-60,.cls-61,.cls-64,.cls-65,.cls-66,.cls-67,.cls-68,.cls-69,.cls-70,.cls-71,.cls-72,.cls-73,.cls-74,.cls-75,.cls-76,.cls-77,.cls-78,.cls-83,.cls-86,.cls-87,.cls-88,.cls-89,.cls-90,.cls-91,.cls-92,.cls-96,.cls-98,.cls-99{fill:none;}.cls-102,.cls-103,.cls-104,.cls-105,.cls-106,.cls-107,.cls-18,.cls-21,.cls-22,.cls-3,.cls-95,.cls-96,.cls-99{stroke:#bb73fc;}.cls-102,.cls-103,.cls-104,.cls-105,.cls-106,.cls-107,.cls-108,.cls-11,.cls-16,.cls-17,.cls-18,.cls-21,.cls-22,.cls-23,.cls-25,.cls-26,.cls-27,.cls-28,.cls-29,.cls-3,.cls-30,.cls-31,.cls-32,.cls-33,.cls-34,.cls-35,.cls-36,.cls-37,.cls-38,.cls-39,.cls-4,.cls-40,.cls-42,.cls-43,.cls-46,.cls-47,.cls-49,.cls-50,.cls-51,.cls-52,.cls-53,.cls-54,.cls-55,.cls-56,.cls-57,.cls-58,.cls-59,.cls-60,.cls-61,.cls-64,.cls-65,.cls-66,.cls-67,.cls-68,.cls-69,.cls-70,.cls-71,.cls-72,.cls-73,.cls-74,.cls-75,.cls-76,.cls-77,.cls-78,.cls-86,.cls-87,.cls-89,.cls-90,.cls-91,.cls-92,.cls-96,.cls-99{stroke-linecap:round;}.cls-102,.cls-103,.cls-104,.cls-105,.cls-106,.cls-107,.cls-108,.cls-11,.cls-16,.cls-17,.cls-18,.cls-21,.cls-22,.cls-23,.cls-25,.cls-26,.cls-27,.cls-28,.cls-29,.cls-3,.cls-30,.cls-31,.cls-32,.cls-33,.cls-34,.cls-35,.cls-36,.cls-37,.cls-38,.cls-39,.cls-4,.cls-40,.cls-42,.cls-43,.cls-46,.cls-47,.cls-49,.cls-50,.cls-51,.cls-52,.cls-53,.cls-54,.cls-55,.cls-56,.cls-57,.cls-58,.cls-59,.cls-60,.cls-61,.cls-64,.cls-65,.cls-66,.cls-67,.cls-68,.cls-69,.cls-70,.cls-71,.cls-72,.cls-73,.cls-74,.cls-75,.cls-76,.cls-77,.cls-78,.cls-86,.cls-87,.cls-88,.cls-89,.cls-90,.cls-91,.cls-92,.cls-96,.cls-99{stroke-linejoin:round;}.cls-10,.cls-100,.cls-11,.cls-14,.cls-3,.cls-4,.cls-44,.cls-6,.cls-86,.cls-87,.cls-88,.cls-89,.cls-90,.cls-91,.cls-92,.cls-95{stroke-width:3px;}.cls-100,.cls-16,.cls-17,.cls-23,.cls-4,.cls-5,.cls-6,.cls-88,.cls-91{stroke:#5b0098;}.cls-100,.cls-16,.cls-21,.cls-7,.cls-95{fill:#fff;}.cls-8,.cls-82,.cls-84,.cls-85{mix-blend-mode:multiply;}.cls-12,.cls-13,.cls-63,.cls-9{fill:#50a3fc;}.cls-81,.cls-82,.cls-9{opacity:0.25;}.cls-10,.cls-11,.cls-29,.cls-30,.cls-32,.cls-33,.cls-35,.cls-37,.cls-42,.cls-43,.cls-52,.cls-83,.cls-92{stroke:#50a3fc;}.cls-10,.cls-14,.cls-44,.cls-83,.cls-95{stroke-miterlimit:10;}.cls-12{font-size:16px;}.cls-101,.cls-12,.cls-20,.cls-45,.cls-80,.cls-93,.cls-94,.cls-97{font-family:Rubik Medium;}.cls-13,.cls-41,.cls-84{opacity:0.5;}.cls-14{stroke:url(#linear-gradient);}.cls-15{fill:#f8f1ff;}.cls-102,.cls-103,.cls-104,.cls-105,.cls-106,.cls-107,.cls-108,.cls-16,.cls-17,.cls-18,.cls-21,.cls-22,.cls-23,.cls-96,.cls-99{stroke-width:1.5px;}.cls-19,.cls-94{fill:#bb73fc;}.cls-101,.cls-20,.cls-45,.cls-97{font-size:8px;}.cls-20,.cls-79,.cls-93{fill:#5b0098;}.cls-22{stroke-dasharray:6.77 4.52 0 6.77 6.77 11.29;}.cls-23{stroke-dasharray:19.89 9.28 0 3.98 3.98 13.26;}.cls-24{opacity:0.66;}.cls-25,.cls-26,.cls-27,.cls-28,.cls-31,.cls-34,.cls-36,.cls-38,.cls-39,.cls-40,.cls-46,.cls-47,.cls-78{stroke:#fff;}.cls-26{stroke-dasharray:0.73 5.09 2.18 3.63;}.cls-27{stroke-dasharray:0.57 3.96 1.7 2.83;}.cls-28{stroke-dasharray:3.96 3.96 0.57 3.96 1.7 2.83;}.cls-29,.cls-30,.cls-37,.cls-38,.cls-39,.cls-40,.cls-78{stroke-width:2px;}.cls-30,.cls-31{stroke-dasharray:0.87 6.07 2.6 4.34;}.cls-33{stroke-dasharray:0.64 4.46 1.91 3.19;}.cls-34{stroke-dasharray:0.44 3.08 1.32 2.2;}.cls-35{stroke-dasharray:0.71 4.95 2.12 3.53;}.cls-36{stroke-dasharray:0.4 2.82;}.cls-37,.cls-43{stroke-dasharray:0.4 2.82;}.cls-38{stroke-dasharray:47.96 15.99 0 10.66 10.66 21.32;}.cls-39{stroke-dasharray:17.77 4.98 0 3.55 3.55 7.11;}.cls-40{stroke-dasharray:25 7 0 5 5 10;}.cls-42{stroke-dasharray:0.82 5.77 2.47 4.12;}.cls-44{stroke:url(#linear-gradient-2);}.cls-45,.cls-80{fill:#9ba0aa;}.cls-46{stroke-dasharray:28 9.33 0 4.67 4.67 14;}.cls-47{stroke-width:0.98px;stroke-dasharray:41.69 13.9 0 9.27 9.27 18.53;}.cls-48{opacity:0.6;}.cls-49,.cls-50,.cls-51,.cls-53,.cls-54,.cls-55,.cls-56,.cls-57,.cls-58,.cls-59,.cls-60,.cls-61,.cls-64,.cls-65,.cls-66,.cls-67,.cls-68,.cls-69,.cls-70,.cls-71,.cls-72,.cls-73,.cls-74,.cls-75,.cls-76,.cls-77{stroke:#a7d1fd;}.cls-50{stroke-dasharray:1.25 1.87 1.87 6.23;}.cls-51{stroke-dasharray:15.58 3.12 1.25 1.87 1.87 6.23;}.cls-52{stroke-dasharray:21.48;}.cls-53{stroke-dasharray:1.52 2.29 2.29 7.62;}.cls-54{stroke-dasharray:19.06 3.81 1.52 2.29 2.29 7.62;}.cls-55{stroke-dasharray:89.36;}.cls-56{stroke-dasharray:1.09 1.64 1.64 5.46;}.cls-57{stroke-dasharray:2.51 3.77 3.77 12.57;}.cls-58{stroke-dasharray:0.76 1.14 1.14 3.82;}.cls-59{stroke-dasharray:0.86 1.3 1.3 4.32;}.cls-60{stroke-dasharray:1.02 1.53 1.53 5.1;}.cls-61{stroke-dasharray:12.75 2.55 1.02 1.53 1.53 5.1;}.cls-62{fill:#a7d1fd;}.cls-64{stroke-dasharray:9.41;}.cls-65{stroke-dasharray:9.41;}.cls-66{stroke-dasharray:9.41;}.cls-67{stroke-dasharray:9.41;}.cls-68{stroke-dasharray:13.36;}.cls-69{stroke-dasharray:4.71;}.cls-70{stroke-dasharray:11.78;}.cls-71{stroke-dasharray:12.82;}.cls-72{stroke-dasharray:9.41;}.cls-73{stroke-dasharray:9.41;}.cls-74{stroke-dasharray:4.71;}.cls-75{stroke-dasharray:15.15;}.cls-76{stroke-dasharray:0.35 0.52 0.52 1.73;}.cls-77{stroke-dasharray:21.48 4.3 1.72 2.58 2.58 8.59;}.cls-78{stroke-dasharray:27.77 7.78 0 5.55 5.55 11.11;}.cls-80{font-size:9px;}.cls-85{opacity:0.75;}.cls-86{stroke:url(#linear-gradient-3);}.cls-87{stroke:url(#linear-gradient-4);}.cls-89{stroke:url(#linear-gradient-5);}.cls-90{stroke:url(#linear-gradient-6);}.cls-91,.cls-92{stroke-dasharray:1.67 6.67 3.33 6.67;}.cls-93{font-size:11.54px;}.cls-94{font-size:12px;}.cls-96{stroke-dasharray:0 6.25;}.cls-97{fill:#d2a3fd;}.cls-99{stroke-dasharray:0 6.25;}.cls-101{fill:#9357bb;}.cls-102{stroke-dasharray:0 2.54 0 2.54;}.cls-103{stroke-dasharray:0 2.54 0 2.54 0 2.54;}.cls-104{stroke-dasharray:0 3.02 0 3.02 0 3.02;}.cls-105{stroke-dasharray:0 2.56 0 2.56;}.cls-106{stroke-dasharray:0 2.56 0 2.56 0 2.56;}.cls-107{stroke-dasharray:0 3.03 0 3.03 0 3.03;}.cls-108{stroke:#9ba0aa;}</style><linearGradient id="linear-gradient" x1="380.69" y1="495.61" x2="380.69" y2="436.28" gradientUnits="userSpaceOnUse"><stop offset="0" stop-color="#5b0098"/><stop offset="1" stop-color="#50a3fc"/></linearGradient><linearGradient id="linear-gradient-2" x1="590.37" y1="402.22" x2="658.42" y2="402.22" gradientUnits="userSpaceOnUse"><stop offset="0" stop-color="#50a3fc"/><stop offset="1" stop-color="#5b0098"/></linearGradient><linearGradient id="linear-gradient-3" x1="140.65" y1="195.99" x2="266.18" y2="195.99" gradientUnits="userSpaceOnUse"><stop offset="0" stop-color="#bb73fc"/><stop offset="1" stop-color="#50a3fc"/></linearGradient><linearGradient id="linear-gradient-4" x1="140.68" y1="264.84" x2="329.23" y2="264.84" xlink:href="#linear-gradient-3"/><linearGradient id="linear-gradient-5" x1="2195.67" y1="195.99" x2="2232.59" y2="195.99" gradientTransform="matrix(-1, 0, 0, 1, 2284.16, 0)" xlink:href="#linear-gradient-3"/><linearGradient id="linear-gradient-6" x1="2195.7" y1="241.75" x2="2232.59" y2="241.75" gradientTransform="matrix(-1, 0, 0, 1, 2284.16, 0)" xlink:href="#linear-gradient-3"/></defs><title>Snowplow_Website-Product-React_Infographics_Pipeline</title><g class="cls-1"><g id="Insights_copy" data-name="Insights copy"><g class="cls-2"><path class="cls-3" d="M158.05,249.88l-1.57-7.43A1.86,1.86,0,0,0,154,241l-6.45,2.34"/></g><g class="cls-2"><path class="cls-3" d="M147.51,193.83l6.45,2.34a1.86,1.86,0,0,0,2.52-1.4l1.57-7.43"/></g><g class="cls-2"><path class="cls-4" d="M158.05,617.22l-1.57-7.43a1.86,1.86,0,0,0-2.52-1.4l-6.45,2.34"/></g><g class="cls-2"><path class="cls-4" d="M147.51,564.17l6.45,2.34a1.86,1.86,0,0,0,2.52-1.4l1.57-7.43"/></g><path class="cls-5" d="M1011.06,94H936.75A13.83,13.83,0,0,0,925,101.82l-34.82,83.6"/><path class="cls-5" d="M1009.06,238.7H936.75A13.83,13.83,0,0,1,925,230.86l-34.81-83.6"/><line class="cls-5" x1="1012.06" y1="165.41" x2="943.25" y2="165.41"/><line class="cls-6" x1="869.48" y1="402.22" x2="656.91" y2="402.22"/><path class="cls-6" d="M834.11,284.67H756.47c-6,0-13.39,4.25-16.41,9.45l-57.26,98.64c-3,5.2-3,13.7,0,18.89l57.26,98.66c3,5.2,10.4,9.45,16.41,9.45h77.63"/><path class="cls-6" d="M961,166H825.66c-6.28,0-14,4.44-17.13,9.87L683,392.32c-3.15,5.43-3.15,14.32,0,19.75l125.47,216.5c3.15,5.43,10.86,9.87,17.13,9.87H961"/><g class="cls-2"><path class="cls-4" d="M306.49,544.16l-1-6.8a1.86,1.86,0,0,0-2.42-1.57l-7.3,2.11"/></g><g class="cls-2"><path class="cls-4" d="M716.57,346.16l-1-6.8a1.86,1.86,0,0,0-2.42-1.57l-7.3,2.11"/></g><g class="cls-2"><path class="cls-4" d="M784.77,228.26l-1-6.8a1.86,1.86,0,0,0-2.42-1.57l-7.3,2.11"/></g><g class="cls-2"><path class="cls-4" d="M777,407.85l5.34-4.31a1.86,1.86,0,0,0,.1-2.88l-5.55-5.19"/></g><path class="cls-7" d="M344.43,494.21c-9,0-20.08-6.39-24.58-14.2l-36.55-63.35c-4.51-7.81-4.5-20.58,0-28.39L319.85,325c4.51-7.81,15.57-14.2,24.59-14.2h73.16c9,0,20.08,6.39,24.58,14.2l36.55,63.31c4.51,7.81,4.51,20.58,0,28.39L442.18,480c-4.51,7.81-15.57,14.2-24.58,14.2H344.43Z"/><path class="cls-7" d="M517.43,494.21c-9,0-20.08-6.39-24.58-14.2l-36.55-63.35c-4.51-7.81-4.5-20.58,0-28.39L492.85,325c4.51-7.81,15.57-14.2,24.58-14.2h73.16c9,0,20.08,6.39,24.59,14.2l36.55,63.31c4.51,7.81,4.51,20.58,0,28.39L615.18,480c-4.51,7.81-15.57,14.2-24.58,14.2H517.43Z"/><g class="cls-8"><path class="cls-9" d="M336.47,494.11a17.06,17.06,0,0,1-13.32-7.69L279,409.91a17.06,17.06,0,0,1,0-15.38L323.15,318a17.06,17.06,0,0,1,13.32-7.69h88.35A17.06,17.06,0,0,1,438.14,318l44.17,76.51a17.06,17.06,0,0,1,0,15.38l-44.17,76.51a17.06,17.06,0,0,1-13.32,7.69H336.47Z"/><path class="cls-10" d="M336.47,494.11a17.06,17.06,0,0,1-13.32-7.69L279,409.91a17.06,17.06,0,0,1,0-15.38L323.15,318a17.06,17.06,0,0,1,13.32-7.69h88.35A17.06,17.06,0,0,1,438.14,318l44.17,76.51a17.06,17.06,0,0,1,0,15.38l-44.17,76.51a17.06,17.06,0,0,1-13.32,7.69H336.47Z"/></g><g class="cls-2"><path class="cls-4" d="M383.93,488.07l-5.34,4.31a1.86,1.86,0,0,0-.11,2.88l5.55,5.19"/></g><g class="cls-2"><path class="cls-11" d="M557.66,488.07l-5.34,4.31a1.86,1.86,0,0,0-.1,2.88l5.55,5.19"/></g><g class="cls-2"><path class="cls-11" d="M306.49,446.58L300,444.24a1.86,1.86,0,0,0-2.52,1.4l-1.57,7.43"/></g><text class="cls-12" transform="translate(524.75 546.24)">A<tspan x="10.88" y="0">CTING</tspan></text><text class="cls-12" transform="translate(329.59 546.24)">D<tspan x="11.25" y="0">E</tspan><tspan x="21.12" y="0">CISIONING</tspan></text><g class="cls-8"><path class="cls-13" d="M509.24,494.11a17.06,17.06,0,0,1-13.32-7.69l-44.17-76.51a17.06,17.06,0,0,1,0-15.38L495.93,318a17.06,17.06,0,0,1,13.32-7.69H597.6A17.06,17.06,0,0,1,610.92,318l44.17,76.51a17.06,17.06,0,0,1,0,15.38l-44.17,76.51a17.06,17.06,0,0,1-13.32,7.69H509.24Z"/><path class="cls-10" d="M509.24,494.11a17.06,17.06,0,0,1-13.32-7.69l-44.17-76.51a17.06,17.06,0,0,1,0-15.38L495.93,318a17.06,17.06,0,0,1,13.32-7.69H597.6A17.06,17.06,0,0,1,610.92,318l44.17,76.51a17.06,17.06,0,0,1,0,15.38l-44.17,76.51a17.06,17.06,0,0,1-13.32,7.69H509.24Z"/></g><g class="cls-2"><path class="cls-11" d="M479.49,446.58L473,444.24a1.86,1.86,0,0,0-2.52,1.4L469,453.07"/></g><path class="cls-10" d="M336.47,494.11a17.06,17.06,0,0,1-13.32-7.69L279,409.91a17.06,17.06,0,0,1,0-15.38L323.15,318a17.06,17.06,0,0,1,13.32-7.69h88.35A17.06,17.06,0,0,1,438.14,318l44.17,76.51a17.06,17.06,0,0,1,0,15.38l-44.17,76.51a17.06,17.06,0,0,1-13.32,7.69H336.47Z"/><path class="cls-14" d="M466.65,437l-28.51,49.39a17.06,17.06,0,0,1-13.32,7.69H336.47a17.06,17.06,0,0,1-13.32-7.69l-28.44-49.26"/><path class="cls-10" d="M509.24,494.11a17.06,17.06,0,0,1-13.32-7.69l-44.17-76.51a17.06,17.06,0,0,1,0-15.38L495.93,318a17.06,17.06,0,0,1,13.32-7.69H597.6A17.06,17.06,0,0,1,610.92,318l44.17,76.51a17.06,17.06,0,0,1,0,15.38l-44.17,76.51a17.06,17.06,0,0,1-13.32,7.69H509.24Z"/><path class="cls-15" d="M934.46,211.45a15.77,15.77,0,0,0,12.31-7.11l18.32-31.73a15.77,15.77,0,0,0,0-14.22l-18.32-31.72a15.78,15.78,0,0,0-12.32-7.11H897.83a15.78,15.78,0,0,0-12.32,7.11L867.2,158.39a15.77,15.77,0,0,0,0,14.22l18.32,31.73a15.77,15.77,0,0,0,12.31,7.11h36.63Z"/><path class="cls-16" d="M894.27,137.19h43.82a4.62,4.62,0,0,1,4.62,4.62v29.64a4.61,4.61,0,0,1-4.61,4.61H894.27a4.61,4.61,0,0,1-4.61-4.61V141.81A4.61,4.61,0,0,1,894.27,137.19Z"/><line class="cls-17" x1="894.96" y1="142.5" x2="894.96" y2="142.5"/><line class="cls-18" x1="897.61" y1="142.5" x2="897.61" y2="142.5"/><line class="cls-18" x1="900.26" y1="142.5" x2="900.26" y2="142.5"/><path class="cls-19" d="M909.93,154.84a0.29,0.29,0,0,1,.29.29v0.09l-1.83,5.5a0.39,0.39,0,0,1-.36.34h-0.37a0.3,0.3,0,0,1-.23-0.09,0.69,0.69,0,0,1-.14-0.25l-1.42-4-1.42,4a0.76,0.76,0,0,1-.14.25,0.29,0.29,0,0,1-.22.09h-0.37a0.39,0.39,0,0,1-.36-0.34l-1.83-5.5v-0.09a0.28,0.28,0,0,1,.29-0.29h0.39a0.4,0.4,0,0,1,.41.29l1.34,4,1.43-4a0.38,0.38,0,0,1,.37-0.29H906a0.38,0.38,0,0,1,.37.29l1.44,4,1.34-4a0.4,0.4,0,0,1,.41-0.29h0.39m0-1.5h-0.39a1.9,1.9,0,0,0-1.79,1.22,1.88,1.88,0,0,0-1.76-1.22h-0.26a1.87,1.87,0,0,0-1.76,1.21,1.9,1.9,0,0,0-1.79-1.21h-0.39a1.78,1.78,0,0,0-1.79,1.79v0.25l0,0.16,0.05,0.16,1.83,5.5a1.86,1.86,0,0,0,1.78,1.36h0.37a1.78,1.78,0,0,0,1.33-.58,2.19,2.19,0,0,0,.43-0.71l0-.08v0a2.18,2.18,0,0,0,.47.77,1.79,1.79,0,0,0,1.32.56H908a1.86,1.86,0,0,0,1.79-1.38l1.82-5.48,0-.14,0-.15v-0.28a1.79,1.79,0,0,0-1.79-1.79h0Z"/><path class="cls-19" d="M920.16,154.84a0.28,0.28,0,0,1,.29.29v0.09l-1.83,5.5a0.39,0.39,0,0,1-.36.34h-0.37a0.3,0.3,0,0,1-.23-0.09,0.75,0.75,0,0,1-.14-0.25l-1.42-4-1.42,4a0.76,0.76,0,0,1-.14.25,0.3,0.3,0,0,1-.23.09h-0.37a0.39,0.39,0,0,1-.36-0.34l-1.83-5.5v-0.09a0.28,0.28,0,0,1,.08-0.2,0.27,0.27,0,0,1,.2-0.08h0.4a0.4,0.4,0,0,1,.4.29l1.34,4,1.43-4a0.38,0.38,0,0,1,.37-0.29h0.26a0.38,0.38,0,0,1,.37.29l1.43,4,1.34-4a0.4,0.4,0,0,1,.4-0.29h0.39m0-1.5h-0.39a1.9,1.9,0,0,1-3.55,0H916a1.88,1.88,0,0,0-1.76,1.22,1.9,1.9,0,0,0-1.79-1.22H912a1.79,1.79,0,0,0-1.79,1.79v0.28l0,0.15,0,0.14,1.83,5.5a1.86,1.86,0,0,0,1.78,1.36h0.37a1.79,1.79,0,0,0,1.31-.56,2.21,2.21,0,0,0,.45-0.73l0-.08v0a2.3,2.3,0,0,0,.45.75,1.81,1.81,0,0,0,1.33.58h0.37a1.86,1.86,0,0,0,1.78-1.37l1.83-5.49,0-.14,0-.15v-0.28a1.79,1.79,0,0,0-.5-1.24l0,0,0,0a1.79,1.79,0,0,0-1.24-.5h0Z"/><path class="cls-19" d="M930.4,154.84a0.27,0.27,0,0,1,.2.08,0.28,0.28,0,0,1,.09.2v0.09l-1.83,5.5a0.39,0.39,0,0,1-.36.34h-0.37a0.29,0.29,0,0,1-.22-0.09,0.75,0.75,0,0,1-.14-0.25l-1.42-4-1.42,4a0.72,0.72,0,0,1-.14.25,0.29,0.29,0,0,1-.23.09h-0.37a0.39,0.39,0,0,1-.36-0.34l-1.83-5.5v-0.09a0.29,0.29,0,0,1,.08-0.2,0.28,0.28,0,0,1,.21-0.08h0.39a0.4,0.4,0,0,1,.41.29l1.34,4,1.43-4a0.38,0.38,0,0,1,.37-0.29h0.26a0.38,0.38,0,0,1,.37.29l1.43,4,1.34-4a0.4,0.4,0,0,1,.41-0.29h0.39m0-1.5H930a1.9,1.9,0,0,0-1.79,1.22,1.87,1.87,0,0,0-1.76-1.22h-0.26a1.87,1.87,0,0,0-1.76,1.22,1.9,1.9,0,0,0-1.79-1.22h-0.39a1.77,1.77,0,0,0-1.28.53,1.8,1.8,0,0,0-.51,1.26v0.11l0,0.11v0.09l0,0.13,0,0.13,1.83,5.5a1.86,1.86,0,0,0,1.78,1.36h0.37a1.78,1.78,0,0,0,1.33-.58,2.18,2.18,0,0,0,.44-0.73l0-.05v0a2.28,2.28,0,0,0,.47.77,1.77,1.77,0,0,0,1.31.56h0.37a1.86,1.86,0,0,0,1.79-1.38l1.82-5.48,0-.14,0-.15v-0.28a1.78,1.78,0,0,0-.52-1.26,1.74,1.74,0,0,0-1.27-.53h0Z"/><line class="cls-17" x1="905.87" y1="142.5" x2="942.71" y2="142.5"/><text class="cls-20" transform="translate(907.68 199.11)">WEB</text><path class="cls-15" d="M848.22,328.9a15.77,15.77,0,0,0,12.31-7.11l18.32-31.73a15.77,15.77,0,0,0,0-14.22l-18.31-31.72A15.77,15.77,0,0,0,848.22,237H811.59a15.77,15.77,0,0,0-12.32,7.11L781,275.84a15.77,15.77,0,0,0,0,14.22l18.32,31.73a15.77,15.77,0,0,0,12.31,7.11h36.63Z"/><line class="cls-18" x1="830.72" y1="255.03" x2="830.72" y2="255.73"/><path class="cls-21" d="M816.12,269.63a3,3,0,0,1-2.95-2.94V255a3,3,0,0,1,2.95-2.95h11.65"/><path class="cls-16" d="M820.16,264.11v-3.83a3.85,3.85,0,0,1,3.84-3.84h17.28a3.85,3.85,0,0,1,3.84,3.84v36.48a3.85,3.85,0,0,1-3.84,3.84H824a3.85,3.85,0,0,1-3.84-3.84V276.31"/><line class="cls-17" x1="834.08" y1="259.99" x2="831.2" y2="259.99"/><circle class="cls-17" cx="832.64" cy="295.94" r="1.92"/><rect class="cls-7" x="827.77" y="247.55" width="6.63" height="6.63" rx="2.04" ry="2.04"/><rect class="cls-17" x="827.77" y="247.55" width="6.63" height="6.63" rx="2.04" ry="2.04"/><rect class="cls-18" x="837.39" y="268.8" width="3.31" height="3.31" rx="1.1" ry="1.1"/><path class="cls-18" d="M831.82,283v3.31a1.11,1.11,0,0,1-1.1,1.11h-3.31a1.11,1.11,0,0,1-1.1-1.11V283a1.11,1.11,0,0,1,1.1-1.1h3.31"/><rect class="cls-17" x="830.77" y="275.15" width="7.73" height="7.73" rx="2.04" ry="2.04"/><rect class="cls-7" x="816.49" y="264.11" width="12.14" height="12.15" rx="2.04" ry="2.04"/><rect class="cls-17" x="816.49" y="264.11" width="12.14" height="12.15" rx="2.04" ry="2.04"/><text class="cls-20" transform="translate(818.52 317.84)">APPS</text><path class="cls-15" d="M847,566.66a15.77,15.77,0,0,0,12.31-7.11l18.32-31.73a15.77,15.77,0,0,0,0-14.22l-18.31-31.72A15.77,15.77,0,0,0,847,474.77H810.38a15.77,15.77,0,0,0-12.32,7.11L779.75,513.6a15.77,15.77,0,0,0,0,14.22l18.32,31.73a15.77,15.77,0,0,0,12.31,7.11H847Z"/><line class="cls-18" x1="827.57" y1="513.95" x2="830.15" y2="518.67"/><path class="cls-22" d="M826.49,532h-8.33a6.93,6.93,0,0,1-5.41-3.12l-8-13.94a6.78,6.78,0,0,1-.07-6.12l1.73-3"/><line class="cls-18" x1="846.93" y1="516.28" x2="843.53" y2="522.16"/><path class="cls-22" d="M831.23,491.65h3.31a6.65,6.65,0,0,1,5.11,3.12l4.08,7.07"/><path class="cls-7" d="M844.32,516.28a2.48,2.48,0,0,1-1.93-1.12l-2.88-5a2.48,2.48,0,0,1,0-2.23l2.88-5a2.48,2.48,0,0,1,1.94-1.12h5.75A2.48,2.48,0,0,1,852,503l2.88,5a2.48,2.48,0,0,1,0,2.23l-2.88,5a2.48,2.48,0,0,1-1.93,1.12h-5.75Z"/><path class="cls-17" d="M844.32,516.28a2.48,2.48,0,0,1-1.93-1.12l-2.88-5a2.48,2.48,0,0,1,0-2.23l2.88-5a2.48,2.48,0,0,1,1.94-1.12h5.75A2.48,2.48,0,0,1,852,503l2.88,5a2.48,2.48,0,0,1,0,2.23l-2.88,5a2.48,2.48,0,0,1-1.93,1.12h-5.75Z"/><path class="cls-18" d="M846.48,510.88a0.62,0.62,0,0,1-.49-0.28l-0.73-1.25a0.63,0.63,0,0,1,0-.56l0.73-1.26a0.62,0.62,0,0,1,.49-0.28h1.45a0.62,0.62,0,0,1,.49.28l0.73,1.26a0.63,0.63,0,0,1,0,.56l-0.73,1.25a0.62,0.62,0,0,1-.49.28h-1.45Z"/><path class="cls-7" d="M831.91,538.36a3.38,3.38,0,0,1-2.64-1.52l-3.93-6.8a3.38,3.38,0,0,1,0-3l3.93-6.8a3.38,3.38,0,0,1,2.64-1.52h7.85a3.38,3.38,0,0,1,2.64,1.52l3.92,6.8a3.38,3.38,0,0,1,0,3l-3.92,6.8a3.38,3.38,0,0,1-2.64,1.52h-7.85Z"/><path class="cls-17" d="M831.91,538.36a3.38,3.38,0,0,1-2.64-1.52l-3.93-6.8a3.38,3.38,0,0,1,0-3l3.93-6.8a3.38,3.38,0,0,1,2.64-1.52h7.85a3.38,3.38,0,0,1,2.64,1.52l3.92,6.8a3.38,3.38,0,0,1,0,3l-3.92,6.8a3.38,3.38,0,0,1-2.64,1.52h-7.85Z"/><path class="cls-18" d="M834.5,531.87a1.15,1.15,0,0,1-.9-0.52L832.27,529a1.15,1.15,0,0,1,0-1l1.34-2.31a1.15,1.15,0,0,1,.9-0.52h2.67a1.15,1.15,0,0,1,.9.52L839.4,528a1.15,1.15,0,0,1,0,1l-1.34,2.31a1.15,1.15,0,0,1-.9.52H834.5Z"/><path class="cls-7" d="M813.59,513.95a4.92,4.92,0,0,1-3.84-2.22L804,501.84a4.91,4.91,0,0,1,0-4.43l5.71-9.89a4.92,4.92,0,0,1,3.84-2.22H825a4.91,4.91,0,0,1,3.84,2.22l5.71,9.89a4.92,4.92,0,0,1,0,4.43l-5.71,9.89a4.91,4.91,0,0,1-3.84,2.22H813.59Z"/><path class="cls-17" d="M813.59,513.95a4.92,4.92,0,0,1-3.84-2.22L804,501.84a4.91,4.91,0,0,1,0-4.43l5.71-9.89a4.92,4.92,0,0,1,3.84-2.22H825a4.91,4.91,0,0,1,3.84,2.22l5.71,9.89a4.92,4.92,0,0,1,0,4.43l-5.71,9.89a4.91,4.91,0,0,1-3.84,2.22H813.59Z"/><path class="cls-18" d="M817.09,505.18a1.9,1.9,0,0,1-1.49-.86l-2.21-3.83a1.9,1.9,0,0,1,0-1.72l2.21-3.83a1.91,1.91,0,0,1,1.49-.86h4.43a1.91,1.91,0,0,1,1.49.86l2.21,3.83a1.9,1.9,0,0,1,0,1.72L823,504.32a1.91,1.91,0,0,1-1.49.86h-4.43Z"/><text class="cls-20" transform="translate(809.61 555.31)">3</text><text class="cls-20" transform="translate(814.66 552.64) scale(0.58)">RD</text><text class="cls-20" transform="translate(821.08 555.31)"> <tspan x="1.82" y="0">P</tspan><tspan x="6.74" y="0">A</tspan><tspan x="12.3" y="0">R</tspan><tspan x="17.62" y="0">T</tspan><tspan x="22.47" y="0">Y</tspan></text><path class="cls-15" d="M934.46,447.78a15.77,15.77,0,0,0,12.31-7.11l18.32-31.73a15.77,15.77,0,0,0,0-14.22L946.78,363a15.77,15.77,0,0,0-12.32-7.11H897.83A15.77,15.77,0,0,0,885.51,363L867.2,394.72a15.77,15.77,0,0,0,0,14.22l18.32,31.73a15.77,15.77,0,0,0,12.31,7.11h36.63Z"/><line class="cls-18" x1="898.25" y1="414.39" x2="912.89" y2="414.39"/><line class="cls-18" x1="916.18" y1="407.76" x2="916.18" y2="410.95"/><line class="cls-18" x1="919.49" y1="414.39" x2="934.14" y2="414.39"/><path class="cls-16" d="M889.65,372.61a4.64,4.64,0,0,1,4.61-4.64h43.82a4.64,4.64,0,0,1,4.62,4.64v4a4.64,4.64,0,0,1-4.62,4.64H894.27a4.64,4.64,0,0,1-4.61-4.64v-4Z"/><line class="cls-17" x1="907.81" y1="377.28" x2="894.48" y2="377.28"/><line class="cls-17" x1="938.73" y1="374.6" x2="938.73" y2="374.6"/><line class="cls-18" x1="936.07" y1="374.6" x2="936.07" y2="374.6"/><path class="cls-16" d="M889.65,385.87a4.64,4.64,0,0,1,4.61-4.64h43.82a4.64,4.64,0,0,1,4.62,4.64v4a4.64,4.64,0,0,1-4.62,4.64H894.27a4.64,4.64,0,0,1-4.61-4.64v-4Z"/><line class="cls-17" x1="907.81" y1="390.55" x2="894.48" y2="390.55"/><line class="cls-17" x1="936.07" y1="387.86" x2="936.07" y2="387.86"/><line class="cls-18" x1="938.73" y1="387.86" x2="938.73" y2="387.86"/><path class="cls-16" d="M889.65,399.14a4.64,4.64,0,0,1,4.61-4.64h43.82a4.64,4.64,0,0,1,4.62,4.64v4a4.64,4.64,0,0,1-4.62,4.64H894.27a4.64,4.64,0,0,1-4.61-4.64v-4Z"/><line class="cls-17" x1="907.81" y1="403.81" x2="894.48" y2="403.81"/><line class="cls-17" x1="938.73" y1="401.13" x2="938.73" y2="401.13"/><line class="cls-18" x1="936.07" y1="401.13" x2="936.07" y2="401.13"/><rect class="cls-7" x="912.86" y="411.31" width="6.63" height="6.63" rx="1.33" ry="1.33"/><rect class="cls-17" x="912.86" y="411.31" width="6.63" height="6.63" rx="1.33" ry="1.33"/><text class="cls-20" transform="translate(898.05 437.03)">SE<tspan x="10.13" y="0">R</tspan><tspan x="15.34" y="0">VERS</tspan></text><path class="cls-15" d="M934.46,685.54a15.77,15.77,0,0,0,12.31-7.11l18.32-31.73a15.77,15.77,0,0,0,0-14.22l-18.32-31.72a15.77,15.77,0,0,0-12.32-7.11H897.83a15.77,15.77,0,0,0-12.32,7.11L867.2,632.48a15.77,15.77,0,0,0,0,14.22l18.32,31.73a15.77,15.77,0,0,0,12.31,7.11h36.63Z"/><path class="cls-23" d="M907,652.53a7.89,7.89,0,0,1-6.16-3.55l-9.16-15.86a7.89,7.89,0,0,1,0-7.11l9.16-15.86a7.89,7.89,0,0,1,6.16-3.55h18.32a7.89,7.89,0,0,1,6.16,3.55L940.65,626a7.89,7.89,0,0,1,0,7.11L931.5,649a7.88,7.88,0,0,1-6.16,3.56H907Z"/><path class="cls-19" d="M909.92,626.54a0.24,0.24,0,0,1,.23.23v5.58a0.23,0.23,0,0,1-.23.23h-0.7a0.22,0.22,0,0,1-.16-0.07,0.23,0.23,0,0,1-.07-0.16v-5.58a0.23,0.23,0,0,1,.07-0.16,0.22,0.22,0,0,1,.16-0.07h0.7m0-1.5h-0.7a1.73,1.73,0,0,0-1.73,1.73v5.58a1.73,1.73,0,0,0,1.73,1.73h0.7a1.74,1.74,0,0,0,1.73-1.73v-5.58a1.73,1.73,0,0,0-.49-1.21,1.75,1.75,0,0,0-1.24-.53h0Z"/><path class="cls-19" d="M914.7,626.45a2.31,2.31,0,0,1,2.54,2.34c0,0.26,0,.5,0,0.69s0,0.54,0,.85a2.54,2.54,0,0,1-5.07,0c0-.31,0-0.6,0-0.85s0-.43,0-0.69a2.31,2.31,0,0,1,2.54-2.34m0,5.14a1.38,1.38,0,0,0,1-.34,1.34,1.34,0,0,0,.4-1q0-.22,0-0.73t0-.73a1.37,1.37,0,0,0-2.74,0c0,0.29,0,.53,0,0.73s0,0.45,0,.73a1.34,1.34,0,0,0,.4,1,1.38,1.38,0,0,0,1,.34m0-6.64a3.8,3.8,0,0,0-4,3.77c0,0.29,0,.55,0,0.76s0,0.59,0,.92a4.16,4.16,0,0,0,6.95,2.67,4,4,0,0,0,1.12-2.66c0-.35,0-0.65,0-0.93s0-.47,0-0.76a4,4,0,0,0-1.12-2.68A3.92,3.92,0,0,0,914.7,625h0Z"/><path class="cls-19" d="M923.14,626.54a0.24,0.24,0,0,1,.23.23v0.61a0.22,0.22,0,0,1-.07.16,0.22,0.22,0,0,1-.16.07h-1.55v4.73a0.23,0.23,0,0,1-.07.16,0.22,0.22,0,0,1-.17.07h-0.7a0.22,0.22,0,0,1-.16-0.07,0.21,0.21,0,0,1-.07-0.16v-4.73h-1.55a0.22,0.22,0,0,1-.16-0.07,0.22,0.22,0,0,1-.07-0.16v-0.61a0.22,0.22,0,0,1,.07-0.16,0.22,0.22,0,0,1,.16-0.07h4.27m0-1.5h-4.27a1.74,1.74,0,0,0-1.73,1.73v0.61a1.72,1.72,0,0,0,.52,1.24,1.69,1.69,0,0,0,1.21.5h0.05v3.23a1.74,1.74,0,0,0,1.73,1.73h0.7a1.74,1.74,0,0,0,1.73-1.73v-3.23h0.05a1.71,1.71,0,0,0,1.25-.53,1.69,1.69,0,0,0,.49-1.2v-0.61a1.72,1.72,0,0,0-.51-1.23,1.7,1.7,0,0,0-1.22-.5h0Z"/><line class="cls-18" x1="892.9" y1="634.71" x2="892.9" y2="634.71"/><line class="cls-18" x1="933.13" y1="645.76" x2="933.13" y2="645.76"/><circle class="cls-21" cx="897.38" cy="616.31" r="2.31"/><circle class="cls-21" cx="936.54" cy="618.62" r="2.31"/><circle class="cls-21" cx="916.29" cy="652.53" r="2.31"/><text class="cls-20" transform="translate(909.92 674.68)">I<tspan x="2.4" y="0">O</tspan><tspan x="7.86" y="0">T</tspan></text><g class="cls-24"><line class="cls-25" x1="514.86" y1="431.35" x2="511.36" y2="431.35"/><line class="cls-26" x1="506.27" y1="431.35" x2="496.46" y2="431.35"/><line class="cls-25" x1="494.64" y1="431.35" x2="491.14" y2="431.35"/></g><g class="cls-24"><path class="cls-25" d="M532.58,449.92a7.68,7.68,0,0,1-6-3.46l-6.72-11.64a7.69,7.69,0,0,1,0-6.93l6.72-11.64a7.68,7.68,0,0,1,6-3.46H546a7.68,7.68,0,0,1,6,3.46l6.72,11.64a7.69,7.69,0,0,1,0,6.93L552,446.46a7.68,7.68,0,0,1-6,3.46H532.58Z"/></g><line class="cls-25" x1="508.84" y1="402.2" x2="505.34" y2="402.2"/><line class="cls-27" x1="501.38" y1="402.2" x2="493.75" y2="402.2"/><line class="cls-28" x1="492.34" y1="402.2" x2="476.79" y2="402.2"/><line class="cls-25" x1="475.37" y1="402.2" x2="471.87" y2="402.2"/><path class="cls-29" d="M537.93,438.73a9.61,9.61,0,0,1-7.5-4.33l-16.09-27.87a9.61,9.61,0,0,1,0-8.66L530.43,370a9.61,9.61,0,0,1,7.5-4.33h32.18a9.61,9.61,0,0,1,7.5,4.33l16.09,27.87a9.61,9.61,0,0,1,0,8.66L577.61,434.4a9.61,9.61,0,0,1-7.5,4.33H537.93Z"/><path class="cls-29" d="M545.35,461.11a5.76,5.76,0,0,1-4.5-2.6l-3.46-6a5.76,5.76,0,0,1,0-5.2l3.46-6a5.77,5.77,0,0,1,4.5-2.6h6.92a5.76,5.76,0,0,1,4.5,2.6l3.46,6a5.76,5.76,0,0,1,0,5.2l-3.46,6a5.76,5.76,0,0,1-4.5,2.6h-6.92Z"/><line class="cls-29" x1="536.89" y1="449.92" x2="533.39" y2="449.92"/><line class="cls-30" x1="527.32" y1="449.92" x2="515.6" y2="449.92"/><line class="cls-29" x1="513.44" y1="449.92" x2="509.94" y2="449.92"/><g class="cls-24"><path class="cls-25" d="M605.88,435.36a5.76,5.76,0,0,1-4.5-2.6l-3.46-6a5.76,5.76,0,0,1,0-5.2l3.46-6a5.76,5.76,0,0,1,4.5-2.6h6.92a5.76,5.76,0,0,1,4.5,2.6l3.46,6a5.76,5.76,0,0,1,0,5.2l-3.46,6a5.76,5.76,0,0,1-4.5,2.6h-6.92Z"/></g><g class="cls-24"><line class="cls-25" x1="596.42" y1="424.16" x2="592.92" y2="424.16"/><line class="cls-31" x1="586.84" y1="424.16" x2="575.13" y2="424.16"/><line class="cls-25" x1="572.96" y1="424.16" x2="569.46" y2="424.16"/></g><g class="cls-24"><path class="cls-32" d="M597.09,462.86a4.24,4.24,0,0,1-3.31-1.91l-2.54-4.41a4.24,4.24,0,0,1,0-3.82l2.54-4.41a4.24,4.24,0,0,1,3.31-1.91h5.09a4.24,4.24,0,0,1,3.31,1.91l2.54,4.41a4.24,4.24,0,0,1,0,3.82l-2.54,4.41a4.24,4.24,0,0,1-3.31,1.91h-5.09Z"/></g><g class="cls-24"><line class="cls-32" x1="590.14" y1="454.63" x2="587.57" y2="454.63"/><line class="cls-33" x1="583.1" y1="454.63" x2="574.49" y2="454.63"/><line class="cls-32" x1="572.9" y1="454.63" x2="570.33" y2="454.63"/></g><g class="cls-24"><path class="cls-25" d="M497.63,347.36a2.93,2.93,0,0,1-2.29-1.32l-1.76-3a2.93,2.93,0,0,1,0-2.64l1.76-3a2.93,2.93,0,0,1,2.29-1.32h3.52a2.93,2.93,0,0,1,2.29,1.32l1.76,3a2.93,2.93,0,0,1,0,2.64l-1.76,3a2.93,2.93,0,0,1-2.29,1.32h-3.52Z"/></g><g class="cls-24"><line class="cls-25" x1="492.82" y1="341.67" x2="491.05" y2="341.67"/><line class="cls-34" x1="487.96" y1="341.67" x2="482.02" y2="341.67"/><line class="cls-25" x1="480.92" y1="341.67" x2="479.14" y2="341.67"/></g><g class="cls-24"><path class="cls-32" d="M631.8,365.76a4.7,4.7,0,0,1-3.67-2.12l-2.82-4.89a4.69,4.69,0,0,1,0-4.23l2.82-4.88a4.7,4.7,0,0,1,3.67-2.12h5.64a4.7,4.7,0,0,1,3.67,2.12l2.82,4.88a4.69,4.69,0,0,1,0,4.23l-2.82,4.89a4.7,4.7,0,0,1-3.67,2.12H631.8Z"/></g><g class="cls-24"><line class="cls-32" x1="624.09" y1="356.64" x2="621.24" y2="356.64"/><line class="cls-35" x1="616.29" y1="356.64" x2="606.74" y2="356.64"/><line class="cls-32" x1="604.98" y1="356.64" x2="602.13" y2="356.64"/></g><g class="cls-2"><path class="cls-25" d="M552.06,407.61a1.92,1.92,0,0,1-1.5-.87l-2.13-3.68a1.92,1.92,0,0,1,0-1.73l2.13-3.68a1.92,1.92,0,0,1,1.5-.87h4.25a1.92,1.92,0,0,1,1.5.87l2.13,3.68a1.92,1.92,0,0,1,0,1.73l-2.13,3.68a1.92,1.92,0,0,1-1.5.87h-4.25Z"/></g><g class="cls-2"><line class="cls-25" x1="545.93" y1="402.2" x2="542.43" y2="402.2"/><line class="cls-36" x1="539.62" y1="402.2" x2="537.8" y2="402.2"/><line class="cls-25" x1="536.39" y1="402.2" x2="532.89" y2="402.2"/></g><g class="cls-2"><path class="cls-29" d="M594.74,382.89a1.92,1.92,0,0,1-1.5-.87l-2.13-3.68a1.92,1.92,0,0,1,0-1.73l2.13-3.68a1.92,1.92,0,0,1,1.5-.87H599a1.92,1.92,0,0,1,1.5.87l2.13,3.68a1.92,1.92,0,0,1,0,1.73L600.49,382a1.92,1.92,0,0,1-1.5.87h-4.25Z"/></g><g class="cls-2"><line class="cls-29" x1="588.61" y1="377.47" x2="585.11" y2="377.47"/><line class="cls-37" x1="582.29" y1="377.47" x2="580.48" y2="377.47"/><line class="cls-29" x1="579.07" y1="377.47" x2="575.57" y2="377.47"/></g><path class="cls-38" d="M537.93,438.73a9.61,9.61,0,0,1-7.5-4.33l-16.09-27.87a9.61,9.61,0,0,1,0-8.66L530.43,370a9.61,9.61,0,0,1,7.5-4.33h32.18a9.61,9.61,0,0,1,7.5,4.33l16.09,27.87a9.61,9.61,0,0,1,0,8.66L577.61,434.4a9.61,9.61,0,0,1-7.5,4.33H537.93Z"/><path class="cls-39" d="M545.35,461.11a5.76,5.76,0,0,1-4.5-2.6l-3.46-6a5.76,5.76,0,0,1,0-5.2l3.46-6a5.77,5.77,0,0,1,4.5-2.6h6.92a5.76,5.76,0,0,1,4.5,2.6l3.46,6a5.76,5.76,0,0,1,0,5.2l-3.46,6a5.76,5.76,0,0,1-4.5,2.6h-6.92Z"/><path class="cls-40" d="M594.74,382.89a1.92,1.92,0,0,1-1.5-.87l-2.13-3.68a1.92,1.92,0,0,1,0-1.73l2.13-3.68a1.92,1.92,0,0,1,1.5-.87H599a1.92,1.92,0,0,1,1.5.87l2.13,3.68a1.92,1.92,0,0,1,0,1.73L600.49,382a1.92,1.92,0,0,1-1.5.87h-4.25Z"/><g class="cls-41"><path class="cls-32" d="M543.25,371.86a5.76,5.76,0,0,1-4.5-2.6l-3.46-6a5.76,5.76,0,0,1,0-5.2l3.46-6a5.76,5.76,0,0,1,4.5-2.6h6.92a5.76,5.76,0,0,1,4.5,2.6l3.46,6a5.76,5.76,0,0,1,0,5.2l-3.46,6a5.76,5.76,0,0,1-4.5,2.6h-6.92Z"/></g><g class="cls-41"><line class="cls-32" x1="529.79" y1="360.67" x2="526.29" y2="360.67"/><line class="cls-42" x1="520.52" y1="360.67" x2="509.4" y2="360.67"/><line class="cls-32" x1="507.34" y1="360.67" x2="503.84" y2="360.67"/></g><g class="cls-41"><path class="cls-32" d="M603.07,419.38a1.92,1.92,0,0,1-1.5-.87l-2.13-3.68a1.92,1.92,0,0,1,0-1.73l2.13-3.68a1.92,1.92,0,0,1,1.5-.87h4.25a1.92,1.92,0,0,1,1.5.87l2.13,3.68a1.92,1.92,0,0,1,0,1.73l-2.13,3.68a1.92,1.92,0,0,1-1.5.87h-4.25Z"/></g><g class="cls-41"><line class="cls-32" x1="596.95" y1="413.97" x2="593.45" y2="413.97"/><line class="cls-43" x1="590.63" y1="413.97" x2="588.82" y2="413.97"/><line class="cls-32" x1="587.41" y1="413.97" x2="583.91" y2="413.97"/></g><path class="cls-44" d="M590.37,310.33h8.06c4.43,0,10.05,3.46,12.5,7.69l44.17,76.51a17.06,17.06,0,0,1,0,15.38l-44.17,76.51c-2.44,4.23-8.06,7.69-12.5,7.69h-8.06"/><g class="cls-2"><path class="cls-4" d="M640.06,447.6l-6.32,2.69a1.86,1.86,0,0,1-2.59-1.26l-2-7.34"/></g><g class="cls-2"><path class="cls-4" d="M715.57,456.88l-1,6.8a1.86,1.86,0,0,1-2.42,1.57l-7.3-2.11"/></g><g class="cls-2"><path class="cls-4" d="M783.77,575.23l-1,6.8a1.86,1.86,0,0,1-2.42,1.57l-7.3-2.11"/></g><path class="cls-15" d="M1022.3,217.39a11.15,11.15,0,0,0-8.71,5l-6.7,11.6a11.14,11.14,0,0,0,0,10l6.7,11.6a11.16,11.16,0,0,0,8.71,5h13.39a11.15,11.15,0,0,0,8.7-5l6.7-11.6a11.15,11.15,0,0,0,0-10.05l-6.7-11.6a11.15,11.15,0,0,0-8.7-5H1022.3Z"/><path class="cls-15" d="M1022.3,144a11.15,11.15,0,0,0-8.71,5l-6.7,11.6a11.14,11.14,0,0,0,0,10l6.7,11.6a11.16,11.16,0,0,0,8.71,5h13.39a11.15,11.15,0,0,0,8.7-5l6.7-11.6a11.15,11.15,0,0,0,0-10.05l-6.7-11.6a11.15,11.15,0,0,0-8.7-5H1022.3Z"/><path class="cls-15" d="M1022.3,72a11.15,11.15,0,0,0-8.71,5l-6.7,11.6a11.14,11.14,0,0,0,0,10l6.7,11.6a11.16,11.16,0,0,0,8.71,5h13.39a11.15,11.15,0,0,0,8.7-5l6.7-11.6a11.15,11.15,0,0,0,0-10.05l-6.7-11.6a11.15,11.15,0,0,0-8.7-5H1022.3Z"/><path class="cls-16" d="M1028.14,242.67v16.76a3.74,3.74,0,0,1-3.73,3.72h-16.76a3.74,3.74,0,0,1-3.72-3.72V224a3.73,3.73,0,0,1,3.72-3.72h16.76a3.74,3.74,0,0,1,3.73,3.72v18.63Z"/><line class="cls-17" x1="1017.44" y1="223.77" x2="1014.64" y2="223.77"/><circle class="cls-17" cx="1016.04" cy="258.64" r="1.86"/><path class="cls-21" d="M1028.45,247.89h14a3,3,0,0,0,3-2.95v-8.85a3,3,0,0,0-3-2.95H1027a3,3,0,0,0-2.95,2.95v16.22Z"/><path class="cls-21" d="M1013.58,242.24h8.68a1.83,1.83,0,0,0,1.83-1.83v-5.48a1.83,1.83,0,0,0-1.83-1.83h-9.59a1.83,1.83,0,0,0-1.83,1.83v10Z"/><path class="cls-16" d="M1024.2,241.16h24.65A5.21,5.21,0,0,0,1054,236V219.51a5.21,5.21,0,0,0-5.19-5.19h-27.24a5.2,5.2,0,0,0-5.19,5.19v29.43Z"/><path class="cls-19" d="M1041.35,225a3,3,0,0,1,1.26.25,2.08,2.08,0,0,1,.81.62,1.39,1.39,0,0,1,.3.73,0.18,0.18,0,0,1-.06.17,0.24,0.24,0,0,1-.17.06h-0.6a0.37,0.37,0,0,1-.21-0.05,0.42,0.42,0,0,1-.14-0.15,1.07,1.07,0,0,0-.42-0.39,1.6,1.6,0,0,0-.75-0.15,1.53,1.53,0,0,0-.79.19,0.57,0.57,0,0,0-.32.51,0.53,0.53,0,0,0,.15.4,1.15,1.15,0,0,0,.47.24q0.32,0.09,1,.25a3.39,3.39,0,0,1,1.51.63,1.39,1.39,0,0,1,.47,1.11,1.53,1.53,0,0,1-.3.93,2,2,0,0,1-.87.64,3.77,3.77,0,0,1-2.54,0,2.2,2.2,0,0,1-.9-0.59,1.37,1.37,0,0,1-.37-0.88,0.2,0.2,0,0,1,.06-0.17,0.25,0.25,0,0,1,.17-0.06h0.6a0.39,0.39,0,0,1,.22.05,0.36,0.36,0,0,1,.13.16,1.11,1.11,0,0,0,.43.45,1.74,1.74,0,0,0,.87.17,2.22,2.22,0,0,0,.95-0.18,0.58,0.58,0,0,0,.38-0.54,0.42,0.42,0,0,0-.15-0.33,1.13,1.13,0,0,0-.41-0.21l-0.81-.21-0.56-.13a2.86,2.86,0,0,1-1.31-.61,1.7,1.7,0,0,1-.11-2.06,2,2,0,0,1,.82-0.63,2.84,2.84,0,0,1,1.16-.23m-5.78.09a2.31,2.31,0,0,1,2.58,2.38c0,0.14,0,.36,0,0.64s0,0.49,0,.64a2.61,2.61,0,0,1-.7,1.76,2.5,2.5,0,0,1-1.84.63h-2.18a0.22,0.22,0,0,1-.16-0.07,0.23,0.23,0,0,1-.07-0.16v-5.58a0.23,0.23,0,0,1,.07-0.16,0.22,0.22,0,0,1,.16-0.07h2.13m-1.2,5h1.2a1.39,1.39,0,0,0,1-.35,1.42,1.42,0,0,0,.39-0.95c0-.14,0-0.36,0-0.64s0-.5,0-0.64a1.4,1.4,0,0,0-.39-0.95,1.47,1.47,0,0,0-1.07-.35h-1.16V230m-4.4-5a0.29,0.29,0,0,1,.2.07,0.55,0.55,0,0,1,.13.22l2.12,5.46a0.27,0.27,0,0,1,0,.06,0.23,0.23,0,0,1-.07.16,0.22,0.22,0,0,1-.16.07h-0.62a0.32,0.32,0,0,1-.34-0.22l-0.37-1h-2.73l-0.37,1a0.32,0.32,0,0,1-.34.22h-0.62a0.24,0.24,0,0,1-.23-0.23,0.15,0.15,0,0,1,0-.06l2.11-5.46a0.55,0.55,0,0,1,.13-0.22,0.28,0.28,0,0,1,.2-0.07H1030m-1.42,3.79h1.9l-1-2.46-0.95,2.46m12.81-5.38a4.34,4.34,0,0,0-1.76.36,3.6,3.6,0,0,0-1.12.76,4,4,0,0,0-2.9-1h-2.13a1.74,1.74,0,0,0-1.7,1.37l0-.1a2,2,0,0,0-.51-0.8,1.78,1.78,0,0,0-1.22-.47H1029a1.78,1.78,0,0,0-1.23.48,2,2,0,0,0-.51.81l-2.1,5.41a1.63,1.63,0,0,0-.12.62,1.74,1.74,0,0,0,1.73,1.73h0.62a1.82,1.82,0,0,0,1.73-1.17h0.67a1.79,1.79,0,0,0,1.73,1.17h0.62a1.76,1.76,0,0,1,1.25,0h2.18a4,4,0,0,0,2.79-1,3.79,3.79,0,0,0,1.26.75,5.26,5.26,0,0,0,3.62,0,3.5,3.5,0,0,0,1.5-1.13,3.06,3.06,0,0,0,.6-1.83,3,3,0,0,0-.53-1.75,1.68,1.68,0,0,0,.35-1.2,2.86,2.86,0,0,0-.59-1.49,3.57,3.57,0,0,0-1.38-1.08,4.47,4.47,0,0,0-1.89-.39h0Z"/><rect class="cls-16" x="1009.84" y="71.7" width="30.94" height="44.56" rx="4.43" ry="4.43"/><line class="cls-18" x1="1015.35" y1="80.22" x2="1020.61" y2="80.22"/><rect class="cls-17" x="1015.35" y="82.45" width="7.5" height="3.72" rx="1.07" ry="1.07"/><line class="cls-18" x1="1027.24" y1="80.22" x2="1032.51" y2="80.22"/><rect class="cls-17" x="1027.24" y="82.45" width="7.5" height="3.72" rx="1.07" ry="1.07"/><line class="cls-18" x1="1015.35" y1="91.38" x2="1020.61" y2="91.38"/><rect class="cls-17" x="1015.35" y="93.61" width="19.93" height="3.72" rx="1.07" ry="1.07"/><rect class="cls-17" x="1015.35" y="102.53" width="19.93" height="7.43" rx="1.07" ry="1.07"/><polygon class="cls-21" points="1048.13 107.69 1046.78 110.52 1045.42 107.69 1045.42 78.8 1048.13 78.8 1048.13 107.69"/><text class="cls-45" transform="translate(1004.4 277.78)">F<tspan x="4.62" y="0">aceboo</tspan><tspan x="32.79" y="0">k</tspan><tspan x="37.15" y="0"> </tspan><tspan x="38.77" y="0">A</tspan><tspan x="44.27" y="0">d</tspan></text><text class="cls-45" transform="translate(1017.83 199.25)">E<tspan x="4.95" y="0">ca</tspan><tspan x="14.1" y="0">r</tspan><tspan x="17.39" y="0">d</tspan></text><text class="cls-45" transform="translate(1002.44 130.72)">Co<tspan x="10.22" y="0">n</tspan><tspan x="15.18" y="0">tact </tspan><tspan x="33.05" y="0">F</tspan><tspan x="37.78" y="0">orm</tspan></text><path class="cls-16" d="M1021.1,151.79h30.52a3.79,3.79,0,0,1,3.79,3.79v18.88a3.78,3.78,0,0,1-3.78,3.78H1021.1a3.79,3.79,0,0,1-3.79-3.79V155.57A3.79,3.79,0,0,1,1021.1,151.79Z"/><path class="cls-17" d="M1039.54,157.75h10.27a1.28,1.28,0,0,1,1.28,1.28v1.89a1.27,1.27,0,0,1-1.27,1.27h-10.27a1.27,1.27,0,0,1-1.27-1.27V159A1.27,1.27,0,0,1,1039.54,157.75Z"/><line class="cls-17" x1="1038.26" y1="166.1" x2="1051.08" y2="166.1"/><line class="cls-17" x1="1038.26" y1="172.09" x2="1047.89" y2="172.09"/><line class="cls-17" x1="1038.26" y1="168.89" x2="1040.84" y2="168.89"/><path class="cls-19" d="M1026.26,161.86a0.32,0.32,0,0,1,.1.24v1.24a0.35,0.35,0,0,1-.34.34h-1.17a0.34,0.34,0,0,1-.34-0.34V162.1a0.34,0.34,0,0,1,.34-0.34H1026A0.32,0.32,0,0,1,1026.26,161.86Zm0,4.42a0.32,0.32,0,0,1,.1.24v1.24a0.35,0.35,0,0,1-.34.34h-1.17a0.34,0.34,0,0,1-.34-0.34v-1.24a0.34,0.34,0,0,1,.34-0.34H1026A0.32,0.32,0,0,1,1026.26,166.27Z"/><path class="cls-19" d="M1030.81,162.53a3.3,3.3,0,0,0-.51-1.43,1.37,1.37,0,0,0-1-.57,0.4,0.4,0,0,1-.24-0.11,0.31,0.31,0,0,1-.1-0.23v-0.83a0.34,0.34,0,0,1,.34-0.34,2.81,2.81,0,0,1,2,.67,3.82,3.82,0,0,1,1,2,17.07,17.07,0,0,1,0,6.52,3.85,3.85,0,0,1-1,2,2.79,2.79,0,0,1-2,.68,0.34,0.34,0,0,1-.34-0.34v-0.83a0.31,0.31,0,0,1,.1-0.23,0.39,0.39,0,0,1,.24-0.11,1.37,1.37,0,0,0,1-.57,3.32,3.32,0,0,0,.51-1.43A19.8,19.8,0,0,0,1030.81,162.53Z"/><line class="cls-18" x1="1017.29" y1="168.92" x2="1008.34" y2="168.92"/><line class="cls-18" x1="1009" y1="159.1" x2="1002.56" y2="159.1"/><line class="cls-18" x1="1015.38" y1="165.65" x2="1002.56" y2="165.65"/><line class="cls-18" x1="1020.48" y1="162.38" x2="1007.66" y2="162.38"/><circle class="cls-46" cx="381.09" cy="401.66" r="60"/><g class="cls-41"><path class="cls-7" d="M378.21,410.32a4.08,4.08,0,0,1-3.19-1.84l-2.88-5a4.08,4.08,0,0,1,0-3.68l2.88-5a4.08,4.08,0,0,1,3.19-1.84H384a4.08,4.08,0,0,1,3.19,1.84l2.87,5a4.08,4.08,0,0,1,0,3.68l-2.87,5a4.08,4.08,0,0,1-3.19,1.84h-5.75Z"/></g><circle class="cls-47" cx="381.09" cy="401.66" r="29.5" transform="translate(-172.4 387.11) rotate(-45)"/><g class="cls-48"><line class="cls-49" x1="414.89" y1="428.75" x2="422.45" y2="436.38"/><line class="cls-50" x1="424.65" y1="438.59" x2="430.35" y2="444.34"/><line class="cls-51" x1="432.55" y1="446.55" x2="451.43" y2="465.58"/><line class="cls-49" x1="453.63" y1="467.79" x2="461.19" y2="475.42"/><circle class="cls-52" cx="462.26" cy="476.52" r="1.24" transform="translate(-201.55 466.25) rotate(-44.98)"/><line class="cls-49" x1="341.9" y1="409.74" x2="331.16" y2="409.74"/><line class="cls-53" x1="327.35" y1="409.74" x2="317.44" y2="409.74"/><line class="cls-54" x1="313.63" y1="409.74" x2="280.85" y2="409.74"/><line class="cls-49" x1="277.04" y1="409.74" x2="266.3" y2="409.74"/><circle class="cls-55" cx="264.77" cy="409.72" r="5.15"/><circle class="cls-55" cx="462.26" cy="476.52" r="5.16"/><circle class="cls-55" cx="320.78" cy="352.55" r="5.15"/><circle class="cls-55" cx="345.66" cy="473.78" r="5.15"/><circle class="cls-55" cx="395.64" cy="300.2" r="5.15"/><circle class="cls-55" cx="418.64" cy="332.99" r="5.15"/><circle class="cls-52" cx="264.77" cy="409.72" r="1.24"/><line class="cls-49" x1="365.41" y1="444.23" x2="359.53" y2="453.21"/><line class="cls-56" x1="358.03" y1="455.5" x2="354.14" y2="461.44"/><line class="cls-49" x1="352.65" y1="463.73" x2="346.76" y2="472.71"/><circle class="cls-52" cx="345.66" cy="473.78" r="1.24" transform="translate(-233.72 382.87) rotate(-44.97)"/><circle class="cls-55" cx="467.71" cy="386.45" r="5.15" transform="translate(-136.27 443.91) rotate(-45)"/><line class="cls-49" x1="415.8" y1="386.43" x2="426.54" y2="386.43"/><line class="cls-57" x1="432.82" y1="386.43" x2="449.16" y2="386.43"/><line class="cls-49" x1="455.44" y1="386.43" x2="466.18" y2="386.43"/><circle class="cls-52" cx="467.71" cy="386.45" r="1.24"/><line class="cls-49" x1="417.4" y1="333.01" x2="409.67" y2="340.47"/><line class="cls-58" x1="408.3" y1="341.79" x2="404.73" y2="345.23"/><line class="cls-49" x1="403.36" y1="346.56" x2="395.62" y2="354.01"/><circle class="cls-52" cx="418.64" cy="332.99" r="1.24"/><line class="cls-49" x1="321.66" y1="353.67" x2="329.17" y2="361.34"/><line class="cls-59" x1="330.68" y1="362.89" x2="334.61" y2="366.9"/><polyline class="cls-49" points="336.12 368.44 343.63 376.12 348.39 376.12 348.39 380.5"/><circle class="cls-52" cx="320.78" cy="352.76" r="1.24" transform="translate(-155.47 329.89) rotate(-44.97)"/><line class="cls-49" x1="395.64" y1="301.47" x2="395.64" y2="312.21"/><line class="cls-60" x1="395.64" y1="314.76" x2="395.64" y2="321.39"/><line class="cls-61" x1="395.64" y1="323.94" x2="395.64" y2="345.87"/><line class="cls-49" x1="395.64" y1="348.42" x2="395.64" y2="359.16"/><circle class="cls-52" cx="395.62" cy="300.2" r="1.24"/><circle class="cls-62" cx="405.99" cy="450.42" r="1.2"/><circle class="cls-63" cx="270.4" cy="400.02" r="1.2"/><circle class="cls-63" cx="423.84" cy="381.3" r="1.2"/><circle class="cls-62" cx="345.74" cy="369.45" r="1.2"/><circle class="cls-63" cx="387.7" cy="347.63" r="1.2"/><circle class="cls-62" cx="430.32" cy="422.64" r="1.2"/><circle class="cls-62" cx="458.95" cy="397.47" r="1.2"/><circle class="cls-62" cx="256.38" cy="402.86" r="1.2"/><circle class="cls-63" cx="433.98" cy="432.08" r="1.2"/><circle class="cls-63" cx="353.47" cy="482.57" r="1.2"/><circle class="cls-62" cx="353.18" cy="447.04" r="1.2"/></g><line class="cls-64" x1="419.59" y1="394.32" x2="412.94" y2="400.97"/><line class="cls-65" x1="416.93" y1="416.43" x2="407.52" y2="416.43"/><line class="cls-66" x1="381.22" y1="364.3" x2="387.87" y2="370.95"/><line class="cls-67" x1="408.26" y1="438.41" x2="408.26" y2="429"/><line class="cls-68" x1="412.75" y1="379.93" x2="399.39" y2="379.93"/><line class="cls-69" x1="384.45" y1="396.35" x2="381.12" y2="393.03"/><line class="cls-70" x1="395.88" y1="367.17" x2="384.1" y2="367.17"/><polyline class="cls-49" points="396.21 432.37 385.5 421.66 385.5 416.89 381.12 416.89"/><line class="cls-71" x1="391.67" y1="414.89" x2="391.67" y2="427.71"/><path class="cls-29" d="M406.46,440.64a3.24,3.24,0,0,1-2,.82h-4.18a3.24,3.24,0,0,0-2,.82l-3.94,3.94a3.24,3.24,0,0,1-2,.82h-7.75a3.27,3.27,0,0,1-2-.82l-0.7-.69a3.2,3.2,0,0,1-.83-2V360.63a3.33,3.33,0,0,1,.81-2l1.52-1.58a3.14,3.14,0,0,1,2-.84h3.8a3.07,3.07,0,0,1,2,.85l1.59,1.71a3.07,3.07,0,0,0,2,.85h2.17a3.22,3.22,0,0,1,2,.82l11.07,11.14a3.25,3.25,0,0,1,.82,2v3.18a3.19,3.19,0,0,0,.83,2l3,2.94a3.19,3.19,0,0,1,.83,2v3.64a3.15,3.15,0,0,0,.84,2l2.67,2.57a3.15,3.15,0,0,1,.84,2v16.74a3.31,3.31,0,0,1-.81,2l-1.17,1.2a3.31,3.31,0,0,0-.81,2V425a3.33,3.33,0,0,1-.81,2l-2.26,2.35a3.33,3.33,0,0,0-.81,2v1.55a3.24,3.24,0,0,1-.82,2Z"/><polyline class="cls-49" points="407.82 379.93 407.82 388.26 395.71 400.37"/><line class="cls-64" x1="381.12" y1="405.19" x2="374.46" y2="398.53"/><line class="cls-65" x1="381.03" y1="379.06" x2="371.62" y2="379.06"/><line class="cls-72" x1="349.15" y1="432.7" x2="349.15" y2="423.29"/><line class="cls-73" x1="375.29" y1="356.21" x2="375.29" y2="365.62"/><line class="cls-67" x1="374.28" y1="417.63" x2="364.87" y2="417.63"/><line class="cls-74" x1="345.74" y1="401.2" x2="342.41" y2="404.53"/><polyline class="cls-49" points="361.92 372.74 351.21 383.45 351.21 388.22 346.83 388.22"/><line class="cls-75" x1="370.46" y1="430.63" x2="359.74" y2="441.34"/><path class="cls-29" d="M355.78,440.64a3.24,3.24,0,0,0,2,.82h4.19a3.24,3.24,0,0,1,2,.82l3.94,3.94a3.24,3.24,0,0,0,2,.82h7.75a3.27,3.27,0,0,0,2-.82l0.7-.69a3.2,3.2,0,0,0,.83-2V360.63a3.33,3.33,0,0,0-.81-2L378.79,357a3.14,3.14,0,0,0-2-.84H373a3.06,3.06,0,0,0-2,.85l-1.59,1.71a3.06,3.06,0,0,1-2,.85h-2.17a3.22,3.22,0,0,0-2,.82L352.3,371.58a3.25,3.25,0,0,0-.82,2v3.18a3.19,3.19,0,0,1-.83,2l-3,2.94a3.19,3.19,0,0,0-.83,2v3.64a3.15,3.15,0,0,1-.84,2l-2.66,2.57a3.15,3.15,0,0,0-.84,2v16.74a3.3,3.3,0,0,0,.81,2l1.17,1.2a3.3,3.3,0,0,1,.81,2V425a3.33,3.33,0,0,0,.81,2l2.26,2.35a3.33,3.33,0,0,1,.81,2v1.55a3.23,3.23,0,0,0,.82,2Z"/><polyline class="cls-49" points="369.58 417.63 369.58 409.3 367.87 407.59"/><line class="cls-76" x1="367.26" y1="406.98" x2="365.67" y2="405.39"/><line class="cls-49" x1="365.06" y1="404.78" x2="357.47" y2="397.19"/><path class="cls-77" d="M356.08,397.09a0.63,0.63,0,0,1-.49-0.28l-0.45-.77a0.63,0.63,0,0,1,0-.57l0.45-.77a0.63,0.63,0,0,1,.49-0.28H357a0.63,0.63,0,0,1,.49.28l0.45,0.77a0.63,0.63,0,0,1,0,.57l-0.45.77a0.63,0.63,0,0,1-.49.28h-0.89Z"/><path class="cls-77" d="M346.39,401.36a0.63,0.63,0,0,1-.49-0.28l-0.45-.77a0.63,0.63,0,0,1,0-.57l0.45-.77a0.63,0.63,0,0,1,.49-0.28h0.89a0.63,0.63,0,0,1,.49.28l0.45,0.77a0.63,0.63,0,0,1,0,.57l-0.45.77a0.63,0.63,0,0,1-.49.28h-0.89Z"/><path class="cls-77" d="M348.68,422.64a0.63,0.63,0,0,1-.49-0.28l-0.44-.77a0.64,0.64,0,0,1,0-.57l0.44-.77a0.63,0.63,0,0,1,.49-0.28h0.89a0.63,0.63,0,0,1,.49.28l0.45,0.77a0.63,0.63,0,0,1,0,.57l-0.45.77a0.63,0.63,0,0,1-.49.28h-0.89Z"/><path class="cls-77" d="M362.9,419a0.63,0.63,0,0,1-.49-0.28l-0.45-.77a0.63,0.63,0,0,1,0-.57l0.45-.77a0.63,0.63,0,0,1,.49-0.28h0.89a0.63,0.63,0,0,1,.49.28l0.45,0.77a0.63,0.63,0,0,1,0,.57l-0.45.77a0.63,0.63,0,0,1-.49.28H362.9Z"/><path class="cls-77" d="M375.93,419a0.63,0.63,0,0,1-.49-0.28l-0.44-.77a0.64,0.64,0,0,1,0-.57l0.44-.77a0.63,0.63,0,0,1,.49-0.28h0.89a0.63,0.63,0,0,1,.49.28l0.45,0.77a0.63,0.63,0,0,1,0,.57l-0.45.77a0.63,0.63,0,0,1-.49.28h-0.89Z"/><path class="cls-77" d="M371.54,430.34a0.63,0.63,0,0,1-.49-0.28l-0.45-.77a0.63,0.63,0,0,1,0-.57l0.45-.77a0.63,0.63,0,0,1,.49-0.28h0.89a0.63,0.63,0,0,1,.49.28l0.45,0.77a0.63,0.63,0,0,1,0,.57l-0.45.77a0.63,0.63,0,0,1-.49.28h-0.89Z"/><path class="cls-77" d="M372.92,398.81a0.63,0.63,0,0,1-.49-0.28l-0.45-.77a0.63,0.63,0,0,1,0-.57l0.45-.77a0.63,0.63,0,0,1,.49-0.28h0.89a0.63,0.63,0,0,1,.49.28l0.45,0.77a0.63,0.63,0,0,1,0,.57l-0.45.77a0.63,0.63,0,0,1-.49.28h-0.89Z"/><path class="cls-77" d="M369.68,380.42a0.63,0.63,0,0,1-.49-0.28l-0.45-.77a0.63,0.63,0,0,1,0-.57l0.45-.77a0.63,0.63,0,0,1,.49-0.28h0.89a0.63,0.63,0,0,1,.49.28l0.45,0.77a0.63,0.63,0,0,1,0,.57l-0.45.77a0.63,0.63,0,0,1-.49.28h-0.89Z"/><path class="cls-77" d="M388.49,373.39a0.63,0.63,0,0,1-.49-0.28l-0.45-.77a0.63,0.63,0,0,1,0-.57L388,371a0.63,0.63,0,0,1,.49-0.28h0.89a0.63,0.63,0,0,1,.49.28l0.45,0.77a0.63,0.63,0,0,1,0,.57l-0.45.77a0.63,0.63,0,0,1-.49.28h-0.89Z"/><path class="cls-77" d="M396.67,368.49a0.63,0.63,0,0,1-.49-0.28l-0.44-.77a0.63,0.63,0,0,1,0-.57l0.44-.77a0.63,0.63,0,0,1,.49-0.28h0.89a0.63,0.63,0,0,1,.49.28l0.45,0.77a0.63,0.63,0,0,1,0,.57l-0.45.77a0.63,0.63,0,0,1-.49.28h-0.89Z"/><path class="cls-77" d="M397.42,381.24a0.63,0.63,0,0,1-.49-0.28l-0.45-.77a0.63,0.63,0,0,1,0-.57l0.45-.77a0.63,0.63,0,0,1,.49-0.28h0.89a0.63,0.63,0,0,1,.49.28l0.45,0.77a0.63,0.63,0,0,1,0,.57l-0.45.77a0.63,0.63,0,0,1-.49.28h-0.89Z"/><path class="cls-77" d="M394.32,402.54a0.63,0.63,0,0,1-.49-0.28l-0.44-.77a0.63,0.63,0,0,1,0-.57l0.44-.77a0.63,0.63,0,0,1,.49-0.28h0.89a0.63,0.63,0,0,1,.49.28l0.45,0.77a0.63,0.63,0,0,1,0,.57l-0.45.77a0.63,0.63,0,0,1-.49.28h-0.89Z"/><path class="cls-77" d="M411.39,403.44a0.63,0.63,0,0,1-.49-0.28l-0.45-.77a0.63,0.63,0,0,1,0-.57l0.45-.77a0.63,0.63,0,0,1,.49-0.28h0.89a0.63,0.63,0,0,1,.49.28l0.45,0.77a0.63,0.63,0,0,1,0,.57l-0.45.77a0.63,0.63,0,0,1-.49.28h-0.89Z"/><path class="cls-77" d="M405.63,417.63a0.63,0.63,0,0,1-.49-0.28l-0.45-.77a0.63,0.63,0,0,1,0-.57l0.45-.77a0.63,0.63,0,0,1,.49-0.28h0.89a0.63,0.63,0,0,1,.49.28l0.45,0.77a0.63,0.63,0,0,1,0,.57l-0.45.77a0.63,0.63,0,0,1-.49.28h-0.89Z"/><path class="cls-77" d="M407.84,428.81a0.63,0.63,0,0,1-.49-0.28l-0.44-.77a0.64,0.64,0,0,1,0-.57l0.44-.77a0.63,0.63,0,0,1,.49-0.28h0.89a0.63,0.63,0,0,1,.49.28l0.45,0.77a0.63,0.63,0,0,1,0,.57l-0.45.77a0.63,0.63,0,0,1-.49.28h-0.89Z"/><path class="cls-77" d="M396.67,434.62a0.63,0.63,0,0,1-.49-0.28l-0.44-.77a0.63,0.63,0,0,1,0-.57l0.44-.77a0.63,0.63,0,0,1,.49-0.28h0.89a0.63,0.63,0,0,1,.49.28L398.5,433a0.63,0.63,0,0,1,0,.57l-0.45.77a0.63,0.63,0,0,1-.49.28h-0.89Z"/><path class="cls-77" d="M384.91,399.29a0.63,0.63,0,0,1-.49-0.28l-0.44-.77a0.63,0.63,0,0,1,0-.57l0.44-.77a0.63,0.63,0,0,1,.49-0.28h0.89a0.63,0.63,0,0,1,.49.28l0.45,0.77a0.63,0.63,0,0,1,0,.57l-0.45.77a0.63,0.63,0,0,1-.49.28h-0.89Z"/><path class="cls-77" d="M391.22,415a0.63,0.63,0,0,1-.49-0.28l-0.45-.77a0.63,0.63,0,0,1,0-.57l0.45-.77a0.63,0.63,0,0,1,.49-0.28h0.89a0.63,0.63,0,0,1,.49.28l0.45,0.77a0.63,0.63,0,0,1,0,.57l-0.45.77a0.63,0.63,0,0,1-.49.28h-0.89Z"/><path class="cls-77" d="M362.88,372.74a0.63,0.63,0,0,1-.49-0.28l-0.45-.77a0.63,0.63,0,0,1,0-.57l0.45-.77a0.63,0.63,0,0,1,.49-0.28h0.89a0.63,0.63,0,0,1,.49.28l0.45,0.77a0.63,0.63,0,0,1,0,.57l-0.45.77a0.63,0.63,0,0,1-.49.28h-0.89Z"/><path class="cls-77" d="M374.87,368.51a0.63,0.63,0,0,1-.49-0.28l-0.45-.77a0.63,0.63,0,0,1,0-.57l0.45-.77a0.63,0.63,0,0,1,.49-0.28h0.89a0.63,0.63,0,0,1,.49.28l0.45,0.77a0.63,0.63,0,0,1,0,.57l-0.45.77a0.63,0.63,0,0,1-.49.28h-0.89Z"/><path class="cls-78" d="M406.46,440.64a3.24,3.24,0,0,1-2,.82h-4.18a3.24,3.24,0,0,0-2,.82l-3.94,3.94a3.24,3.24,0,0,1-2,.82h-7.75a3.27,3.27,0,0,1-2-.82l-0.7-.69a3.2,3.2,0,0,1-.83-2V360.63a3.33,3.33,0,0,1,.81-2l1.52-1.58a3.14,3.14,0,0,1,2-.84h3.8a3.07,3.07,0,0,1,2,.85l1.59,1.71a3.07,3.07,0,0,0,2,.85h2.17a3.22,3.22,0,0,1,2,.82l11.07,11.14a3.25,3.25,0,0,1,.82,2v3.18a3.19,3.19,0,0,0,.83,2l3,2.94a3.19,3.19,0,0,1,.83,2v3.64a2.6,2.6,0,0,1-.93,1.85l-3.79,2.8a2.61,2.61,0,0,0-.93,1.85v16.74a1.85,1.85,0,0,0,1.08,1.59l5,2a1.85,1.85,0,0,1,1.08,1.59V425a3.33,3.33,0,0,1-.81,2l-2.26,2.35a3.33,3.33,0,0,0-.81,2v1.55a3.24,3.24,0,0,1-.82,2Z"/><path class="cls-40" d="M355.78,440.64a3.24,3.24,0,0,0,2,.82h4.19a3.24,3.24,0,0,1,2,.82l3.94,3.94a3.24,3.24,0,0,0,2,.82h7.75a3.27,3.27,0,0,0,2-.82l0.7-.69a3.2,3.2,0,0,0,.83-2V360.63a3.33,3.33,0,0,0-.81-2L378.79,357a3.14,3.14,0,0,0-2-.84H373a3.06,3.06,0,0,0-2,.85l-1.59,1.71a3.06,3.06,0,0,1-2,.85h-2.17a3.22,3.22,0,0,0-2,.82L352.3,371.58a3.25,3.25,0,0,0-.82,2v3.18a3.19,3.19,0,0,1-.83,2l-3,2.94a3.19,3.19,0,0,0-.83,2v3.64a2.6,2.6,0,0,0,.93,1.85l3.79,2.8a2.6,2.6,0,0,1,.93,1.85v16.74a1.85,1.85,0,0,1-1.08,1.59l-5.05,2a1.85,1.85,0,0,0-1.08,1.59V425a3.33,3.33,0,0,0,.81,2l2.26,2.35a3.33,3.33,0,0,1,.81,2v1.55a3.23,3.23,0,0,0,.82,2Z"/><g class="cls-2"><path class="cls-11" d="M550.71,316.48l5.34-4.31a1.86,1.86,0,0,0,.1-2.88l-5.55-5.19"/></g><g class="cls-2"><path class="cls-11" d="M377.74,316.48l5.34-4.31a1.86,1.86,0,0,0,.11-2.88l-5.55-5.19"/></g><g class="cls-2"><path class="cls-11" d="M306.49,358.47l-1.24-6.75a1.86,1.86,0,0,0-2.48-1.47l-7.21,2.4"/></g><g class="cls-2"><path class="cls-4" d="M215.24,592.12l5.34-4.31a1.86,1.86,0,0,0,.11-2.88l-5.55-5.19"/></g><path class="cls-79" d="M864.1,398.74a1.19,1.19,0,0,0-.93.54l-1.38,2.39a1.19,1.19,0,0,0,0,1.07l1.38,2.39a1.19,1.19,0,0,0,.93.54h2.76a1.19,1.19,0,0,0,.93-0.54l1.38-2.39a1.19,1.19,0,0,0,0-1.07l-1.38-2.39a1.19,1.19,0,0,0-.93-0.54H864.1Z"/><path class="cls-79" d="M776.7,516.3a1.19,1.19,0,0,0-.93.54l-1.38,2.39a1.19,1.19,0,0,0,0,1.07l1.38,2.39a1.19,1.19,0,0,0,.93.54h2.76a1.19,1.19,0,0,0,.93-0.54l1.38-2.39a1.19,1.19,0,0,0,0-1.07l-1.38-2.39a1.19,1.19,0,0,0-.93-0.54H776.7Z"/><path class="cls-79" d="M776.7,281.21a1.19,1.19,0,0,0-.93.54l-1.38,2.39a1.19,1.19,0,0,0,0,1.07l1.38,2.39a1.19,1.19,0,0,0,.93.54h2.76a1.19,1.19,0,0,0,.93-0.54l1.38-2.39a1.19,1.19,0,0,0,0-1.07l-1.38-2.39a1.19,1.19,0,0,0-.93-0.54H776.7Z"/><path class="cls-79" d="M863.7,162.53a1.19,1.19,0,0,0-.93.54l-1.38,2.39a1.19,1.19,0,0,0,0,1.07l1.38,2.39a1.19,1.19,0,0,0,.93.54h2.76a1.19,1.19,0,0,0,.93-0.54l1.38-2.39a1.19,1.19,0,0,0,0-1.07l-1.38-2.39a1.19,1.19,0,0,0-.93-0.54H863.7Z"/><path class="cls-79" d="M864.1,635a1.19,1.19,0,0,0-.93.54l-1.38,2.39a1.19,1.19,0,0,0,0,1.07l1.38,2.39a1.19,1.19,0,0,0,.93.54h2.76a1.19,1.19,0,0,0,.93-0.54l1.38-2.39a1.19,1.19,0,0,0,0-1.07l-1.38-2.39a1.19,1.19,0,0,0-.93-0.54H864.1Z"/><text class="cls-80" transform="translate(622.85 286.49)">S<tspan x="5.69" y="0">A</tspan><tspan x="11.8" y="0">UN</tspan><tspan x="24.59" y="0">A</tspan></text><g class="cls-81"><g class="cls-82"><path class="cls-83" d="M590.35,345.85a6.57,6.57,0,0,1-5.13-3l-17-29.45a6.57,6.57,0,0,1,0-5.92l17-29.45a6.57,6.57,0,0,1,5.13-3h34a6.57,6.57,0,0,1,5.13,3l17,29.45a6.57,6.57,0,0,1,0,5.92l-17,29.45a6.57,6.57,0,0,1-5.13,3h-34Z"/></g><g class="cls-84"><path class="cls-83" d="M594,338.16a5.14,5.14,0,0,1-4-2.32L576.73,312.8a5.14,5.14,0,0,1,0-4.63L590,285.11a5.14,5.14,0,0,1,4-2.32h26.62a5.14,5.14,0,0,1,4,2.32L638,308.16a5.14,5.14,0,0,1,0,4.63l-13.31,23.05a5.14,5.14,0,0,1-4,2.32H594Z"/></g><g class="cls-85"><path class="cls-83" d="M597.74,330.47a3.71,3.71,0,0,1-2.9-1.67l-9.61-16.65a3.71,3.71,0,0,1,0-3.35l9.61-16.65a3.71,3.71,0,0,1,2.9-1.67H617a3.71,3.71,0,0,1,2.9,1.67l9.61,16.65a3.71,3.71,0,0,1,0,3.35l-9.61,16.65a3.71,3.71,0,0,1-2.9,1.67H597.74Z"/></g></g><g class="cls-8"><path class="cls-63" d="M601.38,322.47a2.31,2.31,0,0,1-1.8-1l-6-10.35a2.31,2.31,0,0,1,0-2.08l6-10.35a2.31,2.31,0,0,1,1.8-1h11.95a2.31,2.31,0,0,1,1.8,1l6,10.35a2.31,2.31,0,0,1,0,2.08l-6,10.35a2.31,2.31,0,0,1-1.8,1H601.38Z"/></g><path class="cls-7" d="M605.58,314.49a1.52,1.52,0,0,1-1.19-.69l-1.77-3.07a1.53,1.53,0,0,1,0-1.37l1.77-3.06a1.52,1.52,0,0,1,1.19-.69h3.54a1.52,1.52,0,0,1,1.19.69l1.77,3.06a1.53,1.53,0,0,1,0,1.37l-1.77,3.07a1.52,1.52,0,0,1-1.19.69h-3.54Z"/><g class="cls-2"><path class="cls-3" d="M215.24,212.54l5.34,4.31a1.86,1.86,0,0,1,.11,2.88l-5.55,5.19"/></g><g class="cls-2"><path class="cls-11" d="M295.45,266.78l7.16,2.53a1.86,1.86,0,0,0,2.51-1.42l1.37-6.73"/></g><g class="cls-2"><path class="cls-11" d="M269.2,213.65l3.78,5.73a1.86,1.86,0,0,1-.78,2.78l-6.87,3.26"/></g><g class="cls-2"><path class="cls-4" d="M269.2,592.08l3.78-5.73a1.86,1.86,0,0,0-.78-2.78l-6.87-3.26"/></g><path class="cls-86" d="M264.68,218.87H177.45a17.06,17.06,0,0,1-13.32-7.69l-22-38.07"/><path class="cls-87" d="M142.18,264.61l21.95-38a17.06,17.06,0,0,1,13.32-7.69H265.8a17.06,17.06,0,0,1,13.32,7.69l48.61,84.2"/><path class="cls-88" d="M328.7,491.91L279.08,579a16.93,16.93,0,0,1-13.28,7.71H177.45A17.06,17.06,0,0,1,164.13,579l-48.61-84.2"/><path class="cls-4" d="M115.52,678.6l48.61-84.2a17.06,17.06,0,0,1,13.32-7.69h77.23"/><path class="cls-89" d="M53.07,218.87h3.75c2.06,0,5.75-3.46,8.19-7.69l22-38.07"/><path class="cls-90" d="M87,264.61L65,226.59c-2.44-4.23-6.13-7.69-8.19-7.69H53.07"/><path class="cls-88" d="M53.07,586.68h3.75c2.06,0,5.75-3.46,8.19-7.69l48.61-84.2"/><path class="cls-4" d="M113.62,678.6L65,594.4c-2.44-4.23-6.13-7.69-8.19-7.69H53.07"/><line class="cls-4" x1="3.07" y1="586.71" x2="13.07" y2="586.71"/><line class="cls-91" x1="19.74" y1="586.71" x2="34.74" y2="586.71"/><line class="cls-4" x1="38.07" y1="586.71" x2="48.07" y2="586.71"/><line class="cls-11" x1="3.07" y1="218.67" x2="13.07" y2="218.67"/><line class="cls-92" x1="19.74" y1="218.67" x2="34.74" y2="218.67"/><line class="cls-11" x1="38.07" y1="218.67" x2="48.07" y2="218.67"/><text class="cls-93" transform="translate(95.56 590.17)">B<tspan x="7.83" y="0">A</tspan><tspan x="15" y="0">T</tspan><tspan x="21.84" y="0">CH</tspan></text><text class="cls-94" transform="translate(82.95 224.34)">REA<tspan x="23.89" y="0">L</tspan><tspan x="30.28" y="0">-</tspan><tspan x="35.3" y="0">TIME</tspan></text><circle class="cls-95" cx="114.65" cy="127.07" r="53.05"/><path class="cls-17" d="M137.83,123.62V97.16a4.62,4.62,0,0,0-4.61-4.61H92.74a4.63,4.63,0,0,0-4.62,4.61V126.8a4.63,4.63,0,0,0,4.62,4.61H117.3"/><line class="cls-17" x1="104.34" y1="97.85" x2="137.2" y2="97.85"/><line class="cls-18" x1="93.43" y1="110.28" x2="119.84" y2="110.28"/><line class="cls-18" x1="93.43" y1="107.63" x2="125.15" y2="107.63"/><path class="cls-18" d="M123.26,121.56a11.94,11.94,0,1,0,16.3,16.32"/><path class="cls-96" d="M117.3,131.9A11.94,11.94,0,1,0,129.23,120,11.93,11.93,0,0,0,117.3,131.9Z"/><polyline class="cls-18" points="133.22 132.18 129.24 132.18 129.24 123.95"/><polyline class="cls-18" points="93.43 123.18 98.42 120.04 102.97 121.94 113.47 115.43"/><text class="cls-97" transform="translate(93.52 155.45)">REA<tspan x="15.93" y="0">L</tspan><tspan x="20.18" y="0">-</tspan><tspan x="23.54" y="0">TIME</tspan><tspan x="-6.18" y="8">D</tspan><tspan x="-0.67" y="8">A</tspan><tspan x="4.8" y="8">SHB</tspan><tspan x="21.28" y="8">O</tspan><tspan x="26.73" y="8">ARDS</tspan></text><circle class="cls-95" cx="114.65" cy="310.33" r="53.05"/><path class="cls-17" d="M100.72,306.84H92.56a2.46,2.46,0,0,1-2.45-2.45V294.7a2.46,2.46,0,0,1,2.45-2.45h8.16"/><path class="cls-98" d="M120.59,311.48H104.73a4,4,0,0,1-4-4V291.62a4,4,0,0,1,4-4h15.86a4,4,0,0,1,4,4v15.85"/><line class="cls-18" x1="124.6" y1="291.62" x2="124.6" y2="302.49"/><path class="cls-18" d="M104.73,311.48a4,4,0,0,1-4-4V291.62a4,4,0,0,1,4-4h15.86"/><path class="cls-17" d="M117.32,320.76h-9.51a2.46,2.46,0,0,1-2.45-2.45v-9.69a2.46,2.46,0,0,1,2.45-2.45h10.37"/><path class="cls-18" d="M121.27,303.79a11.94,11.94,0,1,0,16.3,16.32"/><path class="cls-99" d="M115.31,314.13a11.94,11.94,0,1,0,11.93-11.93A11.94,11.94,0,0,0,115.31,314.13Z"/><polyline class="cls-18" points="131.23 314.41 127.25 314.41 127.25 306.17"/><rect class="cls-17" x="120.62" y="283.63" width="7.96" height="7.96" rx="2.45" ry="2.45"/><rect class="cls-17" x="96.74" y="277" width="7.96" height="7.96" rx="2.45" ry="2.45"/><text class="cls-97" transform="translate(93.52 338.69)">REA<tspan x="15.93" y="0">L</tspan><tspan x="20.18" y="0">-</tspan><tspan x="23.54" y="0">TIME</tspan><tspan x="10.5" y="8">APPS</tspan></text><circle class="cls-100" cx="114.65" cy="495.49" r="53.05"/><text class="cls-101" transform="translate(91.26 524.9)">PREDICTIVE<tspan x="2.91" y="8">MODELING</tspan></text><line class="cls-18" x1="126.06" y1="466.25" x2="126.06" y2="466.25"/><line class="cls-102" x1="124.8" y1="468.45" x2="122.89" y2="471.74"/><line class="cls-103" x1="122.26" y1="472.84" x2="115.28" y2="484.92"/><line class="cls-18" x1="114.65" y1="486.02" x2="114.65" y2="486.02"/><path class="cls-104" d="M105.5,508.43a7.89,7.89,0,0,1-6.16-3.55L90.18,489a7.89,7.89,0,0,1,0-7.11L99.34,466a7.89,7.89,0,0,1,6.16-3.55h18.32A7.89,7.89,0,0,1,130,466l9.15,15.86a7.89,7.89,0,0,1,0,7.11L130,504.87a7.89,7.89,0,0,1-6.16,3.56H105.5Z"/><line class="cls-18" x1="114.65" y1="485.46" x2="114.65" y2="485.46"/><line class="cls-105" x1="117.21" y1="485.46" x2="121.04" y2="485.46"/><line class="cls-106" x1="122.32" y1="485.46" x2="136.37" y2="485.46"/><line class="cls-18" x1="137.65" y1="485.46" x2="137.65" y2="485.46"/><line class="cls-17" x1="101.9" y1="464.13" x2="114.65" y2="486.02"/><line class="cls-17" x1="102.47" y1="506.93" x2="114.65" y2="486.02"/><line class="cls-17" x1="89.45" y1="486.02" x2="114.65" y2="486.02"/><line class="cls-107" x1="125.65" y1="505.19" x2="121.88" y2="498.61"/><line class="cls-17" x1="120.93" y1="496.96" x2="114.65" y2="486.02"/><path class="cls-17" d="M114.65,508.43h-9.16a7.89,7.89,0,0,1-6.16-3.55L90.18,489a7.89,7.89,0,0,1,0-7.11L99.34,466a7.89,7.89,0,0,1,6.16-3.56h13.81"/><circle class="cls-100" cx="114.65" cy="677.85" r="53.05"/><text class="cls-101" transform="translate(104.61 703.27)">D<tspan x="5.51" y="0">AT</tspan><tspan x="14.74" y="0">A</tspan><tspan x="-17.22" y="8">EXP</tspan><tspan x="-1.65" y="8">L</tspan><tspan x="2.92" y="8">OR</tspan><tspan x="13.88" y="8">A</tspan><tspan x="18.84" y="8">TION</tspan></text><path class="cls-17" d="M105.57,683.67v-17a2.46,2.46,0,0,1,2.45-2.45h1.73a2.46,2.46,0,0,1,2.45,2.45v17"/><path class="cls-18" d="M96.28,679.69V660a2.46,2.46,0,0,1,2.45-2.45h1.73a2.46,2.46,0,0,1,2.45,2.45v22.31"/><path class="cls-108" d="M121.48,679.69v-25a2.46,2.46,0,0,0-2.45-2.45H117.3a2.46,2.46,0,0,0-2.45,2.45v27.61"/><circle class="cls-17" cx="108.88" cy="663.21" r="20.76" transform="translate(-437.06 271.23) rotate(-45)"/><line class="cls-17" x1="123.56" y1="677.89" x2="141.18" y2="695.5"/></g></g></svg>