<svg id="Layer_2" data-name="Layer 2" xmlns="http://www.w3.org/2000/svg" viewBox="0 0 90 90"><defs><style>.cls-1,.cls-2,.cls-3{fill:none;stroke-linecap:round;stroke-linejoin:round;stroke-width:1.5px;}.cls-1,.cls-2{stroke:#5b0098;}.cls-2{stroke-dasharray:15 9.28 0 3.98 3.98 13.26;}.cls-3{stroke:#bb73fc;}</style></defs><title>Snowplow_Website-Services_Icons</title><path class="cls-1" d="M20.15,8.68a44,44,0,0,1,55,4.31"/><path class="cls-1" d="M89,45A44,44,0,1,1,6,24.59"/><path class="cls-2" d="M61.24,70.45A30.19,30.19,0,1,1,65.71,23"/><path class="cls-1" d="M75.19,45a30.18,30.18,0,0,1-1.39,9.09"/><path class="cls-1" d="M29.16,45a15.84,15.84,0,0,1,26.7-11.52"/><path class="cls-1" d="M60.84,45A15.84,15.84,0,0,1,45,60.84"/><polyline class="cls-1" points="45 60.84 45 89 45 1 45 60.84"/><path class="cls-1" d="M89,45h0Z"/><path class="cls-2" d="M76.11,13.89L45.56,44.44Z"/><path class="cls-3" d="M9.7,19a1,1,0,0,1-.78-0.45L7,15.26a1,1,0,0,1,0-.9L8.91,11a1,1,0,0,1,.78-0.45h3.85a1,1,0,0,1,.78.45l1.92,3.33a1,1,0,0,1,0,.9l-1.92,3.33a1,1,0,0,1-.78.45H9.7Z"/><path class="cls-3" d="M67.23,66.62a0.71,0.71,0,0,1-.56-0.32L65.3,63.92a0.71,0.71,0,0,1,0-.64l1.37-2.37a0.71,0.71,0,0,1,.56-0.32H70a0.71,0.71,0,0,1,.56.32l1.37,2.37a0.71,0.71,0,0,1,0,.64L70.52,66.3a0.71,0.71,0,0,1-.56.32H67.23Z"/><path class="cls-3" d="M32,59.38a1,1,0,0,1-.78-0.45L29.27,55.6a1,1,0,0,1,0-.9l1.92-3.33A1,1,0,0,1,32,50.91h3.85a1,1,0,0,1,.78.45l1.92,3.33a1,1,0,0,1,0,.9l-1.92,3.33a1,1,0,0,1-.78.45H32Z"/><line class="cls-3" x1="21.15" y1="63.6" x2="21.15" y2="63.6"/></svg>