<svg id="Layer_1" data-name="Layer 1" xmlns="http://www.w3.org/2000/svg" xmlns:xlink="http://www.w3.org/1999/xlink" viewBox="0 0 860 400"><defs><style>.cls-1{fill:#9ba0aa;}.cls-2,.cls-4,.cls-5{fill:none;}.cls-2{stroke:#f5f7fa;stroke-miterlimit:10;}.cls-3{fill:#6738b8;}.cls-4{stroke:#eadbed;}.cls-4,.cls-5{stroke-linecap:round;stroke-linejoin:round;}.cls-5{stroke-width:2.65px;stroke:url(#linear-gradient);}</style><linearGradient id="linear-gradient" x1="104.86" y1="209.59" x2="855.51" y2="209.59" gradientUnits="userSpaceOnUse"><stop offset="0" stop-color="#6738b8"/><stop offset="0.5" stop-color="#974ba7"/><stop offset="1" stop-color="#f88298"/></linearGradient></defs><title>Snowplow_Website-Infographics_Cases_JustWatch_Img4</title><path class="cls-1" d="M84.33,378.66a2,2,0,0,1-.75-1.58,0.22,0.22,0,0,1,.06-0.16,0.2,0.2,0,0,1,.15-0.07h0.51a0.23,0.23,0,0,1,.25.23,1.24,1.24,0,0,0,.5,1,1.86,1.86,0,0,0,1.1.31,1.44,1.44,0,0,0,1.17-.5,2,2,0,0,0,.42-1.35v-3.58H84.17a0.22,0.22,0,0,1-.23-0.23v-0.38a0.22,0.22,0,0,1,.23-0.23h4.29a0.22,0.22,0,0,1,.24.24v4.2a3,3,0,0,1-.3,1.4,2.18,2.18,0,0,1-.88.93,2.72,2.72,0,0,1-1.37.33A2.93,2.93,0,0,1,84.33,378.66Z"/><path class="cls-1" d="M91.25,379a1.69,1.69,0,0,1-.66-0.54,1.29,1.29,0,0,1-.25-0.77,1.31,1.31,0,0,1,.54-1.08,3.12,3.12,0,0,1,1.47-.56l1.5-.21v-0.29a1,1,0,0,0-1.19-1,1.32,1.32,0,0,0-.74.19,1.18,1.18,0,0,0-.41.43,0.32,0.32,0,0,1-.08.13,0.2,0.2,0,0,1-.12,0H90.92a0.22,0.22,0,0,1-.22-0.22,1,1,0,0,1,.21-0.54,1.75,1.75,0,0,1,.67-0.53,2.45,2.45,0,0,1,1.1-.22,2.11,2.11,0,0,1,1.6.52,1.83,1.83,0,0,1,.49,1.3v3.25a0.22,0.22,0,0,1-.23.23H94.09a0.21,0.21,0,0,1-.16-0.07,0.23,0.23,0,0,1-.06-0.17v-0.44a1.7,1.7,0,0,1-.64.55,2.32,2.32,0,0,1-1.08.22A2.06,2.06,0,0,1,91.25,379Zm2.18-1a1.72,1.72,0,0,0,.42-1.25V376.5l-1.17.17a2.72,2.72,0,0,0-1.09.34,0.7,0.7,0,0,0-.37.6,0.71,0.71,0,0,0,.33.63,1.42,1.42,0,0,0,.79.22A1.45,1.45,0,0,0,93.43,378Z"/><path class="cls-1" d="M96.78,379a0.22,0.22,0,0,1-.06-0.17v-4.74a0.22,0.22,0,0,1,.23-0.23h0.43a0.21,0.21,0,0,1,.23.23v0.44a2.13,2.13,0,0,1,.7-0.57,2.16,2.16,0,0,1,1-.2,1.86,1.86,0,0,1,1.49.62,2.4,2.4,0,0,1,.53,1.63v2.83a0.22,0.22,0,0,1-.23.23h-0.46a0.22,0.22,0,0,1-.23-0.23v-2.77A1.64,1.64,0,0,0,100,375a1.26,1.26,0,0,0-1-.4,1.33,1.33,0,0,0-1,.4,1.56,1.56,0,0,0-.38,1.12v2.77a0.22,0.22,0,0,1-.23.23H96.94A0.22,0.22,0,0,1,96.78,379Z"/><path class="cls-1" d="M103.72,378.58a2.45,2.45,0,0,1-.52-1.64v-2.82a0.22,0.22,0,0,1,.06-0.17,0.22,0.22,0,0,1,.17-0.07h0.46a0.22,0.22,0,0,1,.17.07,0.23,0.23,0,0,1,.07.17v2.77a1.26,1.26,0,0,0,1.32,1.52,1.32,1.32,0,0,0,1-.41,1.58,1.58,0,0,0,.38-1.12v-2.77a0.22,0.22,0,0,1,.23-0.23h0.46a0.22,0.22,0,0,1,.23.23v4.74a0.22,0.22,0,0,1-.23.23h-0.43a0.22,0.22,0,0,1-.23-0.23v-0.45a1.92,1.92,0,0,1-.68.58,2.21,2.21,0,0,1-1,.19A1.82,1.82,0,0,1,103.72,378.58Z"/><path class="cls-1" d="M110.29,379a1.7,1.7,0,0,1-.66-0.54,1.3,1.3,0,0,1-.25-0.77,1.31,1.31,0,0,1,.54-1.08,3.12,3.12,0,0,1,1.47-.56l1.5-.21v-0.29a1,1,0,0,0-1.19-1,1.32,1.32,0,0,0-.74.19,1.18,1.18,0,0,0-.41.43,0.32,0.32,0,0,1-.08.13,0.2,0.2,0,0,1-.12,0H110a0.22,0.22,0,0,1-.22-0.22,1,1,0,0,1,.21-0.54,1.75,1.75,0,0,1,.67-0.53,2.45,2.45,0,0,1,1.1-.22,2.12,2.12,0,0,1,1.61.52,1.83,1.83,0,0,1,.48,1.3v3.25a0.22,0.22,0,0,1-.23.23h-0.44A0.2,0.2,0,0,1,113,379a0.23,0.23,0,0,1-.06-0.17v-0.44a1.69,1.69,0,0,1-.64.55,2.33,2.33,0,0,1-1.08.22A2.06,2.06,0,0,1,110.29,379Zm2.19-1a1.72,1.72,0,0,0,.42-1.25V376.5l-1.17.17a2.72,2.72,0,0,0-1.09.34,0.71,0.71,0,0,0,0,1.23,1.41,1.41,0,0,0,.79.22A1.45,1.45,0,0,0,112.47,378Z"/><path class="cls-1" d="M115.82,379a0.22,0.22,0,0,1-.07-0.17v-4.73a0.24,0.24,0,0,1,.07-0.17,0.21,0.21,0,0,1,.17-0.07h0.42a0.23,0.23,0,0,1,.17.07,0.24,0.24,0,0,1,.07.17v0.44a1.49,1.49,0,0,1,1.39-.68h0.39a0.21,0.21,0,0,1,.23.23v0.37a0.24,0.24,0,0,1-.06.17,0.22,0.22,0,0,1-.17.06h-0.57a1.16,1.16,0,0,0-.87.32,1.19,1.19,0,0,0-.32.87v2.95a0.22,0.22,0,0,1-.07.17,0.24,0.24,0,0,1-.17.07H116A0.22,0.22,0,0,1,115.82,379Z"/><path class="cls-1" d="M120.77,380.93a0.19,0.19,0,0,1-.06-0.14,1,1,0,0,1,0-.18l0.78-1.83-1.91-4.51a0.47,0.47,0,0,1-.06-0.17,0.24,0.24,0,0,1,.07-0.15,0.19,0.19,0,0,1,.14-0.06h0.46a0.26,0.26,0,0,1,.24.16l1.54,3.68,1.58-3.68a0.26,0.26,0,0,1,.24-0.16h0.45a0.19,0.19,0,0,1,.14.06,0.19,0.19,0,0,1,.06.14,0.46,0.46,0,0,1,0,.18l-2.83,6.56a0.45,0.45,0,0,1-.1.12,0.24,0.24,0,0,1-.15,0h-0.44A0.2,0.2,0,0,1,120.77,380.93Z"/><path class="cls-1" d="M128.5,379a0.22,0.22,0,0,1-.06-0.17v-0.3a0.58,0.58,0,0,1,.25-0.44l2.18-2.17a6.2,6.2,0,0,0,1-1,1.46,1.46,0,0,0,.28-0.85,1.26,1.26,0,0,0-.33-0.93,1.5,1.5,0,0,0-1.91,0,1.59,1.59,0,0,0-.43.94,0.27,0.27,0,0,1-.1.17,0.27,0.27,0,0,1-.16.06h-0.48a0.2,0.2,0,0,1-.15-0.06,0.19,0.19,0,0,1-.06-0.14,2.34,2.34,0,0,1,.29-1,2.1,2.1,0,0,1,.79-0.81,2.39,2.39,0,0,1,1.26-.32,2.24,2.24,0,0,1,1.69.58,2.06,2.06,0,0,1,.56,1.49,2.15,2.15,0,0,1-.3,1.13,4.64,4.64,0,0,1-1,1.07l-2,2H133a0.21,0.21,0,0,1,.23.23v0.38a0.22,0.22,0,0,1-.23.23h-4.38A0.22,0.22,0,0,1,128.5,379Z"/><path class="cls-1" d="M135.56,378.44a3.28,3.28,0,0,1-.63-2v-1.75a3.18,3.18,0,0,1,.63-2,2.74,2.74,0,0,1,3.78,0,3.17,3.17,0,0,1,.63,2q0,0.28,0,.89t0,0.86a3.28,3.28,0,0,1-.63,2A2.74,2.74,0,0,1,135.56,378.44Zm3-.58a2.4,2.4,0,0,0,.41-1.44c0-.19,0-0.47,0-0.83s0-.64,0-0.82a2.39,2.39,0,0,0-.42-1.43,1.55,1.55,0,0,0-2.3,0,2.42,2.42,0,0,0-.41,1.43v1.65a2.42,2.42,0,0,0,.41,1.44A1.56,1.56,0,0,0,138.6,377.85Z"/><path class="cls-1" d="M143.71,379a0.23,0.23,0,0,1-.06-0.17v-5.64L142,374.51a0.23,0.23,0,0,1-.15.06,0.22,0.22,0,0,1-.17-0.1l-0.24-.31a0.24,0.24,0,0,1,0-.14,0.21,0.21,0,0,1,.1-0.18l2.17-1.68a0.47,0.47,0,0,1,.26-0.07h0.47a0.22,0.22,0,0,1,.23.23v6.54a0.22,0.22,0,0,1-.23.23h-0.49A0.21,0.21,0,0,1,143.71,379Z"/><path class="cls-1" d="M147.47,378.92a2.08,2.08,0,0,1-.84-0.71,1.78,1.78,0,0,1-.31-0.93v0a0.16,0.16,0,0,1,.06-0.13,0.21,0.21,0,0,1,.14,0H147a0.26,0.26,0,0,1,.27.22,1.35,1.35,0,0,0,.55.8,1.67,1.67,0,0,0,.94.27,1.6,1.6,0,0,0,1.13-.42,1.48,1.48,0,0,0,.45-1.15,1.34,1.34,0,0,0-.45-1.06,1.65,1.65,0,0,0-1.13-.4,1.56,1.56,0,0,0-.58.09,2.12,2.12,0,0,0-.45.26l-0.21.14a0.39,0.39,0,0,1-.19,0h-0.48a0.23,0.23,0,0,1-.16-0.06,0.18,0.18,0,0,1-.06-0.16l0.31-3.33a0.24,0.24,0,0,1,.25-0.25h3.46a0.21,0.21,0,0,1,.23.23v0.37a0.21,0.21,0,0,1-.06.16,0.24,0.24,0,0,1-.17.06h-2.88l-0.18,2a2.19,2.19,0,0,1,1.29-.34,2.78,2.78,0,0,1,1.22.26,2.1,2.1,0,0,1,.88.78,2.2,2.2,0,0,1,.33,1.21,2.41,2.41,0,0,1-.33,1.27,2.08,2.08,0,0,1-.9.81,3,3,0,0,1-1.31.27A2.93,2.93,0,0,1,147.47,378.92Z"/><path class="cls-1" d="M59.63,354.44a3.28,3.28,0,0,1-.63-2v-1.75a3.17,3.17,0,0,1,.63-2,2.74,2.74,0,0,1,3.78,0,3.18,3.18,0,0,1,.63,2q0,0.28,0,.89t0,0.86a3.28,3.28,0,0,1-.63,2A2.74,2.74,0,0,1,59.63,354.44Zm3-.58a2.42,2.42,0,0,0,.41-1.44c0-.19,0-0.47,0-0.83s0-.64,0-0.82a2.4,2.4,0,0,0-.42-1.43,1.55,1.55,0,0,0-2.31,0,2.42,2.42,0,0,0-.41,1.43v1.65a2.41,2.41,0,0,0,.41,1.44A1.56,1.56,0,0,0,62.67,353.85Z"/><path class="cls-1" d="M13.48,286.67a2.08,2.08,0,0,1-.84-0.71,1.79,1.79,0,0,1-.31-0.93v0a0.16,0.16,0,0,1,.06-0.13,0.21,0.21,0,0,1,.14,0H13a0.26,0.26,0,0,1,.27.22,1.35,1.35,0,0,0,.56.8,1.67,1.67,0,0,0,.93.27,1.6,1.6,0,0,0,1.13-.42,1.48,1.48,0,0,0,.45-1.15,1.34,1.34,0,0,0-.45-1.06,1.65,1.65,0,0,0-1.13-.4,1.56,1.56,0,0,0-.58.09,2.14,2.14,0,0,0-.45.26l-0.21.14a0.39,0.39,0,0,1-.18,0H12.87a0.23,0.23,0,0,1-.16-0.06,0.18,0.18,0,0,1-.06-0.16L13,280.09a0.24,0.24,0,0,1,.25-0.25h3.46a0.23,0.23,0,0,1,.17.06,0.23,0.23,0,0,1,.06.17v0.37a0.2,0.2,0,0,1-.07.16,0.23,0.23,0,0,1-.17.06H13.79l-0.18,2a2.19,2.19,0,0,1,1.29-.34,2.77,2.77,0,0,1,1.22.26,2.1,2.1,0,0,1,.88.78,2.2,2.2,0,0,1,.33,1.21,2.41,2.41,0,0,1-.33,1.27,2.08,2.08,0,0,1-.9.81,3,3,0,0,1-1.32.27A2.92,2.92,0,0,1,13.48,286.67Z"/><path class="cls-1" d="M22.52,286.19a3.28,3.28,0,0,1-.63-2v-1.75a3.17,3.17,0,0,1,.63-2,2.27,2.27,0,0,1,1.88-.75,2.28,2.28,0,0,1,1.9.75,3.18,3.18,0,0,1,.63,2q0,0.28,0,.89t0,0.86a3.28,3.28,0,0,1-.63,2,2.27,2.27,0,0,1-1.9.75A2.25,2.25,0,0,1,22.52,286.19Zm3-.58a2.42,2.42,0,0,0,.41-1.44c0-.19,0-0.47,0-0.83s0-.64,0-0.82a2.4,2.4,0,0,0-.42-1.43,1.55,1.55,0,0,0-2.31,0,2.42,2.42,0,0,0-.41,1.43v1.65a2.41,2.41,0,0,0,.41,1.44A1.56,1.56,0,0,0,25.57,285.6Z"/><path class="cls-1" d="M29.35,286.19a3.28,3.28,0,0,1-.63-2v-1.75a3.17,3.17,0,0,1,.63-2,2.27,2.27,0,0,1,1.88-.75,2.28,2.28,0,0,1,1.9.75,3.18,3.18,0,0,1,.63,2q0,0.28,0,.89t0,0.86a3.28,3.28,0,0,1-.63,2,2.27,2.27,0,0,1-1.9.75A2.25,2.25,0,0,1,29.35,286.19Zm3-.58a2.42,2.42,0,0,0,.41-1.44c0-.19,0-0.47,0-0.83s0-.64,0-0.82a2.4,2.4,0,0,0-.42-1.43,1.55,1.55,0,0,0-2.31,0,2.42,2.42,0,0,0-.41,1.43v1.65a2.41,2.41,0,0,0,.41,1.44A1.56,1.56,0,0,0,32.4,285.6Z"/><path class="cls-1" d="M36.18,286.19a3.28,3.28,0,0,1-.63-2v-1.75a3.18,3.18,0,0,1,.63-2,2.74,2.74,0,0,1,3.78,0,3.17,3.17,0,0,1,.63,2q0,0.28,0,.89t0,0.86a3.28,3.28,0,0,1-.63,2,2.26,2.26,0,0,1-1.89.75A2.25,2.25,0,0,1,36.18,286.19Zm3-.58a2.4,2.4,0,0,0,.41-1.44c0-.19,0-0.47,0-0.83s0-.64,0-0.82a2.39,2.39,0,0,0-.42-1.43,1.55,1.55,0,0,0-2.3,0,2.42,2.42,0,0,0-.41,1.43v1.65a2.42,2.42,0,0,0,.41,1.44A1.56,1.56,0,0,0,39.22,285.6Z"/><path class="cls-1" d="M46,286.19a3.28,3.28,0,0,1-.63-2v-1.75a3.18,3.18,0,0,1,.63-2,2.74,2.74,0,0,1,3.78,0,3.17,3.17,0,0,1,.63,2q0,0.28,0,.89t0,0.86a3.28,3.28,0,0,1-.63,2A2.74,2.74,0,0,1,46,286.19Zm3-.58a2.4,2.4,0,0,0,.41-1.44c0-.19,0-0.47,0-0.83s0-.64,0-0.82a2.39,2.39,0,0,0-.42-1.43,1.55,1.55,0,0,0-2.3,0,2.42,2.42,0,0,0-.41,1.43v1.65a2.42,2.42,0,0,0,.41,1.44A1.56,1.56,0,0,0,49,285.6Z"/><path class="cls-1" d="M52.8,286.19a3.28,3.28,0,0,1-.63-2v-1.75a3.18,3.18,0,0,1,.63-2,2.74,2.74,0,0,1,3.78,0,3.17,3.17,0,0,1,.63,2q0,0.28,0,.89t0,0.86a3.28,3.28,0,0,1-.63,2A2.74,2.74,0,0,1,52.8,286.19Zm3-.58a2.4,2.4,0,0,0,.41-1.44c0-.19,0-0.47,0-0.83s0-.64,0-0.82a2.39,2.39,0,0,0-.42-1.43,1.55,1.55,0,0,0-2.3,0,2.42,2.42,0,0,0-.41,1.43v1.65a2.42,2.42,0,0,0,.41,1.44A1.56,1.56,0,0,0,55.84,285.6Z"/><path class="cls-1" d="M59.63,286.19a3.28,3.28,0,0,1-.63-2v-1.75a3.17,3.17,0,0,1,.63-2,2.74,2.74,0,0,1,3.78,0,3.18,3.18,0,0,1,.63,2q0,0.28,0,.89t0,0.86a3.28,3.28,0,0,1-.63,2A2.74,2.74,0,0,1,59.63,286.19Zm3-.58a2.42,2.42,0,0,0,.41-1.44c0-.19,0-0.47,0-0.83s0-.64,0-0.82a2.4,2.4,0,0,0-.42-1.43,1.55,1.55,0,0,0-2.31,0,2.42,2.42,0,0,0-.41,1.43v1.65a2.41,2.41,0,0,0,.41,1.44A1.56,1.56,0,0,0,62.67,285.6Z"/><path class="cls-1" d="M9.31,218.53a0.23,0.23,0,0,1-.06-0.17v-5.64L7.57,214a0.23,0.23,0,0,1-.15.06,0.23,0.23,0,0,1-.17-0.1L7,213.67a0.24,0.24,0,0,1,0-.14,0.21,0.21,0,0,1,.1-0.18l2.17-1.68a0.47,0.47,0,0,1,.26-0.07H10a0.22,0.22,0,0,1,.23.23v6.54a0.22,0.22,0,0,1-.23.23H9.46A0.2,0.2,0,0,1,9.31,218.53Z"/><path class="cls-1" d="M12.73,217.94a3.28,3.28,0,0,1-.63-2v-1.75a3.17,3.17,0,0,1,.63-2,2.27,2.27,0,0,1,1.88-.75,2.28,2.28,0,0,1,1.9.75,3.18,3.18,0,0,1,.63,2q0,0.28,0,.89t0,0.86a3.28,3.28,0,0,1-.63,2,2.27,2.27,0,0,1-1.9.75A2.25,2.25,0,0,1,12.73,217.94Zm3-.58a2.42,2.42,0,0,0,.41-1.44c0-.19,0-0.47,0-0.83s0-.64,0-0.82a2.4,2.4,0,0,0-.42-1.43,1.37,1.37,0,0,0-1.16-.52,1.35,1.35,0,0,0-1.15.52,2.42,2.42,0,0,0-.41,1.43v1.65a2.41,2.41,0,0,0,.41,1.44,1.36,1.36,0,0,0,1.15.51A1.37,1.37,0,0,0,15.78,217.35Z"/><path class="cls-1" d="M22.52,217.94a3.28,3.28,0,0,1-.63-2v-1.75a3.18,3.18,0,0,1,.63-2,2.27,2.27,0,0,1,1.89-.75,2.28,2.28,0,0,1,1.89.75,3.17,3.17,0,0,1,.63,2q0,0.28,0,.89t0,0.86a3.28,3.28,0,0,1-.63,2,2.26,2.26,0,0,1-1.89.75A2.25,2.25,0,0,1,22.52,217.94Zm3-.58a2.4,2.4,0,0,0,.41-1.44c0-.19,0-0.47,0-0.83s0-.64,0-0.82a2.39,2.39,0,0,0-.42-1.43,1.55,1.55,0,0,0-2.3,0,2.42,2.42,0,0,0-.41,1.43v1.65a2.42,2.42,0,0,0,.41,1.44A1.56,1.56,0,0,0,25.56,217.35Z"/><path class="cls-1" d="M29.35,217.94a3.28,3.28,0,0,1-.63-2v-1.75a3.18,3.18,0,0,1,.63-2,2.27,2.27,0,0,1,1.89-.75,2.28,2.28,0,0,1,1.89.75,3.17,3.17,0,0,1,.63,2q0,0.28,0,.89t0,0.86a3.28,3.28,0,0,1-.63,2,2.26,2.26,0,0,1-1.89.75A2.25,2.25,0,0,1,29.35,217.94Zm3-.58a2.4,2.4,0,0,0,.41-1.44c0-.19,0-0.47,0-0.83s0-.64,0-0.82a2.39,2.39,0,0,0-.42-1.43,1.55,1.55,0,0,0-2.3,0,2.42,2.42,0,0,0-.41,1.43v1.65a2.42,2.42,0,0,0,.41,1.44A1.56,1.56,0,0,0,32.39,217.35Z"/><path class="cls-1" d="M36.18,217.94a3.28,3.28,0,0,1-.63-2v-1.75a3.18,3.18,0,0,1,.63-2,2.74,2.74,0,0,1,3.78,0,3.17,3.17,0,0,1,.63,2q0,0.28,0,.89t0,0.86a3.28,3.28,0,0,1-.63,2,2.26,2.26,0,0,1-1.89.75A2.25,2.25,0,0,1,36.18,217.94Zm3-.58a2.4,2.4,0,0,0,.41-1.44c0-.19,0-0.47,0-0.83s0-.64,0-0.82a2.39,2.39,0,0,0-.42-1.43,1.55,1.55,0,0,0-2.3,0,2.42,2.42,0,0,0-.41,1.43v1.65a2.42,2.42,0,0,0,.41,1.44A1.56,1.56,0,0,0,39.22,217.35Z"/><path class="cls-1" d="M46,217.94a3.28,3.28,0,0,1-.63-2v-1.75a3.17,3.17,0,0,1,.63-2,2.74,2.74,0,0,1,3.78,0,3.18,3.18,0,0,1,.63,2q0,0.28,0,.89t0,0.86a3.28,3.28,0,0,1-.63,2A2.74,2.74,0,0,1,46,217.94Zm3-.58a2.42,2.42,0,0,0,.41-1.44c0-.19,0-0.47,0-0.83s0-.64,0-0.82a2.4,2.4,0,0,0-.42-1.43,1.55,1.55,0,0,0-2.31,0,2.42,2.42,0,0,0-.41,1.43v1.65a2.41,2.41,0,0,0,.41,1.44A1.56,1.56,0,0,0,49,217.35Z"/><path class="cls-1" d="M52.8,217.94a3.28,3.28,0,0,1-.63-2v-1.75a3.17,3.17,0,0,1,.63-2,2.74,2.74,0,0,1,3.78,0,3.18,3.18,0,0,1,.63,2q0,0.28,0,.89t0,0.86a3.28,3.28,0,0,1-.63,2A2.74,2.74,0,0,1,52.8,217.94Zm3-.58a2.42,2.42,0,0,0,.41-1.44c0-.19,0-0.47,0-0.83s0-.64,0-0.82a2.4,2.4,0,0,0-.42-1.43,1.55,1.55,0,0,0-2.31,0,2.42,2.42,0,0,0-.41,1.43v1.65a2.41,2.41,0,0,0,.41,1.44A1.56,1.56,0,0,0,55.84,217.35Z"/><path class="cls-1" d="M59.63,217.94a3.28,3.28,0,0,1-.63-2v-1.75a3.17,3.17,0,0,1,.63-2,2.74,2.74,0,0,1,3.78,0,3.18,3.18,0,0,1,.63,2q0,0.28,0,.89T64,216a3.28,3.28,0,0,1-.63,2A2.74,2.74,0,0,1,59.63,217.94Zm3-.58a2.42,2.42,0,0,0,.41-1.44c0-.19,0-0.47,0-0.83s0-.64,0-0.82a2.4,2.4,0,0,0-.42-1.43,1.55,1.55,0,0,0-2.31,0,2.42,2.42,0,0,0-.41,1.43v1.65a2.41,2.41,0,0,0,.41,1.44A1.56,1.56,0,0,0,62.67,217.35Z"/><path class="cls-1" d="M9.72,150.28a0.23,0.23,0,0,1-.06-0.17v-5.64L8,145.76a0.23,0.23,0,0,1-.15.06,0.23,0.23,0,0,1-.17-0.1l-0.24-.31a0.24,0.24,0,0,1,0-.14,0.21,0.21,0,0,1,.1-0.18l2.17-1.68a0.47,0.47,0,0,1,.26-0.07h0.47a0.22,0.22,0,0,1,.23.23v6.54a0.22,0.22,0,0,1-.23.23H9.88A0.2,0.2,0,0,1,9.72,150.28Z"/><path class="cls-1" d="M13.48,150.17a2.08,2.08,0,0,1-.84-0.71,1.79,1.79,0,0,1-.31-0.93v0a0.16,0.16,0,0,1,.06-0.13,0.21,0.21,0,0,1,.14,0H13a0.26,0.26,0,0,1,.27.22,1.35,1.35,0,0,0,.56.8,1.67,1.67,0,0,0,.93.27,1.6,1.6,0,0,0,1.13-.42,1.48,1.48,0,0,0,.45-1.15,1.34,1.34,0,0,0-.45-1.06,1.65,1.65,0,0,0-1.13-.4,1.56,1.56,0,0,0-.58.09,2.14,2.14,0,0,0-.45.26l-0.21.14a0.39,0.39,0,0,1-.18,0H12.87a0.23,0.23,0,0,1-.16-0.06,0.18,0.18,0,0,1-.06-0.16L13,143.59a0.24,0.24,0,0,1,.25-0.25h3.46a0.23,0.23,0,0,1,.17.06,0.23,0.23,0,0,1,.06.17v0.37a0.2,0.2,0,0,1-.07.16,0.23,0.23,0,0,1-.17.06H13.79l-0.18,2a2.19,2.19,0,0,1,1.29-.34,2.77,2.77,0,0,1,1.22.26,2.1,2.1,0,0,1,.88.78,2.2,2.2,0,0,1,.33,1.21,2.41,2.41,0,0,1-.33,1.27,2.08,2.08,0,0,1-.9.81,3,3,0,0,1-1.32.27A2.92,2.92,0,0,1,13.48,150.17Z"/><path class="cls-1" d="M22.52,149.69a3.28,3.28,0,0,1-.63-2V146a3.17,3.17,0,0,1,.63-2,2.27,2.27,0,0,1,1.88-.75,2.28,2.28,0,0,1,1.9.75,3.18,3.18,0,0,1,.63,2q0,0.28,0,.89t0,0.86a3.28,3.28,0,0,1-.63,2,2.27,2.27,0,0,1-1.9.75A2.25,2.25,0,0,1,22.52,149.69Zm3-.58a2.42,2.42,0,0,0,.41-1.44c0-.19,0-0.47,0-0.83s0-.64,0-0.82a2.4,2.4,0,0,0-.42-1.43,1.55,1.55,0,0,0-2.31,0,2.42,2.42,0,0,0-.41,1.43v1.65a2.41,2.41,0,0,0,.41,1.44A1.56,1.56,0,0,0,25.57,149.1Z"/><path class="cls-1" d="M29.35,149.69a3.28,3.28,0,0,1-.63-2V146a3.18,3.18,0,0,1,.63-2,2.27,2.27,0,0,1,1.89-.75,2.28,2.28,0,0,1,1.89.75,3.17,3.17,0,0,1,.63,2q0,0.28,0,.89t0,0.86a3.28,3.28,0,0,1-.63,2,2.26,2.26,0,0,1-1.89.75A2.25,2.25,0,0,1,29.35,149.69Zm3-.58a2.4,2.4,0,0,0,.41-1.44c0-.19,0-0.47,0-0.83s0-.64,0-0.82a2.39,2.39,0,0,0-.42-1.43,1.55,1.55,0,0,0-2.3,0,2.42,2.42,0,0,0-.41,1.43v1.65a2.42,2.42,0,0,0,.41,1.44A1.56,1.56,0,0,0,32.39,149.1Z"/><path class="cls-1" d="M36.18,149.69a3.28,3.28,0,0,1-.63-2V146a3.18,3.18,0,0,1,.63-2A2.74,2.74,0,0,1,40,144a3.17,3.17,0,0,1,.63,2q0,0.28,0,.89t0,0.86a3.28,3.28,0,0,1-.63,2,2.26,2.26,0,0,1-1.89.75A2.25,2.25,0,0,1,36.18,149.69Zm3-.58a2.4,2.4,0,0,0,.41-1.44c0-.19,0-0.47,0-0.83s0-.64,0-0.82a2.39,2.39,0,0,0-.42-1.43,1.55,1.55,0,0,0-2.3,0A2.42,2.42,0,0,0,36.5,146v1.65a2.42,2.42,0,0,0,.41,1.44A1.56,1.56,0,0,0,39.22,149.1Z"/><path class="cls-1" d="M46,149.69a3.28,3.28,0,0,1-.63-2V146a3.18,3.18,0,0,1,.63-2,2.74,2.74,0,0,1,3.78,0,3.17,3.17,0,0,1,.63,2q0,0.28,0,.89t0,0.86a3.28,3.28,0,0,1-.63,2A2.74,2.74,0,0,1,46,149.69Zm3-.58a2.4,2.4,0,0,0,.41-1.44c0-.19,0-0.47,0-0.83s0-.64,0-0.82a2.39,2.39,0,0,0-.42-1.43,1.55,1.55,0,0,0-2.3,0,2.42,2.42,0,0,0-.41,1.43v1.65a2.42,2.42,0,0,0,.41,1.44A1.56,1.56,0,0,0,49,149.1Z"/><path class="cls-1" d="M52.8,149.69a3.28,3.28,0,0,1-.63-2V146a3.17,3.17,0,0,1,.63-2,2.74,2.74,0,0,1,3.78,0,3.18,3.18,0,0,1,.63,2q0,0.28,0,.89t0,0.86a3.28,3.28,0,0,1-.63,2A2.74,2.74,0,0,1,52.8,149.69Zm3-.58a2.42,2.42,0,0,0,.41-1.44c0-.19,0-0.47,0-0.83s0-.64,0-0.82a2.4,2.4,0,0,0-.42-1.43,1.55,1.55,0,0,0-2.31,0,2.42,2.42,0,0,0-.41,1.43v1.65a2.41,2.41,0,0,0,.41,1.44A1.56,1.56,0,0,0,55.84,149.1Z"/><path class="cls-1" d="M59.63,149.69a3.28,3.28,0,0,1-.63-2V146a3.17,3.17,0,0,1,.63-2,2.74,2.74,0,0,1,3.78,0,3.18,3.18,0,0,1,.63,2q0,0.28,0,.89t0,0.86a3.28,3.28,0,0,1-.63,2A2.74,2.74,0,0,1,59.63,149.69Zm3-.58a2.42,2.42,0,0,0,.41-1.44c0-.19,0-0.47,0-0.83s0-.64,0-0.82a2.4,2.4,0,0,0-.42-1.43,1.55,1.55,0,0,0-2.31,0A2.42,2.42,0,0,0,60,146v1.65a2.41,2.41,0,0,0,.41,1.44A1.56,1.56,0,0,0,62.67,149.1Z"/><path class="cls-1" d="M5.67,82a0.22,0.22,0,0,1-.07-0.17v-0.3a0.58,0.58,0,0,1,.25-0.44L8,79a6.22,6.22,0,0,0,1-1,1.46,1.46,0,0,0,.28-0.85A1.26,1.26,0,0,0,9,76.15a1.29,1.29,0,0,0-1-.33,1.28,1.28,0,0,0-1,.35,1.59,1.59,0,0,0-.43.94,0.26,0.26,0,0,1-.1.17,0.27,0.27,0,0,1-.16.06H5.93a0.2,0.2,0,0,1-.15-0.06,0.19,0.19,0,0,1-.06-0.14,2.34,2.34,0,0,1,.28-1,2.1,2.1,0,0,1,.79-0.81A2.39,2.39,0,0,1,8,75a2.24,2.24,0,0,1,1.68.58,2.05,2.05,0,0,1,.57,1.49A2.15,2.15,0,0,1,10,78.19a4.61,4.61,0,0,1-1,1.07l-2,2h3.15a0.21,0.21,0,0,1,.23.23v0.38a0.22,0.22,0,0,1-.23.23H5.84A0.22,0.22,0,0,1,5.67,82Z"/><path class="cls-1" d="M12.73,81.44a3.28,3.28,0,0,1-.63-2V77.71a3.17,3.17,0,0,1,.63-2A2.27,2.27,0,0,1,14.62,75a2.28,2.28,0,0,1,1.9.75,3.18,3.18,0,0,1,.63,2q0,0.28,0,.89t0,0.86a3.28,3.28,0,0,1-.63,2,2.27,2.27,0,0,1-1.9.75A2.25,2.25,0,0,1,12.73,81.44Zm3-.58a2.42,2.42,0,0,0,.41-1.44c0-.19,0-0.47,0-0.83s0-.64,0-0.82a2.4,2.4,0,0,0-.42-1.43,1.37,1.37,0,0,0-1.16-.52,1.35,1.35,0,0,0-1.15.52,2.42,2.42,0,0,0-.41,1.43v1.65a2.41,2.41,0,0,0,.41,1.44,1.36,1.36,0,0,0,1.15.51A1.37,1.37,0,0,0,15.78,80.85Z"/><path class="cls-1" d="M22.52,81.44a3.28,3.28,0,0,1-.63-2V77.71a3.17,3.17,0,0,1,.63-2A2.27,2.27,0,0,1,24.41,75a2.28,2.28,0,0,1,1.9.75,3.18,3.18,0,0,1,.63,2q0,0.28,0,.89t0,0.86a3.28,3.28,0,0,1-.63,2,2.27,2.27,0,0,1-1.9.75A2.25,2.25,0,0,1,22.52,81.44Zm3-.58A2.42,2.42,0,0,0,26,79.42c0-.19,0-0.47,0-0.83s0-.64,0-0.82a2.4,2.4,0,0,0-.42-1.43,1.55,1.55,0,0,0-2.31,0,2.42,2.42,0,0,0-.41,1.43v1.65a2.41,2.41,0,0,0,.41,1.44A1.56,1.56,0,0,0,25.57,80.85Z"/><path class="cls-1" d="M29.35,81.44a3.28,3.28,0,0,1-.63-2V77.71a3.17,3.17,0,0,1,.63-2A2.27,2.27,0,0,1,31.24,75a2.28,2.28,0,0,1,1.9.75,3.18,3.18,0,0,1,.63,2q0,0.28,0,.89t0,0.86a3.28,3.28,0,0,1-.63,2,2.27,2.27,0,0,1-1.9.75A2.25,2.25,0,0,1,29.35,81.44Zm3-.58a2.42,2.42,0,0,0,.41-1.44c0-.19,0-0.47,0-0.83s0-.64,0-0.82a2.4,2.4,0,0,0-.42-1.43,1.55,1.55,0,0,0-2.31,0,2.42,2.42,0,0,0-.41,1.43v1.65a2.41,2.41,0,0,0,.41,1.44A1.56,1.56,0,0,0,32.4,80.85Z"/><path class="cls-1" d="M36.18,81.44a3.28,3.28,0,0,1-.63-2V77.71a3.18,3.18,0,0,1,.63-2,2.74,2.74,0,0,1,3.78,0,3.17,3.17,0,0,1,.63,2q0,0.28,0,.89t0,0.86a3.28,3.28,0,0,1-.63,2,2.26,2.26,0,0,1-1.89.75A2.25,2.25,0,0,1,36.18,81.44Zm3-.58a2.4,2.4,0,0,0,.41-1.44c0-.19,0-0.47,0-0.83s0-.64,0-0.82a2.39,2.39,0,0,0-.42-1.43,1.55,1.55,0,0,0-2.3,0,2.42,2.42,0,0,0-.41,1.43v1.65a2.42,2.42,0,0,0,.41,1.44A1.56,1.56,0,0,0,39.22,80.85Z"/><path class="cls-1" d="M46,81.44a3.28,3.28,0,0,1-.63-2V77.71a3.18,3.18,0,0,1,.63-2,2.74,2.74,0,0,1,3.78,0,3.17,3.17,0,0,1,.63,2q0,0.28,0,.89t0,0.86a3.28,3.28,0,0,1-.63,2A2.74,2.74,0,0,1,46,81.44Zm3-.58a2.4,2.4,0,0,0,.41-1.44c0-.19,0-0.47,0-0.83s0-.64,0-0.82A2.39,2.39,0,0,0,49,76.33a1.55,1.55,0,0,0-2.3,0,2.42,2.42,0,0,0-.41,1.43v1.65a2.42,2.42,0,0,0,.41,1.44A1.56,1.56,0,0,0,49,80.85Z"/><path class="cls-1" d="M52.8,81.44a3.28,3.28,0,0,1-.63-2V77.71a3.18,3.18,0,0,1,.63-2,2.74,2.74,0,0,1,3.78,0,3.17,3.17,0,0,1,.63,2q0,0.28,0,.89t0,0.86a3.28,3.28,0,0,1-.63,2A2.74,2.74,0,0,1,52.8,81.44Zm3-.58a2.4,2.4,0,0,0,.41-1.44c0-.19,0-0.47,0-0.83s0-.64,0-0.82a2.39,2.39,0,0,0-.42-1.43,1.55,1.55,0,0,0-2.3,0,2.42,2.42,0,0,0-.41,1.43v1.65a2.42,2.42,0,0,0,.41,1.44A1.56,1.56,0,0,0,55.84,80.85Z"/><path class="cls-1" d="M59.63,81.44a3.28,3.28,0,0,1-.63-2V77.71a3.17,3.17,0,0,1,.63-2,2.74,2.74,0,0,1,3.78,0,3.18,3.18,0,0,1,.63,2q0,0.28,0,.89t0,0.86a3.28,3.28,0,0,1-.63,2A2.74,2.74,0,0,1,59.63,81.44Zm3-.58a2.42,2.42,0,0,0,.41-1.44c0-.19,0-0.47,0-0.83s0-.64,0-0.82a2.4,2.4,0,0,0-.42-1.43,1.55,1.55,0,0,0-2.31,0A2.42,2.42,0,0,0,60,77.76v1.65a2.41,2.41,0,0,0,.41,1.44A1.56,1.56,0,0,0,62.67,80.85Z"/><path class="cls-1" d="M470.33,378.66a2,2,0,0,1-.75-1.58,0.22,0.22,0,0,1,.06-0.16,0.2,0.2,0,0,1,.15-0.07h0.51a0.23,0.23,0,0,1,.25.23,1.24,1.24,0,0,0,.5,1,1.86,1.86,0,0,0,1.1.31,1.44,1.44,0,0,0,1.17-.5,2,2,0,0,0,.42-1.35v-3.58h-3.57a0.22,0.22,0,0,1-.23-0.23v-0.38a0.22,0.22,0,0,1,.23-0.23h4.29a0.23,0.23,0,0,1,.24.24v4.2a3,3,0,0,1-.3,1.4,2.19,2.19,0,0,1-.89.93,2.71,2.71,0,0,1-1.37.33A2.93,2.93,0,0,1,470.33,378.66Z"/><path class="cls-1" d="M477.25,379a1.7,1.7,0,0,1-.66-0.54,1.3,1.3,0,0,1-.25-0.77,1.31,1.31,0,0,1,.54-1.08,3.12,3.12,0,0,1,1.47-.56l1.5-.21v-0.29a1,1,0,0,0-1.19-1,1.32,1.32,0,0,0-.74.19,1.18,1.18,0,0,0-.41.43,0.32,0.32,0,0,1-.08.13,0.2,0.2,0,0,1-.12,0h-0.39a0.22,0.22,0,0,1-.22-0.22,1,1,0,0,1,.21-0.54,1.75,1.75,0,0,1,.67-0.53,2.45,2.45,0,0,1,1.1-.22,2.12,2.12,0,0,1,1.61.52,1.83,1.83,0,0,1,.48,1.3v3.25a0.22,0.22,0,0,1-.23.23h-0.44a0.2,0.2,0,0,1-.16-0.07,0.23,0.23,0,0,1-.06-0.17v-0.44a1.69,1.69,0,0,1-.64.55,2.33,2.33,0,0,1-1.08.22A2.06,2.06,0,0,1,477.25,379Zm2.19-1a1.72,1.72,0,0,0,.42-1.25V376.5l-1.17.17a2.72,2.72,0,0,0-1.09.34,0.71,0.71,0,0,0,0,1.23,1.41,1.41,0,0,0,.79.22A1.45,1.45,0,0,0,479.43,378Z"/><path class="cls-1" d="M482.78,379a0.22,0.22,0,0,1-.07-0.17v-4.74a0.22,0.22,0,0,1,.23-0.23h0.43a0.21,0.21,0,0,1,.23.23v0.44a2.13,2.13,0,0,1,.69-0.57,2.16,2.16,0,0,1,1-.2,1.86,1.86,0,0,1,1.49.62,2.4,2.4,0,0,1,.53,1.63v2.83a0.22,0.22,0,0,1-.23.23h-0.46a0.22,0.22,0,0,1-.23-0.23v-2.77A1.64,1.64,0,0,0,486,375a1.26,1.26,0,0,0-1-.4,1.33,1.33,0,0,0-1,.4,1.57,1.57,0,0,0-.38,1.12v2.77a0.22,0.22,0,0,1-.23.23h-0.46A0.22,0.22,0,0,1,482.78,379Z"/><path class="cls-1" d="M489.72,378.58a2.44,2.44,0,0,1-.52-1.64v-2.82a0.22,0.22,0,0,1,.23-0.23h0.46a0.22,0.22,0,0,1,.23.23v2.77a1.26,1.26,0,0,0,1.32,1.52,1.32,1.32,0,0,0,1-.41,1.58,1.58,0,0,0,.38-1.12v-2.77a0.22,0.22,0,0,1,.23-0.23h0.46a0.22,0.22,0,0,1,.23.23v4.74a0.22,0.22,0,0,1-.23.23h-0.43a0.22,0.22,0,0,1-.23-0.23v-0.45a1.92,1.92,0,0,1-.68.58,2.22,2.22,0,0,1-1,.19A1.82,1.82,0,0,1,489.72,378.58Z"/><path class="cls-1" d="M496.29,379a1.69,1.69,0,0,1-.66-0.54,1.29,1.29,0,0,1-.25-0.77,1.31,1.31,0,0,1,.54-1.08,3.12,3.12,0,0,1,1.47-.56l1.5-.21v-0.29a1,1,0,0,0-1.19-1,1.32,1.32,0,0,0-.74.19,1.18,1.18,0,0,0-.41.43,0.32,0.32,0,0,1-.08.13,0.2,0.2,0,0,1-.12,0H496a0.22,0.22,0,0,1-.22-0.22,1,1,0,0,1,.21-0.54,1.75,1.75,0,0,1,.67-0.53,2.45,2.45,0,0,1,1.1-.22,2.11,2.11,0,0,1,1.6.52,1.83,1.83,0,0,1,.49,1.3v3.25a0.22,0.22,0,0,1-.23.23h-0.44A0.21,0.21,0,0,1,499,379a0.23,0.23,0,0,1-.06-0.17v-0.44a1.7,1.7,0,0,1-.64.55,2.32,2.32,0,0,1-1.08.22A2.06,2.06,0,0,1,496.29,379Zm2.18-1a1.72,1.72,0,0,0,.42-1.25V376.5l-1.17.17a2.72,2.72,0,0,0-1.09.34,0.7,0.7,0,0,0-.37.6,0.71,0.71,0,0,0,.33.63,1.42,1.42,0,0,0,.79.22A1.45,1.45,0,0,0,498.47,378Z"/><path class="cls-1" d="M501.82,379a0.22,0.22,0,0,1-.06-0.17v-4.73a0.24,0.24,0,0,1,.06-0.17,0.22,0.22,0,0,1,.17-0.07h0.42a0.22,0.22,0,0,1,.24.24v0.44a1.49,1.49,0,0,1,1.39-.68h0.39a0.21,0.21,0,0,1,.23.23v0.37a0.23,0.23,0,0,1-.06.17,0.22,0.22,0,0,1-.17.06h-0.57a1.16,1.16,0,0,0-.87.32,1.18,1.18,0,0,0-.31.87v2.95a0.21,0.21,0,0,1-.07.17,0.24,0.24,0,0,1-.17.07H502A0.22,0.22,0,0,1,501.82,379Z"/><path class="cls-1" d="M506.77,380.93a0.2,0.2,0,0,1-.06-0.14,1,1,0,0,1,0-.18l0.78-1.83-1.91-4.51a0.46,0.46,0,0,1-.06-0.17,0.24,0.24,0,0,1,.07-0.15,0.19,0.19,0,0,1,.14-0.06h0.46a0.26,0.26,0,0,1,.24.16l1.54,3.68,1.58-3.68a0.26,0.26,0,0,1,.24-0.16h0.45a0.21,0.21,0,0,1,.2.2,0.46,0.46,0,0,1,0,.18l-2.83,6.56a0.45,0.45,0,0,1-.11.12,0.24,0.24,0,0,1-.14,0h-0.44A0.21,0.21,0,0,1,506.77,380.93Z"/><path class="cls-1" d="M514.5,379a0.22,0.22,0,0,1-.07-0.17v-0.3a0.58,0.58,0,0,1,.25-0.44l2.18-2.17a6.22,6.22,0,0,0,1-1,1.46,1.46,0,0,0,.28-0.85,1.26,1.26,0,0,0-.33-0.93,1.5,1.5,0,0,0-1.91,0,1.59,1.59,0,0,0-.43.94,0.26,0.26,0,0,1-.1.17,0.27,0.27,0,0,1-.16.06h-0.48a0.2,0.2,0,0,1-.15-0.06,0.19,0.19,0,0,1-.06-0.14,2.34,2.34,0,0,1,.28-1,2.1,2.1,0,0,1,.79-0.81,2.39,2.39,0,0,1,1.26-.32,2.24,2.24,0,0,1,1.68.58,2.05,2.05,0,0,1,.57,1.49,2.15,2.15,0,0,1-.31,1.13,4.61,4.61,0,0,1-1,1.07l-2,2H519a0.21,0.21,0,0,1,.23.23v0.38a0.22,0.22,0,0,1-.23.23h-4.38A0.22,0.22,0,0,1,514.5,379Z"/><path class="cls-1" d="M521.56,378.44a3.28,3.28,0,0,1-.63-2v-1.75a3.17,3.17,0,0,1,.63-2,2.74,2.74,0,0,1,3.78,0,3.18,3.18,0,0,1,.63,2q0,0.28,0,.89t0,0.86a3.28,3.28,0,0,1-.63,2A2.74,2.74,0,0,1,521.56,378.44Zm3-.58a2.42,2.42,0,0,0,.41-1.44c0-.19,0-0.47,0-0.83s0-.64,0-0.82a2.4,2.4,0,0,0-.42-1.43,1.55,1.55,0,0,0-2.31,0,2.42,2.42,0,0,0-.41,1.43v1.65a2.41,2.41,0,0,0,.41,1.44A1.56,1.56,0,0,0,524.6,377.85Z"/><path class="cls-1" d="M529.71,379a0.23,0.23,0,0,1-.06-0.17v-5.64L528,374.51a0.23,0.23,0,0,1-.15.06,0.23,0.23,0,0,1-.17-0.1l-0.24-.31a0.24,0.24,0,0,1,0-.14,0.21,0.21,0,0,1,.1-0.18l2.17-1.68a0.47,0.47,0,0,1,.26-0.07h0.47a0.22,0.22,0,0,1,.23.23v6.54a0.22,0.22,0,0,1-.23.23h-0.49A0.2,0.2,0,0,1,529.71,379Z"/><path class="cls-1" d="M533.55,378.87a2.23,2.23,0,0,1-.89-0.87,2.44,2.44,0,0,1-.3-1.2A3.25,3.25,0,0,1,533,375l1.91-2.66,0.06-.07a0.32,0.32,0,0,1,.11-0.09,0.35,0.35,0,0,1,.16,0h0.49a0.18,0.18,0,0,1,.15.07,0.23,0.23,0,0,1,.05.15,0.26,0.26,0,0,1,0,.13l-1.46,2a2.58,2.58,0,0,1,.58-0.06,2.49,2.49,0,0,1,1.28.33,2.31,2.31,0,0,1,.86.86,2.34,2.34,0,0,1,.3,1.18,2.44,2.44,0,0,1-.3,1.19,2.25,2.25,0,0,1-.88.88,2.72,2.72,0,0,1-1.37.33A2.8,2.8,0,0,1,533.55,378.87Zm2.18-.69a1.4,1.4,0,0,0,.59-0.54,1.59,1.59,0,0,0,.22-0.85,1.54,1.54,0,0,0-.23-0.84,1.47,1.47,0,0,0-.59-0.54,1.82,1.82,0,0,0-1.6,0,1.44,1.44,0,0,0-.59.54,1.57,1.57,0,0,0-.22.84,1.59,1.59,0,0,0,.22.85,1.4,1.4,0,0,0,.59.54,1.81,1.81,0,0,0,.8.18A1.83,1.83,0,0,0,535.73,378.18Z"/><path class="cls-1" d="M774.41,378.51a2.87,2.87,0,0,1-.75-2.07q0-.3,0-0.85t0-.84a2.84,2.84,0,0,1,.78-2.06,3.16,3.16,0,0,1,4,0,2.85,2.85,0,0,1,.77,2.06q0,0.58,0,.84t0,0.85a2.88,2.88,0,0,1-.75,2.07A3.29,3.29,0,0,1,774.41,378.51Zm3.29-.63a2.17,2.17,0,0,0,.52-1.49q0-.6,0-0.8t0-.8a2.19,2.19,0,0,0-.52-1.49,1.92,1.92,0,0,0-2.56,0,2.14,2.14,0,0,0-.52,1.49q0,0.29,0,.8t0,0.8a2.14,2.14,0,0,0,.51,1.49A1.95,1.95,0,0,0,777.7,377.88Z"/><path class="cls-1" d="M781.45,378.59a2.4,2.4,0,0,1-.63-1.7v-0.8a2.4,2.4,0,0,1,.63-1.7,2.25,2.25,0,0,1,1.67-.6,2.63,2.63,0,0,1,1.21.25,1.87,1.87,0,0,1,.74.63,1.55,1.55,0,0,1,.26.76,0.18,0.18,0,0,1-.06.16,0.24,0.24,0,0,1-.17.07h-0.44a0.22,0.22,0,0,1-.15,0,0.47,0.47,0,0,1-.1-0.17,1.34,1.34,0,0,0-.5-0.7,1.43,1.43,0,0,0-.79-0.21,1.31,1.31,0,0,0-1,.39,1.77,1.77,0,0,0-.4,1.19v0.7a1.78,1.78,0,0,0,.4,1.19,1.31,1.31,0,0,0,1,.39,1.43,1.43,0,0,0,.8-0.21,1.36,1.36,0,0,0,.49-0.7,0.47,0.47,0,0,1,.1-0.17,0.22,0.22,0,0,1,.15,0h0.44a0.24,0.24,0,0,1,.17.07,0.18,0.18,0,0,1,.06.16,1.54,1.54,0,0,1-.26.75,1.91,1.91,0,0,1-.74.64,2.58,2.58,0,0,1-1.21.26A2.25,2.25,0,0,1,781.45,378.59Z"/><path class="cls-1" d="M787.49,377.34v-2.68H786.7a0.21,0.21,0,0,1-.22-0.22v-0.32a0.23,0.23,0,0,1,.06-0.17,0.21,0.21,0,0,1,.16-0.07h0.79v-1.67a0.24,0.24,0,0,1,.06-0.17,0.21,0.21,0,0,1,.16-0.06h0.44a0.22,0.22,0,0,1,.23.23v1.67h1.24a0.22,0.22,0,0,1,.17.07,0.23,0.23,0,0,1,.07.17v0.32a0.21,0.21,0,0,1-.07.16,0.23,0.23,0,0,1-.17.06h-1.24v2.61a1.46,1.46,0,0,0,.17.77,0.62,0.62,0,0,0,.57.26h0.61a0.2,0.2,0,0,1,.16.07,0.23,0.23,0,0,1,.06.17v0.33a0.23,0.23,0,0,1-.06.17,0.2,0.2,0,0,1-.16.07H789A1.46,1.46,0,0,1,787.49,377.34Z"/><path class="cls-1" d="M791.83,378.58a2.43,2.43,0,0,1-.64-1.65v-0.86a2.4,2.4,0,0,1,.65-1.65,2.6,2.6,0,0,1,3.37,0,2.4,2.4,0,0,1,.64,1.65c0,0.15,0,.29,0,0.43s0,0.28,0,.43a2.43,2.43,0,0,1-.63,1.65A2.63,2.63,0,0,1,791.83,378.58Zm2.71-.54a1.76,1.76,0,0,0,.4-1.17c0-.07,0-0.19,0-0.38s0-.31,0-0.38a1.76,1.76,0,0,0-.4-1.16,1.47,1.47,0,0,0-2,0,1.76,1.76,0,0,0-.41,1.16v0.76a1.76,1.76,0,0,0,.41,1.17A1.48,1.48,0,0,0,794.54,378Z"/><path class="cls-1" d="M798.53,378.43v0.43a0.22,0.22,0,0,1-.23.23h-0.42a0.22,0.22,0,0,1-.23-0.23v-6.64a0.22,0.22,0,0,1,.07-0.17,0.23,0.23,0,0,1,.17-0.06h0.45a0.22,0.22,0,0,1,.23.23v2.31a1.91,1.91,0,0,1,1.62-.74,1.86,1.86,0,0,1,1.58.68,2.88,2.88,0,0,1,.55,1.71c0,0.07,0,.17,0,0.3s0,0.23,0,.3a2.88,2.88,0,0,1-.55,1.71,1.86,1.86,0,0,1-1.58.68A1.93,1.93,0,0,1,798.53,378.43ZM801,378a2.1,2.1,0,0,0,.36-1.18c0-.07,0-0.16,0-0.29q0-1.92-1.42-1.92a1.27,1.27,0,0,0-1,.44,1.7,1.7,0,0,0-.39,1.06c0,0.07,0,.2,0,0.39s0,0.31,0,.38a1.88,1.88,0,0,0,.38,1.11,1.25,1.25,0,0,0,1.06.46A1.22,1.22,0,0,0,801,378Z"/><path class="cls-1" d="M804.51,378.56a2.62,2.62,0,0,1-.67-1.73v-0.67a2.61,2.61,0,0,1,.67-1.72,2.41,2.41,0,0,1,3.33.06,2.81,2.81,0,0,1,.61,1.9v0.18a0.22,0.22,0,0,1-.23.23h-3.47v0.09a1.86,1.86,0,0,0,.4,1.11,1.2,1.2,0,0,0,1,.46,1.41,1.41,0,0,0,.76-0.19,1.61,1.61,0,0,0,.45-0.38,0.51,0.51,0,0,1,.14-0.14,0.41,0.41,0,0,1,.17,0h0.44a0.25,0.25,0,0,1,.16,0,0.16,0.16,0,0,1,.06.13,0.88,0.88,0,0,1-.27.53,2.22,2.22,0,0,1-.77.54,2.71,2.71,0,0,1-1.13.22A2.15,2.15,0,0,1,804.51,378.56Zm3-2.43v0a1.68,1.68,0,0,0-.38-1.14,1.28,1.28,0,0,0-1-.44,1.26,1.26,0,0,0-1,.44,1.71,1.71,0,0,0-.37,1.14v0h2.79Z"/><path class="cls-1" d="M810.23,379a0.22,0.22,0,0,1-.06-0.17v-4.73a0.24,0.24,0,0,1,.06-0.17,0.22,0.22,0,0,1,.17-0.07h0.42a0.22,0.22,0,0,1,.24.24v0.44a1.49,1.49,0,0,1,1.39-.68h0.39a0.21,0.21,0,0,1,.23.23v0.37a0.23,0.23,0,0,1-.06.17,0.22,0.22,0,0,1-.17.06h-0.57a1.16,1.16,0,0,0-.87.32,1.18,1.18,0,0,0-.31.87v2.95a0.21,0.21,0,0,1-.07.17,0.24,0.24,0,0,1-.17.07H810.4A0.22,0.22,0,0,1,810.23,379Z"/><path class="cls-1" d="M817,379a0.22,0.22,0,0,1-.07-0.17v-0.3a0.58,0.58,0,0,1,.25-0.44l2.18-2.17a6.22,6.22,0,0,0,1-1,1.46,1.46,0,0,0,.28-0.85,1.26,1.26,0,0,0-.33-0.93,1.5,1.5,0,0,0-1.91,0,1.59,1.59,0,0,0-.43.94,0.26,0.26,0,0,1-.1.17,0.27,0.27,0,0,1-.16.06h-0.48a0.2,0.2,0,0,1-.15-0.06,0.19,0.19,0,0,1-.06-0.14,2.34,2.34,0,0,1,.28-1,2.1,2.1,0,0,1,.79-0.81,2.39,2.39,0,0,1,1.26-.32,2.24,2.24,0,0,1,1.68.58,2.05,2.05,0,0,1,.57,1.49,2.15,2.15,0,0,1-.31,1.13,4.61,4.61,0,0,1-1,1.07l-2,2h3.15a0.21,0.21,0,0,1,.23.23v0.38a0.22,0.22,0,0,1-.23.23h-4.38A0.22,0.22,0,0,1,817,379Z"/><path class="cls-1" d="M824,378.44a3.28,3.28,0,0,1-.63-2v-1.75a3.17,3.17,0,0,1,.63-2,2.74,2.74,0,0,1,3.78,0,3.18,3.18,0,0,1,.63,2q0,0.28,0,.89t0,0.86a3.28,3.28,0,0,1-.63,2A2.74,2.74,0,0,1,824,378.44Zm3-.58a2.42,2.42,0,0,0,.41-1.44c0-.19,0-0.47,0-0.83s0-.64,0-0.82a2.4,2.4,0,0,0-.42-1.43,1.55,1.55,0,0,0-2.31,0,2.42,2.42,0,0,0-.41,1.43v1.65a2.41,2.41,0,0,0,.41,1.44A1.56,1.56,0,0,0,827.07,377.85Z"/><path class="cls-1" d="M832.18,379a0.23,0.23,0,0,1-.06-0.17v-5.64l-1.68,1.29a0.23,0.23,0,0,1-.15.06,0.23,0.23,0,0,1-.17-0.1l-0.24-.31a0.24,0.24,0,0,1,0-.14,0.21,0.21,0,0,1,.1-0.18l2.17-1.68a0.47,0.47,0,0,1,.26-0.07h0.47a0.22,0.22,0,0,1,.23.23v6.54a0.22,0.22,0,0,1-.23.23h-0.49A0.2,0.2,0,0,1,832.18,379Z"/><path class="cls-1" d="M836,378.87a2.23,2.23,0,0,1-.89-0.87,2.44,2.44,0,0,1-.3-1.2,3.25,3.25,0,0,1,.69-1.84l1.91-2.66,0.06-.07a0.32,0.32,0,0,1,.11-0.09,0.35,0.35,0,0,1,.16,0h0.49a0.18,0.18,0,0,1,.15.07,0.23,0.23,0,0,1,.05.15,0.26,0.26,0,0,1,0,.13l-1.46,2a2.58,2.58,0,0,1,.58-0.06,2.49,2.49,0,0,1,1.28.33,2.31,2.31,0,0,1,.86.86,2.34,2.34,0,0,1,.3,1.18,2.44,2.44,0,0,1-.3,1.19,2.25,2.25,0,0,1-.88.88,2.72,2.72,0,0,1-1.37.33A2.8,2.8,0,0,1,836,378.87Zm2.18-.69a1.4,1.4,0,0,0,.59-0.54,1.59,1.59,0,0,0,.22-0.85,1.54,1.54,0,0,0-.23-0.84,1.47,1.47,0,0,0-.59-0.54,1.82,1.82,0,0,0-1.6,0,1.44,1.44,0,0,0-.59.54,1.57,1.57,0,0,0-.22.84,1.59,1.59,0,0,0,.22.85,1.4,1.4,0,0,0,.59.54,1.81,1.81,0,0,0,.8.18A1.83,1.83,0,0,0,838.2,378.18Z"/><path class="cls-1" d="M732,317.49a2.72,2.72,0,0,1-1.06-2.21,0.31,0.31,0,0,1,.08-0.22,0.28,0.28,0,0,1,.21-0.09h0.71a0.32,0.32,0,0,1,.35.32,1.74,1.74,0,0,0,.7,1.34,2.61,2.61,0,0,0,1.54.43,2,2,0,0,0,1.64-.7,2.87,2.87,0,0,0,.58-1.89v-5h-5a0.31,0.31,0,0,1-.32-0.32v-0.53a0.31,0.31,0,0,1,.32-0.32h6a0.31,0.31,0,0,1,.34.34v5.88a4.26,4.26,0,0,1-.43,2,3.06,3.06,0,0,1-1.24,1.3,3.81,3.81,0,0,1-1.92.46A4.1,4.1,0,0,1,732,317.49Z"/><path class="cls-1" d="M741.57,317.37a3.43,3.43,0,0,1-.73-2.29v-3.95a0.31,0.31,0,0,1,.32-0.32h0.64a0.31,0.31,0,0,1,.32.32V315q0,2.13,1.85,2.13a1.84,1.84,0,0,0,1.42-.57,2.21,2.21,0,0,0,.52-1.56v-3.88a0.31,0.31,0,0,1,.32-0.32h0.64a0.31,0.31,0,0,1,.32.32v6.64a0.31,0.31,0,0,1-.32.32h-0.6a0.31,0.31,0,0,1-.32-0.32v-0.63a2.68,2.68,0,0,1-1,.82,3.09,3.09,0,0,1-1.39.27A2.55,2.55,0,0,1,741.57,317.37Z"/><path class="cls-1" d="M750.87,317.92a2.71,2.71,0,0,1-1-.72,1.19,1.19,0,0,1-.32-0.67,0.26,0.26,0,0,1,.1-0.22,0.34,0.34,0,0,1,.21-0.08h0.59a0.27,0.27,0,0,1,.13,0,0.6,0.6,0,0,1,.13.13,2.54,2.54,0,0,0,.72.62,2.19,2.19,0,0,0,1.07.22,2.28,2.28,0,0,0,1.21-.28,0.9,0.9,0,0,0,.46-0.81,0.79,0.79,0,0,0-.2-0.56,1.69,1.69,0,0,0-.65-0.38,11.08,11.08,0,0,0-1.35-.36,3.5,3.5,0,0,1-1.72-.77,1.76,1.76,0,0,1-.5-1.3,1.83,1.83,0,0,1,.31-1A2.22,2.22,0,0,1,751,311a3.24,3.24,0,0,1,1.45-.3,3.5,3.5,0,0,1,1.5.29,2.61,2.61,0,0,1,.94.69,1.16,1.16,0,0,1,.32.66,0.27,0.27,0,0,1-.09.21,0.31,0.31,0,0,1-.22.08h-0.53a0.29,0.29,0,0,1-.28-0.15q-0.24-.27-0.4-0.41a1.31,1.31,0,0,0-.47-0.25,2.4,2.4,0,0,0-.77-0.11,1.67,1.67,0,0,0-1.05.29,0.92,0.92,0,0,0-.36.76,0.8,0.8,0,0,0,.15.5,1.38,1.38,0,0,0,.59.38A8.22,8.22,0,0,0,753,314a4,4,0,0,1,1.88.8,1.74,1.74,0,0,1,.55,1.33,1.86,1.86,0,0,1-.34,1.09,2.25,2.25,0,0,1-1,.77,4.24,4.24,0,0,1-1.62.28A3.79,3.79,0,0,1,750.87,317.92Z"/><path class="cls-1" d="M758.44,315.64v-3.75h-1.11a0.29,0.29,0,0,1-.31-0.31v-0.45a0.33,0.33,0,0,1,.08-0.23,0.29,0.29,0,0,1,.22-0.09h1.11v-2.34a0.32,0.32,0,0,1,.08-0.23,0.29,0.29,0,0,1,.22-0.09h0.62a0.31,0.31,0,0,1,.32.32v2.34h1.74a0.31,0.31,0,0,1,.32.32v0.45a0.29,0.29,0,0,1-.09.22,0.33,0.33,0,0,1-.23.08h-1.74v3.65a2,2,0,0,0,.23,1.08,0.86,0.86,0,0,0,.79.36h0.85a0.29,0.29,0,0,1,.22.09,0.33,0.33,0,0,1,.08.23v0.46a0.33,0.33,0,0,1-.08.23,0.29,0.29,0,0,1-.22.09h-1Q758.44,318.09,758.44,315.64Z"/><path class="cls-1" d="M765.34,317.73l-1.81-9,0-.15a0.27,0.27,0,0,1,.08-0.2,0.27,0.27,0,0,1,.2-0.08h0.69a0.29,0.29,0,0,1,.34.24l1.44,7.31,1.55-5a0.41,0.41,0,0,1,.43-0.34h0.49a0.44,0.44,0,0,1,.45.34l1.54,5,1.44-7.31a0.3,0.3,0,0,1,.35-0.24h0.67a0.27,0.27,0,0,1,.2.08,0.27,0.27,0,0,1,.08.2,0.82,0.82,0,0,1,0,.15l-1.82,9a0.4,0.4,0,0,1-.43.36h-0.5a0.45,0.45,0,0,1-.46-0.35l-1.74-5.39-1.75,5.39a0.43,0.43,0,0,1-.45.35h-0.52A0.41,0.41,0,0,1,765.34,317.73Z"/><path class="cls-1" d="M776.27,318a2.37,2.37,0,0,1-.92-0.76,1.81,1.81,0,0,1-.34-1.07,1.83,1.83,0,0,1,.76-1.51,4.36,4.36,0,0,1,2.06-.78l2.1-.29v-0.41q0-1.44-1.67-1.44a1.86,1.86,0,0,0-1,.26,1.65,1.65,0,0,0-.57.61,0.44,0.44,0,0,1-.12.19,0.27,0.27,0,0,1-.17,0H775.8a0.31,0.31,0,0,1-.31-0.31,1.36,1.36,0,0,1,.3-0.75,2.45,2.45,0,0,1,.93-0.74,3.42,3.42,0,0,1,1.54-.31,3,3,0,0,1,2.25.73,2.57,2.57,0,0,1,.68,1.82v4.55a0.31,0.31,0,0,1-.32.32h-0.62A0.29,0.29,0,0,1,780,318a0.32,0.32,0,0,1-.08-0.23v-0.62a2.36,2.36,0,0,1-.9.77,3.25,3.25,0,0,1-1.51.31A2.88,2.88,0,0,1,776.27,318Zm3.06-1.34a2.4,2.4,0,0,0,.59-1.75v-0.39l-1.64.24a3.81,3.81,0,0,0-1.53.48,1,1,0,0,0-.52.84,1,1,0,0,0,.47.88,2,2,0,0,0,1.11.31A2,2,0,0,0,779.33,316.61Z"/><path class="cls-1" d="M784.48,315.64v-3.75h-1.11a0.29,0.29,0,0,1-.31-0.31v-0.45a0.33,0.33,0,0,1,.08-0.23,0.29,0.29,0,0,1,.22-0.09h1.11v-2.34a0.32,0.32,0,0,1,.08-0.23,0.29,0.29,0,0,1,.22-0.09h0.62a0.31,0.31,0,0,1,.32.32v2.34h1.74a0.31,0.31,0,0,1,.32.32v0.45a0.29,0.29,0,0,1-.09.22,0.33,0.33,0,0,1-.23.08h-1.74v3.65a2,2,0,0,0,.23,1.08,0.86,0.86,0,0,0,.79.36h0.85a0.29,0.29,0,0,1,.22.09,0.33,0.33,0,0,1,.08.23v0.46a0.33,0.33,0,0,1-.08.23,0.29,0.29,0,0,1-.22.09h-1Q784.48,318.09,784.48,315.64Z"/><path class="cls-1" d="M790.56,317.39a3.37,3.37,0,0,1-.88-2.37v-1.12a3.37,3.37,0,0,1,.88-2.37,3.15,3.15,0,0,1,2.34-.85,3.69,3.69,0,0,1,1.7.36,2.63,2.63,0,0,1,1,.89A2.17,2.17,0,0,1,796,313a0.26,0.26,0,0,1-.09.22,0.33,0.33,0,0,1-.23.1h-0.62a0.31,0.31,0,0,1-.21-0.06,0.66,0.66,0,0,1-.14-0.23,1.89,1.89,0,0,0-.69-1,2,2,0,0,0-1.11-.29,1.84,1.84,0,0,0-1.4.55,2.48,2.48,0,0,0-.56,1.67v1a2.48,2.48,0,0,0,.56,1.67,1.84,1.84,0,0,0,1.4.55,2,2,0,0,0,1.12-.29,1.9,1.9,0,0,0,.69-1,0.66,0.66,0,0,1,.14-0.23,0.31,0.31,0,0,1,.21-0.06h0.62a0.33,0.33,0,0,1,.23.1,0.26,0.26,0,0,1,.09.22,2.15,2.15,0,0,1-.37,1,2.68,2.68,0,0,1-1,.9,3.63,3.63,0,0,1-1.7.36A3.15,3.15,0,0,1,790.56,317.39Z"/><path class="cls-1" d="M798.49,318a0.31,0.31,0,0,1-.09-0.23v-9.3a0.31,0.31,0,0,1,.09-0.24,0.33,0.33,0,0,1,.23-0.08h0.64a0.29,0.29,0,0,1,.32.32v3.26a2.79,2.79,0,0,1,1-.79,3.08,3.08,0,0,1,1.37-.27,2.63,2.63,0,0,1,2.09.86,3.34,3.34,0,0,1,.75,2.27v4a0.31,0.31,0,0,1-.32.32h-0.66a0.31,0.31,0,0,1-.32-0.32v-3.88a2.3,2.3,0,0,0-.49-1.57,1.78,1.78,0,0,0-1.41-.56,1.86,1.86,0,0,0-1.43.57,2.19,2.19,0,0,0-.53,1.56v3.88a0.31,0.31,0,0,1-.32.32h-0.64A0.32,0.32,0,0,1,798.49,318Z"/><path class="cls-1" d="M812.8,317.26a4,4,0,0,1-1-2.95v-5.68a0.35,0.35,0,0,1,.08-0.25,0.29,0.29,0,0,1,.22-0.09h0.67a0.31,0.31,0,0,1,.34.34v5.71a2.88,2.88,0,0,0,.64,2,2.38,2.38,0,0,0,1.81.67,2.34,2.34,0,0,0,1.8-.68,2.88,2.88,0,0,0,.64-2v-5.71a0.35,0.35,0,0,1,.08-0.25,0.31,0.31,0,0,1,.24-0.09H819a0.32,0.32,0,0,1,.23.09,0.33,0.33,0,0,1,.09.25v5.68a4,4,0,0,1-1,2.95A4.47,4.47,0,0,1,812.8,317.26Z"/><path class="cls-1" d="M823,317.92a2.71,2.71,0,0,1-1-.72,1.19,1.19,0,0,1-.32-0.67,0.26,0.26,0,0,1,.1-0.22,0.34,0.34,0,0,1,.21-0.08h0.59a0.27,0.27,0,0,1,.13,0,0.6,0.6,0,0,1,.13.13,2.54,2.54,0,0,0,.72.62,2.19,2.19,0,0,0,1.07.22,2.28,2.28,0,0,0,1.21-.28,0.9,0.9,0,0,0,.46-0.81,0.79,0.79,0,0,0-.2-0.56,1.69,1.69,0,0,0-.65-0.38,11.08,11.08,0,0,0-1.35-.36,3.5,3.5,0,0,1-1.72-.77,1.76,1.76,0,0,1-.5-1.3,1.83,1.83,0,0,1,.31-1,2.22,2.22,0,0,1,.92-0.78,3.24,3.24,0,0,1,1.45-.3,3.5,3.5,0,0,1,1.5.29,2.61,2.61,0,0,1,.94.69,1.16,1.16,0,0,1,.32.66,0.27,0.27,0,0,1-.09.21,0.31,0.31,0,0,1-.22.08h-0.53a0.29,0.29,0,0,1-.28-0.15q-0.24-.27-0.4-0.41a1.31,1.31,0,0,0-.47-0.25,2.4,2.4,0,0,0-.77-0.11,1.67,1.67,0,0,0-1.05.29,0.92,0.92,0,0,0-.36.76,0.8,0.8,0,0,0,.15.5,1.38,1.38,0,0,0,.59.38,8.22,8.22,0,0,0,1.29.36,4,4,0,0,1,1.88.8,1.74,1.74,0,0,1,.55,1.33,1.86,1.86,0,0,1-.34,1.09,2.25,2.25,0,0,1-1,.77,4.24,4.24,0,0,1-1.62.28A3.79,3.79,0,0,1,823,317.92Z"/><path class="cls-1" d="M830.73,318a2.36,2.36,0,0,1-.92-0.76,1.8,1.8,0,0,1-.34-1.07,1.83,1.83,0,0,1,.76-1.51,4.36,4.36,0,0,1,2.06-.78l2.1-.29v-0.41q0-1.44-1.67-1.44a1.86,1.86,0,0,0-1,.26,1.65,1.65,0,0,0-.57.61,0.44,0.44,0,0,1-.12.19,0.28,0.28,0,0,1-.17,0h-0.55a0.31,0.31,0,0,1-.31-0.31,1.37,1.37,0,0,1,.3-0.75,2.45,2.45,0,0,1,.93-0.74,3.42,3.42,0,0,1,1.54-.31,3,3,0,0,1,2.25.73,2.57,2.57,0,0,1,.68,1.82v4.55a0.31,0.31,0,0,1-.32.32h-0.62a0.29,0.29,0,0,1-.22-0.09,0.33,0.33,0,0,1-.08-0.23v-0.62a2.36,2.36,0,0,1-.9.77,3.26,3.26,0,0,1-1.51.31A2.88,2.88,0,0,1,830.73,318Zm3.06-1.34a2.4,2.4,0,0,0,.59-1.75v-0.39l-1.64.24a3.81,3.81,0,0,0-1.53.48,1,1,0,0,0-.52.84,1,1,0,0,0,.47.88,2,2,0,0,0,1.11.31A2,2,0,0,0,833.79,316.61Z"/><path class="cls-1" d="M839.47,320.78a2.5,2.5,0,0,1-1-.9,1.83,1.83,0,0,1-.29-0.87,0.28,0.28,0,0,1,.1-0.22,0.32,0.32,0,0,1,.22-0.09h0.62a0.34,0.34,0,0,1,.21.06,0.47,0.47,0,0,1,.14.23,1.68,1.68,0,0,0,1.78,1.12,2.29,2.29,0,0,0,1.55-.45,2,2,0,0,0,.5-1.58v-1a2.72,2.72,0,0,1-2.27,1,2.63,2.63,0,0,1-2.22-1,4,4,0,0,1-.78-2.41V314a4,4,0,0,1,.78-2.4,2.62,2.62,0,0,1,2.22-1,2.73,2.73,0,0,1,2.3,1.08v-0.6a0.34,0.34,0,0,1,.09-0.24,0.3,0.3,0,0,1,.23-0.1h0.6a0.3,0.3,0,0,1,.23.1,0.34,0.34,0,0,1,.09.24v6.79q0,3.23-3.26,3.23A3.81,3.81,0,0,1,839.47,320.78Zm3.31-4.35a2.63,2.63,0,0,0,.54-1.53c0-.08,0-0.25,0-0.49s0-.39,0-0.48a2.63,2.63,0,0,0-.54-1.53,1.76,1.76,0,0,0-1.48-.64,1.67,1.67,0,0,0-1.46.64,3,3,0,0,0-.5,1.65v0.74a3,3,0,0,0,.5,1.64,1.67,1.67,0,0,0,1.46.64A1.76,1.76,0,0,0,842.78,316.44Z"/><path class="cls-1" d="M848,317.35a3.66,3.66,0,0,1-.94-2.43V314a3.65,3.65,0,0,1,.94-2.41,3.38,3.38,0,0,1,4.67.08,3.93,3.93,0,0,1,.85,2.66v0.25a0.31,0.31,0,0,1-.32.32h-4.86V315a2.6,2.6,0,0,0,.56,1.55,1.67,1.67,0,0,0,1.37.64,2,2,0,0,0,1.07-.26,2.29,2.29,0,0,0,.62-0.54,0.74,0.74,0,0,1,.2-0.2,0.58,0.58,0,0,1,.24,0H853a0.34,0.34,0,0,1,.22.07,0.22,0.22,0,0,1,.09.18,1.24,1.24,0,0,1-.38.74,3.1,3.1,0,0,1-1.07.75,3.8,3.8,0,0,1-1.59.31A3,3,0,0,1,848,317.35Zm4.24-3.41v0a2.35,2.35,0,0,0-.53-1.6,1.79,1.79,0,0,0-1.43-.62,1.76,1.76,0,0,0-1.43.62,2.39,2.39,0,0,0-.52,1.6v0h3.91Z"/><path class="cls-1" d="M728.13,334.47l-1.65-9v-0.11a0.29,0.29,0,0,1,.29-0.29H728a0.45,0.45,0,0,1,.27.06,0.33,0.33,0,0,1,.11.22l1.16,6.3,1.25-4.06a0.48,0.48,0,0,1,.46-0.35H732a0.41,0.41,0,0,1,.29.1,0.55,0.55,0,0,1,.15.25l1.26,4.06,1.15-6.3a0.33,0.33,0,0,1,.39-0.28h1.26a0.27,0.27,0,0,1,.2.08,0.29,0.29,0,0,1,.08.21,0.39,0.39,0,0,1,0,.11l-1.65,9a0.47,0.47,0,0,1-.16.31,0.51,0.51,0,0,1-.34.11h-1a0.48,0.48,0,0,1-.32-0.11,0.5,0.5,0,0,1-.17-0.24l-1.57-4.65-1.57,4.65a0.47,0.47,0,0,1-.49.35h-1A0.48,0.48,0,0,1,728.13,334.47Z"/><path class="cls-1" d="M739.36,334.14a3.58,3.58,0,0,1-1-2.55v-0.35a4,4,0,0,1,.92-2.76,3.74,3.74,0,0,1,5.11,0,3.88,3.88,0,0,1,.9,2.69v0.29a0.33,0.33,0,0,1-.1.24,0.34,0.34,0,0,1-.25.1h-4.65v0.11a2.18,2.18,0,0,0,.43,1.3,1.32,1.32,0,0,0,1.1.51,1.58,1.58,0,0,0,1.3-.64,0.75,0.75,0,0,1,.2-0.19,0.57,0.57,0,0,1,.24,0h1.23a0.34,0.34,0,0,1,.22.07,0.23,0.23,0,0,1,.09.2,1.3,1.3,0,0,1-.4.79,3.3,3.3,0,0,1-1.14.79,4.13,4.13,0,0,1-1.72.34A3.4,3.4,0,0,1,739.36,334.14Zm4-3.53v0a2,2,0,0,0-.41-1.32,1.39,1.39,0,0,0-1.13-.5,1.37,1.37,0,0,0-1.12.5,2,2,0,0,0-.41,1.32v0h3.07Z"/><path class="cls-1" d="M749.31,334v0.52a0.32,0.32,0,0,1-.1.24,0.34,0.34,0,0,1-.25.1h-1.12a0.34,0.34,0,0,1-.34-0.34v-9.27a0.32,0.32,0,0,1,.1-0.25,0.34,0.34,0,0,1,.24-0.09h1.22a0.32,0.32,0,0,1,.34.34v3.11a3,3,0,0,1,4.32,0,3.81,3.81,0,0,1,.81,2.4c0,0.11,0,.27,0,0.46s0,0.34,0,.46a3.88,3.88,0,0,1-.81,2.42A3,3,0,0,1,749.31,334Zm3.29-2.37c0-.09,0-0.23,0-0.42s0-.33,0-0.42Q752.5,329,751,329a1.44,1.44,0,0,0-1.18.49,1.93,1.93,0,0,0-.43,1.19c0,0.11,0,.29,0,0.55s0,0.42,0,.53a2.17,2.17,0,0,0,.42,1.26,1.4,1.4,0,0,0,1.19.52Q752.5,333.52,752.6,331.67Z"/><path class="cls-1" d="M756.41,335.86a0.26,0.26,0,0,1-.06-0.21l0.36-2.39a0.46,0.46,0,0,1,.46-0.45h1.3a0.26,0.26,0,0,1,.25.25,0.66,0.66,0,0,1,0,.2l-0.91,2.32a0.48,0.48,0,0,1-.46.36h-0.73A0.22,0.22,0,0,1,756.41,335.86Z"/><path class="cls-1" d="M765,326.33a0.32,0.32,0,0,1-.1-0.24v-1a0.34,0.34,0,0,1,.1-0.25,0.32,0.32,0,0,1,.24-0.1h1.29a0.33,0.33,0,0,1,.35.35v1a0.31,0.31,0,0,1-.1.24,0.35,0.35,0,0,1-.25.1h-1.29A0.32,0.32,0,0,1,765,326.33Zm0.06,8.47a0.32,0.32,0,0,1-.1-0.24V328a0.32,0.32,0,0,1,.1-0.25,0.34,0.34,0,0,1,.24-0.09h1.19a0.34,0.34,0,0,1,.34.34v6.61a0.33,0.33,0,0,1-.34.34h-1.19A0.32,0.32,0,0,1,765.09,334.8Z"/><path class="cls-1" d="M770.37,334.07a3.84,3.84,0,0,1-1.12-2.87q0-.41,0-1.19t0-1.2a3.83,3.83,0,0,1,1.15-2.86,4.87,4.87,0,0,1,5.9,0,3.82,3.82,0,0,1,1.16,2.86q0,0.81,0,1.2t0,1.19a3.83,3.83,0,0,1-1.13,2.87A5.08,5.08,0,0,1,770.37,334.07Zm4.47-1.22a2.52,2.52,0,0,0,.59-1.72q0-.84,0-1.13t0-1.13a2.48,2.48,0,0,0-.6-1.71,2.21,2.21,0,0,0-3,0,2.44,2.44,0,0,0-.59,1.71c0,0.27,0,.65,0,1.13s0,0.85,0,1.13a2.46,2.46,0,0,0,.58,1.71A2.25,2.25,0,0,0,774.83,332.85Z"/><path class="cls-1" d="M781.26,334.66a3.2,3.2,0,0,1-1.36-1,2.35,2.35,0,0,1-.49-1.34,0.3,0.3,0,0,1,.08-0.2,0.28,0.28,0,0,1,.21-0.09H781a0.42,0.42,0,0,1,.25.07,0.73,0.73,0,0,1,.18.2,1.43,1.43,0,0,0,.64.8,2.49,2.49,0,0,0,1.36.32,2.69,2.69,0,0,0,1.48-.33,1,1,0,0,0,.5-0.9,0.85,0.85,0,0,0-.25-0.63,2.11,2.11,0,0,0-.76-0.44q-0.51-.19-1.52-0.46a5.94,5.94,0,0,1-2.42-1,2.27,2.27,0,0,1-.77-1.85,2.46,2.46,0,0,1,.45-1.45,3,3,0,0,1,1.28-1,4.81,4.81,0,0,1,1.94-.36,4.61,4.61,0,0,1,2,.41,3.32,3.32,0,0,1,1.29,1,2.24,2.24,0,0,1,.47,1.21,0.29,0.29,0,0,1-.08.2,0.27,0.27,0,0,1-.21.09h-1.33a0.42,0.42,0,0,1-.42-0.25,1.09,1.09,0,0,0-.55-0.75,2.54,2.54,0,0,0-2.39,0,1,1,0,0,0-.44.85,0.91,0.91,0,0,0,.22.63,1.83,1.83,0,0,0,.7.44,12.64,12.64,0,0,0,1.39.43,9.65,9.65,0,0,1,2,.63,2.58,2.58,0,0,1,1.08.88,2.43,2.43,0,0,1,.35,1.36,2.56,2.56,0,0,1-.5,1.58,3.09,3.09,0,0,1-1.4,1,5.77,5.77,0,0,1-2.09.35A5.53,5.53,0,0,1,781.26,334.66Z"/><path class="cls-1" d="M789.25,335.86a0.26,0.26,0,0,1-.06-0.21l0.36-2.39a0.46,0.46,0,0,1,.46-0.45h1.3a0.26,0.26,0,0,1,.25.25,0.66,0.66,0,0,1,0,.2l-0.91,2.32a0.48,0.48,0,0,1-.46.36h-0.73A0.22,0.22,0,0,1,789.25,335.86Z"/><path class="cls-1" d="M796.83,334.81a0.29,0.29,0,0,1-.08-0.21l0-.13,3.36-9a0.51,0.51,0,0,1,.5-0.35h1.54a0.5,0.5,0,0,1,.5.35l3.36,9,0,0.13a0.27,0.27,0,0,1-.09.21,0.3,0.3,0,0,1-.2.08h-1.25a0.41,0.41,0,0,1-.41-0.27l-0.64-1.69h-4.14l-0.64,1.69a0.41,0.41,0,0,1-.41.27H797A0.29,0.29,0,0,1,796.83,334.81Zm3-3.5H803L801.41,327Z"/><path class="cls-1" d="M808,334.8a0.32,0.32,0,0,1-.1-0.24V328a0.32,0.32,0,0,1,.1-0.25,0.34,0.34,0,0,1,.24-0.09h1.16a0.31,0.31,0,0,1,.34.34v0.57a2.85,2.85,0,0,1,2.34-1,2.61,2.61,0,0,1,2,.84,3.33,3.33,0,0,1,.76,2.31v3.93a0.34,0.34,0,0,1-.09.24,0.32,0.32,0,0,1-.25.1h-1.26a0.34,0.34,0,0,1-.34-0.34v-3.85a1.86,1.86,0,0,0-.4-1.27,1.44,1.44,0,0,0-1.14-.46,1.5,1.5,0,0,0-1.15.46,1.77,1.77,0,0,0-.43,1.26v3.85a0.34,0.34,0,0,1-.09.24,0.32,0.32,0,0,1-.25.1h-1.25A0.32,0.32,0,0,1,808,334.8Z"/><path class="cls-1" d="M817.87,334.13a3.94,3.94,0,0,1-.83-2.42v-0.92a3.87,3.87,0,0,1,.82-2.4,3,3,0,0,1,4.32,0v-3.11a0.32,0.32,0,0,1,.1-0.25,0.34,0.34,0,0,1,.24-0.09h1.22a0.32,0.32,0,0,1,.34.34v9.27a0.34,0.34,0,0,1-.09.24,0.32,0.32,0,0,1-.25.1H822.6a0.34,0.34,0,0,1-.34-0.34V334A3,3,0,0,1,817.87,334.13Zm3.88-1.12a2.26,2.26,0,0,0,.43-1.27c0-.11,0-0.29,0-0.53s0-.43,0-0.55a1.93,1.93,0,0,0-.43-1.19,1.44,1.44,0,0,0-1.18-.49q-1.5,0-1.6,1.85v0.84q0.1,1.85,1.6,1.85A1.39,1.39,0,0,0,821.75,333Z"/><path class="cls-1" d="M826.73,334.8a0.32,0.32,0,0,1-.1-0.24V328a0.34,0.34,0,0,1,.1-0.25,0.32,0.32,0,0,1,.24-0.1h1.15a0.34,0.34,0,0,1,.35.35v0.57a2.38,2.38,0,0,1,2-.92h0.59a0.31,0.31,0,0,1,.34.34v1a0.34,0.34,0,0,1-.09.24,0.32,0.32,0,0,1-.25.1H830a1.31,1.31,0,0,0-1.41,1.41v3.84a0.33,0.33,0,0,1-.34.34H827A0.32,0.32,0,0,1,826.73,334.8Z"/><path class="cls-1" d="M833.79,334.19a3.25,3.25,0,0,1-1-2.32v-1.23a3.23,3.23,0,0,1,1-2.32,4.2,4.2,0,0,1,5.05,0,3.24,3.24,0,0,1,1,2.32q0,0.17,0,.62t0,0.62a3.25,3.25,0,0,1-1,2.32A4.26,4.26,0,0,1,833.79,334.19Zm3.69-1a2.13,2.13,0,0,0,.43-1.36c0-.09,0-0.28,0-0.55s0-.45,0-0.55a2.14,2.14,0,0,0-.43-1.37,1.42,1.42,0,0,0-1.13-.47,1.44,1.44,0,0,0-1.15.47,2.14,2.14,0,0,0-.43,1.37v1.09a2.1,2.1,0,0,0,.43,1.36,1.45,1.45,0,0,0,1.15.46A1.42,1.42,0,0,0,837.48,333.16Z"/><path class="cls-1" d="M842.14,326.33a0.32,0.32,0,0,1-.1-0.24v-1a0.34,0.34,0,0,1,.1-0.25,0.32,0.32,0,0,1,.24-0.1h1.29a0.33,0.33,0,0,1,.35.35v1a0.31,0.31,0,0,1-.1.24,0.35,0.35,0,0,1-.25.1h-1.29A0.32,0.32,0,0,1,842.14,326.33Zm0.06,8.47a0.32,0.32,0,0,1-.1-0.24V328a0.32,0.32,0,0,1,.1-0.25,0.34,0.34,0,0,1,.24-0.09h1.19a0.34,0.34,0,0,1,.34.34v6.61a0.33,0.33,0,0,1-.34.34h-1.19A0.32,0.32,0,0,1,842.2,334.8Z"/><path class="cls-1" d="M847,334.13a3.94,3.94,0,0,1-.83-2.42v-0.92a3.87,3.87,0,0,1,.82-2.4,3,3,0,0,1,4.32,0v-3.11a0.32,0.32,0,0,1,.1-0.25,0.34,0.34,0,0,1,.24-0.09h1.22a0.31,0.31,0,0,1,.34.34v9.27a0.34,0.34,0,0,1-.09.24,0.32,0.32,0,0,1-.25.1h-1.13a0.33,0.33,0,0,1-.34-0.34V334A3,3,0,0,1,847,334.13Zm3.88-1.12a2.27,2.27,0,0,0,.43-1.27c0-.11,0-0.29,0-0.53s0-.43,0-0.55a1.94,1.94,0,0,0-.43-1.19,1.44,1.44,0,0,0-1.18-.49q-1.5,0-1.6,1.85v0.84q0.1,1.85,1.6,1.85A1.38,1.38,0,0,0,850.93,333Z"/><line class="cls-2" x1="84.18" y1="83.09" x2="854.18" y2="83.09"/><line class="cls-2" x1="84.18" y1="151.09" x2="854.18" y2="151.09"/><line class="cls-2" x1="84.18" y1="219.09" x2="854.18" y2="219.09"/><line class="cls-2" x1="84.18" y1="287.09" x2="854.18" y2="287.09"/><line class="cls-2" x1="84.18" y1="355.09" x2="854.18" y2="355.09"/><line class="cls-2" x1="84.18" y1="355.09" x2="84.18" y2="359.09"/><line class="cls-2" x1="469.18" y1="355.09" x2="469.18" y2="359.09"/><line class="cls-2" x1="854.18" y1="355.09" x2="854.18" y2="359.09"/><path class="cls-3" d="M106.5,249a0.32,0.32,0,0,1-.08-0.23v-9.16a0.32,0.32,0,0,1,.08-0.23,0.29,0.29,0,0,1,.22-0.09h0.7a0.29,0.29,0,0,1,.22.09,0.32,0.32,0,0,1,.08.23v8.3h4.68a0.33,0.33,0,0,1,.25.09,0.31,0.31,0,0,1,.09.23v0.53a0.3,0.3,0,0,1-.1.23,0.34,0.34,0,0,1-.24.09h-5.68A0.29,0.29,0,0,1,106.5,249Z"/><path class="cls-3" d="M115.54,249a2.37,2.37,0,0,1-.92-0.76,1.81,1.81,0,0,1-.34-1.07,1.83,1.83,0,0,1,.76-1.51,4.36,4.36,0,0,1,2.06-.78l2.1-.29v-0.41q0-1.44-1.67-1.44a1.86,1.86,0,0,0-1,.26,1.65,1.65,0,0,0-.57.61,0.44,0.44,0,0,1-.12.19,0.27,0.27,0,0,1-.17,0h-0.55a0.31,0.31,0,0,1-.31-0.31,1.36,1.36,0,0,1,.3-0.75A2.45,2.45,0,0,1,116,242a3.42,3.42,0,0,1,1.54-.31,3,3,0,0,1,2.25.73,2.57,2.57,0,0,1,.68,1.82v4.55a0.31,0.31,0,0,1-.32.32h-0.62a0.29,0.29,0,0,1-.22-0.09,0.32,0.32,0,0,1-.08-0.23v-0.62a2.36,2.36,0,0,1-.9.77,3.25,3.25,0,0,1-1.51.31A2.88,2.88,0,0,1,115.54,249Zm3.06-1.34a2.4,2.4,0,0,0,.59-1.75v-0.39l-1.64.24a3.81,3.81,0,0,0-1.53.48,1,1,0,0,0-.52.84,1,1,0,0,0,.47.88,2,2,0,0,0,1.11.31A2,2,0,0,0,118.6,247.61Z"/><path class="cls-3" d="M123.85,248.37a3.43,3.43,0,0,1-.73-2.29v-3.95a0.31,0.31,0,0,1,.32-0.32h0.64a0.31,0.31,0,0,1,.32.32V246q0,2.13,1.85,2.13a1.84,1.84,0,0,0,1.42-.57,2.21,2.21,0,0,0,.52-1.56v-3.88a0.31,0.31,0,0,1,.32-0.32h0.64a0.31,0.31,0,0,1,.32.32v6.64a0.31,0.31,0,0,1-.32.32h-0.6a0.31,0.31,0,0,1-.32-0.32v-0.63a2.68,2.68,0,0,1-1,.82,3.09,3.09,0,0,1-1.39.27A2.55,2.55,0,0,1,123.85,248.37Z"/><path class="cls-3" d="M132.38,249a0.31,0.31,0,0,1-.09-0.23v-6.64a0.31,0.31,0,0,1,.32-0.32h0.6a0.29,0.29,0,0,1,.32.32v0.62a3,3,0,0,1,1-.8,3,3,0,0,1,1.38-.28,2.61,2.61,0,0,1,2.09.86,3.36,3.36,0,0,1,.74,2.27v4a0.31,0.31,0,0,1-.32.32h-0.64a0.31,0.31,0,0,1-.32-0.32v-3.88a2.3,2.3,0,0,0-.49-1.57,1.76,1.76,0,0,0-1.4-.56,1.87,1.87,0,0,0-1.43.57,2.19,2.19,0,0,0-.53,1.56v3.88a0.31,0.31,0,0,1-.32.32h-0.64A0.31,0.31,0,0,1,132.38,249Z"/><path class="cls-3" d="M142,248.39a3.36,3.36,0,0,1-.88-2.37v-1.12a3.36,3.36,0,0,1,.88-2.37,3.14,3.14,0,0,1,2.34-.85,3.69,3.69,0,0,1,1.7.36,2.63,2.63,0,0,1,1,.89,2.16,2.16,0,0,1,.37,1.06,0.26,0.26,0,0,1-.09.22,0.33,0.33,0,0,1-.23.1h-0.62a0.3,0.3,0,0,1-.21-0.06,0.64,0.64,0,0,1-.14-0.23,1.89,1.89,0,0,0-.69-1,2,2,0,0,0-1.11-.29,1.84,1.84,0,0,0-1.4.55,2.49,2.49,0,0,0-.56,1.67v1a2.48,2.48,0,0,0,.56,1.67,1.84,1.84,0,0,0,1.4.55,2,2,0,0,0,1.12-.29,1.91,1.91,0,0,0,.69-1,0.65,0.65,0,0,1,.14-0.23,0.3,0.3,0,0,1,.21-0.06h0.62a0.33,0.33,0,0,1,.23.1,0.25,0.25,0,0,1,.09.22,2.15,2.15,0,0,1-.37,1,2.68,2.68,0,0,1-1,.9,3.63,3.63,0,0,1-1.7.36A3.14,3.14,0,0,1,142,248.39Z"/><path class="cls-3" d="M149.95,249a0.31,0.31,0,0,1-.09-0.23v-9.3a0.31,0.31,0,0,1,.09-0.24,0.33,0.33,0,0,1,.23-0.08h0.64a0.29,0.29,0,0,1,.32.32v3.26a2.78,2.78,0,0,1,1-.79,3.07,3.07,0,0,1,1.36-.27,2.63,2.63,0,0,1,2.09.86,3.34,3.34,0,0,1,.75,2.27v4a0.31,0.31,0,0,1-.32.32h-0.66a0.31,0.31,0,0,1-.32-0.32v-3.88a2.3,2.3,0,0,0-.49-1.57,1.78,1.78,0,0,0-1.41-.56,1.87,1.87,0,0,0-1.43.57,2.19,2.19,0,0,0-.53,1.56v3.88a0.31,0.31,0,0,1-.32.32h-0.64A0.31,0.31,0,0,1,149.95,249Z"/><path class="cls-3" d="M106.5,265.8a0.32,0.32,0,0,1-.08-0.23v-9.14a0.34,0.34,0,0,1,.08-0.25,0.29,0.29,0,0,1,.22-0.09h5.68a0.31,0.31,0,0,1,.34.34v0.52a0.31,0.31,0,0,1-.09.23,0.33,0.33,0,0,1-.25.09h-4.69v3.32h4.41a0.33,0.33,0,0,1,.25.09,0.31,0.31,0,0,1,.09.23v0.53a0.3,0.3,0,0,1-.1.23,0.34,0.34,0,0,1-.24.09h-4.41v3.81a0.3,0.3,0,0,1-.1.23,0.34,0.34,0,0,1-.24.09h-0.66A0.29,0.29,0,0,1,106.5,265.8Z"/><path class="cls-3" d="M115.54,265.15a3.67,3.67,0,0,1-.94-2.43v-0.94a3.66,3.66,0,0,1,.94-2.41,3.38,3.38,0,0,1,4.67.08,3.93,3.93,0,0,1,.85,2.66v0.25a0.31,0.31,0,0,1-.32.32h-4.86v0.13a2.61,2.61,0,0,0,.56,1.55,1.67,1.67,0,0,0,1.37.64,2,2,0,0,0,1.07-.26,2.28,2.28,0,0,0,.62-0.54,0.72,0.72,0,0,1,.2-0.2,0.57,0.57,0,0,1,.24,0h0.62a0.34,0.34,0,0,1,.22.07,0.22,0.22,0,0,1,.09.18,1.24,1.24,0,0,1-.38.74,3.1,3.1,0,0,1-1.07.75,3.8,3.8,0,0,1-1.59.31A3,3,0,0,1,115.54,265.15Zm4.24-3.41v0a2.36,2.36,0,0,0-.53-1.6,1.79,1.79,0,0,0-1.43-.62,1.77,1.77,0,0,0-1.43.62,2.4,2.4,0,0,0-.52,1.6v0h3.91Z"/><path class="cls-3" d="M124.71,265v0.6a0.31,0.31,0,0,1-.32.32H123.8a0.31,0.31,0,0,1-.32-0.32v-9.3a0.31,0.31,0,0,1,.09-0.24,0.33,0.33,0,0,1,.23-0.08h0.63a0.31,0.31,0,0,1,.32.32v3.23a2.67,2.67,0,0,1,2.27-1,2.6,2.6,0,0,1,2.21,1,4,4,0,0,1,.78,2.4c0,0.1,0,.24,0,0.42s0,0.32,0,.42a4,4,0,0,1-.78,2.4,2.6,2.6,0,0,1-2.21,1A2.71,2.71,0,0,1,124.71,265Zm3.51-.66a2.93,2.93,0,0,0,.5-1.65c0-.09,0-0.23,0-0.41q0-2.69-2-2.69a1.78,1.78,0,0,0-1.46.62,2.38,2.38,0,0,0-.54,1.48c0,0.1,0,.28,0,0.55s0,0.43,0,.53a2.62,2.62,0,0,0,.52,1.55,1.74,1.74,0,0,0,1.48.65A1.7,1.7,0,0,0,128.23,264.31Z"/><path class="cls-3" d="M132.58,265.8a0.31,0.31,0,0,1-.09-0.23V259a0.33,0.33,0,0,1,.09-0.24,0.3,0.3,0,0,1,.23-0.1h0.59a0.31,0.31,0,0,1,.34.34v0.62a2.09,2.09,0,0,1,1.95-1h0.55a0.29,0.29,0,0,1,.32.32v0.52a0.33,0.33,0,0,1-.08.23,0.31,0.31,0,0,1-.24.09h-0.8a1.62,1.62,0,0,0-1.21.45,1.66,1.66,0,0,0-.44,1.22v4.13a0.3,0.3,0,0,1-.1.23,0.34,0.34,0,0,1-.24.09h-0.63A0.31,0.31,0,0,1,132.58,265.8Z"/><path class="cls-3" d="M139.11,265.17a3.43,3.43,0,0,1-.73-2.29v-3.95a0.32,0.32,0,0,1,.09-0.23,0.31,0.31,0,0,1,.23-0.09h0.64a0.31,0.31,0,0,1,.32.32v3.88q0,2.13,1.85,2.13a1.84,1.84,0,0,0,1.42-.57,2.21,2.21,0,0,0,.53-1.56v-3.88a0.32,0.32,0,0,1,.09-0.23,0.31,0.31,0,0,1,.23-0.09h0.64a0.31,0.31,0,0,1,.32.32v6.64a0.31,0.31,0,0,1-.32.32h-0.6a0.31,0.31,0,0,1-.32-0.32v-0.63a2.69,2.69,0,0,1-1,.82,3.1,3.1,0,0,1-1.39.27A2.55,2.55,0,0,1,139.11,265.17Z"/><path class="cls-3" d="M148.3,265.75a2.37,2.37,0,0,1-.92-0.76,1.81,1.81,0,0,1-.34-1.07,1.83,1.83,0,0,1,.76-1.51,4.36,4.36,0,0,1,2.06-.78l2.1-.29v-0.41q0-1.44-1.67-1.44a1.86,1.86,0,0,0-1,.26,1.65,1.65,0,0,0-.57.61,0.44,0.44,0,0,1-.12.19,0.27,0.27,0,0,1-.17,0h-0.55a0.31,0.31,0,0,1-.31-0.31,1.36,1.36,0,0,1,.3-0.75,2.45,2.45,0,0,1,.93-0.74,3.42,3.42,0,0,1,1.54-.31,3,3,0,0,1,2.25.73,2.57,2.57,0,0,1,.68,1.82v4.55a0.31,0.31,0,0,1-.32.32h-0.62a0.29,0.29,0,0,1-.22-0.09,0.32,0.32,0,0,1-.08-0.23V265a2.36,2.36,0,0,1-.9.77,3.25,3.25,0,0,1-1.51.31A2.88,2.88,0,0,1,148.3,265.75Zm3.06-1.34a2.4,2.4,0,0,0,.59-1.75v-0.39l-1.64.24a3.81,3.81,0,0,0-1.53.48,1,1,0,0,0-.52.84,1,1,0,0,0,.47.88,2,2,0,0,0,1.11.31A2,2,0,0,0,151.36,264.41Z"/><path class="cls-3" d="M156,265.8a0.31,0.31,0,0,1-.09-0.23V259a0.34,0.34,0,0,1,.09-0.24,0.3,0.3,0,0,1,.23-0.1h0.59a0.31,0.31,0,0,1,.34.34v0.62a2.09,2.09,0,0,1,1.95-1h0.55a0.29,0.29,0,0,1,.32.32v0.52a0.32,0.32,0,0,1-.08.23,0.31,0.31,0,0,1-.24.09h-0.8a1.62,1.62,0,0,0-1.21.45,1.66,1.66,0,0,0-.44,1.22v4.13a0.3,0.3,0,0,1-.1.23,0.34,0.34,0,0,1-.24.09h-0.63A0.31,0.31,0,0,1,156,265.8Z"/><path class="cls-3" d="M163,268.47a0.27,0.27,0,0,1-.08-0.2A1.32,1.32,0,0,1,163,268l1.09-2.56-2.67-6.31a0.66,0.66,0,0,1-.08-0.24,0.34,0.34,0,0,1,.1-0.21,0.27,0.27,0,0,1,.2-0.08h0.64a0.36,0.36,0,0,1,.34.22l2.16,5.15,2.21-5.15a0.36,0.36,0,0,1,.34-0.22h0.63a0.29,0.29,0,0,1,.28.28,0.64,0.64,0,0,1-.07.25l-4,9.18a0.58,0.58,0,0,1-.15.17,0.33,0.33,0,0,1-.2.06h-0.62A0.29,0.29,0,0,1,163,268.47Z"/><path class="cls-3" d="M173.79,265.8a0.31,0.31,0,0,1-.09-0.23v-0.42a0.82,0.82,0,0,1,.35-0.62l3.05-3a8.7,8.7,0,0,0,1.43-1.44,2,2,0,0,0,.39-1.19,1.77,1.77,0,0,0-.46-1.29,2.1,2.1,0,0,0-2.67,0,2.22,2.22,0,0,0-.6,1.32,0.37,0.37,0,0,1-.14.24,0.38,0.38,0,0,1-.22.08h-0.67a0.29,0.29,0,0,1-.21-0.08,0.27,0.27,0,0,1-.08-0.2,3.27,3.27,0,0,1,.4-1.43,2.94,2.94,0,0,1,1.1-1.13,3.34,3.34,0,0,1,1.76-.44,3.14,3.14,0,0,1,2.36.82,2.87,2.87,0,0,1,.79,2.08,3,3,0,0,1-.43,1.59,6.51,6.51,0,0,1-1.34,1.49l-2.76,2.8h4.41a0.29,0.29,0,0,1,.32.32v0.53a0.31,0.31,0,0,1-.32.32H174A0.31,0.31,0,0,1,173.79,265.8Z"/><path class="cls-3" d="M183.67,265a4.59,4.59,0,0,1-.89-2.76v-2.45a4.45,4.45,0,0,1,.89-2.75,3.84,3.84,0,0,1,5.29,0,4.45,4.45,0,0,1,.89,2.75q0,0.39,0,1.25t0,1.2A4.59,4.59,0,0,1,189,265,3.84,3.84,0,0,1,183.67,265Zm4.26-.82a3.38,3.38,0,0,0,.57-2q0-.41,0-1.16t0-1.15a3.36,3.36,0,0,0-.58-2,2.17,2.17,0,0,0-3.23,0,3.39,3.39,0,0,0-.57,2v2.31a3.38,3.38,0,0,0,.57,2A2.19,2.19,0,0,0,187.94,264.16Z"/><path class="cls-3" d="M195.09,265.8a0.33,0.33,0,0,1-.08-0.23v-7.9l-2.35,1.81a0.32,0.32,0,0,1-.21.08,0.31,0.31,0,0,1-.24-0.14l-0.34-.43a0.33,0.33,0,0,1-.07-0.2,0.3,0.3,0,0,1,.14-0.25l3-2.35a0.66,0.66,0,0,1,.36-0.1H196a0.31,0.31,0,0,1,.32.32v9.16a0.31,0.31,0,0,1-.32.32h-0.69A0.29,0.29,0,0,1,195.09,265.8Z"/><path class="cls-3" d="M200.46,265.58a3.11,3.11,0,0,1-1.25-1.22,3.4,3.4,0,0,1-.43-1.68,4.54,4.54,0,0,1,1-2.58l2.67-3.72,0.08-.1a0.46,0.46,0,0,1,.16-0.13,0.5,0.5,0,0,1,.22,0h0.69a0.25,0.25,0,0,1,.2.09,0.32,0.32,0,0,1,.08.22,0.38,0.38,0,0,1-.07.18l-2,2.86a3.63,3.63,0,0,1,.81-0.08,3.5,3.5,0,0,1,1.8.46,3.24,3.24,0,0,1,1.63,2.85,3.42,3.42,0,0,1-.43,1.67,3.15,3.15,0,0,1-1.24,1.24,3.81,3.81,0,0,1-1.92.46A3.93,3.93,0,0,1,200.46,265.58Zm3.06-1a2,2,0,0,0,.83-0.75,2.23,2.23,0,0,0,.31-1.2,2.17,2.17,0,0,0-.31-1.18,2.07,2.07,0,0,0-.83-0.76,2.55,2.55,0,0,0-2.24,0,2,2,0,0,0-.83.76,2.46,2.46,0,0,0,0,2.38,2,2,0,0,0,.83.75,2.53,2.53,0,0,0,1.12.25A2.55,2.55,0,0,0,203.52,264.62Z"/><line class="cls-4" x1="106.18" y1="353.09" x2="106.18" y2="276.09"/><path class="cls-3" d="M299.21,240.35a0.31,0.31,0,0,1-.09-0.23v-0.73a0.34,0.34,0,0,1,.09-0.24,0.3,0.3,0,0,1,.23-0.1h0.83a0.33,0.33,0,0,1,.34.34v0.73a0.3,0.3,0,0,1-.1.23,0.34,0.34,0,0,1-.24.09h-0.83A0.31,0.31,0,0,1,299.21,240.35Zm0.11,8.65a0.31,0.31,0,0,1-.09-0.23v-6.64a0.31,0.31,0,0,1,.32-0.32h0.62a0.31,0.31,0,0,1,.32.32v6.64a0.31,0.31,0,0,1-.32.32h-0.62A0.31,0.31,0,0,1,299.33,249Z"/><path class="cls-3" d="M304.16,248.28a4,4,0,0,1-1-2.89q0-.42,0-1.19t0-1.18a4,4,0,0,1,1.08-2.88,4.42,4.42,0,0,1,5.55,0,4,4,0,0,1,1.08,2.88q0,0.81,0,1.18t0,1.19a4,4,0,0,1-1,2.89A4.6,4.6,0,0,1,304.16,248.28Zm4.61-.88a3,3,0,0,0,.73-2.08q0-.84,0-1.12t0-1.12a3.06,3.06,0,0,0-.73-2.09,2.39,2.39,0,0,0-1.79-.69,2.42,2.42,0,0,0-1.8.69,3,3,0,0,0-.72,2.09c0,0.27,0,.64,0,1.12s0,0.84,0,1.12a3,3,0,0,0,.71,2.08A2.72,2.72,0,0,0,308.77,247.39Z"/><path class="cls-3" d="M314.75,248.87a3.07,3.07,0,0,1-1.29-1,2.27,2.27,0,0,1-.47-1.28,0.27,0.27,0,0,1,.08-0.2,0.29,0.29,0,0,1,.21-0.08H314a0.36,0.36,0,0,1,.35.28,1.68,1.68,0,0,0,.72,1,2.89,2.89,0,0,0,1.7.43,3.07,3.07,0,0,0,1.78-.42,1.35,1.35,0,0,0,.59-1.16,1.1,1.1,0,0,0-.29-0.78,2.37,2.37,0,0,0-.85-0.54q-0.57-.23-1.7-0.57a8.44,8.44,0,0,1-1.71-.66,2.53,2.53,0,0,1-1-.86,2.39,2.39,0,0,1-.32-1.29,2.34,2.34,0,0,1,.41-1.35,2.71,2.71,0,0,1,1.18-.94,4.45,4.45,0,0,1,1.82-.34,4.17,4.17,0,0,1,1.87.39,3.05,3.05,0,0,1,1.18,1,2.22,2.22,0,0,1,.43,1.17,0.28,0.28,0,0,1-.08.21,0.29,0.29,0,0,1-.21.08h-0.7a0.35,0.35,0,0,1-.21-0.07,0.38,0.38,0,0,1-.14-0.21,1.41,1.41,0,0,0-.67-1,2.6,2.6,0,0,0-1.47-.39,2.71,2.71,0,0,0-1.51.37,1.23,1.23,0,0,0-.56,1.1,1.19,1.19,0,0,0,.26.8,2.17,2.17,0,0,0,.8.55,14.15,14.15,0,0,0,1.58.55,11.21,11.21,0,0,1,1.87.67,2.55,2.55,0,0,1,1,.83,2.24,2.24,0,0,1,.34,1.28,2.4,2.4,0,0,1-1,2.05,4.49,4.49,0,0,1-2.71.73A5,5,0,0,1,314.75,248.87Z"/><path class="cls-3" d="M328.26,248.88a2.7,2.7,0,0,1-1.13-1,2.58,2.58,0,0,1-.41-1.43,2.27,2.27,0,0,1,.52-1.5,5.4,5.4,0,0,1,1.46-1.17,5.88,5.88,0,0,1-.95-1.24,2.38,2.38,0,0,1-.27-1.11,2.14,2.14,0,0,1,.32-1.14,2.32,2.32,0,0,1,.92-0.84,3.1,3.1,0,0,1,2.7,0,2.25,2.25,0,0,1,.91.82,2.16,2.16,0,0,1,.32,1.16,2,2,0,0,1-.55,1.44A6.93,6.93,0,0,1,330.5,244l2.41,2.37a5.91,5.91,0,0,0,.76-2.16,0.33,0.33,0,0,1,.09-0.2A0.29,0.29,0,0,1,334,244h0.57a0.29,0.29,0,0,1,.21.08,0.28,0.28,0,0,1,.08.21,4.81,4.81,0,0,1-.31,1.41,6.68,6.68,0,0,1-.81,1.53l1.43,1.41a0.25,0.25,0,0,1,.11.21,0.24,0.24,0,0,1-.27.27h-0.74a0.51,0.51,0,0,1-.38-0.14l-0.92-.92a4.16,4.16,0,0,1-3,1.2A3.8,3.8,0,0,1,328.26,248.88Zm2.83-1a3.07,3.07,0,0,0,1-.71l-2.66-2.58a4.63,4.63,0,0,0-1.12.83,1.43,1.43,0,0,0-.39,1,1.49,1.49,0,0,0,.58,1.24,2.19,2.19,0,0,0,1.39.46A3,3,0,0,0,331.08,247.9ZM331,242.4a1.22,1.22,0,0,0,.43-0.94,1.16,1.16,0,0,0-.39-0.92,1.46,1.46,0,0,0-1-.34,1.43,1.43,0,0,0-1,.35,1.14,1.14,0,0,0-.41.91,1.51,1.51,0,0,0,.22.76,6,6,0,0,0,.83,1A6.54,6.54,0,0,0,331,242.4Z"/><path class="cls-3" d="M340.44,249a0.27,0.27,0,0,1-.08-0.2l0-.15,3.47-9.06a0.44,0.44,0,0,1,.45-0.31h0.9a0.43,0.43,0,0,1,.45.31l3.47,9.06,0,0.15a0.26,0.26,0,0,1-.09.2,0.29,0.29,0,0,1-.2.08h-0.66A0.34,0.34,0,0,1,348,249a0.36,0.36,0,0,1-.12-0.16l-0.78-2h-4.63l-0.77,2a0.37,0.37,0,0,1-.35.24h-0.67A0.27,0.27,0,0,1,340.44,249Zm2.39-3.33h3.84l-1.92-5Z"/><path class="cls-3" d="M351.26,249a0.31,0.31,0,0,1-.09-0.23v-6.64a0.31,0.31,0,0,1,.32-0.32h0.6a0.29,0.29,0,0,1,.32.32v0.62a3,3,0,0,1,1-.8,3,3,0,0,1,1.38-.28,2.6,2.6,0,0,1,2.09.86,3.36,3.36,0,0,1,.74,2.27v4a0.31,0.31,0,0,1-.32.32h-0.64a0.31,0.31,0,0,1-.32-0.32v-3.88a2.3,2.3,0,0,0-.49-1.57,1.76,1.76,0,0,0-1.4-.56,1.86,1.86,0,0,0-1.43.57,2.19,2.19,0,0,0-.53,1.56v3.88a0.31,0.31,0,0,1-.32.32H351.5A0.31,0.31,0,0,1,351.26,249Z"/><path class="cls-3" d="M360.79,248.28a4.09,4.09,0,0,1-.79-2.41V245a4.07,4.07,0,0,1,.8-2.4,2.61,2.61,0,0,1,2.2-1,2.72,2.72,0,0,1,2.27,1v-3.23a0.31,0.31,0,0,1,.32-0.32h0.63a0.32,0.32,0,0,1,.23.09,0.31,0.31,0,0,1,.09.23v9.3a0.31,0.31,0,0,1-.32.32h-0.6a0.29,0.29,0,0,1-.22-0.09,0.33,0.33,0,0,1-.08-0.23v-0.6a2.71,2.71,0,0,1-2.31,1.06A2.61,2.61,0,0,1,360.79,248.28Zm3.94-.79a2.71,2.71,0,0,0,.53-1.55c0-.1,0-0.28,0-0.53s0-.44,0-0.55a2.38,2.38,0,0,0-.54-1.48,1.78,1.78,0,0,0-1.46-.62,1.7,1.7,0,0,0-1.47.63,2.94,2.94,0,0,0-.5,1.65v0.41q0,2.69,2,2.69A1.72,1.72,0,0,0,364.73,247.49Z"/><path class="cls-3" d="M369.44,249a0.31,0.31,0,0,1-.09-0.23v-6.62a0.34,0.34,0,0,1,.09-0.24,0.3,0.3,0,0,1,.23-0.1h0.59a0.31,0.31,0,0,1,.34.34v0.62a2.09,2.09,0,0,1,1.95-1h0.55a0.29,0.29,0,0,1,.32.32v0.52a0.32,0.32,0,0,1-.08.23,0.31,0.31,0,0,1-.24.09h-0.8a1.62,1.62,0,0,0-1.21.45,1.66,1.66,0,0,0-.44,1.22v4.13a0.3,0.3,0,0,1-.1.23,0.34,0.34,0,0,1-.24.09h-0.63A0.31,0.31,0,0,1,369.44,249Z"/><path class="cls-3" d="M375.75,248.37a3.4,3.4,0,0,1-.89-2.31v-1.2a3.36,3.36,0,0,1,.9-2.31,3.64,3.64,0,0,1,4.72,0,3.36,3.36,0,0,1,.9,2.31c0,0.21,0,.41,0,0.6s0,0.4,0,.6a3.4,3.4,0,0,1-.89,2.31A3.68,3.68,0,0,1,375.75,248.37Zm3.79-.75a2.47,2.47,0,0,0,.57-1.63c0-.09,0-0.27,0-0.53s0-.44,0-0.53a2.47,2.47,0,0,0-.57-1.63,2.06,2.06,0,0,0-2.84,0,2.46,2.46,0,0,0-.57,1.63V246a2.47,2.47,0,0,0,.57,1.63A2.07,2.07,0,0,0,379.54,247.62Z"/><path class="cls-3" d="M383.86,240.35a0.31,0.31,0,0,1-.09-0.23v-0.73a0.34,0.34,0,0,1,.09-0.24,0.3,0.3,0,0,1,.23-0.1h0.83a0.33,0.33,0,0,1,.34.34v0.73a0.3,0.3,0,0,1-.1.23,0.34,0.34,0,0,1-.24.09h-0.83A0.31,0.31,0,0,1,383.86,240.35ZM384,249a0.31,0.31,0,0,1-.09-0.23v-6.64a0.31,0.31,0,0,1,.32-0.32h0.62a0.31,0.31,0,0,1,.32.32v6.64a0.31,0.31,0,0,1-.32.32H384.2A0.31,0.31,0,0,1,384,249Z"/><path class="cls-3" d="M388.39,248.28a4.09,4.09,0,0,1-.79-2.41V245a4.07,4.07,0,0,1,.8-2.4,2.61,2.61,0,0,1,2.2-1,2.72,2.72,0,0,1,2.27,1v-3.23a0.31,0.31,0,0,1,.32-0.32h0.63a0.32,0.32,0,0,1,.23.09,0.31,0.31,0,0,1,.09.23v9.3a0.31,0.31,0,0,1-.32.32h-0.6A0.29,0.29,0,0,1,393,249a0.33,0.33,0,0,1-.08-0.23v-0.6a2.71,2.71,0,0,1-2.31,1.06A2.61,2.61,0,0,1,388.39,248.28Zm3.94-.79a2.71,2.71,0,0,0,.53-1.55c0-.1,0-0.28,0-0.53s0-.44,0-0.55a2.38,2.38,0,0,0-.54-1.48,1.78,1.78,0,0,0-1.46-.62,1.7,1.7,0,0,0-1.47.63,2.94,2.94,0,0,0-.5,1.65v0.41q0,2.69,2,2.69A1.72,1.72,0,0,0,392.33,247.49Z"/><path class="cls-3" d="M298.55,265.81a0.27,0.27,0,0,1-.08-0.2l0-.15L302,256.4a0.44,0.44,0,0,1,.45-0.31h0.9a0.44,0.44,0,0,1,.45.31l3.47,9.06,0,0.15a0.26,0.26,0,0,1-.09.2,0.29,0.29,0,0,1-.2.08H306.3a0.34,0.34,0,0,1-.23-0.08,0.36,0.36,0,0,1-.12-0.16l-0.78-2h-4.63l-0.77,2a0.37,0.37,0,0,1-.35.24h-0.67A0.27,0.27,0,0,1,298.55,265.81Zm2.39-3.33h3.84l-1.92-5Z"/><path class="cls-3" d="M309.39,268.47a0.31,0.31,0,0,1-.09-0.24v-9.3a0.31,0.31,0,0,1,.09-0.24,0.33,0.33,0,0,1,.23-0.08h0.59a0.29,0.29,0,0,1,.32.32v0.62a2.72,2.72,0,0,1,2.31-1.08,2.64,2.64,0,0,1,2.21.93,3.91,3.91,0,0,1,.78,2.37c0,0.1,0,.26,0,0.48s0,0.37,0,.48a3.91,3.91,0,0,1-.78,2.37,3,3,0,0,1-4.47-.13v3.26a0.31,0.31,0,0,1-.32.32h-0.63A0.33,0.33,0,0,1,309.39,268.47Zm4.66-4.16a3,3,0,0,0,.5-1.65c0-.09,0-0.23,0-0.41q0-2.69-2-2.69a1.74,1.74,0,0,0-1.48.65,2.59,2.59,0,0,0-.53,1.53c0,0.1,0,.28,0,0.55s0,0.44,0,.55a2.38,2.38,0,0,0,.54,1.48,1.78,1.78,0,0,0,1.46.62A1.7,1.7,0,0,0,314,264.31Z"/><path class="cls-3" d="M318.41,268.47a0.31,0.31,0,0,1-.09-0.24v-9.3a0.31,0.31,0,0,1,.09-0.24,0.33,0.33,0,0,1,.23-0.08h0.59a0.29,0.29,0,0,1,.32.32v0.62a2.72,2.72,0,0,1,2.31-1.08,2.64,2.64,0,0,1,2.21.93,3.91,3.91,0,0,1,.78,2.37c0,0.1,0,.26,0,0.48s0,0.37,0,.48a3.91,3.91,0,0,1-.78,2.37,3,3,0,0,1-4.47-.13v3.26a0.31,0.31,0,0,1-.32.32h-0.63A0.33,0.33,0,0,1,318.41,268.47Zm4.66-4.16a2.93,2.93,0,0,0,.5-1.65c0-.09,0-0.23,0-0.41q0-2.69-2-2.69a1.74,1.74,0,0,0-1.48.65,2.59,2.59,0,0,0-.52,1.53c0,0.1,0,.28,0,0.55s0,0.44,0,.55a2.38,2.38,0,0,0,.54,1.48,1.78,1.78,0,0,0,1.46.62A1.7,1.7,0,0,0,323.06,264.31Z"/><path class="cls-3" d="M331.73,265.8a0.32,0.32,0,0,1-.08-0.23v-9.16a0.32,0.32,0,0,1,.08-0.23,0.29,0.29,0,0,1,.22-0.09h0.7a0.29,0.29,0,0,1,.22.09,0.32,0.32,0,0,1,.08.23v8.3h4.68a0.33,0.33,0,0,1,.25.09,0.31,0.31,0,0,1,.09.23v0.53a0.3,0.3,0,0,1-.1.23,0.34,0.34,0,0,1-.24.09H332A0.29,0.29,0,0,1,331.73,265.8Z"/><path class="cls-3" d="M340.76,265.75a2.37,2.37,0,0,1-.92-0.76,1.81,1.81,0,0,1-.34-1.07,1.83,1.83,0,0,1,.76-1.51,4.36,4.36,0,0,1,2.06-.78l2.1-.29v-0.41q0-1.44-1.67-1.44a1.86,1.86,0,0,0-1,.26,1.65,1.65,0,0,0-.57.61,0.44,0.44,0,0,1-.12.19,0.27,0.27,0,0,1-.17,0H340.3a0.31,0.31,0,0,1-.31-0.31,1.36,1.36,0,0,1,.3-0.75,2.45,2.45,0,0,1,.93-0.74,3.42,3.42,0,0,1,1.54-.31,3,3,0,0,1,2.25.73,2.57,2.57,0,0,1,.68,1.82v4.55a0.31,0.31,0,0,1-.32.32h-0.62a0.29,0.29,0,0,1-.22-0.09,0.32,0.32,0,0,1-.08-0.23V265a2.36,2.36,0,0,1-.9.77A3.25,3.25,0,0,1,342,266,2.88,2.88,0,0,1,340.76,265.75Zm3.06-1.34a2.4,2.4,0,0,0,.59-1.75v-0.39l-1.64.24a3.81,3.81,0,0,0-1.53.48,1,1,0,0,0-.52.84,1,1,0,0,0,.47.88,2,2,0,0,0,1.11.31A2,2,0,0,0,343.82,264.41Z"/><path class="cls-3" d="M349.07,265.17a3.43,3.43,0,0,1-.73-2.29v-3.95a0.31,0.31,0,0,1,.32-0.32h0.64a0.31,0.31,0,0,1,.32.32v3.88q0,2.13,1.85,2.13a1.84,1.84,0,0,0,1.42-.57,2.21,2.21,0,0,0,.52-1.56v-3.88a0.31,0.31,0,0,1,.32-0.32h0.64a0.31,0.31,0,0,1,.32.32v6.64a0.31,0.31,0,0,1-.32.32h-0.6a0.31,0.31,0,0,1-.32-0.32v-0.63a2.68,2.68,0,0,1-1,.82,3.09,3.09,0,0,1-1.39.27A2.55,2.55,0,0,1,349.07,265.17Z"/><path class="cls-3" d="M357.61,265.8a0.31,0.31,0,0,1-.09-0.23v-6.64a0.31,0.31,0,0,1,.32-0.32h0.6a0.29,0.29,0,0,1,.32.32v0.62a3,3,0,0,1,1-.8,3,3,0,0,1,1.38-.28,2.61,2.61,0,0,1,2.09.86,3.36,3.36,0,0,1,.74,2.27v4a0.31,0.31,0,0,1-.32.32H363a0.31,0.31,0,0,1-.32-0.32v-3.88a2.3,2.3,0,0,0-.49-1.57,1.76,1.76,0,0,0-1.4-.56,1.87,1.87,0,0,0-1.43.57,2.19,2.19,0,0,0-.53,1.56v3.88a0.31,0.31,0,0,1-.32.32h-0.64A0.31,0.31,0,0,1,357.61,265.8Z"/><path class="cls-3" d="M367.25,265.19a3.36,3.36,0,0,1-.88-2.37v-1.12a3.36,3.36,0,0,1,.88-2.37,3.14,3.14,0,0,1,2.34-.85,3.69,3.69,0,0,1,1.7.36,2.63,2.63,0,0,1,1,.89,2.16,2.16,0,0,1,.37,1.06,0.26,0.26,0,0,1-.09.22,0.33,0.33,0,0,1-.23.1h-0.62a0.3,0.3,0,0,1-.21-0.06,0.64,0.64,0,0,1-.14-0.23,1.89,1.89,0,0,0-.69-1,2,2,0,0,0-1.11-.29,1.84,1.84,0,0,0-1.4.55,2.49,2.49,0,0,0-.56,1.67v1a2.48,2.48,0,0,0,.56,1.67,1.84,1.84,0,0,0,1.4.55,2,2,0,0,0,1.12-.29,1.91,1.91,0,0,0,.69-1,0.65,0.65,0,0,1,.14-0.23,0.3,0.3,0,0,1,.21-0.06h0.62a0.33,0.33,0,0,1,.23.1,0.25,0.25,0,0,1,.09.22,2.15,2.15,0,0,1-.37,1,2.68,2.68,0,0,1-1,.9,3.63,3.63,0,0,1-1.7.36A3.14,3.14,0,0,1,367.25,265.19Z"/><path class="cls-3" d="M375.18,265.8a0.31,0.31,0,0,1-.09-0.23v-9.3a0.31,0.31,0,0,1,.09-0.24,0.33,0.33,0,0,1,.23-0.08h0.64a0.29,0.29,0,0,1,.32.32v3.26a2.78,2.78,0,0,1,1-.79,3.07,3.07,0,0,1,1.36-.27,2.63,2.63,0,0,1,2.09.86,3.34,3.34,0,0,1,.75,2.27v4a0.31,0.31,0,0,1-.32.32h-0.66a0.31,0.31,0,0,1-.32-0.32v-3.88a2.3,2.3,0,0,0-.49-1.57,1.78,1.78,0,0,0-1.41-.56,1.87,1.87,0,0,0-1.43.57,2.19,2.19,0,0,0-.53,1.56v3.88a0.31,0.31,0,0,1-.32.32h-0.64A0.31,0.31,0,0,1,375.18,265.8Z"/><line class="cls-4" x1="299.18" y1="336.84" x2="299.18" y2="276.09"/><path class="cls-3" d="M560.22,177a0.28,0.28,0,0,1-.08-0.21v-0.57a0.4,0.4,0,0,1,.07-0.24,1.07,1.07,0,0,1,.25-0.22l3.78-2.59-3.78-2.59a1.1,1.1,0,0,1-.25-0.21,0.4,0.4,0,0,1-.08-0.25v-0.57a0.26,0.26,0,0,1,.28-0.28,0.45,0.45,0,0,1,.2.06l0.15,0.08,4.37,3a1.09,1.09,0,0,1,.31.3,0.64,0.64,0,0,1,.09.34v0.24a0.64,0.64,0,0,1-.09.34,1,1,0,0,1-.31.29l-4.37,3a0.71,0.71,0,0,1-.35.15A0.27,0.27,0,0,1,560.22,177Z"/><path class="cls-3" d="M570.38,178a0.32,0.32,0,0,1-.08-0.23v-7.9l-2.35,1.81a0.32,0.32,0,0,1-.21.08,0.31,0.31,0,0,1-.24-0.14l-0.34-.43a0.33,0.33,0,0,1-.07-0.2,0.3,0.3,0,0,1,.14-0.25l3-2.35a0.66,0.66,0,0,1,.36-0.1h0.66a0.31,0.31,0,0,1,.32.32v9.16a0.31,0.31,0,0,1-.32.32h-0.69A0.29,0.29,0,0,1,570.38,178Z"/><path class="cls-3" d="M578.86,178a0.31,0.31,0,0,1-.09-0.23v-9.14a0.35,0.35,0,0,1,.08-0.25,0.31,0.31,0,0,1,.24-0.09h0.66a0.35,0.35,0,0,1,.35.21l3,5.73,3-5.73a0.36,0.36,0,0,1,.34-0.21h0.66a0.31,0.31,0,0,1,.24.09,0.35,0.35,0,0,1,.08.25v9.14a0.31,0.31,0,0,1-.32.32h-0.64a0.29,0.29,0,0,1-.22-0.09,0.33,0.33,0,0,1-.08-0.23v-7l-2.39,4.63a0.47,0.47,0,0,1-.45.29h-0.42a0.49,0.49,0,0,1-.45-0.29L580,170.81v7a0.31,0.31,0,0,1-.32.32h-0.63A0.31,0.31,0,0,1,578.86,178Z"/><path class="cls-3" d="M590.66,178a0.31,0.31,0,0,1-.09-0.23v-9.14a0.35,0.35,0,0,1,.08-0.25,0.31,0.31,0,0,1,.24-0.09h0.66a0.35,0.35,0,0,1,.35.21l3,5.73,3-5.73a0.36,0.36,0,0,1,.34-0.21h0.66a0.31,0.31,0,0,1,.24.09,0.35,0.35,0,0,1,.08.25v9.14a0.31,0.31,0,0,1-.32.32h-0.64A0.29,0.29,0,0,1,598,178a0.33,0.33,0,0,1-.08-0.23v-7l-2.39,4.63a0.47,0.47,0,0,1-.45.29h-0.42a0.49,0.49,0,0,1-.45-0.29l-2.38-4.63v7a0.31,0.31,0,0,1-.32.32h-0.63A0.31,0.31,0,0,1,590.66,178Z"/><path class="cls-3" d="M605.27,178a0.27,0.27,0,0,1-.08-0.2l0-.15,3.47-9.06a0.44,0.44,0,0,1,.45-0.31H610a0.43,0.43,0,0,1,.45.31l3.47,9.06,0,0.15a0.26,0.26,0,0,1-.09.2,0.29,0.29,0,0,1-.2.08H613a0.34,0.34,0,0,1-.23-0.08,0.36,0.36,0,0,1-.12-0.16l-0.78-2h-4.63l-0.77,2a0.37,0.37,0,0,1-.35.24h-0.67A0.27,0.27,0,0,1,605.27,178Zm2.39-3.33h3.84l-1.92-5Z"/><path class="cls-3" d="M616.11,180.67a0.31,0.31,0,0,1-.09-0.24v-9.3a0.31,0.31,0,0,1,.09-0.24,0.33,0.33,0,0,1,.23-0.08h0.59a0.29,0.29,0,0,1,.32.32v0.62a2.72,2.72,0,0,1,2.31-1.08,2.64,2.64,0,0,1,2.21.93,3.91,3.91,0,0,1,.78,2.37c0,0.1,0,.26,0,0.48s0,0.37,0,.48a3.91,3.91,0,0,1-.78,2.37,3,3,0,0,1-4.47-.13v3.26a0.31,0.31,0,0,1-.32.32h-0.63A0.33,0.33,0,0,1,616.11,180.67Zm4.66-4.16a2.93,2.93,0,0,0,.5-1.65c0-.09,0-0.23,0-0.41q0-2.69-2-2.69a1.74,1.74,0,0,0-1.48.65,2.59,2.59,0,0,0-.52,1.53c0,0.1,0,.28,0,0.55s0,0.44,0,.55a2.38,2.38,0,0,0,.54,1.48,1.78,1.78,0,0,0,1.46.62A1.7,1.7,0,0,0,620.77,176.51Z"/><path class="cls-3" d="M625.13,180.67a0.31,0.31,0,0,1-.09-0.24v-9.3a0.31,0.31,0,0,1,.09-0.24,0.33,0.33,0,0,1,.23-0.08H626a0.29,0.29,0,0,1,.32.32v0.62a2.72,2.72,0,0,1,2.31-1.08,2.64,2.64,0,0,1,2.21.93,3.91,3.91,0,0,1,.78,2.37c0,0.1,0,.26,0,0.48s0,0.37,0,.48a3.91,3.91,0,0,1-.78,2.37,3,3,0,0,1-4.47-.13v3.26a0.31,0.31,0,0,1-.32.32h-0.63A0.33,0.33,0,0,1,625.13,180.67Zm4.66-4.16a3,3,0,0,0,.5-1.65c0-.09,0-0.23,0-0.41q0-2.69-2-2.69a1.74,1.74,0,0,0-1.48.65,2.59,2.59,0,0,0-.53,1.53c0,0.1,0,.28,0,0.55s0,0.44,0,.55a2.38,2.38,0,0,0,.54,1.48,1.78,1.78,0,0,0,1.46.62A1.7,1.7,0,0,0,629.79,176.51Z"/><path class="cls-3" d="M560.5,194.8a0.33,0.33,0,0,1-.08-0.23v-9.14a0.35,0.35,0,0,1,.08-0.25,0.29,0.29,0,0,1,.22-0.09h3.16a4.17,4.17,0,0,1,3.05.94,4,4,0,0,1,1,2.85q0,0.41,0,1.09t0,1.11a5.3,5.3,0,0,1-.43,2.16,2.57,2.57,0,0,1-1.25,1.24,5.32,5.32,0,0,1-2.27.41h-3.23A0.29,0.29,0,0,1,560.5,194.8Zm3.39-1.07a3.72,3.72,0,0,0,1.56-.27,1.67,1.67,0,0,0,.84-0.85,4.23,4.23,0,0,0,.29-1.58c0-.56,0-0.91,0-1s0-.49,0-1a2.93,2.93,0,0,0-.67-2.05,2.84,2.84,0,0,0-2.09-.65h-2.09v7.49h2.16Z"/><path class="cls-3" d="M571.15,194.17a3.4,3.4,0,0,1-.89-2.31v-1.2a3.36,3.36,0,0,1,.9-2.31,3.64,3.64,0,0,1,4.72,0,3.36,3.36,0,0,1,.9,2.31c0,0.21,0,.41,0,0.6s0,0.4,0,.6a3.4,3.4,0,0,1-.89,2.31A3.68,3.68,0,0,1,571.15,194.17Zm3.79-.75a2.47,2.47,0,0,0,.57-1.63c0-.09,0-0.27,0-0.53s0-.44,0-0.53a2.47,2.47,0,0,0-.57-1.63,2.06,2.06,0,0,0-2.84,0,2.46,2.46,0,0,0-.57,1.63v1.06a2.47,2.47,0,0,0,.57,1.63A2.07,2.07,0,0,0,574.94,193.42Z"/><path class="cls-3" d="M580.72,194.81a0.55,0.55,0,0,1-.15-0.27l-2-6.5,0-.14a0.29,0.29,0,0,1,.29-0.29h0.57a0.35,0.35,0,0,1,.23.08,0.28,0.28,0,0,1,.1.15l1.58,5.35,1.68-5.28a0.42,0.42,0,0,1,.13-0.2,0.38,0.38,0,0,1,.27-0.09h0.45a0.38,0.38,0,0,1,.27.09,0.42,0.42,0,0,1,.13.2l1.68,5.28,1.58-5.35a0.28,0.28,0,0,1,.11-0.15,0.35,0.35,0,0,1,.23-0.08h0.57a0.29,0.29,0,0,1,.29.29l0,0.14-2,6.5a0.56,0.56,0,0,1-.15.27,0.44,0.44,0,0,1-.29.08h-0.5a0.46,0.46,0,0,1-.48-0.35l-1.64-5.07L582,194.54a0.46,0.46,0,0,1-.48.35H581A0.44,0.44,0,0,1,580.72,194.81Z"/><path class="cls-3" d="M591.07,194.8a0.31,0.31,0,0,1-.09-0.23v-6.64a0.31,0.31,0,0,1,.32-0.32h0.6a0.29,0.29,0,0,1,.32.32v0.62a3,3,0,0,1,1-.8,3,3,0,0,1,1.38-.28,2.61,2.61,0,0,1,2.09.86,3.36,3.36,0,0,1,.74,2.27v4a0.31,0.31,0,0,1-.32.32h-0.64a0.31,0.31,0,0,1-.32-0.32v-3.88a2.3,2.3,0,0,0-.49-1.57,1.76,1.76,0,0,0-1.4-.56,1.87,1.87,0,0,0-1.43.57,2.19,2.19,0,0,0-.53,1.56v3.88a0.31,0.31,0,0,1-.32.32H591.3A0.31,0.31,0,0,1,591.07,194.8Z"/><path class="cls-3" d="M600.24,194.8a0.31,0.31,0,0,1-.09-0.23v-9.3a0.31,0.31,0,0,1,.09-0.24,0.33,0.33,0,0,1,.23-0.08h0.62a0.31,0.31,0,0,1,.32.32v9.3a0.31,0.31,0,0,1-.32.32h-0.62A0.32,0.32,0,0,1,600.24,194.8Z"/><path class="cls-3" d="M604.79,194.17a3.4,3.4,0,0,1-.89-2.31v-1.2a3.36,3.36,0,0,1,.9-2.31,3.64,3.64,0,0,1,4.72,0,3.36,3.36,0,0,1,.9,2.31c0,0.21,0,.41,0,0.6s0,0.4,0,.6a3.4,3.4,0,0,1-.89,2.31A3.68,3.68,0,0,1,604.79,194.17Zm3.79-.75a2.47,2.47,0,0,0,.57-1.63c0-.09,0-0.27,0-0.53s0-.44,0-0.53a2.47,2.47,0,0,0-.57-1.63,2.06,2.06,0,0,0-2.84,0,2.46,2.46,0,0,0-.57,1.63v1.06a2.47,2.47,0,0,0,.57,1.63A2.07,2.07,0,0,0,608.58,193.42Z"/><path class="cls-3" d="M613.66,194.75a2.37,2.37,0,0,1-.92-0.76,1.81,1.81,0,0,1-.34-1.07,1.83,1.83,0,0,1,.76-1.51,4.36,4.36,0,0,1,2.06-.78l2.1-.29v-0.41q0-1.44-1.67-1.44a1.86,1.86,0,0,0-1,.26,1.65,1.65,0,0,0-.57.61,0.44,0.44,0,0,1-.12.19,0.27,0.27,0,0,1-.17,0H613.2a0.31,0.31,0,0,1-.31-0.31,1.36,1.36,0,0,1,.3-0.75,2.45,2.45,0,0,1,.93-0.74,3.42,3.42,0,0,1,1.54-.31,3,3,0,0,1,2.25.73,2.57,2.57,0,0,1,.68,1.82v4.55a0.31,0.31,0,0,1-.32.32h-0.62a0.29,0.29,0,0,1-.22-0.09,0.32,0.32,0,0,1-.08-0.23V194a2.36,2.36,0,0,1-.9.77,3.25,3.25,0,0,1-1.51.31A2.88,2.88,0,0,1,613.66,194.75Zm3.06-1.34a2.4,2.4,0,0,0,.59-1.75v-0.39l-1.64.24a3.81,3.81,0,0,0-1.53.48,1,1,0,0,0-.52.84,1,1,0,0,0,.47.88,2,2,0,0,0,1.11.31A2,2,0,0,0,616.72,193.41Z"/><path class="cls-3" d="M621.77,194.08a4.09,4.09,0,0,1-.79-2.41v-0.84a4.07,4.07,0,0,1,.8-2.4,2.61,2.61,0,0,1,2.2-1,2.72,2.72,0,0,1,2.27,1v-3.23a0.31,0.31,0,0,1,.32-0.32h0.63a0.32,0.32,0,0,1,.23.09,0.31,0.31,0,0,1,.09.23v9.3a0.31,0.31,0,0,1-.32.32h-0.6a0.29,0.29,0,0,1-.22-0.09,0.33,0.33,0,0,1-.08-0.23V194A2.71,2.71,0,0,1,624,195,2.61,2.61,0,0,1,621.77,194.08Zm3.94-.79a2.71,2.71,0,0,0,.53-1.55c0-.1,0-0.28,0-0.53s0-.44,0-0.55a2.38,2.38,0,0,0-.54-1.48,1.78,1.78,0,0,0-1.46-.62,1.7,1.7,0,0,0-1.47.63,2.94,2.94,0,0,0-.5,1.65v0.41q0,2.69,2,2.69A1.72,1.72,0,0,0,625.71,193.29Z"/><path class="cls-3" d="M631.19,194.72a2.71,2.71,0,0,1-1-.72,1.19,1.19,0,0,1-.32-0.67,0.26,0.26,0,0,1,.1-0.22,0.34,0.34,0,0,1,.21-0.08h0.59a0.27,0.27,0,0,1,.13,0,0.6,0.6,0,0,1,.13.13,2.54,2.54,0,0,0,.72.62,2.19,2.19,0,0,0,1.07.22,2.28,2.28,0,0,0,1.21-.28,0.9,0.9,0,0,0,.46-0.81,0.79,0.79,0,0,0-.2-0.56,1.69,1.69,0,0,0-.65-0.38,11.08,11.08,0,0,0-1.35-.36,3.5,3.5,0,0,1-1.72-.77,1.76,1.76,0,0,1-.5-1.3,1.83,1.83,0,0,1,.31-1,2.22,2.22,0,0,1,.92-0.78,3.24,3.24,0,0,1,1.45-.3,3.5,3.5,0,0,1,1.5.29,2.61,2.61,0,0,1,.94.69,1.16,1.16,0,0,1,.32.66,0.27,0.27,0,0,1-.09.21,0.31,0.31,0,0,1-.22.08h-0.53a0.29,0.29,0,0,1-.28-0.15q-0.24-.27-0.4-0.41a1.31,1.31,0,0,0-.47-0.25,2.4,2.4,0,0,0-.77-0.11,1.67,1.67,0,0,0-1.05.29,0.92,0.92,0,0,0-.36.76,0.8,0.8,0,0,0,.15.5,1.38,1.38,0,0,0,.59.38,8.22,8.22,0,0,0,1.29.36,4,4,0,0,1,1.88.8,1.74,1.74,0,0,1,.55,1.33,1.86,1.86,0,0,1-.34,1.09,2.25,2.25,0,0,1-1,.77,4.24,4.24,0,0,1-1.62.28A3.79,3.79,0,0,1,631.19,194.72Z"/><line class="cls-4" x1="560.18" y1="263.8" x2="560.18" y2="205.09"/><path class="cls-3" d="M697.14,29a0.28,0.28,0,0,1-.08-0.21V28.22a0.4,0.4,0,0,1,.07-0.24,1.07,1.07,0,0,1,.25-0.22l3.78-2.59-3.78-2.59a1.1,1.1,0,0,1-.25-0.21,0.4,0.4,0,0,1-.08-0.25V21.54a0.26,0.26,0,0,1,.28-0.28,0.45,0.45,0,0,1,.2.06l0.15,0.08,4.37,3a1.09,1.09,0,0,1,.31.3,0.64,0.64,0,0,1,.09.34v0.24a0.64,0.64,0,0,1-.09.34,1,1,0,0,1-.31.29l-4.37,3a0.71,0.71,0,0,1-.35.15A0.27,0.27,0,0,1,697.14,29Z"/><path class="cls-3" d="M704.44,30a0.31,0.31,0,0,1-.09-0.23V29.35a0.82,0.82,0,0,1,.35-0.62l3.05-3a8.7,8.7,0,0,0,1.43-1.44,2,2,0,0,0,.39-1.19,1.77,1.77,0,0,0-.46-1.29,2.1,2.1,0,0,0-2.67,0,2.22,2.22,0,0,0-.6,1.32,0.37,0.37,0,0,1-.14.24,0.38,0.38,0,0,1-.22.08h-0.67a0.29,0.29,0,0,1-.21-0.08,0.27,0.27,0,0,1-.08-0.2,3.27,3.27,0,0,1,.4-1.43,2.94,2.94,0,0,1,1.1-1.13,3.34,3.34,0,0,1,1.76-.44,3.14,3.14,0,0,1,2.36.82,2.87,2.87,0,0,1,.79,2.08,3,3,0,0,1-.43,1.59,6.51,6.51,0,0,1-1.34,1.49l-2.76,2.8h4.41a0.29,0.29,0,0,1,.32.32v0.53a0.31,0.31,0,0,1-.32.32h-6.13A0.31,0.31,0,0,1,704.44,30Z"/><path class="cls-3" d="M718,30a0.31,0.31,0,0,1-.09-0.23V20.63a0.34,0.34,0,0,1,.08-0.25,0.31,0.31,0,0,1,.24-0.09h0.66a0.35,0.35,0,0,1,.35.21l3,5.73,3-5.73a0.36,0.36,0,0,1,.34-0.21h0.66a0.31,0.31,0,0,1,.24.09,0.35,0.35,0,0,1,.08.25v9.14a0.31,0.31,0,0,1-.32.32h-0.64a0.29,0.29,0,0,1-.22-0.09,0.32,0.32,0,0,1-.08-0.23v-7l-2.39,4.63a0.47,0.47,0,0,1-.45.29H722a0.48,0.48,0,0,1-.45-0.29l-2.38-4.63v7a0.31,0.31,0,0,1-.32.32h-0.63A0.31,0.31,0,0,1,718,30Z"/><path class="cls-3" d="M729.81,30a0.31,0.31,0,0,1-.09-0.23V20.63a0.35,0.35,0,0,1,.08-0.25,0.31,0.31,0,0,1,.24-0.09h0.66a0.35,0.35,0,0,1,.35.21l3,5.73,3-5.73a0.36,0.36,0,0,1,.34-0.21H738a0.31,0.31,0,0,1,.24.09,0.35,0.35,0,0,1,.08.25v9.14a0.31,0.31,0,0,1-.32.32h-0.64a0.29,0.29,0,0,1-.22-0.09,0.33,0.33,0,0,1-.08-0.23v-7l-2.39,4.63a0.47,0.47,0,0,1-.45.29h-0.42a0.49,0.49,0,0,1-.45-0.29L731,22.81v7a0.31,0.31,0,0,1-.32.32H730A0.31,0.31,0,0,1,729.81,30Z"/><path class="cls-3" d="M745.75,30a0.32,0.32,0,0,1-.08-0.23V20.63a0.34,0.34,0,0,1,.08-0.25,0.29,0.29,0,0,1,.22-0.09h0.62a0.33,0.33,0,0,1,.21.06,1,1,0,0,1,.14.14l4.69,7.22V20.63a0.33,0.33,0,0,1,.09-0.25,0.31,0.31,0,0,1,.23-0.09h0.63a0.31,0.31,0,0,1,.34.34v9.13a0.34,0.34,0,0,1-.09.24,0.3,0.3,0,0,1-.23.1H752a0.34,0.34,0,0,1-.34-0.2l-4.69-7.15v7a0.31,0.31,0,0,1-.32.32H746A0.29,0.29,0,0,1,745.75,30Z"/><path class="cls-3" d="M756.48,29.35a3.66,3.66,0,0,1-.94-2.43V26a3.65,3.65,0,0,1,.94-2.41,3.38,3.38,0,0,1,4.67.08,3.93,3.93,0,0,1,.85,2.66v0.25a0.31,0.31,0,0,1-.32.32h-4.86V27a2.6,2.6,0,0,0,.56,1.55,1.67,1.67,0,0,0,1.37.64,2,2,0,0,0,1.07-.26,2.29,2.29,0,0,0,.62-0.54,0.74,0.74,0,0,1,.2-0.2,0.58,0.58,0,0,1,.24,0h0.62a0.34,0.34,0,0,1,.22.07,0.22,0.22,0,0,1,.09.18,1.24,1.24,0,0,1-.38.74,3.1,3.1,0,0,1-1.07.75,3.8,3.8,0,0,1-1.59.31A3,3,0,0,1,756.48,29.35Zm4.24-3.41v0a2.35,2.35,0,0,0-.53-1.6,1.79,1.79,0,0,0-1.43-.62,1.76,1.76,0,0,0-1.43.62,2.39,2.39,0,0,0-.52,1.6v0h3.91Z"/><path class="cls-3" d="M765.85,30a0.55,0.55,0,0,1-.15-0.27l-2-6.5,0-.14a0.29,0.29,0,0,1,.29-0.29h0.57a0.35,0.35,0,0,1,.23.08,0.28,0.28,0,0,1,.1.15l1.58,5.35,1.68-5.28a0.42,0.42,0,0,1,.13-0.2,0.38,0.38,0,0,1,.27-0.09H769a0.38,0.38,0,0,1,.27.09,0.42,0.42,0,0,1,.13.2l1.68,5.28L772.64,23a0.28,0.28,0,0,1,.11-0.15,0.35,0.35,0,0,1,.23-0.08h0.57a0.29,0.29,0,0,1,.29.29l0,0.14-2,6.5a0.56,0.56,0,0,1-.15.27,0.44,0.44,0,0,1-.29.08h-0.5a0.46,0.46,0,0,1-.48-0.35l-1.64-5.07-1.64,5.07a0.46,0.46,0,0,1-.48.35h-0.5A0.44,0.44,0,0,1,765.85,30Z"/><path class="cls-3" d="M659.94,46.06a4,4,0,0,1-1-2.95V37.43a0.34,0.34,0,0,1,.08-0.25,0.29,0.29,0,0,1,.22-0.09h0.67a0.31,0.31,0,0,1,.34.34v5.71a2.88,2.88,0,0,0,.64,2,2.37,2.37,0,0,0,1.81.67,2.34,2.34,0,0,0,1.8-.68,2.88,2.88,0,0,0,.64-2V37.43a0.34,0.34,0,0,1,.08-0.25,0.31,0.31,0,0,1,.24-0.09h0.67a0.31,0.31,0,0,1,.23.09,0.33,0.33,0,0,1,.09.25v5.68a4,4,0,0,1-1,2.95A4.47,4.47,0,0,1,659.94,46.06Z"/><path class="cls-3" d="M670.17,46.72a2.71,2.71,0,0,1-1-.72,1.2,1.2,0,0,1-.32-0.67,0.26,0.26,0,0,1,.1-0.22,0.33,0.33,0,0,1,.21-0.08h0.59a0.27,0.27,0,0,1,.13,0,0.6,0.6,0,0,1,.13.13,2.55,2.55,0,0,0,.72.62,2.19,2.19,0,0,0,1.07.22,2.28,2.28,0,0,0,1.21-.28,0.9,0.9,0,0,0,.46-0.81,0.79,0.79,0,0,0-.2-0.56,1.69,1.69,0,0,0-.65-0.38,11.11,11.11,0,0,0-1.35-.36,3.49,3.49,0,0,1-1.72-.77,1.76,1.76,0,0,1-.5-1.3,1.84,1.84,0,0,1,.31-1,2.22,2.22,0,0,1,.92-0.78,3.25,3.25,0,0,1,1.45-.3,3.5,3.5,0,0,1,1.5.29,2.62,2.62,0,0,1,.94.69,1.16,1.16,0,0,1,.31.66,0.27,0.27,0,0,1-.09.21,0.31,0.31,0,0,1-.22.08h-0.53a0.29,0.29,0,0,1-.28-0.15,5.68,5.68,0,0,0-.4-0.41,1.31,1.31,0,0,0-.47-0.25,2.41,2.41,0,0,0-.77-0.11,1.66,1.66,0,0,0-1,.29,0.92,0.92,0,0,0-.36.76,0.8,0.8,0,0,0,.15.5,1.38,1.38,0,0,0,.59.38,8.19,8.19,0,0,0,1.29.36,4,4,0,0,1,1.88.8,1.74,1.74,0,0,1,.55,1.33,1.86,1.86,0,0,1-.34,1.09,2.25,2.25,0,0,1-1,.77,4.24,4.24,0,0,1-1.62.28A3.79,3.79,0,0,1,670.17,46.72Z"/><path class="cls-3" d="M677.72,46.15a3.67,3.67,0,0,1-.94-2.43V42.78a3.66,3.66,0,0,1,.94-2.41,3.38,3.38,0,0,1,4.67.08,3.93,3.93,0,0,1,.85,2.66v0.25a0.31,0.31,0,0,1-.32.32h-4.86v0.13a2.61,2.61,0,0,0,.56,1.55A1.67,1.67,0,0,0,680,46a2,2,0,0,0,1.07-.26,2.28,2.28,0,0,0,.62-0.54,0.72,0.72,0,0,1,.2-0.2,0.57,0.57,0,0,1,.24,0h0.62a0.34,0.34,0,0,1,.22.07,0.22,0.22,0,0,1,.09.18,1.24,1.24,0,0,1-.38.74,3.1,3.1,0,0,1-1.07.75A3.8,3.8,0,0,1,680,47,3,3,0,0,1,677.72,46.15ZM682,42.74v0a2.36,2.36,0,0,0-.53-1.6,1.79,1.79,0,0,0-1.43-.62,1.77,1.77,0,0,0-1.43.62,2.4,2.4,0,0,0-.52,1.6v0H682Z"/><path class="cls-3" d="M685.73,46.8a0.31,0.31,0,0,1-.09-0.23V40a0.34,0.34,0,0,1,.09-0.24,0.3,0.3,0,0,1,.23-0.1h0.59a0.31,0.31,0,0,1,.34.34v0.62a2.09,2.09,0,0,1,1.95-1h0.55a0.29,0.29,0,0,1,.32.32v0.52a0.32,0.32,0,0,1-.08.23,0.31,0.31,0,0,1-.24.09h-0.8a1.62,1.62,0,0,0-1.21.45,1.66,1.66,0,0,0-.44,1.22v4.13a0.3,0.3,0,0,1-.1.23,0.34,0.34,0,0,1-.24.09H686A0.31,0.31,0,0,1,685.73,46.8Z"/><path class="cls-3" d="M692.47,46.72a2.71,2.71,0,0,1-1-.72,1.2,1.2,0,0,1-.32-0.67,0.26,0.26,0,0,1,.1-0.22,0.33,0.33,0,0,1,.21-0.08h0.59a0.27,0.27,0,0,1,.13,0,0.6,0.6,0,0,1,.13.13,2.55,2.55,0,0,0,.72.62,2.19,2.19,0,0,0,1.07.22,2.28,2.28,0,0,0,1.21-.28,0.9,0.9,0,0,0,.46-0.81,0.79,0.79,0,0,0-.2-0.56,1.69,1.69,0,0,0-.65-0.38,11.11,11.11,0,0,0-1.35-.36,3.49,3.49,0,0,1-1.72-.77,1.76,1.76,0,0,1-.5-1.3,1.84,1.84,0,0,1,.31-1,2.22,2.22,0,0,1,.92-0.78,3.25,3.25,0,0,1,1.45-.3,3.5,3.5,0,0,1,1.5.29,2.62,2.62,0,0,1,.94.69,1.16,1.16,0,0,1,.31.66,0.27,0.27,0,0,1-.09.21,0.31,0.31,0,0,1-.22.08h-0.53a0.29,0.29,0,0,1-.28-0.15,5.68,5.68,0,0,0-.4-0.41,1.31,1.31,0,0,0-.47-0.25,2.41,2.41,0,0,0-.77-0.11,1.66,1.66,0,0,0-1,.29,0.92,0.92,0,0,0-.36.76,0.8,0.8,0,0,0,.15.5,1.38,1.38,0,0,0,.59.38,8.19,8.19,0,0,0,1.29.36,4,4,0,0,1,1.88.8,1.74,1.74,0,0,1,.55,1.33,1.86,1.86,0,0,1-.34,1.09,2.25,2.25,0,0,1-1,.77,4.24,4.24,0,0,1-1.62.28A3.79,3.79,0,0,1,692.47,46.72Z"/><path class="cls-3" d="M703.67,49.47a0.31,0.31,0,0,1-.09-0.24v-9.3a0.31,0.31,0,0,1,.09-0.24,0.33,0.33,0,0,1,.23-0.08h0.59a0.29,0.29,0,0,1,.32.32v0.62a2.72,2.72,0,0,1,2.31-1.08,2.64,2.64,0,0,1,2.21.93,3.91,3.91,0,0,1,.78,2.37c0,0.1,0,.26,0,0.48s0,0.37,0,.48a3.91,3.91,0,0,1-.78,2.37,3,3,0,0,1-4.47-.13v3.26a0.31,0.31,0,0,1-.32.32H703.9A0.33,0.33,0,0,1,703.67,49.47Zm4.66-4.16a2.93,2.93,0,0,0,.5-1.65c0-.09,0-0.23,0-0.41q0-2.69-2-2.69a1.74,1.74,0,0,0-1.48.65,2.59,2.59,0,0,0-.52,1.53c0,0.1,0,.28,0,0.55s0,0.44,0,.55a2.38,2.38,0,0,0,.54,1.48,1.78,1.78,0,0,0,1.46.62A1.7,1.7,0,0,0,708.32,45.31Z"/><path class="cls-3" d="M713.18,46.15a3.66,3.66,0,0,1-.94-2.43V42.78a3.65,3.65,0,0,1,.94-2.41,3.38,3.38,0,0,1,4.67.08,3.93,3.93,0,0,1,.85,2.66v0.25a0.31,0.31,0,0,1-.32.32h-4.86v0.13a2.6,2.6,0,0,0,.56,1.55,1.67,1.67,0,0,0,1.37.64,2,2,0,0,0,1.07-.26,2.29,2.29,0,0,0,.62-0.54,0.74,0.74,0,0,1,.2-0.2,0.58,0.58,0,0,1,.24,0h0.62a0.34,0.34,0,0,1,.22.07,0.22,0.22,0,0,1,.09.18,1.24,1.24,0,0,1-.38.74,3.1,3.1,0,0,1-1.07.75,3.8,3.8,0,0,1-1.59.31A3,3,0,0,1,713.18,46.15Zm4.24-3.41v0a2.35,2.35,0,0,0-.53-1.6,1.79,1.79,0,0,0-1.43-.62,1.76,1.76,0,0,0-1.43.62,2.39,2.39,0,0,0-.52,1.6v0h3.91Z"/><path class="cls-3" d="M721.2,46.8a0.31,0.31,0,0,1-.09-0.23V40a0.33,0.33,0,0,1,.09-0.24,0.3,0.3,0,0,1,.23-0.1H722a0.31,0.31,0,0,1,.34.34v0.62a2.09,2.09,0,0,1,1.95-1h0.55a0.29,0.29,0,0,1,.32.32v0.52a0.33,0.33,0,0,1-.08.23,0.31,0.31,0,0,1-.24.09H724a1.62,1.62,0,0,0-1.21.45,1.66,1.66,0,0,0-.44,1.22v4.13a0.3,0.3,0,0,1-.1.23,0.34,0.34,0,0,1-.24.09h-0.63A0.31,0.31,0,0,1,721.2,46.8Z"/><path class="cls-3" d="M731.16,46.8a0.31,0.31,0,0,1-.09-0.23V37.43a0.35,0.35,0,0,1,.08-0.25,0.31,0.31,0,0,1,.24-0.09h0.66a0.35,0.35,0,0,1,.35.21l3,5.73,3-5.73a0.36,0.36,0,0,1,.34-0.21h0.66a0.31,0.31,0,0,1,.24.09,0.35,0.35,0,0,1,.08.25v9.14a0.31,0.31,0,0,1-.32.32h-0.64a0.29,0.29,0,0,1-.22-0.09,0.33,0.33,0,0,1-.08-0.23v-7L736,44.25a0.47,0.47,0,0,1-.45.29h-0.42a0.49,0.49,0,0,1-.45-0.29l-2.38-4.63v7a0.31,0.31,0,0,1-.32.32h-0.63A0.31,0.31,0,0,1,731.16,46.8Z"/><path class="cls-3" d="M743.27,46.17a3.4,3.4,0,0,1-.89-2.31v-1.2a3.36,3.36,0,0,1,.9-2.31,3.64,3.64,0,0,1,4.72,0,3.37,3.37,0,0,1,.9,2.31c0,0.21,0,.41,0,0.6s0,0.4,0,.6a3.4,3.4,0,0,1-.89,2.31A3.68,3.68,0,0,1,743.27,46.17Zm3.79-.75a2.47,2.47,0,0,0,.57-1.63c0-.09,0-0.27,0-0.53s0-.44,0-0.53a2.46,2.46,0,0,0-.57-1.63,2.06,2.06,0,0,0-2.84,0,2.46,2.46,0,0,0-.57,1.63v1.06a2.47,2.47,0,0,0,.57,1.63A2.07,2.07,0,0,0,747.07,45.42Z"/><path class="cls-3" d="M751.49,46.8a0.31,0.31,0,0,1-.09-0.23V39.94a0.31,0.31,0,0,1,.32-0.32h0.6a0.29,0.29,0,0,1,.32.32v0.62a3,3,0,0,1,1-.8,3,3,0,0,1,1.38-.28,2.61,2.61,0,0,1,2.09.86,3.36,3.36,0,0,1,.74,2.27v4a0.31,0.31,0,0,1-.32.32h-0.64a0.31,0.31,0,0,1-.32-0.32V42.69a2.3,2.3,0,0,0-.49-1.57,1.76,1.76,0,0,0-1.4-.56,1.87,1.87,0,0,0-1.43.57,2.19,2.19,0,0,0-.53,1.56v3.88a0.31,0.31,0,0,1-.32.32h-0.64A0.31,0.31,0,0,1,751.49,46.8Z"/><path class="cls-3" d="M761.09,44.44V40.69H760a0.29,0.29,0,0,1-.31-0.31V39.94a0.33,0.33,0,0,1,.08-0.23,0.29,0.29,0,0,1,.22-0.09h1.11V37.28a0.32,0.32,0,0,1,.08-0.23A0.29,0.29,0,0,1,761.4,37H762a0.31,0.31,0,0,1,.32.32v2.34h1.74a0.31,0.31,0,0,1,.32.32v0.45a0.29,0.29,0,0,1-.09.22,0.33,0.33,0,0,1-.23.08h-1.74v3.65a2,2,0,0,0,.23,1.08,0.86,0.86,0,0,0,.79.36h0.85a0.29,0.29,0,0,1,.22.09,0.33,0.33,0,0,1,.08.23v0.46a0.33,0.33,0,0,1-.08.23,0.29,0.29,0,0,1-.22.09h-1Q761.09,46.89,761.09,44.44Z"/><path class="cls-3" d="M766.7,46.8a0.31,0.31,0,0,1-.09-0.23v-9.3A0.31,0.31,0,0,1,766.7,37a0.33,0.33,0,0,1,.23-0.08h0.64a0.29,0.29,0,0,1,.32.32v3.26a2.78,2.78,0,0,1,1-.79,3.07,3.07,0,0,1,1.36-.27,2.63,2.63,0,0,1,2.09.86,3.34,3.34,0,0,1,.75,2.27v4a0.31,0.31,0,0,1-.32.32h-0.66a0.31,0.31,0,0,1-.32-0.32V42.69a2.3,2.3,0,0,0-.49-1.57,1.78,1.78,0,0,0-1.41-.56,1.87,1.87,0,0,0-1.43.57,2.19,2.19,0,0,0-.53,1.56v3.88a0.31,0.31,0,0,1-.32.32h-0.64A0.31,0.31,0,0,1,766.7,46.8Z"/><line class="cls-4" x1="773.04" y1="131.09" x2="773.04" y2="58.09"/><path class="cls-5" d="M106.18,353.09h12.69c4.86,0,12.81-.32,17.66-0.71l21.06-1.7c4.85-.39,12.79-0.95,17.64-1.23l22-1.3c4.86-.29,12.79-0.85,17.64-1.25l20.1-1.67c4.85-.4,12.77-1.16,17.61-1.68l25.95-2.8c4.84-.52,12.73-1.53,17.54-2.25l29.9-4.44c4.81-.71,12.69-1.84,17.51-2.5l33.75-4.63c4.82-.66,12.65-2.05,17.4-3.09l43.53-9.52A127.31,127.31,0,0,0,455,309.13l18.55-7.47L490,295l45.51-18.4c4.51-1.82,11.78-5.06,16.15-7.19l45-22c4.37-2.13,11.41-5.84,15.64-8.23l33-18.66c4.23-2.4,11.11-6.41,15.27-8.91L687,195.78c4.17-2.51,10.73-7,14.59-9.95l24.67-18.94c3.86-3,10.23-7.73,14.16-10.6l25.37-18.51c3.93-2.87,10.31-7.63,14.17-10.58l21.74-16.63c3.86-3,10.08-7.92,13.82-11l19.29-16.06c3.74-3.11,9.63-8.3,13.08-11.52l6.29-5.87"/></svg>