<svg id="Layer_2" data-name="Layer 2" xmlns="http://www.w3.org/2000/svg" viewBox="0 0 90 90"><defs><style>.cls-1,.cls-2{fill:none;stroke-linecap:round;stroke-linejoin:round;stroke-width:1.5px;}.cls-1{stroke:#5b0098;}.cls-2{stroke:#bb73fc;}</style></defs><title>Snowplow_Website-Services_Icons</title><path class="cls-1" d="M52.35,53L55,57.47a2.71,2.71,0,0,1,0,2.45l-5.21,9a2.72,2.72,0,0,1-2.12,1.22H41.3"/><path class="cls-1" d="M36.1,53.85l6.25,10.82a4.09,4.09,0,0,1,0,3.69L34.49,82a4.09,4.09,0,0,1-3.2,1.85H15.58A4.09,4.09,0,0,1,12.39,82L4.53,68.36a4.09,4.09,0,0,1,0-3.69l0.59-1"/><path class="cls-1" d="M12.39,51.06a4.1,4.1,0,0,1,3.2-1.85h7.86"/><path class="cls-2" d="M37,53h43a9.08,9.08,0,0,0,9.05-9V15.23a9.08,9.08,0,0,0-9.05-9H32.48a9.06,9.06,0,0,0-9,9V66.52Z"/><line class="cls-2" x1="32.97" y1="36.52" x2="79" y2="36.52"/><line class="cls-2" x1="32.97" y1="43.07" x2="61.57" y2="43.07"/><line class="cls-2" x1="50.39" y1="19.07" x2="79" y2="19.07"/><line class="cls-2" x1="32.97" y1="29.97" x2="79" y2="29.97"/><path class="cls-2" d="M34.84,21.88a0.67,0.67,0,0,1-.52-0.3L33,19.37a0.67,0.67,0,0,1,0-.6l1.28-2.21a0.67,0.67,0,0,1,.52-0.3h2.56a0.67,0.67,0,0,1,.52.3l1.28,2.21a0.67,0.67,0,0,1,0,.6l-1.28,2.22a0.67,0.67,0,0,1-.52.3H34.84Z"/><path class="cls-1" d="M5.34,63.76a1.55,1.55,0,0,1-1.21-.7l-3-5.14a1.55,1.55,0,0,1,0-1.39l3-5.14a1.55,1.55,0,0,1,1.21-.7h5.93a1.55,1.55,0,0,1,1.21.7l3,5.14a1.55,1.55,0,0,1,0,1.39l-3,5.14a1.55,1.55,0,0,1-1.21.7H5.34Z"/></svg>