<svg id="Layer_2" data-name="Layer 2" xmlns="http://www.w3.org/2000/svg" viewBox="0 0 90 90"><defs><style>.cls-1,.cls-2{fill:none;stroke-linecap:round;stroke-linejoin:round;stroke-width:1.5px;}.cls-1{stroke:#5b0098;}.cls-2{stroke:#bb73fc;}</style></defs><title>Snowplow_Website-Services_Icons</title><path class="cls-1" d="M83.8,59.7V16.36a7.7,7.7,0,0,0-7.68-7.68H8.69A7.71,7.71,0,0,0,1,16.36V65.73a7.71,7.71,0,0,0,7.69,7.68H66"/><line class="cls-1" x1="28.01" y1="17.51" x2="82.75" y2="17.51"/><line class="cls-2" x1="9.84" y1="38.22" x2="53.84" y2="38.22"/><line class="cls-2" x1="9.84" y1="33.8" x2="62.68" y2="33.8"/><polyline class="cls-2" points="9.84 59.7 18.15 54.48 25.73 57.65 43.22 46.79"/><path class="cls-1" d="M61,63.73a2,2,0,0,1-1.57-.9l-3.85-6.66a2,2,0,0,1,0-1.81l3.85-6.66a2,2,0,0,1,1.57-.9H68.7a2,2,0,0,1,1.57.9l3.85,6.66a2,2,0,0,1,0,1.81l-3.85,6.66a2,2,0,0,1-1.57.9H61Z"/><path class="cls-2" d="M81.69,69a1.1,1.1,0,0,1-.86-0.5l-2.11-3.66a1.1,1.1,0,0,1,0-1l2.11-3.65a1.1,1.1,0,0,1,.86-0.5h4.22a1.1,1.1,0,0,1,.86.5l2.11,3.65a1.1,1.1,0,0,1,0,1L86.77,68.5a1.1,1.1,0,0,1-.86.5H81.69Z"/><path class="cls-2" d="M67.95,76.7a0.73,0.73,0,0,1-.57-0.33L66,73.94a0.73,0.73,0,0,1,0-.66l1.4-2.43a0.73,0.73,0,0,1,.57-0.33h2.81a0.73,0.73,0,0,1,.57.33l1.4,2.43a0.73,0.73,0,0,1,0,.66l-1.4,2.43a0.73,0.73,0,0,1-.57.33H67.95Z"/><path class="cls-1" d="M81.53,81.33A0.64,0.64,0,0,1,81,81l-1.22-2.12a0.64,0.64,0,0,1,0-.57L81,76.23a0.64,0.64,0,0,1,.5-0.29H84a0.64,0.64,0,0,1,.5.29l1.22,2.12a0.64,0.64,0,0,1,0,.57L84.47,81a0.64,0.64,0,0,1-.5.29H81.53Z"/></svg>