<svg xmlns="http://www.w3.org/2000/svg" viewBox="0 0 210 210"><defs><style>.cls-1{isolation:isolate;}.cls-2,.cls-3{mix-blend-mode:screen;}.cls-3,.cls-4{fill:none;stroke:#28d1b1;stroke-linecap:round;stroke-linejoin:round;}.cls-5{opacity:0.2;}.cls-6{fill:#28d1b1;}</style></defs><title>Snowplow_Website-Product_Icon_Insights-DigitalEngagement</title><g class="cls-1"><g id="Layer_3" data-name="Layer 3"><g class="cls-2"><polyline class="cls-3" points="85 70.36 105 105 145 105"/><polyline class="cls-4" points="85 139.64 105 105 145 105"/><polyline class="cls-3" points="85 139.64 105 105 85 70.35"/></g><polygon class="cls-4" points="125 139.64 145 105 125 70.36 85 70.36 65 105 85 139.64 125 139.64"/><g class="cls-2"><g class="cls-2"><path class="cls-4" d="M145,105l26.43-45.77a13.72,13.72,0,0,0,0-12.37L158.57,24.58a13.72,13.72,0,0,0-10.71-6.19H122.14a13.72,13.72,0,0,0-10.71,6.19L85,70.36"/></g><path class="cls-4" d="M145,105l26.43,45.77a13.72,13.72,0,0,1,0,12.37l-12.86,22.27a13.72,13.72,0,0,1-10.71,6.19H122.14a13.73,13.73,0,0,1-10.71-6.19L85,139.64"/><g class="cls-2"><path class="cls-4" d="M85,70.35H32.19a13.72,13.72,0,0,0-10.71,6.19L8.62,98.81a13.73,13.73,0,0,0,0,12.37l12.86,22.27a13.72,13.72,0,0,0,10.71,6.19H85"/></g></g></g><g id="Layer_2" data-name="Layer 2"><g class="cls-5"><path class="cls-6" d="M135.13,44.1a9.46,9.46,0,0,1,7.38,4.26l30.24,52.38a9.46,9.46,0,0,1,0,8.53l-30.24,52.36a9.46,9.46,0,0,1-7.38,4.26H74.63a9.46,9.46,0,0,1-7.39-4.26L37,109.28a9.46,9.46,0,0,1,0-8.53L67.25,48.37a9.46,9.46,0,0,1,7.38-4.26h60.49Z"/></g><g class="cls-5"><path class="cls-6" d="M182.68,78.46a13.45,13.45,0,0,1,10.5,6.06l8.27,14.32a13.45,13.45,0,0,1,0,12.12l-8.26,14.31a13.45,13.45,0,0,1-10.5,6.06H166.14a13.45,13.45,0,0,1-10.5-6.06L147.38,111a13.45,13.45,0,0,1,0-12.12l8.27-14.32a13.45,13.45,0,0,1,10.5-6.06h16.54Z"/></g><g class="cls-5"><path class="cls-6" d="M78.34,138.71a13.45,13.45,0,0,1,10.5,6.06l8.27,14.32a13.45,13.45,0,0,1,0,12.12l-8.26,14.31a13.45,13.45,0,0,1-10.5,6.06H61.81a13.45,13.45,0,0,1-10.5-6.06L43,171.21a13.45,13.45,0,0,1,0-12.12l8.27-14.32a13.45,13.45,0,0,1,10.5-6.06H78.34Z"/></g><g class="cls-5"><path class="cls-6" d="M78.34,18.42a13.45,13.45,0,0,1,10.5,6.06L97.11,38.8a13.45,13.45,0,0,1,0,12.12L88.84,65.23a13.45,13.45,0,0,1-10.5,6.06H61.81a13.45,13.45,0,0,1-10.5-6.06L43,50.92A13.45,13.45,0,0,1,43,38.8l8.27-14.32a13.45,13.45,0,0,1,10.5-6.06H78.34Z"/></g><g class="cls-5"><path class="cls-6" d="M108.76,93a6.11,6.11,0,0,1,4.77,2.75l3.75,6.5a6.11,6.11,0,0,1,0,5.51l-3.75,6.5a6.11,6.11,0,0,1-4.77,2.75h-7.51a6.11,6.11,0,0,1-4.77-2.75l-3.75-6.5a6.11,6.11,0,0,1,0-5.51l3.75-6.5A6.11,6.11,0,0,1,101.25,93h7.51Z"/></g><g class="cls-5"><path class="cls-6" d="M104.36,32.85a6.11,6.11,0,0,1,4.77,2.75l3.75,6.5a6.11,6.11,0,0,1,0,5.51l-3.75,6.5a6.11,6.11,0,0,1-4.77,2.75H96.85a6.11,6.11,0,0,1-4.77-2.75l-3.75-6.5a6.11,6.11,0,0,1,0-5.51l3.75-6.5a6.11,6.11,0,0,1,4.77-2.75h7.51Z"/></g><g class="cls-5"><path class="cls-6" d="M162.51,119.33a6.11,6.11,0,0,1,4.77,2.75l3.75,6.5a6.11,6.11,0,0,1,0,5.51l-3.75,6.5a6.11,6.11,0,0,1-4.77,2.75H155a6.11,6.11,0,0,1-4.77-2.75l-3.75-6.5a6.11,6.11,0,0,1,0-5.51l3.75-6.5a6.11,6.11,0,0,1,4.77-2.75h7.51Z"/></g><g class="cls-5"><path class="cls-6" d="M60,126.7a6.11,6.11,0,0,1,4.77,2.75l3.75,6.5a6.11,6.11,0,0,1,0,5.51L64.73,148A6.11,6.11,0,0,1,60,150.71H52.45A6.11,6.11,0,0,1,47.68,148l-3.75-6.5a6.11,6.11,0,0,1,0-5.51l3.75-6.5a6.11,6.11,0,0,1,4.77-2.75H60Z"/></g><g class="cls-5"><path class="cls-6" d="M142.11,157.62a3.83,3.83,0,0,1,3,1.73l2.35,4.08a3.83,3.83,0,0,1,0,3.45l-2.35,4.07a3.83,3.83,0,0,1-3,1.73h-4.71a3.83,3.83,0,0,1-3-1.73l-2.35-4.07a3.83,3.83,0,0,1,0-3.45l2.35-4.08a3.83,3.83,0,0,1,3-1.73h4.71Z"/></g><g class="cls-5"><path class="cls-6" d="M142.11,37.33a3.83,3.83,0,0,1,3,1.73l2.35,4.08a3.83,3.83,0,0,1,0,3.45l-2.35,4.07a3.83,3.83,0,0,1-3,1.73h-4.71a3.83,3.83,0,0,1-3-1.73l-2.35-4.07a3.83,3.83,0,0,1,0-3.45l2.35-4.08a3.83,3.83,0,0,1,3-1.73h4.71Z"/></g><g class="cls-5"><path class="cls-6" d="M38.09,97.47a3.83,3.83,0,0,1,3,1.73l2.35,4.08a3.83,3.83,0,0,1,0,3.45l-2.35,4.07a3.83,3.83,0,0,1-3,1.73H33.38a3.83,3.83,0,0,1-3-1.73L28,106.73a3.83,3.83,0,0,1,0-3.45l2.35-4.08a3.83,3.83,0,0,1,3-1.73h4.71Z"/></g><g class="cls-5"><path class="cls-6" d="M102.63,158.37a3.83,3.83,0,0,1,3,1.73l2.35,4.08a3.83,3.83,0,0,1,0,3.45l-2.35,4.07a3.83,3.83,0,0,1-3,1.73H97.93a3.83,3.83,0,0,1-3-1.73l-2.35-4.07a3.83,3.83,0,0,1,0-3.45l2.35-4.08a3.83,3.83,0,0,1,3-1.73h4.71Z"/></g><g class="cls-5"><path class="cls-6" d="M49.34,146.17a1.81,1.81,0,0,1,1.41.81l1.11,1.92a1.8,1.8,0,0,1,0,1.63l-1.11,1.92a1.81,1.81,0,0,1-1.41.81H47.12a1.81,1.81,0,0,1-1.41-.81l-1.11-1.92a1.81,1.81,0,0,1,0-1.63L45.71,147a1.8,1.8,0,0,1,1.41-.81h2.22Z"/></g><g class="cls-5"><path class="cls-6" d="M95.3,53.31a1.81,1.81,0,0,1,1.41.81L97.82,56a1.8,1.8,0,0,1,0,1.63L96.71,59.6a1.81,1.81,0,0,1-1.41.81H93.08a1.81,1.81,0,0,1-1.41-.81l-1.11-1.92a1.81,1.81,0,0,1,0-1.63l1.11-1.92a1.8,1.8,0,0,1,1.41-.81H95.3Z"/></g><g class="cls-5"><path class="cls-6" d="M198,115.78a1.8,1.8,0,0,1,1.41.81l1.11,1.92a1.81,1.81,0,0,1,0,1.63l-1.11,1.92a1.81,1.81,0,0,1-1.41.81h-2.22a1.81,1.81,0,0,1-1.41-.81l-1.11-1.92a1.81,1.81,0,0,1,0-1.63l1.11-1.92a1.8,1.8,0,0,1,1.41-.81H198Z"/></g><g class="cls-5"><path class="cls-6" d="M161.11,71.29a3.83,3.83,0,0,1,3,1.73l2.35,4.08a3.83,3.83,0,0,1,0,3.45l-2.35,4.07a3.83,3.83,0,0,1-3,1.73H156.4a3.83,3.83,0,0,1-3-1.73l-2.35-4.07a3.83,3.83,0,0,1,0-3.45L153.41,73a3.83,3.83,0,0,1,3-1.73h4.71Z"/></g><g class="cls-5"><path class="cls-6" d="M57,63.77a3.83,3.83,0,0,1,3,1.73l2.35,4.08a3.83,3.83,0,0,1,0,3.45L60,77.09a3.83,3.83,0,0,1-3,1.73H52.26a3.83,3.83,0,0,1-3-1.73L46.92,73a3.83,3.83,0,0,1,0-3.45l2.35-4.08a3.83,3.83,0,0,1,3-1.73H57Z"/></g></g></g></svg>