<?xml version="1.0" encoding="UTF-8"?>
<svg width="226px" height="40px" viewBox="0 0 226 40" version="1.1" xmlns="http://www.w3.org/2000/svg" xmlns:xlink="http://www.w3.org/1999/xlink">
    <!-- Generator: Sketch 55.1 (78136) - https://sketchapp.com -->
    <title>BuzzFeed</title>
    <desc>Created with Sketch.</desc>
    <g id="Landingpage---v2" stroke="none" stroke-width="1" fill="none" fill-rule="evenodd">
        <g id="ABM-Landing-Page---Media---BuzzFeed" transform="translate(-423.000000, -805.000000)" fill="#EE3322" fill-rule="nonzero">
            <g id="BuzzFeed" transform="translate(423.000000, 805.000000)">
                <path d="M0,39 L0,0 L17.1648649,0 C24.4801802,0 28.2423423,4.73930754 28.2423423,9.9287169 C28.2423423,14.7739308 25.2378378,18.1099796 21.6063063,18.8778004 C25.7603604,19.5132383 29,23.5641548 29,28.4093686 C29,34.3136456 25.1855856,39 17.818018,39 L0,39 Z M19.881982,11.4114053 C19.881982,9.00203666 18.1576577,7.30753564 15.3882883,7.30753564 L8.2036036,7.30753564 L8.2036036,15.4887984 L15.3882883,15.4887984 C18.1576577,15.4887984 19.881982,13.9266802 19.881982,11.4114053 Z M20.6396396,27.2443992 C20.6396396,24.7820774 18.9153153,22.796334 15.7279279,22.796334 L8.2036036,22.796334 L8.2036036,31.6924644 L15.7540541,31.6924644 C18.7846847,31.6924644 20.6396396,30.0509165 20.6396396,27.2443992 Z" id="Shape"></path>
                <path d="M32,27.9497717 L32,11 L39.4940945,11 L39.4940945,27.7114155 C39.4940945,31.0748858 41.5403543,33.5114155 45.5265748,33.5114155 C49.4596457,33.5114155 51.5324803,31.0748858 51.5324803,27.7114155 L51.5324803,11 L59,11 L59,27.9232877 C59,35.0210046 54.7214567,40 45.5531496,40 C36.3848425,40 32,34.9680365 32,27.9497717 Z" id="Path"></path>
                <polygon id="Path" points="61 39 61 33.4892221 73.6869266 17.4292409 61 17.4292409 61 11 83.7626147 11 83.7626147 16.2746017 70.8383028 32.5707591 84 32.5707591 84 39"></polygon>
                <polygon id="Path" points="87 39 87 33.4892221 99.6869266 17.4292409 87 17.4292409 87 11 109.762615 11 109.762615 16.2746017 96.8383028 32.5707591 110 32.5707591 110 39"></polygon>
                <polygon id="Path" points="112 39 112 0 139 0 139 7.30753564 120.295499 7.30753564 120.295499 15.4887984 134.376712 15.4887984 134.376712 22.796334 120.295499 22.796334 120.295499 39"></polygon>
                <path d="M137,24.9732143 C137,16.6964286 143.141805,10 151.740331,10 C160.285451,10 166,16.4017857 166,25.6696429 L166,27.4375 L144.824125,27.4375 C145.358195,30.9196429 148.188766,33.8392857 153.022099,33.8392857 C155.452118,33.8392857 158.736648,32.8214286 160.57919,31.0535714 L163.943831,36.0357143 C161.11326,38.6339286 156.627072,40 152.220994,40 C143.542357,40 137,34.1339286 137,24.9732143 Z M151.740331,16.1607143 C147.093923,16.1607143 145.064457,19.4017857 144.770718,22.2410714 L158.816759,22.2410714 C158.576427,19.5089286 156.680479,16.1607143 151.740331,16.1607143 Z" id="Shape"></path>
                <path d="M167,24.9732143 C167,16.6964286 173.141805,10 181.740331,10 C190.285451,10 196,16.4017857 196,25.6696429 L196,27.4375 L174.824125,27.4375 C175.358195,30.9196429 178.188766,33.8392857 183.022099,33.8392857 C185.452118,33.8392857 188.736648,32.8214286 190.57919,31.0535714 L193.943831,36.0357143 C191.11326,38.6339286 186.627072,40 182.220994,40 C173.542357,40 167,34.1339286 167,24.9732143 Z M181.740331,16.1607143 C177.093923,16.1607143 175.064457,19.4017857 174.770718,22.2410714 L188.816759,22.2410714 C188.576427,19.5089286 186.680479,16.1607143 181.740331,16.1607143 Z" id="Shape"></path>
                <path d="M199,39 L199,11 L210.49505,11 C219.50396,11 226,16.2810458 226,24.9869281 C226,33.6666667 219.530693,39 210.548515,39 L199,39 Z M218.70198,24.9869281 C218.70198,20.6470588 216.028713,17.0392157 210.789109,17.0392157 L206.137624,17.0392157 L206.137624,32.9607843 L210.789109,32.9607843 C215.788119,32.9607843 218.70198,29.1437908 218.70198,24.9869281 Z" id="Shape"></path>
            </g>
        </g>
    </g>
</svg>