<svg version="1.1" xmlns="http://www.w3.org/2000/svg" xmlns:xlink="http://www.w3.org/1999/xlink" x="0" y="0" viewBox="0 0 840.9 299.3" xml:space="preserve" enable-background="new 0 0 840.9 299.3"><style type="text/css">.st0{display:none}.st1{display:inline}.st2{fill:#34373d}.st3{fill:#9b9faa}</style><g id="Layer_14_copy_2" class="st0"><g class="st1"><path class="st2" d="M62.9,32.2c-1.4,0-2.5-0.2-3.3-0.5c-0.8-0.4-1.7-1-2.7-1.9c-0.2-0.2-0.9-0.9-2-2.1c-1.1-1.2-2.9-2.2-5.3-3.1 c-2.4-0.9-5.2-1.4-8.3-1.4c-4.4,0-6.2,0.7-8.6,1.8c-2.4,1-4,3-4,5.8c0,1.9,0.8,3.5,2.5,4.6c1.7,1.1,4.2,2.1,7.7,3 c3.5,0.9,7.7,2.2,16.3,3.9c11,2.2,19.1,5.7,24.2,10.5c5.2,4.8,7.7,11.6,7.7,20.4c0,6.4-1.9,12-5.8,16.8 c-3.8,4.8-9.2,8.5-16.1,11.1c-6.9,2.6-12.9,3.9-21.6,3.9c-8.4,0-14.3-1.5-21.1-4.4c-6.8-2.9-12.3-6.7-16.2-11.4 C2.5,84.6,0,79.8,0,74.8c0-0.9,0-2.6,0-2.6h21.7c2,0,3.6,0.4,4.8,1.6c0.7,0.7,1.1,0.9,2.3,2.3c1.3,1.4,3.2,2.7,5.8,3.8 c2.6,1.1,5.6,1.7,9.1,1.7c12.1,0,18.1-2.6,18.1-7.7c0-1.7-0.9-3-2.6-4.2c-1.7-1.1-4.1-2.1-7.2-2.8c-3.1-0.8-8.1-1.9-14.9-3.4 l-6.6-1.3c-9.9-2.1-15.5-5.7-20.2-10.7c-4.7-5-7-11.7-7-20.1c0-5.6,1.7-10.9,5.1-15.7C11.9,11,16.8,7.2,23,4.3 C29.3,1.4,33.8,0,42,0c7.9,0,15.1,1.5,21.6,4.5c6.5,3,11.5,8,13.7,11.2c5.1,7.3,5.2,12.8,5.2,16.6C80,32.2,62.9,32.2,62.9,32.2z"/><g><path class="st2" d="M583.5,79.2H531v26h52.5c3.6,0,7.5-3.2,7.5-6.8V79.2H583.5z"/><g><path class="st2" d="M551,0.2h-20v105h20c3.6,0,7-3.2,7-6.8V6.6C558,2.9,554.6,0.2,551,0.2z"/></g></g><g><g><path class="st2" d="M455.8,0.2H436v105h19.8c3.6,0,7.2-3.2,7.2-6.8V6.6C463,2.9,459.4,0.2,455.8,0.2z"/></g><path class="st2" d="M436,71.2h43.5c13,0,23.2-3.4,30.5-9.4c7.3-6,11-15,11-26.5c0-11.5-3.7-20.2-11-26.2 c-7.4-5.9-17.5-8.9-30.5-8.9H436v23h44.5c4.4,0,7.9,1,10.6,2.9c2.7,1.9,4,4.9,4,8.9c0,4-1.3,7.2-4,9.1c-2.7,2-6.2,3-10.6,3H436 V71.2z"/></g><path class="st2" d="M261.7,5.2c6.6,3.5,11.7,8.2,15.3,14.2c3.6,6,5.6,12.7,6,20.1c0.2,2.7,0.2,23.3,0,26 c-0.4,7.4-2.4,14.1-6,20.1c-3.6,6-8.7,10.7-15.3,14.2c-6.6,3.5-12.8,5.2-21.9,5.2c-9.1,0-15.3-1.7-21.9-5.2 c-6.6-3.5-11.7-8.2-15.3-14.2c-3.6-6-5.6-12.7-6-20.1c-0.2-5.2-0.2-20.5,0-26c0.4-7.4,2.4-14.1,6-20.1c3.6-6,8.7-10.7,15.3-14.2 c6.6-3.5,12.8-5.2,21.9-5.2C249,0,255.1,1.7,261.7,5.2z M251.8,30c-2.8-2.8-6.7-4.2-11.9-4.2c-5.2,0-9.2,1.4-11.9,4.2 c-2.8,2.8-4.4,6.6-4.8,11.3c-0.3,2.9-0.3,19.2,0,22.4c0.4,4.7,2,8.5,4.8,11.3c2.8,2.8,6.7,4.2,11.9,4.2c5.2,0,9.2-1.4,11.9-4.2 c2.8-2.8,4.4-6.6,4.8-11.3c0.3-3.2,0.3-19.5,0-22.4C256.1,36.6,254.5,32.8,251.8,30z"/><g><g><path class="st2" d="M120,0.2h-20v4.5l58.2,100.5H178c3.6,0,7.2-3.3,5.4-6.7l-53-91.8C128.4,3.1,123.7,0.2,120,0.2z"/></g><path class="st2" d="M119.7,0.2H100v105h20.1c3.6,0,6.6-3,6.6-6.7c0,0,0-91.6,0-92.5C126.7,2.6,124.1,0.2,119.7,0.2z"/><g><path class="st2" d="M177.8,0.2H158v105h20c3.6,0,6-3.2,6-6.8V6.6C184,2.9,181.4,0.2,177.8,0.2z"/></g></g><path class="st2" d="M665.9,5.2c6.6,3.5,11.7,8.2,15.3,14.2c3.6,6,5.6,12.7,6,20.1c0.2,2.7,0.2,23.3,0,26 c-0.4,7.4-2.4,14.1-6,20.1c-3.6,6-8.7,10.7-15.3,14.2c-6.6,3.5-12.8,5.2-21.9,5.2c-9.1,0-15.3-1.7-21.9-5.2 c-6.6-3.5-11.7-8.2-15.3-14.2c-3.6-6-5.6-12.7-6-20.1c-0.2-5.2-0.2-20.5,0-26c0.4-7.4,2.4-14.1,6-20.1c3.6-6,8.7-10.7,15.3-14.2 C628.8,1.7,634.9,0,644,0C653.1,0,659.3,1.7,665.9,5.2z M655.9,30c-2.8-2.8-6.7-4.2-11.9-4.2c-5.2,0-9.2,1.4-11.9,4.2 c-2.8,2.8-4.4,6.6-4.8,11.3c-0.3,2.9-0.3,19.2,0,22.4c0.4,4.7,2,8.5,4.8,11.3c2.8,2.8,6.7,4.2,11.9,4.2c5.2,0,9.2-1.4,11.9-4.2 c2.8-2.8,4.4-6.6,4.8-11.3c0.3-3.2,0.3-19.5,0-22.4C660.3,36.6,658.7,32.8,655.9,30z"/><g><g><path class="st2" d="M774.8,0.2h-19.6L698,100v5.2h19c3.6,0,8.3-3,10.4-6.7l52.8-91.5C782.3,3.5,778.4,0.2,774.8,0.2z"/></g><g><path class="st2" d="M835.3,0.2h-22.4L755,100v5.2h19.8c3.6,0,8.3-3,10.4-6.7l53-91.8C840.3,3.1,838.9,0.2,835.3,0.2z"/></g><g><path class="st2" d="M717,0.2h-19v105h19c3.6,0,7-3.2,7-6.8V6.6C724,2.9,720.6,0.2,717,0.2z"/></g><g><path class="st2" d="M774.8,0.2H755v105h19.8c3.6,0,7.2-3.2,7.2-6.8V6.6C782,2.9,778.4,0.2,774.8,0.2z"/></g></g><g><g><path class="st2" d="M418,0.2h-19.6L366.7,100l1.3,5.2h19c3.6,0,7.6-3.2,8.7-6.8L425.2,7C426.4,3.4,421.6,0.2,418,0.2z"/></g><g><path class="st2" d="M361,0.2h-19.8l26.8,105h19.8c3.6,0,6.4-3.3,5.5-6.9L369.9,6.5C368.9,2.9,364.6,0.2,361,0.2z"/></g><path class="st2" d="M336.1,98.3c0,0-23.8-93.1-23.8-93.3c-0.8-2.8-3.4-4.8-6.4-4.8c-0.3,0-21.8,0-21.8,0l26.8,105h19.8 C334.2,105.2,337,102,336.1,98.3z"/><path class="st2" d="M360.8,0.2h-19.6L309.5,100l1.3,5.2c0,0,20.5,0,20.8,0c3,0,5.4-2.1,6.2-4.7C337.9,100.1,368,7,368,7 C369.1,3.4,364.4,0.2,360.8,0.2z"/></g></g></g><g id="Layer_14_copy_3"><g><g><path class="st3" d="M578.9,229.1c-0.6-0.6-0.9-1.4-0.9-2.4v-98.4c0-1,0.3-1.8,0.9-2.4c0.6-0.6,1.4-0.9,2.4-0.9h2.8 c1,0,1.8,0.3,2.4,0.9c0.6,0.6,0.9,1.4,0.9,2.4v98.4c0,1-0.3,1.8-0.9,2.4c-0.6,0.6-1.4,0.9-2.4,0.9h-2.8 C580.3,230,579.5,229.7,578.9,229.1z"/><path class="st3" d="M611.3,220.7c-6.9-7.2-10.6-16.8-11-29c-0.1-3-0.1-7.7-0.1-14.2c0-6.5,0-11.2,0.1-14.2 c0.4-12.1,4-21.8,11-29c6.9-7.2,16.6-10.8,29.1-10.8c8.5,0,15.6,1.6,21.5,4.8c5.8,3.2,10.1,7,13,11.3c2.8,4.3,4.4,8.2,4.6,11.6 v0.3c0,0.8-0.3,1.5-0.9,2c-0.6,0.5-1.4,0.8-2.2,0.8H673c-0.9,0-1.6-0.2-2-0.6c-0.4-0.4-0.8-1.2-1.2-2.4c-1.7-5.3-5-9.8-9.8-13.3 c-4.9-3.6-11.4-5.4-19.6-5.4c-9.3,0-16.6,2.5-22,7.7c-5.4,5.1-8.2,13-8.6,23.8c-0.1,3-0.2,7.5-0.2,13.5s0,10.5,0.2,13.5 c0.4,10.8,3.3,18.8,8.6,23.8c5.3,5.1,12.7,7.7,22,7.7c9.3,0,16.8-2.6,22.5-8c5.7-5.3,8.6-13.1,8.6-23.5v-7.7h-26.1 c-1,0-1.8-0.3-2.4-1c-0.6-0.6-0.9-1.5-0.9-2.5v-2.1c0-1,0.3-1.8,0.9-2.5c0.6-0.6,1.4-1,2.4-1h32.1c1.1,0,1.9,0.3,2.5,0.9 c0.6,0.6,0.9,1.5,0.9,2.5V191c0,8-1.6,15.1-4.8,21.2c-3.2,6.1-7.9,10.9-14,14.2c-6.1,3.4-13.3,5.1-21.8,5.1 C627.9,231.5,618.2,227.9,611.3,220.7z"/><path class="st3" d="M693.7,229.1c-0.6-0.6-0.9-1.4-0.9-2.4v-98.4c0-1,0.3-1.8,0.9-2.4c0.6-0.6,1.4-0.9,2.4-0.9h2.8 c1,0,1.8,0.3,2.4,0.9c0.6,0.6,0.9,1.4,0.9,2.4V221H754c1.1,0,2,0.3,2.5,0.9c0.6,0.6,0.9,1.5,0.9,2.5v2.2c0,1-0.3,1.8-1,2.4 c-0.7,0.6-1.5,0.9-2.5,0.9h-57.9C695.1,230,694.3,229.7,693.7,229.1z"/><path class="st3" d="M770,221.1c-6.7-6.9-10-17.5-10-31.7v-60.9c0-1,0.3-1.8,0.9-2.5c0.6-0.6,1.4-1,2.4-1h2.7 c1.1,0,2,0.3,2.5,0.9c0.6,0.6,0.9,1.5,0.9,2.5v61.3c0,11,2.5,19.2,7.6,24.6c5.1,5.4,12.3,8.1,21.6,8.1c9.2,0,16.3-2.7,21.4-8.1 c5.1-5.4,7.7-13.6,7.7-24.6v-61.3c0-1.1,0.3-2,1-2.5c0.6-0.6,1.5-0.9,2.5-0.9h2.7c1,0,1.8,0.3,2.4,1c0.6,0.7,0.9,1.5,0.9,2.5 v60.9c0,14.3-3.3,24.9-9.9,31.8c-6.6,6.9-16.2,10.3-28.6,10.3C786.2,231.5,776.6,228,770,221.1z"/></g><g><path class="st3" d="M579.4,286.3c-1.9-1.7-2.9-4.3-3-7.8c0-0.7,0-1.8,0-3.2c0-1.4,0-2.5,0-3.3c0.1-3.4,1.1-6,3.1-7.8 c2-1.8,4.6-2.7,8-2.7c3.3,0,6,0.9,8,2.7c2,1.8,3,4.4,3.1,7.8c0.1,1.5,0.1,2.6,0.1,3.3c0,0.7,0,1.8-0.1,3.2 c-0.1,3.4-1.1,6-3.1,7.8s-4.6,2.6-8.1,2.6C584,288.9,581.3,288.1,579.4,286.3z M591.5,283c1-1,1.5-2.6,1.6-4.7 c0.1-1.5,0.1-2.5,0.1-3.1c0-0.6,0-1.6-0.1-3.1c-0.1-2.1-0.6-3.6-1.6-4.7c-1-1-2.3-1.5-4-1.5c-1.7,0-3,0.5-4,1.5 c-1,1-1.5,2.6-1.6,4.7c0,0.7,0,1.8,0,3.1c0,1.3,0,2.3,0,3.1c0.1,2.1,0.6,3.6,1.6,4.7c1,1,2.3,1.5,4,1.5 C589.2,284.5,590.5,284,591.5,283z"/><path class="st3" d="M605,288.3c-0.2-0.2-0.3-0.4-0.3-0.6v-24.7c0-0.3,0.1-0.5,0.2-0.7c0.2-0.2,0.4-0.3,0.7-0.3h10.2 c3.1,0,5.5,0.7,7.2,2.2c1.7,1.4,2.6,3.5,2.6,6.3c0,2.7-0.9,4.8-2.6,6.2c-1.7,1.4-4.2,2.1-7.2,2.1h-5.6v8.9c0,0.3-0.1,0.5-0.3,0.7 c-0.2,0.2-0.4,0.2-0.7,0.2h-3.6C605.4,288.6,605.2,288.5,605,288.3z M615.7,274.5c1.5,0,2.6-0.3,3.4-1c0.8-0.7,1.2-1.7,1.2-3.1 c0-1.3-0.4-2.3-1.1-3.1c-0.7-0.7-1.9-1.1-3.4-1.1h-5.5v8.3H615.7z"/><path class="st3" d="M631.3,288.3c-0.2-0.2-0.3-0.4-0.3-0.6v-24.7c0-0.3,0.1-0.5,0.2-0.7c0.2-0.2,0.4-0.3,0.7-0.3h16.8 c0.3,0,0.5,0.1,0.7,0.3c0.2,0.2,0.3,0.4,0.3,0.7v2.5c0,0.3-0.1,0.5-0.3,0.7c-0.2,0.2-0.4,0.2-0.7,0.2h-12.5v6.7h11.6 c0.3,0,0.5,0.1,0.7,0.3c0.2,0.2,0.3,0.4,0.3,0.7v2.4c0,0.3-0.1,0.5-0.3,0.7c-0.2,0.2-0.4,0.2-0.7,0.2h-11.6v6.9H649 c0.3,0,0.5,0.1,0.7,0.2c0.2,0.2,0.3,0.4,0.3,0.7v2.6c0,0.3-0.1,0.5-0.3,0.7c-0.2,0.2-0.4,0.2-0.7,0.2h-17.1 C631.7,288.6,631.4,288.5,631.3,288.3z"/><path class="st3" d="M656.1,288.3c-0.2-0.2-0.3-0.4-0.3-0.6v-24.7c0-0.3,0.1-0.5,0.2-0.7c0.2-0.2,0.4-0.3,0.7-0.3h3 c0.5,0,0.8,0.2,1.1,0.6l10.9,16.9v-16.6c0-0.3,0.1-0.5,0.2-0.7c0.2-0.2,0.4-0.3,0.7-0.3h3.3c0.3,0,0.5,0.1,0.7,0.3 c0.2,0.2,0.3,0.4,0.3,0.7v24.7c0,0.3-0.1,0.5-0.3,0.7c-0.2,0.2-0.4,0.3-0.6,0.3h-3c-0.5,0-0.9-0.2-1.1-0.6l-10.8-16.5v16.2 c0,0.3-0.1,0.5-0.2,0.6c-0.2,0.2-0.4,0.3-0.7,0.3h-3.3C656.5,288.6,656.3,288.5,656.1,288.3z"/><path class="st3" d="M687.2,287.9c-1.6-0.7-2.8-1.6-3.7-2.7c-0.8-1.1-1.3-2.3-1.3-3.6c0-0.2,0.1-0.4,0.2-0.6 c0.2-0.2,0.3-0.2,0.6-0.2h3.5c0.3,0,0.5,0.1,0.7,0.2c0.2,0.1,0.3,0.3,0.5,0.5c0.3,0.9,0.8,1.6,1.7,2.2c0.9,0.6,2.1,0.9,3.7,0.9 c1.8,0,3.1-0.3,4-0.9c0.9-0.6,1.3-1.4,1.3-2.5c0-0.7-0.2-1.3-0.7-1.7s-1.1-0.9-2.1-1.2c-0.9-0.3-2.3-0.8-4.1-1.2 c-3-0.7-5.2-1.6-6.6-2.8c-1.4-1.2-2.1-2.8-2.1-5c0-1.5,0.4-2.8,1.2-3.9c0.8-1.2,2-2.1,3.5-2.7c1.5-0.7,3.3-1,5.3-1 c2.1,0,3.9,0.4,5.5,1.1c1.5,0.7,2.7,1.7,3.5,2.8s1.2,2.2,1.3,3.3c0,0.2-0.1,0.4-0.2,0.6c-0.2,0.2-0.3,0.2-0.6,0.2h-3.6 c-0.6,0-0.9-0.2-1.1-0.7c-0.1-0.8-0.6-1.5-1.5-2c-0.9-0.5-1.9-0.8-3.2-0.8c-1.4,0-2.5,0.3-3.3,0.8c-0.8,0.5-1.2,1.3-1.2,2.3 c0,0.7,0.2,1.3,0.6,1.7s1,0.9,1.9,1.2c0.9,0.3,2.1,0.7,3.8,1.2c2.3,0.5,4,1.1,5.4,1.7s2.3,1.4,2.9,2.4c0.6,1,1,2.2,1,3.7 c0,1.6-0.5,3.1-1.3,4.3c-0.9,1.2-2.2,2.1-3.8,2.8s-3.5,1-5.7,1C690.8,288.9,688.9,288.6,687.2,287.9z"/><path class="st3" d="M711.6,286.3c-1.9-1.7-2.9-4.3-3-7.8c0-0.7,0-1.8,0-3.2c0-1.4,0-2.5,0-3.3c0.1-3.4,1.1-6,3.1-7.8 c2-1.8,4.6-2.7,8-2.7c3.3,0,6,0.9,8,2.7c2,1.8,3,4.4,3.1,7.8c0,1.5,0.1,2.6,0.1,3.3c0,0.7,0,1.8-0.1,3.2c-0.1,3.4-1.1,6-3.1,7.8 c-1.9,1.7-4.6,2.6-8.1,2.6C716.2,288.9,713.5,288.1,711.6,286.3z M723.7,283c1-1,1.5-2.6,1.6-4.7c0.1-1.5,0.1-2.5,0.1-3.1 c0-0.6,0-1.6-0.1-3.1c-0.1-2.1-0.6-3.6-1.6-4.7c-1-1-2.3-1.5-4-1.5c-1.7,0-3,0.5-4,1.5c-1,1-1.5,2.6-1.6,4.7c0,0.7,0,1.8,0,3.1 c0,1.3,0,2.3,0,3.1c0.1,2.1,0.6,3.6,1.6,4.7c1,1,2.3,1.5,4,1.5S722.7,284,723.7,283z"/><path class="st3" d="M739.6,286.3c-1.9-1.7-2.8-4.4-2.8-7.9v-15.5c0-0.3,0.1-0.5,0.2-0.7c0.2-0.2,0.4-0.3,0.7-0.3h3.5 c0.3,0,0.5,0.1,0.7,0.3c0.2,0.2,0.3,0.4,0.3,0.7v15.5c0,2,0.5,3.5,1.4,4.5c1,1,2.3,1.5,4,1.5s3.1-0.5,4-1.5c1-1,1.4-2.5,1.4-4.5 v-15.5c0-0.3,0.1-0.5,0.3-0.7c0.2-0.2,0.4-0.3,0.7-0.3h3.5c0.3,0,0.5,0.1,0.7,0.3c0.2,0.2,0.2,0.4,0.2,0.7v15.5 c0,3.5-0.9,6.2-2.8,7.9c-1.9,1.7-4.5,2.6-8,2.6C744.1,288.9,741.5,288.1,739.6,286.3z"/><path class="st3" d="M765.5,288.3c-0.2-0.2-0.3-0.4-0.3-0.6v-24.7c0-0.3,0.1-0.5,0.2-0.7c0.2-0.2,0.4-0.3,0.7-0.3h9.8 c3.1,0,5.6,0.7,7.3,2.2c1.8,1.4,2.6,3.5,2.6,6.2c0,1.8-0.4,3.4-1.3,4.7s-2.1,2.2-3.7,2.7l5.5,9.7c0.1,0.2,0.1,0.3,0.1,0.4 c0,0.2-0.1,0.4-0.2,0.6c-0.2,0.2-0.3,0.2-0.6,0.2h-3.5c-0.4,0-0.7-0.1-1-0.3c-0.2-0.2-0.4-0.4-0.6-0.7l-4.9-9h-5.2v9.1 c0,0.3-0.1,0.5-0.3,0.6c-0.2,0.2-0.4,0.3-0.7,0.3h-3.5C765.9,288.6,765.7,288.5,765.5,288.3z M775.8,274.2c1.5,0,2.7-0.3,3.4-1 c0.8-0.7,1.1-1.7,1.1-2.9s-0.4-2.3-1.1-3c-0.8-0.7-1.9-1-3.4-1h-5.3v8H775.8z"/><path class="st3" d="M794,286.3c-1.9-1.8-2.9-4.3-3.1-7.6c0-0.7,0-1.8,0-3.3c0-1.6,0-2.7,0-3.4c0.1-3.2,1.2-5.8,3.1-7.6 c1.9-1.8,4.6-2.7,8.1-2.7c2.3,0,4.2,0.4,5.9,1.2c1.7,0.8,3,1.8,3.9,3.2c0.9,1.3,1.4,2.9,1.5,4.5v0.1c0,0.2-0.1,0.4-0.2,0.5 c-0.2,0.1-0.3,0.2-0.6,0.2h-3.7c-0.3,0-0.5-0.1-0.7-0.2c-0.2-0.1-0.3-0.4-0.4-0.7c-0.4-1.6-1-2.7-2-3.3c-0.9-0.6-2.2-1-3.7-1 c-3.6,0-5.5,2-5.7,6.1c0,0.7,0,1.7,0,3.2s0,2.5,0,3.2c0.2,4.1,2,6.1,5.7,6.1c1.5,0,2.8-0.3,3.7-1c1-0.6,1.6-1.8,2-3.3 c0.1-0.4,0.2-0.6,0.4-0.7c0.2-0.1,0.4-0.2,0.7-0.2h3.7c0.2,0,0.4,0.1,0.6,0.2s0.2,0.3,0.2,0.6c-0.1,1.7-0.5,3.2-1.5,4.5 s-2.2,2.4-3.9,3.2c-1.7,0.8-3.6,1.2-5.9,1.2C798.6,288.9,795.9,288,794,286.3z"/><path class="st3" d="M819.3,288.3c-0.2-0.2-0.3-0.4-0.3-0.6v-24.7c0-0.3,0.1-0.5,0.2-0.7c0.2-0.2,0.4-0.3,0.7-0.3h16.8 c0.3,0,0.5,0.1,0.7,0.3c0.2,0.2,0.3,0.4,0.3,0.7v2.5c0,0.3-0.1,0.5-0.3,0.7c-0.2,0.2-0.4,0.2-0.7,0.2h-12.5v6.7h11.6 c0.3,0,0.5,0.1,0.7,0.3c0.2,0.2,0.3,0.4,0.3,0.7v2.4c0,0.3-0.1,0.5-0.3,0.7c-0.2,0.2-0.4,0.2-0.7,0.2h-11.6v6.9H837 c0.3,0,0.5,0.1,0.7,0.2c0.2,0.2,0.3,0.4,0.3,0.7v2.6c0,0.3-0.1,0.5-0.3,0.7c-0.2,0.2-0.4,0.2-0.7,0.2H820 C819.7,288.6,819.5,288.5,819.3,288.3z"/></g><g><g><g><path class="st3" d="M244,0c-20.1,0-37.4,13.7-42.9,32.4c-0.9,3.6-1.8,7.3-1.8,11.4c0,3.6,0,16.4,0,20.1 c0,4.1,0.9,7.8,1.8,11.4c5,18.7,22.3,32.8,42.9,32.8s37.4-13.7,42.4-32.8c0.9-3.6,1.4-7.3,1.4-11.4c0-3.6,0-16.4,0-20.1 c0-4.1-0.5-7.8-1.4-11.4C281.4,14.1,264.5,0,244,0z M260.9,64.3c0,4.1-1.4,7.8-4.1,10.5c-3.2,3.6-7.8,5.9-12.8,5.9 c-5,0-10-2.3-13.2-5.9c-2.3-2.7-4.6-6.4-4.6-10.5c0-3.6,0-15.5,0-19.2c0-4.6,2.3-8.7,5.5-11.9c3.2-3.2,7.3-5,11.9-5 c4.6,0,8.7,1.8,11.9,5c3.2,3.2,5,7.3,5,11.9C260.9,48.8,260.9,60.7,260.9,64.3z"/></g></g><g><g><path class="st3" d="M655.4,0c-20.1,0-37.4,13.7-42.9,32.4c-0.9,3.6-1.8,7.3-1.8,11.4c0,3.6,0,16.4,0,20.1 c0,4.1,0.9,7.8,1.8,11.4c5,18.7,22.3,32.8,42.9,32.8s37.4-13.7,42.4-32.8c0.9-3.6,1.4-7.3,1.4-11.4c0-3.6,0-16.4,0-20.1 c0-4.1-0.5-7.8-1.4-11.4C692.8,14.1,675.4,0,655.4,0z M672.3,64.3c0,4.1-1.4,7.8-4.1,10.5c-3.2,3.6-7.8,5.9-12.8,5.9 s-10-2.3-13.2-5.9c-2.3-2.7-4.1-6.4-4.1-10.5c0-3.6,0-15.5,0-19.2c0-4.6,2.3-8.7,5.5-11.9c3.2-3.2,7.3-5,11.9-5s8.7,1.8,11.9,5 c3.2,3.2,5,7.3,5,11.9C671.8,48.8,672.3,60.7,672.3,64.3z"/></g></g><g><path class="st3" d="M187,4.1h-27.4v46.5l-24.2-42c0,0-2.7-4.6-8.2-4.6c-1.8,0-27.4,0-27.4,0v100.3c0,0,12.3,0,17.3,0 c5,0,10-2.7,10-9.1c0-3.6,0-26.5,0-47.4l33.3,56.6h16c5,0,10-2.7,10-8.7V4.1H187z"/></g><g><path class="st3" d="M565.5,81.6V4.1h-27.4v100.3c0,0,48.3,0,51.5,0c6.4,0,7.8-4.1,7.8-9.1s0-13.7,0-13.7H565.5z"/></g><g><path class="st3" d="M491.2,2.7c-3.2,0-49.7,0-49.7,0v103.1c0,0,10.9,0,16,0s9.6-4.1,9.6-10.5c0-1.8,0-20.1,0-20.1h24.2 c20.1,0,36-16.4,36-36S511.3,2.7,491.2,2.7z M491.2,49.3H467c0-6.8,0-13.7,0-20.5h24.2c5.9,0,10,4.6,10,10 S496.7,49.3,491.2,49.3z"/></g><g><path class="st3" d="M334.8,105.4c6.4,0,9.1-3.6,10.5-7.8c0.5-0.9,7.8-25.1,14.6-48.8l13.7,45.6l3.2,9.6c0,0,8.7,0,13.2,0 s7.8-2.3,9.1-5.5c0.5-0.9,0.9-0.9,0.9-1.4c0.5-1.8,27.8-93,27.8-93h-27.4l-13.7,46.1c-5.5-18.7-10.9-36.5-11.9-38.8 c-1.4-4.6-5-7.3-9.1-7.3c-2.7,0-19.2,0-20.1,0l0,0L332,49.7c-5.5-18.7-10.9-36.5-11.9-38.3c-0.9-5.5-5.5-7.3-9.6-7.3 c-6.4,0-19.6,0-19.6,0l30.6,102.2L334.8,105.4z"/></g><g><path class="st3" d="M745.7,105.4c6.4,0,9.1-3.6,10.5-7.8c0.5-0.9,7.8-25.1,14.6-48.8l13.7,45.6l3.2,9.6c0,0,8.7,0,13.2,0 c4.6,0,7.8-2.3,9.1-5.5c0.5-0.9,0.9-0.9,0.9-1.4c0.9-1.8,28.3-93,28.3-93h-27.4l-13.7,46.1c-5.5-18.7-10.9-36.5-11.9-38.8 c-1.4-4.6-5-7.3-9.1-7.3c-2.7,0-19.2,0-20.1,0l0,0l-13.7,45.6c-5.5-18.7-10.9-36.5-11.9-38.3c-1.4-5.5-5.9-7.3-10-7.3 c-6.4,0-19.6,0-19.6,0l30.6,102.2L745.7,105.4z"/></g><g><path class="st3" d="M83.9,59.3c-2.7-4.1-7.3-7.8-12.8-10c-5-2.3-11.4-4.6-19.6-6.8c-6.4-1.8-11.4-3.2-14.6-4.6 c-3.2-1.4-5.9-2.3-5.9-4.6s0.9-3.6,2.3-4.1c2.3-1.4,5.9-2.3,10.5-2.3c4.1,0,7.8,0.5,10,2.3c2.7,1.8,3.2,2.7,3.2,2.7l0,0h28.3 v-1.4c-0.5-5-2.3-10-5.5-14.6S71.6,7.8,65.2,4.6C59.7,1.4,52,0,43.8,0c-7.8,0-15.1,1.4-21,3.6c-6.4,2.7-11.4,6.8-14.6,11.4 c-3.6,5-5.5,10.5-5.5,16.4c0,6.4,1.4,11.4,4.6,16c2.7,4.1,6.8,7.8,12.3,10.5c4.6,2.3,10.9,4.6,18.2,6.8c7.3,1.8,12.3,3.6,16,5 c3.2,1.4,5,2.3,5.9,3.2c0.5,0.5,0.9,0.9,0.9,2.3c0,2.3-0.9,3.6-2.7,5c-1.8,1.4-5.5,2.7-13.2,2.7c-5.5,0-9.6-0.5-12.3-2.3 c-1.8-1.4-3.2-4.1-4.1-4.1H0c0,0,0,0,0,0.5l0,0C0.5,82.5,2.3,88,5.9,93c3.6,4.6,9.1,8.2,16,11.4c6.4,2.7,14.1,4.1,22.8,4.1 c12.8,0,23.3-2.7,31-8.2c8.7-5.9,12.8-14.6,12.8-25.1C88.9,68.9,87.1,63.4,83.9,59.3z"/></g></g></g></g></svg>