<svg version="1.1" xmlns="http://www.w3.org/2000/svg" xmlns:xlink="http://www.w3.org/1999/xlink" x="0" y="0" viewBox="0 0 841.6 231.5" xml:space="preserve" enable-background="new 0 0 841.6 231.5"><style type="text/css">.st0{display:none}.st1{display:inline}.st2{fill:#34373d}.st3{fill:#9b9faa}</style><g id="Layer_14_copy_3"><g><g><path class="st3" d="M0.1,190.1c-0.1-3-0.1-7.2-0.1-12.6s0-9.6,0.1-12.6C0.5,151.3,4.2,141,11.2,134c7-7,16.5-10.5,28.5-10.5 S61.2,127,68.2,134c7,7,10.7,17.3,11.1,30.9c0.2,6,0.3,10.2,0.3,12.6s-0.1,6.6-0.3,12.6c-0.7,27.6-13.9,41.4-39.6,41.4 C14,231.5,0.8,217.7,0.1,190.1z M61.3,214.3c5.3-5.4,8.2-13.8,8.6-25c0.2-6,0.3-9.9,0.3-11.8c0-1.9-0.1-5.8-0.3-11.8 c-0.4-11.2-3.3-19.5-8.7-25c-5.4-5.4-12.6-8.2-21.4-8.2c-8.9,0-16.1,2.7-21.5,8.2c-5.4,5.5-8.3,13.8-8.7,25 c-0.1,3-0.2,7-0.2,11.8c0,4.9,0,8.8,0.2,11.8c0.4,11.2,3.3,19.5,8.6,25c5.3,5.5,12.5,8.2,21.5,8.2S55.9,219.8,61.3,214.3z"/><path class="st3" d="M93.1,229.1c-0.6-0.6-0.9-1.4-0.9-2.4v-98.2c0-1,0.3-1.8,0.9-2.5c0.6-0.6,1.4-1,2.4-1H132 c10.7,0,19.1,2.7,25.3,8c6.2,5.4,9.2,13,9.2,23c0,10-3.1,17.7-9.2,23c-6.2,5.4-14.6,8-25.3,8h-30.3v39.6c0,1-0.3,1.8-1,2.4 c-0.7,0.6-1.5,0.9-2.5,0.9h-2.7C94.5,230,93.7,229.7,93.1,229.1z M131.2,178.1c8.6,0,15-1.9,19.4-5.6c4.3-3.8,6.5-9.2,6.5-16.4 s-2.2-12.7-6.5-16.4c-4.3-3.8-10.8-5.6-19.4-5.6h-29.5v44.1H131.2z"/><path class="st3" d="M176.1,229.1c-0.6-0.6-0.9-1.4-0.9-2.4v-98.2c0-1,0.3-1.8,0.9-2.5c0.6-0.6,1.4-1,2.4-1H237 c1.1,0,1.9,0.3,2.5,0.9c0.6,0.6,0.9,1.5,0.9,2.5v2.2c0,1-0.3,1.8-1,2.4c-0.7,0.6-1.5,0.9-2.5,0.9h-52.4v38.2h49 c1.1,0,2,0.3,2.6,0.9c0.6,0.6,0.9,1.5,0.9,2.5v2.2c0,1-0.3,1.8-1,2.4c-0.7,0.6-1.5,0.9-2.5,0.9h-49V221h53.5c1.1,0,2,0.3,2.6,0.9 c0.6,0.6,0.9,1.5,0.9,2.5v2.2c0,1-0.3,1.8-1,2.4c-0.7,0.6-1.5,0.9-2.5,0.9h-59.7C177.5,230,176.7,229.7,176.1,229.1z"/><path class="st3" d="M253.6,229.1c-0.6-0.6-0.9-1.4-0.9-2.4v-98.2c0-1,0.3-1.8,0.9-2.5c0.6-0.6,1.4-1,2.4-1h3.1 c1.3,0,2.3,0.6,3.2,1.8l55.3,84.6v-83c0-1,0.3-1.8,0.9-2.5c0.6-0.6,1.4-1,2.4-1h2.7c1.1,0,2,0.3,2.5,0.9c0.6,0.6,0.9,1.5,0.9,2.5 v98.1c0,1-0.3,1.8-0.9,2.5c-0.6,0.7-1.4,1-2.4,1h-3.3c-1.3,0-2.4-0.6-3.2-1.8l-55.2-84.3v82.8c0,1-0.3,1.8-1,2.4 c-0.7,0.6-1.5,0.9-2.5,0.9H256C255,230,254.2,229.7,253.6,229.1z"/><path class="st3" d="M355.3,227.7c-5.8-2.5-10.2-5.9-13.2-10c-3.1-4.1-4.7-8.5-4.9-13.2c0-0.8,0.3-1.5,0.9-2.1 c0.6-0.6,1.4-0.9,2.2-0.9h3c1.8,0,2.9,1,3.3,3c0.7,4.8,3.4,9,8.2,12.6c4.8,3.6,11.7,5.4,20.7,5.4c9.5,0,16.6-1.7,21.2-5.2 c4.6-3.5,7-8.3,7-14.5c0-3.8-1.1-6.9-3.4-9.4c-2.2-2.4-5.5-4.6-9.8-6.4c-4.3-1.8-10.8-4.2-19.5-7c-7.7-2.5-13.7-5-18.1-7.3 c-4.4-2.4-7.6-5.3-9.7-8.9c-2.1-3.5-3.1-7.9-3.1-13.3c0-5.1,1.4-9.7,4.1-13.8c2.7-4.1,6.7-7.3,11.9-9.7 c5.2-2.3,11.4-3.5,18.6-3.5c7.4,0,13.7,1.3,19.1,4c5.3,2.7,9.3,6,12,10.1c2.7,4,4.1,8.1,4.3,12.2c0,0.8-0.3,1.5-0.8,2.1 c-0.6,0.6-1.3,0.9-2.3,0.9h-3c-0.7,0-1.4-0.2-2.1-0.7c-0.7-0.5-1.1-1.2-1.2-2.3c-0.6-5-3.3-9.1-8-12.4 c-4.8-3.2-10.7-4.9-17.9-4.9c-7.7,0-13.8,1.5-18.4,4.5c-4.6,3-6.8,7.5-6.8,13.5c0,3.9,1,7.1,3.1,9.7c2,2.5,5.1,4.8,9.2,6.6 c4.1,1.9,10.1,4.1,18.1,6.7c8.2,2.6,14.6,5.1,19.2,7.5c4.6,2.4,8.1,5.3,10.4,8.7c2.3,3.4,3.5,7.8,3.5,13.2c0,9-3.4,16-10,21.1 c-6.7,5.1-15.9,7.6-27.6,7.6C367.8,231.5,361,230.2,355.3,227.7z"/><path class="st3" d="M419.5,190.1c-0.1-3-0.1-7.2-0.1-12.6s0-9.6,0.1-12.6c0.4-13.6,4.1-23.9,11.1-30.9c7-7,16.5-10.5,28.5-10.5 s21.5,3.5,28.5,10.5c7,7,10.7,17.3,11.1,30.9c0.2,6,0.3,10.2,0.3,12.6s-0.1,6.6-0.3,12.6c-0.7,27.6-13.9,41.4-39.6,41.4 C433.4,231.5,420.2,217.7,419.5,190.1z M480.7,214.3c5.3-5.4,8.2-13.8,8.6-25c0.2-6,0.3-9.9,0.3-11.8c0-1.9-0.1-5.8-0.3-11.8 c-0.4-11.2-3.3-19.5-8.7-25c-5.4-5.4-12.6-8.2-21.4-8.2c-8.9,0-16.1,2.7-21.5,8.2c-5.4,5.5-8.3,13.8-8.7,25 c-0.1,3-0.2,7-0.2,11.8c0,4.9,0,8.8,0.2,11.8c0.4,11.2,3.3,19.5,8.6,25c5.3,5.5,12.5,8.2,21.5,8.2S475.3,219.8,480.7,214.3z"/><path class="st3" d="M520.7,221.1c-6.7-6.9-10-17.5-10-31.7v-60.9c0-1,0.3-1.8,0.9-2.5c0.6-0.6,1.4-1,2.4-1h2.7 c1.1,0,2,0.3,2.5,0.9c0.6,0.6,0.9,1.5,0.9,2.5v61.3c0,11,2.5,19.2,7.6,24.6c5.1,5.4,12.3,8.1,21.6,8.1c9.2,0,16.3-2.7,21.4-8.1 c5.1-5.4,7.7-13.6,7.7-24.6v-61.3c0-1.1,0.3-2,1-2.5c0.6-0.6,1.5-0.9,2.5-0.9h2.7c1,0,1.8,0.3,2.4,1c0.6,0.7,0.9,1.5,0.9,2.5 v60.9c0,14.3-3.3,24.9-9.9,31.8c-6.6,6.9-16.2,10.3-28.6,10.3C536.9,231.5,527.4,228,520.7,221.1z"/><path class="st3" d="M604.9,229.1c-0.6-0.6-0.9-1.4-0.9-2.4v-98.2c0-1,0.3-1.8,0.9-2.5c0.6-0.6,1.4-1,2.4-1h34.9 c10.8,0,19.2,2.5,25.4,7.7c6.1,5.1,9.1,12.7,9.1,22.6c0,7.9-1.9,14.3-5.8,19.1c-3.9,4.9-9.5,8.1-16.8,9.8l24.1,41.1 c0.3,0.6,0.5,1.2,0.5,1.7c0,0.8-0.3,1.5-0.9,2.1c-0.6,0.6-1.3,0.9-2.1,0.9h-1.8c-1.5,0-2.6-0.3-3.4-1c-0.8-0.6-1.5-1.7-2.3-3.1 l-23.8-40.4h-30.9v41.1c0,1-0.3,1.8-1,2.4c-0.7,0.6-1.5,0.9-2.5,0.9h-2.7C606.3,230,605.5,229.7,604.9,229.1z M641.5,176.6 c8.7,0,15.2-1.8,19.4-5.3c4.2-3.5,6.4-8.9,6.4-16c0-7.1-2.1-12.4-6.4-16c-4.3-3.5-10.7-5.3-19.4-5.3h-28v42.6H641.5z"/><path class="st3" d="M695.1,220.5c-6.5-7.3-10-17.2-10.5-29.6c-0.1-2.7-0.2-7.1-0.2-13.2c0-6.2,0-10.7,0.2-13.5 c0.5-12.4,4-22.3,10.5-29.6c6.5-7.4,16.2-11,29.2-11c8.9,0,16.3,1.6,22.2,4.9c5.9,3.3,10.3,7.3,13.1,12.3c2.9,5,4.4,10,4.7,15.2 v0.3c0,0.8-0.3,1.5-0.9,2c-0.6,0.5-1.3,0.8-2.2,0.8h-3c-1.8,0-2.9-1.1-3.3-3.2c-1.9-8.5-5.4-14.5-10.3-18 c-5-3.5-11.8-5.2-20.2-5.2c-9.4,0-16.7,2.7-21.9,8c-5.2,5.3-8,13.5-8.4,24.5c-0.1,2.7-0.1,6.9-0.1,12.4c0,5.6,0,9.9,0.1,12.8 c0.4,11,3.2,19.2,8.4,24.5c5.2,5.3,12.5,8,21.9,8c8.5,0,15.2-1.7,20.2-5.2c5-3.5,8.4-9.5,10.3-18c0.4-2.1,1.5-3.2,3.3-3.2h3 c0.9,0,1.7,0.3,2.3,0.8c0.6,0.6,0.9,1.3,0.8,2.2c-0.3,5.2-1.9,10.3-4.7,15.2c-2.8,5-7.2,9.1-13.1,12.3 c-5.9,3.3-13.3,4.9-22.2,4.9C711.3,231.5,701.6,227.8,695.1,220.5z"/><path class="st3" d="M776.1,229.1c-0.6-0.6-0.9-1.4-0.9-2.4v-98.2c0-1,0.3-1.8,0.9-2.5c0.6-0.6,1.4-1,2.4-1H837 c1.1,0,1.9,0.3,2.5,0.9c0.6,0.6,0.9,1.5,0.9,2.5v2.2c0,1-0.3,1.8-1,2.4c-0.7,0.6-1.5,0.9-2.5,0.9h-52.4v38.2h49 c1.1,0,2,0.3,2.6,0.9c0.6,0.6,0.9,1.5,0.9,2.5v2.2c0,1-0.3,1.8-1,2.4c-0.7,0.6-1.5,0.9-2.5,0.9h-49V221h53.5c1.1,0,2,0.3,2.6,0.9 c0.6,0.6,0.9,1.5,0.9,2.5v2.2c0,1-0.3,1.8-1,2.4c-0.7,0.6-1.5,0.9-2.5,0.9h-59.7C777.5,230,776.7,229.7,776.1,229.1z"/></g><g><g><g><path class="st3" d="M246.5,0c-20.1,0-37.4,13.7-42.9,32.4c-0.9,3.6-1.8,7.3-1.8,11.4c0,3.6,0,16.4,0,20.1 c0,4.1,0.9,7.8,1.8,11.4c5,18.7,22.3,32.8,42.9,32.8s37.4-13.7,42.4-32.8c0.9-3.6,1.4-7.3,1.4-11.4c0-3.6,0-16.4,0-20.1 c0-4.1-0.5-7.8-1.4-11.4C283.9,14.1,267,0,246.5,0z M263.3,64.3c0,4.1-1.4,7.8-4.1,10.5c-3.2,3.6-7.8,5.9-12.8,5.9 c-5,0-10-2.3-13.2-5.9c-2.3-2.7-4.6-6.4-4.6-10.5c0-3.6,0-15.5,0-19.2c0-4.6,2.3-8.7,5.5-11.9c3.2-3.2,7.3-5,11.9-5 c4.6,0,8.7,1.8,11.9,5c3.2,3.2,5,7.3,5,11.9C263.3,48.8,263.3,60.7,263.3,64.3z"/></g></g><g><g><path class="st3" d="M657.8,0c-20.1,0-37.4,13.7-42.9,32.4c-0.9,3.6-1.8,7.3-1.8,11.4c0,3.6,0,16.4,0,20.1 c0,4.1,0.9,7.8,1.8,11.4c5,18.7,22.3,32.8,42.9,32.8c20.5,0,37.4-13.7,42.4-32.8c0.9-3.6,1.4-7.3,1.4-11.4c0-3.6,0-16.4,0-20.1 c0-4.1-0.5-7.8-1.4-11.4C695.2,14.1,677.9,0,657.8,0z M674.7,64.3c0,4.1-1.4,7.8-4.1,10.5c-3.2,3.6-7.8,5.9-12.8,5.9 c-5,0-10-2.3-13.2-5.9c-2.3-2.7-4.1-6.4-4.1-10.5c0-3.6,0-15.5,0-19.2c0-4.6,2.3-8.7,5.5-11.9c3.2-3.2,7.3-5,11.9-5 s8.7,1.8,11.9,5c3.2,3.2,5,7.3,5,11.9C674.3,48.8,674.7,60.7,674.7,64.3z"/></g></g><g><path class="st3" d="M189.5,4.1h-27.4v46.5l-24.2-42c0,0-2.7-4.6-8.2-4.6c-1.8,0-27.4,0-27.4,0v100.3c0,0,12.3,0,17.3,0 c5,0,10-2.7,10-9.1c0-3.6,0-26.5,0-47.4l33.3,56.6h16c5,0,10-2.7,10-8.7V4.1H189.5z"/></g><g><path class="st3" d="M568,81.6V4.1h-27.4v100.3c0,0,48.3,0,51.5,0c6.4,0,7.8-4.1,7.8-9.1s0-13.7,0-13.7H568z"/></g><g><path class="st3" d="M493.7,2.7c-3.2,0-49.7,0-49.7,0v103.1c0,0,10.9,0,16,0s9.6-4.1,9.6-10.5c0-1.8,0-20.1,0-20.1h24.2 c20.1,0,36-16.4,36-36S513.7,2.7,493.7,2.7z M493.7,49.3h-24.2c0-6.8,0-13.7,0-20.5h24.2c5.9,0,10,4.6,10,10 S499.1,49.3,493.7,49.3z"/></g><g><path class="st3" d="M337.2,105.4c6.4,0,9.1-3.6,10.5-7.8c0.5-0.9,7.8-25.1,14.6-48.8L376,94.4l3.2,9.6c0,0,8.7,0,13.2,0 s7.8-2.3,9.1-5.5c0.5-0.9,0.9-0.9,0.9-1.4c0.5-1.8,27.8-93,27.8-93h-27.4l-13.7,46.1c-5.5-18.7-10.9-36.5-11.9-38.8 c-1.4-4.6-5-7.3-9.1-7.3c-2.7,0-19.2,0-20.1,0l0,0l-13.7,45.6C329,31,323.5,13.2,322.6,11.4c-0.9-5.5-5.5-7.3-9.6-7.3 c-6.4,0-19.6,0-19.6,0L324,106.3L337.2,105.4z"/></g><g><path class="st3" d="M748.1,105.4c6.4,0,9.1-3.6,10.5-7.8c0.5-0.9,7.8-25.1,14.6-48.8l13.7,45.6l3.2,9.6c0,0,8.7,0,13.2,0 s7.8-2.3,9.1-5.5c0.5-0.9,0.9-0.9,0.9-1.4c0.9-1.8,28.3-93,28.3-93h-27.4l-13.7,46.1c-5.5-18.7-10.9-36.5-11.9-38.8 c-1.4-4.6-5-7.3-9.1-7.3c-2.7,0-19.2,0-20.1,0l0,0l-13.7,45.6C740.4,31,734.9,13.2,734,11.4c-1.4-5.5-5.9-7.3-10-7.3 c-6.4,0-19.6,0-19.6,0l30.6,102.2L748.1,105.4z"/></g><g><path class="st3" d="M86.4,59.3c-2.7-4.1-7.3-7.8-12.8-10c-5-2.3-11.4-4.6-19.6-6.8c-6.4-1.8-11.4-3.2-14.6-4.6 c-3.2-1.4-5.9-2.3-5.9-4.6s0.9-3.6,2.3-4.1c2.3-1.4,5.9-2.3,10.5-2.3c4.1,0,7.8,0.5,10,2.3c2.7,1.8,3.2,2.7,3.2,2.7l0,0h28.3 v-1.4c-0.5-5-2.3-10-5.5-14.6S74.1,7.8,67.7,4.6C62.2,1.4,54.5,0,46.2,0c-7.8,0-15.1,1.4-21,3.6c-6.4,2.7-11.4,6.8-14.6,11.4 c-3.6,5-5.5,10.5-5.5,16.4c0,6.4,1.4,11.4,4.6,16c2.7,4.1,6.8,7.8,12.3,10.5c4.6,2.3,10.9,4.6,18.2,6.8c7.3,1.8,12.3,3.6,16,5 c3.2,1.4,5,2.3,5.9,3.2c0.5,0.5,0.9,0.9,0.9,2.3c0,2.3-0.9,3.6-2.7,5c-1.8,1.4-5.5,2.7-13.2,2.7c-5.5,0-9.6-0.5-12.3-2.3 c-1.8-1.4-3.2-4.1-4.1-4.1H2.5c0,0,0,0,0,0.5l0,0C2.9,82.5,4.7,88,8.4,93c3.6,4.6,9.1,8.2,16,11.4c6.4,2.7,14.1,4.1,22.8,4.1 c12.8,0,23.3-2.7,31-8.2c8.7-5.9,12.8-14.6,12.8-25.1C91.4,68.9,89.6,63.4,86.4,59.3z"/></g></g></g></g></svg>