<svg xmlns="http://www.w3.org/2000/svg" id="Layer_1" viewBox="0 0 90 90">
    <style>
        .st0{stroke-dasharray:10,6,0,8,8,28}.st0,.st1,.st2,.st3{fill:none;stroke:#9e62dd;stroke-width:1.5;stroke-linecap:round;stroke-linejoin:round}.st2,.st3{stroke:#6738b8}.st3{stroke-dasharray:10,6,0,8,8,28}
    </style>
    <path id="XMLID_13_" d="M27 21.2H6.6" class="st0"/>
    <path id="XMLID_12_" d="M1 57.1h20.3" class="st1"/>
    <path id="XMLID_11_" d="M7.5 40h21.2" class="st2"/>
    <path id="XMLID_10_" d="M25.1 67.5H9.5" class="st3"/>
    <g id="XMLID_8_">
        <path id="XMLID_9_" d="M69.7 75.3c1.5-.1 2.9-.9 3.8-2.2l15-26c.7-1.4.7-3 0-4.3l-15-26c-.8-1.3-2.2-2.1-3.8-2.2h-30c-1.5.1-2.9.9-3.7 2.2l-15 26c-.7 1.4-.7 3 0 4.3l15 26c.8 1.3 2.2 2.1 3.8 2.2h29.9z" class="st2"/>
    </g>
    <path id="XMLID_7_" d="M58.3 14.7L47.7 32.9l7 12.1h14l10.5-18.2" class="st2"/>
    <path id="XMLID_6_" d="M58.3 75.3L47.7 57.1l7-12.1h14l10.5 18.2" class="st2"/>
    <path id="XMLID_5_" d="M26.7 57.1h21l7-12.1-7-12.1h-21" class="st2"/>
    <path id="XMLID_4_" d="M69.7 75.3c1.5-.1 2.9-.9 3.8-2.2l15-26c.7-1.4.7-3 0-4.3l-15-26c-.8-1.3-2.2-2.1-3.8-2.2h-30c-1.5.1-2.9.9-3.7 2.2l-15 26c-.7 1.4-.7 3 0 4.3l15 26c.8 1.3 2.2 2.1 3.8 2.2h29.9z" class="st2"/>
    <path id="XMLID_3_" d="M61.7 57.1l7-12.1-7-12.1h-14l-7 12.1 7 12.1z" class="st2"/>
</svg>
