<svg xmlns="http://www.w3.org/2000/svg" id="Layer_1" viewBox="0 0 90 90">
    <style>
        .st0,.st1{stroke:#6738b8}.st0{fill:none;stroke-width:1.5;stroke-linecap:round;stroke-linejoin:round}.st1{stroke-dasharray:0,7.19,0,0,0,0}.st1,.st2,.st3,.st4,.st5,.st6,.st7,.st8,.st9{fill:none;stroke-width:1.5;stroke-linecap:round;stroke-linejoin:round}.st2{stroke-dasharray:0,5.94,0,0,0,0;stroke:#6738b8}.st3,.st4,.st5,.st6,.st7,.st8,.st9{stroke:#9e62dd}.st4,.st5,.st6,.st7,.st8,.st9{stroke-dasharray:0,6.25}.st5,.st6,.st7,.st8,.st9{stroke-dasharray:0,6.89}.st6,.st7,.st8,.st9{stroke:#6738b8;stroke-dasharray:0,6.75,0,0,0,0}.st7,.st8,.st9{stroke-dasharray:0,7.01,0,0,0,0}.st8,.st9{stroke-dasharray:0,6.1,0,0,0,0}.st9{stroke-dasharray:0,7.07,0,0,0,0}
    </style>
    <path id="XMLID_34_" d="M45 64.6" class="st0"/>
    <path id="XMLID_33_" d="M45 71.8V79" class="st1"/>
    <path id="XMLID_32_" d="M45 79" class="st0"/>
    <path id="XMLID_31_" d="M45 13.5" class="st0"/>
    <path id="XMLID_30_" d="M45 19.5v5.9" class="st2"/>
    <path id="XMLID_29_" d="M45 25.4" class="st0"/>
    <path id="XMLID_28_" d="M25.4 45" class="st3"/>
    <path id="XMLID_27_" d="M19.1 45H16" class="st4"/>
    <path id="XMLID_26_" d="M12.9 45" class="st3"/>
    <path id="XMLID_25_" d="M78.3 45" class="st3"/>
    <path id="XMLID_24_" d="M71.4 45H68" class="st5"/>
    <path id="XMLID_23_" d="M64.5 45" class="st3"/>
    <path id="XMLID_22_" d="M31.1 58.9" class="st0"/>
    <path id="XMLID_21_" d="M26.3 63.6l-4.8 4.8" class="st6"/>
    <path id="XMLID_20_" d="M21.5 68.4" class="st0"/>
    <path id="XMLID_19_" d="M68.7 21.2" class="st0"/>
    <path id="XMLID_18_" d="M63.8 26.2l-5 5" class="st7"/>
    <path id="XMLID_17_" d="M58.8 31.2" class="st0"/>
    <path id="XMLID_16_" d="M31.1 31.2" class="st0"/>
    <path id="XMLID_15_" d="M26.8 26.8l-4.3-4.3" class="st8"/>
    <path id="XMLID_14_" d="M22.5 22.5" class="st0"/>
    <path id="XMLID_13_" d="M68.8 68.9" class="st0"/>
    <path id="XMLID_12_" d="M63.8 63.9l-5-5" class="st9"/>
    <path id="XMLID_11_" d="M58.8 58.9" class="st0"/>
    <path id="XMLID_10_" d="M43.3 89c-.3 0-.5-.2-.7-.4L41 85.8c-.1-.2-.1-.5 0-.8l1.6-2.8c.1-.2.4-.4.7-.4h3.2c.3 0 .5.2.7.4l1.6 2.8c.1.2.1.5 0 .8l-1.6 2.8c-.1.2-.4.4-.7.4h-3.2z" class="st3"/>
    <path id="XMLID_9_" d="M43.3 8.1c-.3 0-.5-.2-.7-.4L41 4.9c-.1-.2-.1-.5 0-.8l1.6-2.8c.2-.1.5-.3.7-.3h3.2c.3 0 .5.2.7.4l1.6 2.8c.1.2.1.5 0 .8l-1.6 2.8c-.1.2-.4.4-.7.4 0-.1-3.2-.1-3.2-.1z" class="st3"/>
    <path id="XMLID_8_" d="M72 77.1c-.3 0-.5-.2-.7-.4L69.7 74c-.1-.2-.1-.5 0-.8l1.6-2.8c.1-.2.4-.4.7-.4h3.2c.3 0 .5.2.7.4l1.6 2.8c.1.2.1.5 0 .8l-1.6 2.8c-.1.2-.4.4-.7.4 0-.1-3.2-.1-3.2-.1z" class="st3"/>
    <path id="XMLID_7_" d="M14.8 20c-.3 0-.5-.2-.6-.4l-1.6-2.8c-.1-.2-.1-.5 0-.8l1.6-2.8c.2-.2.4-.3.6-.3H18c.3 0 .5.2.6.4l1.6 2.8c.1.2.1.5 0 .8l-1.6 2.8c-.1.2-.3.3-.6.3h-3.2z" class="st3"/>
    <path id="XMLID_6_" d="M1 43.4c0-.3.2-.5.4-.7l2.8-1.6c.2-.1.5-.1.8 0l2.8 1.6c.2.1.4.4.4.7v3.2c0 .3-.2.5-.4.7L5 48.9c-.2.1-.5.1-.8 0l-2.8-1.6c-.2-.2-.4-.5-.4-.7v-3.2z" class="st3"/>
    <path id="XMLID_5_" d="M81.9 43.4c0-.3.2-.5.4-.7l2.8-1.6c.2-.1.5-.1.8 0l2.8 1.6c.2.1.4.4.4.7v3.2c0 .3-.2.5-.4.7l-2.8 1.6c-.2.1-.5.1-.8 0l-2.8-1.6c-.2-.1-.4-.4-.4-.7v-3.2z" class="st3"/>
    <path id="XMLID_4_" d="M12.9 72c0-.3.2-.5.4-.7l2.8-1.7c.2-.1.5-.1.8 0l2.8 1.6c.2.1.4.4.4.7v3.2c0 .3-.2.5-.4.7l-2.8 1.6c-.2.1-.5.1-.8 0l-2.8-1.6c-.2-.1-.4-.4-.4-.7V72z" class="st3"/>
    <path id="XMLID_3_" d="M70 14.8c0-.3.2-.5.4-.6l2.8-1.6c.2-.1.5-.1.8 0l2.8 1.6c.2.1.4.4.4.6V18c0 .3-.2.5-.4.6L74 20.2c-.2.1-.5.1-.8 0l-2.8-1.6c-.2-.1-.4-.3-.4-.6v-3.2z" class="st3"/>
    <path id="XMLID_2_" d="M37 54l3.7-6.4c.3-.5.9-.8 1.5-.9h7.4c.6 0 1.2.4 1.5.9l3.7 6.4H37z" class="st0"/>
    <circle id="XMLID_1_" cx="46" cy="40.1" r="4.1" class="st0"/>
</svg>
