<svg xmlns="http://www.w3.org/2000/svg" id="Layer_1" viewBox="0 0 90 90">
    <style>
        .st0,.st1{fill:none;stroke:#6738b8;stroke-width:1.5;stroke-linecap:round;stroke-linejoin:round}.st1{stroke:#9e62dd}
    </style>
    <path id="XMLID_8_" d="M68.4 82.9h-30c-4.1-.2-7.8-2.4-10.1-5.8l-15-26c-1.9-3.7-1.9-8 0-11.7l15-26c2.2-3.4 6-5.6 10.1-5.8h30" class="st0"/>
    <path id="XMLID_7_" d="M68.4 82.9h-30c-4.1-.2-7.8-2.4-10.1-5.8l-15-26c-1.9-3.7-1.9-8 0-11.7l15-26c2.2-3.4 6-5.6 10.1-5.8h30" class="st0"/>
    <path id="XMLID_6_" d="M78.1 1.1c.7 0 1.4.4 1.7 1l2.6 4.5c.3.6.3 1.4 0 2l-2.6 4.5c-.4.6-1 1-1.7 1h-5.2c-.7 0-1.4-.4-1.7-1l-2.6-4.5c-.3-.6-.3-1.4 0-2l2.6-4.5c.4-.6 1-1 1.7-1h5.2z" class="st0"/>
    <path id="XMLID_5_" d="M78.1 76.4c.7 0 1.4.4 1.7 1l2.6 4.5c.3.6.3 1.4 0 2l-2.6 4.5c-.4.6-1 1-1.7 1h-5.2c-.7 0-1.4-.4-1.7-1l-2.6-4.5c-.3-.6-.3-1.4 0-2l2.6-4.5c.4-.6 1-1 1.7-1h5.2z" class="st0"/>
    <path id="XMLID_4_" d="M57.5 60.2H45.6c-1.6-.1-3.1-.9-4-2.3l-5.9-10.3c-.7-1.4-.7-3.2 0-4.6l5.9-10.3c.9-1.4 2.4-2.2 4-2.3h11.9" class="st0"/>
    <path id="XMLID_3_" d="M35.2 45.3H11.9" class="st0"/>
    <path id="XMLID_2_" d="M63.7 26.3c.5 0 .9.3 1.1.6l1.6 2.9c.2.4.2.9 0 1.3l-1.6 2.8c-.2.4-.7.6-1.1.6h-3.3c-.4 0-.9-.3-1.1-.6L57.7 31c-.2-.4-.2-.9 0-1.3l1.6-2.9c.2-.4.7-.6 1.1-.6l3.3.1z" class="st1"/>
    <path id="XMLID_1_" d="M63.7 56c.5 0 .9.3 1.1.6l1.6 2.8c.2.4.2.9 0 1.3l-1.6 2.9c-.2.4-.7.6-1.1.6h-3.3c-.4 0-.9-.3-1.1-.6l-1.6-2.8c-.2-.4-.2-.9 0-1.3l1.6-2.8c.2-.4.6-.6 1.1-.7h3.3z" class="st1"/>
</svg>
