<svg xmlns="http://www.w3.org/2000/svg" id="Layer_1" viewBox="0 0 90 90">
    <style>
        .st0,.st1,.st2,.st3{fill:none;stroke:#6738b8;stroke-width:1.5;stroke-linecap:round;stroke-linejoin:round}.st1,.st2,.st3{stroke:#bb73fc}.st2,.st3{stroke:#9e62dd}.st3{stroke-dasharray:0,7.91}
    </style>
    <path id="XMLID_10_" d="M20 54.5H5.4c-2.4 0-4.4-2-4.4-4.4V32.7c0-2.4 2-4.4 4.4-4.4H20" class="st0"/>
    <path id="XMLID_8_" d="M62.8 27.2v19.5" class="st1"/>
    <path id="XMLID_7_" d="M28.2 62.8c-6 0-8.2-3.2-8.2-7.2V27.2c0-4 3.2-7.2 7.2-7.2h28.4" class="st2"/>
    <path id="XMLID_6_" d="M49.8 79.5h-17c-2.4 0-4.4-2-4.4-4.4V57.7c0-2.4 2-4.4 4.4-4.4h18.5" class="st0"/>
    <path id="XMLID_5_" d="M46.2 67.6c0 11.8 9.6 21.4 21.4 21.3S89 79.3 88.9 67.5s-9.6-21.4-21.4-21.3c-4.6 0-9.2 1.5-12.9 4.3-5.3 4.1-8.4 10.4-8.4 17.1z" class="st3"/>
    <path id="XMLID_4_" d="M54.7 50.5c-9.4 7.1-11.3 20.6-4.1 30s20.6 11.3 30 4.1c2.3-1.7 4.2-3.9 5.6-6.3" class="st1"/>
    <path id="XMLID_3_" d="M74.7 68.1h-7.1V53.3" class="st2"/>
    <path id="XMLID_2_" d="M58.2 12.9h9.4c1.4 0 2.4 1.1 2.4 2.4v9.4c0 1.4-1.1 2.5-2.4 2.5h-9.4c-1.4 0-2.5-1.1-2.5-2.5v-9.4c0-1.3 1.1-2.4 2.5-2.4z" class="st0"/>
    <path id="XMLID_1_" d="M15.3 1h9.4c1.4 0 2.5 1.1 2.5 2.5v9.4c0 1.4-1.1 2.4-2.5 2.4h-9.4c-1.4 0-2.4-1.1-2.4-2.4V3.5C12.9 2.1 14 1 15.3 1z" class="st0"/>
</svg>
