<svg xmlns="http://www.w3.org/2000/svg" id="Layer_1" viewBox="0 0 90 90">
    <style>
        .st0{stroke:#6738b8;stroke-dasharray:15,9,0,3.98,3.98,13.26}.st0,.st1,.st2{fill:none;stroke-width:1.5;stroke-linecap:round;stroke-linejoin:round}.st1{stroke-dasharray:15,9.28,0,3.98,3.98,13.26;stroke:#6738b8}.st2{stroke:#9e62dd}
    </style>
    <path id="XMLID_1_" d="M56.7 15.5c3.2.2 6.1 1.9 7.9 4.6l11.8 20.3c1.4 2.9 1.4 6.3 0 9.1L64.6 69.9c-1.8 2.7-4.7 4.4-7.9 4.6H33.2c-3.2-.2-6.1-1.9-7.9-4.6L13.6 49.6c-1.4-2.9-1.4-6.3 0-9.1l11.7-20.4c1.8-2.7 4.7-4.4 7.9-4.6h23.5z" class="st0"/>
    <path id="XMLID_9_" d="M29.1 84.9c-4.3-.2-8.3-2.5-10.7-6.2L2.5 51.2c-2-3.9-2-8.5 0-12.3l15.9-27.6c2.4-3.6 6.4-5.9 10.7-6.2h31.8c4.3.2 8.3 2.5 10.7 6.2l15.9 27.6c2 3.9 2 8.5 0 12.3L71.6 78.7c-2.4 3.6-6.4 5.9-10.7 6.2H29.1z" class="st1"/>
    <path id="XMLID_8_" d="M4.6 53.9" class="st2"/>
    <path id="XMLID_7_" d="M74.5 73.2" class="st2"/>
    <path id="XMLID_6_" d="M75.7 48.9" class="st2"/>
    <path id="XMLID_4_" d="M54.8 37.8c0 2.9-2.4 5.3-5.3 5.3 0 0-2.2 0-1.6 1 .3.5.5 1.1.6 1.7.1 1.5-1 2.7-2.5 2.8s-2.7-1-2.8-2.5v-.3c0-.6.2-1.2.6-1.7.6-1.1-1.6-1-1.6-1-2.9 0-5.3-2.4-5.3-5.3v-7.4c0-2.9 2.4-5.3 5.3-5.3h7.4c2.9 0 5.3 2.4 5.3 5.3" class="st2"/>
    <path id="XMLID_3_" d="M52.6 48.5c1.3 1 2.1 2.6 2.1 4.2v7.4c0 2.9-2.4 5.3-5.3 5.3H42c-2.9 0-5.3-2.4-5.3-5.3 0 0 0-2.2-1-1.6-.5.3-1.1.5-1.7.6-1.5-.1-2.6-1.4-2.5-2.8.1-1.3 1.2-2.4 2.5-2.5.6 0 1.2.2 1.7.6 1.1.6 1-1.6 1-1.6 0-1.7.8-3.2 2.1-4.2" class="st2"/>
    <path id="XMLID_2_" d="M38.9 42.1c-1.3-1-2.1-2.6-2.1-4.2v-7.4c0-2.9 2.4-5.3 5.3-5.3h7.4c2.9 0 5.3 2.4 5.3 5.3 0 0 0 2.2 1 1.6.5-.3 1.1-.5 1.7-.6 1.5.1 2.6 1.4 2.5 2.8-.1 1.3-1.2 2.4-2.5 2.5-.6 0-1.2-.2-1.7-.6-1.1-.6-1 1.6-1 1.6 0 1.7-.8 3.2-2.1 4.2" class="st2"/>
</svg>
