<?xml version="1.0" encoding="UTF-8"?>
<svg width="216px" height="39px" viewBox="0 0 216 39" version="1.1" xmlns="http://www.w3.org/2000/svg" xmlns:xlink="http://www.w3.org/1999/xlink">
    <!-- Generator: Sketch 55.1 (78136) - https://sketchapp.com -->
    <title>Schibsted</title>
    <desc>Created with Sketch.</desc>
    <g id="Landingpage---v2" stroke="none" stroke-width="1" fill="none" fill-rule="evenodd">
        <g id="ABM-Landing-Page---Media---Schibsted" transform="translate(-425.000000, -792.000000)" fill="#5E5E5E">
            <g id="Group-5-Copy" transform="translate(359.000000, 720.000000)">
                <g id="Schibsted" transform="translate(66.000000, 72.000000)">
                    <path d="M23.724038,19.6105943 C23.5434938,19.1996649 23.3211705,18.8101407 23.0608904,18.4487183 C22.8637244,18.1709139 22.5534846,18.0050803 22.2221266,18.0003709 C21.9723303,17.9930141 21.731049,18.0953833 21.5571083,18.2825201 C21.3831677,18.4696569 21.2925506,18.7243661 21.3073499,18.9845482 C21.3121171,19.1763098 21.3615975,19.3639741 21.4515124,19.5313134 L21.6245074,19.8949122 C21.6533399,19.9550564 21.6507188,20.0152005 21.6009172,20.0425388 C21.5762244,20.0574474 21.5465873,20.0605955 21.5195198,20.0511851 C21.4924523,20.0417748 21.4705536,20.0207094 21.4593758,19.9933299 C21.4121954,19.9113152 21.2654117,19.6680047 21.2654117,19.6680047 C20.988483,19.1893109 20.3961346,19.0281864 19.9303309,19.3048498 C19.4645273,19.5815131 19.2951464,20.1950654 19.5485671,20.6877217 C19.5747785,20.7423982 19.62458,20.8572189 19.6507914,20.9118954 C19.6770028,20.9665719 19.6796239,21.0321838 19.6298223,21.0649897 C19.5777082,21.0876374 19.5178586,21.0619339 19.4961443,21.0075793 C19.4568273,20.9474352 19.3808143,20.8271468 19.3414973,20.7697365 C19.1072004,20.4322479 18.6887641,20.2944112 18.3111168,20.4303198 C17.9334695,20.5662284 17.685566,20.943869 17.7006656,21.3602429 C17.7150795,21.5712298 17.7684829,21.7773175 17.8579338,21.9671522 C18.2894735,22.9828673 18.4912596,24.0884913 18.4476896,25.1985344 C18.4476896,28.4791254 15.9785787,31.1582747 12.9931039,31.1582747 C10.4374298,31.2366857 8.12845674,29.5765928 7.28951021,27.0575359 C7.25440957,26.9431014 7.13737419,26.8796266 7.02739653,26.915377 L1.14818666,28.7880477 C1.09499478,28.8050689 1.05046943,28.8434411 1.02441402,28.8947158 C0.998358612,28.9459905 0.992909485,29.0059635 1.00926641,29.0614303 C2.66270582,34.4591239 7.51109817,38.0898726 12.9433023,37.998307 C18.3087694,37.998307 22.7673231,34.2502318 24.4029125,29.1899201 C25.3874287,26.0318946 25.1475136,22.5973699 23.7345226,19.6215296" id="Fill-1"></path>
                    <path d="M12,21 C11.4477153,21 11,20.5522847 11,20 C11,19.4477153 11.4477153,19 12,19 C12.5522847,19 13,19.4477153 13,20 C13,20.2652165 12.8946432,20.5195704 12.7071068,20.7071068 C12.5195704,20.8946432 12.2652165,21 12,21" id="Fill-3"></path>
                    <path d="M12,15 C11.4477153,15 11,14.5522847 11,14 C11,13.4477153 11.4477153,13 12,13 C12.5522847,13 13,13.4477153 13,14 C13,14.5522847 12.5522847,15 12,15" id="Fill-5"></path>
                    <path d="M12,18 C11.4477153,18 11,17.5522847 11,17 C11,16.4477153 11.4477153,16 12,16 C12.5522847,16 13,16.4477153 13,17 C13,17.5522847 12.5522847,18 12,18" id="Fill-7"></path>
                    <path d="M16.8111682,19.5449046 C16.6927572,19.3766407 16.562668,19.2239906 16.4226747,19.0890361 C16.1343403,18.8119922 15.8283531,18.5698305 15.5082937,18.3653848 C15.3224545,18.2405918 15.1280956,18.1402389 14.9279224,18.065723 C14.7472603,17.9780923 14.5495329,17.9780923 14.3688708,18.065723 C14.0830161,18.2224651 13.9345595,18.6483959 14.0277545,19.0444056 C14.0964516,19.3631948 14.2930672,19.503462 14.5015271,19.6405414 C14.7746643,19.8106022 15.0396966,20.0033086 15.2950961,20.2175497 C15.5319823,20.4024474 15.7120159,20.5745936 15.9394267,20.7945581 C16.1881434,21.0684806 16.5458695,21.0684806 16.7945862,20.7945581 C16.925635,20.6294106 17,20.3985912 17,20.1569798 C17,19.9153683 16.925635,19.684549 16.7945862,19.5194015" id="Fill-9"></path>
                    <path d="M19.7014819,19.3630164 C19.320288,18.9089468 18.8789863,18.5254455 18.3935699,18.2264108 C18.2516611,18.1362597 18.0992851,18.0692992 17.9409379,18.0275049 C17.658055,17.944612 17.3583666,18.0524713 17.1689643,18.3053418 C16.9686159,18.5828653 16.9441272,18.9739315 17.1078729,19.2809282 C17.2466079,19.5093534 17.4288448,19.6992851 17.6410345,19.836602 C17.9520454,20.0923383 18.1714192,20.2912442 18.4740995,20.5690812 C18.6365792,20.7770766 18.8504561,20.9245202 19.0877907,20.992151 C19.430338,21.0430116 19.7639615,20.8432361 19.9208557,20.4933075 C20.0762919,20.1051071 19.9982587,19.6475576 19.7264739,19.3535447" id="Fill-11"></path>
                    <path d="M16.310422,16.3170688 C16.0562221,16.2107778 15.7917224,16.1262803 15.5203439,16.0646693 C15.2503814,15.9935689 14.965938,15.980893 14.6896543,16.0276507 C14.4041764,16.093047 14.170884,16.2800306 14.0632072,16.5297474 C13.9555303,16.7794643 13.9867118,17.0612023 14.1469372,17.2862831 C14.2921889,17.4556366 14.4967949,17.5744293 14.7265739,17.6228158 L15.3246704,17.8213702 C15.5048475,17.8879819 15.6898923,17.9430821 15.8784634,17.9862712 C16.1777798,18.0352579 16.4848121,17.9515471 16.705461,17.7607943 C17.2186426,17.3098404 17.0451207,16.586295 16.310422,16.3002422" id="Fill-13"></path>
                    <path d="M15.3615292,14.0987615 C15.2217738,14.0537255 15.0788938,14.0232096 14.9345523,14.007569 C14.7328086,13.9792465 14.5287748,14.0309006 14.3550836,14.1542699 C14.1021423,14.3541803 13.9673326,14.7040393 14.0067816,15.0581855 C14.0462306,15.4123317 14.2531779,15.7100755 14.5414624,15.8274532 C14.7191268,15.9046956 14.9030723,15.9604939 15.0904327,15.9939785 C15.4949301,16.0470016 15.8714538,15.7448658 15.974885,15.2842634 C16.0290686,15.0313198 15.9947956,14.7635375 15.8796614,14.5402605 C15.7645273,14.3169834 15.5780406,14.1566516 15.3615292,14.0947966" id="Fill-15"></path>
                    <path d="M18.4557472,15.6696438 C18.248826,15.505373 18.0285768,15.3683639 17.7986009,15.2608567 C17.5461047,15.1268158 17.2789551,15.0398108 17.0058529,15.0026754 C16.5576402,14.9652185 16.1503921,15.3245625 16.0329063,15.8611755 C15.9154205,16.3977885 16.1203736,16.9624211 16.5225549,17.2101257 L17.1136389,17.5758825 C17.3339634,17.7333165 17.5670396,17.8616769 17.8090318,17.9588515 C18.1006884,18.0564069 18.4124381,17.9782873 18.6504572,17.7480034 C18.9035413,17.4691859 19.0314261,17.0556058 18.9934012,16.6389209 C18.9553763,16.2222361 18.7561801,15.8543714 18.4592242,15.6524317" id="Fill-17"></path>
                    <path d="M20.7689453,17.3878029 C20.5826617,17.1447528 20.3756144,16.9198832 20.1503574,16.7159678 C19.9461263,16.5200116 19.724497,16.3448027 19.4884683,16.1927116 C19.2541737,16.0315941 18.9704993,15.9681958 18.6935828,16.0150629 C18.3882119,16.0788939 18.1394664,16.3096035 18.0427159,16.6187372 C17.9459653,16.9278709 18.0162218,17.2674625 18.226549,17.5073121 C18.3935677,17.6914207 18.5358429,17.8303097 18.7245122,17.9821186 C18.9533898,18.1920671 19.1698956,18.3987856 19.3833084,18.6281139 C19.5558919,18.8439338 19.8045879,18.9778674 20.0730339,18.9995612 C20.4180268,19.0105833 20.738269,18.8131936 20.8957559,18.4924549 C21.0718229,18.1303442 21.02178,17.6931441 20.7689453,17.384573" id="Fill-19"></path>
                    <path d="M1.26684622,18.3842847 C1.44749919,18.7951035 1.66995635,19.1845229 1.93039318,19.545848 C2.12657836,19.8256412 2.43717981,19.9935465 2.76966207,19.999541 C3.01984761,20.0077445 3.2617619,19.9056698 3.43599033,19.7183865 C3.61021876,19.5311033 3.70061941,19.275963 3.6849897,19.0156285 C3.67990694,18.823967 3.63041694,18.6364297 3.54074036,18.4690105 C3.4961542,18.3788185 3.41222731,18.1957015 3.36764115,18.1055095 C3.32305499,18.0153175 3.341414,17.9852535 3.39124559,17.9579226 C3.41611839,17.9438898 3.4454569,17.9412161 3.47228959,17.9505367 C3.49912227,17.9598573 3.52105362,17.9803403 3.53287221,18.0071182 C3.58008108,18.0891109 3.72695314,18.332356 3.72695314,18.332356 C4.00404863,18.8109209 4.59675371,18.972002 5.06283788,18.6954131 C5.52892205,18.4188243 5.69840497,17.805437 5.44483164,17.3129133 C5.41860449,17.2582515 5.3687729,17.1461948 5.34254575,17.0887999 C5.31631859,17.031405 5.31369588,16.9685439 5.36352747,16.9357469 C5.41498927,16.9100051 5.47675711,16.9318657 5.50253138,16.9849425 L5.65727158,17.2254544 C5.89381295,17.5593639 6.31122606,17.6942047 6.68753415,17.5582696 C7.06384223,17.4223344 7.31161596,17.0472057 7.29909134,16.6323738 C7.28506275,16.4222467 7.23159813,16.2170311 7.14172842,16.0283609 C6.71064734,15.0126855 6.50877179,13.9075348 6.55161748,12.7978483 C6.55161748,9.51813997 9.02221527,6.83971155 12.009488,6.83971155 C14.5663466,6.76810921 16.872292,8.43316394 17.7060255,10.9530123 C17.7216578,11.0088532 17.7585078,11.0556125 17.8080317,11.0824487 C17.8575555,11.1092849 17.9154519,11.1138671 17.968297,11.095133 L23.8510474,9.20930078 C23.9046863,9.19292822 23.9497025,9.15466731 23.9758767,9.10320379 C24.0020508,9.05174028 24.0071625,8.99143993 23.9900513,8.93599175 C22.336738,3.54366988 17.4909438,-0.0851614088 12.0593195,0.00151978684 C6.69586682,0.00151978684 2.23462815,3.74858649 0.598053824,8.8102696 C-0.387903897,11.9673379 -0.147820394,15.4012804 1.26684622,18.3760854" id="Fill-21"></path>
                    <path d="M12,23 C12.5522847,23 13,23.4477153 13,24 C13,24.5522847 12.5522847,25 12,25 C11.4477153,25 11,24.5522847 11,24 C11,23.4477153 11.4477153,23 12,23" id="Fill-23"></path>
                    <path d="M12,21 C12.4048684,21 12.7697861,21.2441515 12.9242922,21.618382 C13.0787983,21.9926125 12.9923997,22.4230794 12.705454,22.7087074 C12.4185084,22.9943355 11.9876468,23.0787536 11.6141288,22.9225293 C11.2406109,22.766305 10.9981534,22.4002704 11,21.9954039 C11,21.7306125 11.1055092,21.4767326 11.2931758,21.2899278 C11.4808424,21.1031229 11.7352058,20.9987903 12,21" id="Fill-25"></path>
                    <path d="M8.19752931,18.4601041 C8.31745534,18.6217172 8.44849605,18.7675925 8.58888433,18.8957627 C8.87529422,19.1732584 9.17989944,19.4148817 9.49890264,19.6176203 C9.6837927,19.7473077 9.87714298,19.8537567 10.0765049,19.9356192 C10.2565069,20.0214603 10.4528872,20.0214603 10.6328892,19.9356192 C10.91738,19.7792656 11.0651283,19.3543906 10.9723779,18.9593625 C10.9040086,18.6413635 10.7083311,18.501444 10.5008658,18.3647044 C10.2290909,18.1960962 9.96532434,18.0049304 9.71108307,17.7923063 C9.47768459,17.595147 9.29615244,17.4393275 9.06039641,17.2040083 C8.81254089,16.9319972 8.45717263,16.9319972 8.20931711,17.2040083 C8.07798412,17.3670234 8.00228152,17.5958567 8.00005072,17.8365772 C7.99781992,18.0772977 8.06925826,18.3086119 8.19752931,18.4760041" id="Fill-27"></path>
                    <path d="M5.29350766,19.6402807 C5.67540855,20.0926475 6.11752876,20.4747106 6.60384547,20.7726238 C6.74642318,20.8622003 6.8989223,20.9298978 7.05731694,20.9739292 C7.34121965,21.0542191 7.6408478,20.9457663 7.83072227,20.6939888 C8.03144232,20.4175061 8.05597639,20.0279065 7.89192701,19.7220611 C7.75692237,19.4912279 7.57586898,19.2994555 7.36334063,19.1621804 C7.05175288,18.9042578 6.83197222,18.7092432 6.52873056,18.4293028 C6.36594956,18.2220874 6.15167597,18.0751967 5.91390115,18.0078196 C5.57071854,17.9571497 5.23647623,18.156176 5.07929108,18.5047923 C4.9235666,18.8915369 5.0017445,19.3473704 5.27403343,19.6402807" id="Fill-29"></path>
                    <path d="M8.68957803,22.6826439 C8.94377786,22.7890313 9.20827759,22.8736053 9.4796561,22.9352721 C9.74961858,23.0064369 10.034062,23.0191243 10.3103457,22.9723243 C10.5958236,22.9068687 10.829116,22.7197157 10.9367928,22.4697726 C11.0444697,22.2198295 11.0132882,21.9378362 10.8530628,21.7125515 C10.7078111,21.5430445 10.5032051,21.4241442 10.2734261,21.3757138 L9.67532964,21.1769796 C9.49567791,21.1098864 9.3105061,21.0558247 9.1215366,21.0152975 C8.82201864,20.9628318 8.51328928,21.0470816 8.294539,21.2409787 C7.78135745,21.6923412 7.95487927,22.4131738 8.68957803,22.6994858" id="Fill-31"></path>
                    <path d="M9.63897145,23.9012156 C9.77829714,23.948175 9.92127962,23.9787311 10.0657914,23.9924292 C10.2674609,24.0207584 10.4714197,23.9690923 10.645047,23.8456943 C10.8978952,23.6457375 11.0326554,23.2957973 10.9932209,22.9415689 C10.9537864,22.5873405 10.7469152,22.2895276 10.4587367,22.1721227 C10.2811376,22.0948624 10.0972597,22.0390511 9.90996823,22.0055587 C9.50499378,21.9546556 9.12911061,22.2581444 9.02584123,22.7194044 C8.97072267,22.9724646 9.00456978,23.2408318 9.11980731,23.4644434 C9.23504484,23.688055 9.42205066,23.8482398 9.63897145,23.9091472" id="Fill-33"></path>
                    <path d="M6.54986445,23.3266005 C6.75504583,23.4983691 6.97462622,23.6419603 7.2047481,23.7548517 C7.45115334,23.8817578 7.71133931,23.9625765 7.97682145,23.9946723 C8.43044919,24.0486097 8.84919226,23.6879683 8.96772338,23.1412605 C9.0862545,22.5945526 8.86997286,22.0213697 8.45592054,21.7848963 L7.86997202,21.4208828 C7.65156168,21.2641993 7.42051054,21.1364507 7.18062081,21.0397393 C6.8914474,20.9446993 6.58314576,21.0222605 6.34650585,21.2495824 C6.09562063,21.5270709 5.96884693,21.9386797 6.00654147,22.3533784 C6.04423601,22.7680772 6.24170151,23.1341884 6.53607743,23.3351655" id="Fill-35"></path>
                    <path d="M4.23088372,20.6136951 C4.41685426,20.8564828 4.62355356,21.0811098 4.84843193,21.284805 C5.05152762,21.4815392 5.27288019,21.6566348 5.50920851,21.8074964 C5.74310931,21.96844 6.02630689,22.0317698 6.30275795,21.9849533 C6.61007198,21.9225816 6.8608174,21.690914 6.95769505,21.3798469 C7.05457269,21.0687798 6.98233262,20.7272797 6.76900685,20.487862 C6.61151225,20.3216267 6.4455631,20.1643765 6.27188054,20.0167945 C6.04338771,19.8070726 5.82724583,19.6005772 5.6141917,19.3714965 C5.44101711,19.1570615 5.19323307,19.0235386 4.92562545,19.0004501 C4.58032392,18.9892449 4.26006029,19.1880248 4.10428634,19.5102355 C3.92818603,19.8708019 3.9782118,20.306841 4.23088372,20.6136951" id="Fill-37"></path>
                    <path d="M70.0318812,12.8874472 C67.7296179,12.8874472 65.0846921,13.6831623 63.5159406,15.5706095 L63.5159406,2.21182861 C63.5159406,2.0948389 63.4224532,2 63.3071307,2 L57.2088099,2 C57.0934874,2 57,2.0948389 57,2.21182861 L57,37.7881714 C57,37.9051611 57.0934874,38 57.2088099,38 L63.3071307,38 C63.4224532,38 63.5159406,37.9051611 63.5159406,37.7881714 L63.5159406,23.6228123 C63.4918472,20.907061 65.0445364,18.7344599 68.0240935,18.7507544 C71.1589194,18.7507544 72.4840594,20.9885335 72.4840594,23.7232951 L72.4840594,37.7773084 C72.4840594,37.8942981 72.5775468,37.989137 72.6928693,37.989137 L78.7911901,37.989137 C78.9065126,37.989137 79,37.8942981 79,37.7773084 L79,22.5691008 C79,17.2000604 76.1569725,12.8765842 70.0318812,12.8765842" id="Fill-39"></path>
                    <path d="M88.0164557,2 C85.8063474,1.9919275 84.0081312,3.77617576 84,5.9852575 C83.9919238,8.19433924 85.7770012,9.99172014 87.9871095,9.9998201 C89.1325373,10.0107052 90.2269861,9.52716756 90.9899343,8.67314428 C91.7528824,7.819121 92.1101591,6.67763679 91.9701897,5.54126901 C91.7158876,3.54277225 90.0316967,2.03429271 88.0164557,2" id="Fill-41"></path>
                    <path d="M90.8052594,14 L85.1898265,14 C85.1388305,14.0007023 85.0901818,14.0232783 85.0545845,14.0627606 C85.0189872,14.102243 84.999358,14.1553967 85,14.2105263 L85,37.7921386 C85,37.9069373 85.0861007,38 85.1922916,38 L90.8077244,38 C90.9139153,38 91,37.9069373 91,37.7921386 L91,14.2105263 C91,14.0957276 90.9139153,14.0026649 90.8077244,14.0026649" id="Fill-43"></path>
                    <path d="M108.427263,32.2190615 C105.124461,32.2190615 102.309267,29.675876 102.309267,25.3241436 C102.309267,20.9243258 105.124461,18.4773111 108.427263,18.4773111 C111.78125,18.4773111 114.442888,20.9243258 114.442888,25.3241436 C114.442888,29.7239614 111.78125,32.2190615 108.427263,32.2190615 M109.806573,12.7177439 C106.207435,12.7177439 103.545797,14.2805207 102.460129,15.9928967 L102.460129,2.20840374 C102.460129,2.09332403 102.366051,2.00001635 102.25,2.00001635 L96.2128233,2.00001635 C96.1566282,1.99931902 96.1024863,2.02095643 96.0624948,2.06011114 C96.0225034,2.09926585 96,2.15267453 96,2.20840374 L96,37.2039188 C96,37.259648 96.0225034,37.3130567 96.0624948,37.3522114 C96.1024863,37.3913661 96.1566282,37.4130035 96.2128233,37.4122891 L102.153017,37.4122891 C102.269068,37.4122891 102.363147,37.3189985 102.363147,37.2039188 L102.363147,34.4790772 C103.64278,36.5307226 106.207435,38 109.561422,38 C116.463362,38 121,32.571688 121,25.2867438 C121,18.1460559 116.907866,12.731101 109.806573,12.731101" id="Fill-45"></path>
                    <path d="M159.748677,32.0152259 C159.153473,32.1109861 158.551436,32.1589625 157.948438,32.1586872 C156.049855,32.1586872 155.050026,31.4657418 155.050026,29.3354762 L155.050026,19.1280663 L159.78419,19.1280663 C159.90187,19.1280663 159.997268,19.0335394 159.997268,18.9169345 L159.997268,13.4978853 C159.997268,13.3812804 159.90187,13.2867535 159.78419,13.2867535 L155.050026,13.2867535 L155.050026,6.21113179 C155.050026,6.09452692 154.954627,6 154.836947,6 L148.687724,6 C148.570044,6 148.474646,6.09452692 148.474646,6.21113179 L148.474646,13.2840467 L144.213078,13.2840467 C144.095398,13.2840467 144,13.3785736 144,13.4951785 L144,18.9115209 C144,19.0281258 144.095398,19.1226527 144.213078,19.1226527 L148.45006,19.1226527 L148.45006,30.4696329 C148.45006,35.176789 151.455011,38 156.249274,38 C158.057709,38 159.221444,37.70225 159.857948,37.4586364 C159.94343,37.4269894 160,37.3460454 160,37.2556251 L160,32.2263576 C160,32.1634569 159.972171,32.1037194 159.923751,32.0630424 C159.875331,32.0223654 159.811292,32.0048751 159.748677,32.0152259" id="Fill-47"></path>
                    <path d="M203.621202,32.2430988 C200.170976,32.2430988 197.606874,29.6518255 197.606874,25.3481745 C197.606874,21.0445236 200.267938,18.5494212 203.621202,18.5494212 C206.974467,18.5494212 209.662465,20.9964381 209.662465,25.300089 C209.662465,29.6518255 206.96908,32.2457703 203.621202,32.2457703 M215.80069,2.02404274 L209.697479,2.02404274 C209.581453,2.02404274 209.487395,2.11733336 209.487395,2.23241318 L209.487395,15.7658059 C208.797888,14.4942119 206.823637,12.779163 202.635423,12.779163 C195.783452,12.779163 191,18.3036509 191,25.3348175 C191,32.6197685 195.928895,38 202.832041,38 C206.08565,38 208.550097,36.5307213 209.635531,34.6260018 L209.635531,37.2039181 C209.63842,37.3188268 209.732427,37.4108874 209.848309,37.4122885 L215.789916,37.4122885 C215.905942,37.4122885 216,37.3189979 216,37.2039181 L216,2.20837044 C216,2.09329062 215.905942,2 215.789916,2" id="Fill-49"></path>
                    <path d="M170.354029,23.2160352 C170.49402,20.976345 172.298347,18.3855977 175.572577,18.3855977 C179.178638,18.3855977 180.697798,20.7749634 180.791125,23.2160352 L170.354029,23.2160352 Z M175.476658,13.0054427 C169.49853,13 164,18.0808039 164,25.9020306 C164,34.1695625 169.646298,39 176.052176,39 C180.832604,39 184.19757,36.5507641 185.874867,33.2851162 C185.90206,33.2325605 185.90687,33.1704012 185.888115,33.1139271 C185.86936,33.0574531 185.828779,33.0119052 185.776355,32.9884865 L181.039998,30.8358803 C180.946325,30.7907355 180.835287,30.825704 180.780756,30.9175215 C179.878592,32.3816203 178.390541,33.3286582 176.085877,33.3286582 C172.95423,33.3286582 170.346252,30.9882772 170.203669,27.749843 L186.714812,27.749843 C186.820687,27.7501723 186.908878,27.6647158 186.917022,27.5539041 C186.942946,27.2001256 186.99999,26.4381411 186.99999,25.7088131 C187.007756,17.8331589 182.688779,13 175.476658,13 L175.476658,13.0054427 Z" id="Fill-51"></path>
                    <path d="M135.980965,23.3499372 L132.618334,22.6017162 C131.322593,22.3541231 130.457017,21.6766429 130.457017,20.4822101 C130.457017,19.0864378 131.802594,18.0334868 133.481287,18.0334868 C135.784244,18.0334868 136.851787,19.3938887 137.232116,20.6808288 C137.248685,20.735364 137.286285,20.7803479 137.33598,20.8050913 C137.385674,20.8298346 137.443028,20.8321283 137.494412,20.8114274 L142.252457,18.9068648 C142.303613,18.8878921 142.345242,18.8483419 142.367946,18.7971452 C142.39065,18.7459485 142.392512,18.6874229 142.373113,18.6347844 C141.531144,16.0799498 139.031465,13 133.428828,13 C128.34029,13 124.594707,16.6349937 124.594707,21.0182085 C124.594707,24.4545835 126.658974,27.3876099 131.220297,28.4351193 L134.341617,29.1806195 C136.164572,29.5805776 136.885886,30.3804939 136.885886,31.4769778 C136.885886,32.7720804 135.876047,33.9257011 133.764566,33.9257011 C131.08915,33.9257011 129.698982,32.2687317 129.465539,30.4158644 C129.458169,30.3578075 129.427414,30.3057142 129.38091,30.2725174 C129.334405,30.2393205 129.276512,30.2281333 129.221604,30.2417329 L124.161919,31.3871913 C124.057395,31.4091381 123.987333,31.5115985 124.001918,31.6211804 C124.379624,34.4317706 126.887171,39 133.819648,39 C140.012451,39 143,34.9187945 143,30.9300963 C143,27.3467978 140.639338,24.3375889 135.991457,23.3417748" id="Fill-53"></path>
                    <path d="M52.8449106,30.6508269 L47.4887372,28.843835 C47.3760319,28.8082475 47.2560938,28.8714332 47.2201227,28.9853465 C46.6184261,30.8277161 44.95033,32.9095667 41.7296419,32.9095667 C38.3853912,32.9095667 35.5353912,30.4167888 35.5353912,25.9836718 C35.5353912,21.5505547 38.3343544,19.1176471 41.6786052,19.1176471 C44.4614516,19.1176471 45.9764374,20.6579443 46.7231858,22.383295 C46.7654996,22.4907244 46.8857295,22.5431012 46.9918003,22.500314 L52.4795949,20.5953527 C52.5325068,20.5768541 52.5759128,20.5376751 52.6001344,20.4865516 C52.6243561,20.4354281 52.6273792,20.3766112 52.6085298,20.3232154 C51.2654573,16.5132929 47.6230444,13 41.5389256,13 C34.5092837,13 29,18.4291396 29,26 C29,33.5218757 34.605985,39 41.7350142,39 C48.0743168,39 51.8402923,34.9505966 52.9899625,30.9284069 C53.0253234,30.8150134 52.9643315,30.6938529 52.8529691,30.6562696" id="Fill-55"></path>
                </g>
            </g>
        </g>
    </g>
</svg>