<svg width="116pt" height="188pt" viewBox="0.00 0.00 115.89 188.00" xmlns="http://www.w3.org/2000/svg" xmlns:xlink="http://www.w3.org/1999/xlink"><g id="graph0" class="graph" transform="scale(1 1) rotate(0) translate(4 184)"><title>echo order demo</title><polygon fill="#fff" stroke="none" points="-4,4 -4,-184 111.89,-184 111.89,4 -4,4"/><g id="node1" class="node"><title>echo alpha</title><ellipse fill="none" stroke="#000" cx="53.945" cy="-162" rx="48.993" ry="18"/><text text-anchor="middle" x="53.945" y="-158.3" font-family="Times,serif" font-size="14">echo alpha</text></g><g id="node2" class="node"><title>echo beta</title><ellipse fill="none" stroke="#000" cx="53.945" cy="-90" rx="44.393" ry="18"/><text text-anchor="middle" x="53.945" y="-86.3" font-family="Times,serif" font-size="14">echo beta</text></g><g id="edge1" class="edge"><title>echo alpha-&gt;echo beta</title><path fill="none" stroke="#000" d="M53.9452,-143.697C53.9452,-135.983 53.9452,-126.712 53.9452,-118.112"/><polygon fill="#000" stroke="#000" points="57.4453,-118.104 53.9452,-108.104 50.4453,-118.104 57.4453,-118.104"/></g><g id="node3" class="node"><title>echo omega</title><ellipse fill="none" stroke="#000" cx="53.945" cy="-18" rx="53.891" ry="18"/><text text-anchor="middle" x="53.945" y="-14.3" font-family="Times,serif" font-size="14">echo omega</text></g><g id="edge2" class="edge"><title>echo beta-&gt;echo omega</title><path fill="none" stroke="#000" d="M53.9452,-71.6966C53.9452,-63.9827 53.9452,-54.7125 53.9452,-46.1124"/><polygon fill="#000" stroke="#000" points="57.4453,-46.1043 53.9452,-36.1043 50.4453,-46.1044 57.4453,-46.1043"/></g></g></svg>