<svg width="151pt" height="260pt" viewBox="0.00 0.00 150.79 260.00" xmlns="http://www.w3.org/2000/svg" xmlns:xlink="http://www.w3.org/1999/xlink"><g id="graph0" class="graph" transform="scale(1 1) rotate(0) translate(4 256)"><title>G</title><polygon fill="#fff" stroke="none" points="-4,4 -4,-256 146.794,-256 146.794,4 -4,4"/><g id="node1" class="node"><title>Task A</title><ellipse fill="none" stroke="#000" cx="106.397" cy="-234" rx="36.294" ry="18"/><text text-anchor="middle" x="106.397" y="-230.3" font-family="Times,serif" font-size="14">Task A</text></g><g id="node2" class="node"><title>Task B</title><ellipse fill="#cd2626" stroke="#000" cx="106.397" cy="-162" rx="36.294" ry="18"/><text text-anchor="middle" x="106.397" y="-158.3" font-family="Times,serif" font-size="14">Task B</text><text text-anchor="middle" x="38" y="-183.8" font-family="Times,serif" font-size="14">Failing task</text></g><g id="edge1" class="edge"><title>Task A-&gt;Task B</title><path fill="none" stroke="#000" d="M106.397,-215.697C106.397,-207.983 106.397,-198.712 106.397,-190.112"/><polygon fill="#000" stroke="#000" points="109.897,-190.104 106.397,-180.104 102.897,-190.104 109.897,-190.104"/></g><g id="node3" class="node"><title>Task C</title><ellipse fill="#1874cd" stroke="#000" cx="106.397" cy="-90" rx="36.294" ry="18"/><text text-anchor="middle" x="106.397" y="-86.3" font-family="Times,serif" font-size="14">Task C</text><text text-anchor="middle" x="35" y="-111.8" font-family="Times,serif" font-size="14">Skipped task</text></g><g id="edge2" class="edge"><title>Task B-&gt;Task C</title><path fill="none" stroke="#000" d="M106.397,-143.697C106.397,-135.983 106.397,-126.712 106.397,-118.112"/><polygon fill="#000" stroke="#000" points="109.897,-118.104 106.397,-108.104 102.897,-118.104 109.897,-118.104"/></g><g id="node4" class="node"><title>Task D</title><ellipse fill="#1874cd" stroke="#000" cx="106.397" cy="-18" rx="36.294" ry="18"/><text text-anchor="middle" x="106.397" y="-14.3" font-family="Times,serif" font-size="14">Task D</text><text text-anchor="middle" x="35" y="-39.8" font-family="Times,serif" font-size="14">Skipped task</text></g><g id="edge3" class="edge"><title>Task C-&gt;Task D</title><path fill="none" stroke="#000" d="M106.397,-71.6966C106.397,-63.9827 106.397,-54.7125 106.397,-46.1124"/><polygon fill="#000" stroke="#000" points="109.897,-46.1043 106.397,-36.1043 102.897,-46.1044 109.897,-46.1043"/></g></g></svg>