<svg width="262pt" height="260pt" viewBox="0.00 0.00 261.79 260.00" xmlns="http://www.w3.org/2000/svg" xmlns:xlink="http://www.w3.org/1999/xlink"><g id="graph0" class="graph" transform="scale(1 1) rotate(0) translate(4 256)"><title>G</title><polygon fill="#fff" stroke="none" points="-4,4 -4,-256 257.794,-256 257.794,4 -4,4"/><g id="node1" class="node"><title>Task A</title><ellipse fill="none" stroke="#000" cx="81.397" cy="-234" rx="36.294" ry="18"/><text text-anchor="middle" x="81.397" y="-230.3" font-family="Times,serif" font-size="14">Task A</text></g><g id="node2" class="node"><title>Task B</title><ellipse fill="#cd2626" stroke="#000" cx="36.397" cy="-162" rx="36.294" ry="18"/><text text-anchor="middle" x="36.397" y="-158.3" font-family="Times,serif" font-size="14">Task B</text></g><g id="edge1" class="edge"><title>Task A-&gt;Task B</title><path fill="none" stroke="#000" d="M70.7324,-216.411C65.2963,-207.955 58.5717,-197.494 52.5185,-188.078"/><polygon fill="#000" stroke="#000" points="55.3363,-185.989 46.9846,-179.47 49.4481,-189.774 55.3363,-185.989"/></g><g id="node3" class="node"><title>Task C</title><ellipse fill="none" stroke="#000" cx="127.397" cy="-162" rx="36.294" ry="18"/><text text-anchor="middle" x="127.397" y="-158.3" font-family="Times,serif" font-size="14">Task C</text></g><g id="edge2" class="edge"><title>Task A-&gt;Task C</title><path fill="none" stroke="#000" d="M92.0657,-216.765C97.6741,-208.23 104.671,-197.582 110.956,-188.019"/><polygon fill="#000" stroke="#000" points="113.899,-189.913 116.466,-179.633 108.049,-186.068 113.899,-189.913"/></g><g id="node5" class="node"><title>Task E</title><ellipse fill="#1874cd" stroke="#000" cx="36.397" cy="-90" rx="35.995" ry="18"/><text text-anchor="middle" x="36.397" y="-86.3" font-family="Times,serif" font-size="14">Task E</text></g><g id="edge4" class="edge"><title>Task B-&gt;Task E</title><path fill="none" stroke="#000" d="M36.3968,-143.697C36.3968,-135.983 36.3968,-126.712 36.3968,-118.112"/><polygon fill="#000" stroke="#000" points="39.8969,-118.104 36.3968,-108.104 32.8969,-118.104 39.8969,-118.104"/></g><g id="node4" class="node"><title>Task D</title><ellipse fill="#1874cd" stroke="#000" cx="126.397" cy="-90" rx="36.294" ry="18"/><text text-anchor="middle" x="126.397" y="-86.3" font-family="Times,serif" font-size="14">Task D</text></g><g id="edge3" class="edge"><title>Task C-&gt;Task D</title><path fill="none" stroke="#000" d="M127.15,-143.697C127.039,-135.983 126.907,-126.712 126.784,-118.112"/><polygon fill="#000" stroke="#000" points="130.284,-118.053 126.641,-108.104 123.284,-118.153 130.284,-118.053"/></g><g id="node7" class="node"><title>Task G</title><ellipse fill="#1874cd" stroke="#000" cx="217.397" cy="-90" rx="36.294" ry="18"/><text text-anchor="middle" x="217.397" y="-86.3" font-family="Times,serif" font-size="14">Task G</text></g><g id="edge7" class="edge"><title>Task C-&gt;Task G</title><path fill="none" stroke="#000" d="M146.045,-146.496C158.957,-136.453 176.338,-122.934 190.713,-111.754"/><polygon fill="#000" stroke="#000" points="193.028,-114.388 198.773,-105.485 188.73,-108.862 193.028,-114.388"/></g><g id="node6" class="node"><title>Task F</title><ellipse fill="#1874cd" stroke="#000" cx="81.397" cy="-18" rx="35.194" ry="18"/><text text-anchor="middle" x="81.397" y="-14.3" font-family="Times,serif" font-size="14">Task F</text></g><g id="edge6" class="edge"><title>Task D-&gt;Task F</title><path fill="none" stroke="#000" d="M115.732,-72.411C110.296,-63.9549 103.572,-53.4944 97.5185,-44.0783"/><polygon fill="#000" stroke="#000" points="100.336,-41.9891 91.9846,-35.4699 94.4481,-45.7744 100.336,-41.9891"/></g><g id="edge5" class="edge"><title>Task E-&gt;Task F</title><path fill="none" stroke="#000" d="M46.8338,-72.7646C52.2643,-64.3172 59.0258,-53.7993 65.1246,-44.3122"/><polygon fill="#000" stroke="#000" points="68.2404,-45.9379 70.7039,-35.6334 62.3521,-42.1525 68.2404,-45.9379"/></g></g></svg>