<svg id="Layer_2" data-name="Layer 2" xmlns="http://www.w3.org/2000/svg" viewBox="0 0 90 90"><defs><style>.cls-1,.cls-10,.cls-2,.cls-3,.cls-4,.cls-5,.cls-6,.cls-7,.cls-8,.cls-9{fill:none;stroke-linecap:round;stroke-linejoin:round;stroke-width:1.5px}.cls-1,.cls-10,.cls-2,.cls-3,.cls-7,.cls-8,.cls-9{stroke:#5b0098}.cls-2{stroke-dasharray:0 7.19 0 0 0 0}.cls-3{stroke-dasharray:0 5.94 0 0 0 0}.cls-4,.cls-5,.cls-6{stroke:#bb73fc}.cls-5{stroke-dasharray:0 6.25}.cls-6{stroke-dasharray:0 6.89}.cls-7{stroke-dasharray:0 6.75 0 0 0 0}.cls-8{stroke-dasharray:0 7.01 0 0 0 0}.cls-9{stroke-dasharray:0 6.1 0 0 0 0}.cls-10{stroke-dasharray:0 7.07 0 0 0 0}</style></defs><title>Snowplow_Website-Services_Icons</title><line class="cls-1" x1="44.95" y1="64.58" x2="44.95" y2="64.58"/><line class="cls-2" x1="44.95" y1="71.77" x2="44.95" y2="78.96"/><line class="cls-1" x1="44.95" y1="78.96" x2="44.95" y2="78.96"/><line class="cls-1" x1="44.95" y1="13.53" x2="44.95" y2="13.53"/><line class="cls-3" x1="44.95" y1="19.47" x2="44.95" y2="25.41"/><line class="cls-1" x1="44.95" y1="25.41" x2="44.95" y2="25.41"/><line class="cls-4" x1="25.37" y1="45" x2="25.37" y2="45"/><line class="cls-5" x1="19.12" y1="45" x2="15.99" y2="45"/><line class="cls-4" x1="12.86" y1="45" x2="12.86" y2="45"/><line class="cls-4" x1="78.32" y1="45" x2="78.32" y2="45"/><line class="cls-6" x1="71.43" y1="45" x2="67.98" y2="45"/><line class="cls-4" x1="64.54" y1="45" x2="64.54" y2="45"/><line class="cls-1" x1="31.1" y1="58.85" x2="31.1" y2="58.85"/><line class="cls-7" x1="26.33" y1="63.62" x2="21.55" y2="68.4"/><line class="cls-1" x1="21.55" y1="68.4" x2="21.55" y2="68.4"/><line class="cls-1" x1="68.72" y1="21.23" x2="68.72" y2="21.23"/><line class="cls-8" x1="63.76" y1="26.19" x2="58.8" y2="31.15"/><line class="cls-1" x1="58.8" y1="31.15" x2="58.8" y2="31.15"/><line class="cls-1" x1="31.1" y1="31.15" x2="31.1" y2="31.15"/><line class="cls-9" x1="26.79" y1="26.84" x2="22.47" y2="22.52"/><line class="cls-1" x1="22.47" y1="22.52" x2="22.47" y2="22.52"/><line class="cls-1" x1="68.8" y1="68.85" x2="68.8" y2="68.85"/><line class="cls-10" x1="63.8" y1="63.85" x2="58.8" y2="58.85"/><line class="cls-1" x1="58.8" y1="58.85" x2="58.8" y2="58.85"/><path class="cls-4" d="M43.35,89a0.83,0.83,0,0,1-.65-0.38l-1.6-2.78a0.84,0.84,0,0,1,0-.75l1.6-2.77a0.84,0.84,0,0,1,.65-0.38h3.2a0.84,0.84,0,0,1,.65.38l1.6,2.77a0.83,0.83,0,0,1,0,.75l-1.6,2.78a0.83,0.83,0,0,1-.65.38h-3.2Z"/><path class="cls-4" d="M43.35,8.06a0.83,0.83,0,0,1-.65-0.38L41.09,4.9a0.84,0.84,0,0,1,0-.75l1.6-2.77A0.84,0.84,0,0,1,43.35,1h3.2a0.83,0.83,0,0,1,.65.38l1.6,2.77a0.83,0.83,0,0,1,0,.75L47.2,7.68a0.83,0.83,0,0,1-.65.38h-3.2Z"/><path class="cls-4" d="M72,77.14a0.84,0.84,0,0,1-.65-0.38L69.7,74a0.83,0.83,0,0,1,0-.75l1.6-2.77A0.84,0.84,0,0,1,72,70.08h3.2a0.84,0.84,0,0,1,.65.38l1.6,2.77a0.84,0.84,0,0,1,0,.75l-1.6,2.78a0.84,0.84,0,0,1-.65.38H72Z"/><path class="cls-4" d="M14.84,20a0.84,0.84,0,0,1-.65-0.38l-1.6-2.78a0.83,0.83,0,0,1,0-.75l1.6-2.77A0.83,0.83,0,0,1,14.84,13H18a0.84,0.84,0,0,1,.65.38l1.6,2.77a0.84,0.84,0,0,1,0,.75l-1.6,2.78A0.84,0.84,0,0,1,18,20h-3.2Z"/><path class="cls-4" d="M1,43.35a0.84,0.84,0,0,1,.38-0.65l2.78-1.6a0.84,0.84,0,0,1,.75,0l2.77,1.6a0.84,0.84,0,0,1,.38.65v3.2a0.84,0.84,0,0,1-.38.65L4.9,48.81a0.83,0.83,0,0,1-.75,0L1.38,47.2A0.83,0.83,0,0,1,1,46.55v-3.2Z"/><path class="cls-4" d="M81.94,43.35a0.84,0.84,0,0,1,.38-0.65l2.78-1.6a0.84,0.84,0,0,1,.75,0l2.77,1.6a0.84,0.84,0,0,1,.38.65v3.2a0.84,0.84,0,0,1-.38.65l-2.77,1.6a0.83,0.83,0,0,1-.75,0l-2.78-1.6a0.84,0.84,0,0,1-.38-0.65v-3.2Z"/><path class="cls-4" d="M12.86,72a0.84,0.84,0,0,1,.38-0.65L16,69.7a0.83,0.83,0,0,1,.75,0l2.77,1.6a0.84,0.84,0,0,1,.38.65v3.2a0.84,0.84,0,0,1-.38.65l-2.77,1.6a0.84,0.84,0,0,1-.75,0l-2.78-1.6a0.84,0.84,0,0,1-.38-0.65V72Z"/><path class="cls-4" d="M70,14.84a0.83,0.83,0,0,1,.38-0.65l2.78-1.6a0.83,0.83,0,0,1,.75,0l2.77,1.6a0.83,0.83,0,0,1,.38.65V18a0.84,0.84,0,0,1-.38.65l-2.77,1.6a0.84,0.84,0,0,1-.75,0l-2.78-1.6A0.83,0.83,0,0,1,70,18v-3.2Z"/><path class="cls-1" d="M37,54l3.71-6.42a1.93,1.93,0,0,1,1.51-.87h7.42a1.93,1.93,0,0,1,1.51.87L54.88,54H37Z"/><circle class="cls-1" cx="45.95" cy="40.14" r="4.08"/></svg>