<svg id="Layer_2" data-name="Layer 2" xmlns="http://www.w3.org/2000/svg" viewBox="0 0 90 90"><defs><style>.cls-1{opacity:.1}.cls-10,.cls-11,.cls-12,.cls-2,.cls-3,.cls-4,.cls-5,.cls-6,.cls-7,.cls-8,.cls-9{fill:none;stroke-linecap:round;stroke-linejoin:round;stroke-width:1.5px}.cls-10,.cls-12,.cls-2,.cls-3,.cls-4,.cls-5,.cls-6,.cls-7,.cls-8,.cls-9{stroke:#bb73fc}.cls-3{stroke-dasharray:0 2.75 0 2.75}.cls-4{stroke-dasharray:0 2.75 0 2.75 0 2.75}.cls-5{stroke-dasharray:0 2.98 0 2.98}.cls-6{stroke-dasharray:0 2.98 0 2.98 0 2.98}.cls-7{stroke-dasharray:0 2.86 0 2.86}.cls-8{stroke-dasharray:0 2.86 0 2.86 0 2.86}.cls-9{stroke-dasharray:0 3.19 0 3.19}.cls-10{stroke-dasharray:0 3.19 0 3.19 0 3.19}.cls-11{stroke:#5b0098}.cls-12{stroke-dasharray:0 3.03 0 3.03 0 3.03}</style></defs><title>Snowplow_Website-Services_Icons</title><g class="cls-1"><line class="cls-2" x1="60.77" y1="16.64" x2="60.77" y2="16.64"/><line class="cls-3" x1="59.37" y1="19" x2="57.26" y2="22.55"/><line class="cls-4" x1="56.56" y1="23.73" x2="44.62" y2="43.82"/><line class="cls-2" x1="43.92" y1="45" x2="43.92" y2="45"/><line class="cls-2" x1="87" y1="43.41" x2="87" y2="43.41"/><path class="cls-5" d="M87,46.19a19.49,19.49,0,0,1-1.17,2.36l-0.92,1.6"/><path class="cls-6" d="M84.2,51.44L68.52,78.61a7.88,7.88,0,0,1-6.16,3.56H48.93"/><line class="cls-2" x1="47.44" y1="82.17" x2="47.44" y2="82.17"/><line class="cls-2" x1="54.94" y1="7.83" x2="54.94" y2="7.83"/><line class="cls-7" x1="57.79" y1="7.83" x2="62.08" y2="7.83"/><path class="cls-8" d="M63.5,8a8,8,0,0,1,5,3.43L81.82,34.44"/><line class="cls-2" x1="82.54" y1="35.68" x2="82.54" y2="35.68"/><line class="cls-2" x1="43.92" y1="45" x2="43.92" y2="45"/><line class="cls-9" x1="47.11" y1="45" x2="51.9" y2="45"/><line class="cls-10" x1="53.49" y1="45" x2="80.62" y2="45"/><line class="cls-2" x1="82.22" y1="45" x2="82.22" y2="45"/><line class="cls-11" x1="23.29" y1="10.5" x2="43.92" y2="45"/><line class="cls-11" x1="24.2" y1="79.75" x2="40.82" y2="50.46"/><line class="cls-11" x1="4.15" y1="45" x2="43.92" y2="45"/><line class="cls-12" x1="62.99" y1="76.44" x2="56.52" y2="65.78"/><line class="cls-11" x1="55.19" y1="63.58" x2="48.8" y2="53.04"/><path class="cls-11" d="M44.6,82.17H29.79a12.77,12.77,0,0,1-10-5.75L5,50.75a12.76,12.76,0,0,1,0-11.5L19.83,13.58a12.77,12.77,0,0,1,10-5.75H52.14"/><line class="cls-11" x1="42.79" y1="46.99" x2="43.92" y2="45"/></g><line class="cls-11" x1="73.19" y1="30.52" x2="81.34" y2="36.8"/><line class="cls-11" x1="48.2" y1="47.9" x2="65.97" y2="30.94"/><line class="cls-11" x1="30.06" y1="41.99" x2="41.15" y2="49.12"/><line class="cls-11" x1="10.14" y1="63.61" x2="23.9" y2="43.41"/><ellipse class="cls-2" cx="84.73" cy="39.48" rx="4.27" ry="4.43"/><ellipse class="cls-2" cx="69.45" cy="28.38" rx="4.27" ry="4.43"/><ellipse class="cls-2" cx="45.06" cy="50.89" rx="4.27" ry="4.43"/><ellipse class="cls-2" cx="26.36" cy="39.79" rx="4.27" ry="4.43"/><ellipse class="cls-2" cx="7.61" cy="67.31" rx="4.27" ry="4.43"/></svg>