<svg id="Layer_2" data-name="Layer 2" xmlns="http://www.w3.org/2000/svg" viewBox="0 0 90 90"><defs><style>.cls-1,.cls-2,.cls-3{fill:none}.cls-2,.cls-3{stroke:#5b0098;stroke-linecap:round;stroke-linejoin:round;stroke-width:1.5px}.cls-3{stroke:#bb73fc}</style></defs><title>Snowplow_Website-Services_Icons</title><path class="cls-1" d="M27.31,9.7a5.71,5.71,0,0,1,4.46-2.57h21.9A5.71,5.71,0,0,1,58.13,9.7l11,19a5.71,5.71,0,0,1,0,5.15l-11,19a5.71,5.71,0,0,1-4.46,2.57H31.77a5.71,5.71,0,0,1-4.46-2.57"/><path class="cls-2" d="M20.9,20.8L27.31,9.7a5.71,5.71,0,0,1,4.46-2.57h21.9A5.71,5.71,0,0,1,58.13,9.7l11,19a5.71,5.71,0,0,1,0,5.15l-11,19a5.71,5.71,0,0,1-4.46,2.57H31.77a5.71,5.71,0,0,1-4.46-2.57L17.83,36.36"/><path class="cls-1" d="M69.34,49.6a3.37,3.37,0,0,1,0,3l-6.47,11.2a3.37,3.37,0,0,1-2.63,1.52H47.3a3.37,3.37,0,0,1-2.63-1.52"/><path class="cls-2" d="M64.65,41.49l4.68,8.11a3.37,3.37,0,0,1,0,3l-6.47,11.2a3.37,3.37,0,0,1-2.63,1.52H47.3a3.37,3.37,0,0,1-2.63-1.52l-4.9-8.49"/><path class="cls-3" d="M28.68,82.88a1.72,1.72,0,0,1-1.34-.77L24,76.39a1.72,1.72,0,0,1,0-1.55l3.3-5.71a1.72,1.72,0,0,1,1.34-.77h6.59a1.72,1.72,0,0,1,1.34.77l3.3,5.71a1.72,1.72,0,0,1,0,1.55l-3.3,5.71a1.72,1.72,0,0,1-1.34.77H28.68Z"/><path class="cls-3" d="M28.68,82.88a1.72,1.72,0,0,1-1.34-.77L24,76.39a1.72,1.72,0,0,1,0-1.55l3.3-5.71a1.72,1.72,0,0,1,1.34-.77h6.59a1.72,1.72,0,0,1,1.34.77l3.3,5.71a1.72,1.72,0,0,1,0,1.55l-3.3,5.71a1.72,1.72,0,0,1-1.34.77H28.68Z"/><path class="cls-3" d="M7.79,36.8A2.42,2.42,0,0,1,5.9,35.71l-4.64-8a2.42,2.42,0,0,1,0-2.18l4.64-8a2.42,2.42,0,0,1,1.89-1.09h9.28A2.42,2.42,0,0,1,19,17.45l4.64,8a2.42,2.42,0,0,1,0,2.18l-4.64,8a2.42,2.42,0,0,1-1.89,1.09H7.79Z"/><path class="cls-3" d="M7.79,36.8A2.42,2.42,0,0,1,5.9,35.71l-4.64-8a2.42,2.42,0,0,1,0-2.18l4.64-8a2.42,2.42,0,0,1,1.89-1.09h9.28A2.42,2.42,0,0,1,19,17.45l4.64,8a2.42,2.42,0,0,1,0,2.18l-4.64,8a2.42,2.42,0,0,1-1.89,1.09H7.79Z"/><path class="cls-3" d="M82.48,39a1,1,0,0,1-.77-0.44l-1.88-3.26a1,1,0,0,1,0-.88l1.88-3.26a1,1,0,0,1,.77-0.44h3.76a1,1,0,0,1,.77.44l1.88,3.26a1,1,0,0,1,0,.88L87,38.59a1,1,0,0,1-.77.44H82.48Z"/><path class="cls-3" d="M82.48,39a1,1,0,0,1-.77-0.44l-1.88-3.26a1,1,0,0,1,0-.88l1.88-3.26a1,1,0,0,1,.77-0.44h3.76a1,1,0,0,1,.77.44l1.88,3.26a1,1,0,0,1,0,.88L87,38.59a1,1,0,0,1-.77.44H82.48Z"/></svg>