<svg id="Layer_2" data-name="Layer 2" xmlns="http://www.w3.org/2000/svg" viewBox="0 0 90 90"><defs><style>.cls-1,.cls-2,.cls-3{fill:none;stroke-linecap:round;stroke-linejoin:round;stroke-width:1.5px}.cls-1,.cls-3{stroke:#5b0098}.cls-1{stroke-dasharray:15 9.28 0 3.98 3.98 13.26}.cls-2{stroke:#bb73fc}.cls-3{stroke-dasharray:15 9 0 3.98 3.98 13.26}</style></defs><title>Snowplow_Website-Services_Icons</title><path class="cls-1" d="M29.09,84.92a13.71,13.71,0,0,1-10.7-6.18L2.47,51.17a13.7,13.7,0,0,1,0-12.35L18.39,11.26a13.71,13.71,0,0,1,10.7-6.18H60.92a13.71,13.71,0,0,1,10.7,6.18L87.53,38.82a13.71,13.71,0,0,1,0,12.35L71.62,78.74a13.7,13.7,0,0,1-10.7,6.18H29.09Z"/><line class="cls-2" x1="4.55" y1="53.94" x2="4.55" y2="53.94"/><line class="cls-2" x1="74.46" y1="73.16" x2="74.46" y2="73.16"/><line class="cls-2" x1="75.73" y1="48.88" x2="75.73" y2="48.88"/><line class="cls-2" x1="23.26" y1="24.22" x2="23.26" y2="24.22"/><path class="cls-2" d="M54.76,37.82a5.34,5.34,0,0,1-5.32,5.32s-2.2,0-1.59,1a3.35,3.35,0,0,1,.57,1.65,2.67,2.67,0,1,1-5.33,0,3.35,3.35,0,0,1,.57-1.65c0.62-1.09-1.59-1-1.59-1a5.34,5.34,0,0,1-5.32-5.32V30.46a5.34,5.34,0,0,1,5.32-5.32h7.36a5.34,5.34,0,0,1,5.32,5.32"/><path class="cls-2" d="M52.63,48.47a5.32,5.32,0,0,1,2.13,4.25v7.36a5.34,5.34,0,0,1-5.32,5.32H42.08a5.34,5.34,0,0,1-5.32-5.32s0-2.2-1-1.59a3.35,3.35,0,0,1-1.65.57,2.67,2.67,0,0,1,0-5.33,3.35,3.35,0,0,1,1.65.57c1.09,0.62,1-1.59,1-1.59a5.32,5.32,0,0,1,2.13-4.25"/><path class="cls-2" d="M38.88,42.08a5.32,5.32,0,0,1-2.13-4.25V30.46a5.34,5.34,0,0,1,5.32-5.32h7.36a5.34,5.34,0,0,1,5.32,5.32s0,2.2,1,1.59a3.35,3.35,0,0,1,1.65-.57,2.67,2.67,0,0,1,0,5.33,3.35,3.35,0,0,1-1.65-.57c-1.09-.62-1,1.59-1,1.59a5.32,5.32,0,0,1-2.13,4.25"/><path class="cls-3" d="M56.74,15.53a10.12,10.12,0,0,1,7.9,4.56L76.39,40.44a10.11,10.11,0,0,1,0,9.12L64.64,69.91a10.12,10.12,0,0,1-7.9,4.56H33.25a10.12,10.12,0,0,1-7.9-4.56L13.61,49.56a10.12,10.12,0,0,1,0-9.12L25.35,20.09a10.12,10.12,0,0,1,7.9-4.56H56.74Z"/></svg>