<?xml version="1.0" encoding="UTF-8"?>
<svg width="155px" height="53px" viewBox="0 0 155 53" version="1.1" xmlns="http://www.w3.org/2000/svg" xmlns:xlink="http://www.w3.org/1999/xlink">
    <!-- Generator: Sketch 55.1 (78136) - https://sketchapp.com -->
    <title>Heap-RGB_Logo-Horizontal-Lockup-Color-Reverse-1</title>
    <desc>Created with Sketch.</desc>
    <g id="Landingpage---v2" stroke="none" stroke-width="1" fill="none" fill-rule="evenodd">
        <g id="Webinar-Landing-Page---SP-VS-Heap" transform="translate(-1302.000000, -588.000000)" fill-rule="nonzero">
            <g id="Group-34" transform="translate(260.000000, 451.000000)">
                <g id="Group-35" transform="translate(944.000000, 0.000000)">
                    <g id="Group-29">
                        <g id="Group-25" transform="translate(0.000000, 93.000000)">
                            <g id="Heap-RGB_Logo-Horizontal-Lockup-Color-Reverse-1" transform="translate(98.000000, 44.000000)">
                                <path d="M120.885014,19 L120.885014,19 C117.280463,19 113.555675,21.0106026 112.094924,23.5338094 L114.328262,24.790436 L115.947624,25.6986909 C116.622997,24.3027156 118.792379,23.2327167 120.792918,23.2327167 C120.826175,23.2327167 120.854315,23.2327167 120.885014,23.2327167 L120.885014,23.2327167 C123.72977,23.2775073 125.13424,24.9969707 125.13424,27.214108 L125.13424,29.0082224 C124.213276,28.358758 121.908308,27.6620145 119.859163,27.6620145 C114.842467,27.6620145 111,30.600779 111,34.7837282 C111,39.3150492 114.83735,42 119.50101,42 C121.825939,41.993746 124.017488,40.9430508 125.43867,39.1533052 L125.894035,41.6018609 L130,41.6018609 L130,27.1170616 C129.989767,22.090555 126.615457,19.0049767 120.885014,19 Z M120.590817,37.9862599 L120.439882,37.9862599 C118.137471,37.9862599 115.753198,37.0332143 115.753198,34.7986584 C115.753198,32.6163583 118.142588,31.6707779 120.439882,31.6633128 L120.590817,31.6633128 C122.893227,31.6633128 125.277501,32.6163583 125.277501,34.7986584 C125.277501,37.0207725 122.888111,37.9663529 120.590817,37.9862599 Z" id="Shape" fill="#FFFFFF"></path>
                                <path d="M103.855986,35.8485893 C102.60284,37.7353005 100.509904,38.6502261 97.9983805,38.6502261 C94.6470662,38.6502261 92.2898966,36.2181779 92.1329264,32.1888865 L108,32.1888865 L108,30.3280207 C108,23.6082274 104.439392,19 97.8937336,19 C91.5573689,19 87,24.1690717 87,31.0516907 C87,38.138488 91.5050455,43 97.9879158,43 C102.560982,43 106.098044,41.128796 107.610191,38.0040922 L103.855986,35.8485893 Z M97.9460571,23.3394357 C101.140401,23.3394357 102.765043,25.6164118 102.817366,28.4077105 L92.2820481,28.4077105 C92.909929,25.0969201 95.0578049,23.3394357 97.9382085,23.3394357 L97.9460571,23.3394357 Z" id="Shape" fill="#FFFFFF"></path>
                                <path d="M139.010737,51 L134,51 L134,19.5165039 L138.21403,19.5165039 L138.622405,22.3831006 C139.549392,21.0737632 141.345741,19 144.858268,19 C151.372226,19 155,24.5808248 155,30.9906384 C155,37.4004519 151.186829,42.9812767 144.66786,42.9812767 C142.212598,42.9812767 140.005369,41.7933177 139.003221,40.5020579 L139.010737,51 Z M144.312097,23.6252926 C140.754474,23.6252926 138.629921,26.7630538 138.629921,30.9803083 C138.629921,35.1975627 140.754474,38.335324 144.312097,38.335324 C147.869721,38.335324 149.989263,35.2078928 149.989263,30.9906384 C149.989263,26.7733839 147.867215,23.6356226 144.312097,23.6356226 L144.312097,23.6252926 Z" id="Shape" fill="#FFFFFF"></path>
                                <polygon id="Path" fill="#FFFFFF" points="85 11 85 42 79.5681708 42 79.5681708 28.832623 63.439656 28.832623 63.439656 41.9872951 58 41.9872951 58 11 63.439656 11 63.439656 24.1546721 79.5759977 24.1546721 79.5759977 11"></polygon>
                                <path d="M46.1130624,12.6089313 L24.3882193,0.235183086 C23.8387293,-0.0783943619 23.1612707,-0.0783943619 22.6117807,0.235183086 L0.886937583,12.6089313 C0.337922286,12.922237 0,13.5005432 0,14.1262517 L0,38.8737482 C0,39.4993174 0.338308429,40.0773826 0.886937583,40.3910686 L22.6117807,52.7648168 C23.1612707,53.0783944 23.8387293,53.0783944 24.3882193,52.7648168 L46.1130624,40.3910686 C46.6616915,40.0773826 47,39.4993174 47,38.8737482 L47,14.1262517 C47,13.5005432 46.6620778,12.922237 46.1130624,12.6089313 Z M41.5220071,36.7646728 L23.4987183,47.0318744 L5.46517592,36.7646728 L5.46517592,16.237856 L23.4884647,5.97318323 L23.4884647,5.97318323 L23.4884647,24.9877373 C23.4891944,25.3006221 23.6587413,25.5894547 23.9334597,25.7458108 C24.2081781,25.9021669 24.546504,25.9023904 24.8214344,25.7463975 L41.5220071,16.237856 L41.5220071,16.237856 L41.5220071,36.7646728 Z" id="Shape" fill="#ED485F"></path>
                            </g>
                        </g>
                    </g>
                </g>
            </g>
        </g>
    </g>
</svg>