<?xml version="1.0" encoding="UTF-8"?>
<svg width="247px" height="41px" viewBox="0 0 247 41" version="1.1" xmlns="http://www.w3.org/2000/svg" xmlns:xlink="http://www.w3.org/1999/xlink">
    <!-- Generator: Sketch 55.1 (78136) - https://sketchapp.com -->
    <title>logo-iteratively</title>
    <desc>Created with Sketch.</desc>
    <g id="Landingpage---v2" stroke="none" stroke-width="1" fill="none" fill-rule="evenodd">
        <g id="Webinar-Landing-Page---SP-VS-Heap" transform="translate(-837.000000, -585.000000)" fill-rule="nonzero">
            <g id="Group-34" transform="translate(260.000000, 451.000000)">
                <g id="Group-28" transform="translate(525.000000, 17.000000)">
                    <g id="Group-24" transform="translate(0.000000, 70.000000)">
                        <g id="logo-iteratively" transform="translate(52.000000, 47.000000)">
                            <path d="M33.2733336,17.0005132 L68.5163943,18.5150306 C68.7368313,18.5244923 68.9255429,18.6722318 68.9826986,18.8800934 C69.0398544,19.0879551 68.9522635,19.3079672 68.7662626,19.4237411 L39.0213156,37.9225601 C38.9336355,37.9771223 38.8308415,38.0039956 38.7269364,37.9995193 L3.48387572,36.4850019 C3.26321426,36.4756457 3.07429319,36.3277258 3.01721756,36.1196216 C2.96014192,35.9115174 3.04811153,35.6913568 3.23451325,35.5757981 L32.9784486,17.0769791 C33.0661864,17.0225901 33.1689762,16.9958902 33.2728278,17.0005132 L33.2733336,17.0005132 Z" id="Path" fill="#666AD1" opacity="0.6"></path>
                            <path d="M30.2733336,0.000513207147 L65.5163943,1.51503063 C65.7368313,1.52449228 65.9255429,1.6722318 65.9826986,1.88009343 C66.0398544,2.08795506 65.9522635,2.30796719 65.7662626,2.42374109 L36.0213156,20.9225601 C35.9336355,20.9771223 35.8308415,21.0039956 35.7269364,20.9995193 L0.483875725,19.4850019 C0.263214264,19.4756457 0.0742931878,19.3277258 0.0172175554,19.1196216 C-0.039858077,18.9115174 0.0481115328,18.6913568 0.234513254,18.5757981 L29.9784486,0.0769790706 C30.0661864,0.0225901498 30.1689762,-0.00410979632 30.2728278,0.000513207147 L30.2733336,0.000513207147 Z" id="Path" fill="#303F9F"></path>
                            <g id="Group" transform="translate(82.000000, 7.000000)">
                                <g id="a-link" fill="#000000">
                                    <path d="M0.385846154,1.90005797 L5.77144615,1.90005797 L5.77144615,25.6231884 L0.385846154,25.6231884 L0.385846154,1.90005797 Z M21.4449231,13.3595362 L16.8878769,13.3595362 L16.8878769,18.7877101 C16.8878769,19.2346377 16.9107231,19.6421449 16.9569231,20.0107246 C17.0026154,20.3793043 17.1066923,20.6976232 17.2676308,20.9656812 C17.4285692,21.2337391 17.6763231,21.4402029 18.0098769,21.5855652 C18.3434308,21.7309275 18.7866462,21.8033623 19.3390154,21.8033623 C19.6152,21.8033623 19.9776923,21.7752754 20.4264923,21.7195942 C20.8752923,21.663913 21.2149385,21.5353043 21.4449231,21.3342609 L21.4449231,25.5226667 C20.8697077,25.7237101 20.2711385,25.8577391 19.6497231,25.9247536 C19.0421942,25.9910099 18.4313517,26.0245685 17.82,26.0252754 C16.9452462,26.0252754 16.1395385,25.936087 15.4033846,25.7572174 C14.6672308,25.5783478 14.0224615,25.294029 13.4700923,24.9027826 C12.9177231,24.512029 12.4861846,24.0035072 12.1754769,23.3782029 C11.8647692,22.7524058 11.7094154,21.9935652 11.7094154,21.0997101 L11.7094154,13.3595362 L8.3952,13.3595362 L8.3952,9.33866667 L11.7094154,9.33866667 L11.7094154,4.51362319 L16.8878769,4.51362319 L16.8878769,9.33866667 L21.4449231,9.33866667 L21.4449231,13.3595362 Z M39.9492923,22.8085797 C39.1207385,23.835971 38.0733692,24.6293043 36.8076923,25.1875942 C35.5420154,25.7458841 34.2301385,26.0252754 32.8720615,26.0252754 C31.5830308,26.0252754 30.3691385,25.8242319 29.2298769,25.4221449 C28.0906154,25.020058 27.1011231,24.4450145 26.2608923,23.6965217 C25.4206615,22.948029 24.7591385,22.0492464 24.2758154,20.9991884 C23.7924923,19.9496232 23.5508308,18.7768696 23.5508308,17.4809275 C23.5508308,16.1849855 23.7924923,15.0122319 24.2758154,13.9626667 C24.7591385,12.9131014 25.4206615,12.0138261 26.2608923,11.2653333 C27.1011231,10.5168406 28.0906154,9.9417971 29.2298769,9.53971014 C30.3691385,9.13762319 31.5830308,8.93657971 32.8720615,8.93657971 C34.0686923,8.93657971 35.1566769,9.13762319 36.1344923,9.53971014 C37.1128154,9.9417971 37.9413692,10.5168406 38.6201538,11.2653333 C39.2989385,12.0138261 39.8228769,12.9126087 40.1909538,13.9626667 C40.5590308,15.0122319 40.7433231,16.1849855 40.7433231,17.4809275 L40.7433231,19.0557681 L28.7292923,19.0557681 C28.9364308,20.0166377 29.3852308,20.7813913 30.0756923,21.3510145 C30.7661538,21.9206377 31.6175538,22.2054493 32.6304,22.2054493 C33.4818,22.2054493 34.2012,22.0211594 34.7880923,21.6525797 C35.3861281,21.273716 35.9069506,20.7909376 36.3243692,20.2285217 L39.9492923,22.8085797 Z M35.5648615,15.638029 C35.5877077,14.7890145 35.3003538,14.0631884 34.7017846,13.460058 C34.1032154,12.8569275 33.3325385,12.5553623 32.3887385,12.5553623 C31.8135231,12.5553623 31.3073538,12.6445507 30.8697231,12.8234203 C30.4326,13.0022899 30.0584308,13.2309275 29.7477231,13.5103188 C29.4413436,13.7837366 29.1947877,14.1141999 29.0227385,14.482029 C28.8512545,14.8461452 28.7517156,15.2382683 28.7292923,15.638029 L35.5648615,15.638029 Z M43.8849231,9.33866667 L49.0633846,9.33866667 L49.0633846,11.9522319 L49.1324308,11.9522319 C49.6848,10.9470145 50.3407385,10.1931014 51.1002462,9.69049275 C51.8597538,9.18788406 52.8147231,8.93657971 53.9656615,8.93657971 C54.2652,8.93657971 54.5642308,8.94791304 54.8632615,8.97008696 C55.1628,8.99226087 55.4384769,9.03710145 55.6918154,9.10411594 L55.6918154,13.6946087 C55.3359622,13.5857752 54.972542,13.5017926 54.6043385,13.4433043 C54.2332398,13.3863753 53.858042,13.3583631 53.4823385,13.3595362 C52.4923385,13.3595362 51.7104923,13.4935652 51.1347692,13.7616232 C50.5595538,14.0296812 50.1163385,14.4036812 49.8056308,14.8841159 C49.4949231,15.3645507 49.2933692,15.9395942 49.2014769,16.6097391 C49.1053695,17.3431472 49.0592385,18.0819121 49.0633846,18.8212174 L49.0633846,25.6231884 L43.8849231,25.6231884 L43.8849231,9.33866667 Z M68.4653538,23.5792464 L68.3963077,23.5792464 C67.8210923,24.4504348 67.056,25.0757391 66.1005231,25.4556522 C65.1418674,25.8360771 64.1154332,26.0296307 63.0797538,26.0253473 C62.2974,26.0253473 61.5434769,25.9193333 60.8184923,25.7069565 C60.0935077,25.4950725 59.4548308,25.1762609 58.9024615,24.752 C58.3503466,24.3278799 57.902251,23.7899644 57.5905846,23.1771594 C57.2682,22.5513623 57.1072615,21.8255362 57.1072615,20.9991884 C57.1072615,20.0609855 57.2854615,19.2681449 57.6423692,18.6201739 C57.9904089,17.9820192 58.4868555,17.4313462 59.0923385,17.0118261 C59.7020769,16.5875652 60.3986308,16.257913 61.1809846,16.0233623 C61.9763163,15.7860727 62.7903269,15.6123719 63.6148615,15.504 C64.450543,15.3926584 65.2918488,15.3255447 66.1350462,15.3029565 C66.9752769,15.2807826 67.7520462,15.2694493 68.4653538,15.2694493 C68.4653538,14.376087 68.1373846,13.6665217 67.4814462,13.1417391 C66.8255077,12.6169565 66.0487385,12.3543188 65.1511385,12.3543188 C64.2997385,12.3543188 63.5229692,12.5272754 62.8208308,12.8736812 C62.1186923,13.220087 61.4916923,13.6946087 60.9393231,14.2977391 L58.1774769,11.5501449 C59.1441231,10.6789565 60.2717077,10.0255652 61.5607385,9.58997101 C62.8481352,9.15461688 64.2021175,8.9337051 65.5654154,8.93655201 C67.0844308,8.93655201 68.3328462,9.12086957 69.3111692,9.48944928 C70.2894923,9.85802899 71.0718462,10.3995652 71.6587385,11.1145507 C72.2456308,11.8290435 72.6538154,12.7061449 72.8843077,13.7448696 C73.1142923,14.7835942 73.2295385,15.9844348 73.2295385,17.3468986 L73.2295385,25.6231884 L68.4653538,25.6231884 L68.4653538,23.5792464 Z M68.4653538,18.4861449 L67.188,18.4861449 L66.8762769,18.4891014 C66.4908303,18.4976626 66.1055896,18.5134337 65.7207692,18.5364058 C65.1338769,18.569913 64.5698308,18.6645217 64.0291385,18.8212174 C63.4884462,18.9774203 63.0279692,19.211971 62.6482154,19.5248696 C62.2684615,19.8377681 62.0785846,20.2733623 62.0785846,20.8316522 C62.0785846,21.4347826 62.3430923,21.8812174 62.8726154,22.171942 C63.4021385,22.4626667 63.954,22.6075362 64.5297231,22.6075362 C65.0358923,22.6075362 65.5248,22.5405217 65.9969538,22.4064928 C66.44557,22.2829896 66.8709658,22.0906899 67.2570462,21.8368696 C67.6217501,21.5949242 67.9232008,21.2736593 68.1373846,20.8986667 C68.3556923,20.5192464 68.4653538,20.0723188 68.4653538,19.5583768 L68.4653538,18.4861449 Z M87.9018462,13.3595362 L83.3448,13.3595362 L83.3448,18.7877101 C83.3448,19.2346377 83.3676462,19.6421449 83.4138462,20.0107246 C83.4595385,20.3793043 83.5636154,20.6976232 83.7245538,20.9656812 C83.8854923,21.2337391 84.1332462,21.4402029 84.4668,21.5855652 C84.8003538,21.7309275 85.2435692,21.8033623 85.7959385,21.8033623 C86.0721231,21.8033623 86.4346154,21.7752754 86.8834154,21.7195942 C87.3322154,21.663913 87.6718615,21.5353043 87.9018462,21.3342609 L87.9018462,25.5226667 C87.3266308,25.7237101 86.7280615,25.8577391 86.1066462,25.9247536 C85.4991173,25.9910099 84.8882748,26.0245685 84.2769231,26.0252754 C83.4021692,26.0252754 82.5964615,25.936087 81.8603077,25.7572174 C81.1241538,25.5783478 80.4793846,25.294029 79.9270154,24.9027826 C79.3746462,24.512029 78.9431077,24.0035072 78.6324,23.3782029 C78.3216923,22.7524058 78.1663385,21.9935652 78.1663385,21.0997101 L78.1663385,13.3595362 L74.8521231,13.3595362 L74.8521231,9.33866667 L78.1663385,9.33866667 L78.1663385,4.51362319 L83.3448,4.51362319 L83.3448,9.33866667 L87.9018462,9.33866667 L87.9018462,13.3595362 Z M90.5946462,9.33866667 L95.7731077,9.33866667 L95.7731077,25.6231884 L90.5946462,25.6231884 L90.5946462,9.33866667 Z M90.1803692,4.21205797 C90.1803692,3.40788406 90.4738154,2.72098551 91.0607077,2.15136232 C91.6476,1.58173913 92.3553231,1.29692754 93.1838769,1.29692754 C94.0124308,1.29692754 94.7201538,1.58173913 95.3070462,2.15136232 C95.8939385,2.72098551 96.1873846,3.40788406 96.1873846,4.21205797 C96.1873846,5.01623188 95.8939385,5.70313043 95.3070462,6.27275362 C94.7201538,6.84237681 94.0124308,7.12718841 93.1838769,7.12718841 C92.3553231,7.12718841 91.6476,6.84237681 91.0607077,6.27275362 C90.4738154,5.70313043 90.1803692,5.01623188 90.1803692,4.21205797 L90.1803692,4.21205797 Z M97.7409231,9.33866667 L103.333662,9.33866667 L107.58,20.396058 L107.649046,20.396058 L111.584677,9.33866667 L116.797662,9.33866667 L110.169231,25.6231884 L104.680062,25.6231884 L97.7409231,9.33866667 Z M134.577046,22.8085797 C133.748492,23.835971 132.701123,24.6293043 131.435446,25.1875942 C130.169769,25.7458841 128.857892,26.0252754 127.499815,26.0252754 C126.210785,26.0252754 124.996892,25.8242319 123.857631,25.4221449 C122.718369,25.020058 121.728877,24.4450145 120.888646,23.6965217 C120.048415,22.948029 119.386892,22.0492464 118.903569,20.9991884 C118.420246,19.9496232 118.178585,18.7768696 118.178585,17.4809275 C118.178585,16.1849855 118.420246,15.0122319 118.903569,13.9626667 C119.386892,12.9131014 120.048415,12.0138261 120.888646,11.2653333 C121.728877,10.5168406 122.718369,9.9417971 123.857631,9.53971014 C124.996892,9.13762319 126.210785,8.93657971 127.499815,8.93657971 C128.696446,8.93657971 129.784431,9.13762319 130.762246,9.53971014 C131.740569,9.9417971 132.569123,10.5168406 133.247908,11.2653333 C133.926692,12.0138261 134.450631,12.9126087 134.818708,13.9626667 C135.186785,15.0122319 135.371077,16.1849855 135.371077,17.4809275 L135.371077,19.0557681 L123.357046,19.0557681 C123.564185,20.0166377 124.012985,20.7813913 124.703446,21.3510145 C125.393908,21.9206377 126.245308,22.2054493 127.258154,22.2054493 C128.109554,22.2054493 128.828954,22.0211594 129.415846,21.6525797 C130.013882,21.273716 130.534704,20.7909376 130.952123,20.2285217 L134.577046,22.8085797 Z M130.192615,15.638029 C130.215462,14.7890145 129.928108,14.0631884 129.329538,13.460058 C128.730969,12.8569275 127.960292,12.5553623 127.016492,12.5553623 C126.441277,12.5553623 125.935108,12.6445507 125.497477,12.8234203 C125.060354,13.0022899 124.686185,13.2309275 124.375477,13.5103188 C124.069097,13.7837366 123.822542,14.1141999 123.650492,14.482029 C123.479008,14.8461452 123.379469,15.2382683 123.357046,15.638029 L130.192615,15.638029 Z M138.581723,0.291710145 L143.760185,0.291710145 L143.760185,25.6231884 L138.581723,25.6231884 L138.581723,0.291710145 Z M164.750215,9.33866667 L157.155138,28.2702609 C156.848821,29.0518387 156.5149,29.822961 156.153969,30.5822609 C155.831585,31.2524058 155.422892,31.8166087 154.9284,32.2743768 C154.4334,32.7326377 153.8064,33.0785507 153.046892,33.3131014 C152.287385,33.5476522 151.286215,33.6649275 150.043385,33.6649275 C148.708154,33.6649275 147.419631,33.4638841 146.1768,33.0617971 L146.867262,28.9404058 C147.649615,29.2754783 148.455323,29.4430145 149.283877,29.4430145 C149.859092,29.4430145 150.331246,29.3814203 150.699323,29.2587246 C151.0674,29.1355362 151.372523,28.9571594 151.614185,28.7226087 C151.865598,28.4743568 152.070094,28.1851447 152.218338,27.8681739 L152.359477,27.5675942 C152.478785,27.3049565 152.604692,27.0147246 152.736185,26.6954203 L153.115938,25.7572174 L145.762523,9.33866667 L151.355262,9.33866667 L155.670646,20.0944928 L155.739692,20.0944928 L159.433662,9.33866667 L164.750215,9.33866667 Z" id="a"></path>
                                </g>
                                <g id="a-link" fill="#1E2864">
                                    <path d="M0.385846154,1.90005797 L5.77144615,1.90005797 L5.77144615,25.6231884 L0.385846154,25.6231884 L0.385846154,1.90005797 Z M21.4449231,13.3595362 L16.8878769,13.3595362 L16.8878769,18.7877101 C16.8878769,19.2346377 16.9107231,19.6421449 16.9569231,20.0107246 C17.0026154,20.3793043 17.1066923,20.6976232 17.2676308,20.9656812 C17.4285692,21.2337391 17.6763231,21.4402029 18.0098769,21.5855652 C18.3434308,21.7309275 18.7866462,21.8033623 19.3390154,21.8033623 C19.6152,21.8033623 19.9776923,21.7752754 20.4264923,21.7195942 C20.8752923,21.663913 21.2149385,21.5353043 21.4449231,21.3342609 L21.4449231,25.5226667 C20.8697077,25.7237101 20.2711385,25.8577391 19.6497231,25.9247536 C19.0421942,25.9910099 18.4313517,26.0245685 17.82,26.0252754 C16.9452462,26.0252754 16.1395385,25.936087 15.4033846,25.7572174 C14.6672308,25.5783478 14.0224615,25.294029 13.4700923,24.9027826 C12.9177231,24.512029 12.4861846,24.0035072 12.1754769,23.3782029 C11.8647692,22.7524058 11.7094154,21.9935652 11.7094154,21.0997101 L11.7094154,13.3595362 L8.3952,13.3595362 L8.3952,9.33866667 L11.7094154,9.33866667 L11.7094154,4.51362319 L16.8878769,4.51362319 L16.8878769,9.33866667 L21.4449231,9.33866667 L21.4449231,13.3595362 Z M39.9492923,22.8085797 C39.1207385,23.835971 38.0733692,24.6293043 36.8076923,25.1875942 C35.5420154,25.7458841 34.2301385,26.0252754 32.8720615,26.0252754 C31.5830308,26.0252754 30.3691385,25.8242319 29.2298769,25.4221449 C28.0906154,25.020058 27.1011231,24.4450145 26.2608923,23.6965217 C25.4206615,22.948029 24.7591385,22.0492464 24.2758154,20.9991884 C23.7924923,19.9496232 23.5508308,18.7768696 23.5508308,17.4809275 C23.5508308,16.1849855 23.7924923,15.0122319 24.2758154,13.9626667 C24.7591385,12.9131014 25.4206615,12.0138261 26.2608923,11.2653333 C27.1011231,10.5168406 28.0906154,9.9417971 29.2298769,9.53971014 C30.3691385,9.13762319 31.5830308,8.93657971 32.8720615,8.93657971 C34.0686923,8.93657971 35.1566769,9.13762319 36.1344923,9.53971014 C37.1128154,9.9417971 37.9413692,10.5168406 38.6201538,11.2653333 C39.2989385,12.0138261 39.8228769,12.9126087 40.1909538,13.9626667 C40.5590308,15.0122319 40.7433231,16.1849855 40.7433231,17.4809275 L40.7433231,19.0557681 L28.7292923,19.0557681 C28.9364308,20.0166377 29.3852308,20.7813913 30.0756923,21.3510145 C30.7661538,21.9206377 31.6175538,22.2054493 32.6304,22.2054493 C33.4818,22.2054493 34.2012,22.0211594 34.7880923,21.6525797 C35.3861281,21.273716 35.9069506,20.7909376 36.3243692,20.2285217 L39.9492923,22.8085797 Z M35.5648615,15.638029 C35.5877077,14.7890145 35.3003538,14.0631884 34.7017846,13.460058 C34.1032154,12.8569275 33.3325385,12.5553623 32.3887385,12.5553623 C31.8135231,12.5553623 31.3073538,12.6445507 30.8697231,12.8234203 C30.4326,13.0022899 30.0584308,13.2309275 29.7477231,13.5103188 C29.4413436,13.7837366 29.1947877,14.1141999 29.0227385,14.482029 C28.8512545,14.8461452 28.7517156,15.2382683 28.7292923,15.638029 L35.5648615,15.638029 Z M43.8849231,9.33866667 L49.0633846,9.33866667 L49.0633846,11.9522319 L49.1324308,11.9522319 C49.6848,10.9470145 50.3407385,10.1931014 51.1002462,9.69049275 C51.8597538,9.18788406 52.8147231,8.93657971 53.9656615,8.93657971 C54.2652,8.93657971 54.5642308,8.94791304 54.8632615,8.97008696 C55.1628,8.99226087 55.4384769,9.03710145 55.6918154,9.10411594 L55.6918154,13.6946087 C55.3359622,13.5857752 54.972542,13.5017926 54.6043385,13.4433043 C54.2332398,13.3863753 53.858042,13.3583631 53.4823385,13.3595362 C52.4923385,13.3595362 51.7104923,13.4935652 51.1347692,13.7616232 C50.5595538,14.0296812 50.1163385,14.4036812 49.8056308,14.8841159 C49.4949231,15.3645507 49.2933692,15.9395942 49.2014769,16.6097391 C49.1053695,17.3431472 49.0592385,18.0819121 49.0633846,18.8212174 L49.0633846,25.6231884 L43.8849231,25.6231884 L43.8849231,9.33866667 Z M68.4653538,23.5792464 L68.3963077,23.5792464 C67.8210923,24.4504348 67.056,25.0757391 66.1005231,25.4556522 C65.1418674,25.8360771 64.1154332,26.0296307 63.0797538,26.0253473 C62.2974,26.0253473 61.5434769,25.9193333 60.8184923,25.7069565 C60.0935077,25.4950725 59.4548308,25.1762609 58.9024615,24.752 C58.3503466,24.3278799 57.902251,23.7899644 57.5905846,23.1771594 C57.2682,22.5513623 57.1072615,21.8255362 57.1072615,20.9991884 C57.1072615,20.0609855 57.2854615,19.2681449 57.6423692,18.6201739 C57.9904089,17.9820192 58.4868555,17.4313462 59.0923385,17.0118261 C59.7020769,16.5875652 60.3986308,16.257913 61.1809846,16.0233623 C61.9763163,15.7860727 62.7903269,15.6123719 63.6148615,15.504 C64.450543,15.3926584 65.2918488,15.3255447 66.1350462,15.3029565 C66.9752769,15.2807826 67.7520462,15.2694493 68.4653538,15.2694493 C68.4653538,14.376087 68.1373846,13.6665217 67.4814462,13.1417391 C66.8255077,12.6169565 66.0487385,12.3543188 65.1511385,12.3543188 C64.2997385,12.3543188 63.5229692,12.5272754 62.8208308,12.8736812 C62.1186923,13.220087 61.4916923,13.6946087 60.9393231,14.2977391 L58.1774769,11.5501449 C59.1441231,10.6789565 60.2717077,10.0255652 61.5607385,9.58997101 C62.8481352,9.15461688 64.2021175,8.9337051 65.5654154,8.93655201 C67.0844308,8.93655201 68.3328462,9.12086957 69.3111692,9.48944928 C70.2894923,9.85802899 71.0718462,10.3995652 71.6587385,11.1145507 C72.2456308,11.8290435 72.6538154,12.7061449 72.8843077,13.7448696 C73.1142923,14.7835942 73.2295385,15.9844348 73.2295385,17.3468986 L73.2295385,25.6231884 L68.4653538,25.6231884 L68.4653538,23.5792464 Z M68.4653538,18.4861449 L67.188,18.4861449 L66.8762769,18.4891014 C66.4908303,18.4976626 66.1055896,18.5134337 65.7207692,18.5364058 C65.1338769,18.569913 64.5698308,18.6645217 64.0291385,18.8212174 C63.4884462,18.9774203 63.0279692,19.211971 62.6482154,19.5248696 C62.2684615,19.8377681 62.0785846,20.2733623 62.0785846,20.8316522 C62.0785846,21.4347826 62.3430923,21.8812174 62.8726154,22.171942 C63.4021385,22.4626667 63.954,22.6075362 64.5297231,22.6075362 C65.0358923,22.6075362 65.5248,22.5405217 65.9969538,22.4064928 C66.44557,22.2829896 66.8709658,22.0906899 67.2570462,21.8368696 C67.6217501,21.5949242 67.9232008,21.2736593 68.1373846,20.8986667 C68.3556923,20.5192464 68.4653538,20.0723188 68.4653538,19.5583768 L68.4653538,18.4861449 Z M87.9018462,13.3595362 L83.3448,13.3595362 L83.3448,18.7877101 C83.3448,19.2346377 83.3676462,19.6421449 83.4138462,20.0107246 C83.4595385,20.3793043 83.5636154,20.6976232 83.7245538,20.9656812 C83.8854923,21.2337391 84.1332462,21.4402029 84.4668,21.5855652 C84.8003538,21.7309275 85.2435692,21.8033623 85.7959385,21.8033623 C86.0721231,21.8033623 86.4346154,21.7752754 86.8834154,21.7195942 C87.3322154,21.663913 87.6718615,21.5353043 87.9018462,21.3342609 L87.9018462,25.5226667 C87.3266308,25.7237101 86.7280615,25.8577391 86.1066462,25.9247536 C85.4991173,25.9910099 84.8882748,26.0245685 84.2769231,26.0252754 C83.4021692,26.0252754 82.5964615,25.936087 81.8603077,25.7572174 C81.1241538,25.5783478 80.4793846,25.294029 79.9270154,24.9027826 C79.3746462,24.512029 78.9431077,24.0035072 78.6324,23.3782029 C78.3216923,22.7524058 78.1663385,21.9935652 78.1663385,21.0997101 L78.1663385,13.3595362 L74.8521231,13.3595362 L74.8521231,9.33866667 L78.1663385,9.33866667 L78.1663385,4.51362319 L83.3448,4.51362319 L83.3448,9.33866667 L87.9018462,9.33866667 L87.9018462,13.3595362 Z M90.5946462,9.33866667 L95.7731077,9.33866667 L95.7731077,25.6231884 L90.5946462,25.6231884 L90.5946462,9.33866667 Z M90.1803692,4.21205797 C90.1803692,3.40788406 90.4738154,2.72098551 91.0607077,2.15136232 C91.6476,1.58173913 92.3553231,1.29692754 93.1838769,1.29692754 C94.0124308,1.29692754 94.7201538,1.58173913 95.3070462,2.15136232 C95.8939385,2.72098551 96.1873846,3.40788406 96.1873846,4.21205797 C96.1873846,5.01623188 95.8939385,5.70313043 95.3070462,6.27275362 C94.7201538,6.84237681 94.0124308,7.12718841 93.1838769,7.12718841 C92.3553231,7.12718841 91.6476,6.84237681 91.0607077,6.27275362 C90.4738154,5.70313043 90.1803692,5.01623188 90.1803692,4.21205797 L90.1803692,4.21205797 Z M97.7409231,9.33866667 L103.333662,9.33866667 L107.58,20.396058 L107.649046,20.396058 L111.584677,9.33866667 L116.797662,9.33866667 L110.169231,25.6231884 L104.680062,25.6231884 L97.7409231,9.33866667 Z M134.577046,22.8085797 C133.748492,23.835971 132.701123,24.6293043 131.435446,25.1875942 C130.169769,25.7458841 128.857892,26.0252754 127.499815,26.0252754 C126.210785,26.0252754 124.996892,25.8242319 123.857631,25.4221449 C122.718369,25.020058 121.728877,24.4450145 120.888646,23.6965217 C120.048415,22.948029 119.386892,22.0492464 118.903569,20.9991884 C118.420246,19.9496232 118.178585,18.7768696 118.178585,17.4809275 C118.178585,16.1849855 118.420246,15.0122319 118.903569,13.9626667 C119.386892,12.9131014 120.048415,12.0138261 120.888646,11.2653333 C121.728877,10.5168406 122.718369,9.9417971 123.857631,9.53971014 C124.996892,9.13762319 126.210785,8.93657971 127.499815,8.93657971 C128.696446,8.93657971 129.784431,9.13762319 130.762246,9.53971014 C131.740569,9.9417971 132.569123,10.5168406 133.247908,11.2653333 C133.926692,12.0138261 134.450631,12.9126087 134.818708,13.9626667 C135.186785,15.0122319 135.371077,16.1849855 135.371077,17.4809275 L135.371077,19.0557681 L123.357046,19.0557681 C123.564185,20.0166377 124.012985,20.7813913 124.703446,21.3510145 C125.393908,21.9206377 126.245308,22.2054493 127.258154,22.2054493 C128.109554,22.2054493 128.828954,22.0211594 129.415846,21.6525797 C130.013882,21.273716 130.534704,20.7909376 130.952123,20.2285217 L134.577046,22.8085797 Z M130.192615,15.638029 C130.215462,14.7890145 129.928108,14.0631884 129.329538,13.460058 C128.730969,12.8569275 127.960292,12.5553623 127.016492,12.5553623 C126.441277,12.5553623 125.935108,12.6445507 125.497477,12.8234203 C125.060354,13.0022899 124.686185,13.2309275 124.375477,13.5103188 C124.069097,13.7837366 123.822542,14.1141999 123.650492,14.482029 C123.479008,14.8461452 123.379469,15.2382683 123.357046,15.638029 L130.192615,15.638029 Z M138.581723,0.291710145 L143.760185,0.291710145 L143.760185,25.6231884 L138.581723,25.6231884 L138.581723,0.291710145 Z M164.750215,9.33866667 L157.155138,28.2702609 C156.848821,29.0518387 156.5149,29.822961 156.153969,30.5822609 C155.831585,31.2524058 155.422892,31.8166087 154.9284,32.2743768 C154.4334,32.7326377 153.8064,33.0785507 153.046892,33.3131014 C152.287385,33.5476522 151.286215,33.6649275 150.043385,33.6649275 C148.708154,33.6649275 147.419631,33.4638841 146.1768,33.0617971 L146.867262,28.9404058 C147.649615,29.2754783 148.455323,29.4430145 149.283877,29.4430145 C149.859092,29.4430145 150.331246,29.3814203 150.699323,29.2587246 C151.0674,29.1355362 151.372523,28.9571594 151.614185,28.7226087 C151.865598,28.4743568 152.070094,28.1851447 152.218338,27.8681739 L152.359477,27.5675942 C152.478785,27.3049565 152.604692,27.0147246 152.736185,26.6954203 L153.115938,25.7572174 L145.762523,9.33866667 L151.355262,9.33866667 L155.670646,20.0944928 L155.739692,20.0944928 L159.433662,9.33866667 L164.750215,9.33866667 Z" id="a"></path>
                                </g>
                            </g>
                        </g>
                    </g>
                </g>
            </g>
        </g>
    </g>
</svg>