<?xml version="1.0" encoding="UTF-8"?>
<svg width="140px" height="59px" viewBox="0 0 140 59" version="1.1" xmlns="http://www.w3.org/2000/svg" xmlns:xlink="http://www.w3.org/1999/xlink">
    <!-- Generator: Sketch 55.1 (78136) - https://sketchapp.com -->
    <title>global-logo</title>
    <desc>Created with Sketch.</desc>
    <g id="Landingpage---v2" stroke="none" stroke-width="1" fill="none" fill-rule="evenodd">
        <g id="ABM-Landing-Page---Media---Global" transform="translate(-425.000000, -792.000000)" fill="#5E5E5E">
            <g id="Group-5-Copy" transform="translate(359.000000, 720.000000)">
                <g id="global-logo" transform="translate(66.000000, 72.000000)">
                    <path d="M54.2875652,13.2832622 C46.4838992,13.2866141 40.1601725,19.6389697 40.1623976,27.4723768 C40.1646243,35.305784 46.49196,41.6545172 54.2956266,41.6534003 C62.0992932,41.6522837 68.4248261,35.3017394 68.4248261,27.468332 C68.4214876,19.6331525 62.092998,13.2832622 54.2875652,13.2832622 Z M59.3728673,32.5608752 C56.9517481,34.9967696 53.153398,35.3761065 50.3016182,33.466811 C47.4498384,31.5575152 46.3392875,27.8916189 47.6493914,24.7118887 C48.9594956,21.5321585 52.3251895,19.7246373 55.6873683,20.3951525 C59.049547,21.0656678 61.4713278,24.027378 61.4711004,27.468332 C61.4752155,29.3803855 60.7201129,31.2152665 59.3728673,32.5669451 L59.3728673,32.5608752 Z M85.1319482,13.2832622 C82.6039584,13.2779256 80.1216709,13.9595906 77.9484299,15.2559398 C77.9484299,10.806793 77.9484299,6.80680967 77.9484299,4.93731822 C77.9484299,-0.525481462 70.982594,0.0147287285 70.982594,0.0147287285 L70.982594,27.4744018 L70.982594,27.4744018 C70.9859384,35.3054369 77.3104944,41.6522772 85.1117986,41.6533902 C92.9131025,41.6545028 99.2394554,35.3094674 99.2450211,27.4784336 C99.2505791,19.6473999 92.9332459,13.2933156 85.1319482,13.2832622 Z M90.2112036,32.5608752 C87.7931361,34.9903083 84.0022139,35.3668934 81.1566797,33.4603396 C78.3111452,31.5537861 77.2034589,27.8950546 78.5109981,24.7215497 C79.8185372,21.5480448 83.1771617,19.7435641 86.5329903,20.411592 C89.8888186,21.0796199 92.3072775,24.0341154 92.3095088,27.468332 C92.3189462,29.3814499 91.5630191,31.2183341 90.2112036,32.5669451 L90.2112036,32.5608752 Z M115.940051,13.2771892 C109.981231,13.2749522 104.661345,17.0250923 102.640765,22.6522396 C100.620186,28.2793869 102.333177,34.5741566 106.923102,38.3886551 C111.513028,42.2031535 117.993425,42.7175698 123.123569,39.6746545 L123.123569,41.3499129 L130.071265,41.3499129 L130.071265,27.1466338 L130.071265,27.1466338 C129.903495,19.43458 123.624655,13.2720517 115.940051,13.2771892 L115.940051,13.2771892 Z M121.007213,32.5608752 C118.585251,34.9809538 114.797812,35.3473722 111.959991,33.4361556 C109.122171,31.5249389 108.023823,27.8680383 109.336319,24.7007567 C110.648816,21.5334749 114.006848,19.7373658 117.357798,20.4103119 C120.708748,21.0832581 123.119942,24.0379574 123.117524,27.468332 C123.113907,29.3806358 122.35245,31.2129119 121.001166,32.5608752 L121.007213,32.5608752 Z M27.8814837,27.6443556 C27.881036,24.8434684 27.0380083,22.1079961 25.4627908,19.7961334 C28.3470823,17.9752001 27.7907828,13.6535186 27.7907828,13.6535186 L13.9437651,13.6535186 C6.24283625,13.6535186 0,19.9201473 0,27.6504254 C0,35.3807034 6.24283625,41.6473319 13.9437651,41.6473322 L15.7577849,41.6473322 C18.0737317,41.6535186 20.1098805,43.1878138 20.7623853,45.4184177 C21.4148902,47.6490217 20.5283752,50.0447862 18.5834415,51.3069089 C16.6385079,52.5690315 14.0982882,52.3969727 12.3398974,50.8840095 C10.5815066,49.3710459 10.0236571,46.877449 10.9687727,44.7550581 L4.71645114,41.9083326 C2.17733617,47.6145144 4.36888723,54.3233837 9.78105881,57.412325 C15.1932304,60.5012662 22.0573168,58.9608088 25.6437532,53.8523747 C29.2301895,48.7439409 28.3669234,41.7369742 23.648771,37.6594884 C26.3507682,35.033003 27.8777679,31.419929 27.8814837,27.6443556 L27.8814837,27.6443556 Z M8.93102379,32.6701312 C6.91626093,30.6620328 6.29261001,27.6393889 7.34706962,24.9931931 C8.40152923,22.3469974 10.9298062,20.5899295 13.7684099,20.5305764 L14.3126158,20.5305764 C17.4611653,20.7056249 20.1149584,22.949619 20.8216632,26.0344959 C21.5283681,29.119373 20.1176519,32.3016035 17.3615522,33.8396597 C14.6054526,35.3777159 11.1682556,34.9008896 8.93102379,32.6701312 L8.93102379,32.6701312 Z M133.034164,0.190752274 L133.034164,41.6109133 L140,41.6109133 C140,41.6109133 140,10.5700717 140,5.107272 C140,-0.355527695 133.034164,0.190752274 133.034164,0.190752274 Z M30.5601863,0.190752274 L30.5601863,41.6109133 L37.5260223,41.6109133 L37.5260223,5.107272 C37.5260223,-0.361597473 30.5601863,0.190752274 30.5601863,0.190752274 Z" id="Shape"></path>
                </g>
            </g>
        </g>
    </g>
</svg>