<?xml version="1.0" encoding="UTF-8"?>
<svg width="258px" height="42px" viewBox="0 0 258 42" version="1.1" xmlns="http://www.w3.org/2000/svg" xmlns:xlink="http://www.w3.org/1999/xlink">
    <!-- Generator: Sketch 55.1 (78136) - https://sketchapp.com -->
    <title>Shape</title>
    <desc>Created with Sketch.</desc>
    <g id="Landingpage---v2" stroke="none" stroke-width="1" fill="none" fill-rule="evenodd">
        <g id="ABM-Landing-Page---Media---Telegraph" transform="translate(-425.000000, -792.000000)" fill="#2F2F2F" fill-rule="nonzero">
            <g id="Group-5-Copy" transform="translate(359.000000, 720.000000)">
                <g id="The_Telegraph_logo" transform="translate(66.000000, 72.000000)">
                    <path d="M33.2974359,38.4255319 C37.9282051,37.9787234 42.5589744,36.4148936 42.5589744,31.5 L42.5589744,15.6382979 L40.3538462,13.4042553 L37.9282051,15.6382979 L37.9282051,27.4787234 L39.9128205,29.2659574 L35.5025641,33.287234 L35.2820513,33.287234 L30.8717949,29.4893617 L31.974359,28.3723404 L31.974359,4.24468085 C31.974359,2.45744681 30.4307692,1.56382979 29.5487179,1.34042553 L29.5487179,0.893617021 C29.9897436,0.670212766 30.6512821,0.446808511 31.5333333,0.446808511 C33.0769231,0.446808511 34.4,1.34042553 34.8410256,2.45744681 L35.0615385,2.45744681 C35.9435897,1.11702128 37.4871795,0.446808511 38.8102564,0.446808511 C39.2512821,0.446808511 39.6923077,0.446808511 40.1333333,0.670212766 L40.1333333,1.11702128 C39.4717949,1.34042553 38.1487179,2.23404255 38.1487179,4.69148936 L38.1487179,14.7446809 L44.1025641,9.15957447 L44.5435897,9.15957447 C44.9846154,9.60638298 47.4102564,11.8404255 48.0717949,12.287234 C48.2923077,12.5106383 48.5128205,12.5106383 48.9538462,12.5106383 C49.3948718,12.5106383 49.8358974,12.287234 50.2769231,12.0638298 L50.2769231,12.7340426 C49.8358974,13.1808511 49.174359,13.8510638 49.174359,14.9680851 L49.174359,28.5957447 C49.174359,34.6276596 42.5589744,38.4255319 33.7384615,39.0957447 L33.7384615,38.4255319 L33.2974359,38.4255319 Z M31.0923077,1.11702128 C31.974359,1.78723404 32.8564103,2.45744681 32.8564103,4.0212766 L32.8564103,28.8191489 L31.974359,29.712766 L35.7230769,32.8404255 L36.825641,31.9468085 L33.9589744,29.4893617 L34.4,29.0425532 L34.4,4.24468085 C34.1794872,2.23404255 32.4153846,1.34042553 31.0923077,1.11702128 L31.0923077,1.11702128 Z M41.4564103,36.8617021 C43.2205128,35.7446809 44.9846154,34.4042553 44.9846154,31.7234043 L44.9846154,14.7446809 L42.3384615,11.8404255 L41.0153846,12.9574468 L43.2205128,15.4148936 L43.2205128,31.5 C43.4410256,33.7340426 42.5589744,35.5212766 41.4564103,36.8617021 Z M52.4820513,14.7446809 C55.1282051,13.4042553 58.8769231,11.1702128 61.5230769,9.15957447 L61.9641026,9.15957447 C63.7282051,10.9468085 66.1538462,13.8510638 68.3589744,15.8617021 L68.3589744,16.3085106 L58.6564103,22.5638298 L58.6564103,26.5851064 C59.5384615,27.2553191 62.4051282,28.5957447 64.1692308,29.2659574 L68.1384615,25.4680851 L68.5794872,25.9148936 L60.8615385,33.5106383 L60.4205128,33.5106383 C57.774359,32.393617 54.4666667,30.8297872 52.2615385,29.712766 C52.4820513,28.8191489 52.7025641,26.8085106 52.7025641,24.3510638 L52.7025641,14.7446809 L52.4820513,14.7446809 Z M61.5230769,31.9468085 C58.8769231,30.8297872 56.6717949,29.712766 54.4666667,28.5957447 C54.6871795,27.9255319 54.6871795,26.8085106 54.6871795,24.3510638 L54.6871795,14.2978723 L53.1435897,15.1914894 L53.1435897,24.3510638 C53.1435897,26.8085106 53.1435897,28.5957447 52.9230769,29.2659574 C54.9076923,30.3829787 57.774359,31.7234043 60.4205128,32.8404255 L61.5230769,31.9468085 Z M58.6564103,21.893617 L63.0666667,18.9893617 C61.5230769,17.2021277 59.9794872,15.4148936 58.6564103,14.0744681 L58.6564103,21.893617 Z M59.9794872,12.0638298 L58.8769231,12.9574468 C60.2,14.5212766 61.9641026,16.5319149 63.7282051,18.5425532 L65.0512821,17.6489362 C63.0666667,15.6382979 61.3025641,13.6276596 59.9794872,12.0638298 L59.9794872,12.0638298 Z M241.461538,38.4255319 C246.092308,37.9787234 250.723077,36.4148936 250.723077,31.5 L250.723077,15.6382979 L248.517949,13.4042553 L246.092308,15.6382979 L246.092308,27.4787234 L248.076923,29.2659574 L243.666667,33.287234 L243.225641,33.287234 L238.815385,29.4893617 L239.917949,28.3723404 L239.917949,4.24468085 C239.917949,2.45744681 238.374359,1.56382979 237.492308,1.34042553 L237.492308,0.893617021 C237.933333,0.670212766 238.594872,0.446808511 239.476923,0.446808511 C241.020513,0.446808511 242.34359,1.34042553 242.784615,2.45744681 L243.005128,2.45744681 C243.887179,1.11702128 245.430769,0.446808511 246.753846,0.446808511 C247.194872,0.446808511 247.635897,0.446808511 248.076923,0.670212766 L248.076923,1.11702128 C247.415385,1.34042553 246.092308,2.23404255 246.092308,4.69148936 L246.092308,14.7446809 L251.825641,9.15957447 L252.266667,9.15957447 C252.707692,9.60638298 255.133333,11.8404255 255.794872,12.287234 C256.015385,12.5106383 256.235897,12.5106383 256.676923,12.5106383 C257.117949,12.5106383 257.558974,12.287234 258,12.0638298 L258,12.9574468 C257.558974,13.4042553 256.897436,14.0744681 256.897436,15.1914894 L256.897436,28.5957447 C256.897436,34.6276596 250.282051,38.4255319 241.461538,39.0957447 L241.461538,38.4255319 Z M239.25641,1.11702128 C239.917949,1.56382979 241.020513,2.45744681 241.020513,4.0212766 L241.020513,28.5957447 L240.138462,29.4893617 L243.887179,32.6170213 L244.989744,31.7234043 L242.123077,29.2659574 L242.564103,28.8191489 L242.564103,4.24468085 C242.34359,2.23404255 240.579487,1.34042553 239.25641,1.11702128 L239.25641,1.11702128 Z M249.4,36.6382979 C251.164103,35.5212766 252.928205,34.1808511 252.928205,31.5 L252.928205,14.7446809 L250.282051,11.8404255 L249.179487,12.9574468 L251.384615,15.4148936 L251.384615,31.5 C251.605128,33.7340426 250.723077,35.5212766 249.4,36.6382979 L249.4,36.6382979 Z M109.594872,14.7446809 C112.241026,13.4042553 115.989744,11.1702128 118.635897,9.15957447 L119.076923,9.15957447 C120.841026,10.9468085 123.266667,13.8510638 125.251282,15.6382979 L125.251282,16.0851064 L115.769231,22.3404255 L115.769231,26.3617021 C116.871795,27.0319149 119.517949,28.3723404 121.282051,29.0425532 L125.251282,25.2446809 L125.692308,25.6914894 L117.974359,33.287234 L117.533333,33.287234 C114.887179,32.1702128 111.579487,30.606383 109.374359,29.4893617 C109.594872,28.5957447 109.815385,26.5851064 109.815385,24.1276596 L109.815385,14.7446809 L109.594872,14.7446809 Z M118.415385,31.9468085 C115.769231,30.8297872 113.564103,29.712766 111.358974,28.5957447 C111.579487,27.9255319 111.579487,26.8085106 111.579487,24.3510638 L111.579487,14.2978723 L110.25641,14.9680851 L110.25641,24.1276596 C110.25641,26.5851064 110.25641,28.3723404 110.035897,29.0425532 C112.020513,30.1595745 114.887179,31.5 117.533333,32.6170213 L118.415385,31.9468085 L118.415385,31.9468085 Z M115.769231,21.6702128 L120.179487,18.7659574 C118.635897,16.9787234 117.092308,15.1914894 115.769231,13.8510638 L115.769231,21.6702128 L115.769231,21.6702128 Z M117.092308,12.0638298 L115.769231,12.9574468 C117.092308,14.5212766 118.85641,16.5319149 120.620513,18.5425532 L121.94359,17.6489362 C120.179487,15.6382979 118.415385,13.6276596 117.092308,12.0638298 L117.092308,12.0638298 Z M134.071795,3.57446809 L134.071795,27.0319149 C134.071795,27.9255319 134.953846,29.0425532 135.835897,29.2659574 L137.158974,27.9255319 L137.6,28.3723404 L132.748718,33.5106383 L132.307692,33.5106383 C130.54359,33.0638298 127.897436,31.2765957 127.897436,28.3723404 L127.897436,6.4787234 L126.574359,5.13829787 L125.030769,6.70212766 L124.589744,6.25531915 L130.102564,0.446808511 L130.54359,0.446808511 L134.071795,3.57446809 L134.071795,3.57446809 Z M133.410256,31.7234043 C131.646154,31.2765957 129.882051,30.1595745 129.882051,27.7021277 L129.882051,5.58510638 L127.897436,3.57446809 L126.794872,4.69148936 L128.558974,6.25531915 L128.558974,28.3723404 C128.558974,30.8297872 130.54359,32.393617 132.307692,32.8404255 L133.410256,31.7234043 Z M139.805128,14.7446809 C142.451282,13.4042553 146.2,11.1702128 148.846154,9.15957447 L149.287179,9.15957447 C151.051282,10.9468085 153.476923,13.8510638 155.461538,15.6382979 L155.461538,16.0851064 L145.979487,22.3404255 L145.979487,26.3617021 C146.861538,27.0319149 149.728205,28.3723404 151.492308,29.0425532 L155.461538,25.2446809 L155.902564,25.6914894 L148.184615,33.287234 L147.74359,33.287234 C145.097436,32.1702128 141.789744,30.606383 139.584615,29.4893617 C139.805128,28.5957447 140.025641,26.5851064 140.025641,24.1276596 L140.025641,14.7446809 L139.805128,14.7446809 Z M148.625641,31.9468085 C145.979487,30.8297872 143.774359,29.712766 141.569231,28.5957447 C141.789744,27.9255319 141.789744,26.8085106 141.789744,24.3510638 L141.789744,14.2978723 L140.466667,14.9680851 L140.466667,24.1276596 C140.466667,26.5851064 140.466667,28.3723404 140.246154,29.0425532 C142.230769,30.1595745 145.097436,31.5 147.74359,32.6170213 L148.625641,31.9468085 L148.625641,31.9468085 Z M145.979487,21.6702128 L150.389744,18.7659574 C148.846154,16.9787234 147.302564,15.1914894 145.979487,13.8510638 L145.979487,21.6702128 L145.979487,21.6702128 Z M147.302564,12.0638298 L146.2,12.9574468 C147.523077,14.5212766 149.287179,16.5319149 151.051282,18.5425532 L152.153846,17.6489362 C150.389744,15.6382979 148.625641,13.6276596 147.302564,12.0638298 L147.302564,12.0638298 Z M186.553846,15.6382979 L186.553846,27.0319149 C186.553846,27.9255319 187.435897,29.0425532 188.317949,29.0425532 L189.641026,27.7021277 L190.082051,28.1489362 L185.230769,33.287234 L185.010256,33.287234 C183.246154,32.8404255 180.6,31.2765957 180.6,28.1489362 L180.6,15.1914894 L179.276923,13.8510638 L177.733333,15.1914894 L177.292308,14.7446809 L182.805128,9.15957447 L183.246154,9.15957447 L186.774359,12.7340426 L186.774359,14.7446809 L191.184615,9.38297872 L191.625641,9.38297872 C192.507692,10.2765957 193.830769,11.6170213 195.153846,12.5106383 L191.405128,16.9787234 C190.302564,16.0851064 188.979487,14.7446809 188.097436,14.0744681 L186.553846,15.6382979 L186.553846,15.6382979 Z M186.112821,31.7234043 C184.348718,31.2765957 182.584615,30.1595745 182.584615,27.7021277 L182.584615,14.2978723 L180.820513,12.287234 L179.717949,13.4042553 L181.261538,14.9680851 L181.261538,28.1489362 C181.261538,30.606383 183.246154,32.1702128 185.010256,32.6170213 L186.112821,31.7234043 L186.112821,31.7234043 Z M188.538462,13.6276596 C189.2,14.2978723 190.302564,15.4148936 191.184615,16.0851064 L192.066667,14.9680851 C191.184615,14.2978723 189.861538,12.9574468 189.2,12.5106383 L188.538462,13.6276596 L188.538462,13.6276596 Z M200.887179,33.5106383 L195.594872,29.9361702 L195.594872,22.787234 C196.917949,21.893617 199.784615,19.8829787 201.107692,18.9893617 C198.902564,17.8723404 197.138462,16.5319149 196.035897,14.9680851 L196.035897,14.5212766 C199.123077,12.7340426 201.548718,10.9468085 203.312821,9.15957447 L203.753846,9.15957447 C203.753846,9.15957447 210.369231,12.287234 210.589744,12.5106383 C211.030769,12.7340426 211.251282,12.7340426 211.471795,12.7340426 C211.912821,12.7340426 212.353846,12.5106383 212.794872,12.287234 L212.794872,12.9574468 C212.353846,13.4042553 211.692308,14.0744681 211.692308,14.9680851 L211.692308,26.8085106 C211.692308,28.1489362 212.794872,28.8191489 213.676923,29.0425532 L215,27.7021277 L215.441026,28.1489362 L210.589744,33.287234 L210.369231,33.287234 C208.384615,32.8404255 206.179487,30.8297872 205.958974,28.5957447 L201.328205,33.287234 L200.887179,33.287234 L200.887179,33.5106383 Z M201.989744,31.7234043 L197.579487,28.8191489 L197.579487,22.1170213 L196.25641,23.0106383 L196.25641,29.4893617 L201.107692,32.6170213 L201.989744,31.7234043 L201.989744,31.7234043 Z M205.738462,20.106383 L205.738462,16.5319149 L199.34359,13.1808511 C198.902564,13.6276596 197.138462,14.5212766 196.697436,14.9680851 C198.241026,16.7553191 202.210256,19.212766 205.738462,20.106383 L205.738462,20.106383 Z M211.471795,31.7234043 C209.707692,31.0531915 207.94359,29.9361702 207.94359,27.4787234 L207.94359,15.1914894 L201.328205,11.8404255 C201.107692,12.0638298 200.446154,12.5106383 200.225641,12.7340426 L206.620513,16.0851064 L206.620513,28.1489362 C206.620513,30.3829787 208.825641,32.1702128 210.369231,32.8404255 L211.471795,31.7234043 L211.471795,31.7234043 Z M205.738462,27.9255319 L205.738462,20.7765957 C204.415385,20.3297872 202.871795,19.8829787 201.548718,19.212766 L201.548718,28.1489362 L203.974359,29.712766 L205.738462,27.9255319 L205.738462,27.9255319 Z M157.887179,29.712766 L157.887179,14.7446809 L165.825641,9.15957447 L166.266667,9.15957447 C167.810256,9.82978723 172.882051,12.0638298 173.323077,12.287234 C173.54359,12.287234 173.764103,12.5106383 174.205128,12.5106383 C174.646154,12.5106383 175.087179,12.287234 175.748718,12.0638298 L175.748718,12.9574468 C175.307692,13.4042553 174.646154,14.2978723 174.646154,14.9680851 L174.646154,27.7021277 C174.646154,30.606383 175.307692,32.393617 176.410256,33.5106383 L176.410256,33.9574468 C174.646154,35.7446809 170.676923,39.9893617 168.912821,42 L168.692308,42 C166.928205,41.106383 164.061538,40.212766 161.85641,40.212766 C160.092308,40.212766 158.107692,40.6595745 156.784615,41.7765957 L156.34359,41.5531915 C157.666667,38.4255319 160.533333,35.0744681 164.282051,35.0744681 C166.487179,35.0744681 169.574359,35.9680851 172.220513,37.5319149 C170.45641,35.5212766 168.912821,31.7234043 168.912821,28.8191489 L164.282051,33.287234 L163.841026,33.287234 L157.887179,29.712766 L157.887179,29.712766 Z M161.635897,38.4255319 C159.871795,38.4255319 158.328205,39.3191489 157.446154,40.4361702 L157.446154,40.6595745 C158.548718,39.9893617 159.651282,39.7659574 161.635897,39.7659574 C163.841026,39.7659574 166.928205,40.4361702 168.471795,41.3297872 L169.353846,40.212766 C167.369231,39.3191489 164.502564,38.4255319 161.635897,38.4255319 L161.635897,38.4255319 Z M163.4,32.8404255 L164.502564,31.9468085 L159.871795,28.5957447 L159.871795,14.2978723 L158.548718,15.1914894 L158.548718,29.4893617 L163.4,32.8404255 L163.4,32.8404255 Z M170.45641,14.2978723 L163.841026,11.6170213 L163.841026,12.9574468 L168.912821,15.1914894 L168.912821,28.5957447 C168.912821,31.5 170.235897,34.6276596 172.220513,37.0851064 L173.323077,35.9680851 C171.558974,33.7340426 170.45641,31.2765957 170.45641,28.3723404 L170.45641,14.2978723 Z M168.471795,27.9255319 L168.471795,15.6382979 L164.061538,13.6276596 L164.061538,27.7021277 L166.928205,29.4893617 L168.471795,27.9255319 L168.471795,27.9255319 Z M224.923077,14.7446809 L230.65641,9.15957447 L231.097436,9.15957447 C231.538462,9.60638298 234.184615,12.0638298 234.625641,12.287234 C234.846154,12.5106383 235.066667,12.5106383 235.287179,12.5106383 C235.728205,12.5106383 236.169231,12.287234 236.610256,12.0638298 L236.610256,12.9574468 C236.169231,13.4042553 235.507692,14.2978723 235.507692,15.1914894 L235.507692,29.4893617 C233.082051,30.1595745 231.097436,31.5 228.892308,33.9574468 L228.671795,33.9574468 L224.923077,33.0638298 L224.923077,36.1914894 L226.907692,37.9787234 L222.276923,42 L222.05641,42 L217.646154,38.2021277 L218.748718,36.8617021 L218.748718,31.5 C218.307692,31.5 217.425641,31.2765957 216.984615,31.0531915 L216.984615,30.3829787 C217.425641,30.1595745 218.969231,28.8191489 218.969231,27.7021277 L218.969231,15.4148936 L217.646154,14.0744681 L216.102564,15.6382979 L215.661538,15.1914894 L221.174359,9.60638298 L221.615385,9.60638298 L225.14359,13.1808511 L225.14359,14.7446809 L224.923077,14.7446809 Z M219.410256,37.3085106 L218.528205,38.2021277 L222.05641,41.3297872 L223.158974,40.4361702 L220.292308,37.9787234 L220.733333,37.5319149 L220.733333,14.2978723 L218.748718,12.287234 L217.866667,13.1808511 L219.410256,14.7446809 L219.410256,37.3085106 L219.410256,37.3085106 Z M229.333333,28.5957447 L229.333333,15.6382979 L227.128205,13.4042553 L224.702564,15.6382979 L224.702564,27.4787234 C225.805128,27.9255319 228.892308,28.3723404 229.333333,28.5957447 L229.333333,28.5957447 Z M228.671795,33.287234 C228.892308,32.8404255 229.333333,32.393617 229.553846,32.1702128 L224.702564,31.2765957 L224.702564,32.6170213 L228.671795,33.287234 Z M227.569231,13.1808511 L229.994872,15.6382979 L229.994872,28.5957447 L231.317949,27.9255319 L231.317949,14.7446809 L228.671795,12.0638298 L227.569231,13.1808511 L227.569231,13.1808511 Z M1.76410256,20.3297872 C1.76410256,14.5212766 5.95384615,10.7234043 9.92307692,8.93617021 L10.1435897,9.38297872 C8.82051282,10.9468085 7.93846154,12.5106383 7.93846154,16.0851064 C7.93846154,20.106383 9.04102564,22.787234 10.5846154,24.5744681 C11.025641,23.9042553 11.4666667,23.0106383 11.4666667,22.1170213 L11.4666667,16.3085106 L18.5230769,11.1702128 L18.7435897,11.6170213 C18.3025641,12.287234 17.8615385,13.1808511 17.8615385,14.5212766 L17.8615385,18.3191489 C17.8615385,21 13.6717949,23.9042553 11.025641,24.7978723 C12.7897436,26.5851064 15.2153846,27.2553191 17.8615385,27.2553191 C18.7435897,27.2553191 19.625641,27.2553191 20.5076923,27.0319149 L20.5076923,10.7234043 C18.0820513,10.5 15.8769231,10.0531915 13.8923077,9.38297872 C11.6871795,8.71276596 9.48205128,8.04255319 7.71794872,8.04255319 C4.85128205,8.04255319 1.32307692,8.93617021 1.32307692,13.1808511 L1.32307692,14.5212766 L0.661538462,14.7446809 C0.220512821,13.4042553 0,12.0638298 0,10.9468085 C0,5.80851064 3.74871795,1.34042553 9.7025641,1.34042553 C12.1282051,1.34042553 14.5538462,2.0106383 16.7589744,2.68085106 C18.9641026,3.35106383 21.1692308,4.0212766 23.374359,4.0212766 C24.4769231,4.0212766 25.1384615,3.35106383 25.1384615,2.23404255 C25.1384615,1.11702128 24.6974359,0.670212766 23.8153846,0.446808511 L23.8153846,0 C26.4615385,0.446808511 29.1076923,2.0106383 29.1076923,5.36170213 C29.3282051,8.71276596 26.4615385,10.7234043 21.6102564,10.7234043 L21.1692308,10.7234043 L21.1692308,27.2553191 C24.2564103,26.5851064 26.4615385,25.2446809 28.0051282,22.5638298 L28.4461538,22.787234 C26.6820513,28.3723404 22.4923077,33.7340426 15.2153846,33.7340426 C7.93846154,33.7340426 1.76410256,29.2659574 1.76410256,20.3297872 L1.76410256,20.3297872 Z M21.6102564,8.71276596 C16.3179487,8.71276596 11.4666667,6.03191489 7.71794872,6.03191489 C5.07179487,6.03191489 2.20512821,7.14893617 1.32307692,10.0531915 L1.54358974,10.0531915 C2.64615385,8.04255319 5.29230769,7.37234043 7.71794872,7.37234043 C11.6871795,7.37234043 16.3179487,10.0531915 21.6102564,10.0531915 C25.8,10.0531915 28.4461538,8.4893617 28.6666667,5.13829787 L28.4461538,5.13829787 C28.0051282,7.81914894 25.8,8.71276596 21.6102564,8.71276596 L21.6102564,8.71276596 Z M6.39487179,12.0638298 C4.41025641,14.0744681 2.64615385,16.7553191 2.64615385,20.3297872 C2.64615385,28.8191489 8.15897436,33.0638298 15.4358974,33.0638298 C19.8461538,33.0638298 22.9333333,30.606383 24.6974359,28.8191489 L24.4769231,28.5957447 C22.4923077,30.3829787 19.625641,31.7234043 15.2153846,31.7234043 C9.48205128,31.7234043 3.96923077,28.1489362 3.96923077,20.3297872 C3.96923077,17.2021277 5.07179487,14.0744681 6.39487179,12.0638298 Z M13.4512821,21.6702128 L13.4512821,15.4148936 L12.1282051,16.5319149 L12.1282051,22.3404255 C12.1282051,23.0106383 11.9076923,23.4574468 11.9076923,23.9042553 L12.1282051,23.9042553 C12.7897436,23.2340426 13.4512821,22.5638298 13.4512821,21.6702128 L13.4512821,21.6702128 Z M80.2666667,20.3297872 C80.2666667,14.5212766 84.4564103,10.7234043 88.425641,8.93617021 L88.6461538,9.38297872 C87.1025641,11.1702128 86.2205128,12.7340426 86.2205128,16.0851064 C86.2205128,20.106383 87.3230769,22.787234 88.8666667,24.5744681 C89.3076923,23.9042553 89.7487179,23.0106383 89.7487179,22.1170213 L89.7487179,16.3085106 L97.025641,10.9468085 L97.2461538,11.393617 C96.5846154,12.287234 96.3641026,13.1808511 96.3641026,14.5212766 L96.3641026,18.3191489 C96.3641026,21 92.174359,23.9042553 89.5282051,24.7978723 C91.2923077,26.5851064 93.7179487,27.2553191 96.3641026,27.2553191 C97.2461538,27.2553191 98.1282051,27.2553191 99.0102564,27.0319149 L99.0102564,10.7234043 C96.5846154,10.5 94.3794872,10.0531915 92.3948718,9.38297872 C90.1897436,8.71276596 87.9846154,8.04255319 86.2205128,8.04255319 C83.3538462,8.04255319 79.825641,8.93617021 79.825641,13.1808511 L79.825641,14.5212766 L79.3846154,14.7446809 C78.9435897,13.4042553 78.7230769,12.0638298 78.7230769,10.9468085 C78.7230769,5.80851064 82.4717949,1.34042553 88.425641,1.34042553 C90.8512821,1.34042553 93.2769231,2.0106383 95.4820513,2.68085106 C97.6871795,3.35106383 99.8923077,4.0212766 102.097436,4.0212766 C103.2,4.0212766 103.861538,3.35106383 103.861538,2.23404255 C103.861538,1.11702128 103.420513,0.670212766 102.538462,0.446808511 L102.538462,0 C105.184615,0.446808511 107.830769,2.0106383 107.830769,5.36170213 C107.830769,9.38297872 104.964103,11.1702128 100.112821,11.1702128 L99.6717949,11.1702128 L99.6717949,27.7021277 C102.758974,27.0319149 104.964103,25.6914894 106.507692,23.0106383 L106.948718,23.2340426 C105.184615,28.8191489 100.994872,34.1808511 93.7179487,34.1808511 C86.4410256,33.7340426 80.2666667,29.2659574 80.2666667,20.3297872 L80.2666667,20.3297872 Z M100.112821,8.71276596 C94.8205128,8.71276596 89.9692308,6.03191489 86.2205128,6.03191489 C83.7948718,6.03191489 80.9282051,7.14893617 79.825641,10.0531915 L80.0461538,10.0531915 C81.1487179,8.04255319 83.7948718,7.37234043 86.2205128,7.37234043 C90.1897436,7.37234043 94.8205128,10.0531915 100.112821,10.0531915 C104.302564,10.0531915 106.948718,8.4893617 107.169231,5.13829787 L106.948718,5.13829787 C106.287179,7.81914894 104.302564,8.71276596 100.112821,8.71276596 L100.112821,8.71276596 Z M84.8974359,12.0638298 C82.9128205,14.0744681 81.1487179,16.7553191 81.1487179,20.3297872 C81.1487179,28.8191489 86.6615385,33.0638298 93.9384615,33.0638298 C98.3487179,33.0638298 101.435897,30.606383 103.2,28.8191489 L102.979487,28.5957447 C100.994872,30.3829787 98.1282051,31.7234043 93.7179487,31.7234043 C87.9846154,31.7234043 82.4717949,28.1489362 82.4717949,20.3297872 C82.4717949,17.2021277 83.574359,14.0744681 84.8974359,12.0638298 L84.8974359,12.0638298 Z M91.9538462,21.6702128 L91.9538462,15.4148936 L90.6307692,16.3085106 L90.6307692,22.1170213 C90.6307692,22.787234 90.4102564,23.2340426 90.4102564,23.6808511 L90.6307692,23.6808511 C91.2923077,23.2340426 91.9538462,22.5638298 91.9538462,21.6702128 L91.9538462,21.6702128 Z" id="Shape"></path>
                </g>
            </g>
        </g>
    </g>
</svg>