<svg xmlns="http://www.w3.org/2000/svg" viewBox="0 0 521.57 439.37"><defs><style>.cls-1{fill:none;stroke:#6738b8;stroke-linecap:round;stroke-linejoin:round;stroke-width:2.5px;}.cls-2,.cls-4{fill:#fff;}.cls-2,.cls-3,.cls-5,.cls-6,.cls-9{isolation:isolate;}.cls-10,.cls-3{fill:#9e62dd;}.cls-3,.cls-5,.cls-7,.cls-9{opacity:0.2;}.cls-5,.cls-8{fill:#f88298;}.cls-11{fill:#bddef4;}</style></defs><title>spw-mobile4 copy 2</title><g id="TRAVEL"><g id="spw-travel4"><path class="cls-1" d="M229.36,413.27c9.37,0,16.94-8.68,17-19.34V117.57c0-10.66-7.59-19.3-17-19.34h-140c-9.37,0-17,8.68-17,19.34V394c0,10.65,7.61,19.29,17,19.33Z"/><line class="cls-1" x1="72.41" y1="379.14" x2="246.3" y2="379.14"/><line class="cls-1" x1="72.41" y1="118.48" x2="246.3" y2="118.48"/><path class="cls-1" d="M159.35,404.07a7.91,7.91,0,1,1,7.91-7.91v0a7.89,7.89,0,0,1-7.89,7.89Z"/><line class="cls-1" x1="169.03" y1="108.51" x2="149.7" y2="108.51"/><line class="cls-1" x1="231.52" y1="132.84" x2="219.38" y2="132.84"/><line class="cls-1" x1="231.52" y1="141.04" x2="219.38" y2="141.04"/><path class="cls-1" d="M434.27,413.31c9.35,0,16.94-8.68,17-19.34V117.61c0-10.66-7.59-19.29-17-19.34h-140c-9.36,0-16.94,8.68-17,19.34V394c0,10.66,7.6,19.3,17,19.34Z"/><line class="cls-1" x1="277.34" y1="379.16" x2="451.23" y2="379.16"/><line class="cls-1" x1="277.34" y1="118.52" x2="451.23" y2="118.52"/><path class="cls-1" d="M364.29,404.11a7.91,7.91,0,1,1,7.88-7.93v0A7.9,7.9,0,0,1,364.29,404.11Z"/><line class="cls-1" x1="373.94" y1="108.56" x2="354.61" y2="108.56"/><path class="cls-2" d="M91.89,146.75a15.42,15.42,0,0,0,12-6.86l19.48-33.75a15.48,15.48,0,0,0,0-13.91L103.94,58.42a15.47,15.47,0,0,0-12-7h-39a15.44,15.44,0,0,0-12.05,7L21.4,92.14a15.4,15.4,0,0,0,0,13.9l19.47,33.85a15.42,15.42,0,0,0,12.05,7Z"/><path class="cls-3" d="M91.89,146.75a15.42,15.42,0,0,0,12-6.86l19.48-33.75a15.48,15.48,0,0,0,0-13.91L103.94,58.42a15.47,15.47,0,0,0-12-7h-39a15.44,15.44,0,0,0-12.05,7L21.4,92.14a15.4,15.4,0,0,0,0,13.9l19.47,33.85a15.42,15.42,0,0,0,12.05,7Z"/><path class="cls-4" d="M51.1,120a1.28,1.28,0,0,1-.4-.94l.13-.74,17-43.74a2,2,0,0,1,2-1.35h2.29a2,2,0,0,1,2,1.35l17,43.74.14.74a1.4,1.4,0,0,1-1.35,1.35H88.57a1.4,1.4,0,0,1-1-.34,2,2,0,0,1-.51-.67l-4.18-10.79H59.06l-4.18,10.79a2,2,0,0,1-.51.67,1.4,1.4,0,0,1-1,.34H52.05A1.31,1.31,0,0,1,51.1,120Zm9.57-15.43H81.29L71,78Z"/><path class="cls-2" d="M470.72,146.75a15.44,15.44,0,0,0,12-6.86l19.47-33.75a15.42,15.42,0,0,0,0-13.91L482.77,58.42a15.47,15.47,0,0,0-12-7h-39a15.44,15.44,0,0,0-12.05,7L400.22,92.14a15.46,15.46,0,0,0,0,13.9l19.48,33.85a15.4,15.4,0,0,0,12.05,7Z"/><path class="cls-5" d="M470.72,146.75a15.44,15.44,0,0,0,12-6.86l19.47-33.75a15.42,15.42,0,0,0,0-13.91L482.77,58.42a15.47,15.47,0,0,0-12-7h-39a15.44,15.44,0,0,0-12.05,7L400.22,92.14a15.46,15.46,0,0,0,0,13.9l19.48,33.85a15.4,15.4,0,0,0,12.05,7Z"/><g class="cls-6"><path class="cls-4" d="M436.51,120a1.5,1.5,0,0,1-.4-1.08V74.79a1.62,1.62,0,0,1,.4-1.11,1.41,1.41,0,0,1,1.08-.44h17.59q6.68,0,10.11,3.44a11.71,11.71,0,0,1,3.44,8.63A11.28,11.28,0,0,1,467,91.84a10.53,10.53,0,0,1-4.17,3.71,12.78,12.78,0,0,1,4.88,4.51,12.48,12.48,0,0,1,2,7,13.63,13.63,0,0,1-1.65,6.57,12.45,12.45,0,0,1-4.82,4.92,14.65,14.65,0,0,1-7.55,1.86H437.59A1.46,1.46,0,0,1,436.51,120ZM454.3,93.73q5,0,7.59-2.19a7.7,7.7,0,0,0,2.59-6.23,7.14,7.14,0,0,0-2.59-6q-2.59-2-7.59-2H440.36V93.73Zm.68,22.64q4.92,0,7.68-2.59a9.57,9.57,0,0,0,0-13.45c-1.84-1.7-4.4-2.56-7.68-2.56H440.36v18.6Z"/></g><g id="_Group_6" data-name=" Group 6" class="cls-7"><path class="cls-8" d="M387.16,64.62a5.08,5.08,0,0,1,0-4.56l3-5.26a5.07,5.07,0,0,1,3.94-2.26h6.05a5,5,0,0,1,3.94,2.26l3,5.26a5.08,5.08,0,0,1,0,4.56l-3,5.23a5,5,0,0,1-3.94,2.27h-6.05a5,5,0,0,1-3.94-2.27Z"/></g><g id="_Group_6-2" data-name=" Group 6" class="cls-9"><path class="cls-10" d="M132.52,80.07a5.08,5.08,0,0,1,0-4.56l3-5.26A5.06,5.06,0,0,1,139.5,68h6.05a5.06,5.06,0,0,1,3.94,2.27l3,5.26a5.08,5.08,0,0,1,0,4.56l-3,5.23a5,5,0,0,1-3.94,2.27H139.5a5,5,0,0,1-3.94-2.27Z"/></g><g id="_Group_6-3" data-name=" Group 6" class="cls-7"><path class="cls-11" d="M369.17,42.92a3.33,3.33,0,0,1,0-3l2-3.47a3.33,3.33,0,0,1,2.6-1.5h4a3.31,3.31,0,0,1,2.6,1.5l2,3.47a3.33,3.33,0,0,1,0,3l-2,3.45a3.31,3.31,0,0,1-2.6,1.5h-4a3.33,3.33,0,0,1-2.6-1.5Z"/></g><g id="_Group_6-4" data-name=" Group 6" class="cls-9"><path class="cls-10" d="M45.83,164a3.33,3.33,0,0,1,0-3l2-3.47a3.32,3.32,0,0,1,2.59-1.5h4a3.32,3.32,0,0,1,2.6,1.5L59,161a3.33,3.33,0,0,1,0,3l-2,3.46a3.31,3.31,0,0,1-2.6,1.49h-4a3.31,3.31,0,0,1-2.59-1.49Z"/></g><g id="_Group_6-5" data-name=" Group 6" class="cls-7"><path class="cls-11" d="M73.19,34a3.39,3.39,0,0,1,0-3l2-3.47A3.35,3.35,0,0,1,77.8,26h4a3.35,3.35,0,0,1,2.6,1.5l2,3.47a3.33,3.33,0,0,1,0,3l-2,3.46A3.34,3.34,0,0,1,81.8,39h-4a3.34,3.34,0,0,1-2.6-1.49Z"/></g><g id="_Group_6-6" data-name=" Group 6" class="cls-7"><path class="cls-11" d="M171.61,55.85a3.39,3.39,0,0,1,0-3l2-3.47a3.35,3.35,0,0,1,2.6-1.5h4a3.35,3.35,0,0,1,2.6,1.5l2,3.47a3.39,3.39,0,0,1,0,3l-2,3.46a3.34,3.34,0,0,1-2.6,1.49h-4a3.34,3.34,0,0,1-2.6-1.49Z"/></g><g id="_Group_6-7" data-name=" Group 6" class="cls-7"><path class="cls-11" d="M18,192.47a3.33,3.33,0,0,1,0-3L20,186a3.35,3.35,0,0,1,2.6-1.5h4a3.34,3.34,0,0,1,2.6,1.5l2,3.47a3.33,3.33,0,0,1,0,3l-2,3.46a3.33,3.33,0,0,1-2.6,1.49h-4a3.34,3.34,0,0,1-2.6-1.49Z"/></g><g id="_Group_6-8" data-name=" Group 6" class="cls-7"><path class="cls-11" d="M490.33,145.16a3.33,3.33,0,0,1,0-3l2-3.47a3.35,3.35,0,0,1,2.6-1.5h4a3.34,3.34,0,0,1,2.6,1.5l2,3.47a3.33,3.33,0,0,1,0,3l-2,3.46a3.33,3.33,0,0,1-2.6,1.49h-4a3.34,3.34,0,0,1-2.6-1.49Z"/></g><g id="_Group_6-9" data-name=" Group 6" class="cls-7"><path class="cls-11" d="M328.49,79.29a3.39,3.39,0,0,1,0-3l2-3.47a3.33,3.33,0,0,1,2.6-1.5h4a3.33,3.33,0,0,1,2.6,1.5l2,3.47a3.39,3.39,0,0,1,0,3l-2,3.45a3.33,3.33,0,0,1-2.6,1.5h-4a3.33,3.33,0,0,1-2.6-1.5Z"/></g><g id="_Group_6-10" data-name=" Group 6" class="cls-7"><path class="cls-8" d="M469,180a3.39,3.39,0,0,1,0-3l2-3.48a3.34,3.34,0,0,1,2.6-1.49h4a3.34,3.34,0,0,1,2.6,1.49l2,3.48a3.39,3.39,0,0,1,0,3l-2,3.45a3.35,3.35,0,0,1-2.6,1.5h-4a3.35,3.35,0,0,1-2.6-1.5Z"/></g><rect class="cls-3" x="87.21" y="156.97" width="144.31" height="91.15"/><circle class="cls-10" cx="158.52" cy="237.84" r="3.39"/><circle class="cls-4" cx="168.72" cy="237.84" r="3.39"/><line class="cls-1" x1="394.27" y1="263.94" x2="302.71" y2="263.94"/><line class="cls-1" x1="411.78" y1="277.53" x2="302.71" y2="277.53"/><line class="cls-1" x1="405.08" y1="291.12" x2="302.71" y2="291.12"/><line class="cls-1" x1="379.25" y1="304.71" x2="302.71" y2="304.71"/><rect class="cls-8" x="300.96" y="320.8" width="120.17" height="33.52" rx="5.43"/><rect class="cls-5" x="292.13" y="156.97" width="144.31" height="91.15"/><circle class="cls-8" cx="363.45" cy="237.84" r="3.39"/><circle class="cls-4" cx="373.64" cy="237.84" r="3.39"/><g class="cls-6"><path class="cls-4" d="M314.55,344.33a.46.46,0,0,1-.14-.34V331a.52.52,0,0,1,.13-.36.47.47,0,0,1,.35-.14h5.18a5.91,5.91,0,0,1,3.85,1.14,3.94,3.94,0,0,1,1.39,3.24,4.15,4.15,0,0,1-.7,2.46,3.87,3.87,0,0,1-2,1.42l2.9,5.1a.53.53,0,0,1,.06.23.36.36,0,0,1-.13.29.42.42,0,0,1-.29.12h-1.84a.71.71,0,0,1-.5-.15,1.26,1.26,0,0,1-.32-.39L320,339.19h-2.74V344a.46.46,0,0,1-.14.34.45.45,0,0,1-.36.14h-1.84A.44.44,0,0,1,314.55,344.33Zm5.46-7.42a2.67,2.67,0,0,0,1.8-.52,2.33,2.33,0,0,0,0-3.12,2.57,2.57,0,0,0-1.8-.55h-2.78v4.19Z"/><path class="cls-4" d="M329,344.33a.46.46,0,0,1-.14-.34V331a.52.52,0,0,1,.13-.36.47.47,0,0,1,.35-.14h8.82a.49.49,0,0,1,.36.14.52.52,0,0,1,.14.36v1.34a.45.45,0,0,1-.14.35.48.48,0,0,1-.36.13h-6.56v3.5h6.12a.49.49,0,0,1,.36.14.52.52,0,0,1,.14.36v1.27a.44.44,0,0,1-.14.34.48.48,0,0,1-.36.13h-6.12v3.62h6.72a.53.53,0,0,1,.36.13.49.49,0,0,1,.14.36V344a.49.49,0,0,1-.14.36.52.52,0,0,1-.36.12h-9A.44.44,0,0,1,329,344.33Z"/><path class="cls-4" d="M344.15,344.14a4.74,4.74,0,0,1-1.94-1.42,3.4,3.4,0,0,1-.7-1.93.44.44,0,0,1,.12-.29.42.42,0,0,1,.3-.13h1.82a.64.64,0,0,1,.36.1,1.41,1.41,0,0,1,.26.28,2,2,0,0,0,.91,1.14,3.52,3.52,0,0,0,2,.46,3.89,3.89,0,0,0,2.11-.46,1.49,1.49,0,0,0,.71-1.29,1.23,1.23,0,0,0-.36-.91,3,3,0,0,0-1.09-.63c-.49-.17-1.21-.39-2.17-.65a8.38,8.38,0,0,1-3.46-1.48,3.25,3.25,0,0,1-1.1-2.64,3.5,3.5,0,0,1,.64-2.07,4.37,4.37,0,0,1,1.83-1.43,7,7,0,0,1,2.77-.52,6.68,6.68,0,0,1,2.87.58,4.67,4.67,0,0,1,1.84,1.46,3.21,3.21,0,0,1,.67,1.72.4.4,0,0,1-.12.29.38.38,0,0,1-.3.13h-1.9a.61.61,0,0,1-.6-.35,1.58,1.58,0,0,0-.78-1.08,3.12,3.12,0,0,0-1.68-.42,3,3,0,0,0-1.73.42,1.47,1.47,0,0,0-.31,2.12,2.87,2.87,0,0,0,1,.63,18.87,18.87,0,0,0,2,.6,14.15,14.15,0,0,1,2.83.9,3.77,3.77,0,0,1,1.55,1.26,3.52,3.52,0,0,1,.5,1.94,3.66,3.66,0,0,1-.71,2.25,4.41,4.41,0,0,1-2,1.46,8.33,8.33,0,0,1-3,.5A8.08,8.08,0,0,1,344.15,344.14Z"/><path class="cls-4" d="M356.35,344.33a.46.46,0,0,1-.14-.34V331a.52.52,0,0,1,.13-.36.47.47,0,0,1,.35-.14h8.82a.49.49,0,0,1,.36.14.52.52,0,0,1,.14.36v1.34a.45.45,0,0,1-.14.35.48.48,0,0,1-.36.13H359v3.5h6.12a.49.49,0,0,1,.36.14.52.52,0,0,1,.14.36v1.27a.44.44,0,0,1-.14.34.48.48,0,0,1-.36.13H359v3.62h6.72a.53.53,0,0,1,.36.13.49.49,0,0,1,.14.36V344a.49.49,0,0,1-.14.36.52.52,0,0,1-.36.12h-9A.44.44,0,0,1,356.35,344.33Z"/><path class="cls-4" d="M369.81,344.33a.46.46,0,0,1-.14-.34V331a.52.52,0,0,1,.13-.36.47.47,0,0,1,.35-.14h5.18a5.91,5.91,0,0,1,3.85,1.14,4,4,0,0,1,1.39,3.24,4.15,4.15,0,0,1-.7,2.46,3.87,3.87,0,0,1-2,1.42l2.9,5.1a.53.53,0,0,1,.06.23.36.36,0,0,1-.13.29.42.42,0,0,1-.29.12h-1.84a.71.71,0,0,1-.5-.15,1.26,1.26,0,0,1-.32-.39l-2.56-4.74h-2.74V344a.46.46,0,0,1-.14.34.45.45,0,0,1-.36.14h-1.84A.44.44,0,0,1,369.81,344.33Zm5.46-7.42a2.67,2.67,0,0,0,1.8-.52,2.33,2.33,0,0,0,0-3.12,2.57,2.57,0,0,0-1.8-.55h-2.78v4.19Z"/><path class="cls-4" d="M387,343.91l-4.28-12.84a.74.74,0,0,1,0-.18.38.38,0,0,1,.12-.29.42.42,0,0,1,.3-.13h1.78a.64.64,0,0,1,.42.14.82.82,0,0,1,.22.3l3.34,10.24,3.36-10.24a.66.66,0,0,1,.2-.3.64.64,0,0,1,.42-.14h1.8a.43.43,0,0,1,.29.13.36.36,0,0,1,.13.29l0,.18-4.26,12.84a.75.75,0,0,1-.78.56h-2.22A.74.74,0,0,1,387,343.91Z"/><path class="cls-4" d="M398.35,344.33a.46.46,0,0,1-.14-.34V331a.52.52,0,0,1,.13-.36.47.47,0,0,1,.35-.14h8.82a.49.49,0,0,1,.36.14.52.52,0,0,1,.14.36v1.34a.45.45,0,0,1-.14.35.48.48,0,0,1-.36.13H401v3.5h6.12a.49.49,0,0,1,.36.14.52.52,0,0,1,.14.36v1.27a.44.44,0,0,1-.14.34.48.48,0,0,1-.36.13H401v3.62h6.72a.53.53,0,0,1,.36.13.49.49,0,0,1,.14.36V344a.49.49,0,0,1-.14.36.52.52,0,0,1-.36.12h-9A.44.44,0,0,1,398.35,344.33Z"/></g><line class="cls-1" x1="191.1" y1="263.94" x2="99.53" y2="263.94"/><line class="cls-1" x1="208.6" y1="277.53" x2="99.53" y2="277.53"/><line class="cls-1" x1="201.9" y1="291.12" x2="99.53" y2="291.12"/><line class="cls-1" x1="176.07" y1="304.71" x2="99.53" y2="304.71"/><rect class="cls-10" x="97.78" y="320.8" width="80.75" height="33.52" rx="5.43"/><g class="cls-6"><path class="cls-4" d="M111.38,344.33a.43.43,0,0,1-.15-.34V331a.52.52,0,0,1,.14-.36.45.45,0,0,1,.35-.14h5.8a5.19,5.19,0,0,1,3.5,1,3.59,3.59,0,0,1,1.16,2.81,3,3,0,0,1-.51,1.77,3.13,3.13,0,0,1-1.19,1.06,3.39,3.39,0,0,1,1.42,1.23,3.5,3.5,0,0,1,.58,2,3.85,3.85,0,0,1-1.26,3,5,5,0,0,1-3.53,1.14h-6A.42.42,0,0,1,111.38,344.33Zm5.78-8.11a2.28,2.28,0,0,0,1.57-.5,1.77,1.77,0,0,0,.54-1.35,1.59,1.59,0,0,0-.54-1.3,2.37,2.37,0,0,0-1.57-.46h-3.1v3.61Zm.19,6.11a2.27,2.27,0,0,0,1.63-.56,2,2,0,0,0,.58-1.46,2,2,0,0,0-.59-1.45,2.24,2.24,0,0,0-1.62-.57h-3.29v4Z"/><path class="cls-4" d="M127.12,343.29a5.44,5.44,0,0,1-1.6-4.1c0-.38,0-.95,0-1.7s0-1.33,0-1.72a5.47,5.47,0,0,1,1.64-4.08,7,7,0,0,1,8.43,0,5.52,5.52,0,0,1,1.65,4.08c0,.78,0,1.35,0,1.72s0,.93,0,1.7a5.49,5.49,0,0,1-1.61,4.1,7.21,7.21,0,0,1-8.51,0Zm6.38-1.73a3.63,3.63,0,0,0,.84-2.46c0-.81,0-1.35,0-1.63s0-.84,0-1.62a3.57,3.57,0,0,0-.86-2.45,3.18,3.18,0,0,0-4.22,0,3.43,3.43,0,0,0-.84,2.45c0,.39,0,.93,0,1.62s0,1.22,0,1.63a3.45,3.45,0,0,0,.83,2.44,3.22,3.22,0,0,0,4.25,0Z"/><path class="cls-4" d="M142,343.29a5.49,5.49,0,0,1-1.61-4.1c0-.38,0-.95,0-1.7s0-1.33,0-1.72a5.52,5.52,0,0,1,1.65-4.08,7,7,0,0,1,8.42,0,5.48,5.48,0,0,1,1.66,4.08c0,.78,0,1.35,0,1.72s0,.93,0,1.7a5.45,5.45,0,0,1-1.62,4.1,7.19,7.19,0,0,1-8.5,0Zm6.38-1.73a3.67,3.67,0,0,0,.83-2.46c0-.81,0-1.35,0-1.63s0-.84,0-1.62a3.53,3.53,0,0,0-.86-2.45,2.8,2.8,0,0,0-2.1-.8,2.87,2.87,0,0,0-2.12.8,3.52,3.52,0,0,0-.84,2.45c0,.39,0,.93,0,1.62s0,1.22,0,1.63a3.49,3.49,0,0,0,.84,2.44,2.81,2.81,0,0,0,2.12.81A2.86,2.86,0,0,0,148.4,341.56Z"/><path class="cls-4" d="M155.92,344.33a.43.43,0,0,1-.15-.34V331a.52.52,0,0,1,.14-.36.45.45,0,0,1,.35-.14h1.8a.48.48,0,0,1,.5.5v4.68l4.46-4.82a1,1,0,0,1,.78-.36h2a.45.45,0,0,1,.29.13.39.39,0,0,1,.13.29.37.37,0,0,1-.1.25l-5.44,6,5.84,6.61a.59.59,0,0,1,.08.27.38.38,0,0,1-.12.29.4.4,0,0,1-.29.12h-2.09a.86.86,0,0,1-.6-.16l-.2-.2-4.78-5.28V344a.46.46,0,0,1-.14.34.48.48,0,0,1-.36.14h-1.8A.42.42,0,0,1,155.92,344.33Z"/></g></g></g></svg>