<svg xmlns="http://www.w3.org/2000/svg" viewBox="0 0 521.57 439.37"><defs><style>.cls-1{fill:#fff;}.cls-1,.cls-2,.cls-9{stroke:#6738b8;}.cls-1,.cls-2{stroke-width:2.5px;}.cls-2,.cls-9{fill:none;stroke-linecap:round;stroke-linejoin:round;}.cls-3{fill:#f88298;}.cls-4{fill:#9e62dd;}.cls-5{fill:#5b0098;}.cls-12,.cls-6{fill:#bddef4;}.cls-6{opacity:0.2;}.cls-6,.cls-7{isolation:isolate;}.cls-8{fill:#6738b8;}.cls-9{stroke-width:1.5px;}.cls-10{opacity:0.2;}.cls-11{opacity:0.3;}</style></defs><title>spw-mobile2 copy 2</title><g id="TRAVEL"><g id="spw-travel2"><path class="cls-1" d="M493.41,71.31a33.85,33.85,0,0,0-33.75-33.75H62A33.86,33.86,0,0,0,28.21,71.31V369A33.87,33.87,0,0,0,62,402.79H459.66A33.87,33.87,0,0,0,493.41,369Z"/><path class="cls-1" d="M9.53,369A33.86,33.86,0,0,0,43.3,402.79h435A33.87,33.87,0,0,0,512.08,369Z"/><line class="cls-2" x1="120.48" y1="69.89" x2="493.31" y2="69.89"/><path class="cls-3" d="M99.51,69.89a3.25,3.25,0,1,1-3.24-3.19A3.22,3.22,0,0,1,99.51,69.89Z"/><path class="cls-4" d="M81.57,69.89a3.25,3.25,0,1,1-3.24-3.19A3.22,3.22,0,0,1,81.57,69.89Z"/><path class="cls-5" d="M63.63,69.89a3.25,3.25,0,1,1-3.24-3.19A3.22,3.22,0,0,1,63.63,69.89Z"/><path class="cls-2" d="M218.92,369h0a11.39,11.39,0,0,0,11.39,11.39h61A11.39,11.39,0,0,0,302.68,369h0"/><g id="Layer_85" data-name="Layer 85"><rect class="cls-6" x="118.48" y="139.89" width="85.63" height="185.94"/><rect class="cls-6" x="260.64" y="139.89" width="50.88" height="185.94"/><rect class="cls-6" x="382.39" y="139.89" width="90.63" height="185.94"/><g class="cls-7"><path class="cls-8" d="M128.52,123.89a.29.29,0,0,1-.07-.2v-7.85a.27.27,0,0,1,.07-.2.26.26,0,0,1,.19-.08h.6a.29.29,0,0,1,.21.08.24.24,0,0,1,.07.2v7.85a.3.3,0,0,1-.08.2.27.27,0,0,1-.2.07h-.6A.25.25,0,0,1,128.52,123.89Z"/><path class="cls-8" d="M131.62,123.89a.29.29,0,0,1-.07-.2V118a.27.27,0,0,1,.07-.2.3.3,0,0,1,.2-.08h.51a.26.26,0,0,1,.19.08.27.27,0,0,1,.07.2v.41a2.13,2.13,0,0,1,1.75-.81,1.93,1.93,0,0,1,1.87,1.11,2.15,2.15,0,0,1,.83-.81,2.36,2.36,0,0,1,1.19-.3,2.11,2.11,0,0,1,1.61.68,2.76,2.76,0,0,1,.62,1.94v3.47a.26.26,0,0,1-.08.2.25.25,0,0,1-.19.07h-.52a.27.27,0,0,1-.2-.07.3.3,0,0,1-.08-.2v-3.36A2,2,0,0,0,139,119a1.41,1.41,0,0,0-1.05-.41,1.33,1.33,0,0,0-1,.43,1.91,1.91,0,0,0-.41,1.36v3.36a.3.3,0,0,1-.08.2.27.27,0,0,1-.2.07h-.52a.27.27,0,0,1-.2-.07.3.3,0,0,1-.08-.2v-3.36a1.93,1.93,0,0,0-.41-1.37,1.4,1.4,0,0,0-1-.42,1.35,1.35,0,0,0-1,.42,1.86,1.86,0,0,0-.41,1.36v3.37a.3.3,0,0,1-.08.2.27.27,0,0,1-.2.07h-.53A.29.29,0,0,1,131.62,123.89Z"/><path class="cls-8" d="M142.29,126.17a.26.26,0,0,1-.08-.2v-8a.25.25,0,0,1,.08-.2.28.28,0,0,1,.2-.08h.5a.29.29,0,0,1,.21.08.28.28,0,0,1,.07.2v.53a2.32,2.32,0,0,1,2-.93,2.27,2.27,0,0,1,1.89.8,3.32,3.32,0,0,1,.66,2,3.45,3.45,0,0,1,0,.4,3.66,3.66,0,0,1,0,.41,3.33,3.33,0,0,1-.66,2,2.59,2.59,0,0,1-3.84-.11V126a.29.29,0,0,1-.07.2.27.27,0,0,1-.2.07h-.54A.27.27,0,0,1,142.29,126.17Zm4-3.56a2.44,2.44,0,0,0,.43-1.42,3.23,3.23,0,0,0,0-.35c0-1.53-.56-2.3-1.7-2.3a1.48,1.48,0,0,0-1.26.56,2.21,2.21,0,0,0-.46,1.31c0,.09,0,.25,0,.47s0,.38,0,.47a2,2,0,0,0,.47,1.26,1.52,1.52,0,0,0,1.25.54A1.45,1.45,0,0,0,146.28,122.61Z"/><path class="cls-8" d="M149.41,123.89a.26.26,0,0,1-.08-.2V118a.24.24,0,0,1,.08-.2.23.23,0,0,1,.19-.09h.51a.27.27,0,0,1,.29.29v.53a1.79,1.79,0,0,1,1.67-.82h.46a.29.29,0,0,1,.21.08.28.28,0,0,1,.07.2v.44a.32.32,0,0,1-.07.2.29.29,0,0,1-.21.08h-.68a1.41,1.41,0,0,0-1,.38,1.45,1.45,0,0,0-.38,1.05v3.54a.26.26,0,0,1-.08.2.31.31,0,0,1-.21.07h-.54A.25.25,0,0,1,149.41,123.89Z"/><path class="cls-8" d="M154.24,123.32a3.14,3.14,0,0,1-.81-2.08v-.8a3.14,3.14,0,0,1,.81-2.07,2.89,2.89,0,0,1,4,.07,3.39,3.39,0,0,1,.73,2.28v.22a.28.28,0,0,1-.08.2.3.3,0,0,1-.2.08h-4.16v.1a2.21,2.21,0,0,0,.48,1.34,1.43,1.43,0,0,0,1.17.55,1.79,1.79,0,0,0,.92-.22,2.08,2.08,0,0,0,.53-.47.65.65,0,0,1,.17-.17.51.51,0,0,1,.21,0h.52a.29.29,0,0,1,.19.06.19.19,0,0,1,.08.16,1.06,1.06,0,0,1-.33.63,2.54,2.54,0,0,1-.92.64,3.24,3.24,0,0,1-1.36.27A2.56,2.56,0,0,1,154.24,123.32Zm3.63-2.92v0a2,2,0,0,0-.45-1.36,1.54,1.54,0,0,0-1.23-.53A1.48,1.48,0,0,0,155,119a2,2,0,0,0-.44,1.36v0Z"/><path class="cls-8" d="M161.17,123.81a2.42,2.42,0,0,1-.85-.61,1.08,1.08,0,0,1-.27-.58.22.22,0,0,1,.08-.19.28.28,0,0,1,.18-.06h.5l.12,0a1.08,1.08,0,0,1,.11.11,2.22,2.22,0,0,0,.62.53,1.85,1.85,0,0,0,.92.19,1.91,1.91,0,0,0,1-.24.78.78,0,0,0,.4-.7.69.69,0,0,0-.17-.48,1.59,1.59,0,0,0-.56-.32,8.56,8.56,0,0,0-1.16-.31,2.92,2.92,0,0,1-1.47-.66,1.51,1.51,0,0,1-.44-1.12,1.58,1.58,0,0,1,.27-.86,1.92,1.92,0,0,1,.78-.67,2.84,2.84,0,0,1,1.25-.26,3,3,0,0,1,1.29.26,2.21,2.21,0,0,1,.8.58,1,1,0,0,1,.27.57.25.25,0,0,1-.08.18.24.24,0,0,1-.18.07h-.46a.25.25,0,0,1-.24-.13l-.34-.36a1.35,1.35,0,0,0-.4-.21,2.1,2.1,0,0,0-.66-.09,1.42,1.42,0,0,0-.9.24.81.81,0,0,0-.32.66.64.64,0,0,0,.14.42,1.08,1.08,0,0,0,.5.33,7,7,0,0,0,1.1.3,3.41,3.41,0,0,1,1.62.69,1.49,1.49,0,0,1,.47,1.14,1.63,1.63,0,0,1-.29.93,2,2,0,0,1-.88.66,3.62,3.62,0,0,1-1.38.24A3.24,3.24,0,0,1,161.17,123.81Z"/><path class="cls-8" d="M167.26,123.81a2.28,2.28,0,0,1-.84-.61,1,1,0,0,1-.28-.58.26.26,0,0,1,.08-.19.32.32,0,0,1,.18-.06h.51l.11,0a.54.54,0,0,1,.12.11,2.33,2.33,0,0,0,.61.53,1.88,1.88,0,0,0,.92.19,2,2,0,0,0,1-.24.77.77,0,0,0,.39-.7.69.69,0,0,0-.17-.48,1.5,1.5,0,0,0-.56-.32,8.34,8.34,0,0,0-1.15-.31,3,3,0,0,1-1.48-.66,1.51,1.51,0,0,1-.43-1.12,1.65,1.65,0,0,1,.26-.86,2,2,0,0,1,.79-.67,2.8,2.8,0,0,1,1.24-.26,3,3,0,0,1,1.29.26,2.12,2.12,0,0,1,.8.58,1,1,0,0,1,.27.57.24.24,0,0,1-.07.18.28.28,0,0,1-.19.07h-.46a.25.25,0,0,1-.24-.13c-.13-.15-.25-.27-.34-.36a1.14,1.14,0,0,0-.4-.21,2.1,2.1,0,0,0-.66-.09,1.46,1.46,0,0,0-.9.24.81.81,0,0,0-.31.66.64.64,0,0,0,.13.42,1.2,1.2,0,0,0,.5.33,6.89,6.89,0,0,0,1.11.3,3.32,3.32,0,0,1,1.61.69,1.47,1.47,0,0,1,.48,1.14,1.56,1.56,0,0,1-.3.93,1.92,1.92,0,0,1-.87.66,3.64,3.64,0,0,1-1.39.24A3.27,3.27,0,0,1,167.26,123.81Z"/><path class="cls-8" d="M172.6,116.47a.27.27,0,0,1-.07-.2v-.62a.31.31,0,0,1,.07-.21.3.3,0,0,1,.2-.08h.71a.28.28,0,0,1,.2.08.29.29,0,0,1,.09.21v.62a.25.25,0,0,1-.09.2.28.28,0,0,1-.2.08h-.71A.3.3,0,0,1,172.6,116.47Zm.1,7.42a.3.3,0,0,1-.08-.2V118a.27.27,0,0,1,.28-.28h.53a.27.27,0,0,1,.19.08.24.24,0,0,1,.08.2v5.69a.26.26,0,0,1-.08.2.26.26,0,0,1-.19.07h-.53A.27.27,0,0,1,172.7,123.89Z"/><path class="cls-8" d="M176,123.34a2.9,2.9,0,0,1-.76-2l0-.52,0-.51a2.87,2.87,0,0,1,.77-2,3.1,3.1,0,0,1,4,0,2.83,2.83,0,0,1,.78,2c0,.17,0,.35,0,.51s0,.34,0,.52a3,3,0,0,1-.76,2,2.69,2.69,0,0,1-2,.74A2.65,2.65,0,0,1,176,123.34Zm3.25-.64a2.16,2.16,0,0,0,.49-1.4c0-.08,0-.23,0-.46s0-.37,0-.45a2.14,2.14,0,0,0-.49-1.4,1.76,1.76,0,0,0-2.44,0,2.09,2.09,0,0,0-.48,1.4v.91a2.1,2.1,0,0,0,.48,1.4,1.79,1.79,0,0,0,2.44,0Z"/><path class="cls-8" d="M182.44,123.89a.3.3,0,0,1-.08-.2V118a.27.27,0,0,1,.28-.28h.52a.28.28,0,0,1,.2.08.24.24,0,0,1,.07.2v.53a2.51,2.51,0,0,1,.84-.69,2.58,2.58,0,0,1,1.18-.24,2.25,2.25,0,0,1,1.79.74,2.89,2.89,0,0,1,.63,2v3.4a.26.26,0,0,1-.08.2.25.25,0,0,1-.19.07H187a.25.25,0,0,1-.19-.07.26.26,0,0,1-.08-.2v-3.33a2,2,0,0,0-.42-1.34,1.51,1.51,0,0,0-1.2-.48,1.6,1.6,0,0,0-1.23.49,1.88,1.88,0,0,0-.45,1.33v3.33a.3.3,0,0,1-.08.2.27.27,0,0,1-.2.07h-.55A.27.27,0,0,1,182.44,123.89Z"/><path class="cls-8" d="M190.35,123.81a2.42,2.42,0,0,1-.85-.61,1.08,1.08,0,0,1-.27-.58.26.26,0,0,1,.08-.19.32.32,0,0,1,.18-.06H190l.11,0a.37.37,0,0,1,.11.11,2.37,2.37,0,0,0,.62.53,1.88,1.88,0,0,0,.92.19,2,2,0,0,0,1-.24.77.77,0,0,0,.39-.7.69.69,0,0,0-.17-.48,1.5,1.5,0,0,0-.56-.32,8.16,8.16,0,0,0-1.16-.31,3,3,0,0,1-1.47-.66,1.51,1.51,0,0,1-.43-1.12,1.57,1.57,0,0,1,.26-.86,2,2,0,0,1,.79-.67,2.77,2.77,0,0,1,1.24-.26,3,3,0,0,1,1.29.26,2.21,2.21,0,0,1,.8.58,1,1,0,0,1,.27.57.22.22,0,0,1-.08.18.24.24,0,0,1-.18.07h-.46a.25.25,0,0,1-.24-.13c-.13-.15-.25-.27-.34-.36a1.24,1.24,0,0,0-.4-.21,2.1,2.1,0,0,0-.66-.09,1.46,1.46,0,0,0-.9.24.81.81,0,0,0-.31.66.64.64,0,0,0,.13.42,1.13,1.13,0,0,0,.5.33,6.89,6.89,0,0,0,1.11.3,3.37,3.37,0,0,1,1.61.69,1.46,1.46,0,0,1,.47,1.14,1.55,1.55,0,0,1-.29.93,2,2,0,0,1-.88.66,3.59,3.59,0,0,1-1.38.24A3.27,3.27,0,0,1,190.35,123.81Z"/></g><g class="cls-7"><path class="cls-8" d="M218,123.21a3.49,3.49,0,0,1-.9-2.38c0-.21,0-.57,0-1s0-.86,0-1.08a3.51,3.51,0,0,1,.9-2.39,3.19,3.19,0,0,1,2.43-.87,4,4,0,0,1,1.81.38,2.66,2.66,0,0,1,1.12,1,2.85,2.85,0,0,1,.42,1.31.21.21,0,0,1-.08.17.26.26,0,0,1-.19.07h-.6a.29.29,0,0,1-.19-.06.42.42,0,0,1-.11-.2,2,2,0,0,0-.74-1.3,2.44,2.44,0,0,0-1.44-.37c-1.39,0-2.12.77-2.17,2.33,0,.21,0,.54,0,1s0,.79,0,1c0,1.55.78,2.32,2.17,2.32a2.56,2.56,0,0,0,1.44-.37,2,2,0,0,0,.74-1.29.42.42,0,0,1,.11-.2.29.29,0,0,1,.19-.06h.6a.31.31,0,0,1,.19.06.25.25,0,0,1,.08.18,2.85,2.85,0,0,1-.42,1.31,2.8,2.8,0,0,1-1.12,1,4,4,0,0,1-1.81.37A3.19,3.19,0,0,1,218,123.21Z"/><path class="cls-8" d="M225.35,123.89a.3.3,0,0,1-.08-.2v-8a.25.25,0,0,1,.08-.2.28.28,0,0,1,.2-.08h.53a.3.3,0,0,1,.2.08.27.27,0,0,1,.07.2v8a.24.24,0,0,1-.27.27h-.53A.27.27,0,0,1,225.35,123.89Z"/><path class="cls-8" d="M228.14,116.47a.24.24,0,0,1-.08-.2v-.62a.28.28,0,0,1,.08-.21.26.26,0,0,1,.19-.08H229a.27.27,0,0,1,.29.29v.62a.28.28,0,0,1-.08.2.32.32,0,0,1-.21.08h-.71A.26.26,0,0,1,228.14,116.47Zm.09,7.42a.3.3,0,0,1-.08-.2V118a.27.27,0,0,1,.28-.28H229a.3.3,0,0,1,.2.08.27.27,0,0,1,.07.2v5.69a.24.24,0,0,1-.27.27h-.53A.27.27,0,0,1,228.23,123.89Z"/><path class="cls-8" d="M231.53,123.36a2.88,2.88,0,0,1-.76-2v-1a2.85,2.85,0,0,1,.76-2,2.7,2.7,0,0,1,2-.73,3.22,3.22,0,0,1,1.46.31,2.32,2.32,0,0,1,.89.76,1.87,1.87,0,0,1,.31.91.22.22,0,0,1-.07.2.32.32,0,0,1-.2.08h-.53a.3.3,0,0,1-.18,0,.7.7,0,0,1-.12-.2,1.65,1.65,0,0,0-.59-.84,1.78,1.78,0,0,0-1-.24,1.56,1.56,0,0,0-1.2.47,2.17,2.17,0,0,0-.48,1.42v.84a2.2,2.2,0,0,0,.48,1.43,1.6,1.6,0,0,0,1.2.47,1.67,1.67,0,0,0,1-.25,1.58,1.58,0,0,0,.59-.83.58.58,0,0,1,.12-.2.3.3,0,0,1,.18,0h.53a.32.32,0,0,1,.2.08.21.21,0,0,1,.07.19,1.8,1.8,0,0,1-.31.9,2.34,2.34,0,0,1-.89.77,3.09,3.09,0,0,1-1.46.31A2.69,2.69,0,0,1,231.53,123.36Z"/><path class="cls-8" d="M237.72,123.89a.29.29,0,0,1-.07-.2v-8a.24.24,0,0,1,.07-.2.3.3,0,0,1,.2-.08h.52a.26.26,0,0,1,.19.08.24.24,0,0,1,.08.2v4.19l2.4-2,.25-.17a.63.63,0,0,1,.23,0h.6a.27.27,0,0,1,.18.07.27.27,0,0,1,.06.19.31.31,0,0,1-.13.22l-2.81,2.31,3.11,3a.36.36,0,0,1,.13.23.28.28,0,0,1-.06.18.23.23,0,0,1-.18.07h-.58a.75.75,0,0,1-.26,0,.87.87,0,0,1-.22-.17l-2.72-2.57v2.5a.26.26,0,0,1-.08.2.25.25,0,0,1-.19.07h-.52A.29.29,0,0,1,237.72,123.89Z"/><path class="cls-8" d="M244.41,123.81a2.42,2.42,0,0,1-.85-.61,1.08,1.08,0,0,1-.27-.58.22.22,0,0,1,.08-.19.32.32,0,0,1,.18-.06h.5l.12,0a.55.55,0,0,1,.11.11,2.37,2.37,0,0,0,.62.53,1.85,1.85,0,0,0,.92.19,2,2,0,0,0,1-.24.79.79,0,0,0,.39-.7.69.69,0,0,0-.17-.48,1.5,1.5,0,0,0-.56-.32,8.56,8.56,0,0,0-1.16-.31,2.92,2.92,0,0,1-1.47-.66,1.51,1.51,0,0,1-.44-1.12,1.58,1.58,0,0,1,.27-.86,1.92,1.92,0,0,1,.78-.67,2.84,2.84,0,0,1,1.25-.26,3,3,0,0,1,1.29.26,2.21,2.21,0,0,1,.8.58,1,1,0,0,1,.27.57.25.25,0,0,1-.08.18.24.24,0,0,1-.18.07h-.46a.25.25,0,0,1-.24-.13l-.34-.36a1.24,1.24,0,0,0-.4-.21,2.1,2.1,0,0,0-.66-.09,1.42,1.42,0,0,0-.9.24.81.81,0,0,0-.32.66.64.64,0,0,0,.14.42,1.08,1.08,0,0,0,.5.33,7,7,0,0,0,1.1.3,3.41,3.41,0,0,1,1.62.69,1.49,1.49,0,0,1,.47,1.14,1.63,1.63,0,0,1-.29.93,2,2,0,0,1-.88.66,3.62,3.62,0,0,1-1.38.24A3.24,3.24,0,0,1,244.41,123.81Z"/></g><g class="cls-7"><path class="cls-8" d="M270.65,123.89a.3.3,0,0,1-.08-.2v-7.85a.28.28,0,0,1,.08-.2.24.24,0,0,1,.19-.08h.6a.26.26,0,0,1,.19.08.27.27,0,0,1,.07.2V123h4a.28.28,0,0,1,.21.07.3.3,0,0,1,.08.2v.46a.27.27,0,0,1-.09.2.27.27,0,0,1-.2.07h-4.87A.24.24,0,0,1,270.65,123.89Z"/><path class="cls-8" d="M277.53,123.32a3.19,3.19,0,0,1-.8-2.08v-.8a3.18,3.18,0,0,1,.8-2.07,2.9,2.9,0,0,1,4,.07,3.39,3.39,0,0,1,.72,2.28v.22a.24.24,0,0,1-.08.2.26.26,0,0,1-.19.08h-4.17v.1a2.34,2.34,0,0,0,.48,1.34,1.47,1.47,0,0,0,1.18.55,1.81,1.81,0,0,0,.92-.22,2.08,2.08,0,0,0,.53-.47.65.65,0,0,1,.17-.17.49.49,0,0,1,.2,0h.53a.33.33,0,0,1,.19.06.19.19,0,0,1,.07.16,1,1,0,0,1-.32.63,2.63,2.63,0,0,1-.92.64,3.24,3.24,0,0,1-1.36.27A2.58,2.58,0,0,1,277.53,123.32Zm3.64-2.92v0a2,2,0,0,0-.46-1.36,1.5,1.5,0,0,0-1.22-.53,1.48,1.48,0,0,0-1.22.53,2,2,0,0,0-.45,1.36v0Z"/><path class="cls-8" d="M284.37,123.84a2,2,0,0,1-.79-.65,1.53,1.53,0,0,1-.3-.92,1.56,1.56,0,0,1,.65-1.29,3.78,3.78,0,0,1,1.76-.68l1.8-.25v-.35c0-.82-.47-1.23-1.42-1.23a1.56,1.56,0,0,0-.89.22,1.34,1.34,0,0,0-.49.52c0,.08-.07.14-.11.16a.21.21,0,0,1-.15,0H284a.26.26,0,0,1-.19-.08.27.27,0,0,1-.08-.19,1.19,1.19,0,0,1,.26-.64,2.13,2.13,0,0,1,.8-.64,2.93,2.93,0,0,1,1.32-.27,2.51,2.51,0,0,1,1.92.63,2.18,2.18,0,0,1,.59,1.56v3.9a.3.3,0,0,1-.08.2.27.27,0,0,1-.2.07h-.53a.25.25,0,0,1-.19-.07.29.29,0,0,1-.07-.2v-.53a2.11,2.11,0,0,1-.77.66,2.76,2.76,0,0,1-1.3.26A2.44,2.44,0,0,1,284.37,123.84Zm2.62-1.15a2,2,0,0,0,.5-1.5v-.33l-1.4.2a3.31,3.31,0,0,0-1.31.41.85.85,0,0,0-.44.72.83.83,0,0,0,.4.75,1.68,1.68,0,0,0,.95.27A1.73,1.73,0,0,0,287,122.69Z"/><path class="cls-8" d="M290.72,123.27a3.51,3.51,0,0,1-.68-2.07v-.72a3.47,3.47,0,0,1,.68-2,2.24,2.24,0,0,1,1.89-.83,2.33,2.33,0,0,1,1.94.89v-2.77a.27.27,0,0,1,.28-.28h.54a.26.26,0,0,1,.19.08.24.24,0,0,1,.08.2v8a.26.26,0,0,1-.08.2.25.25,0,0,1-.19.07h-.52a.25.25,0,0,1-.19-.07.29.29,0,0,1-.07-.2v-.52a2.33,2.33,0,0,1-2,.91A2.25,2.25,0,0,1,290.72,123.27Zm3.37-.68a2.29,2.29,0,0,0,.46-1.33c0-.08,0-.24,0-.45s0-.38,0-.47a2.1,2.1,0,0,0-.46-1.27,1.55,1.55,0,0,0-1.26-.53,1.47,1.47,0,0,0-1.26.54,2.6,2.6,0,0,0-.43,1.42v.34c0,1.54.57,2.31,1.7,2.31A1.48,1.48,0,0,0,294.09,122.59Z"/><path class="cls-8" d="M298.19,123.81a2.28,2.28,0,0,1-.84-.61,1,1,0,0,1-.28-.58.26.26,0,0,1,.08-.19.32.32,0,0,1,.18-.06h.51l.11,0a.54.54,0,0,1,.12.11,2.33,2.33,0,0,0,.61.53,1.88,1.88,0,0,0,.92.19,2,2,0,0,0,1-.24.77.77,0,0,0,.39-.7.69.69,0,0,0-.17-.48,1.5,1.5,0,0,0-.56-.32,8.34,8.34,0,0,0-1.15-.31,3,3,0,0,1-1.48-.66,1.51,1.51,0,0,1-.43-1.12,1.65,1.65,0,0,1,.26-.86,2,2,0,0,1,.79-.67,2.8,2.8,0,0,1,1.24-.26,3,3,0,0,1,1.29.26,2.12,2.12,0,0,1,.8.58,1,1,0,0,1,.27.57.24.24,0,0,1-.07.18.28.28,0,0,1-.19.07h-.46a.25.25,0,0,1-.24-.13c-.13-.15-.25-.27-.34-.36a1.14,1.14,0,0,0-.4-.21,2.1,2.1,0,0,0-.66-.09,1.46,1.46,0,0,0-.9.24.81.81,0,0,0-.31.66.64.64,0,0,0,.13.42,1.2,1.2,0,0,0,.5.33,6.89,6.89,0,0,0,1.11.3,3.32,3.32,0,0,1,1.61.69,1.47,1.47,0,0,1,.48,1.14,1.56,1.56,0,0,1-.3.93,1.92,1.92,0,0,1-.87.66,3.64,3.64,0,0,1-1.39.24A3.27,3.27,0,0,1,298.19,123.81Z"/></g><g class="cls-7"><path class="cls-8" d="M392.29,123.21a3.53,3.53,0,0,1-.89-2.38c0-.21,0-.57,0-1s0-.86,0-1.08a3.56,3.56,0,0,1,.89-2.39,3.22,3.22,0,0,1,2.43-.87,4,4,0,0,1,1.81.38,2.66,2.66,0,0,1,1.54,2.3.21.21,0,0,1-.08.17.24.24,0,0,1-.18.07h-.6a.32.32,0,0,1-.2-.06.42.42,0,0,1-.1-.2,2.09,2.09,0,0,0-.74-1.3,2.49,2.49,0,0,0-1.45-.37c-1.39,0-2.11.77-2.17,2.33,0,.21,0,.54,0,1s0,.79,0,1c.06,1.55.78,2.32,2.17,2.32a2.56,2.56,0,0,0,1.44-.37,2.05,2.05,0,0,0,.75-1.29.42.42,0,0,1,.1-.2.32.32,0,0,1,.2-.06h.6a.28.28,0,0,1,.18.06.25.25,0,0,1,.08.18,2.72,2.72,0,0,1-.41,1.31,2.9,2.9,0,0,1-1.13,1,4,4,0,0,1-1.81.37A3.22,3.22,0,0,1,392.29,123.21Z"/><path class="cls-8" d="M400.19,123.84a2,2,0,0,1-.79-.65,1.53,1.53,0,0,1-.3-.92,1.56,1.56,0,0,1,.65-1.29,3.78,3.78,0,0,1,1.76-.68l1.8-.25v-.35c0-.82-.47-1.23-1.42-1.23a1.56,1.56,0,0,0-.89.22,1.34,1.34,0,0,0-.49.52c0,.08-.07.14-.11.16a.21.21,0,0,1-.15,0h-.46a.26.26,0,0,1-.19-.08.27.27,0,0,1-.08-.19,1.19,1.19,0,0,1,.26-.64,2.13,2.13,0,0,1,.8-.64,2.93,2.93,0,0,1,1.32-.27,2.51,2.51,0,0,1,1.92.63,2.18,2.18,0,0,1,.59,1.56v3.9a.3.3,0,0,1-.08.2.27.27,0,0,1-.2.07h-.53a.25.25,0,0,1-.19-.07.29.29,0,0,1-.07-.2v-.53a2.11,2.11,0,0,1-.77.66,2.76,2.76,0,0,1-1.3.26A2.44,2.44,0,0,1,400.19,123.84Zm2.62-1.15a2,2,0,0,0,.5-1.5v-.33l-1.4.2a3.31,3.31,0,0,0-1.31.41.85.85,0,0,0-.44.72.83.83,0,0,0,.4.75,1.68,1.68,0,0,0,.95.27A1.73,1.73,0,0,0,402.81,122.69Z"/><path class="cls-8" d="M406.22,123.89a.29.29,0,0,1-.07-.2V118a.27.27,0,0,1,.07-.2.3.3,0,0,1,.2-.08h.52a.26.26,0,0,1,.2.08.24.24,0,0,1,.07.2v.53a2.51,2.51,0,0,1,.84-.69,2.58,2.58,0,0,1,1.18-.24,2.25,2.25,0,0,1,1.79.74,2.89,2.89,0,0,1,.63,2v3.4a.24.24,0,0,1-.27.27h-.55a.27.27,0,0,1-.2-.07.3.3,0,0,1-.08-.2v-3.33a2,2,0,0,0-.42-1.34,1.51,1.51,0,0,0-1.2-.48,1.57,1.57,0,0,0-1.22.49,1.84,1.84,0,0,0-.46,1.33v3.33a.3.3,0,0,1-.08.2.27.27,0,0,1-.2.07h-.55A.29.29,0,0,1,406.22,123.89Z"/><path class="cls-8" d="M413.89,123.36a2.88,2.88,0,0,1-.76-2v-1a2.85,2.85,0,0,1,.76-2,2.7,2.7,0,0,1,2-.73,3.22,3.22,0,0,1,1.46.31,2.32,2.32,0,0,1,.89.76,1.87,1.87,0,0,1,.31.91.22.22,0,0,1-.07.2.32.32,0,0,1-.2.08h-.53a.3.3,0,0,1-.18,0,.7.7,0,0,1-.12-.2,1.65,1.65,0,0,0-.59-.84,1.78,1.78,0,0,0-1-.24,1.56,1.56,0,0,0-1.2.47,2.17,2.17,0,0,0-.48,1.42v.84a2.2,2.2,0,0,0,.48,1.43,1.6,1.6,0,0,0,1.2.47,1.67,1.67,0,0,0,1-.25,1.58,1.58,0,0,0,.59-.83.58.58,0,0,1,.12-.2.3.3,0,0,1,.18,0h.53a.32.32,0,0,1,.2.08.21.21,0,0,1,.07.19,1.8,1.8,0,0,1-.31.9,2.34,2.34,0,0,1-.89.77,3.09,3.09,0,0,1-1.46.31A2.69,2.69,0,0,1,413.89,123.36Z"/><path class="cls-8" d="M420.51,123.32a3.09,3.09,0,0,1-.8-2.08l0-.41,0-.39a3.08,3.08,0,0,1,.8-2.07,2.59,2.59,0,0,1,2-.77,2.54,2.54,0,0,1,2,.84,3.34,3.34,0,0,1,.73,2.28v.22a.27.27,0,0,1-.28.28H420.8v.1a2.21,2.21,0,0,0,.48,1.34,1.45,1.45,0,0,0,1.17.55,1.76,1.76,0,0,0,.92-.22,2,2,0,0,0,.54-.47.66.66,0,0,1,.16-.17.51.51,0,0,1,.21,0h.53a.28.28,0,0,1,.18.06.19.19,0,0,1,.08.16,1.1,1.1,0,0,1-.32.63,2.73,2.73,0,0,1-.92.64,3.27,3.27,0,0,1-1.36.27A2.58,2.58,0,0,1,420.51,123.32Zm3.64-2.92v0a2,2,0,0,0-.46-1.36,1.68,1.68,0,0,0-2.45,0,2.06,2.06,0,0,0-.44,1.36v0Z"/><path class="cls-8" d="M426.79,123.89a.3.3,0,0,1-.08-.2v-8a.25.25,0,0,1,.08-.2.28.28,0,0,1,.2-.08h.53a.3.3,0,0,1,.2.08.27.27,0,0,1,.07.2v8a.24.24,0,0,1-.27.27H427A.27.27,0,0,1,426.79,123.89Z"/><path class="cls-8" d="M429.68,123.89a.29.29,0,0,1-.07-.2v-8a.24.24,0,0,1,.07-.2.3.3,0,0,1,.2-.08h.53a.27.27,0,0,1,.28.28v8a.3.3,0,0,1-.08.2.27.27,0,0,1-.2.07h-.53A.29.29,0,0,1,429.68,123.89Z"/><path class="cls-8" d="M433.13,123.84a2,2,0,0,1-.79-.65,1.53,1.53,0,0,1-.3-.92,1.56,1.56,0,0,1,.65-1.29,3.78,3.78,0,0,1,1.76-.68l1.8-.25v-.35c0-.82-.47-1.23-1.42-1.23a1.56,1.56,0,0,0-.89.22,1.34,1.34,0,0,0-.49.52c0,.08-.07.14-.11.16a.21.21,0,0,1-.15,0h-.46a.26.26,0,0,1-.19-.08.27.27,0,0,1-.08-.19,1.19,1.19,0,0,1,.26-.64,2.13,2.13,0,0,1,.8-.64,2.93,2.93,0,0,1,1.32-.27,2.51,2.51,0,0,1,1.92.63,2.18,2.18,0,0,1,.59,1.56v3.9a.3.3,0,0,1-.08.2.27.27,0,0,1-.2.07h-.53a.25.25,0,0,1-.19-.07.29.29,0,0,1-.07-.2v-.53a2.11,2.11,0,0,1-.77.66,2.76,2.76,0,0,1-1.3.26A2.44,2.44,0,0,1,433.13,123.84Zm2.62-1.15a2,2,0,0,0,.5-1.5v-.33l-1.4.2a3.31,3.31,0,0,0-1.31.41.85.85,0,0,0-.44.72.83.83,0,0,0,.4.75,1.68,1.68,0,0,0,.95.27A1.73,1.73,0,0,0,435.75,122.69Z"/><path class="cls-8" d="M439.57,121.86v-3.21h-.95a.27.27,0,0,1-.19-.07.28.28,0,0,1-.08-.2V118a.28.28,0,0,1,.08-.2.24.24,0,0,1,.19-.08h.95v-2a.27.27,0,0,1,.07-.2.26.26,0,0,1,.19-.08h.53a.3.3,0,0,1,.2.08.27.27,0,0,1,.07.2v2h1.49a.27.27,0,0,1,.28.28v.38a.28.28,0,0,1-.08.2.32.32,0,0,1-.2.07h-1.49v3.13a1.72,1.72,0,0,0,.2.92.74.74,0,0,0,.68.32h.73a.24.24,0,0,1,.19.07.3.3,0,0,1,.08.2v.4a.3.3,0,0,1-.08.2.24.24,0,0,1-.19.07h-.81Q439.57,124,439.57,121.86Z"/><path class="cls-8" d="M443.66,116.47a.27.27,0,0,1-.07-.2v-.62a.31.31,0,0,1,.07-.21.3.3,0,0,1,.2-.08h.71a.28.28,0,0,1,.2.08.29.29,0,0,1,.09.21v.62a.25.25,0,0,1-.09.2.28.28,0,0,1-.2.08h-.71A.3.3,0,0,1,443.66,116.47Zm.1,7.42a.3.3,0,0,1-.08-.2V118a.27.27,0,0,1,.28-.28h.53a.26.26,0,0,1,.19.08.24.24,0,0,1,.08.2v5.69a.26.26,0,0,1-.08.2.25.25,0,0,1-.19.07H444A.27.27,0,0,1,443.76,123.89Z"/><path class="cls-8" d="M447.06,123.34a2.9,2.9,0,0,1-.76-2v-1a2.87,2.87,0,0,1,.77-2,3.11,3.11,0,0,1,4.05,0,2.87,2.87,0,0,1,.77,2,4.43,4.43,0,0,1,0,.51,4.61,4.61,0,0,1,0,.52,3,3,0,0,1-.76,2,3.17,3.17,0,0,1-4.07,0Zm3.25-.64a2.16,2.16,0,0,0,.49-1.4c0-.08,0-.23,0-.46s0-.37,0-.45a2.14,2.14,0,0,0-.49-1.4,1.75,1.75,0,0,0-2.43,0,2.09,2.09,0,0,0-.49,1.4v.91a2.11,2.11,0,0,0,.49,1.4,1.78,1.78,0,0,0,2.43,0Z"/><path class="cls-8" d="M453.5,123.89a.29.29,0,0,1-.07-.2V118a.27.27,0,0,1,.07-.2.28.28,0,0,1,.2-.08h.52a.28.28,0,0,1,.2.08.24.24,0,0,1,.07.2v.53a2.51,2.51,0,0,1,.84-.69,2.58,2.58,0,0,1,1.18-.24,2.25,2.25,0,0,1,1.79.74,2.89,2.89,0,0,1,.63,2v3.4a.24.24,0,0,1-.27.27h-.55a.27.27,0,0,1-.2-.07.3.3,0,0,1-.08-.2v-3.33a2,2,0,0,0-.42-1.34,1.51,1.51,0,0,0-1.2-.48A1.57,1.57,0,0,0,455,119a1.84,1.84,0,0,0-.46,1.33v3.33a.3.3,0,0,1-.08.2.27.27,0,0,1-.2.07h-.55A.27.27,0,0,1,453.5,123.89Z"/><path class="cls-8" d="M461.41,123.81a2.28,2.28,0,0,1-.84-.61,1,1,0,0,1-.28-.58.26.26,0,0,1,.08-.19.32.32,0,0,1,.18-.06h.51l.11,0a.54.54,0,0,1,.12.11,2.33,2.33,0,0,0,.61.53,1.88,1.88,0,0,0,.92.19,2,2,0,0,0,1-.24.77.77,0,0,0,.39-.7.69.69,0,0,0-.17-.48,1.5,1.5,0,0,0-.56-.32,8.16,8.16,0,0,0-1.16-.31,3,3,0,0,1-1.47-.66,1.51,1.51,0,0,1-.43-1.12,1.65,1.65,0,0,1,.26-.86,2,2,0,0,1,.79-.67,2.8,2.8,0,0,1,1.24-.26,3,3,0,0,1,1.29.26,2.12,2.12,0,0,1,.8.58,1,1,0,0,1,.27.57.24.24,0,0,1-.07.18.28.28,0,0,1-.19.07h-.46a.25.25,0,0,1-.24-.13c-.13-.15-.25-.27-.34-.36a1.14,1.14,0,0,0-.4-.21,2.1,2.1,0,0,0-.66-.09,1.46,1.46,0,0,0-.9.24.81.81,0,0,0-.31.66.64.64,0,0,0,.13.42,1.2,1.2,0,0,0,.5.33,6.89,6.89,0,0,0,1.11.3,3.37,3.37,0,0,1,1.61.69,1.46,1.46,0,0,1,.47,1.14,1.55,1.55,0,0,1-.29.93,1.92,1.92,0,0,1-.87.66,3.68,3.68,0,0,1-1.39.24A3.27,3.27,0,0,1,461.41,123.81Z"/></g><g class="cls-7"><path class="cls-8" d="M54.16,123.21a3.49,3.49,0,0,1-.9-2.38c0-.21,0-.57,0-1s0-.86,0-1.08a3.51,3.51,0,0,1,.9-2.39,3.19,3.19,0,0,1,2.43-.87,4,4,0,0,1,1.81.38,2.67,2.67,0,0,1,1.53,2.3.21.21,0,0,1-.07.17.28.28,0,0,1-.19.07h-.6a.29.29,0,0,1-.19-.06.35.35,0,0,1-.11-.2,2,2,0,0,0-.74-1.3,2.46,2.46,0,0,0-1.44-.37c-1.4,0-2.12.77-2.18,2.33,0,.21,0,.54,0,1s0,.79,0,1c.06,1.55.78,2.32,2.18,2.32a2.56,2.56,0,0,0,1.44-.37,2,2,0,0,0,.74-1.29.35.35,0,0,1,.11-.2.29.29,0,0,1,.19-.06h.6a.33.33,0,0,1,.19.06.24.24,0,0,1,.07.18,2.72,2.72,0,0,1-.41,1.31,2.87,2.87,0,0,1-1.12,1,4,4,0,0,1-1.81.37A3.19,3.19,0,0,1,54.16,123.21Z"/><path class="cls-8" d="M62.05,123.84a2,2,0,0,1-.79-.65,1.52,1.52,0,0,1-.29-.92,1.55,1.55,0,0,1,.64-1.29,3.82,3.82,0,0,1,1.77-.68l1.8-.25v-.35c0-.82-.48-1.23-1.43-1.23a1.59,1.59,0,0,0-.89.22,1.42,1.42,0,0,0-.49.52.36.36,0,0,1-.1.16.25.25,0,0,1-.15,0h-.47a.29.29,0,0,1-.19-.08.26.26,0,0,1-.07-.19,1.16,1.16,0,0,1,.25-.64,2.21,2.21,0,0,1,.8-.64,2.93,2.93,0,0,1,1.32-.27,2.53,2.53,0,0,1,1.93.63,2.17,2.17,0,0,1,.58,1.56v3.9a.3.3,0,0,1-.08.2.27.27,0,0,1-.2.07h-.52a.27.27,0,0,1-.2-.07.35.35,0,0,1-.07-.2v-.53a2,2,0,0,1-.77.66,2.69,2.69,0,0,1-1.29.26A2.49,2.49,0,0,1,62.05,123.84Zm2.62-1.15a2,2,0,0,0,.51-1.5v-.33l-1.41.2a3.26,3.26,0,0,0-1.3.41.84.84,0,0,0-.45.72.85.85,0,0,0,.4.75,1.85,1.85,0,0,0,2.25-.25Z"/><path class="cls-8" d="M68.09,123.89a.26.26,0,0,1-.08-.2V118a.24.24,0,0,1,.08-.2.26.26,0,0,1,.19-.08h.51a.26.26,0,0,1,.19.08.27.27,0,0,1,.07.2v.41a2.14,2.14,0,0,1,1.75-.81,1.93,1.93,0,0,1,1.88,1.11,2.06,2.06,0,0,1,.82-.81,2.39,2.39,0,0,1,1.19-.3,2.1,2.1,0,0,1,1.61.68,2.71,2.71,0,0,1,.63,1.94v3.47a.3.3,0,0,1-.08.2.27.27,0,0,1-.2.07h-.52a.25.25,0,0,1-.19-.07.26.26,0,0,1-.08-.2v-3.36a2,2,0,0,0-.4-1.38,1.39,1.39,0,0,0-1-.41,1.3,1.3,0,0,0-1,.43,1.86,1.86,0,0,0-.42,1.36v3.36a.24.24,0,0,1-.27.27h-.53a.27.27,0,0,1-.2-.07.3.3,0,0,1-.08-.2v-3.36a1.89,1.89,0,0,0-.41-1.37,1.4,1.4,0,0,0-1-.42,1.35,1.35,0,0,0-1,.42,1.91,1.91,0,0,0-.41,1.36v3.37a.3.3,0,0,1-.08.2.27.27,0,0,1-.2.07h-.53A.25.25,0,0,1,68.09,123.89Z"/><path class="cls-8" d="M78.76,126.17a.23.23,0,0,1-.08-.2v-8a.22.22,0,0,1,.08-.2.26.26,0,0,1,.19-.08h.51a.28.28,0,0,1,.2.08.24.24,0,0,1,.07.2v.53a2.34,2.34,0,0,1,2-.93,2.27,2.27,0,0,1,1.89.8,3.39,3.39,0,0,1,.67,2c0,.08,0,.22,0,.4s0,.32,0,.41a3.4,3.4,0,0,1-.67,2,2.58,2.58,0,0,1-3.83-.11V126a.3.3,0,0,1-.08.2.27.27,0,0,1-.2.07H79A.25.25,0,0,1,78.76,126.17Zm4-3.56a2.52,2.52,0,0,0,.44-1.42c0-.08,0-.19,0-.35,0-1.53-.57-2.3-1.7-2.3a1.5,1.5,0,0,0-1.27.56,2.14,2.14,0,0,0-.45,1.31c0,.09,0,.25,0,.47s0,.38,0,.47a2,2,0,0,0,.46,1.26,1.52,1.52,0,0,0,1.26.54A1.44,1.44,0,0,0,82.74,122.61Z"/><path class="cls-8" d="M86.43,123.84a2,2,0,0,1-.79-.65,1.59,1.59,0,0,1-.29-.92A1.53,1.53,0,0,1,86,121a3.78,3.78,0,0,1,1.76-.68l1.8-.25v-.35c0-.82-.48-1.23-1.43-1.23a1.59,1.59,0,0,0-.89.22,1.51,1.51,0,0,0-.49.52.29.29,0,0,1-.1.16.25.25,0,0,1-.15,0H86a.25.25,0,0,1-.18-.08.24.24,0,0,1-.08-.19,1.11,1.11,0,0,1,.26-.64,2.09,2.09,0,0,1,.79-.64,2.93,2.93,0,0,1,1.32-.27,2.53,2.53,0,0,1,1.93.63,2.17,2.17,0,0,1,.58,1.56v3.9a.26.26,0,0,1-.08.2.25.25,0,0,1-.19.07h-.53a.24.24,0,0,1-.19-.07.3.3,0,0,1-.08-.2v-.53a2.07,2.07,0,0,1-.76.66,2.76,2.76,0,0,1-1.3.26A2.52,2.52,0,0,1,86.43,123.84Zm2.63-1.15a2.07,2.07,0,0,0,.5-1.5v-.33l-1.4.2a3.26,3.26,0,0,0-1.31.41.85.85,0,0,0,0,1.47,1.64,1.64,0,0,0,1,.27A1.73,1.73,0,0,0,89.06,122.69Z"/><path class="cls-8" d="M92.37,116.47a.27.27,0,0,1-.07-.2v-.62a.31.31,0,0,1,.07-.21.3.3,0,0,1,.2-.08h.71a.27.27,0,0,1,.29.29v.62a.28.28,0,0,1-.08.2.32.32,0,0,1-.21.08h-.71A.3.3,0,0,1,92.37,116.47Zm.1,7.42a.3.3,0,0,1-.08-.2V118a.27.27,0,0,1,.28-.28h.53a.26.26,0,0,1,.19.08.24.24,0,0,1,.08.2v5.69a.26.26,0,0,1-.08.2.25.25,0,0,1-.19.07h-.53A.27.27,0,0,1,92.47,123.89Z"/><path class="cls-8" d="M96.21,126.27a2.23,2.23,0,0,1-.85-.77,1.62,1.62,0,0,1-.24-.74.22.22,0,0,1,.08-.19.29.29,0,0,1,.19-.08h.53a.28.28,0,0,1,.18.06.35.35,0,0,1,.12.19,1.43,1.43,0,0,0,1.52,1,2,2,0,0,0,1.34-.38,1.8,1.8,0,0,0,.43-1.36v-.82a2.34,2.34,0,0,1-2,.88,2.27,2.27,0,0,1-1.9-.81,3.43,3.43,0,0,1-.66-2.07l0-.33,0-.33a3.39,3.39,0,0,1,.66-2,2.25,2.25,0,0,1,1.9-.83,2.32,2.32,0,0,1,2,.93V118a.28.28,0,0,1,.08-.2.25.25,0,0,1,.2-.09h.51a.25.25,0,0,1,.2.09.28.28,0,0,1,.08.2v5.82a2.46,2.46,0,0,1-2.8,2.77A3.3,3.3,0,0,1,96.21,126.27Zm2.84-3.73a2.3,2.3,0,0,0,.46-1.31,4.14,4.14,0,0,0,0-.42,4,4,0,0,0,0-.41,2.3,2.3,0,0,0-.46-1.31,1.51,1.51,0,0,0-1.27-.55,1.41,1.41,0,0,0-1.25.55,2.51,2.51,0,0,0-.43,1.41v.63a2.51,2.51,0,0,0,.43,1.41,1.41,1.41,0,0,0,1.25.55A1.51,1.51,0,0,0,99.05,122.54Z"/><path class="cls-8" d="M102.49,123.89a.3.3,0,0,1-.08-.2V118a.27.27,0,0,1,.28-.28h.51a.29.29,0,0,1,.21.08.24.24,0,0,1,.07.2v.53a2.58,2.58,0,0,1,.83-.69,2.63,2.63,0,0,1,1.19-.24,2.23,2.23,0,0,1,1.78.74,2.85,2.85,0,0,1,.64,2v3.4a.3.3,0,0,1-.08.2.27.27,0,0,1-.2.07h-.55a.24.24,0,0,1-.27-.27v-3.33a2,2,0,0,0-.42-1.34,1.51,1.51,0,0,0-1.2-.48A1.59,1.59,0,0,0,104,119a1.88,1.88,0,0,0-.45,1.33v3.33a.3.3,0,0,1-.08.2.27.27,0,0,1-.2.07h-.55A.27.27,0,0,1,102.49,123.89Z"/></g><g class="cls-7"><path class="cls-8" d="M322.78,123.89a.3.3,0,0,1-.08-.2v-7.84a.29.29,0,0,1,.08-.21.24.24,0,0,1,.19-.08h3.27a2.69,2.69,0,0,1,1.92.62,2.05,2.05,0,0,1,.65,1.59,1.9,1.9,0,0,1-.31,1.12,2,2,0,0,1-.73.66,2.21,2.21,0,0,1,.86.78,2.15,2.15,0,0,1,.35,1.21,2.38,2.38,0,0,1-.31,1.22,2.18,2.18,0,0,1-.9.88,2.93,2.93,0,0,1-1.43.32H323A.24.24,0,0,1,322.78,123.89Zm3.28-4.76a1.75,1.75,0,0,0,1.19-.36,1.23,1.23,0,0,0,.41-1,1.12,1.12,0,0,0-.4-.94,1.87,1.87,0,0,0-1.2-.33h-2.23v2.62Zm.12,3.89a1.66,1.66,0,0,0,1.21-.42,1.51,1.51,0,0,0,0-2.13,1.7,1.7,0,0,0-1.21-.41h-2.35v3Z"/><path class="cls-8" d="M331.05,123.34a2.9,2.9,0,0,1-.76-2v-1a2.87,2.87,0,0,1,.77-2,3.11,3.11,0,0,1,4.05,0,2.87,2.87,0,0,1,.77,2,4.43,4.43,0,0,1,0,.51,4.61,4.61,0,0,1,0,.52,3,3,0,0,1-.76,2,3.17,3.17,0,0,1-4.07,0Zm3.25-.64a2.16,2.16,0,0,0,.49-1.4c0-.08,0-.23,0-.46s0-.37,0-.45a2.14,2.14,0,0,0-.49-1.4,1.76,1.76,0,0,0-2.44,0,2.14,2.14,0,0,0-.48,1.4v.91a2.16,2.16,0,0,0,.48,1.4,1.79,1.79,0,0,0,2.44,0Z"/><path class="cls-8" d="M337.91,123.34a3,3,0,0,1-.76-2v-1a2.83,2.83,0,0,1,.78-2,2.66,2.66,0,0,1,2-.75,2.69,2.69,0,0,1,2,.75,2.87,2.87,0,0,1,.77,2,4.49,4.49,0,0,1,0,.51,4.67,4.67,0,0,1,0,.52,2.9,2.9,0,0,1-.76,2,3.17,3.17,0,0,1-4.07,0Zm3.25-.64a2.06,2.06,0,0,0,.49-1.4c0-.08,0-.23,0-.46s0-.37,0-.45a2,2,0,0,0-.49-1.4,1.75,1.75,0,0,0-2.43,0,2.14,2.14,0,0,0-.49,1.4v.91a2.16,2.16,0,0,0,.49,1.4,1.78,1.78,0,0,0,2.43,0Z"/><path class="cls-8" d="M344.37,123.89a.3.3,0,0,1-.08-.2v-8a.25.25,0,0,1,.08-.2.28.28,0,0,1,.2-.08h.51a.27.27,0,0,1,.28.28v4.19l2.4-2a1.55,1.55,0,0,1,.25-.17.59.59,0,0,1,.23,0h.6a.24.24,0,0,1,.17.07.24.24,0,0,1,.07.19.35.35,0,0,1-.13.22l-2.81,2.31,3.11,3a.42.42,0,0,1,.13.23.24.24,0,0,1-.07.18.21.21,0,0,1-.17.07h-.59a.79.79,0,0,1-.26,0,1.46,1.46,0,0,1-.22-.17l-2.71-2.57v2.5a.3.3,0,0,1-.08.2.27.27,0,0,1-.2.07h-.51A.27.27,0,0,1,344.37,123.89Z"/><path class="cls-8" d="M350.42,116.47a.24.24,0,0,1-.08-.2v-.62a.28.28,0,0,1,.08-.21.26.26,0,0,1,.19-.08h.71a.27.27,0,0,1,.29.29v.62a.28.28,0,0,1-.08.2.32.32,0,0,1-.21.08h-.71A.26.26,0,0,1,350.42,116.47Zm.09,7.42a.3.3,0,0,1-.08-.2V118a.27.27,0,0,1,.28-.28h.53a.3.3,0,0,1,.2.08.27.27,0,0,1,.07.2v5.69a.24.24,0,0,1-.27.27h-.53A.27.27,0,0,1,350.51,123.89Z"/><path class="cls-8" d="M353.39,123.89a.3.3,0,0,1-.08-.2V118a.27.27,0,0,1,.28-.28h.52a.28.28,0,0,1,.2.08.24.24,0,0,1,.07.2v.53a2.51,2.51,0,0,1,.84-.69,2.58,2.58,0,0,1,1.18-.24,2.25,2.25,0,0,1,1.79.74,2.89,2.89,0,0,1,.63,2v3.4a.26.26,0,0,1-.08.2.25.25,0,0,1-.19.07H358a.25.25,0,0,1-.19-.07.26.26,0,0,1-.08-.2v-3.33a2,2,0,0,0-.42-1.34,1.51,1.51,0,0,0-1.2-.48,1.6,1.6,0,0,0-1.23.49,1.88,1.88,0,0,0-.45,1.33v3.33a.3.3,0,0,1-.08.2.27.27,0,0,1-.2.07h-.55A.27.27,0,0,1,353.39,123.89Z"/><path class="cls-8" d="M361.5,126.27a2.23,2.23,0,0,1-.85-.77,1.62,1.62,0,0,1-.24-.74.22.22,0,0,1,.08-.19.29.29,0,0,1,.19-.08h.53a.28.28,0,0,1,.18.06.35.35,0,0,1,.12.19,1.43,1.43,0,0,0,1.52,1,2,2,0,0,0,1.34-.38,1.8,1.8,0,0,0,.43-1.36v-.82a2.34,2.34,0,0,1-1.95.88,2.27,2.27,0,0,1-1.9-.81,3.43,3.43,0,0,1-.66-2.07l0-.33,0-.33a3.39,3.39,0,0,1,.66-2,2.25,2.25,0,0,1,1.9-.83,2.33,2.33,0,0,1,2,.93V118a.28.28,0,0,1,.08-.2.25.25,0,0,1,.2-.09h.51a.25.25,0,0,1,.2.09.28.28,0,0,1,.08.2v5.82a2.46,2.46,0,0,1-2.8,2.77A3.3,3.3,0,0,1,361.5,126.27Zm2.84-3.73a2.3,2.3,0,0,0,.46-1.31,4.14,4.14,0,0,0,0-.42,4,4,0,0,0,0-.41,2.3,2.3,0,0,0-.46-1.31,1.51,1.51,0,0,0-1.27-.55,1.41,1.41,0,0,0-1.25.55,2.51,2.51,0,0,0-.43,1.41v.63a2.51,2.51,0,0,0,.43,1.41,1.41,1.41,0,0,0,1.25.55A1.51,1.51,0,0,0,364.34,122.54Z"/><path class="cls-8" d="M368.44,123.81a2.42,2.42,0,0,1-.85-.61,1.08,1.08,0,0,1-.27-.58.26.26,0,0,1,.08-.19.32.32,0,0,1,.18-.06h.51l.11,0a.37.37,0,0,1,.11.11,2.37,2.37,0,0,0,.62.53,1.88,1.88,0,0,0,.92.19,2,2,0,0,0,1-.24.77.77,0,0,0,.39-.7.69.69,0,0,0-.17-.48,1.5,1.5,0,0,0-.56-.32,8.16,8.16,0,0,0-1.16-.31,3,3,0,0,1-1.47-.66,1.51,1.51,0,0,1-.43-1.12,1.57,1.57,0,0,1,.26-.86,2,2,0,0,1,.79-.67,2.77,2.77,0,0,1,1.24-.26,3,3,0,0,1,1.29.26,2.21,2.21,0,0,1,.8.58,1,1,0,0,1,.27.57.22.22,0,0,1-.08.18.24.24,0,0,1-.18.07h-.46a.25.25,0,0,1-.24-.13c-.13-.15-.25-.27-.34-.36a1.24,1.24,0,0,0-.4-.21,2.1,2.1,0,0,0-.66-.09,1.46,1.46,0,0,0-.9.24.81.81,0,0,0-.31.66.64.64,0,0,0,.13.42,1.13,1.13,0,0,0,.5.33,6.89,6.89,0,0,0,1.11.3,3.37,3.37,0,0,1,1.61.69,1.46,1.46,0,0,1,.47,1.14,1.55,1.55,0,0,1-.29.93,2,2,0,0,1-.88.66,3.59,3.59,0,0,1-1.38.24A3.27,3.27,0,0,1,368.44,123.81Z"/></g><g class="cls-7"><path class="cls-3" d="M73.7,174.38a.26.26,0,0,1-.09-.24l.27-1.73H72.53a.36.36,0,0,1-.27-.1.35.35,0,0,1-.1-.26v-.93a.34.34,0,0,1,.37-.37h1.6l.35-2.4H72.94a.34.34,0,0,1-.26-.1.37.37,0,0,1-.11-.27v-.93a.36.36,0,0,1,.11-.26.34.34,0,0,1,.26-.1h1.79L75,165a.41.41,0,0,1,.13-.24.3.3,0,0,1,.24-.1h.94a.34.34,0,0,1,.34.34l-.26,1.73h2l.26-1.73a.41.41,0,0,1,.13-.24.3.3,0,0,1,.24-.1h.94a.34.34,0,0,1,.34.34L80,166.69h1.33a.36.36,0,0,1,.27.1.4.4,0,0,1,.1.26V168a.41.41,0,0,1-.1.27.36.36,0,0,1-.27.1H79.77l-.36,2.4h1.52a.35.35,0,0,1,.26.1.36.36,0,0,1,.1.27v.93a.34.34,0,0,1-.36.36H79.16l-.25,1.73a.47.47,0,0,1-.13.24.32.32,0,0,1-.25.1h-1a.35.35,0,0,1-.25-.1.26.26,0,0,1-.09-.24l.28-1.73h-2l-.25,1.73a.47.47,0,0,1-.13.24.33.33,0,0,1-.26.1H74A.33.33,0,0,1,73.7,174.38Zm2.07-3.63h2l.35-2.4h-2Z"/><path class="cls-3" d="M86.62,175a.39.39,0,0,1-.11-.27v-8.26l-2.42,1.86a.38.38,0,0,1-.54-.08l-.69-.9a.4.4,0,0,1-.08-.22.37.37,0,0,1,.18-.32L86.54,164a.77.77,0,0,1,.4-.11h1.44a.37.37,0,0,1,.27.11.38.38,0,0,1,.12.28v10.43a.36.36,0,0,1-.12.27.33.33,0,0,1-.27.11H86.89A.36.36,0,0,1,86.62,175Z"/></g><g class="cls-7"><path class="cls-3" d="M134.73,175a.32.32,0,0,1-.08-.21v-6.19L132.84,170a.29.29,0,0,1-.19.06.25.25,0,0,1-.22-.12l-.52-.67a.27.27,0,0,1-.06-.17.3.3,0,0,1,.13-.24l2.69-2.08a.53.53,0,0,1,.3-.09h1.08a.29.29,0,0,1,.21.09.28.28,0,0,1,.08.2v7.82a.27.27,0,0,1-.29.29h-1.12A.3.3,0,0,1,134.73,175Z"/><path class="cls-3" d="M137.73,175.93a.27.27,0,0,1,0-.18l.31-2.05c0-.26.19-.39.4-.39h1.12a.26.26,0,0,1,.15.07.2.2,0,0,1,.06.15.67.67,0,0,1,0,.17l-.78,2a.42.42,0,0,1-.4.31h-.62A.19.19,0,0,1,137.73,175.93Z"/><path class="cls-3" d="M141.78,174.33a3.68,3.68,0,0,1-.86-2.32c0-.22,0-.59,0-1.11s0-.9,0-1.13a3.51,3.51,0,0,1,.87-2.3,3.64,3.64,0,0,1,4.77,0,3.51,3.51,0,0,1,.87,2.3c0,.45,0,.83,0,1.13s0,.67,0,1.11a3.68,3.68,0,0,1-.86,2.32,3.67,3.67,0,0,1-4.79,0Zm3.51-1a2.33,2.33,0,0,0,.4-1.38c0-.24,0-.59,0-1.07s0-.83,0-1a2.31,2.31,0,0,0-.4-1.36,1.47,1.47,0,0,0-2.23,0,2.31,2.31,0,0,0-.4,1.36c0,.22,0,.57,0,1s0,.83,0,1.07a2.33,2.33,0,0,0,.4,1.38,1.51,1.51,0,0,0,2.23,0Z"/><path class="cls-3" d="M149.69,174.33a3.63,3.63,0,0,1-.86-2.32c0-.22,0-.59,0-1.11s0-.9,0-1.13a3.56,3.56,0,0,1,.86-2.3,3.65,3.65,0,0,1,4.78,0,3.56,3.56,0,0,1,.87,2.3c0,.45,0,.83,0,1.13s0,.67,0,1.11a3.68,3.68,0,0,1-.86,2.32,3,3,0,0,1-2.4.89A3,3,0,0,1,149.69,174.33Zm3.51-1a2.27,2.27,0,0,0,.39-1.38c0-.24,0-.59,0-1.07s0-.83,0-1a2.24,2.24,0,0,0-.39-1.36,1.47,1.47,0,0,0-2.23,0,2.31,2.31,0,0,0-.4,1.36c0,.22,0,.57,0,1s0,.83,0,1.07a2.33,2.33,0,0,0,.4,1.38,1.51,1.51,0,0,0,2.23,0Z"/><path class="cls-3" d="M157.6,174.33a3.63,3.63,0,0,1-.86-2.32c0-.22,0-.59,0-1.11s0-.9,0-1.13a3.56,3.56,0,0,1,.86-2.3,3.65,3.65,0,0,1,4.78,0,3.51,3.51,0,0,1,.86,2.3c0,.45,0,.83,0,1.13s0,.67,0,1.11a3.63,3.63,0,0,1-.86,2.32,3.65,3.65,0,0,1-4.78,0Zm3.51-1a2.33,2.33,0,0,0,.39-1.38c0-.24,0-.59,0-1.07s0-.83,0-1a2.31,2.31,0,0,0-.39-1.36A1.35,1.35,0,0,0,160,168a1.32,1.32,0,0,0-1.11.51,2.31,2.31,0,0,0-.4,1.36c0,.22,0,.57,0,1s0,.83,0,1.07a2.33,2.33,0,0,0,.4,1.38,1.28,1.28,0,0,0,1.11.49A1.31,1.31,0,0,0,161.11,173.33Z"/><path class="cls-3" d="M164.37,175.93a.23.23,0,0,1-.05-.18l.31-2.05c.05-.26.18-.39.4-.39h1.12a.26.26,0,0,1,.15.07.2.2,0,0,1,.06.15.67.67,0,0,1,0,.17l-.78,2a.41.41,0,0,1-.4.31h-.62A.19.19,0,0,1,164.37,175.93Z"/><path class="cls-3" d="M168.42,174.33a3.68,3.68,0,0,1-.86-2.32c0-.22,0-.59,0-1.11s0-.9,0-1.13a3.51,3.51,0,0,1,.87-2.3,3.64,3.64,0,0,1,4.77,0,3.51,3.51,0,0,1,.87,2.3c0,.45,0,.83,0,1.13s0,.67,0,1.11a3.68,3.68,0,0,1-.86,2.32,3.67,3.67,0,0,1-4.79,0Zm3.51-1a2.33,2.33,0,0,0,.4-1.38c0-.24,0-.59,0-1.07s0-.83,0-1a2.31,2.31,0,0,0-.4-1.36,1.47,1.47,0,0,0-2.23,0,2.31,2.31,0,0,0-.4,1.36c0,.22,0,.57,0,1s0,.83,0,1.07a2.33,2.33,0,0,0,.4,1.38,1.51,1.51,0,0,0,2.23,0Z"/><path class="cls-3" d="M176.33,174.33a3.63,3.63,0,0,1-.86-2.32c0-.22,0-.59,0-1.11s0-.9,0-1.13a3.51,3.51,0,0,1,.87-2.3,3.64,3.64,0,0,1,4.77,0,3.51,3.51,0,0,1,.86,2.3c0,.45,0,.83,0,1.13s0,.67,0,1.11a3.62,3.62,0,0,1-.85,2.32,3.67,3.67,0,0,1-4.79,0Zm3.51-1a2.27,2.27,0,0,0,.39-1.38c0-.24,0-.59,0-1.07s0-.83,0-1a2.24,2.24,0,0,0-.39-1.36,1.35,1.35,0,0,0-1.12-.51,1.33,1.33,0,0,0-1.11.51,2.31,2.31,0,0,0-.4,1.36c0,.22,0,.57,0,1s0,.83,0,1.07a2.33,2.33,0,0,0,.4,1.38,1.29,1.29,0,0,0,1.11.49A1.31,1.31,0,0,0,179.84,173.33Z"/><path class="cls-3" d="M184.24,174.33a3.63,3.63,0,0,1-.86-2.32c0-.22,0-.59,0-1.11s0-.9,0-1.13a3.56,3.56,0,0,1,.86-2.3,3.65,3.65,0,0,1,4.78,0,3.56,3.56,0,0,1,.86,2.3c0,.45,0,.83,0,1.13s0,.67,0,1.11a3.57,3.57,0,0,1-.86,2.32,3.65,3.65,0,0,1-4.78,0Zm3.51-1a2.27,2.27,0,0,0,.39-1.38c0-.24,0-.59,0-1.07s0-.83,0-1a2.24,2.24,0,0,0-.39-1.36,1.48,1.48,0,0,0-2.24,0,2.31,2.31,0,0,0-.39,1.36c0,.22,0,.57,0,1s0,.83,0,1.07a2.33,2.33,0,0,0,.39,1.38,1.52,1.52,0,0,0,2.24,0Z"/></g><g class="cls-7"><path class="cls-3" d="M278.79,175a.32.32,0,0,1-.08-.21v-1.53h-3.8a.29.29,0,0,1-.21-.09.28.28,0,0,1-.08-.2v-.83a.55.55,0,0,1,.13-.36l3.54-4.89a.34.34,0,0,1,.18-.15.58.58,0,0,1,.26-.06h1.32a.29.29,0,0,1,.21.08.25.25,0,0,1,.08.21v4.86h1.08a.27.27,0,0,1,.29.29V173a.28.28,0,0,1-.08.2.26.26,0,0,1-.21.09h-1.08v1.53a.28.28,0,0,1-.08.21.29.29,0,0,1-.21.08H279A.32.32,0,0,1,278.79,175Zm-2.48-3.12h2.44v-3.45Z"/><path class="cls-3" d="M283.65,174.33a3.63,3.63,0,0,1-.86-2.32c0-.22,0-.59,0-1.11s0-.9,0-1.13a3.56,3.56,0,0,1,.86-2.3,3.65,3.65,0,0,1,4.78,0,3.51,3.51,0,0,1,.86,2.3c0,.45,0,.83,0,1.13s0,.67,0,1.11a3.62,3.62,0,0,1-.85,2.32,3,3,0,0,1-2.4.89A3,3,0,0,1,283.65,174.33Zm3.51-1a2.27,2.27,0,0,0,.39-1.38c0-.24,0-.59,0-1.07s0-.83,0-1a2.24,2.24,0,0,0-.39-1.36A1.35,1.35,0,0,0,286,168a1.33,1.33,0,0,0-1.11.51,2.31,2.31,0,0,0-.4,1.36c0,.22,0,.57,0,1s0,.83,0,1.07a2.33,2.33,0,0,0,.4,1.38,1.29,1.29,0,0,0,1.11.49A1.31,1.31,0,0,0,287.16,173.33Z"/><path class="cls-3" d="M291.56,174.33a3.63,3.63,0,0,1-.86-2.32c0-.22,0-.59,0-1.11s0-.9,0-1.13a3.56,3.56,0,0,1,.86-2.3,3.65,3.65,0,0,1,4.78,0,3.56,3.56,0,0,1,.86,2.3c0,.45,0,.83,0,1.13s0,.67,0,1.11a3.63,3.63,0,0,1-.86,2.32,3.65,3.65,0,0,1-4.78,0Zm3.51-1a2.33,2.33,0,0,0,.39-1.38c0-.24,0-.59,0-1.07s0-.83,0-1a2.31,2.31,0,0,0-.39-1.36,1.48,1.48,0,0,0-2.24,0,2.31,2.31,0,0,0-.39,1.36c0,.22,0,.57,0,1s0,.83,0,1.07a2.33,2.33,0,0,0,.39,1.38,1.52,1.52,0,0,0,2.24,0Z"/></g><g class="cls-7"><path class="cls-8" d="M213.71,175a.32.32,0,0,1-.08-.21v-.62a.68.68,0,0,1,.3-.56l1.87-1.86c.57-.45,1-.82,1.31-1.1a4.16,4.16,0,0,0,.69-.79,1.33,1.33,0,0,0-.07-1.59,1.16,1.16,0,0,0-.91-.33,1.24,1.24,0,0,0-.94.36,1.62,1.62,0,0,0-.43.91.3.3,0,0,1-.14.21.34.34,0,0,1-.22.07H214a.24.24,0,0,1-.25-.25,2.85,2.85,0,0,1,.39-1.33,2.65,2.65,0,0,1,1-1,3.2,3.2,0,0,1,1.61-.38,3.67,3.67,0,0,1,1.63.33,2.34,2.34,0,0,1,1,.9,2.6,2.6,0,0,1,.33,1.31,2.52,2.52,0,0,1-.45,1.46,6.72,6.72,0,0,1-1.39,1.4l-1.67,1.69h3.39a.33.33,0,0,1,.22.08.29.29,0,0,1,.08.22v.86a.25.25,0,0,1-.08.21.29.29,0,0,1-.22.08h-5.74A.32.32,0,0,1,213.71,175Z"/><path class="cls-8" d="M222.08,174.33a3.68,3.68,0,0,1-.86-2.32c0-.22,0-.59,0-1.11s0-.9,0-1.13a3.51,3.51,0,0,1,.87-2.3,3.64,3.64,0,0,1,4.77,0,3.51,3.51,0,0,1,.87,2.3c0,.45,0,.83,0,1.13s0,.67,0,1.11a3.68,3.68,0,0,1-.86,2.32,3.67,3.67,0,0,1-4.79,0Zm3.51-1A2.33,2.33,0,0,0,226,172c0-.24,0-.59,0-1.07s0-.83,0-1a2.31,2.31,0,0,0-.4-1.36,1.47,1.47,0,0,0-2.23,0,2.31,2.31,0,0,0-.4,1.36c0,.22,0,.57,0,1s0,.83,0,1.07a2.33,2.33,0,0,0,.4,1.38,1.51,1.51,0,0,0,2.23,0Z"/><path class="cls-8" d="M230,174.33a3.68,3.68,0,0,1-.86-2.32c0-.22,0-.59,0-1.11s0-.9,0-1.13a3.51,3.51,0,0,1,.87-2.3,3.64,3.64,0,0,1,4.77,0,3.56,3.56,0,0,1,.87,2.3c0,.45,0,.83,0,1.13s0,.67,0,1.11a3.68,3.68,0,0,1-.86,2.32,3.67,3.67,0,0,1-4.79,0Zm3.51-1a2.33,2.33,0,0,0,.4-1.38c0-.24,0-.59,0-1.07s0-.83,0-1a2.31,2.31,0,0,0-.4-1.36,1.47,1.47,0,0,0-2.23,0,2.31,2.31,0,0,0-.4,1.36c0,.22,0,.57,0,1s0,.83,0,1.07a2.33,2.33,0,0,0,.4,1.38,1.51,1.51,0,0,0,2.23,0Z"/><path class="cls-8" d="M237.9,174.33A3.63,3.63,0,0,1,237,172c0-.22,0-.59,0-1.11s0-.9,0-1.13a3.56,3.56,0,0,1,.86-2.3,3.65,3.65,0,0,1,4.78,0,3.51,3.51,0,0,1,.86,2.3c0,.45,0,.83,0,1.13s0,.67,0,1.11a3.62,3.62,0,0,1-.85,2.32,3,3,0,0,1-2.4.89A3,3,0,0,1,237.9,174.33Zm3.51-1a2.27,2.27,0,0,0,.39-1.38c0-.24,0-.59,0-1.07s0-.83,0-1a2.24,2.24,0,0,0-.39-1.36,1.35,1.35,0,0,0-1.12-.51,1.33,1.33,0,0,0-1.11.51,2.31,2.31,0,0,0-.4,1.36c0,.22,0,.57,0,1s0,.83,0,1.07a2.33,2.33,0,0,0,.4,1.38,1.29,1.29,0,0,0,1.11.49A1.31,1.31,0,0,0,241.41,173.33Z"/><path class="cls-8" d="M245.81,174.33A3.63,3.63,0,0,1,245,172c0-.22,0-.59,0-1.11s0-.9,0-1.13a3.56,3.56,0,0,1,.86-2.3,3.65,3.65,0,0,1,4.78,0,3.56,3.56,0,0,1,.86,2.3c0,.45,0,.83,0,1.13s0,.67,0,1.11a3.63,3.63,0,0,1-.86,2.32,3.65,3.65,0,0,1-4.78,0Zm3.51-1a2.33,2.33,0,0,0,.39-1.38c0-.24,0-.59,0-1.07s0-.83,0-1a2.31,2.31,0,0,0-.39-1.36,1.48,1.48,0,0,0-2.24,0,2.31,2.31,0,0,0-.39,1.36c0,.22,0,.57,0,1s0,.83,0,1.07a2.33,2.33,0,0,0,.39,1.38,1.52,1.52,0,0,0,2.24,0Z"/></g><g class="cls-7"><path class="cls-8" d="M341.62,174.84a2.78,2.78,0,0,1-1.59-2.57,4,4,0,0,1,.94-2.33l2.18-3a.76.76,0,0,1,.18-.18.43.43,0,0,1,.24-.06h1.14a.21.21,0,0,1,.17.08.25.25,0,0,1,.07.19.3.3,0,0,1-.05.15l-1.68,2.32a2.3,2.3,0,0,1,.51-.05,3.14,3.14,0,0,1,1.48.39,2.89,2.89,0,0,1,1.08,1,2.65,2.65,0,0,1,.4,1.44,2.85,2.85,0,0,1-.4,1.49,2.93,2.93,0,0,1-1.15,1.08,3.64,3.64,0,0,1-1.75.4A4,4,0,0,1,341.62,174.84Zm2.89-1.42a1.46,1.46,0,0,0,.46-1.15,1.42,1.42,0,0,0-.46-1.13,1.76,1.76,0,0,0-2.28,0,1.42,1.42,0,0,0-.46,1.13,1.46,1.46,0,0,0,.46,1.15,1.68,1.68,0,0,0,1.14.41A1.72,1.72,0,0,0,344.51,173.42Z"/><path class="cls-8" d="M348.64,174.33a3.68,3.68,0,0,1-.86-2.32c0-.22,0-.59,0-1.11s0-.9,0-1.13a3.51,3.51,0,0,1,.87-2.3,3.64,3.64,0,0,1,4.77,0,3.51,3.51,0,0,1,.87,2.3c0,.45,0,.83,0,1.13s0,.67,0,1.11a3.68,3.68,0,0,1-.86,2.32,3.67,3.67,0,0,1-4.79,0Zm3.51-1a2.33,2.33,0,0,0,.4-1.38c0-.24,0-.59,0-1.07s0-.83,0-1a2.31,2.31,0,0,0-.4-1.36,1.47,1.47,0,0,0-2.23,0,2.31,2.31,0,0,0-.4,1.36c0,.22,0,.57,0,1s0,.83,0,1.07a2.33,2.33,0,0,0,.4,1.38,1.51,1.51,0,0,0,2.23,0Z"/></g><g class="cls-7"><path class="cls-3" d="M422.47,174.89a2.75,2.75,0,0,1-1.11-.85,2,2,0,0,1-.39-1,.29.29,0,0,1,.07-.18.24.24,0,0,1,.18-.07h1.11a.37.37,0,0,1,.36.24c.17.57.7.85,1.58.85a1.75,1.75,0,0,0,1.15-.34,1.17,1.17,0,0,0,.41-1,1,1,0,0,0-.38-.9,1.82,1.82,0,0,0-1.11-.28h-1.23a.29.29,0,0,1-.21-.09.28.28,0,0,1-.08-.2v-.52a.44.44,0,0,1,.16-.36l2.13-2.09h-3.42a.25.25,0,0,1-.21-.08.27.27,0,0,1-.09-.2V167a.31.31,0,0,1,.3-.3h5.16a.29.29,0,0,1,.22.09.29.29,0,0,1,.08.21v.73a.43.43,0,0,1-.15.34l-2.07,2.12.15,0a3.08,3.08,0,0,1,1.83.69,2.17,2.17,0,0,1,.67,1.72,2.3,2.3,0,0,1-.42,1.38,2.76,2.76,0,0,1-1.18.9,4.21,4.21,0,0,1-1.71.32A4.39,4.39,0,0,1,422.47,174.89Z"/><path class="cls-3" d="M429.65,174.33a3.62,3.62,0,0,1-.85-2.32c0-.22,0-.59,0-1.11s0-.9,0-1.13a3.51,3.51,0,0,1,.86-2.3,3.65,3.65,0,0,1,4.78,0,3.56,3.56,0,0,1,.86,2.3c0,.45,0,.83,0,1.13s0,.67,0,1.11a3.63,3.63,0,0,1-.86,2.32,3,3,0,0,1-2.39.89A3,3,0,0,1,429.65,174.33Zm3.51-1a2.33,2.33,0,0,0,.4-1.38c0-.24,0-.59,0-1.07s0-.83,0-1a2.31,2.31,0,0,0-.4-1.36,1.33,1.33,0,0,0-1.11-.51,1.35,1.35,0,0,0-1.12.51,2.24,2.24,0,0,0-.39,1.36c0,.22,0,.57,0,1s0,.83,0,1.07a2.27,2.27,0,0,0,.39,1.38,1.31,1.31,0,0,0,1.12.49A1.29,1.29,0,0,0,433.16,173.33Z"/></g><g class="cls-7"><path class="cls-3" d="M72.45,235.66a.26.26,0,0,1-.09-.24l.28-1.73H71.28a.34.34,0,0,1-.37-.37v-.92a.34.34,0,0,1,.37-.37h1.6l.35-2.4H71.69a.36.36,0,0,1-.26-.11.35.35,0,0,1-.11-.26v-.93a.38.38,0,0,1,.37-.37h1.8l.25-1.72a.41.41,0,0,1,.13-.24.3.3,0,0,1,.24-.1h.94a.34.34,0,0,1,.34.34L75.13,228h2l.25-1.72a.47.47,0,0,1,.13-.24.31.31,0,0,1,.24-.1h.94a.33.33,0,0,1,.25.1.32.32,0,0,1,.09.24L78.76,228h1.33a.37.37,0,0,1,.27.11.35.35,0,0,1,.1.26v.93a.34.34,0,0,1-.1.26.37.37,0,0,1-.27.11H78.53l-.37,2.4h1.52a.35.35,0,0,1,.26.1.37.37,0,0,1,.11.27v.92a.37.37,0,0,1-.11.27.35.35,0,0,1-.26.1H77.92l-.26,1.73a.41.41,0,0,1-.13.24.36.36,0,0,1-.25.1h-1a.35.35,0,0,1-.24-.1.26.26,0,0,1-.09-.24l.27-1.73h-2L74,235.42a.41.41,0,0,1-.13.24.36.36,0,0,1-.26.1H72.7A.39.39,0,0,1,72.45,235.66ZM74.53,232h2l.35-2.4h-2Z"/><path class="cls-3" d="M82.05,236.27a.37.37,0,0,1-.12-.27v-.84a.94.94,0,0,1,.4-.75l2.5-2.48c.76-.6,1.34-1.08,1.75-1.46a5.46,5.46,0,0,0,.92-1.05,1.76,1.76,0,0,0,.3-.94,1.71,1.71,0,0,0-.39-1.19,1.59,1.59,0,0,0-1.22-.43,1.71,1.71,0,0,0-1.26.47,2.24,2.24,0,0,0-.57,1.23.46.46,0,0,1-.18.28.61.61,0,0,1-.3.08H82.45a.32.32,0,0,1-.34-.33,3.64,3.64,0,0,1,1.92-3.1,4.42,4.42,0,0,1,2.14-.5,4.82,4.82,0,0,1,2.18.44,3,3,0,0,1,1.34,1.21,3.51,3.51,0,0,1-.15,3.68,8.79,8.79,0,0,1-1.86,1.87l-2.23,2.25H90a.38.38,0,0,1,.29.12.39.39,0,0,1,.11.28V236a.39.39,0,0,1-.11.28.41.41,0,0,1-.29.1H82.32A.37.37,0,0,1,82.05,236.27Z"/></g><g class="cls-7"><path class="cls-3" d="M132.67,236.18a2.61,2.61,0,0,1-1.1-.89,2.29,2.29,0,0,1-.4-1.19v0a.23.23,0,0,1,.08-.17.28.28,0,0,1,.18-.06h1.13a.32.32,0,0,1,.35.24,1.39,1.39,0,0,0,.56.78,1.65,1.65,0,0,0,.92.25,1.57,1.57,0,0,0,1.11-.41,1.48,1.48,0,0,0,.44-1.13,1.37,1.37,0,0,0-.44-1.05,1.61,1.61,0,0,0-1.11-.4,1.42,1.42,0,0,0-.59.1,1.82,1.82,0,0,0-.44.26l-.11.07-.15.09-.14,0h-1.13a.27.27,0,0,1-.26-.26l.41-4.09a.31.31,0,0,1,.11-.25.37.37,0,0,1,.25-.09h4.51a.27.27,0,0,1,.29.29v.81a.32.32,0,0,1-.08.21.29.29,0,0,1-.21.08h-3.47l-.19,1.95a2.71,2.71,0,0,1,.64-.3,3.33,3.33,0,0,1,.93-.11,3.25,3.25,0,0,1,1.45.33,2.63,2.63,0,0,1,1.47,2.38,2.87,2.87,0,0,1-.41,1.53,2.7,2.7,0,0,1-1.15,1,4.55,4.55,0,0,1-3.45,0Z"/><path class="cls-3" d="M138.64,237.21a.23.23,0,0,1,0-.18l.31-2.05c0-.26.18-.39.4-.39h1.11a.24.24,0,0,1,.22.22.49.49,0,0,1,0,.17l-.78,2a.41.41,0,0,1-.39.31h-.63A.18.18,0,0,1,138.64,237.21Z"/><path class="cls-3" d="M142.69,235.61a3.65,3.65,0,0,1-.86-2.33c0-.21,0-.58,0-1.1s0-.9,0-1.13a3.56,3.56,0,0,1,.86-2.3,3.65,3.65,0,0,1,4.78,0,3.51,3.51,0,0,1,.86,2.3c0,.45,0,.83,0,1.13s0,.67,0,1.1a3.6,3.6,0,0,1-.86,2.33,3.65,3.65,0,0,1-4.78,0Zm3.51-1a2.3,2.3,0,0,0,.39-1.39c0-.23,0-.58,0-1.06s0-.83,0-1a2.3,2.3,0,0,0-.39-1.37,1.37,1.37,0,0,0-1.12-.5,1.35,1.35,0,0,0-1.11.5,2.37,2.37,0,0,0-.4,1.37c0,.22,0,.57,0,1s0,.83,0,1.06a2.37,2.37,0,0,0,.4,1.39,1.32,1.32,0,0,0,1.11.49A1.34,1.34,0,0,0,146.2,234.61Z"/><path class="cls-3" d="M150.59,235.61a3.7,3.7,0,0,1-.85-2.33c0-.21,0-.58,0-1.1s0-.9,0-1.13a3.51,3.51,0,0,1,.86-2.3,3.65,3.65,0,0,1,4.78,0,3.56,3.56,0,0,1,.86,2.3c0,.45,0,.83,0,1.13s0,.67,0,1.1a3.65,3.65,0,0,1-.86,2.33,3,3,0,0,1-2.39.89A3.07,3.07,0,0,1,150.59,235.61Zm3.51-1a2.37,2.37,0,0,0,.4-1.39c0-.23,0-.58,0-1.06s0-.83,0-1a2.37,2.37,0,0,0-.4-1.37,1.35,1.35,0,0,0-1.11-.5,1.37,1.37,0,0,0-1.12.5,2.37,2.37,0,0,0-.39,1.37c0,.22,0,.57,0,1s0,.83,0,1.06a2.37,2.37,0,0,0,.39,1.39,1.34,1.34,0,0,0,1.12.49A1.32,1.32,0,0,0,154.1,234.61Z"/><path class="cls-3" d="M158.5,235.61a3.71,3.71,0,0,1-.86-2.33c0-.21,0-.58,0-1.1s0-.9,0-1.13a3.51,3.51,0,0,1,.87-2.3,3.65,3.65,0,0,1,4.78,0,3.56,3.56,0,0,1,.86,2.3c0,.45,0,.83,0,1.13s0,.67,0,1.1a3.71,3.71,0,0,1-.86,2.33,3,3,0,0,1-2.39.89A3.07,3.07,0,0,1,158.5,235.61Zm3.51-1a2.37,2.37,0,0,0,.4-1.39c0-.23,0-.58,0-1.06s0-.83,0-1a2.37,2.37,0,0,0-.4-1.37,1.49,1.49,0,0,0-2.23,0,2.37,2.37,0,0,0-.4,1.37c0,.22,0,.57,0,1s0,.83,0,1.06a2.37,2.37,0,0,0,.4,1.39,1.51,1.51,0,0,0,2.23,0Z"/><path class="cls-3" d="M165.28,237.21a.23.23,0,0,1-.05-.18l.31-2.05c.05-.26.18-.39.4-.39h1.11a.24.24,0,0,1,.22.22.49.49,0,0,1,0,.17l-.78,2a.41.41,0,0,1-.39.31h-.63A.18.18,0,0,1,165.28,237.21Z"/><path class="cls-3" d="M169.33,235.61a3.65,3.65,0,0,1-.86-2.33c0-.21,0-.58,0-1.1s0-.9,0-1.13a3.56,3.56,0,0,1,.86-2.3,3.65,3.65,0,0,1,4.78,0,3.51,3.51,0,0,1,.86,2.3c0,.45,0,.83,0,1.13s0,.67,0,1.1a3.65,3.65,0,0,1-.85,2.33,3.07,3.07,0,0,1-2.4.89A3,3,0,0,1,169.33,235.61Zm3.51-1a2.3,2.3,0,0,0,.39-1.39c0-.23,0-.58,0-1.06s0-.83,0-1a2.3,2.3,0,0,0-.39-1.37,1.37,1.37,0,0,0-1.12-.5,1.34,1.34,0,0,0-1.11.5,2.37,2.37,0,0,0-.4,1.37c0,.22,0,.57,0,1s0,.83,0,1.06a2.37,2.37,0,0,0,.4,1.39,1.3,1.3,0,0,0,1.11.49A1.34,1.34,0,0,0,172.84,234.61Z"/><path class="cls-3" d="M177.24,235.61a3.65,3.65,0,0,1-.86-2.33c0-.21,0-.58,0-1.1s0-.9,0-1.13a3.56,3.56,0,0,1,.86-2.3,3.65,3.65,0,0,1,4.78,0,3.56,3.56,0,0,1,.86,2.3c0,.45,0,.83,0,1.13s0,.67,0,1.1a3.65,3.65,0,0,1-.86,2.33,3.65,3.65,0,0,1-4.78,0Zm3.51-1a2.37,2.37,0,0,0,.39-1.39c0-.23,0-.58,0-1.06s0-.83,0-1a2.37,2.37,0,0,0-.39-1.37,1.5,1.5,0,0,0-2.24,0,2.3,2.3,0,0,0-.39,1.37c0,.22,0,.57,0,1s0,.83,0,1.06a2.3,2.3,0,0,0,.39,1.39,1.52,1.52,0,0,0,2.24,0Z"/><path class="cls-3" d="M185.14,235.61a3.65,3.65,0,0,1-.85-2.33c0-.21,0-.58,0-1.1s0-.9,0-1.13a3.51,3.51,0,0,1,.86-2.3,3.65,3.65,0,0,1,4.78,0,3.56,3.56,0,0,1,.86,2.3c0,.45,0,.83,0,1.13s0,.67,0,1.1a3.65,3.65,0,0,1-.86,2.33,3,3,0,0,1-2.39.89A3.07,3.07,0,0,1,185.14,235.61Zm3.51-1a2.37,2.37,0,0,0,.4-1.39c0-.23,0-.58,0-1.06s0-.83,0-1a2.37,2.37,0,0,0-.4-1.37,1.35,1.35,0,0,0-1.11-.5,1.37,1.37,0,0,0-1.12.5,2.3,2.3,0,0,0-.39,1.37c0,.22,0,.57,0,1s0,.83,0,1.06a2.3,2.3,0,0,0,.39,1.39,1.34,1.34,0,0,0,1.12.49A1.32,1.32,0,0,0,188.65,234.61Z"/></g><g class="cls-7"><path class="cls-3" d="M276.33,236.16a2.72,2.72,0,0,1-1.11-.84,2,2,0,0,1-.39-1,.25.25,0,0,1,.08-.18.21.21,0,0,1,.18-.07h1.1a.35.35,0,0,1,.36.24c.18.56.7.85,1.58.85a1.75,1.75,0,0,0,1.15-.34,1.14,1.14,0,0,0,.41-1,1,1,0,0,0-.37-.9,1.86,1.86,0,0,0-1.11-.29H277a.24.24,0,0,1-.2-.08.27.27,0,0,1-.09-.2v-.52a.44.44,0,0,1,.16-.36l2.13-2.09h-3.42a.3.3,0,0,1-.21-.08.29.29,0,0,1-.09-.21v-.8a.29.29,0,0,1,.09-.22.3.3,0,0,1,.21-.08h5.16a.33.33,0,0,1,.22.08.29.29,0,0,1,.08.22V229a.43.43,0,0,1-.15.34l-2.07,2.12h.15a3.09,3.09,0,0,1,1.83.7,2.18,2.18,0,0,1,.68,1.72,2.35,2.35,0,0,1-.43,1.38,2.7,2.7,0,0,1-1.18.9,4.38,4.38,0,0,1-1.71.32A4.22,4.22,0,0,1,276.33,236.16Z"/><path class="cls-3" d="M283.52,235.61a3.65,3.65,0,0,1-.86-2.33c0-.21,0-.58,0-1.1s0-.9,0-1.13a3.56,3.56,0,0,1,.86-2.3,3.65,3.65,0,0,1,4.78,0,3.56,3.56,0,0,1,.86,2.3c0,.45,0,.83,0,1.13s0,.67,0,1.1a3.65,3.65,0,0,1-.86,2.33,3.65,3.65,0,0,1-4.78,0Zm3.51-1a2.37,2.37,0,0,0,.39-1.39c0-.23,0-.58,0-1.06s0-.83,0-1a2.37,2.37,0,0,0-.39-1.37,1.5,1.5,0,0,0-2.24,0,2.37,2.37,0,0,0-.39,1.37c0,.22,0,.57,0,1s0,.83,0,1.06a2.37,2.37,0,0,0,.39,1.39,1.52,1.52,0,0,0,2.24,0Z"/><path class="cls-3" d="M291.42,235.61a3.65,3.65,0,0,1-.85-2.33c0-.21,0-.58,0-1.1s0-.9,0-1.13a3.51,3.51,0,0,1,.86-2.3,3.65,3.65,0,0,1,4.78,0,3.56,3.56,0,0,1,.86,2.3c0,.45,0,.83,0,1.13s0,.67,0,1.1a3.65,3.65,0,0,1-.86,2.33,3,3,0,0,1-2.39.89A3.07,3.07,0,0,1,291.42,235.61Zm3.51-1a2.37,2.37,0,0,0,.4-1.39c0-.23,0-.58,0-1.06s0-.83,0-1a2.37,2.37,0,0,0-.4-1.37,1.35,1.35,0,0,0-1.11-.5,1.37,1.37,0,0,0-1.12.5,2.3,2.3,0,0,0-.39,1.37c0,.22,0,.57,0,1s0,.83,0,1.06a2.3,2.3,0,0,0,.39,1.39,1.34,1.34,0,0,0,1.12.49A1.32,1.32,0,0,0,294.93,234.61Z"/></g><g class="cls-7"><path class="cls-8" d="M217.65,236.3a.32.32,0,0,1-.08-.21v-1.53h-3.8a.29.29,0,0,1-.21-.09.28.28,0,0,1-.08-.2v-.83a.55.55,0,0,1,.13-.36l3.54-4.9a.45.45,0,0,1,.18-.15.75.75,0,0,1,.26-.05h1.32a.29.29,0,0,1,.21.08.25.25,0,0,1,.08.21v4.86h1.08a.25.25,0,0,1,.21.08.29.29,0,0,1,.08.21v.85a.28.28,0,0,1-.08.2.26.26,0,0,1-.21.09H219.2v1.53a.28.28,0,0,1-.08.21.29.29,0,0,1-.21.08h-1A.32.32,0,0,1,217.65,236.3Zm-2.48-3.12h2.44v-3.45Z"/><path class="cls-8" d="M222.92,236.18a2.61,2.61,0,0,1-1.1-.89,2.29,2.29,0,0,1-.4-1.19v0a.23.23,0,0,1,.08-.17.27.27,0,0,1,.17-.06h1.14a.32.32,0,0,1,.35.24,1.39,1.39,0,0,0,.56.78,1.65,1.65,0,0,0,.92.25,1.57,1.57,0,0,0,1.11-.41,1.48,1.48,0,0,0,.44-1.13,1.37,1.37,0,0,0-.44-1.05,1.61,1.61,0,0,0-1.11-.4,1.42,1.42,0,0,0-.59.1,1.82,1.82,0,0,0-.44.26l-.11.07-.15.09-.14,0h-1.13a.27.27,0,0,1-.26-.26l.41-4.09a.31.31,0,0,1,.11-.25.37.37,0,0,1,.25-.09h4.51a.27.27,0,0,1,.29.29v.81a.32.32,0,0,1-.08.21.29.29,0,0,1-.21.08h-3.47l-.19,1.95a2.63,2.63,0,0,1,.63-.3,3.46,3.46,0,0,1,.94-.11,3.25,3.25,0,0,1,1.45.33,2.63,2.63,0,0,1,1.47,2.38,2.87,2.87,0,0,1-.41,1.53,2.7,2.7,0,0,1-1.15,1,4.55,4.55,0,0,1-3.45,0Z"/><path class="cls-8" d="M230,235.61a3.65,3.65,0,0,1-.86-2.33c0-.21,0-.58,0-1.1s0-.9,0-1.13a3.51,3.51,0,0,1,.87-2.3,3.64,3.64,0,0,1,4.77,0,3.56,3.56,0,0,1,.87,2.3c0,.45,0,.83,0,1.13s0,.67,0,1.1a3.71,3.71,0,0,1-.86,2.33,3.67,3.67,0,0,1-4.79,0Zm3.51-1a2.3,2.3,0,0,0,.39-1.39c0-.23,0-.58,0-1.06s0-.83,0-1a2.3,2.3,0,0,0-.39-1.37,1.49,1.49,0,0,0-2.23,0,2.37,2.37,0,0,0-.4,1.37c0,.22,0,.57,0,1s0,.83,0,1.06a2.37,2.37,0,0,0,.4,1.39,1.51,1.51,0,0,0,2.23,0Z"/><path class="cls-8" d="M237.87,235.61a3.65,3.65,0,0,1-.86-2.33c0-.21,0-.58,0-1.1s0-.9,0-1.13a3.56,3.56,0,0,1,.86-2.3,3.65,3.65,0,0,1,4.78,0,3.51,3.51,0,0,1,.86,2.3c0,.45,0,.83,0,1.13s0,.67,0,1.1a3.65,3.65,0,0,1-.85,2.33,3.07,3.07,0,0,1-2.4.89A3,3,0,0,1,237.87,235.61Zm3.51-1a2.3,2.3,0,0,0,.39-1.39c0-.23,0-.58,0-1.06s0-.83,0-1a2.3,2.3,0,0,0-.39-1.37,1.37,1.37,0,0,0-1.12-.5,1.34,1.34,0,0,0-1.11.5,2.37,2.37,0,0,0-.4,1.37c0,.22,0,.57,0,1s0,.83,0,1.06a2.37,2.37,0,0,0,.4,1.39,1.3,1.3,0,0,0,1.11.49A1.34,1.34,0,0,0,241.38,234.61Z"/><path class="cls-8" d="M245.78,235.61a3.65,3.65,0,0,1-.86-2.33c0-.21,0-.58,0-1.1s0-.9,0-1.13a3.56,3.56,0,0,1,.86-2.3,3.65,3.65,0,0,1,4.78,0,3.56,3.56,0,0,1,.86,2.3c0,.45,0,.83,0,1.13s0,.67,0,1.1a3.65,3.65,0,0,1-.86,2.33,3.65,3.65,0,0,1-4.78,0Zm3.51-1a2.37,2.37,0,0,0,.39-1.39c0-.23,0-.58,0-1.06s0-.83,0-1a2.37,2.37,0,0,0-.39-1.37,1.5,1.5,0,0,0-2.24,0,2.37,2.37,0,0,0-.39,1.37c0,.22,0,.57,0,1s0,.83,0,1.06a2.37,2.37,0,0,0,.39,1.39,1.52,1.52,0,0,0,2.24,0Z"/></g><g class="cls-7"><path class="cls-8" d="M341.47,236.16a2.62,2.62,0,0,1-1.1-.84,1.84,1.84,0,0,1-.39-1,.24.24,0,0,1,.25-.25h1.1a.35.35,0,0,1,.36.24c.18.56.71.85,1.59.85a1.72,1.72,0,0,0,1.14-.34,1.15,1.15,0,0,0,.42-1,1,1,0,0,0-.38-.9,1.82,1.82,0,0,0-1.11-.29h-1.24a.24.24,0,0,1-.2-.08.27.27,0,0,1-.09-.2v-.52a.47.47,0,0,1,.16-.36l2.14-2.09H340.7a.33.33,0,0,1-.22-.08.32.32,0,0,1-.08-.21v-.8a.28.28,0,0,1,.3-.3h5.16a.29.29,0,0,1,.21.08.29.29,0,0,1,.09.22V229a.44.44,0,0,1-.16.34l-2.06,2.12h.14a3.09,3.09,0,0,1,1.83.7,2.18,2.18,0,0,1,.68,1.72,2.29,2.29,0,0,1-.43,1.38,2.67,2.67,0,0,1-1.17.9,4.38,4.38,0,0,1-1.71.32A4.24,4.24,0,0,1,341.47,236.16Z"/><path class="cls-8" d="M348.66,235.61a3.65,3.65,0,0,1-.86-2.33c0-.21,0-.58,0-1.1s0-.9,0-1.13a3.56,3.56,0,0,1,.86-2.3,3.65,3.65,0,0,1,4.78,0,3.51,3.51,0,0,1,.86,2.3c0,.45,0,.83,0,1.13s0,.67,0,1.1a3.65,3.65,0,0,1-.85,2.33,3.07,3.07,0,0,1-2.4.89A3,3,0,0,1,348.66,235.61Zm3.51-1a2.3,2.3,0,0,0,.39-1.39c0-.23,0-.58,0-1.06s0-.83,0-1a2.3,2.3,0,0,0-.39-1.37,1.37,1.37,0,0,0-1.12-.5,1.35,1.35,0,0,0-1.11.5,2.37,2.37,0,0,0-.4,1.37c0,.22,0,.57,0,1s0,.83,0,1.06a2.37,2.37,0,0,0,.4,1.39,1.32,1.32,0,0,0,1.11.49A1.34,1.34,0,0,0,352.17,234.61Z"/></g><g class="cls-7"><path class="cls-3" d="M426.42,236.16a2.62,2.62,0,0,1-1.1-.84,1.84,1.84,0,0,1-.39-1,.24.24,0,0,1,.25-.25h1.1a.35.35,0,0,1,.36.24c.18.56.7.85,1.59.85a1.74,1.74,0,0,0,1.14-.34,1.15,1.15,0,0,0,.42-1,1,1,0,0,0-.38-.9,1.84,1.84,0,0,0-1.11-.29h-1.24a.24.24,0,0,1-.2-.08.27.27,0,0,1-.09-.2v-.52a.44.44,0,0,1,.16-.36l2.14-2.09h-3.42a.33.33,0,0,1-.22-.08.29.29,0,0,1-.09-.21v-.8a.29.29,0,0,1,.09-.22.33.33,0,0,1,.22-.08h5.16a.3.3,0,0,1,.21.08.29.29,0,0,1,.09.22V229a.44.44,0,0,1-.16.34l-2.07,2.12H429a3.09,3.09,0,0,1,1.83.7,2.18,2.18,0,0,1,.68,1.72,2.29,2.29,0,0,1-.43,1.38,2.67,2.67,0,0,1-1.17.9,4.42,4.42,0,0,1-1.71.32A4.24,4.24,0,0,1,426.42,236.16Z"/></g><g class="cls-7"><path class="cls-3" d="M72.36,297.94a.31.31,0,0,1-.08-.24l.27-1.73H71.19a.34.34,0,0,1-.37-.37v-.93a.4.4,0,0,1,.1-.26.36.36,0,0,1,.27-.1h1.6l.35-2.4H71.6a.36.36,0,0,1-.26-.11.35.35,0,0,1-.1-.26v-.93a.33.33,0,0,1,.1-.26.36.36,0,0,1,.26-.11h1.8l.25-1.73a.56.56,0,0,1,.13-.24.32.32,0,0,1,.24-.09H75a.32.32,0,0,1,.34.33L75,290.24h2l.25-1.73a.7.7,0,0,1,.13-.24.36.36,0,0,1,.24-.09h.95a.31.31,0,0,1,.33.33l-.25,1.73H80a.37.37,0,0,1,.27.11.33.33,0,0,1,.1.26v.93a.35.35,0,0,1-.1.26.37.37,0,0,1-.27.11H78.44l-.37,2.4h1.52a.34.34,0,0,1,.26.1.36.36,0,0,1,.11.26v.93a.37.37,0,0,1-.11.27.38.38,0,0,1-.26.1H77.83l-.26,1.73a.47.47,0,0,1-.13.24.33.33,0,0,1-.25.09h-1a.36.36,0,0,1-.24-.09.28.28,0,0,1-.09-.24l.27-1.73h-2l-.26,1.73a.47.47,0,0,1-.13.24.35.35,0,0,1-.25.09h-1A.38.38,0,0,1,72.36,297.94Zm2.08-3.63h2l.35-2.4h-2Z"/><path class="cls-3" d="M83.71,298.37a3.56,3.56,0,0,1-1.47-1.13,2.52,2.52,0,0,1-.52-1.4.31.31,0,0,1,.33-.33h1.47a.46.46,0,0,1,.48.32c.24.75.94,1.13,2.12,1.13a2.32,2.32,0,0,0,1.52-.45,1.55,1.55,0,0,0,.56-1.28,1.39,1.39,0,0,0-.51-1.2,2.45,2.45,0,0,0-1.48-.38H84.56a.38.38,0,0,1-.38-.38v-.69a.57.57,0,0,1,.21-.48l2.85-2.79H82.68a.36.36,0,0,1-.29-.11.33.33,0,0,1-.11-.27v-1.07a.38.38,0,0,1,.4-.4h6.88a.36.36,0,0,1,.28.11.37.37,0,0,1,.12.29v1a.57.57,0,0,1-.21.45L87,292.11l.19,0a4,4,0,0,1,2.44.93,2.89,2.89,0,0,1,.9,2.29,3.07,3.07,0,0,1-.57,1.84,3.58,3.58,0,0,1-1.56,1.2,5.69,5.69,0,0,1-2.28.43A5.76,5.76,0,0,1,83.71,298.37Z"/></g><g class="cls-7"><path class="cls-3" d="M132.71,298.44a2.72,2.72,0,0,1-1.11-.84,1.9,1.9,0,0,1-.38-1.05.21.21,0,0,1,.07-.18.23.23,0,0,1,.18-.08h1.1a.35.35,0,0,1,.36.24c.18.57.7.86,1.58.86a1.81,1.81,0,0,0,1.15-.34,1.15,1.15,0,0,0,.42-1,1.07,1.07,0,0,0-.38-.91,1.93,1.93,0,0,0-1.11-.28h-1.24a.28.28,0,0,1-.2-.08.29.29,0,0,1-.09-.21v-.51a.44.44,0,0,1,.16-.36l2.13-2.09h-3.42a.3.3,0,0,1-.21-.08.29.29,0,0,1-.09-.21v-.8a.29.29,0,0,1,.09-.22.3.3,0,0,1,.21-.08h5.16a.31.31,0,0,1,.22.08.29.29,0,0,1,.08.22v.73a.43.43,0,0,1-.15.34l-2.06,2.12h.14a3.09,3.09,0,0,1,1.83.7,2.17,2.17,0,0,1,.68,1.71,2.31,2.31,0,0,1-.43,1.38,2.65,2.65,0,0,1-1.18.91,4.38,4.38,0,0,1-1.71.32A4.22,4.22,0,0,1,132.71,298.44Z"/><path class="cls-3" d="M138.89,299.49a.22.22,0,0,1,0-.18l.31-2.06c.05-.25.18-.38.39-.38h1.12a.18.18,0,0,1,.15.07.21.21,0,0,1,.07.15.41.41,0,0,1,0,.16l-.78,2a.42.42,0,0,1-.39.31h-.63A.24.24,0,0,1,138.89,299.49Z"/><path class="cls-3" d="M143.48,298.45a2.56,2.56,0,0,1-1.09-.88,2.29,2.29,0,0,1-.4-1.19v0a.23.23,0,0,1,.08-.16.27.27,0,0,1,.17-.06h1.14a.32.32,0,0,1,.35.24,1.39,1.39,0,0,0,.56.78,1.71,1.71,0,0,0,.92.25,1.6,1.6,0,0,0,1.11-.41,1.48,1.48,0,0,0,.44-1.13,1.37,1.37,0,0,0-.44-1.05,1.59,1.59,0,0,0-1.11-.4,1.42,1.42,0,0,0-.59.1,1.82,1.82,0,0,0-.44.26l-.11.07-.15.09-.14,0h-1.13a.25.25,0,0,1-.18-.08.22.22,0,0,1-.08-.18l.41-4.1a.3.3,0,0,1,.11-.24.36.36,0,0,1,.24-.09h4.52a.26.26,0,0,1,.21.08.29.29,0,0,1,.08.21v.81a.32.32,0,0,1-.08.21.3.3,0,0,1-.21.08H144.2l-.19,1.94a2.62,2.62,0,0,1,.63-.29,3.06,3.06,0,0,1,.94-.11,3.17,3.17,0,0,1,1.44.33,2.63,2.63,0,0,1,1.07.94,2.58,2.58,0,0,1,.41,1.44,2.87,2.87,0,0,1-.41,1.53,2.79,2.79,0,0,1-1.16,1,4.48,4.48,0,0,1-3.45,0Z"/><path class="cls-3" d="M150.53,297.89a3.65,3.65,0,0,1-.86-2.33c0-.21,0-.58,0-1.1s0-.91,0-1.13a3.56,3.56,0,0,1,.86-2.3,3.65,3.65,0,0,1,4.78,0,3.56,3.56,0,0,1,.87,2.3c0,.45,0,.82,0,1.13s0,.67,0,1.1a3.71,3.71,0,0,1-.86,2.33,3.07,3.07,0,0,1-2.4.89A3,3,0,0,1,150.53,297.89Zm3.51-1a2.32,2.32,0,0,0,.39-1.39c0-.23,0-.59,0-1.07s0-.82,0-1A2.3,2.3,0,0,0,154,292a1.34,1.34,0,0,0-1.12-.5,1.32,1.32,0,0,0-1.11.5,2.37,2.37,0,0,0-.4,1.37c0,.22,0,.56,0,1s0,.84,0,1.07a2.39,2.39,0,0,0,.4,1.39,1.31,1.31,0,0,0,1.11.48A1.33,1.33,0,0,0,154,296.89Z"/><path class="cls-3" d="M158.44,297.89a3.65,3.65,0,0,1-.86-2.33c0-.21,0-.58,0-1.1s0-.91,0-1.13a3.56,3.56,0,0,1,.86-2.3,3.65,3.65,0,0,1,4.78,0,3.51,3.51,0,0,1,.86,2.3c0,.45,0,.82,0,1.13s0,.67,0,1.1a3.65,3.65,0,0,1-.86,2.33,3.65,3.65,0,0,1-4.78,0Zm3.51-1a2.39,2.39,0,0,0,.39-1.39c0-.23,0-.59,0-1.07s0-.82,0-1A2.37,2.37,0,0,0,162,292a1.34,1.34,0,0,0-1.12-.5,1.31,1.31,0,0,0-1.11.5,2.37,2.37,0,0,0-.4,1.37c0,.22,0,.56,0,1s0,.84,0,1.07a2.39,2.39,0,0,0,.4,1.39,1.3,1.3,0,0,0,1.11.48A1.33,1.33,0,0,0,162,296.89Z"/><path class="cls-3" d="M165.21,299.49a.23.23,0,0,1-.05-.18l.31-2.06c.05-.25.18-.38.4-.38H167a.21.21,0,0,1,.15.07.2.2,0,0,1,.06.15.61.61,0,0,1,0,.16l-.78,2a.42.42,0,0,1-.4.31h-.62A.22.22,0,0,1,165.21,299.49Z"/><path class="cls-3" d="M169.26,297.89a3.71,3.71,0,0,1-.86-2.33c0-.21,0-.58,0-1.1s0-.91,0-1.13a3.51,3.51,0,0,1,.87-2.3,3.64,3.64,0,0,1,4.77,0,3.51,3.51,0,0,1,.87,2.3c0,.45,0,.82,0,1.13s0,.67,0,1.1a3.71,3.71,0,0,1-.86,2.33,3.67,3.67,0,0,1-4.79,0Zm3.51-1a2.39,2.39,0,0,0,.4-1.39c0-.23,0-.59,0-1.07s0-.82,0-1a2.37,2.37,0,0,0-.4-1.37,1.49,1.49,0,0,0-2.23,0,2.37,2.37,0,0,0-.4,1.37c0,.22,0,.56,0,1s0,.84,0,1.07a2.39,2.39,0,0,0,.4,1.39,1.54,1.54,0,0,0,2.23,0Z"/><path class="cls-3" d="M177.17,297.89a3.65,3.65,0,0,1-.86-2.33c0-.21,0-.58,0-1.1s0-.91,0-1.13a3.51,3.51,0,0,1,.87-2.3,3.64,3.64,0,0,1,4.77,0,3.51,3.51,0,0,1,.86,2.3c0,.45,0,.82,0,1.13s0,.67,0,1.1a3.65,3.65,0,0,1-.85,2.33,3.07,3.07,0,0,1-2.4.89A3,3,0,0,1,177.17,297.89Zm3.51-1a2.32,2.32,0,0,0,.39-1.39c0-.23,0-.59,0-1.07s0-.82,0-1a2.3,2.3,0,0,0-.39-1.37,1.34,1.34,0,0,0-1.12-.5,1.32,1.32,0,0,0-1.11.5,2.37,2.37,0,0,0-.4,1.37c0,.22,0,.56,0,1s0,.84,0,1.07a2.39,2.39,0,0,0,.4,1.39,1.31,1.31,0,0,0,1.11.48A1.33,1.33,0,0,0,180.68,296.89Z"/><path class="cls-3" d="M185.08,297.89a3.65,3.65,0,0,1-.86-2.33c0-.21,0-.58,0-1.1s0-.91,0-1.13a3.56,3.56,0,0,1,.86-2.3,3.65,3.65,0,0,1,4.78,0,3.56,3.56,0,0,1,.86,2.3c0,.45,0,.82,0,1.13s0,.67,0,1.1a3.6,3.6,0,0,1-.86,2.33,3.65,3.65,0,0,1-4.78,0Zm3.51-1a2.32,2.32,0,0,0,.39-1.39c0-.23,0-.59,0-1.07s0-.82,0-1a2.3,2.3,0,0,0-.39-1.37,1.5,1.5,0,0,0-2.24,0,2.37,2.37,0,0,0-.39,1.37c0,.22,0,.56,0,1s0,.84,0,1.07a2.39,2.39,0,0,0,.39,1.39,1.55,1.55,0,0,0,2.24,0Z"/></g><g class="cls-7"><path class="cls-3" d="M278.79,298.57a.28.28,0,0,1-.08-.2v-1.54h-3.8a.28.28,0,0,1-.21-.08.3.3,0,0,1-.08-.2v-.83a.55.55,0,0,1,.13-.36l3.54-4.9a.45.45,0,0,1,.18-.15.75.75,0,0,1,.26-.05h1.32a.27.27,0,0,1,.29.29v4.86h1.08a.28.28,0,0,1,.21.07.32.32,0,0,1,.08.21v.86a.3.3,0,0,1-.08.2.25.25,0,0,1-.21.08h-1.08v1.54a.24.24,0,0,1-.08.2.26.26,0,0,1-.21.09H279A.29.29,0,0,1,278.79,298.57Zm-2.48-3.12h2.44V292Z"/><path class="cls-3" d="M283.65,297.89a3.65,3.65,0,0,1-.86-2.33c0-.21,0-.58,0-1.1s0-.91,0-1.13a3.56,3.56,0,0,1,.86-2.3,3.65,3.65,0,0,1,4.78,0,3.51,3.51,0,0,1,.86,2.3c0,.45,0,.82,0,1.13s0,.67,0,1.1a3.65,3.65,0,0,1-.85,2.33,3.07,3.07,0,0,1-2.4.89A3,3,0,0,1,283.65,297.89Zm3.51-1a2.32,2.32,0,0,0,.39-1.39c0-.23,0-.59,0-1.07s0-.82,0-1a2.3,2.3,0,0,0-.39-1.37,1.34,1.34,0,0,0-1.12-.5,1.32,1.32,0,0,0-1.11.5,2.37,2.37,0,0,0-.4,1.37c0,.22,0,.56,0,1s0,.84,0,1.07a2.39,2.39,0,0,0,.4,1.39,1.31,1.31,0,0,0,1.11.48A1.33,1.33,0,0,0,287.16,296.89Z"/><path class="cls-3" d="M291.56,297.89a3.65,3.65,0,0,1-.86-2.33c0-.21,0-.58,0-1.1s0-.91,0-1.13a3.56,3.56,0,0,1,.86-2.3,3.65,3.65,0,0,1,4.78,0,3.56,3.56,0,0,1,.86,2.3c0,.45,0,.82,0,1.13s0,.67,0,1.1a3.65,3.65,0,0,1-.86,2.33,3.65,3.65,0,0,1-4.78,0Zm3.51-1a2.39,2.39,0,0,0,.39-1.39c0-.23,0-.59,0-1.07s0-.82,0-1a2.37,2.37,0,0,0-.39-1.37,1.5,1.5,0,0,0-2.24,0,2.37,2.37,0,0,0-.39,1.37c0,.22,0,.56,0,1s0,.84,0,1.07a2.39,2.39,0,0,0,.39,1.39,1.55,1.55,0,0,0,2.24,0Z"/></g><g class="cls-7"><path class="cls-8" d="M215,298.44a2.62,2.62,0,0,1-1.1-.84,1.84,1.84,0,0,1-.39-1.05.21.21,0,0,1,.07-.18.25.25,0,0,1,.18-.08h1.1a.35.35,0,0,1,.36.24c.18.57.71.86,1.59.86a1.76,1.76,0,0,0,1.14-.34,1.15,1.15,0,0,0,.42-1,1.07,1.07,0,0,0-.38-.91,1.89,1.89,0,0,0-1.11-.28h-1.24a.3.3,0,0,1-.2-.08.28.28,0,0,1-.08-.21v-.51a.46.46,0,0,1,.15-.36l2.14-2.09H214.2a.33.33,0,0,1-.22-.08.32.32,0,0,1-.08-.21v-.8a.28.28,0,0,1,.3-.3h5.16a.29.29,0,0,1,.21.08.29.29,0,0,1,.09.22v.73a.41.41,0,0,1-.16.34l-2.06,2.12h.14a3.09,3.09,0,0,1,1.83.7,2.17,2.17,0,0,1,.68,1.71,2.24,2.24,0,0,1-.43,1.38,2.62,2.62,0,0,1-1.17.91,4.38,4.38,0,0,1-1.71.32A4.27,4.27,0,0,1,215,298.44Z"/><path class="cls-8" d="M222.75,298.45a2.61,2.61,0,0,1-1.15-.92,2.37,2.37,0,0,1-.39-1.34,2.21,2.21,0,0,1,.33-1.2,2.15,2.15,0,0,1,.89-.8,1.85,1.85,0,0,1-.68-.71,2.22,2.22,0,0,1,.55-2.7,4.25,4.25,0,0,1,4.47,0,2.08,2.08,0,0,1,.8,1.7,2.05,2.05,0,0,1-.24,1,1.87,1.87,0,0,1-.68.72,2.15,2.15,0,0,1,.91.8,2.22,2.22,0,0,1,.33,1.21,2.3,2.3,0,0,1-.4,1.34,2.6,2.6,0,0,1-1.15.91,5,5,0,0,1-3.59,0Zm3-1.29a1.2,1.2,0,0,0,0-1.92,1.88,1.88,0,0,0-1.18-.36,2,2,0,0,0-1.18.35,1.24,1.24,0,0,0,0,1.93,1.9,1.9,0,0,0,1.18.36A1.88,1.88,0,0,0,225.72,297.16Zm-.14-3.81a1,1,0,0,0,.41-.81,1,1,0,0,0-.4-.83,1.68,1.68,0,0,0-1.05-.31,1.64,1.64,0,0,0-1,.31,1,1,0,0,0-.41.83,1,1,0,0,0,.41.82,1.7,1.7,0,0,0,1,.31A1.81,1.81,0,0,0,225.58,293.35Z"/><path class="cls-8" d="M230,297.89a3.65,3.65,0,0,1-.85-2.33c0-.21,0-.58,0-1.1s0-.91,0-1.13a3.51,3.51,0,0,1,.86-2.3,3.65,3.65,0,0,1,4.78,0,3.56,3.56,0,0,1,.86,2.3c0,.45,0,.82,0,1.13s0,.67,0,1.1a3.65,3.65,0,0,1-.86,2.33,3,3,0,0,1-2.39.89A3.07,3.07,0,0,1,230,297.89Zm3.51-1a2.39,2.39,0,0,0,.4-1.39c0-.23,0-.59,0-1.07s0-.82,0-1a2.37,2.37,0,0,0-.4-1.37,1.32,1.32,0,0,0-1.11-.5,1.34,1.34,0,0,0-1.12.5,2.3,2.3,0,0,0-.39,1.37c0,.22,0,.56,0,1s0,.84,0,1.07a2.32,2.32,0,0,0,.39,1.39,1.33,1.33,0,0,0,1.12.48A1.31,1.31,0,0,0,233.55,296.89Z"/><path class="cls-8" d="M238,297.89a3.71,3.71,0,0,1-.86-2.33c0-.21,0-.58,0-1.1s0-.91,0-1.13A3.51,3.51,0,0,1,238,291a3.64,3.64,0,0,1,4.77,0,3.51,3.51,0,0,1,.87,2.3c0,.45,0,.82,0,1.13s0,.67,0,1.1a3.71,3.71,0,0,1-.86,2.33,3.67,3.67,0,0,1-4.79,0Zm3.51-1a2.39,2.39,0,0,0,.4-1.39c0-.23,0-.59,0-1.07s0-.82,0-1a2.37,2.37,0,0,0-.4-1.37,1.49,1.49,0,0,0-2.23,0,2.37,2.37,0,0,0-.4,1.37c0,.22,0,.56,0,1s0,.84,0,1.07a2.39,2.39,0,0,0,.4,1.39,1.54,1.54,0,0,0,2.23,0Z"/><path class="cls-8" d="M245.86,297.89a3.71,3.71,0,0,1-.86-2.33c0-.21,0-.58,0-1.1s0-.91,0-1.13a3.51,3.51,0,0,1,.87-2.3,3.64,3.64,0,0,1,4.77,0,3.51,3.51,0,0,1,.87,2.3c0,.45,0,.82,0,1.13s0,.67,0,1.1a3.71,3.71,0,0,1-.86,2.33,3.67,3.67,0,0,1-4.79,0Zm3.51-1a2.39,2.39,0,0,0,.4-1.39c0-.23,0-.59,0-1.07s0-.82,0-1a2.37,2.37,0,0,0-.4-1.37,1.49,1.49,0,0,0-2.23,0,2.37,2.37,0,0,0-.4,1.37c0,.22,0,.56,0,1s0,.84,0,1.07a2.39,2.39,0,0,0,.4,1.39,1.54,1.54,0,0,0,2.23,0Z"/></g><g class="cls-7"><path class="cls-8" d="M343.94,298.57a.25.25,0,0,1-.09-.2v-1.54h-3.8a.28.28,0,0,1-.21-.08.3.3,0,0,1-.08-.2v-.83a.55.55,0,0,1,.13-.36l3.54-4.9a.45.45,0,0,1,.18-.15.76.76,0,0,1,.27-.05h1.32a.28.28,0,0,1,.21.08.28.28,0,0,1,.07.21v4.86h1.08a.28.28,0,0,1,.21.07.28.28,0,0,1,.08.21v.86a.26.26,0,0,1-.08.2.25.25,0,0,1-.21.08h-1.08v1.54a.27.27,0,0,1-.07.2.29.29,0,0,1-.21.09h-1.06A.25.25,0,0,1,343.94,298.57Zm-2.49-3.12h2.44V292Z"/><path class="cls-8" d="M348.79,297.89a3.71,3.71,0,0,1-.86-2.33c0-.21,0-.58,0-1.1s0-.91,0-1.13a3.51,3.51,0,0,1,.87-2.3,3.64,3.64,0,0,1,4.77,0,3.51,3.51,0,0,1,.87,2.3c0,.45,0,.82,0,1.13s0,.67,0,1.1a3.71,3.71,0,0,1-.86,2.33,3.67,3.67,0,0,1-4.79,0Zm3.51-1a2.39,2.39,0,0,0,.4-1.39c0-.23,0-.59,0-1.07s0-.82,0-1a2.37,2.37,0,0,0-.4-1.37,1.49,1.49,0,0,0-2.23,0,2.37,2.37,0,0,0-.4,1.37c0,.22,0,.56,0,1s0,.84,0,1.07a2.39,2.39,0,0,0,.4,1.39,1.54,1.54,0,0,0,2.23,0Z"/></g><g class="cls-7"><path class="cls-3" d="M424.69,298.57a.25.25,0,0,1-.09-.2v-6.19l-1.81,1.39a.28.28,0,0,1-.18.06.27.27,0,0,1-.23-.12l-.52-.67a.28.28,0,0,1-.05-.17.27.27,0,0,1,.13-.24l2.69-2.09a.56.56,0,0,1,.3-.08H426a.3.3,0,0,1,.2.08.32.32,0,0,1,.08.21v7.82a.28.28,0,0,1-.08.2.27.27,0,0,1-.2.09h-1.12A.25.25,0,0,1,424.69,298.57Z"/><path class="cls-3" d="M431.67,298.57a.24.24,0,0,1-.08-.2v-1.54h-3.81a.24.24,0,0,1-.2-.08.27.27,0,0,1-.09-.2v-.83a.56.56,0,0,1,.14-.36l3.54-4.9a.36.36,0,0,1,.17-.15.81.81,0,0,1,.27-.05h1.32a.25.25,0,0,1,.21.08.29.29,0,0,1,.08.21v4.86h1.08a.31.31,0,0,1,.21.07.32.32,0,0,1,.08.21v.86a.3.3,0,0,1-.08.2.28.28,0,0,1-.21.08h-1.08v1.54a.28.28,0,0,1-.08.2.26.26,0,0,1-.21.09h-1.06A.25.25,0,0,1,431.67,298.57Zm-2.49-3.12h2.44V292Z"/></g><line class="cls-9" x1="118.48" y1="139.89" x2="473.02" y2="139.89"/><line class="cls-9" x1="118.48" y1="201.88" x2="473.02" y2="201.88"/><line class="cls-9" x1="118.48" y1="325.84" x2="473.02" y2="325.84"/><line class="cls-9" x1="118.48" y1="263.86" x2="473.02" y2="263.86"/></g><g id="Layer_86" data-name="Layer 86"><g id="_Group_6" data-name=" Group 6" class="cls-10"><path class="cls-3" d="M267.92,39.28a5.08,5.08,0,0,1,0-4.56l3-5.26a5.08,5.08,0,0,1,3.94-2.26H281a5,5,0,0,1,3.93,2.26l3,5.26a5.08,5.08,0,0,1,0,4.56l-3,5.23A5,5,0,0,1,281,46.78H274.9A5.06,5.06,0,0,1,271,44.51Z"/></g><g id="_Group_6-2" data-name=" Group 6" class="cls-11"><path class="cls-12" d="M45.5,38.64a5,5,0,0,1,0-4.55l3-5.26a5,5,0,0,1,3.93-2.27h6.06a5,5,0,0,1,3.93,2.27l3,5.26a5.06,5.06,0,0,1,0,4.55l-3,5.24a5,5,0,0,1-3.93,2.26H52.47a5,5,0,0,1-3.93-2.26Z"/></g><g id="_Group_6-3" data-name=" Group 6" class="cls-10"><path class="cls-3" d="M40.18,406.07a5.08,5.08,0,0,1,0-4.56l3-5.26A5,5,0,0,1,47.15,394h6.06a5,5,0,0,1,3.93,2.26l3,5.26a5,5,0,0,1,0,4.56l-3,5.23a5,5,0,0,1-3.93,2.27H47.15a5,5,0,0,1-3.93-2.27Z"/></g><g id="_Group_6-4" data-name=" Group 6" class="cls-11"><path class="cls-12" d="M18.21,346.47a5.08,5.08,0,0,1,0-4.56l3-5.26a5.06,5.06,0,0,1,3.94-2.27h6a5.09,5.09,0,0,1,3.94,2.27l3,5.26a5.08,5.08,0,0,1,0,4.56l-3,5.23A5.06,5.06,0,0,1,31.24,354h-6a5,5,0,0,1-3.94-2.27Z"/></g><g id="_Group_6-5" data-name=" Group 6" class="cls-10"><path class="cls-3" d="M411.9,402.21a5.08,5.08,0,0,1,0-4.56l3-5.25a5,5,0,0,1,3.94-2.27h6.05a5.06,5.06,0,0,1,3.94,2.27l3,5.25a5.08,5.08,0,0,1,0,4.56l-3,5.23a5.06,5.06,0,0,1-3.94,2.27h-6.05a5,5,0,0,1-3.94-2.27Z"/></g><g id="_Group_6-6" data-name=" Group 6" class="cls-11"><path class="cls-12" d="M456.36,40.84a8.54,8.54,0,0,1-.29-7.66l4.77-9a8.47,8.47,0,0,1,6.46-4.06l10.17-.38a8.48,8.48,0,0,1,6.76,3.55l5.44,8.64a8.51,8.51,0,0,1,.29,7.65l-4.77,9a8.47,8.47,0,0,1-6.47,4.06L468.56,53a8.48,8.48,0,0,1-6.76-3.56Z"/></g><g id="_Group_6-7" data-name=" Group 6" class="cls-11"><path class="cls-12" d="M456.54,406a11.61,11.61,0,0,1,0-10.43l7-12a11.55,11.55,0,0,1,9-5.19h13.85a11.55,11.55,0,0,1,9,5.19l7,12a11.61,11.61,0,0,1,0,10.43l-7,12a11.55,11.55,0,0,1-9,5.19H472.51a11.55,11.55,0,0,1-9-5.19Z"/></g><g id="_Group_6-8" data-name=" Group 6" class="cls-10"><path class="cls-12" d="M497.51,51.86a3.33,3.33,0,0,1,0-3l2-3.47a3.29,3.29,0,0,1,2.59-1.5h4a3.3,3.3,0,0,1,2.6,1.5l2,3.47a3.33,3.33,0,0,1,0,3l-2,3.45a3.3,3.3,0,0,1-2.6,1.5h-4a3.29,3.29,0,0,1-2.59-1.5Z"/></g><g id="_Group_6-9" data-name=" Group 6" class="cls-10"><path class="cls-12" d="M25,21.23a3.35,3.35,0,0,1,0-3l2-3.47a3.31,3.31,0,0,1,2.6-1.49h4a3.31,3.31,0,0,1,2.6,1.49l2,3.47a3.35,3.35,0,0,1,0,3l-2,3.45a3.32,3.32,0,0,1-2.6,1.5h-4a3.32,3.32,0,0,1-2.6-1.5Z"/></g><g id="_Group_6-10" data-name=" Group 6" class="cls-10"><path class="cls-12" d="M89.66,386.36a3.33,3.33,0,0,1,0-3l2-3.47a3.3,3.3,0,0,1,2.6-1.5h4a3.3,3.3,0,0,1,2.6,1.5l2,3.47a3.33,3.33,0,0,1,0,3l-2,3.45a3.3,3.3,0,0,1-2.6,1.5h-4a3.3,3.3,0,0,1-2.6-1.5Z"/></g><g id="_Group_6-11" data-name=" Group 6" class="cls-10"><path class="cls-12" d="M346.13,418.82a3.33,3.33,0,0,1,0-3l2-3.47a3.33,3.33,0,0,1,2.6-1.49h4a3.34,3.34,0,0,1,2.6,1.49l2,3.47a3.33,3.33,0,0,1,0,3l-2,3.46a3.35,3.35,0,0,1-2.6,1.5h-4a3.34,3.34,0,0,1-2.6-1.5Z"/></g><g id="_Group_6-12" data-name=" Group 6" class="cls-10"><path class="cls-12" d="M18,418.22a3.33,3.33,0,0,1,0-3l2-3.47a3.35,3.35,0,0,1,2.6-1.5h4a3.35,3.35,0,0,1,2.6,1.5l2,3.47a3.39,3.39,0,0,1,0,3l-2,3.46a3.35,3.35,0,0,1-2.6,1.5h-4a3.35,3.35,0,0,1-2.6-1.5Z"/></g><g id="_Group_6-13" data-name=" Group 6" class="cls-10"><path class="cls-3" d="M412.37,17.4a3.33,3.33,0,0,1,0-3l2-3.47a3.32,3.32,0,0,1,2.6-1.5h4a3.32,3.32,0,0,1,2.6,1.5l2,3.47a3.33,3.33,0,0,1,0,3l-2,3.46a3.31,3.31,0,0,1-2.6,1.49h-4a3.31,3.31,0,0,1-2.6-1.49Z"/></g><g id="_Group_6-14" data-name=" Group 6" class="cls-10"><path class="cls-3" d="M254,21.23a3.35,3.35,0,0,1,0-3l2-3.47a3.31,3.31,0,0,1,2.59-1.49h4a3.31,3.31,0,0,1,2.6,1.49l2,3.47a3.35,3.35,0,0,1,0,3l-2,3.45a3.32,3.32,0,0,1-2.6,1.5h-4a3.32,3.32,0,0,1-2.59-1.5Z"/></g><g id="_Group_6-15" data-name=" Group 6" class="cls-10"><path class="cls-3" d="M204.9,405.29a3.33,3.33,0,0,1,0-3l2-3.47a3.32,3.32,0,0,1,2.6-1.5h4a3.32,3.32,0,0,1,2.59,1.5l2,3.47a3.33,3.33,0,0,1,0,3l-2,3.46a3.31,3.31,0,0,1-2.59,1.49h-4a3.31,3.31,0,0,1-2.6-1.49Z"/></g><g id="_Group_6-16" data-name=" Group 6" class="cls-10"><path class="cls-3" d="M11.06,51.86a3.33,3.33,0,0,1,0-3l2-3.47a3.31,3.31,0,0,1,2.6-1.5h4a3.33,3.33,0,0,1,2.6,1.5l2,3.47a3.33,3.33,0,0,1,0,3l-2,3.45a3.33,3.33,0,0,1-2.6,1.5h-4a3.31,3.31,0,0,1-2.6-1.5Z"/></g><g id="_Group_6-17" data-name=" Group 6" class="cls-10"><path class="cls-3" d="M434.93,418.82a3.39,3.39,0,0,1,0-3l2-3.47a3.34,3.34,0,0,1,2.6-1.49h4a3.34,3.34,0,0,1,2.6,1.49l2,3.47a3.39,3.39,0,0,1,0,3l-2,3.46a3.35,3.35,0,0,1-2.6,1.5h-4a3.35,3.35,0,0,1-2.6-1.5Z"/></g></g></g></g></svg>