<svg xmlns="http://www.w3.org/2000/svg" viewBox="0 0 521.57 439.37"><defs><style>.cls-1,.cls-10,.cls-11,.cls-12,.cls-14,.cls-15,.cls-16,.cls-20,.cls-5,.cls-9{fill:none;}.cls-1,.cls-11,.cls-16,.cls-9{stroke:#9e62dd;}.cls-1,.cls-10,.cls-14,.cls-16,.cls-20,.cls-23,.cls-4,.cls-7,.cls-9{stroke-linecap:round;}.cls-1,.cls-14,.cls-16,.cls-20,.cls-23,.cls-4,.cls-7{stroke-linejoin:round;}.cls-1,.cls-14,.cls-4,.cls-5{stroke-width:2.5px;}.cls-1{stroke-dasharray:18.07 18.07 2.26 6.78 4.52 7.91;}.cls-2{fill:#f5faff;}.cls-23,.cls-3,.cls-4,.cls-7,.cls-8{fill:#fff;}.cls-10,.cls-12,.cls-20,.cls-4,.cls-5,.cls-7,.cls-8{stroke:#6738b8;}.cls-10,.cls-11,.cls-12,.cls-15,.cls-5,.cls-8,.cls-9{stroke-miterlimit:10;}.cls-6{fill:#6738b8;}.cls-10,.cls-11,.cls-12,.cls-15,.cls-16,.cls-20,.cls-23,.cls-7,.cls-8,.cls-9{stroke-width:1.5px;}.cls-13,.cls-17,.cls-18{fill:#f88298;}.cls-13,.cls-17,.cls-24{opacity:0.2;}.cls-13,.cls-22{isolation:isolate;}.cls-14,.cls-15,.cls-23{stroke:#f88298;}.cls-19{fill:#fcfdff;}.cls-21{fill:#9e62dd;}</style></defs><title>spw-mobile5 copy 2</title><g id="TRAVEL"><g id="spw-travel5"><path class="cls-1" d="M181.57,372.17a15.52,15.52,0,0,1-12.12-7L90.31,228.09a15.55,15.55,0,0,1,0-14L169.45,77a15.53,15.53,0,0,1,12.12-7H339.88A15.53,15.53,0,0,1,352,77l79.14,137.09a15.55,15.55,0,0,1,0,14L352,365.18a15.52,15.52,0,0,1-12.12,7Z"/><g id="_Group_6" data-name=" Group 6"><path class="cls-2" d="M291.48,83.2c-4.16-7.18-4.16-18.94,0-26.25L309,26.68c4.16-7.17,14.35-13.06,22.67-13.06H366.5c8.32,0,18.51,5.89,22.67,13.06L406.67,57c4.16,7.17,4.16,18.93,0,26.25l-17.5,30.12c-4.16,7.17-14.35,13.05-22.67,13.05H331.65c-8.32,0-18.51-5.88-22.67-13.05Z"/></g><path class="cls-3" d="M374.89,42.08V88.33c0,1.89-9.12,3.42-20.36,3.42s-20.37-1.53-20.37-3.42V42.08"/><g id="_Group_6-2" data-name=" Group 6"><path class="cls-4" d="M190.38,237.21c-5.08-8.76-5.08-23.13,0-32.07l21.38-37c5.08-8.76,17.52-16,27.68-16H282c10.17,0,22.61,7.19,27.69,16l21.37,37c5.08,8.76,5.08,23.13,0,32.07L309.7,274c-5.08,8.76-17.52,15.94-27.69,15.94H239.44c-10.16,0-22.6-7.18-27.68-15.94Z"/></g><g id="_Group_6-3" data-name=" Group 6"><path class="cls-2" d="M114.35,83.2c-4.16-7.18-4.16-18.94,0-26.25l17.5-30.27c4.16-7.17,14.35-13.06,22.67-13.06h34.86c8.32,0,18.5,5.89,22.66,13.06L229.54,57c4.16,7.17,4.16,18.93,0,26.25L212,113.32c-4.16,7.17-14.34,13.05-22.66,13.05H154.52c-8.32,0-18.51-5.88-22.67-13.05Z"/></g><g id="_Group_6-4" data-name=" Group 6"><path class="cls-2" d="M371.26,233.89c-4.16-7.17-4.16-18.93,0-26.25l17.5-30.27c4.16-7.17,14.35-13.05,22.67-13.05h34.86c8.32,0,18.5,5.88,22.66,13.05l17.5,30.27c4.16,7.17,4.16,18.94,0,26.25L469,264c-4.16,7.18-14.34,13.06-22.66,13.06H411.43c-8.32,0-18.51-5.88-22.67-13.06Z"/></g><g id="_Group_6-5" data-name=" Group 6"><path class="cls-2" d="M291.48,384.51c-4.16-7.18-4.16-18.94,0-26.25L309,328c4.16-7.17,14.35-13.06,22.67-13.06H366.5c8.32,0,18.51,5.89,22.67,13.06l17.5,30.27c4.16,7.17,4.16,18.93,0,26.25l-17.5,30.12c-4.16,7.17-14.35,13.05-22.67,13.05H331.65c-8.32,0-18.51-5.88-22.67-13.05Z"/></g><g id="_Group_6-6" data-name=" Group 6"><path class="cls-2" d="M116.17,384.51c-4.16-7.18-4.16-18.94,0-26.25L133.67,328c4.16-7.17,14.34-13.06,22.66-13.06h34.86c8.32,0,18.51,5.89,22.67,13.06l17.5,30.27c4.16,7.17,4.16,18.93,0,26.25l-17.5,30.12c-4.16,7.17-14.35,13.05-22.67,13.05H156.33c-8.32,0-18.5-5.88-22.66-13.05Z"/></g><g id="_Group_6-7" data-name=" Group 6"><path class="cls-2" d="M33.12,234.28C29,227.11,29,215.35,33.12,208l17.5-30.26c4.16-7.18,14.35-13.06,22.67-13.06h34.86c8.32,0,18.5,5.88,22.66,13.06L148.31,208c4.16,7.18,4.16,18.94,0,26.25l-17.5,30.13c-4.16,7.17-14.34,13-22.66,13H73.29c-8.32,0-18.51-5.88-22.67-13Z"/></g><line class="cls-5" x1="334.94" y1="221.09" x2="368.14" y2="221.09"/><line class="cls-5" x1="151.43" y1="221.09" x2="186.57" y2="221.09"/><line class="cls-5" x1="297.62" y1="155.65" x2="317.51" y2="121.7"/><line class="cls-5" x1="205.03" y1="319.33" x2="223.33" y2="285.03"/><line class="cls-5" x1="299.08" y1="285.95" x2="318.57" y2="318.84"/><line class="cls-5" x1="202.36" y1="122.58" x2="222.5" y2="156.2"/><circle class="cls-6" cx="318.53" cy="318.34" r="3.31"/><circle class="cls-6" cx="205.03" cy="319.5" r="3.31"/><circle class="cls-6" cx="368.14" cy="221.09" r="3.31" transform="translate(90.94 549.06) rotate(-80.78)"/><circle class="cls-6" cx="151.43" cy="221.09" r="3.31" transform="translate(-91.06 335.15) rotate(-80.78)"/><circle class="cls-6" cx="202.36" cy="122.58" r="3.31"/><circle class="cls-6" cx="317.51" cy="121.7" r="3.31"/><rect class="cls-7" x="149.14" y="58.62" width="45.61" height="41.38" rx="7.09"/><path class="cls-7" d="M156.68,58.62V50.21a15.27,15.27,0,0,1,30.54,0v8.41h-5.06v-8.5a10.21,10.21,0,0,0-20.42,0v8.5Z"/><ellipse class="cls-8" cx="354.53" cy="42.08" rx="20.36" ry="3.43"/><path class="cls-9" d="M374.89,76.49c0,1.9-9.12,3.43-20.36,3.43"/><path class="cls-10" d="M374.89,65.21c0,1.89-9.12,3.42-20.36,3.42"/><path class="cls-11" d="M374.89,53.92c0,1.89-9.12,3.42-20.36,3.42s-20.37-1.53-20.37-3.42"/><path class="cls-12" d="M374.89,42.08V88.33c0,1.89-9.12,3.42-20.36,3.42s-20.37-1.53-20.37-3.42V42.08"/><path class="cls-7" d="M334.18,101.52c-7.35-2.61-14.92-7.11-14.92-14.81V65.3l14.92-5.51,14.93,5.51V86.71C349.11,94.41,341.54,98.91,334.18,101.52Z"/><path class="cls-13" d="M334.18,97.18c-5.45-1.93-11.09-5.27-11.09-11v-18l11.09-4.09,11.09,4.09v18C345.25,91.91,339.64,95.25,334.18,97.18Z"/><polyline class="cls-14" points="339.02 77.58 332.86 83.75 329.34 80.23"/><path class="cls-15" d="M178.54,74.48a6.59,6.59,0,1,0-9.17,6.07v6.72a2.58,2.58,0,0,0,5.15,0V80.55A6.61,6.61,0,0,0,178.54,74.48Z"/><path class="cls-7" d="M461.83,204.35a6.57,6.57,0,0,0-6.55-6.55H402.44a6.57,6.57,0,0,0-6.56,6.55V237a6.57,6.57,0,0,0,6.56,6.55h52.84a6.57,6.57,0,0,0,6.55-6.55Z"/><line class="cls-16" x1="434.31" y1="209.68" x2="453.89" y2="209.68"/><line class="cls-16" x1="434.31" y1="222.69" x2="453.89" y2="222.69"/><line class="cls-16" x1="434.31" y1="227.87" x2="453.89" y2="227.87"/><line class="cls-16" x1="434.31" y1="233.05" x2="453.89" y2="233.05"/><line class="cls-16" x1="434.31" y1="214.88" x2="446.53" y2="214.88"/><rect class="cls-13" x="403.62" y="207.3" width="22.81" height="28.12"/><path class="cls-7" d="M404.51,235.15l4.37-7.56a2.25,2.25,0,0,1,1.77-1h8.74a2.26,2.26,0,0,1,1.78,1l4.37,7.56Z"/><path class="cls-7" d="M419.83,218.77A4.81,4.81,0,1,1,415,214,4.81,4.81,0,0,1,419.83,218.77Z"/><path class="cls-7" d="M367.36,402.37a4.36,4.36,0,0,0,4.36-4.36v-51.4a4.36,4.36,0,0,0-4.36-4.36H328.88a4.36,4.36,0,0,0-4.36,4.36V398a4.37,4.37,0,0,0,4.36,4.36Z"/><line class="cls-16" x1="334.25" y1="352.55" x2="362" y2="352.55"/><line class="cls-16" x1="334.25" y1="365.75" x2="362" y2="365.75"/><line class="cls-16" x1="334.25" y1="371.02" x2="362" y2="371.02"/><line class="cls-16" x1="334.25" y1="376.28" x2="362" y2="376.28"/><line class="cls-16" x1="334.25" y1="381.54" x2="362" y2="381.54"/><line class="cls-16" x1="334.25" y1="386.81" x2="362" y2="386.81"/><line class="cls-16" x1="334.25" y1="392.07" x2="362" y2="392.07"/><line class="cls-16" x1="334.25" y1="357.82" x2="346.66" y2="357.82"/><path class="cls-3" d="M371,353.88l.1,36.95a18.48,18.48,0,0,1-.1-36.95Z"/><path class="cls-7" d="M362.74,361a14.47,14.47,0,1,1-2.36,20.33A14.47,14.47,0,0,1,362.74,361Z"/><path class="cls-17" d="M365,363.84A10.79,10.79,0,1,1,363.26,379,10.8,10.8,0,0,1,365,363.84Z"/><polyline class="cls-14" points="377.26 369.04 370.22 376.09 366.19 372.06"/><path class="cls-14" d="M221.24,221.09s18.72-21.94,39.49-21.94,39.49,21.94,39.49,21.94S283.25,243,260.73,243,221.24,221.09,221.24,221.09Z"/><path class="cls-14" d="M245.22,205.58a21.93,21.93,0,1,1,0,31A21.93,21.93,0,0,1,245.22,205.58Z"/><path class="cls-18" d="M260.73,214.5c-.23,0-.45,0-.67,0a4.2,4.2,0,0,1,.67,2.27,4.28,4.28,0,0,1-4.28,4.28,4.2,4.2,0,0,1-2.27-.67c0,.22,0,.44,0,.67a6.59,6.59,0,1,0,6.59-6.59Z"/><path class="cls-7" d="M121.52,198.77a4.58,4.58,0,0,0-4.52-4.6H63.82a4.58,4.58,0,0,0-4.52,4.6v40.51a4.58,4.58,0,0,0,4.52,4.59H117a4.58,4.58,0,0,0,4.52-4.59Z"/><path class="cls-19" d="M54.15,239.28a4.58,4.58,0,0,0,4.52,4.59h63.48a4.56,4.56,0,0,0,4.51-4.59Z"/><path class="cls-20" d="M54.15,239.28a4.58,4.58,0,0,0,4.52,4.59h63.48a4.56,4.56,0,0,0,4.51-4.59Z"/><line class="cls-20" x1="77.83" y1="199.54" x2="121.52" y2="199.54"/><path class="cls-18" d="M74.25,199.56a1.19,1.19,0,1,1-1.19-1.21A1.2,1.2,0,0,1,74.25,199.56Z"/><path class="cls-21" d="M70,199.56a1.19,1.19,0,1,1-1.19-1.21A1.2,1.2,0,0,1,70,199.56Z"/><path class="cls-6" d="M65.68,199.56a1.2,1.2,0,1,1-1.2-1.21A1.21,1.21,0,0,1,65.68,199.56Z"/><line class="cls-16" x1="65.68" y1="206.7" x2="115.13" y2="206.7"/><line class="cls-16" x1="65.68" y1="211.96" x2="115.13" y2="211.96"/><line class="cls-16" x1="65.68" y1="217.22" x2="115.13" y2="217.22"/><line class="cls-16" x1="65.68" y1="222.48" x2="115.13" y2="222.48"/><line class="cls-16" x1="65.68" y1="227.74" x2="115.13" y2="227.74"/><line class="cls-16" x1="65.68" y1="233" x2="115.13" y2="233"/><path class="cls-3" d="M110,229.65c1.45,2.52-1.23,7-6.23,7H76.88c-5.93,0-7.68-4.52-6.22-7l14.56-25.29c1.45-2.51,8.64-2.64,10.1-.12Z"/><path class="cls-7" d="M104.66,228.17a3.22,3.22,0,0,1-2.78,4.83H78.93a3.22,3.22,0,0,1-2.78-4.83L87.62,208.3a3.22,3.22,0,0,1,5.57,0Z"/><path class="cls-17" d="M99.84,227.2a1.63,1.63,0,0,1-1.24,2.43H81.88a1.63,1.63,0,0,1-1.24-2.43l8.52-14.41a1.36,1.36,0,0,1,2.48,0Z"/><g class="cls-22"><path class="cls-18" d="M89.39,226.52a.29.29,0,0,1-.09-.22V225a.3.3,0,0,1,.09-.23.31.31,0,0,1,.22-.09h1.25a.29.29,0,0,1,.23.1.27.27,0,0,1,.1.22v1.26a.27.27,0,0,1-.1.22.32.32,0,0,1-.23.09H89.61A.31.31,0,0,1,89.39,226.52Zm.08-3a.31.31,0,0,1-.09-.22v-6a.3.3,0,0,1,.09-.23.29.29,0,0,1,.22-.09h1.1a.3.3,0,0,1,.23.1.29.29,0,0,1,.09.22v6a.31.31,0,0,1-.09.22.33.33,0,0,1-.23.09h-1.1A.29.29,0,0,1,89.47,223.48Z"/></g><path class="cls-3" d="M203.2,400.75a7.93,7.93,0,0,0,0-11.19l-26.33-26.33a17.63,17.63,0,1,0-11.19,11.19l2.86,2.85a4,4,0,0,1,5.64,5.65l3,3a4,4,0,0,1,5.64,5.65l3,3a4,4,0,0,1,5.64,5.65l.49.49a7.93,7.93,0,0,0,11.19,0Zm-39-39a5.74,5.74,0,1,1,0-8.11A5.75,5.75,0,0,1,164.21,361.75Z"/><line class="cls-23" x1="202.85" y1="399.21" x2="173.73" y2="370.08"/><path class="cls-20" d="M202.2,400.47a7.93,7.93,0,0,0,0-11.19L175.87,363a17.63,17.63,0,1,0-11.19,11.19l2,2a1.42,1.42,0,0,0,1.7.23,4,4,0,0,1,5.45,5.45,1.41,1.41,0,0,0,.23,1.7l1.29,1.29a1.42,1.42,0,0,0,1.7.23,4,4,0,0,1,5.45,5.45,1.41,1.41,0,0,0,.23,1.7l1.29,1.29a1.42,1.42,0,0,0,1.7.23,4,4,0,0,1,5.47,5.4,1.43,1.43,0,0,0,.36,1.8c1.82,1.45,5.91,3.71,10.66-.43Zm-39-39a5.74,5.74,0,1,1,0-8.11A5.75,5.75,0,0,1,163.21,361.47Z"/><g id="_Group_6-8" data-name=" Group 6" class="cls-24"><path class="cls-18" d="M95.09,325.11a5.08,5.08,0,0,1,0-4.56l3-5.26a5.06,5.06,0,0,1,3.93-2.27h6.06a5.09,5.09,0,0,1,3.94,2.27l3,5.26a5,5,0,0,1,0,4.56l-3,5.23a5.06,5.06,0,0,1-3.94,2.27h-6.06a5,5,0,0,1-3.93-2.27Z"/></g><g id="_Group_6-9" data-name=" Group 6" class="cls-24"><path class="cls-18" d="M418.85,298.29a5.08,5.08,0,0,1,0-4.56l3-5.25a5,5,0,0,1,3.94-2.27h6.05a5,5,0,0,1,3.94,2.27l3,5.25a5.08,5.08,0,0,1,0,4.56l-3,5.24a5,5,0,0,1-3.94,2.26h-6.05a5.07,5.07,0,0,1-3.94-2.26Z"/></g><g id="_Group_6-10" data-name=" Group 6" class="cls-24"><path class="cls-18" d="M418.67,98.18a5.08,5.08,0,0,1,0-4.56l3-5.26a5.08,5.08,0,0,1,3.94-2.26h6.06a5,5,0,0,1,3.93,2.26l3,5.26a5.08,5.08,0,0,1,0,4.56l-3,5.23a5,5,0,0,1-3.93,2.27h-6.06a5.06,5.06,0,0,1-3.94-2.27Z"/></g><g id="_Group_6-11" data-name=" Group 6" class="cls-24"><path class="cls-18" d="M447.1,69.8a3.33,3.33,0,0,1,0-3l2-3.47a3.31,3.31,0,0,1,2.6-1.5h4a3.33,3.33,0,0,1,2.6,1.5l2,3.47a3.33,3.33,0,0,1,0,3l-2,3.46a3.34,3.34,0,0,1-2.6,1.49h-4a3.33,3.33,0,0,1-2.6-1.49Z"/></g><g id="_Group_6-12" data-name=" Group 6" class="cls-24"><path class="cls-18" d="M361.54,297.52a3.35,3.35,0,0,1,0-3l2-3.47a3.34,3.34,0,0,1,2.6-1.49h4a3.33,3.33,0,0,1,2.6,1.49l2,3.47a3.35,3.35,0,0,1,0,3l-2,3.45a3.34,3.34,0,0,1-2.6,1.5h-4a3.35,3.35,0,0,1-2.6-1.5Z"/></g><g id="_Group_6-13" data-name=" Group 6" class="cls-24"><path class="cls-18" d="M84.8,90.83a3.33,3.33,0,0,1,0-3l2-3.47a3.32,3.32,0,0,1,2.6-1.5h4A3.32,3.32,0,0,1,96,84.35l2,3.47a3.33,3.33,0,0,1,0,3l-2,3.46a3.31,3.31,0,0,1-2.59,1.49h-4a3.31,3.31,0,0,1-2.6-1.49Z"/></g><g id="_Group_6-14" data-name=" Group 6" class="cls-24"><path class="cls-18" d="M156.87,148.36a3.39,3.39,0,0,1,0-3l2-3.48a3.34,3.34,0,0,1,2.6-1.49h4a3.34,3.34,0,0,1,2.6,1.49l2,3.48a3.39,3.39,0,0,1,0,3l-2,3.45a3.33,3.33,0,0,1-2.6,1.5h-4a3.33,3.33,0,0,1-2.6-1.5Z"/></g><g id="_Group_6-15" data-name=" Group 6" class="cls-24"><path class="cls-18" d="M82.69,119.9a3.33,3.33,0,0,1,0-3l2-3.47a3.32,3.32,0,0,1,2.6-1.5h4a3.32,3.32,0,0,1,2.6,1.5l2,3.47a3.33,3.33,0,0,1,0,3l-2,3.46a3.32,3.32,0,0,1-2.6,1.5h-4a3.32,3.32,0,0,1-2.6-1.5Z"/></g><g id="_Group_6-16" data-name=" Group 6" class="cls-24"><path class="cls-18" d="M65.26,310.38a3.39,3.39,0,0,1,0-3l2-3.48a3.34,3.34,0,0,1,2.6-1.49h4a3.34,3.34,0,0,1,2.6,1.49l2,3.48a3.33,3.33,0,0,1,0,3l-2,3.45a3.35,3.35,0,0,1-2.6,1.5h-4a3.35,3.35,0,0,1-2.6-1.5Z"/></g></g></g></svg>