<?xml version="1.0" encoding="UTF-8"?>
<svg width="145px" height="60px" viewBox="0 0 145 60" version="1.1" xmlns="http://www.w3.org/2000/svg" xmlns:xlink="http://www.w3.org/1999/xlink">
    <!-- Generator: Sketch 55.1 (78136) - https://sketchapp.com -->
    <title>Disney_wordmark Copy</title>
    <desc>Created with Sketch.</desc>
    <g id="Landingpage---v2" stroke="none" stroke-width="1" fill="none" fill-rule="evenodd">
        <g id="ABM-Landing-Page---Media---Cambridge-University-Press" transform="translate(-421.000000, -775.000000)" fill="#323232" fill-rule="nonzero">
            <g id="Group-5-Copy" transform="translate(355.000000, 719.000000)">
                <g id="Disney_wordmark-Copy" transform="translate(66.000000, 56.000000)">
                    <path d="M125.314655,26.0922186 C122.863634,26.6578947 116.390424,26.9721592 116.390424,26.9721592 L115.594366,29.5281773 C115.594366,29.5281773 118.799548,29.2558147 121.145824,29.4862754 C121.145824,29.4862754 121.899985,29.4234225 121.98378,30.3243141 C122.025678,31.2461567 121.920934,32.2099012 121.920934,32.2099012 C121.920934,32.2099012 121.858087,32.7755774 121.082978,32.9222341 C120.182175,33.0688909 114.106994,33.3412535 114.106994,33.3412535 L113.122396,36.6515064 C113.122396,36.6515064 112.766265,37.4057413 113.583272,37.1962316 C114.337432,36.9867219 120.705897,35.7715658 121.543853,35.9391735 C122.423707,36.1486832 123.429254,37.3638393 123.13597,38.4532897 C122.800787,39.7732007 116.432322,43.8376884 112.577724,43.5653259 C112.577724,43.5653259 110.545681,43.6910317 108.84882,40.9464549 C107.214806,38.3275839 109.414441,33.4041064 109.414441,33.4041064 C109.414441,33.4041064 108.429842,31.0994999 109.163054,30.2614612 C109.163054,30.2614612 109.582032,29.9052947 110.838966,29.8005399 L112.410133,26.5740908 C112.410133,26.5740908 110.629477,26.6788457 109.582032,25.3798857 C108.618382,24.1228276 108.534587,23.5781024 109.288747,23.2428869 C110.084805,22.8238676 117.458818,21.5039566 122.528452,21.6715643 C122.528452,21.6715643 124.309108,21.4620546 125.880276,24.5418469 C125.880276,24.5418469 126.592538,25.798905 125.335604,26.0922186 M106.209259,38.4951916 C105.580792,40.0246123 103.842033,41.6378368 101.747143,40.6531413 C99.6103556,39.6474948 96.2375827,32.7755774 96.2375827,32.7755774 C96.2375827,32.7755774 94.9806487,30.2195593 94.7292619,30.3033631 C94.7292619,30.3033631 94.4569262,29.8005399 94.3102839,32.6079696 C94.1007949,35.3944483 94.3521817,40.8207491 93.1999923,41.6797387 C92.1525473,42.5177775 90.8956133,42.161611 90.1833507,41.1769155 C89.5967815,40.19222 89.3453947,37.8247606 89.6805771,33.6974199 C90.0576573,29.5700793 91.0003578,25.170376 92.1944451,23.8085631 C93.4513791,22.4257992 94.4569262,23.4314456 94.8340064,23.8085631 C94.8340064,23.8085631 96.4470717,25.2751308 99.1704287,29.6119812 L99.6313045,30.408118 C99.6313045,30.408118 102.103275,34.5354587 102.354661,34.5145077 C102.354661,34.5145077 102.56415,34.7240174 102.731742,34.5564096 C102.983128,34.4935567 102.899333,33.1526948 102.899333,33.1526948 C102.899333,33.1526948 102.438457,28.6901386 100.134078,21.1477901 C100.134078,21.1477901 99.7988957,20.1840456 100.029334,19.262203 C100.238823,18.4241643 101.139625,18.8431836 101.139625,18.8431836 C101.139625,18.8431836 104.617143,20.5192611 106.314003,26.1760224 C107.989915,31.8327838 106.858675,36.9657709 106.230208,38.4951916 M89.1568546,23.9761708 C88.8216722,24.5627979 88.6750299,25.3798857 87.2295559,25.6103463 C87.2295559,25.6103463 73.1937931,26.5950418 72.5024794,27.5797373 C72.5024794,27.5797373 72.0416036,28.1663644 72.795764,28.3130212 C73.5918222,28.4806289 76.7760549,28.8996483 78.2843757,28.9834521 C79.9183899,28.9834521 85.4070016,29.0253541 87.418096,31.4975683 C87.418096,31.4975683 88.5702854,32.6708225 88.5283876,35.3315954 C88.4864898,38.0552213 88.0046652,39.0189658 86.9362713,40.0036613 C85.8259796,40.9255039 76.3151792,45.1995014 70.1771516,38.6627994 C70.1771516,38.6627994 67.369999,35.5201542 71.1617498,33.1317438 C71.1617498,33.1317438 73.8851068,31.4556664 80.8610904,33.4041064 C80.8610904,33.4041064 82.9559803,34.1583412 82.8721847,34.9335271 C82.7464913,35.7715658 81.1334261,36.6096045 78.7871493,36.5677026 C76.5246682,36.5048496 74.8487562,35.4153993 75.1839386,35.603958 C75.4981721,35.7087129 72.7329173,34.2630961 71.8740124,35.2477916 C71.0360564,36.1696342 71.2455454,36.7143593 72.0835014,37.2800355 C74.1783914,38.4951916 82.411309,38.0552213 84.8623302,35.3106445 C84.8623302,35.3106445 85.8469285,34.2002432 84.3595566,33.2993515 C82.8931336,32.4613128 78.6195581,31.9375386 76.964595,31.8746857 C75.3934276,31.7908819 69.5067868,31.8746857 68.626933,30.3452651 C68.626933,30.3452651 67.788977,29.2558147 68.7107286,26.2807773 C69.674378,23.1381321 76.5246682,21.9229759 79.4994119,21.6715643 C79.4994119,21.6715643 87.6694828,21.3363488 89.1987524,23.0124263 C89.1987524,23.0124263 89.4082414,23.3895437 89.1568546,23.9552198 M65.9873716,42.3920716 C65.0027734,43.1253555 62.9078834,42.811091 62.3003653,41.9730523 C61.7137961,41.2397684 61.5043071,38.3485348 61.6090516,33.8021748 C61.7556939,29.1510599 61.8185406,23.4523966 62.8659856,22.530554 C63.9134306,21.6296624 64.5418976,22.4257992 64.9608756,23.0333772 C65.3798535,23.6619063 65.9245249,24.3532882 66.0083205,25.798905 C66.1340139,27.2654728 66.4901452,34.8078212 66.4901452,34.8078212 C66.4901452,34.8078212 66.951021,41.6797387 66.0083205,42.3920716 M68.0822616,17.8794391 C65.1913134,18.8641346 63.2221169,18.5498701 61.5462049,17.8165862 C60.8129934,19.1364972 60.3730665,19.5345656 59.8283951,19.6183695 C58.9904392,19.7021733 58.2572277,18.3613114 58.1524832,17.942292 C57.984892,17.6280275 57.5868629,17.0623514 58.0686876,15.7843423 C56.4346734,14.3177746 56.30898,12.3483836 56.6022646,11.0284726 C56.9793448,9.47810097 59.7445995,3.65373187 68.1241594,2.96234993 C68.1241594,2.96234993 72.2301437,2.66903638 72.9424063,4.84793704 L73.0680997,4.84793704 C73.0680997,4.84793704 77.0483906,4.84793704 76.964595,8.4096016 C76.964595,11.9712662 72.5653261,16.4128714 68.0822616,17.942292 M71.8111657,7.73917062 C69.1716044,8.15818998 65.1075178,11.6779526 63.1592702,14.5901372 C66.1549628,15.1348623 71.3921877,14.9253526 73.7384645,10.1904339 C73.7384645,10.1904339 74.8487562,7.21539643 71.8111657,7.73917062 M60.2264242,10.0437771 C59.3884682,11.40559 59.3465704,12.2226778 59.7445995,12.7674029 C60.7291978,11.3008352 62.4679565,8.9962287 65.0865689,7.19444546 C63.0754746,7.40395514 61.3786137,8.24199386 60.2264242,10.0437771 M131.599325,42.2454149 C129.672027,46.9803336 128.038012,51.7781053 127.095312,58.9642873 C127.095312,58.9642873 126.885823,60.3680022 125.733633,59.9070809 C124.581444,59.4880615 122.696043,57.6024744 122.277065,54.9417015 C121.858087,51.4638408 123.408306,45.5975697 126.571589,38.8513581 C125.649838,37.3847903 125.000422,35.2058896 125.524144,32.1470483 C125.524144,32.1470483 126.3621,26.490287 132.018303,21.3782508 C132.018303,21.3782508 132.688668,20.8125746 133.065748,21.0011334 C133.526624,21.210643 133.338084,23.0124263 132.961004,23.9342689 C132.625821,24.8142095 130.111953,29.1720109 130.111953,29.1720109 C130.111953,29.1720109 128.540786,32.1470483 128.980713,34.4726058 C131.955457,29.9052947 138.721951,20.6449669 142.911731,23.5781024 C145.572241,25.4636895 145.572241,31.5394702 143.582096,35.0592329 C142.010928,37.8457116 137.569762,43.6072278 131.641223,42.2663658 M140.355965,28.0197076 C138.805747,29.6957851 136.040492,32.8803322 133.861806,37.1962316 C136.166185,36.94482 138.407718,35.6668109 139.099031,35.0173309 C140.209323,34.0326354 142.765089,31.3718625 142.36706,27.8520999 C142.36706,27.8520999 142.115673,26.0084147 140.355965,28.0197076 M46.504895,44.7176291 C39.0889845,46.9803336 32.092052,45.9327852 28.2793523,44.9271388 C28.1746078,46.4775104 28.0070166,47.1269904 27.7556298,47.378402 C27.4623452,47.7136175 25.0322728,49.0963814 23.6915433,47.1269904 C23.1049741,46.1841969 22.8116895,44.4871684 22.6440983,42.9367968 C14.0550494,39.0399168 10.0747585,33.2993515 9.9490651,33.0898419 C9.7395761,32.8803322 7.79132843,30.8480883 9.7395761,28.3339721 C11.5621304,26.0712676 17.5954135,23.7876121 23.0002296,22.8867205 C23.2097186,18.2775075 23.7124922,14.715843 24.361908,13.1445204 C25.1370173,11.2589332 26.1216156,12.9350107 27.0014694,14.1920688 C27.713732,15.1348623 28.1536589,19.1783991 28.1955567,22.4048482 C31.7149718,22.2372405 33.8517596,22.4886521 37.7692038,23.2428869 C42.9226331,24.1228276 46.3582527,26.7626495 46.085917,29.737687 C45.8345302,32.6708225 43.153071,33.8859787 42.105626,33.9697825 C41.0581811,34.0535864 39.3822691,33.2784006 39.3822691,33.2784006 C38.2091307,32.7336754 39.2775246,32.2308522 40.6392031,31.6442251 C42.1475238,30.9109412 41.8123414,30.1776573 41.8123414,30.1776573 C41.2676701,28.5015799 34.5849711,27.3911786 27.9441699,27.3911786 C27.9441699,31.057598 28.0908122,37.1333787 28.1955567,40.6740923 C32.8462124,41.5540329 36.3237297,41.3654742 36.3237297,41.3654742 C36.3237297,41.3654742 53.2923385,40.883602 53.7741631,30.0519515 C54.2978856,19.1993501 36.8055544,8.80766999 23.9219812,5.53931899 C11.0593568,2.16621314 3.7691397,4.55462349 3.14067271,4.86888801 C2.44935903,5.2041035 3.07782602,5.32980931 3.07782602,5.32980931 C3.07782602,5.32980931 3.7691397,5.43456415 5.02607368,5.85358351 C6.28300766,6.27260287 5.27746048,6.90113191 5.27746048,6.90113191 C3.07782602,7.65536675 0.626804758,7.21539643 0.144980066,6.20974996 C-0.336844626,5.22505447 0.459213561,4.32416285 1.40191404,3.00425186 C2.28176783,1.64243894 3.28731501,1.68434088 3.28731501,1.68434088 C19.2084787,-3.86766563 38.6490576,6.08404415 38.6490576,6.08404415 C56.8327025,15.2605681 59.9331396,26.0503166 59.5979572,30.2405102 C59.3046726,34.3678509 57.7125563,41.3445233 46.504895,44.7385801 M11.5202326,29.737687 C9.7186272,30.5757257 10.9755612,31.9165877 10.9755612,31.9165877 C14.3692829,35.5411051 18.5171651,37.8247606 22.497456,39.2494265 C22.9583318,32.9641361 22.916434,30.7223825 22.916434,27.5587863 C16.7574575,27.9778057 13.1961445,28.9834521 11.5202326,29.737687" id="Shape"></path>
                </g>
            </g>
        </g>
    </g>
</svg>