<?xml version="1.0" standalone="no"?>
<!DOCTYPE svg PUBLIC "-//W3C//DTD SVG 20010904//EN"
 "http://www.w3.org/TR/2001/REC-SVG-20010904/DTD/svg10.dtd">
<svg version="1.0" xmlns="http://www.w3.org/2000/svg"
 width="16.000000pt" height="16.000000pt" viewBox="0 0 16.000000 16.000000"
 preserveAspectRatio="xMidYMid meet">
<metadata>
Created by potrace 1.11, written by Peter Selinger 2001-2013
</metadata>
<g transform="translate(0.000000,16.000000) scale(0.003125,-0.003125)"
fill="#000000" stroke="none">
<path d="M1365 4811 c-27 -10 -64 -25 -81 -34 -45 -23 -129 -102 -148 -139 -9
-18 -25 -46 -35 -63 -21 -36 -354 -611 -615 -1065 -103 -179 -205 -354 -226
-390 -145 -248 -224 -388 -237 -424 -21 -54 -21 -216 0 -271 8 -22 90 -171
182 -330 93 -160 177 -306 188 -325 11 -19 68 -118 127 -220 212 -366 334
-576 358 -620 257 -460 315 -541 421 -594 97 -48 68 -47 1286 -44 l1150 3 65
31 c97 46 158 110 238 249 208 362 422 733 654 1135 53 91 104 180 114 197 11
18 71 122 134 230 139 240 148 259 164 321 16 60 12 183 -7 237 -12 33 -1046
1834 -1122 1956 -34 52 -100 107 -175 143 l-65 31 -1160 2 c-1098 2 -1163 1
-1210 -16z m1305 -146 c0 -2 -13 -26 -29 -53 -15 -26 -39 -68 -53 -93 -26 -45
-524 -905 -562 -969 l-21 -35 -645 2 c-355 1 -653 2 -663 2 -20 1 -26 -11 123
248 90 155 113 194 179 310 68 120 76 133 157 273 44 74 85 148 93 163 28 52
81 105 133 131 l52 26 618 0 c340 0 618 -2 618 -5z m1068 -21 c28 -14 64 -40
79 -58 50 -57 425 -716 415 -729 -9 -11 -161 -272 -220 -377 -14 -25 -42 -74
-64 -109 -21 -34 -38 -65 -38 -68 0 -3 -8 -17 -19 -31 -10 -15 -31 -49 -45
-77 -15 -27 -32 -59 -39 -70 -23 -37 -54 -90 -79 -135 -89 -158 -151 -260
-156 -260 -4 1 -101 166 -217 368 -115 201 -222 378 -236 393 l-25 27 -442 -1
c-243 0 -444 2 -447 5 -3 3 31 68 76 144 44 76 91 157 103 179 13 22 48 83 78
135 30 52 133 229 227 393 l173 297 412 0 412 0 52 -26z m777 -1249 c67 -115
133 -230 147 -255 36 -64 156 -272 167 -290 58 -91 114 -204 122 -246 12 -65
-1 -125 -39 -191 -16 -27 -40 -69 -54 -94 -14 -24 -133 -231 -265 -459 -132
-228 -244 -424 -250 -434 -9 -17 -15 -10 -50 50 -110 190 -317 548 -462 797
-88 153 -161 282 -161 287 0 7 323 568 603 1048 l60 103 30 -53 c16 -29 85
-147 152 -263z m-2613 -42 c8 -4 -7 -34 -86 -166 -25 -43 -46 -80 -46 -82 0
-2 -33 -59 -73 -126 -160 -273 -227 -396 -227 -420 0 -14 83 -168 196 -365
211 -366 244 -423 244 -428 0 -3 -1318 -1 -1332 2 -5 1 -8 6 -8 11 0 4 -87
159 -193 342 -107 184 -198 348 -204 364 -18 53 -8 135 23 197 16 31 109 196
208 366 l178 309 657 0 c361 0 659 -2 663 -4z m1128 -16 c6 -11 20 -34 30 -51
82 -144 244 -423 250 -431 4 -5 22 -37 40 -70 18 -33 44 -79 57 -102 l25 -43
-414 0 -413 0 -41 73 c-22 39 -111 194 -197 343 -86 149 -159 277 -162 286 -5
13 42 15 403 15 397 0 410 -1 422 -20z m-746 -459 c97 -168 176 -312 176 -318
0 -6 -24 -53 -53 -103 -29 -51 -118 -204 -196 -342 -79 -137 -147 -254 -151
-258 -6 -7 -160 241 -160 259 0 3 -8 18 -19 32 -10 15 -68 114 -129 219 l-111
193 88 152 c49 84 130 225 181 313 51 88 102 176 112 195 11 19 23 39 25 44 7
11 29 -25 237 -386z m1115 -455 c-18 -32 -111 -193 -206 -358 l-173 -300 -406
-1 c-237 -1 -407 3 -410 8 -3 5 1 17 10 27 9 10 16 20 16 23 0 3 47 86 104
184 57 99 117 202 132 230 16 28 54 94 84 147 l55 97 413 0 413 0 -32 -57z
m296 -235 c65 -112 127 -219 137 -238 11 -19 106 -183 211 -364 105 -181 190
-334 190 -340 0 -6 -64 -121 -143 -256 -78 -135 -153 -265 -167 -290 -65 -116
-78 -137 -102 -163 -14 -16 -46 -41 -71 -55 l-45 -27 -423 0 -423 0 -165 285
c-91 157 -176 303 -188 325 -13 22 -87 150 -165 284 -77 134 -141 246 -141
250 0 3 197 5 437 5 241 -1 447 2 460 7 22 8 43 37 99 135 152 269 370 643
375 644 4 0 59 -91 124 -202z m-1708 -587 c17 -1 50 -51 174 -263 83 -145 176
-303 205 -353 77 -133 230 -398 255 -442 12 -21 28 -47 35 -58 8 -11 14 -23
14 -27 0 -5 -278 -8 -618 -8 l-618 0 -50 25 c-28 14 -62 37 -76 52 -22 23
-190 304 -295 493 -14 25 -40 70 -58 100 -18 30 -42 71 -53 90 -11 19 -65 114
-121 210 -91 158 -99 175 -80 180 15 4 1182 5 1286 1z"/>
</g>
</svg>
