<svg version="1.1" xmlns="http://www.w3.org/2000/svg" xmlns:xlink="http://www.w3.org/1999/xlink" x="0" y="0" width="210" height="210" viewBox="0 0 210 210" enable-background="new 0 0 210 210" xml:space="preserve"><g id="v1" display="none"><g display="inline"><g><g><line fill="none" stroke="#50A3FC" stroke-width="1.5" stroke-linecap="round" stroke-linejoin="round" x1="88.503" y1="44.519" x2="100.435" y2="44.519"/><line fill="none" stroke="#50A3FC" stroke-width="1.5" stroke-linecap="round" stroke-linejoin="round" stroke-dasharray="0,2.7498,2.7498,9.1659" x1="106.851" y1="44.519" x2="116.933" y2="44.519"/><path fill="none" stroke="#50A3FC" stroke-width="1.5" stroke-linecap="round" stroke-linejoin="round" stroke-dasharray="13.7489,6.4161,0,2.7498,2.7498,9.1659" d="M121.512,44.629c5.567,0.695,11.802,4.589,14.492,9.249l6.265,10.849"/><line fill="none" stroke="#50A3FC" stroke-width="1.5" stroke-linecap="round" stroke-linejoin="round" x1="144.562" y1="68.699" x2="150.527" y2="79.031"/></g></g><g><g><line fill="none" stroke="#50A3FC" stroke-width="1.5" stroke-linecap="round" stroke-linejoin="round" x1="45.8" y1="139.572" x2="40.8" y2="130.912"/><line fill="none" stroke="#50A3FC" stroke-width="1.5" stroke-linecap="round" stroke-linejoin="round" stroke-dasharray="0,3.2001,3.2001,9.6002" x1="37.6" y1="125.369" x2="32.001" y2="115.674"/><path fill="none" stroke="#50A3FC" stroke-width="1.5" stroke-linecap="round" stroke-linejoin="round" stroke-dasharray="12.8002,6.4001,0,3.2001,3.2001,9.6002" d="M29.942,111.351c-1.581-5.021-1.148-11.478,1.299-15.714l7.118-12.326"/><line fill="none" stroke="#50A3FC" stroke-width="1.5" stroke-linecap="round" stroke-linejoin="round" x1="40.764" y1="79.146" x2="45.765" y2="70.486"/></g></g><g><g><line fill="none" stroke="#50A3FC" stroke-width="1.5" stroke-linecap="round" stroke-linejoin="round" x1="150.525" y1="130.967" x2="144.561" y2="141.3"/><line fill="none" stroke="#50A3FC" stroke-width="1.5" stroke-linecap="round" stroke-linejoin="round" stroke-dasharray="0,2.6329,2.6329,8.7761" x1="141.488" y1="146.62" x2="136.664" y2="154.977"/><path fill="none" stroke="#50A3FC" stroke-width="1.5" stroke-linecap="round" stroke-linejoin="round" stroke-dasharray="13.1643,6.1433,0,2.6329,2.6329,8.7761" d="M134.193,158.592c-3.545,3.959-9.442,6.89-14.4,6.89H107.21"/><line fill="none" stroke="#50A3FC" stroke-width="1.5" stroke-linecap="round" stroke-linejoin="round" x1="102.812" y1="165.481" x2="90.881" y2="165.481"/></g></g><g><g><g><g><g><line fill="none" stroke="#50A3FC" stroke-width="1.5" stroke-linecap="round" stroke-linejoin="round" x1="95.677" y1="105" x2="105.677" y2="105"/><line fill="none" stroke="#50A3FC" stroke-width="1.5" stroke-linecap="round" stroke-linejoin="round" stroke-dasharray="0,2.9038,2.9038,8.7114" x1="111.484" y1="105" x2="121.647" y2="105"/><line fill="none" stroke="#50A3FC" stroke-width="1.5" stroke-linecap="round" stroke-linejoin="round" x1="126.004" y1="105" x2="136.004" y2="105"/></g></g></g><g><g><line fill="none" stroke="#50A3FC" stroke-width="1.5" stroke-linecap="round" stroke-linejoin="round" x1="74.576" y1="70.486" x2="79.792" y2="79.018"/><line fill="none" stroke="#50A3FC" stroke-width="1.5" stroke-linecap="round" stroke-linejoin="round" stroke-dasharray="0,2.9219,2.9219,8.7656" x1="82.84" y1="84.004" x2="88.174" y2="92.729"/><line fill="none" stroke="#50A3FC" stroke-width="1.5" stroke-linecap="round" stroke-linejoin="round" x1="90.461" y1="96.468" x2="95.677" y2="105"/></g></g><g><g><line fill="none" stroke="#50A3FC" stroke-width="1.5" stroke-linecap="round" stroke-linejoin="round" x1="75.423" y1="140.693" x2="80.358" y2="131.996"/><line fill="none" stroke="#50A3FC" stroke-width="1.5" stroke-linecap="round" stroke-linejoin="round" stroke-dasharray="0,3.0056,3.0056,9.0168" x1="83.325" y1="126.768" x2="88.517" y2="117.618"/><line fill="none" stroke="#50A3FC" stroke-width="1.5" stroke-linecap="round" stroke-linejoin="round" x1="90.742" y1="113.697" x2="95.677" y2="105"/></g></g></g></g><g><path fill="none" stroke="#50A3FC" stroke-width="1.5" stroke-linecap="round" stroke-linejoin="round" stroke-miterlimit="10" d="M49.23,70.486c-2.552,0-5.684-1.808-6.96-4.019L31.916,48.535c-1.276-2.21-1.276-5.827,0-8.037L42.27,22.569 c1.276-2.21,4.409-4.019,6.96-4.019h20.705c2.552,0,5.685,1.808,6.96,4.019l10.351,17.929c1.276,2.21,1.276,5.827,0,8.037 L76.896,66.468c-1.276,2.21-4.408,4.019-6.96,4.019H49.23z"/></g><g><path fill="none" stroke="#50A3FC" stroke-width="1.5" stroke-linecap="round" stroke-linejoin="round" stroke-miterlimit="10" d="M50.545,191.449c-2.552,0-5.684-1.809-6.96-4.019l-10.354-17.933c-1.276-2.21-1.276-5.827,0-8.037l10.354-17.93 c1.276-2.21,4.408-4.019,6.96-4.019H71.25c2.552,0,5.684,1.809,6.96,4.019l10.352,17.93c1.276,2.21,1.276,5.827,0,8.037 L78.21,187.431c-1.276,2.21-4.408,4.019-6.96,4.019H50.545z"/></g><g><path fill="none" stroke="#50A3FC" stroke-width="1.5" stroke-linecap="round" stroke-linejoin="round" stroke-miterlimit="10" d="M155.167,130.968c-2.552,0-5.685-1.809-6.96-4.019l-10.354-17.933c-1.276-2.21-1.276-5.827,0-8.037l10.354-17.93 c1.276-2.21,4.409-4.019,6.961-4.019h20.704c2.552,0,5.685,1.809,6.96,4.019l10.352,17.93c1.276,2.21,1.276,5.827,0,8.037 l-10.352,17.933c-1.275,2.21-4.408,4.019-6.96,4.019H155.167z"/></g><g><path fill="none" stroke="#50A3FC" stroke-width="1.5" stroke-linecap="round" stroke-linejoin="round" stroke-miterlimit="10" d="M53.371,60.099c-1.531,0-3.411-1.085-4.176-2.411l-6.212-10.759c-0.766-1.326-0.766-3.496,0-4.822l6.212-10.758 c0.766-1.326,2.645-2.411,4.176-2.411h12.423c1.531,0,3.411,1.085,4.176,2.411l6.21,10.758c0.766,1.326,0.766,3.496,0,4.822 l-6.21,10.759c-0.766,1.326-2.645,2.411-4.176,2.411H53.371z"/></g><g><path fill="none" stroke="#50A3FC" stroke-width="1.5" stroke-linecap="round" stroke-linejoin="round" stroke-miterlimit="10" d="M54.686,181.062c-1.531,0-3.411-1.085-4.176-2.411l-6.213-10.759c-0.766-1.326-0.766-3.496,0-4.822l6.212-10.758 c0.766-1.326,2.645-2.411,4.176-2.411h12.422c1.531,0,3.411,1.085,4.176,2.411l6.211,10.758c0.766,1.326,0.766,3.496,0,4.822 l-6.211,10.759c-0.766,1.326-2.645,2.411-4.176,2.411H54.686z"/></g><g><path fill="none" stroke="#50A3FC" stroke-width="1.5" stroke-linecap="round" stroke-linejoin="round" stroke-miterlimit="10" d="M159.307,120.58c-1.531,0-3.41-1.085-4.176-2.411l-6.213-10.76c-0.766-1.326-0.766-3.496,0-4.822l6.213-10.757 c0.766-1.326,2.645-2.411,4.176-2.411h12.424c1.531,0,3.41,1.085,4.176,2.411l6.21,10.757c0.766,1.326,0.766,3.496,0,4.822 l-6.21,10.76c-0.766,1.326-2.645,2.411-4.176,2.411H159.307z"/></g><g><path fill="none" stroke="#50A3FC" stroke-width="1.5" stroke-linecap="round" stroke-linejoin="round" stroke-miterlimit="10" d="M57.512,49.711c-0.511,0-1.137-0.362-1.392-0.804l-2.071-3.586c-0.255-0.442-0.255-1.165,0-1.607l2.071-3.585 c0.255-0.442,0.881-0.804,1.392-0.804h4.141c0.51,0,1.137,0.362,1.392,0.804l2.071,3.585c0.255,0.442,0.255,1.166,0,1.607 l-2.071,3.586c-0.255,0.442-0.881,0.804-1.392,0.804H57.512z"/></g><g><path fill="none" stroke="#50A3FC" stroke-width="1.5" stroke-linecap="round" stroke-linejoin="round" stroke-miterlimit="10" d="M58.826,170.676c-0.511,0-1.137-0.361-1.392-0.804l-2.071-3.587c-0.255-0.442-0.255-1.165,0-1.607l2.071-3.586 c0.255-0.442,0.881-0.804,1.392-0.804h4.141c0.51,0,1.137,0.361,1.392,0.804l2.07,3.586c0.255,0.442,0.255,1.165,0,1.607 l-2.07,3.587c-0.255,0.442-0.881,0.804-1.392,0.804H58.826z"/></g><g><path fill="none" stroke="#50A3FC" stroke-width="1.5" stroke-linecap="round" stroke-linejoin="round" stroke-miterlimit="10" d="M163.448,110.192c-0.511,0-1.137-0.361-1.393-0.804l-2.071-3.586c-0.256-0.442-0.256-1.166,0-1.607l2.071-3.585 c0.256-0.442,0.882-0.804,1.393-0.804h4.139c0.511,0,1.137,0.362,1.393,0.804l2.071,3.585c0.256,0.442,0.256,1.165,0,1.607 l-2.071,3.586c-0.256,0.442-0.882,0.804-1.393,0.804H163.448z"/></g></g></g><g id="v2"><g><g><g><g><g><line fill="none" stroke="#50A3FC" stroke-width="1.5" stroke-linecap="round" stroke-linejoin="round" x1="95.677" y1="105" x2="105.677" y2="105"/><line fill="none" stroke="#50A3FC" stroke-width="1.5" stroke-linecap="round" stroke-linejoin="round" stroke-dasharray="0,2.9038,2.9038,8.7114" x1="111.484" y1="105" x2="121.647" y2="105"/><line fill="none" stroke="#50A3FC" stroke-width="1.5" stroke-linecap="round" stroke-linejoin="round" x1="126.004" y1="105" x2="136.004" y2="105"/></g></g></g><g><g><line fill="none" stroke="#50A3FC" stroke-width="1.5" stroke-linecap="round" stroke-linejoin="round" x1="74.576" y1="70.486" x2="79.792" y2="79.018"/><line fill="none" stroke="#50A3FC" stroke-width="1.5" stroke-linecap="round" stroke-linejoin="round" stroke-dasharray="0,2.9219,2.9219,8.7656" x1="82.84" y1="84.004" x2="88.174" y2="92.729"/><line fill="none" stroke="#50A3FC" stroke-width="1.5" stroke-linecap="round" stroke-linejoin="round" x1="90.461" y1="96.468" x2="95.677" y2="105"/></g></g><g><g><line fill="none" stroke="#50A3FC" stroke-width="1.5" stroke-linecap="round" stroke-linejoin="round" x1="75.423" y1="140.693" x2="80.358" y2="131.996"/><line fill="none" stroke="#50A3FC" stroke-width="1.5" stroke-linecap="round" stroke-linejoin="round" stroke-dasharray="0,3.0056,3.0056,9.0168" x1="83.325" y1="126.768" x2="88.517" y2="117.618"/><line fill="none" stroke="#50A3FC" stroke-width="1.5" stroke-linecap="round" stroke-linejoin="round" x1="90.742" y1="113.697" x2="95.677" y2="105"/></g></g></g></g><g><g><line fill="none" stroke="#50A3FC" stroke-width="1.5" stroke-linecap="round" stroke-linejoin="round" x1="88.544" y1="44.561" x2="100.475" y2="44.561"/><line fill="none" stroke="#50A3FC" stroke-width="1.5" stroke-linecap="round" stroke-linejoin="round" stroke-dasharray="0,2.7498,2.7498,9.1659" x1="106.892" y1="44.561" x2="116.974" y2="44.561"/><path fill="none" stroke="#50A3FC" stroke-width="1.5" stroke-linecap="round" stroke-linejoin="round" stroke-dasharray="13.7489,6.4161,0,2.7498,2.7498,9.1659" d="M121.553,44.671c5.567,0.695,11.801,4.589,14.492,9.25l6.264,10.849"/><line fill="none" stroke="#50A3FC" stroke-width="1.5" stroke-linecap="round" stroke-linejoin="round" x1="144.602" y1="68.741" x2="150.567" y2="79.073"/></g></g><g><g><line fill="none" stroke="#50A3FC" stroke-width="1.5" stroke-linecap="round" stroke-linejoin="round" x1="45.841" y1="139.614" x2="40.841" y2="130.954"/><line fill="none" stroke="#50A3FC" stroke-width="1.5" stroke-linecap="round" stroke-linejoin="round" stroke-dasharray="0,3.2001,3.2001,9.6002" x1="37.641" y1="125.412" x2="32.042" y2="115.716"/><path fill="none" stroke="#50A3FC" stroke-width="1.5" stroke-linecap="round" stroke-linejoin="round" stroke-dasharray="12.8002,6.4001,0,3.2001,3.2001,9.6002" d="M29.982,111.394c-1.581-5.022-1.148-11.479,1.299-15.715l7.118-12.326"/><line fill="none" stroke="#50A3FC" stroke-width="1.5" stroke-linecap="round" stroke-linejoin="round" x1="40.804" y1="79.188" x2="45.805" y2="70.528"/></g></g><g><g><line fill="none" stroke="#50A3FC" stroke-width="1.5" stroke-linecap="round" stroke-linejoin="round" x1="150.565" y1="131.009" x2="144.601" y2="141.342"/><line fill="none" stroke="#50A3FC" stroke-width="1.5" stroke-linecap="round" stroke-linejoin="round" stroke-dasharray="0,2.6329,2.6329,8.7761" x1="141.529" y1="146.662" x2="136.705" y2="155.019"/><path fill="none" stroke="#50A3FC" stroke-width="1.5" stroke-linecap="round" stroke-linejoin="round" stroke-dasharray="13.1643,6.1433,0,2.6329,2.6329,8.7761" d="M134.234,158.634c-3.545,3.959-9.443,6.89-14.401,6.89H107.25"/><line fill="none" stroke="#50A3FC" stroke-width="1.5" stroke-linecap="round" stroke-linejoin="round" x1="102.853" y1="165.523" x2="90.922" y2="165.523"/></g></g><g><path fill="none" stroke="#50A3FC" stroke-width="1.5" stroke-linecap="round" stroke-linejoin="round" stroke-miterlimit="10" d="M155.542,124.945c-1.956,0-4.356-1.386-5.335-3.08l-7.937-13.745c-0.978-1.693-0.978-4.466,0-6.16l7.937-13.743 c0.979-1.694,3.379-3.08,5.335-3.08h15.869c1.956,0,4.356,1.386,5.335,3.08l7.934,13.743c0.979,1.694,0.979,4.466,0,6.161 l-7.934,13.744c-0.979,1.694-3.379,3.08-5.335,3.08H155.542z"/></g><g opacity=".5"><path fill="none" stroke="#50A3FC" stroke-width="1.5" stroke-linecap="round" stroke-linejoin="round" stroke-miterlimit="10" d="M158.715,116.983c-1.173,0-2.613-0.831-3.2-1.848l-4.763-8.247c-0.587-1.017-0.586-2.68,0.001-3.696l4.762-8.245 c0.587-1.016,2.027-1.848,3.2-1.848h9.522c1.174,0,2.614,0.832,3.201,1.848l4.76,8.245c0.587,1.017,0.587,2.68,0,3.696 l-4.761,8.247c-0.586,1.017-2.026,1.848-3.2,1.848H158.715z"/></g><g><path fill="none" stroke="#50A3FC" stroke-width="1.5" stroke-linecap="round" stroke-linejoin="round" stroke-miterlimit="10" d="M161.89,109.021c-0.392,0-0.872-0.276-1.067-0.615l-1.588-2.749c-0.195-0.339-0.195-0.893,0-1.232l1.588-2.748 c0.195-0.339,0.676-0.616,1.067-0.616h3.172c0.392,0,0.872,0.277,1.067,0.616l1.588,2.748c0.195,0.339,0.195,0.893,0,1.232 l-1.588,2.749c-0.195,0.339-0.676,0.615-1.067,0.615H161.89z"/></g><g><path fill="none" stroke="#50A3FC" stroke-width="1.5" stroke-linecap="round" stroke-linejoin="round" stroke-miterlimit="10" d="M53.292,185.445c-1.956,0-4.356-1.386-5.335-3.08l-7.937-13.745c-0.978-1.693-0.978-4.466,0-6.159l7.936-13.743 c0.978-1.694,3.379-3.08,5.335-3.08h15.869c1.956,0,4.357,1.386,5.335,3.08l7.934,13.742c0.978,1.694,0.978,4.467,0,6.161 l-7.934,13.744c-0.978,1.694-3.378,3.08-5.334,3.08H53.292z"/></g><g opacity=".5"><path fill="none" stroke="#50A3FC" stroke-width="1.5" stroke-linecap="round" stroke-linejoin="round" stroke-miterlimit="10" d="M56.465,177.483c-1.174,0-2.614-0.831-3.201-1.848l-4.762-8.247c-0.587-1.017-0.587-2.68,0-3.696l4.762-8.245 c0.587-1.017,2.027-1.848,3.201-1.848h9.522c1.173,0,2.614,0.832,3.201,1.848l4.76,8.245c0.587,1.017,0.587,2.68,0,3.696 l-4.76,8.247c-0.587,1.017-2.027,1.848-3.201,1.848H56.465z"/></g><g><path fill="none" stroke="#50A3FC" stroke-width="1.5" stroke-linecap="round" stroke-linejoin="round" stroke-miterlimit="10" d="M59.639,169.521c-0.391,0-0.871-0.276-1.067-0.615l-1.588-2.749c-0.196-0.339-0.196-0.894,0-1.231l1.588-2.749 c0.196-0.339,0.676-0.615,1.067-0.615h3.173c0.391,0,0.871,0.276,1.067,0.615l1.588,2.749c0.195,0.338,0.195,0.893,0,1.231 l-1.588,2.749c-0.196,0.339-0.676,0.615-1.067,0.615H59.639z"/></g><g><path fill="none" stroke="#50A3FC" stroke-width="1.5" stroke-linecap="round" stroke-linejoin="round" stroke-miterlimit="10" d="M52.792,66.195c-1.956,0-4.356-1.386-5.335-3.08l-7.937-13.745c-0.978-1.694-0.978-4.466,0-6.16l7.936-13.743 c0.978-1.694,3.379-3.08,5.335-3.08h15.869c1.956,0,4.357,1.386,5.335,3.08L81.93,43.21c0.978,1.694,0.978,4.466,0,6.16 l-7.934,13.745c-0.978,1.694-3.378,3.08-5.334,3.08H52.792z"/></g><g opacity=".5"><path fill="none" stroke="#50A3FC" stroke-width="1.5" stroke-linecap="round" stroke-linejoin="round" stroke-miterlimit="10" d="M55.965,58.234c-1.174,0-2.614-0.832-3.201-1.848l-4.762-8.247c-0.587-1.017-0.587-2.68,0-3.696l4.762-8.245 c0.587-1.016,2.027-1.848,3.201-1.848h9.522c1.173,0,2.614,0.832,3.201,1.848l4.76,8.245c0.587,1.017,0.587,2.68,0,3.696 l-4.76,8.247c-0.587,1.016-2.027,1.848-3.201,1.848H55.965z"/></g><g><path fill="none" stroke="#50A3FC" stroke-width="1.5" stroke-linecap="round" stroke-linejoin="round" stroke-miterlimit="10" d="M59.139,50.272c-0.391,0-0.871-0.277-1.067-0.616l-1.588-2.749c-0.196-0.339-0.196-0.893,0-1.232l1.588-2.749 c0.196-0.338,0.676-0.616,1.067-0.616h3.173c0.391,0,0.871,0.277,1.067,0.616l1.588,2.749c0.195,0.339,0.195,0.893,0,1.232 l-1.588,2.749c-0.196,0.339-0.676,0.616-1.067,0.616H59.139z"/></g></g></svg>