<svg xmlns="http://www.w3.org/2000/svg" viewBox="0 0 555 590"><defs><style>.a,.t{opacity:0.66;}.b,.c,.d,.e,.f,.g,.h,.i,.j,.k,.l,.m,.n,.o,.p,.q,.s,.t,.u,.v{fill:none;}.b,.c,.d,.e,.f,.g,.h,.i,.j,.k,.l,.m,.n,.o,.p,.q,.s,.t,.u{stroke:#fff;stroke-linecap:round;stroke-linejoin:round;}.b,.k,.l,.m,.p,.q{stroke-width:8px;}.c,.d,.e,.f,.g,.h,.i,.j,.n,.o,.s,.t,.u{stroke-width:4px;}.d{stroke-dasharray:3.36 23.53 10.09 16.81;}.e{stroke-dasharray:23.53 23.53 3.36 23.53 10.09 16.81;}.f{stroke-dasharray:2.23 15.62 6.69 11.16;}.g{stroke-dasharray:2.78 19.44 8.33 13.88;}.h{stroke-dasharray:19.44 19.44 2.78 19.44 8.33 13.88;}.i{stroke-dasharray:3.33 23.34 10 16.67;}.j{stroke-dasharray:23.34 23.34 3.33 23.34 10 16.67;}.k{stroke-dasharray:155.98 51.99 0 34.66 34.66 69.33;}.l{stroke-dasharray:209.45 69.82 0 46.54 46.54 93.09;}.m{stroke-dasharray:76.23 21.34 0 15.25 15.25 30.49;}.n{stroke-dasharray:2.58 18.06 7.74 12.9;}.o{stroke-dasharray:18.06 18.06 2.58 18.06 7.74 12.9;}.p{opacity:0.8;}.q{stroke-dasharray:148.09 49.36 0 32.91 32.91 65.82;}.r{fill:#fff;}.s{stroke-dasharray:104.8 34.93 0 17.47 17.47 52.4;}.u{stroke-dasharray:45 15 0 10 10 20;}</style></defs><title>Snowplow_Website-Home_Icon_Insights-V2</title><g class="a"><path class="b" d="M229.27,529.34c-7.15,0-15.93-5.07-19.51-11.27l-21.85-37.86c-3.58-6.2-3.58-16.34,0-22.53l21.85-37.85c3.58-6.2,12.36-11.27,19.51-11.27H273c7.15,0,15.93,5.07,19.51,11.27l21.85,37.85c3.58,6.2,3.58,16.34,0,22.53L292.5,518.07c-3.58,6.2-12.36,11.27-19.51,11.27Z"/></g><g class="a"><path class="b" d="M473.37,106.95c-7.21,0-16-5.1-19.65-11.34L438.59,69.42c-3.6-6.24-3.6-16.45,0-22.69l15.13-26.19c3.6-6.24,12.45-11.34,19.65-11.34H503.6c7.21,0,16,5.11,19.65,11.35l15.11,26.18c3.6,6.24,3.6,16.45,0,22.69L523.25,95.6c-3.6,6.24-12.44,11.35-19.65,11.35Z"/></g><path class="c" d="M51.42,356.7c-7.21,0-16-5.1-19.65-11.34L16.64,319.16c-3.6-6.24-3.6-16.45,0-22.69l15.13-26.18c3.6-6.24,12.45-11.34,19.65-11.34H81.65c7.21,0,16,5.11,19.65,11.34l15.12,26.18c3.6,6.24,3.6,16.45,0,22.69L101.3,345.35c-3.6,6.24-12.45,11.35-19.65,11.35Z"/><g class="a"><line class="c" x1="356.82" y1="286.65" x2="364.4" y2="273.38"/><line class="d" x1="376.07" y1="252.94" x2="398.57" y2="213.52"/><line class="e" x1="402.74" y1="206.22" x2="448.58" y2="125.92"/><line class="c" x1="452.74" y1="118.62" x2="460.32" y2="105.35"/></g><g class="a"><line class="c" x1="289.44" y1="403.41" x2="297.19" y2="390.23"/><line class="f" x1="305.11" y1="376.77" x2="320.38" y2="350.81"/><line class="c" x1="323.21" y1="346" x2="330.96" y2="332.82"/></g><g class="a"><line class="c" x1="442.72" y1="485.63" x2="435.04" y2="472.41"/><line class="g" x1="425.27" y1="455.61" x2="406.42" y2="423.2"/><line class="h" x1="402.94" y1="417.2" x2="364.55" y2="351.18"/><line class="c" x1="361.06" y1="345.18" x2="353.38" y2="331.96"/></g><g class="a"><line class="c" x1="330.39" y1="285.79" x2="322.66" y2="272.6"/><line class="i" x1="310.86" y1="252.47" x2="288.09" y2="213.63"/><line class="j" x1="283.87" y1="206.44" x2="237.5" y2="127.33"/><line class="c" x1="233.29" y1="120.13" x2="225.56" y2="106.95"/></g><path class="c" d="M454.72,580.8c-7.21,0-16-5.11-19.65-11.35L420,543.26c-3.6-6.24-3.6-16.45,0-22.69l15.12-26.18c3.6-6.24,12.45-11.34,19.65-11.34H485c7.21,0,16,5.11,19.65,11.34l15.12,26.18c3.6,6.24,3.6,16.45,0,22.69L504.6,569.45C501,575.69,492.16,580.8,485,580.8Z"/><g class="a"><path class="b" d="M197.76,99.2a8.39,8.39,0,0,1-6.55-3.78l-9.29-16.08a8.38,8.38,0,0,1,0-7.56l9.29-16.09a8.39,8.39,0,0,1,6.55-3.78h18.56a8.39,8.39,0,0,1,6.55,3.78l9.29,16.09a8.38,8.38,0,0,1,0,7.56l-9.29,16.08a8.39,8.39,0,0,1-6.55,3.78Z"/></g><path class="k" d="M229.27,529.34c-7.15,0-15.93-5.07-19.51-11.27l-21.85-37.86c-3.58-6.2-3.58-16.34,0-22.53l21.85-37.85c3.58-6.2,12.36-11.27,19.51-11.27H273c7.15,0,15.93,5.07,19.51,11.27l21.85,37.85c3.58,6.2,3.58,16.34,0,22.53L292.5,518.07c-3.58,6.2-12.36,11.27-19.51,11.27Z"/><path class="l" d="M473.37,106.95c-7.21,0-16-5.1-19.65-11.34L438.59,69.42c-3.6-6.24-3.6-16.45,0-22.69l15.13-26.19c3.6-6.24,12.45-11.34,19.65-11.34H503.6c7.21,0,16,5.11,19.65,11.35l15.11,26.18c3.6,6.24,3.6,16.45,0,22.69L523.25,95.6c-3.6,6.24-12.44,11.35-19.65,11.35Z"/><path class="m" d="M197.76,99.2a8.39,8.39,0,0,1-6.55-3.78l-9.29-16.08a8.38,8.38,0,0,1,0-7.56l9.29-16.09a8.39,8.39,0,0,1,6.55-3.78h18.56a8.39,8.39,0,0,1,6.55,3.78l9.29,16.09a8.38,8.38,0,0,1,0,7.56l-9.29,16.08a8.39,8.39,0,0,1-6.55,3.78Z"/><g class="a"><line class="c" x1="119.46" y1="307.82" x2="134.75" y2="307.82"/><line class="n" x1="152.81" y1="307.82" x2="187.64" y2="307.82"/><line class="o" x1="194.09" y1="307.82" x2="265.05" y2="307.82"/><line class="c" x1="271.5" y1="307.82" x2="286.79" y2="307.82"/></g><path class="p" d="M284.71,249.65a82.27,82.27,0,1,1,0,116.35A82.27,82.27,0,0,1,284.71,249.65Z"/><path class="q" d="M401.06,366a82.27,82.27,0,1,1,0-116.35A82.28,82.28,0,0,1,401.06,366Z"/><circle class="r" cx="342.88" cy="307.52" r="4" transform="translate(-117.02 332.58) rotate(-45.01)"/><path class="s" d="M168.21,307.82A174.67,174.67,0,1,1,342.87,482.5,174.67,174.67,0,0,1,168.21,307.82Z"/><g class="a"><path class="c" d="M297.88,307.82s21.34-25,45-25,45,25,45,25-19.33,25-45,25S297.88,307.82,297.88,307.82Z"/></g><circle class="t" cx="342.88" cy="307.82" r="25" transform="translate(-117.24 332.61) rotate(-45)"/><circle class="u" cx="342.88" cy="307.82" r="25" transform="translate(-117.24 332.6) rotate(-45)"/><path class="r" d="M342.88,297.82a9.94,9.94,0,0,0-4.16.91,3.49,3.49,0,1,1-4.93,4.93,10,10,0,1,0,9.09-5.84Z"/><path class="v" d="M336.38,304.82a3.53,3.53,0,1,0-2.59-1.16A3.5,3.5,0,0,0,336.38,304.82Z"/></svg>