<?xml version="1.0" encoding="UTF-8"?>
<svg width="176px" height="40px" viewBox="0 0 176 40" version="1.1" xmlns="http://www.w3.org/2000/svg" xmlns:xlink="http://www.w3.org/1999/xlink">
    <!-- Generator: Sketch 55.1 (78136) - https://sketchapp.com -->
    <title>path3345</title>
    <desc>Created with Sketch.</desc>
    <g id="Landingpage---v2" stroke="none" stroke-width="1" fill="none" fill-rule="evenodd">
        <g id="Gartner-report-Landing-page" transform="translate(-1102.000000, -256.000000)" fill="#FFFFFF" fill-rule="nonzero">
            <g id="Group-3" transform="translate(1052.000000, 181.000000)">
                <g id="Gartner_logo" transform="translate(50.000000, 75.000000)">
                    <g id="g3343" transform="translate(88.000000, 20.000000) scale(-1, 1) rotate(-180.000000) translate(-88.000000, -20.000000) ">
                        <path d="M174.501564,27.0987722 L173.99635,21.0633636 L171.520564,21.0633636 C167.567636,21.0633636 165.512993,17.9087754 165.512993,14.8855957 L165.512993,1.25430159 L158.506779,1.25430159 L158.506779,27.0987722 L165.142921,27.0987722 L165.293779,23.8730043 C166.686064,26.0850488 169.122564,27.0987722 172.127136,27.0987722 L174.501564,27.0987722 L174.501564,27.0987722 Z M125.928471,1.25453624 L118.915971,1.25453624 L118.915971,14.9171181 C118.915971,17.7783836 118.667686,21.3796046 114.625186,21.3796046 C110.731971,21.3796046 109.180971,18.582479 109.180971,15.3254234 L109.180971,1.25453624 L102.170829,1.25453624 L102.170829,27.0990068 L108.670257,27.0990068 L108.818757,23.7950196 C110.211829,26.0070641 112.806257,27.7294552 116.633471,27.7294552 C123.698614,27.7294552 125.928471,22.7077699 125.928471,17.4819321 L125.928471,1.25453624 L125.928471,1.25453624 Z M99.1131429,7.29174387 L98.6228571,1.41120969 C96.9414286,0.962230361 95.4485714,0.801098406 93.6422143,0.801098406 C87.0351429,0.801098406 85.1187857,3.81723831 85.1187857,9.87924149 L85.1187857,34.3869426 L92.1305,34.3869426 L92.1305,27.0984593 L99.1076429,27.0984593 L98.6228571,21.0638329 L92.1305,21.0638329 L92.1305,10.4040936 C92.1305,7.97147042 92.8007143,6.65738457 95.3071429,6.65738457 C96.3969286,6.65738457 97.6092857,6.78801097 99.1131429,7.29174387 L99.1131429,7.29174387 Z M82.8164857,27.0987722 L82.2735571,21.0633636 L80.3682,21.0633636 C76.4231286,21.0633636 74.4612,17.9126863 74.4612,14.8855957 L74.4612,1.25430159 L67.4487,1.25430159 L67.4487,27.0987722 L74.0879857,27.0987722 L74.2262714,23.8730043 C75.6264143,26.0850488 78.0629143,27.0987722 81.0714143,27.0987722 L82.8164857,27.0987722 L82.8164857,27.0987722 Z M35.8061,4.11775723 C31.0501714,1.58501319 26.2997429,0.123874876 20.0250286,0.305343875 C8.39252857,0.658895544 0.000314285716,7.84960461 0.000314285716,19.9955124 C0.000314285716,32.088231 8.47345714,39.8147429 20.0305286,39.9962119 C25.8888143,40.085382 31.1311,38.6054711 35.2286,35.0058145 L30.2927429,30.0349719 C27.7572429,32.1867874 24.0266714,33.4445553 19.5685286,33.2435315 C12.2951714,32.9064059 7.91245714,27.6445871 7.81581429,20.4100752 C7.72074286,12.5717095 12.5489571,7.16987806 20.0965286,6.97276518 C23.6479571,6.88437726 26.1921,7.35916899 28.3936714,8.34316899 L28.3936714,16.3551817 L20.5491,16.3551817 L21.0786714,22.9263932 L35.8061,22.9263932 L35.8061,4.11775723 Z M155.375471,11.7205261 L136.1514,11.7205261 C136.699043,8.41810318 139.306829,6.43133052 142.554186,6.34137822 C145.711186,6.25611907 147.477471,7.20570254 149.786686,9.53351176 L154.3619,6.06057058 C151.110614,2.07372798 147.208757,0.622758183 142.763971,0.622758183 C134.946114,0.622758183 129.0894,6.06448155 129.0894,14.1773973 C129.0894,22.2817089 134.917043,27.7296898 142.471686,27.7296898 C150.7979,27.7296898 155.375471,22.7080046 155.375471,13.7941223 L155.375471,11.7205261 L155.375471,11.7205261 Z M148.351186,17.1239219 C148.1359,20.3887995 145.678971,22.4530094 142.2949,22.3216008 C138.888829,22.193321 136.621257,19.9851874 136.1514,17.1239219 L148.351186,17.1239219 L148.351186,17.1239219 Z M63.0344,18.178163 L63.0344,1.25461446 L56.8524,1.25461446 L56.6991857,3.80300238 C54.8024714,1.46424244 51.7232571,0.622601745 48.5529,0.622601745 C43.7789,0.622601745 39.2681143,2.96605484 39.1738286,8.42420429 C39.0316143,17.0033076 48.8726857,17.6126367 55.0531143,17.6126367 L56.2882571,17.6126367 L56.2882571,17.9521089 C56.2882571,20.7891264 54.4025429,22.3214444 50.8519,22.3214444 C48.3030429,22.3214444 45.7871857,21.30381 43.9266143,19.5673394 L39.8809714,23.658996 C43.5541857,26.6235111 47.3759,27.7295334 51.4474714,27.7295334 C59.4892571,27.7295334 63.0344,24.029756 63.0344,18.178163 L63.0344,18.178163 Z M56.2882571,12.5252472 L55.3131857,12.5252472 C51.9935429,12.5182075 46.1627571,12.3555111 46.1846951,8.89977822 C46.2161857,4.03140302 56.2882571,5.57858267 56.2882571,11.4497305 L56.2882571,12.5252472 Z M169.031971,4.26089872 C169.031971,5.90585262 170.2789,7.14563004 171.877829,7.14563004 C173.457114,7.14563004 174.7064,5.90585262 174.7064,4.26089872 C174.7064,2.58700365 173.457114,1.3511372 171.877829,1.3511372 C170.2789,1.3511372 169.031971,2.58700365 169.031971,4.26089872 L169.031971,4.26089872 Z M171.877829,0.773095862 C173.781614,0.773095862 175.405686,2.24518489 175.405686,4.26089872 C175.405686,6.25627551 173.781614,7.72523577 171.877829,7.72523577 C169.956757,7.72523577 168.331114,6.25627551 168.331114,4.26089872 C168.331114,2.24518489 169.956757,0.773095862 171.877829,0.773095862 L171.877829,0.773095862 Z M171.138471,3.98243767 L171.841686,3.98243767 L172.901614,2.24518489 L173.586757,2.24518489 L172.441971,4.01059666 C173.033614,4.0825585 173.4854,4.39856486 173.4854,5.11583672 C173.4854,5.90585262 173.014757,6.25627551 172.062471,6.25627551 L170.530329,6.25627551 L170.530329,2.24518489 L171.138471,2.24518489 L171.138471,3.98243767 L171.138471,3.98243767 Z M171.138471,4.49946788 L171.138471,5.73924531 L171.968971,5.73924531 C172.394829,5.73924531 172.8474,5.64772861 172.8474,5.15103545 C172.8474,4.5354488 172.3854,4.49946788 171.869971,4.49946788 L171.138471,4.49946788 L171.138471,4.49946788 Z" id="path3345"></path>
                    </g>
                </g>
            </g>
        </g>
    </g>
</svg>