<?xml version="1.0" encoding="UTF-8"?>
<svg width="291px" height="36px" viewBox="0 0 291 36" version="1.1" xmlns="http://www.w3.org/2000/svg" xmlns:xlink="http://www.w3.org/1999/xlink">
    <!-- Generator: Sketch 55.1 (78136) - https://sketchapp.com -->
    <title>path1072</title>
    <desc>Created with Sketch.</desc>
    <g id="Landingpage---v2" stroke="none" stroke-width="1" fill="none" fill-rule="evenodd">
        <g id="ABM-Landing-Page---Media---WarnerMedia" transform="translate(-421.000000, -802.000000)" fill="#1E1E1E" fill-rule="nonzero">
            <g id="Group-5-Copy" transform="translate(355.000000, 719.000000)">
                <g id="WarnerMedia_(2019)_logo-Copy" transform="translate(66.000000, 83.000000)">
                    <path d="M273.514037,14.9864787 L272.139595,11.8997441 C274.967143,10.2149485 278.207779,9.35010954 281.498894,9.40199752 C287.912959,9.40199752 291,12.92502 291,19.491148 L291,35.3611095 L287.858416,35.3611095 L287.52026,32.5143327 C285.054725,34.6148514 281.944317,35.8080828 278.706376,35.8955623 C273.808561,35.8955623 270.721519,32.9069923 270.721519,28.5004867 C270.721519,23.6576944 273.808561,20.6145886 280.124451,20.6145886 L287.367546,20.6145886 L287.367546,19.7856422 C287.367546,15.226437 285.360423,12.7832263 280.909849,12.7832263 C278.293363,12.8524235 275.741761,13.6125595 273.514037,14.9864787 L273.514037,14.9864787 Z M287.367546,23.7122305 L280.266258,23.7122305 C276.35019,23.7122305 274.397609,25.3264946 274.397609,28.0751062 C274.397609,30.8237178 276.502904,32.5252412 279.589945,32.5252412 C282.472179,32.4392986 285.229529,31.3295073 287.367546,29.3948752 L287.367546,23.7122305 Z M202.773887,35.3611095 L198.159689,8.09313474 L188.462233,35.3611095 L185.669716,35.3611095 L176.015893,8.02769185 L171.358062,35.3611095 L167.485623,35.3611095 L173.572441,1.09071913 L177.346702,1.09071913 L187.087791,29.591205 L196.785246,1.09071913 L200.559508,1.09071913 L206.646326,35.3720151 L202.773887,35.3611095 Z M230.164561,33.5505157 C227.433721,35.101711 224.338378,35.8961792 221.197961,35.8519341 C213.56217,35.8519341 208.707988,30.4637808 208.707988,22.6215114 C208.707988,15.226437 213.56217,9.40199752 220.314392,9.40199752 C227.06661,9.40199752 231.091763,14.6374486 231.091763,21.203577 C231.091763,22.130688 231.091763,23.0687064 230.993591,23.9958174 L212.449526,23.9958174 C213.027665,29.1876397 216.365595,32.5688694 221.503392,32.5688694 C224.079023,32.5220151 226.609427,31.8838788 228.8992,30.7037388 L230.164561,33.5505157 Z M227.372044,20.8109179 L227.372044,20.6145886 C227.372044,16.1099192 224.73224,12.6850617 220.368931,12.6850617 C216.005622,12.6850617 213.11493,16.1644551 212.482252,20.8109179 L227.372044,20.8109179 Z M257.293435,0 L257.293435,35.3065728 L254.162761,35.3065728 L253.813698,32.7215681 C251.499579,34.7569507 248.518088,35.8710176 245.436142,35.8521753 C238.57484,35.8521753 234.756943,29.8747942 234.756943,22.6760475 C234.756943,15.2809728 239.120252,9.40199752 246.068823,9.40199752 C248.822472,9.3980549 251.502642,10.2900801 253.704614,11.9433729 L253.704614,0 L257.293435,0 Z M246.177907,32.5143327 C248.932646,32.4267775 251.567727,31.3682136 253.617348,29.5257627 L253.617348,15.4773024 C251.703257,13.7558368 249.241928,12.7667669 246.668778,12.6850617 C241.520074,12.6850617 238.433033,16.8952369 238.433033,22.6760475 C238.433033,28.1078279 241.127375,32.5143327 246.177907,32.5143327 Z M266.380026,9.50016244 L266.380026,35.3611095 L262.70394,35.3611095 L262.70394,9.50016244 L266.380026,9.50016244 Z M23.7036774,13.8085022 C23.3109796,16.0662905 22.7219327,18.564037 22.3837762,20.0256002 L18.6640553,35.3611095 L9.9374367,35.3611095 L0,1.09071913 L8.02848892,1.09071913 L12.6863216,18.215007 C13.0244779,19.7311064 13.668066,22.3270172 14.1589385,24.4866408 L19.8312403,1.09071913 L27.5215729,1.09071913 L33.2593241,24.4975482 C33.79383,22.3161102 34.4265106,19.7420134 34.7755738,18.225914 L39.3243257,1.09071913 L47.3637216,1.09071913 L37.546275,35.3720151 L28.8196573,35.3720151 L25.0235783,20.0256002 C24.685422,18.5422226 24.0963752,16.0662905 23.7036774,13.8085022 Z M93.7238832,9.50016244 L100.083406,9.50016244 L100.574276,12.1942382 C101.686685,11.1393035 102.979942,10.2932278 104.392173,9.6964917 C105.781037,9.15116167 107.263616,8.88432393 108.755482,8.91117409 C111.153654,8.77270008 113.47719,9.77071136 115.02774,11.6052499 C116.500357,13.4158434 117.209393,15.9681258 117.209393,19.2402826 L117.209393,35.3611095 L109.911759,35.3611095 L109.911759,19.6874776 C110.004424,18.4956319 109.654943,17.3113978 108.930015,16.3607846 C108.108647,15.5440455 106.961639,15.143034 105.810248,15.2700658 C104.035664,15.3221603 102.336224,15.9980067 101.010608,17.178824 L101.010608,35.3611095 L93.7238832,35.3611095 L93.7238832,9.50016244 Z M142.025716,28.3586933 L144.272818,33.3105576 C141.232713,35.1548025 137.726416,36.0861888 134.171757,35.9937272 C126.535966,35.9937272 121.081832,30.3110791 121.081832,22.4251822 C121.081832,14.8774067 126.132361,8.95480287 133.571802,8.95480287 C140.727629,8.95480287 145.178206,14.0048315 145.178206,21.6398645 C145.178206,22.6215114 145.178206,23.9412815 145.080032,24.672063 L128.281291,24.672063 C128.924879,28.2496213 131.3247,29.9620506 135.338943,29.9620506 C137.661209,29.9463012 139.948872,29.3977643 142.025716,28.3586933 Z M128.259475,19.8838068 L138.447801,19.8838068 L138.447801,19.6438488 C138.458799,18.3006805 137.990857,16.9975321 137.127901,15.9681258 C136.236375,14.9960279 134.966728,14.4587701 133.648161,14.4956552 C132.30273,14.4681492 131.00651,15.0016017 130.070249,15.9681258 C129.079543,17.0740547 128.448089,18.4547465 128.259475,19.9274356 L128.259475,19.8838068 Z M89.5569203,9.4674407 C89.2423764,9.42466669 88.925341,9.40280429 88.6079024,9.40199752 C85.6035505,9.41209189 82.7296688,10.6307169 80.6339553,12.7832263 L80.143082,9.51106949 L73.7726497,9.51106949 L73.7726497,35.3611095 L81.0702865,35.3611095 L81.0702865,17.6805545 C82.8822292,16.5667804 84.9647555,15.9707541 87.0916527,15.9572185 C87.9175091,15.9521157 88.7422834,16.0177992 89.5569203,16.153548 L89.5569203,9.4674407 Z M164.824006,16.153548 L164.922181,16.153548 L166.111181,9.81647072 L165.740301,9.6964917 C165.132653,9.54974191 164.510886,9.46928596 163.885895,9.45653365 C160.878007,9.46493018 158.000107,10.6835918 155.901038,12.8377624 L155.410165,9.56560533 L149.039736,9.56560533 L149.039736,35.3611095 L156.33737,35.3611095 L156.33737,17.6805545 C158.152475,16.5648629 160.239038,15.9687615 162.369645,15.9572185 C163.206342,15.9525213 164.041952,16.0181959 164.867639,16.153548 L164.824006,16.153548 Z M264.471081,0 C263.518092,0 262.658941,0.574009018 262.294248,1.45436827 C261.929554,2.33472752 262.13114,3.348065 262.805004,4.021863 C263.478869,4.69566099 264.492307,4.8972265 265.372754,4.53256983 C266.253201,4.16791316 266.827267,3.30884721 266.827267,2.35595312 C266.827267,1.05479645 265.772367,0 264.471081,0 Z M58.4356198,8.91117409 C55.0153349,8.91595191 51.6339437,9.63674815 48.5090889,11.0271689 L49.9053505,16.731629 C52.1977437,15.6837228 54.6826814,15.1229031 57.2029845,15.0846433 C60.3882007,15.0846433 62.0571643,16.3607846 62.0571643,19.6874776 L62.0571643,19.9274356 L57.1048099,19.9274356 C49.9053505,19.9274356 46.6219597,22.817841 46.6219597,28.0641991 C46.6219597,32.7651992 50.0035223,35.9938318 55.0976868,35.9938318 C57.9945481,36.0062095 60.784502,34.9004973 62.8861942,32.9069923 L63.3334321,35.3611095 L69.300259,35.3611095 L69.300259,19.2402826 C69.300259,12.6305258 65.3841876,8.91117409 58.4356198,8.91117409 L58.4356198,8.91117409 Z M62.0571643,28.8386097 C60.6878489,29.8181127 59.0776466,30.4063253 57.3993339,30.5401316 C55.2176778,30.5401316 53.9195937,29.3185272 53.9195937,27.5515613 C53.9195937,25.7845965 55.1958615,24.6175272 57.5956803,24.6175272 L62.0571643,24.6175272 L62.0571643,28.8386097 Z" id="path1072"></path>
                </g>
            </g>
        </g>
    </g>
</svg>