<svg height="300pt" preserveAspectRatio="xMidYMid meet" viewBox="0 0 850 300" width="850pt" xmlns="http://www.w3.org/2000/svg"><g transform="matrix(.1 0 0 -.1 0 300)"><path d="m3540 1865v-125h-60-60v-85-85h60 60v-305-305h95 95v305 305h60 60v85 85h-60-60v125 125h-95-95z"/><path d="m4450 1895v-95h125 125v-420-420h110 110v420 420h125 125v95 95h-360-360z"/><path d="m6950 1840v-149l-35 20c-19 11-58 27-87 35-190 50-381-41-470-224-31-63-33-74-33-172 0-97 2-110 32-172 42-90 110-160 192-201 62-30 72-32 176-32 105 0 113 2 168 32l57 31v-24c0-24 1-24 95-24h95v515 515h-95-95zm-156-281c60-17 123-82 142-146 42-145-55-283-199-283-63 0-144 44-182 98-27 39-30 52-30 115 0 60 4 80 27 119 51 85 146 124 242 97z"/><path d="m604 1941c-53-38-61-52-138-236-37-88-70-166-73-173-4-10 129-12 662-10l666 3 63 150c35 83 77 183 94 223l31 72h-633-633z"/><path d="m2121 1948c-9-22-178-430-337-810-41-98-74-180-74-183s50-4 112-3l112 3 55 133 55 132h177 176l51-132 50-133 111-3c61-1 111 1 111 6 0 7-327 796-410 990-9 20-16 22-95 22s-86-2-94-22zm196-535c-3-2-49-2-104-1l-100 3 51 138 50 137 53-136c30-75 52-139 50-141z"/><path d="m4093 1741c-105-39-195-121-242-220-23-50-26-68-26-171 0-111 1-117 33-179 46-88 112-155 191-194 62-30 72-32 176-32s114 2 176 32c122 60 208 178 231 318 28 166-71 349-230 427-58 29-77 33-161 35-75 3-107-1-148-16zm215-186c82-35 122-101 122-202-1-107-40-173-122-208-57-23-126-19-186 11-43 21-56 34-78 81-45 91-32 205 29 272 52 56 159 77 235 46z"/><path d="m5725 1743c-103-31-183-102-241-213-27-52-29-63-29-175 0-115 1-123 32-185 41-84 110-153 191-192 122-58 297-48 371 21l31 29v-34-34h95 95v390 390h-95-95v-35-36l-39 31c-72 58-207 77-316 43zm186-184c95-32 155-125 147-229-13-176-215-255-346-136-71 64-88 184-40 268 51 85 151 126 239 97z"/><path d="m7437 1736c-230-95-328-350-220-572 36-75 115-154 190-190 54-27 67-29 173-29s119 2 170 28c30 16 77 49 103 75 44 43 107 138 107 162 0 6-38 10-96 10h-97l-42-39c-117-108-315-61-349 82l-6 27h310 310v33c-1 249-181 438-419 437-57 0-91-7-134-24zm240-176c30-13 52-34 73-67l31-48-197-3c-108-1-199-1-201 2-7 7 24 60 49 82 62 57 164 71 245 34z"/><path d="m5360 1734c-19-8-49-26-67-40l-33-25v35 36h-90-90v-390-390h95 95v215c0 121 5 237 11 267 15 69 49 102 122 118l57 13v89 88h-32c-18-1-49-8-68-16z"/><path d="m8290 1734c-19-8-49-26-67-40l-33-25v35 36h-90-90v-390-390h94 94l4 248c3 211 6 252 21 279 23 42 50 60 114 74l53 12v89 88h-32c-18-1-49-8-68-16z"/><path d="m2693 1453c2-192 7-300 15-325 19-55 71-118 127-153 45-28 55-30 149-30 105 0 124 6 184 59l22 19v-31-32h95 95v390 390h-95-95v-223c0-249-10-308-60-359-25-25-36-28-89-28-80 0-106 14-133 69-21 43-23 62-26 294l-4 247h-95-94z"/><path d="m340 1397c0-2-40-100-90-218-49-118-90-217-90-221 0-5 279-8 620-8 600 0 622 1 660 20 21 11 50 35 64 53 27 35 170 367 161 375-2 3-9-6-14-19-46-123-139-327-159-351-34-40-93-68-144-68-44 0-44 0-56 48-21 77-38 143-57 212-9 36-23 83-31 105-22 63-21 64 59 68 39 1-152 4-425 5-274 1-498 0-498-1z"/></g></svg>