<?xml version="1.0" encoding="utf-8"?>
<!-- Generator: Adobe Illustrator 21.1.0, SVG Export Plug-In . SVG Version: 6.00 Build 0)  -->
<svg version="1.1" id="Layer_1" xmlns="http://www.w3.org/2000/svg" xmlns:xlink="http://www.w3.org/1999/xlink" x="0px" y="0px"
	 viewBox="0 0 1109 139.8" style="enable-background:new 0 0 1109 139.8;" xml:space="preserve">
<style type="text/css">
	.st0{fill:#9B9FA8;}
</style>
<g id="RGB">
	<path class="st0" d="M497,33.5h-16V0h-24.1v33.5h-15.8v21.4h15.8v82.1H481V54.9h16V33.5z M547.7,30.4c-14.1,0-27.6,5.8-38,16.2
		c-10.2,10.2-15.6,23.7-15.6,38.2c0,14.6,5.4,27.8,15.2,38.4c10.6,11.2,23.3,16.6,38.8,16.6c15.4,0,28.7-5.4,39.1-16.2
		c10.4-10.6,15.4-23.7,15.4-39.3c0-14.3-6.2-28.5-17-38.9C575.3,35.5,562.8,30.4,547.7,30.4z M548.3,115.9
		c-17.7,0-29.3-11.8-29.3-31.2c0-17.9,11.9-30.5,29.3-30.5c16.6,0,29.3,12.1,29.3,29.9C577.6,103.9,565.9,115.9,548.3,115.9z
		 M267.1,0.7L209.6,139h28.2l15.2-36.9l49.5,0l14.3,36.8H345L287.1,0.7H267.1z M261.6,78.3l15.3-41.5h0.4l15.9,41.5H261.6z
		 M410,78.5c0,25.1-5,38-22.6,38c-17.7,0-21.4-12-21.4-36.4V33.5h-24.3v60c0,30.1,14.7,46.3,40.3,46.3c11.8,0,20.6-4.4,27.8-13.9
		v11.2h23.9V33.5H410L410,78.5L410,78.5z M1000,30.4c-14.3,0-28,6.2-38.6,17.4c-9.6,10.2-14.7,23.1-14.7,37.6
		c0,13.9,5.6,28,15.4,38.2c10.4,10.8,23.5,16.2,38.8,16.2c22.9,0,41.3-12.9,50.1-35.7h-26c-5,8.3-14.1,12.9-24.7,12.9
		c-16.4,0-27.2-9.3-28.7-24.1h82.9c0-1.7,0.2-3.5,0.2-5.2c0-13.7-2.9-24.7-9.8-33.9C1034.2,38.9,1018,30.4,1000,30.4z M972.5,73.8
		c3.7-12.9,14.8-21.2,27.6-21.2c14.7,0,24.7,7.3,28.7,21.2H972.5z M1082.5,45.5v-12h-22.6v103.5h24.1V84.2
		c0-19.3,4.4-28.2,25.1-29.7V32C1097.9,32,1089.6,36.4,1082.5,45.5z M917.4,41.8c-9.2-7.7-19.3-10.8-32.2-10.8
		c-13.5,0-26,4.6-35.7,13.7c-11.4,10.4-17.7,25.1-17.7,40.3c0,16.6,6.9,31.8,19.5,42.6c9.1,7.9,20.8,12.2,33.9,12.2
		c12.1,0,22.6-3.5,32.2-11.2v8.5h23.7V0h-23.7L917.4,41.8L917.4,41.8z M888.1,115.9c-18.3,0-31.2-13.3-31.2-30.5
		c0-16.6,13.3-30.7,30.1-30.7c16.8,0,29.5,13.3,29.5,31C916.5,102.9,903.5,115.9,888.1,115.9z M799.7,46.1
		c-6.7-10.2-17.5-15.2-32.6-15.2c-15.6,0-28,5-38.4,16c-9.6,10-14.8,23.5-14.8,38c0,30.8,22.9,54.6,53.8,54.6c16,0,26.4-4.6,32.2-15
		v12.7h23.3V33.5h-23.5L799.7,46.1L799.7,46.1z M768.5,115.1c-16.2,0-29.9-12.7-29.9-30.7c0-16.8,13.5-29.7,29.5-29.7
		c15.2,0,29.1,13.5,29.1,30.8C797.2,101.6,783.5,115.1,768.5,115.1z M674.4,0h-94.6v24.1h33.9v113h26.8v-113h33.9L674.4,0L674.4,0z
		 M713.9,32c-11.2,0-19.5,4.4-26.6,13.5v-12h-22.6v103.5h24.1V84.2c0-19.3,4.4-28.2,25.1-29.7V32z"/>
</g>
<g id="CMYK">
	<path class="st0" d="M496.8,33.6h-16V0h-24.1v33.6h-15.8V55h15.8v82.1h24.1V55h16V33.6z M547.6,30.5c-14.1,0-27.6,5.8-38,16.2
		C499.4,56.9,494,70.4,494,84.8c0,14.7,5.4,27.8,15.2,38.4c10.6,11.2,23.3,16.6,38.8,16.6c15.4,0,28.7-5.4,39.1-16.2
		c10.4-10.6,15.4-23.7,15.4-39.3c0-14.3-6.2-28.5-17-39C575.2,35.5,562.6,30.5,547.6,30.5z M548.2,115.9
		c-17.7,0-29.3-11.8-29.3-31.2c0-17.9,12-30.5,29.3-30.5c16.6,0,29.3,12.1,29.3,29.9C577.5,103.9,565.7,115.9,548.2,115.9z
		 M266.9,0.8l-57.6,138.3h28.2l15.2-36.9l49.5,0l14.3,36.9h28.2L286.9,0.8H266.9z M261.4,78.3l15.3-41.5h0.4l15.9,41.5H261.4z
		 M409.8,78.5c0,25.1-5,38-22.6,38c-17.7,0-21.4-12-21.4-36.4V33.6h-24.3v60c0,30.1,14.7,46.3,40.3,46.3c11.8,0,20.6-4.4,27.8-13.9
		v11.2h23.9V33.6h-23.7L409.8,78.5L409.8,78.5z M1000,30.5c-14.3,0-28,6.2-38.6,17.4C951.8,58,946.7,71,946.7,85.4
		c0,13.9,5.6,28,15.4,38.2c10.4,10.8,23.5,16.2,38.8,16.2c22.9,0,41.3-12.9,50.1-35.7h-26c-5,8.3-14.1,12.9-24.7,12.9
		c-16.4,0-27.2-9.3-28.7-24.1h82.9c0-1.7,0.2-3.5,0.2-5.2c0-13.7-2.9-24.7-9.8-33.9C1034.1,39,1017.9,30.5,1000,30.5z M972.4,73.9
		c3.7-12.9,14.8-21.2,27.6-21.2c14.7,0,24.7,7.3,28.7,21.2H972.4z M1082.4,45.5v-12h-22.6v103.6h24.1V84.3
		c0-19.3,4.4-28.2,25.1-29.7V32C1097.9,32,1089.6,36.4,1082.4,45.5z M917.3,41.8c-9.3-7.7-19.3-10.8-32.2-10.8
		c-13.5,0-26,4.6-35.7,13.7c-11.4,10.4-17.7,25.1-17.7,40.3c0,16.6,6.9,31.8,19.5,42.6c9.1,7.9,20.8,12.2,33.9,12.2
		c12.2,0,22.6-3.5,32.2-11.2v8.5h23.7V0h-23.7V41.8z M888,115.9c-18.3,0-31.2-13.3-31.2-30.5c0-16.6,13.3-30.7,30.1-30.7
		c16.8,0,29.5,13.3,29.5,31C916.4,103,903.5,115.9,888,115.9z M799.6,46.1C792.8,35.9,782,30.9,767,30.9c-15.6,0-28,5-38.4,16
		c-9.6,10-14.8,23.5-14.8,38c0,30.9,22.9,54.6,53.8,54.6c16,0,26.4-4.6,32.2-15v12.7h23.3V33.6h-23.5V46.1z M768.4,115.1
		c-16.2,0-29.9-12.7-29.9-30.7c0-16.8,13.5-29.7,29.5-29.7c15.2,0,29.1,13.5,29.1,30.9C797.1,101.6,783.4,115.1,768.4,115.1z
		 M674.3,0h-94.6v24.1h33.9v113h26.8v-113h33.9V0z M713.8,32c-11.2,0-19.5,4.4-26.6,13.5v-12h-22.6v103.6h24.1V84.3
		c0-19.3,4.4-28.2,25.1-29.7V32z"/>
	<g>
		<path class="st0" d="M157.3,139L157.3,139c0.4,0,0.9,0,1.3,0c12.2,0,22.6-7.7,26.7-18.4l17.6-42.2H25.6L0.3,139H157.3z"/>
	</g>
	<g>
		<path class="st0" d="M77.8,0.8L77.8,0.8c-0.5,0-0.9,0-1.3,0c-12.2,0-22.6,7.7-26.7,18.4L32.3,61.4h177.2l25.4-60.7L77.8,0.8
			L77.8,0.8z"/>
	</g>
	<g>
		<path class="st0" d="M157,139L157,139c0.5,0,0.9,0,1.3,0c12.2,0,22.6-7.7,26.7-18.4l17.6-42.2H25.4L0,139H157z"/>
	</g>
	<g>
		<path class="st0" d="M77.6,0.8L77.6,0.8c-0.5,0-0.9,0-1.3,0c-12.2,0-22.6,7.7-26.7,18.4L32,61.5h177.3l25.4-60.7L77.6,0.8
			L77.6,0.8z"/>
	</g>
</g>
</svg>
