<svg xmlns="http://www.w3.org/2000/svg" xmlns:xlink="http://www.w3.org/1999/xlink" viewBox="0 0 1920 1080"><defs><style>.cls-1{fill:none}.cls-2{isolation:isolate}.cls-3{fill:#fcfdff}.cls-15,.cls-4{fill:#bb73fc}.cls-5{fill:#f5eaff}.cls-6{fill:#fff}.cls-7{fill:#5b0098}.cls-8{fill:#f8f1ff}.cls-9{opacity:.15}.cls-10{clip-path:url(#clip-path)}.cls-11{fill:#70c8f2}.cls-12{fill:url(#linear-gradient)}.cls-13{fill:url(#linear-gradient-2)}.cls-14{fill:url(#linear-gradient-3)}.cls-15{mix-blend-mode:color}.cls-16{fill:#e9d1fe}.cls-17{fill:#f88298}.cls-18{fill:#c9abdd}.cls-19{fill:#323743}</style><clipPath id="clip-path"><path class="cls-1" d="M1255.33,566.75l-9.82-5.51-0.13-.13,0,0-29.14-16.57c-1.75-.94-3.23-0.81-4.17.13l0.52,0.13a4.44,4.44,0,0,0-.56,2.82V592a4.48,4.48,0,0,0,.45,2.66l-0.22,0s0,0.05,0,.08,0,0,0,.05l0.11,0.13v0c0.94,0.71,2.29.74,3.87-.11l29.14-16.57,0,0,0-.08,0.09-.05,0,0,0-.09,9.82-5.51C1258.16,570.91,1258.16,568.36,1255.33,566.75Z"/></clipPath><linearGradient id="linear-gradient" x1="81.59" y1="1038.29" x2="78.35" y2="1038.29" gradientTransform="matrix(15.18, 0, 0, -12.8, 15.92, 13859.8)" gradientUnits="userSpaceOnUse"><stop offset="0" stop-color="#ffdf00"/><stop offset=".41" stop-color="#f9bb00"/><stop offset=".78" stop-color="#f5a300"/><stop offset="1" stop-color="#f49a00"/></linearGradient><linearGradient id="linear-gradient-2" x1="50.35" y1="1052.59" x2="48.49" y2="1050.17" gradientTransform="matrix(24.9, 0, 0, -19.18, -12.4, 20760.46)" gradientUnits="userSpaceOnUse"><stop offset="0" stop-color="#e6373c"/><stop offset="1" stop-color="#c70e66"/></linearGradient><linearGradient id="linear-gradient-3" x1="48.48" y1="1054.5" x2="50" y2="1052.53" gradientTransform="matrix(24.9, 0, 0, -19.18, -12.4, 20741.28)" gradientUnits="userSpaceOnUse"><stop offset="0" stop-color="#229866"/><stop offset=".15" stop-color="#339f64"/><stop offset=".52" stop-color="#5bae5e"/><stop offset=".82" stop-color="#73b85b"/><stop offset="1" stop-color="#7cbb5a"/></linearGradient></defs><title>Snowplow_Website-Infographics_Cases_Peak_Img1</title><g class="cls-2"><g id="Curves"><rect class="cls-3" x="420" y="-420" width="1080" height="1920" transform="translate(420 1500) rotate(-90)"/><path class="cls-3" d="M1404.64,580.51a181.07,181.07,0,0,1-80.71-150.82h38.63"/><path class="cls-4" d="M1404.64,583.51a3,3,0,0,1-1.66-.5,184.05,184.05,0,0,1-82-153.32,3,3,0,0,1,3-3h38.63a3,3,0,0,1,0,6H1327A178.06,178.06,0,0,0,1406.31,578,3,3,0,0,1,1404.64,583.51Z"/><path class="cls-3" d="M1647.78,429.68h38.63a181.06,181.06,0,0,1-80,150.37"/><path class="cls-4" d="M1606.39,583.05a3,3,0,0,1-1.68-5.49,178.15,178.15,0,0,0,78.68-144.88h-35.6a3,3,0,0,1,0-6h38.63a3,3,0,0,1,3,3,184.15,184.15,0,0,1-81.35,152.85A3,3,0,0,1,1606.39,583.05Z"/><path class="cls-3" d="M1457.05,755.84c9.38-14.26,14.89-29.79,14.89-47.49,0-21.77-8.32-42.34-22-56.34h110.36c-13.63,14-22,34.58-22,56.34,0,17.7,5.51,33.53,14.89,47.79Z"/><path class="cls-4" d="M1553.29,759h0l-96.24-.23a3,3,0,0,1-2.5-4.6c9.69-14.73,14.4-29.72,14.4-45.84,0-20.7-7.69-40.47-21.1-54.25A3,3,0,0,1,1450,649h110.36a3,3,0,0,1,2.15,5.09c-13.41,13.77-21.1,33.55-21.1,54.25,0,16.09,4.84,31.61,14.4,46.14a2.88,2.88,0,0,1,.13,3A2.94,2.94,0,0,1,1553.29,759Zm-90.85-6.15,85.44,0.26a87.67,87.67,0,0,1-12.49-44.77c0-19.83,6.6-38.89,18.28-53.34h-97c11.69,14.45,18.28,33.52,18.28,53.34C1474.94,724,1470.85,738.59,1462.45,752.85Z"/><path class="cls-3" d="M1606.69,429.68V566.45c0,55.84-45.68,101.52-101.52,101.52h0c-55.84,0-101.52-45.68-101.52-101.52V429.68h203Z"/><path class="cls-4" d="M1505.17,671a104.64,104.64,0,0,1-104.52-104.52V429.69a3,3,0,0,1,3-3h203a3,3,0,0,1,3,3V566.45A104.64,104.64,0,0,1,1505.17,671Zm-98.52-238.29V566.45a98.52,98.52,0,0,0,197,0V432.69h-197Z"/><path class="cls-3" d="M1446.6,773.46L1465,741.58a9.6,9.6,0,0,1,7.49-4.32h65.33a9.6,9.6,0,0,1,7.49,4.32l18.41,31.88H1446.6Z"/><path class="cls-4" d="M1563.74,776.46H1446.6a3,3,0,0,1-2.6-4.5l18.41-31.88a12.52,12.52,0,0,1,10.09-5.82h65.33a12.52,12.52,0,0,1,10.09,5.82L1566.34,772A3,3,0,0,1,1563.74,776.46Zm-111.94-6h106.75l-15.81-27.38a6.67,6.67,0,0,0-4.89-2.82H1472.5a6.66,6.66,0,0,0-4.89,2.83Z"/><path id="Shape-57" class="cls-5" d="M1533.22,541c0.12,15.57,13.62,20.68,13.74,21a48.06,48.06,0,0,1-7.11,14.62c-4.14,6.3-8.64,12.48-15.63,12.6s-9.12-4-16.93-4-10.42,3.92-16.94,4.16c-6.75.24-11.84-6.77-16.22-13.07-8.77-12.83-15.51-36.12-6.4-51.93a24.8,24.8,0,0,1,21.08-13c6.75-.12,12.91,4.52,17.05,4.52s11.73-5.59,19.66-4.75c3.32,0.12,12.79,1.31,18.83,10.22C1543.88,521.68,1533.1,528,1533.22,541ZM1505,509.91c-0.71-5.82,2.25-12.12,5.45-15.92,3.67-4.28,10.07-7.61,15.16-7.84,0.71,6.06-1.66,12.12-5.21,16.51S1510.84,510.39,1505,509.91Z"/><path class="cls-4" d="M1325.69,411.94a1.5,1.5,0,0,1-1.5-1.5v-10a1.5,1.5,0,1,1,3,0v10A1.5,1.5,0,0,1,1325.69,411.94Z"/><path class="cls-3" d="M1213.27,517.53a22.75,22.75,0,0,1-22.71-22.68V405.09a22.77,22.77,0,0,1,22.71-22.69H1303"/><path class="cls-4" d="M1213.27,519a24.22,24.22,0,0,1-24.21-24.18V405.09a24.23,24.23,0,0,1,24.21-24.19H1303a1.5,1.5,0,0,1,0,3h-89.71a21.22,21.22,0,0,0-21.21,21.19v89.76A21.22,21.22,0,0,0,1213.27,516,1.5,1.5,0,0,1,1213.27,519Z"/><path class="cls-6" d="M1260.77,476v-29.2a32.65,32.65,0,0,1,32.55-32.58H1440a32.67,32.67,0,0,1,32.57,32.58V756.36A32.68,32.68,0,0,1,1440,788.94H1293.32a32.66,32.66,0,0,1-32.55-32.58V544.21"/><path class="cls-7" d="M1440,791.94H1293.32a35.61,35.61,0,0,1-35.55-35.58V544.21a3,3,0,1,1,6,0V756.36a29.6,29.6,0,0,0,29.55,29.58H1440a29.61,29.61,0,0,0,29.57-29.58V446.81A29.61,29.61,0,0,0,1440,417.23H1293.32a29.6,29.6,0,0,0-29.55,29.58V476a3,3,0,0,1-6,0v-29.2a35.61,35.61,0,0,1,35.55-35.58H1440a35.62,35.62,0,0,1,35.57,35.58V756.36A35.62,35.62,0,0,1,1440,791.94Z"/><path class="cls-7" d="M1378.86,447.37h-24.42a3,3,0,0,1,0-6h24.42A3,3,0,0,1,1378.86,447.37Z"/><path class="cls-7" d="M1366.62,768.74a19.3,19.3,0,1,1,19.31-19.31A19.31,19.31,0,0,1,1366.62,768.74Zm0-32.6a13.3,13.3,0,1,0,13.31,13.29A13.29,13.29,0,0,0,1366.62,736.15Z"/><path class="cls-3" d="M1483.37,627v13.62a4.55,4.55,0,0,1-4.54,4.54h-13.62a4.55,4.55,0,0,1-4.54-4.54V627a4.56,4.56,0,0,1,4.54-4.54h13.62"/><path class="cls-4" d="M1478.83,646.67h-13.62a6,6,0,0,1-6-6V627a6,6,0,0,1,6-6h13.63a1.5,1.5,0,0,1,0,3h-13.62a3,3,0,0,0-3,3v13.62a3,3,0,0,0,3,3h13.63a3,3,0,0,0,3-3V627a1.5,1.5,0,0,1,3,0v13.62A6,6,0,0,1,1478.83,646.67Z"/><rect class="cls-3" x="1302.99" y="347.44" width="51.04" height="51.03" rx="15.71" ry="15.71"/><path class="cls-4" d="M1338.32,400h-19.63a17.23,17.23,0,0,1-17.21-17.21V363.15a17.23,17.23,0,0,1,17.21-17.21h19.63a17.23,17.23,0,0,1,17.21,17.21v19.62A17.23,17.23,0,0,1,1338.32,400Zm-19.63-51a14.22,14.22,0,0,0-14.21,14.21v19.62A14.22,14.22,0,0,0,1318.69,397h19.63a14.22,14.22,0,0,0,14.21-14.21V363.15a14.22,14.22,0,0,0-14.21-14.21h-19.63Z"/><rect class="cls-3" x="1458.49" y="490.16" width="28.09" height="28.09" rx="9.37" ry="9.37"/><path class="cls-4" d="M1477.21,519.75h-9.35A10.88,10.88,0,0,1,1457,508.89v-9.35a10.88,10.88,0,0,1,10.87-10.87h9.35a10.88,10.88,0,0,1,10.87,10.87v9.35A10.88,10.88,0,0,1,1477.21,519.75Zm-9.35-28.09a7.88,7.88,0,0,0-7.87,7.87v9.35a7.88,7.88,0,0,0,7.87,7.87h9.35a7.88,7.88,0,0,0,7.87-7.87v-9.35a7.88,7.88,0,0,0-7.87-7.87h-9.35Z"/><rect class="cls-3" x="1476.73" y="600.17" width="33.76" height="33.75" rx="8.91" ry="8.91"/><path class="cls-4" d="M1501.58,635.42h-15.95A10.42,10.42,0,0,1,1475.23,625V609.08a10.42,10.42,0,0,1,10.41-10.41h15.95A10.42,10.42,0,0,1,1512,609.08V625A10.42,10.42,0,0,1,1501.58,635.42Zm-15.95-33.75a7.41,7.41,0,0,0-7.41,7.41V625a7.41,7.41,0,0,0,7.41,7.41h15.95A7.41,7.41,0,0,0,1509,625V609.08a7.41,7.41,0,0,0-7.41-7.41h-15.95Z"/><path class="cls-3" d="M1236.33,727.16h-19a6.35,6.35,0,0,1-6.34-6.33v-19a6.35,6.35,0,0,1,6.34-6.33h19a6.35,6.35,0,0,1,6.33,6.33v19"/><path class="cls-4" d="M1236.33,728.66h-19a7.84,7.84,0,0,1-7.84-7.83v-19a7.84,7.84,0,0,1,7.84-7.83h19a7.84,7.84,0,0,1,7.83,7.83v19a1.5,1.5,0,1,1-3,0v-19a4.83,4.83,0,0,0-4.83-4.83h-19a4.84,4.84,0,0,0-4.84,4.83v19a4.84,4.84,0,0,0,4.84,4.83h19A1.5,1.5,0,0,1,1236.33,728.66Z"/><rect class="cls-3" x="1229.55" y="709.93" width="47.08" height="47.07" rx="12.42" ry="12.42"/><path class="cls-4" d="M1264.2,758.5H1242A13.93,13.93,0,0,1,1228,744.58V722.35A13.93,13.93,0,0,1,1242,708.43h22.24a13.93,13.93,0,0,1,13.92,13.92v22.23A13.93,13.93,0,0,1,1264.2,758.5ZM1242,711.43A10.93,10.93,0,0,0,1231,722.35v22.23A10.93,10.93,0,0,0,1242,755.5h22.24a10.93,10.93,0,0,0,10.92-10.92V722.35a10.93,10.93,0,0,0-10.92-10.92H1242Z"/><rect class="cls-3" x="1215.4" y="474.3" width="69.9" height="69.91" rx="11.74" ry="11.74"/><path class="cls-4" d="M1273.57,545.71h-46.43a13.25,13.25,0,0,1-13.24-13.24V486a13.25,13.25,0,0,1,13.24-13.24h46.43A13.25,13.25,0,0,1,1286.81,486v46.43A13.25,13.25,0,0,1,1273.57,545.71Zm-46.43-69.91A10.25,10.25,0,0,0,1216.9,486v46.43a10.25,10.25,0,0,0,10.24,10.24h46.43a10.25,10.25,0,0,0,10.24-10.24V486a10.25,10.25,0,0,0-10.24-10.24h-46.43Z"/><path class="cls-3" d="M1393.65,534.53h11.54a3.86,3.86,0,0,1,3.85,3.84v11.54a3.86,3.86,0,0,1-3.85,3.84h-11.54a3.86,3.86,0,0,1-3.84-3.84V538.37"/><path class="cls-4" d="M1405.19,555.26h-11.54a5.35,5.35,0,0,1-5.34-5.34V538.37a1.5,1.5,0,1,1,3,0v11.54a2.35,2.35,0,0,0,2.34,2.34h11.54a2.35,2.35,0,0,0,2.35-2.34V538.37a2.35,2.35,0,0,0-2.35-2.34h-11.54a1.5,1.5,0,0,1,0-3h11.54a5.35,5.35,0,0,1,5.35,5.34v11.54A5.35,5.35,0,0,1,1405.19,555.26Z"/><rect class="cls-3" x="1370.92" y="511.56" width="28.59" height="28.59" rx="7.54" ry="7.54"/><path class="cls-4" d="M1392,541.66h-13.5a9.05,9.05,0,0,1-9-9V519.1a9.05,9.05,0,0,1,9-9H1392a9.05,9.05,0,0,1,9,9v13.51A9.05,9.05,0,0,1,1392,541.66Zm-13.5-28.59a6.05,6.05,0,0,0-6,6v13.51a6.05,6.05,0,0,0,6,6H1392a6.05,6.05,0,0,0,6-6V519.1a6.05,6.05,0,0,0-6-6h-13.5Z"/><rect class="cls-3" x="1277.71" y="506.69" width="15.2" height="15.2" rx="4.01" ry="4.01"/><path class="cls-4" d="M1288.9,523.4h-7.18a5.52,5.52,0,0,1-5.51-5.51V510.7a5.52,5.52,0,0,1,5.51-5.51h7.18a5.52,5.52,0,0,1,5.51,5.51v7.18A5.52,5.52,0,0,1,1288.9,523.4Zm-7.18-15.2a2.51,2.51,0,0,0-2.51,2.51v7.18a2.51,2.51,0,0,0,2.51,2.51h7.18a2.51,2.51,0,0,0,2.51-2.51V510.7a2.51,2.51,0,0,0-2.51-2.51h-7.18Z"/><rect class="cls-3" x="1211" y="374.81" width="15.2" height="15.2" rx="4.01" ry="4.01"/><path class="cls-4" d="M1222.19,391.51H1215a5.52,5.52,0,0,1-5.51-5.51v-7.18a5.52,5.52,0,0,1,5.51-5.51h7.18a5.52,5.52,0,0,1,5.51,5.51V386A5.52,5.52,0,0,1,1222.19,391.51Zm-7.18-15.2a2.51,2.51,0,0,0-2.51,2.51V386a2.51,2.51,0,0,0,2.51,2.51h7.18a2.51,2.51,0,0,0,2.51-2.51v-7.18a2.51,2.51,0,0,0-2.51-2.51H1215Z"/><rect class="cls-3" x="1274.1" y="733.15" width="7.2" height="7.2" rx="1.9" ry="1.9"/><path class="cls-4" d="M1279.41,741.85H1276a3.4,3.4,0,0,1-3.4-3.4V735a3.4,3.4,0,0,1,3.4-3.4h3.4a3.4,3.4,0,0,1,3.4,3.4v3.4A3.4,3.4,0,0,1,1279.41,741.85Zm-3.4-7.2a0.41,0.41,0,0,0-.4.4v3.4a0.41,0.41,0,0,0,.4.4h3.4a0.41,0.41,0,0,0,.4-0.4V735a0.41,0.41,0,0,0-.4-0.4H1276Z"/><rect class="cls-3" x="1495.33" y="461.49" width="7.2" height="7.2" rx="1.9" ry="1.9"/><path class="cls-4" d="M1500.63,470.19h-3.4a3.4,3.4,0,0,1-3.4-3.4v-3.4a3.4,3.4,0,0,1,3.4-3.4h3.4a3.4,3.4,0,0,1,3.4,3.4v3.4A3.4,3.4,0,0,1,1500.63,470.19Zm-3.4-7.2a0.41,0.41,0,0,0-.4.4v3.4a0.41,0.41,0,0,0,.4.4h3.4a0.41,0.41,0,0,0,.4-0.4v-3.4a0.41,0.41,0,0,0-.4-0.4h-3.4Z"/><rect class="cls-3" x="1432.61" y="390.01" width="7.2" height="7.2" rx="1.9" ry="1.9"/><path class="cls-4" d="M1437.91,398.71h-3.4a3.4,3.4,0,0,1-3.4-3.4v-3.4a3.4,3.4,0,0,1,3.4-3.4h3.4a3.4,3.4,0,0,1,3.4,3.4v3.4A3.4,3.4,0,0,1,1437.91,398.71Zm-3.4-7.2a0.41,0.41,0,0,0-.4.4v3.4a0.41,0.41,0,0,0,.4.4h3.4a0.41,0.41,0,0,0,.4-0.4v-3.4a0.41,0.41,0,0,0-.4-0.4h-3.4Z"/><rect class="cls-3" x="1207.4" y="449.97" width="7.2" height="7.2" rx="1.9" ry="1.9"/><path class="cls-4" d="M1212.7,458.67h-3.4a3.4,3.4,0,0,1-3.4-3.4v-3.4a3.4,3.4,0,0,1,3.4-3.4h3.4a3.4,3.4,0,0,1,3.4,3.4v3.4A3.4,3.4,0,0,1,1212.7,458.67Zm-3.4-7.2a0.41,0.41,0,0,0-.4.4v3.4a0.41,0.41,0,0,0,.4.4h3.4a0.41,0.41,0,0,0,.4-0.4v-3.4a0.41,0.41,0,0,0-.4-0.4h-3.4Z"/><path class="cls-3" d="M1230.08,637.41a6.57,6.57,0,0,1-2.34,4.66l-34.49,25.7c-1.29,1-2.34.43-2.34-1.17V594.09a2.93,2.93,0,0,1,2.92-2.92h33.34a2.93,2.93,0,0,1,2.92,2.92v43.32Z"/><path class="cls-4" d="M1191.53,672.42a7.1,7.1,0,0,1-1.55,0l-0.43-.21-1-.51a21.94,21.94,0,0,1-.64-5.09V594.09a13.7,13.7,0,0,1,.67-4.42c0.37-.82,3.64-1.5,5.25-1.5h33.34a13.7,13.7,0,0,1,4.42.67c0.83,0.37,1.5,3.64,1.5,5.25v43.32a25.24,25.24,0,0,1-.22,3.84c-0.12.51-2,2.27-3.32,3.23L1195,670.18A21.38,21.38,0,0,1,1191.53,672.42Zm5.29-78.25a2.93,2.93,0,0,0-2.92,2.92v63.54c0,1.61,1.05,2.13,2.34,1.17l28.49-21.23a6.57,6.57,0,0,0,2.34-4.66V597.09a2.93,2.93,0,0,0-2.92-2.92h-27.34Zm33.26,46.16h0Z"/><path class="cls-3" d="M1269.25,666.6c0,1.61-1.05,2.13-2.34,1.17l-34.49-25.7a6.57,6.57,0,0,1-2.34-4.66V594.09a2.93,2.93,0,0,1,2.92-2.92h33.34a2.93,2.93,0,0,1,2.92,2.92V666.6Z"/><path class="cls-4" d="M1270.17,672.42a7.1,7.1,0,0,1-1.55,0,21.38,21.38,0,0,1-3.5-2.24l-34.49-25.7a25.23,25.23,0,0,1-2.94-2.47c-0.33-.4-0.6-3-0.6-4.6V594.09a13.7,13.7,0,0,1,.67-4.42c0.37-.82,3.64-1.5,5.25-1.5h33.34a13.7,13.7,0,0,1,4.42.67c0.83,0.37,1.5,3.64,1.5,5.25V666.6a21.94,21.94,0,0,1-.64,5.09l-1,.51Zm-37.1-36.51a6.57,6.57,0,0,0,2.34,4.66l28.49,21.23c1.29,1,2.34.43,2.34-1.17V597.09a2.93,2.93,0,0,0-2.92-2.92H1236a2.93,2.93,0,0,0-2.92,2.92v38.82Z"/><circle class="cls-3" cx="1230.08" cy="569.58" r="54.78"/><path class="cls-4" d="M1230.08,627.36a57.78,57.78,0,1,1,57.78-57.78A57.84,57.84,0,0,1,1230.08,627.36Zm0-109.55a51.78,51.78,0,1,0,51.78,51.78A51.84,51.84,0,0,0,1230.08,517.81Z"/><circle class="cls-3" cx="1230.08" cy="569.58" r="45"/><path class="cls-8" d="M1230.08,616.08a46.5,46.5,0,1,1,46.5-46.5A46.55,46.55,0,0,1,1230.08,616.08Zm0-90a43.5,43.5,0,1,0,43.5,43.5A43.55,43.55,0,0,0,1230.08,526.08Z"/><g class="cls-9"><g class="cls-10"><g id="Shape"><path id="Shape-2" data-name="Shape" class="cls-11" d="M1212,544.34a4.51,4.51,0,0,0-1,2.87v45.12a4.51,4.51,0,0,0,1,2.87l0.14,0.14L1237.47,570v-0.55l-25.29-25.29-0.14.14h0Z"/><path id="Shape-3" data-name="Shape" class="cls-12" d="M1245.81,578.38l-8.48-8.48v-0.55l8.48-8.48,0.14,0.14,10,5.61c2.87,1.64,2.87,4.24,0,5.88l-10,5.61-0.14.27h0Z"/><path id="Shape-4" data-name="Shape" class="cls-13" d="M1245.95,578.24l-8.61-8.61-25.43,25.43c1,1,2.46,1.09,4.24.14l29.81-17"/><path id="Shape-5" data-name="Shape" class="cls-14" d="M1245.95,561l-29.81-17c-1.78-1-3.28-.82-4.24.14l25.43,25.43,8.61-8.61h0Z"/></g><rect class="cls-15" x="1175.11" y="510.15" width="118.95" height="118.95"/></g></g><rect class="cls-3" x="1266.06" y="633.48" width="7.2" height="7.2" rx="1.9" ry="1.9"/><path class="cls-4" d="M1271.36,642.19H1268a3.4,3.4,0,0,1-3.4-3.4v-3.4a3.4,3.4,0,0,1,3.4-3.4h3.4a3.4,3.4,0,0,1,3.4,3.4v3.4A3.4,3.4,0,0,1,1271.36,642.19ZM1268,635a0.4,0.4,0,0,0-.4.4v3.4a0.41,0.41,0,0,0,.4.4h3.4a0.41,0.41,0,0,0,.4-0.4v-3.4a0.41,0.41,0,0,0-.4-0.4H1268Z"/><rect class="cls-3" x="1521.07" y="636.17" width="7.2" height="7.2" rx="1.9" ry="1.9"/><path class="cls-4" d="M1526.37,644.88H1523a3.4,3.4,0,0,1-3.4-3.4v-3.4a3.4,3.4,0,0,1,3.4-3.4h3.4a3.4,3.4,0,0,1,3.4,3.4v3.4A3.4,3.4,0,0,1,1526.37,644.88Zm-3.4-7.2a0.41,0.41,0,0,0-.4.4v3.4a0.41,0.41,0,0,0,.4.4h3.4a0.41,0.41,0,0,0,.4-0.4v-3.4a0.41,0.41,0,0,0-.4-0.4H1523Z"/><path class="cls-3" d="M1330.66,621.84h6.75a2.26,2.26,0,0,1,2.25,2.25v6.75a2.26,2.26,0,0,1-2.25,2.25h-6.75a2.26,2.26,0,0,1-2.25-2.25v-6.75"/><path class="cls-4" d="M1337.4,634.59h-6.75a3.75,3.75,0,0,1-3.75-3.75v-6.75a1.5,1.5,0,0,1,3,0v6.75a0.76,0.76,0,0,0,.75.75h6.75a0.76,0.76,0,0,0,.75-0.75v-6.75a0.76,0.76,0,0,0-.75-0.75h-6.75a1.5,1.5,0,0,1,0-3h6.75a3.75,3.75,0,0,1,3.75,3.75v6.75A3.75,3.75,0,0,1,1337.4,634.59Z"/><rect class="cls-3" x="1317.36" y="608.42" width="16.72" height="16.72" rx="4.41" ry="4.41"/><path class="cls-4" d="M1329.67,626.64h-7.9a5.92,5.92,0,0,1-5.91-5.91v-7.9a5.92,5.92,0,0,1,5.91-5.91h7.9a5.92,5.92,0,0,1,5.91,5.91v7.9A5.92,5.92,0,0,1,1329.67,626.64Zm-7.9-16.72a2.91,2.91,0,0,0-2.91,2.91v7.9a2.91,2.91,0,0,0,2.91,2.91h7.9a2.91,2.91,0,0,0,2.91-2.91v-7.9a2.91,2.91,0,0,0-2.91-2.91h-7.9Z"/><path id="peak-logo" class="cls-7" d="M1315.76,566.79h-14v34.78H1308V590.39h7c7.79,0,14.16-4.07,14.16-11.92C1329.21,571.37,1324,566.79,1315.76,566.79Zm-0.5,18.08H1308V572.36h7.23c4.65,0,7.63,2.14,7.63,6.26C1322.89,582.35,1320,584.88,1315.26,584.88Zm20.48,2.11h27.89v-5.77h-27.89V587Zm0-29.33h27.89v-5.77h-27.89v5.77Zm0,14.59h27.89v-5.77h-27.89v5.77Zm45.31-5.77-15.53,35.1h6.29l3.65-8.41h16.79l3.6,8.41h6.59l-15.62-35.1h-5.78Zm-3.3,21.26,6.09-13.94,6.14,13.94h-12.23Zm46.7-6,14.7-15h-7.63l-16.82,17.49V566.79h-6.21v34.78h6.21V591.49l5.51-5.56,12.07,15.65h7.53Z"/><line class="cls-3" x1="1495" y1="405.09" x2="1529.25" y2="439.34"/><path class="cls-16" d="M1529.25,442.34a3,3,0,0,1-2.12-.88l-34.25-34.25a3,3,0,0,1,4.24-4.24l34.25,34.25A3,3,0,0,1,1529.25,442.34Z"/><line class="cls-3" x1="1602.9" y1="719.99" x2="1621.35" y2="738.45"/><path class="cls-17" d="M1621.35,740.06a1.61,1.61,0,0,1-1.14-.47l-18.46-18.46a1.62,1.62,0,0,1,2.29-2.29l18.46,18.46A1.62,1.62,0,0,1,1621.35,740.06Z"/><line class="cls-3" x1="1239.31" y1="511.8" x2="1226.94" y2="558.63"/><path class="cls-18" d="M1226.95,561.63a3,3,0,0,1-2.9-3.77L1236.41,511a3,3,0,1,1,5.8,1.53l-12.36,46.83A3,3,0,0,1,1226.95,561.63Z"/><line class="cls-3" x1="1492.31" y1="297.8" x2="1479.94" y2="344.63"/><path class="cls-18" d="M1479.95,347.63a3,3,0,0,1-2.9-3.77L1489.41,297a3,3,0,1,1,5.8,1.53l-12.36,46.83A3,3,0,0,1,1479.95,347.63Z"/><line class="cls-3" x1="1225.74" y1="685.32" x2="1220.51" y2="705.11"/><path class="cls-16" d="M1220.51,706.38a1.27,1.27,0,0,1-1.23-1.59l5.22-19.79a1.27,1.27,0,0,1,2.45.65l-5.22,19.79A1.27,1.27,0,0,1,1220.51,706.38Z"/><line class="cls-3" x1="1450.9" y1="718.69" x2="1433.28" y2="740.46"/><path class="cls-17" d="M1433.28,742.19a1.73,1.73,0,0,1-1.35-2.83l17.62-21.77a1.73,1.73,0,1,1,2.7,2.18l-17.62,21.77A1.73,1.73,0,0,1,1433.28,742.19Z"/><line class="cls-3" x1="1576.74" y1="524.32" x2="1571.51" y2="544.11"/><path class="cls-17" d="M1571.51,545.38a1.27,1.27,0,0,1-1.23-1.59l5.22-19.79a1.27,1.27,0,0,1,2.45.65l-5.22,19.79A1.27,1.27,0,0,1,1571.51,545.38Z"/><line class="cls-3" x1="1611.96" y1="648.48" x2="1584.29" y2="675.96"/><path class="cls-18" d="M1584.29,678.37a2.42,2.42,0,0,1-1.7-4.13l27.66-27.48a2.41,2.41,0,0,1,3.4,3.43L1586,677.67A2.4,2.4,0,0,1,1584.29,678.37Z"/><line class="cls-3" x1="1245.96" y1="743.48" x2="1218.29" y2="770.96"/><path class="cls-17" d="M1218.29,773.37a2.42,2.42,0,0,1-1.7-4.13l27.66-27.48a2.41,2.41,0,0,1,3.4,3.43L1220,772.67A2.4,2.4,0,0,1,1218.29,773.37Z"/><line class="cls-3" x1="1294.96" y1="300.48" x2="1267.29" y2="327.96"/><path class="cls-16" d="M1267.29,330.37a2.42,2.42,0,0,1-1.7-4.13l27.66-27.48a2.42,2.42,0,0,1,3.4,3.43L1269,329.67A2.41,2.41,0,0,1,1267.29,330.37Z"/><line class="cls-3" x1="1338.74" y1="337.32" x2="1333.51" y2="357.11"/><path class="cls-16" d="M1333.51,358.38a1.27,1.27,0,0,1-1.23-1.59l5.22-19.79a1.27,1.27,0,0,1,2.45.65l-5.22,19.79A1.27,1.27,0,0,1,1333.51,358.38Z"/><line class="cls-3" x1="1645.69" y1="483.38" x2="1636.56" y2="465.06"/><path class="cls-18" d="M1645.69,484.64a1.27,1.27,0,0,1-1.14-.7l-9.13-18.32a1.27,1.27,0,1,1,2.27-1.13l9.13,18.32A1.27,1.27,0,0,1,1645.69,484.64Z"/><line class="cls-3" x1="1398.69" y1="309.38" x2="1389.56" y2="291.06"/><path class="cls-17" d="M1398.69,310.64a1.27,1.27,0,0,1-1.14-.7l-9.13-18.32a1.27,1.27,0,1,1,2.27-1.13l9.13,18.32A1.27,1.27,0,0,1,1398.69,310.64Z"/><line class="cls-3" x1="1197.51" y1="405.3" x2="1182.74" y2="391.14"/><path class="cls-17" d="M1197.51,406.56a1.26,1.26,0,0,1-.88-0.35l-14.78-14.16a1.27,1.27,0,0,1,1.75-1.83l14.78,14.16A1.27,1.27,0,0,1,1197.51,406.56Z"/><line class="cls-3" x1="1307.51" y1="647.3" x2="1292.74" y2="633.14"/><path class="cls-17" d="M1307.51,648.56a1.26,1.26,0,0,1-.88-0.35l-14.78-14.16a1.27,1.27,0,1,1,1.75-1.83l14.78,14.16A1.27,1.27,0,0,1,1307.51,648.56Z"/><line class="cls-3" x1="1605.51" y1="330.3" x2="1590.74" y2="316.14"/><path class="cls-16" d="M1605.51,331.56a1.26,1.26,0,0,1-.88-0.35l-14.78-14.16a1.27,1.27,0,0,1,1.75-1.83l14.78,14.16A1.27,1.27,0,0,1,1605.51,331.56Z"/><line class="cls-3" x1="1334.15" y1="490.66" x2="1338.04" y2="457.72"/><path class="cls-17" d="M1334.15,492.71h-0.24a2.05,2.05,0,0,1-1.8-2.28l3.9-32.94a2.05,2.05,0,1,1,4.08.48l-3.9,32.94A2.05,2.05,0,0,1,1334.15,492.71Z"/><line class="cls-3" x1="1571.91" y1="384.98" x2="1566.27" y2="365.39"/><path class="cls-17" d="M1571.91,386.24a1.26,1.26,0,0,1-1.21-.91l-5.64-19.59a1.26,1.26,0,1,1,2.43-.7l5.64,19.59A1.26,1.26,0,0,1,1571.91,386.24Z"/><line class="cls-3" x1="1480.07" y1="546.64" x2="1460.18" y2="541.8"/><path class="cls-16" d="M1480.07,547.9a1.27,1.27,0,0,1-.3,0L1459.88,543a1.27,1.27,0,1,1,.6-2.46l19.89,4.84A1.27,1.27,0,0,1,1480.07,547.9Z"/><line class="cls-3" x1="1550.71" y1="712.47" x2="1519.18" y2="704.8"/><path class="cls-16" d="M1550.72,714.48a2,2,0,0,1-.48-0.06l-31.53-7.67a2,2,0,1,1,1-3.91l31.53,7.67A2,2,0,0,1,1550.72,714.48Z"/><line class="cls-3" x1="1382.24" y1="677.59" x2="1374.01" y2="658.85"/><path class="cls-18" d="M1382.24,678.85a1.27,1.27,0,0,1-1.16-.76l-8.23-18.74a1.27,1.27,0,0,1,2.32-1l8.23,18.74A1.27,1.27,0,0,1,1382.24,678.85Z"/><path class="cls-19" d="M207.2,284.75a1.56,1.56,0,0,1-.43-1.15V236.44a1.69,1.69,0,0,1,.43-1.19,1.49,1.49,0,0,1,1.15-.47h17.5q7.7,0,12.13,3.85t4.43,11.05q0,7.2-4.43,11.05t-12.13,3.85H211.3v19a1.49,1.49,0,0,1-.47,1.15,1.68,1.68,0,0,1-1.19.43h-1.3A1.55,1.55,0,0,1,207.2,284.75Zm18.29-24.48q6.19,0,9.29-2.7t3.1-7.88q0-5.18-3.1-7.88t-9.29-2.7H211.3v21.17h14.18Z"/><path class="cls-19" d="M255.22,281.4q-4.18-4.5-4.75-12.06l-0.07-2.88,0.07-2.88q0.58-7.49,4.72-12A14.24,14.24,0,0,1,266.24,247q7.49,0,11.7,5t4.21,13.61v1.08a1.49,1.49,0,0,1-.47,1.15,1.68,1.68,0,0,1-1.19.43H254.86V269a15.92,15.92,0,0,0,1.55,6.3,11.87,11.87,0,0,0,3.92,4.68,10,10,0,0,0,5.9,1.76,12,12,0,0,0,6.44-1.55,11.77,11.77,0,0,0,3.56-3.13,5.2,5.2,0,0,1,1-1.08,2.3,2.3,0,0,1,1.19-.22h1.15a1.63,1.63,0,0,1,1.08.36,1.16,1.16,0,0,1,.43.94q0,1.51-1.91,3.64a15.87,15.87,0,0,1-5.29,3.67,18.15,18.15,0,0,1-7.63,1.55A14.32,14.32,0,0,1,255.22,281.4Zm22.54-17.17v-0.29a13.43,13.43,0,0,0-3.13-9.14,10.56,10.56,0,0,0-8.39-3.6,10.34,10.34,0,0,0-8.32,3.6,13.62,13.62,0,0,0-3.06,9.14v0.29h22.9Z"/><path class="cls-19" d="M297.13,284.46a12.35,12.35,0,0,1-4.72-3.89,9,9,0,0,1-1.76-5.4,9.45,9.45,0,0,1,3.85-7.78,21,21,0,0,1,10.4-3.89l11.38-1.58v-2.52a7.68,7.68,0,0,0-2.41-6.08q-2.41-2.12-7.38-2.12a11.32,11.32,0,0,0-6,1.44,6.48,6.48,0,0,0-3,3.46,2.59,2.59,0,0,1-.68,1.19,1.6,1.6,0,0,1-1,.32h-1a1.6,1.6,0,0,1-1.58-1.58,6.93,6.93,0,0,1,1.44-3.71,11.92,11.92,0,0,1,4.46-3.71,15.84,15.84,0,0,1,7.42-1.58q7.7,0,10.94,3.67a13,13,0,0,1,3.24,8.93v24a1.49,1.49,0,0,1-1.58,1.58h-1.22a1.49,1.49,0,0,1-1.58-1.58v-3.38a12.67,12.67,0,0,1-4.64,4,17,17,0,0,1-8.1,1.66A14.42,14.42,0,0,1,297.13,284.46Zm15.77-6.19q3.38-3.46,3.38-9.94v-2.45l-9.29,1.3q-5.9.79-8.93,2.74a5.77,5.77,0,0,0-.25,10A12.49,12.49,0,0,0,312.9,278.27Z"/><path class="cls-19" d="M334.35,284.75a1.56,1.56,0,0,1-.43-1.15v-48a1.49,1.49,0,0,1,1.58-1.58h1.22a1.49,1.49,0,0,1,1.58,1.58v25.49L354.37,249a9.58,9.58,0,0,1,1.58-1,4.1,4.1,0,0,1,1.44-.18h1.37a1.36,1.36,0,0,1,1.44,1.44,1.8,1.8,0,0,1-.94,1.44L341,264.45l20,17.86a2.32,2.32,0,0,1,.94,1.44,1.36,1.36,0,0,1-1.44,1.44h-1.15a3.32,3.32,0,0,1-3-1.22L338.31,267.9v15.7a1.49,1.49,0,0,1-1.58,1.58H335.5A1.56,1.56,0,0,1,334.35,284.75Z"/><path class="cls-19" d="M368.91,245.73a1.35,1.35,0,0,1-.14-1.08l1.37-8.64q0.22-1.94,1.8-1.94h3.24a1,1,0,0,1,.76.36,1.16,1.16,0,0,1,.32.79,3.19,3.19,0,0,1-.29,1.3l-3.1,8.14a3.55,3.55,0,0,1-.76,1.15,1.6,1.6,0,0,1-1.12.36h-1.22A1,1,0,0,1,368.91,245.73Z"/><path class="cls-19" d="M388.46,284.32a14.06,14.06,0,0,1-4.82-3.6,5.9,5.9,0,0,1-1.62-3.24,1.26,1.26,0,0,1,.5-1,1.72,1.72,0,0,1,1.08-.4h1.08a1.7,1.7,0,0,1,.83.18,2.76,2.76,0,0,1,.76.76,11.59,11.59,0,0,0,3.85,3.49,12.89,12.89,0,0,0,6.23,1.26,13.55,13.55,0,0,0,7.2-1.69,5.39,5.39,0,0,0,2.74-4.86,4.52,4.52,0,0,0-1.12-3.17,9,9,0,0,0-3.6-2.12,71.3,71.3,0,0,0-7.38-2.05q-6.41-1.44-8.75-4a9,9,0,0,1-2.34-6.41,9.39,9.39,0,0,1,1.48-5,10.92,10.92,0,0,1,4.39-3.89,15.09,15.09,0,0,1,7-1.51,16.4,16.4,0,0,1,7.31,1.48,12.34,12.34,0,0,1,4.46,3.42,5.86,5.86,0,0,1,1.48,3.17,1.3,1.3,0,0,1-.47,1,1.67,1.67,0,0,1-1.12.4h-1.08a1.78,1.78,0,0,1-1.58-.94,10.66,10.66,0,0,0-3.28-3.28A11.36,11.36,0,0,0,396,251.2q-4.18,0-6.34,1.73a5.53,5.53,0,0,0-2.16,4.54,4.66,4.66,0,0,0,.86,2.88,7.61,7.61,0,0,0,3.24,2.12,45.24,45.24,0,0,0,6.91,2q6.7,1.51,9.43,4a8.67,8.67,0,0,1,2.74,6.7,9.43,9.43,0,0,1-1.66,5.4,11.21,11.21,0,0,1-4.9,3.89,19.06,19.06,0,0,1-7.78,1.44A17.69,17.69,0,0,1,388.46,284.32Z"/><path class="cls-19" d="M445.74,284.46a12.35,12.35,0,0,1-4.72-3.89,9,9,0,0,1-1.76-5.4,9.45,9.45,0,0,1,3.85-7.78,21,21,0,0,1,10.4-3.89l11.38-1.58v-2.52a7.68,7.68,0,0,0-2.41-6.08q-2.41-2.12-7.38-2.12a11.32,11.32,0,0,0-6,1.44,6.48,6.48,0,0,0-3,3.46,2.59,2.59,0,0,1-.68,1.19,1.6,1.6,0,0,1-1,.32h-1a1.6,1.6,0,0,1-1.58-1.58,6.93,6.93,0,0,1,1.44-3.71,11.92,11.92,0,0,1,4.46-3.71A15.84,15.84,0,0,1,455.1,247q7.7,0,10.94,3.67a13,13,0,0,1,3.24,8.93v24a1.49,1.49,0,0,1-1.58,1.58h-1.22a1.49,1.49,0,0,1-1.58-1.58v-3.38a12.67,12.67,0,0,1-4.64,4,17,17,0,0,1-8.1,1.66A14.42,14.42,0,0,1,445.74,284.46Zm15.77-6.19q3.38-3.46,3.38-9.94v-2.45l-9.29,1.3q-5.9.79-8.93,2.74a5.77,5.77,0,0,0-.25,10A12.49,12.49,0,0,0,461.5,278.27Z"/><path class="cls-19" d="M483,298.43a1.56,1.56,0,0,1-.43-1.15v-48a1.49,1.49,0,0,1,1.58-1.58h1.22a1.49,1.49,0,0,1,1.58,1.58v3.38Q491.09,247,499,247T510.5,252a20.69,20.69,0,0,1,3.92,12.13q0.07,0.72.07,2.38t-0.07,2.38A20.69,20.69,0,0,1,510.5,281q-3.71,4.93-11.48,4.93t-12.1-5.69v17.06a1.49,1.49,0,0,1-1.58,1.58h-1.22A1.56,1.56,0,0,1,483,298.43ZM507.12,278a16.91,16.91,0,0,0,2.92-9.54q0.07-.72.07-2a21,21,0,0,0-2.59-11q-2.59-4.28-8.93-4.28-5.69,0-8.57,3.78a15.37,15.37,0,0,0-3.1,8.89l-0.07,2.81,0.07,2.81a14.48,14.48,0,0,0,1.37,5.87,11.33,11.33,0,0,0,3.89,4.57,11,11,0,0,0,6.41,1.8Q504.42,281.73,507.12,278Z"/><path class="cls-19" d="M526.59,298.43a1.56,1.56,0,0,1-.43-1.15v-48a1.49,1.49,0,0,1,1.58-1.58H529a1.49,1.49,0,0,1,1.58,1.58v3.38q4.17-5.69,12.1-5.69T554.13,252a20.69,20.69,0,0,1,3.92,12.13q0.07,0.72.07,2.38t-0.07,2.38A20.69,20.69,0,0,1,554.13,281q-3.71,4.93-11.48,4.93t-12.1-5.69v17.06a1.49,1.49,0,0,1-1.58,1.58h-1.22A1.56,1.56,0,0,1,526.59,298.43ZM550.75,278a16.91,16.91,0,0,0,2.92-9.54q0.07-.72.07-2a21,21,0,0,0-2.59-11q-2.59-4.28-8.93-4.28-5.69,0-8.57,3.78a15.37,15.37,0,0,0-3.1,8.89l-0.07,2.81,0.07,2.81a14.48,14.48,0,0,0,1.37,5.87,11.33,11.33,0,0,0,3.89,4.57,11,11,0,0,0,6.41,1.8Q548,281.73,550.75,278Z"/><path class="cls-19" d="M590.6,284.75a1.56,1.56,0,0,1-.43-1.15v-48a1.49,1.49,0,0,1,1.58-1.58H593a1.49,1.49,0,0,1,1.58,1.58v17.06a14.92,14.92,0,0,1,4.93-4.25,15.52,15.52,0,0,1,7.16-1.44q7.06,0,10.87,4.5t3.82,11.63V283.6a1.49,1.49,0,0,1-1.58,1.58h-1.22a1.49,1.49,0,0,1-1.58-1.58V263.51q0-5.83-2.84-9.07t-8.17-3.24a10.85,10.85,0,0,0-8.28,3.28q-3.1,3.28-3.1,9V283.6a1.49,1.49,0,0,1-1.58,1.58h-1.22A1.56,1.56,0,0,1,590.6,284.75Z"/><path class="cls-19" d="M638.12,284.46a12.35,12.35,0,0,1-4.72-3.89,9,9,0,0,1-1.76-5.4,9.45,9.45,0,0,1,3.85-7.78,21,21,0,0,1,10.4-3.89l11.38-1.58v-2.52a7.68,7.68,0,0,0-2.41-6.08q-2.41-2.12-7.38-2.12a11.32,11.32,0,0,0-6,1.44,6.48,6.48,0,0,0-3,3.46,2.59,2.59,0,0,1-.68,1.19,1.6,1.6,0,0,1-1,.32h-1a1.6,1.6,0,0,1-1.58-1.58,6.93,6.93,0,0,1,1.44-3.71,11.92,11.92,0,0,1,4.46-3.71,15.84,15.84,0,0,1,7.42-1.58q7.7,0,10.94,3.67a13,13,0,0,1,3.24,8.93v24a1.49,1.49,0,0,1-1.58,1.58h-1.22a1.49,1.49,0,0,1-1.58-1.58v-3.38a12.67,12.67,0,0,1-4.64,4,17,17,0,0,1-8.1,1.66A14.42,14.42,0,0,1,638.12,284.46Zm15.77-6.19q3.38-3.46,3.38-9.94v-2.45l-9.29,1.3q-5.9.79-8.93,2.74a5.77,5.77,0,0,0-.25,10A12.49,12.49,0,0,0,653.89,278.27Z"/><path class="cls-19" d="M678.83,284.32a14.06,14.06,0,0,1-4.82-3.6,5.9,5.9,0,0,1-1.62-3.24,1.26,1.26,0,0,1,.5-1A1.72,1.72,0,0,1,674,276h1.08a1.7,1.7,0,0,1,.83.18,2.76,2.76,0,0,1,.76.76,11.59,11.59,0,0,0,3.85,3.49,12.89,12.89,0,0,0,6.23,1.26,13.55,13.55,0,0,0,7.2-1.69,5.39,5.39,0,0,0,2.74-4.86,4.52,4.52,0,0,0-1.12-3.17,9,9,0,0,0-3.6-2.12,71.3,71.3,0,0,0-7.38-2.05q-6.41-1.44-8.75-4a9,9,0,0,1-2.34-6.41,9.39,9.39,0,0,1,1.48-5,10.92,10.92,0,0,1,4.39-3.89,15.09,15.09,0,0,1,7-1.51,16.4,16.4,0,0,1,7.31,1.48,12.34,12.34,0,0,1,4.46,3.42,5.86,5.86,0,0,1,1.48,3.17,1.3,1.3,0,0,1-.47,1,1.67,1.67,0,0,1-1.12.4h-1.08a1.78,1.78,0,0,1-1.58-.94,10.66,10.66,0,0,0-3.28-3.28,11.36,11.36,0,0,0-5.72-1.12q-4.18,0-6.34,1.73a5.53,5.53,0,0,0-2.16,4.54,4.66,4.66,0,0,0,.86,2.88,7.61,7.61,0,0,0,3.24,2.12,45.24,45.24,0,0,0,6.91,2q6.7,1.51,9.43,4a8.67,8.67,0,0,1,2.74,6.7,9.43,9.43,0,0,1-1.66,5.4,11.21,11.21,0,0,1-4.9,3.89,19.06,19.06,0,0,1-7.78,1.44A17.69,17.69,0,0,1,678.83,284.32Z"/><path class="cls-19" d="M735.06,281.33a17.79,17.79,0,0,1-4.36-11.84l-0.07-3,0.07-3a17.79,17.79,0,0,1,4.36-11.84Q739.2,247,746.69,247t11.63,4.57a17.8,17.8,0,0,1,4.36,11.84q0.07,0.72.07,3t-0.07,3a17.79,17.79,0,0,1-4.36,11.84q-4.14,4.57-11.63,4.57T735.06,281.33Zm19.87-2.88q3.13-3.28,3.35-9.32,0.07-.72.07-2.66t-0.07-2.66q-0.22-6-3.35-9.32a12,12,0,0,0-16.49,0q-3.13,3.28-3.35,9.32L735,266.46l0.07,2.66q0.22,6,3.35,9.32A12,12,0,0,0,754.94,278.45Z"/><path class="cls-19" d="M783.27,283.38L770,250l-0.14-.79a1.48,1.48,0,0,1,1.44-1.44h1.51a1.49,1.49,0,0,1,1,.36,2,2,0,0,1,.54.72l12.17,31.1,12.17-31.1a2,2,0,0,1,.54-0.72,1.49,1.49,0,0,1,1-.36h1.51a1.48,1.48,0,0,1,1.44,1.44l-0.14.79-13.25,33.41a2.7,2.7,0,0,1-2.74,1.8H786A2.7,2.7,0,0,1,783.27,283.38Z"/><path class="cls-19" d="M815.09,281.4q-4.18-4.5-4.75-12.06l-0.07-2.88,0.07-2.88q0.58-7.49,4.72-12A14.24,14.24,0,0,1,826.11,247q7.49,0,11.7,5T842,265.6v1.08a1.49,1.49,0,0,1-.47,1.15,1.69,1.69,0,0,1-1.19.43H814.73V269a15.92,15.92,0,0,0,1.55,6.3,11.87,11.87,0,0,0,3.92,4.68,10,10,0,0,0,5.9,1.76,12,12,0,0,0,6.44-1.55,11.78,11.78,0,0,0,3.56-3.13,5.19,5.19,0,0,1,1-1.08,2.3,2.3,0,0,1,1.19-.22h1.15a1.63,1.63,0,0,1,1.08.36,1.16,1.16,0,0,1,.43.94q0,1.51-1.91,3.64a15.88,15.88,0,0,1-5.29,3.67,18.15,18.15,0,0,1-7.63,1.55A14.32,14.32,0,0,1,815.09,281.4Zm22.54-17.17v-0.29a13.43,13.43,0,0,0-3.13-9.14,10.56,10.56,0,0,0-8.39-3.6,10.34,10.34,0,0,0-8.32,3.6,13.62,13.62,0,0,0-3.06,9.14v0.29h22.9Z"/><path class="cls-19" d="M853.76,284.75a1.56,1.56,0,0,1-.43-1.15V249.4a1.69,1.69,0,0,1,.43-1.19,1.49,1.49,0,0,1,1.15-.47h1.15a1.6,1.6,0,0,1,1.66,1.66v3.31q2.59-5,9.79-5h2.66a1.49,1.49,0,0,1,1.58,1.58v1a1.49,1.49,0,0,1-1.58,1.58h-3.1a8.7,8.7,0,0,0-9.36,9.36V283.6a1.49,1.49,0,0,1-.47,1.15,1.69,1.69,0,0,1-1.19.43h-1.15A1.56,1.56,0,0,1,853.76,284.75Z"/><path class="cls-19" d="M204.18,364.75a1.56,1.56,0,0,1-.43-1.15v-1.08a4.3,4.3,0,0,1,1.8-3l18.65-18.65a27,27,0,0,0,5.33-6.19,12.36,12.36,0,0,0,1.37-6,10.15,10.15,0,0,0-2.77-7.56q-2.77-2.74-7.88-2.74a10.56,10.56,0,0,0-7.7,2.81,12.23,12.23,0,0,0-3.46,7.56,1.79,1.79,0,0,1-1.66,1.66H206a1.51,1.51,0,0,1-1.12-.4,1.32,1.32,0,0,1-.4-1,17.06,17.06,0,0,1,1.87-7,14.44,14.44,0,0,1,5.26-5.72,15.65,15.65,0,0,1,8.64-2.27q7.7,0,11.45,4.18a15.06,15.06,0,0,1,3.74,10.44,16.06,16.06,0,0,1-1.87,7.78,29.56,29.56,0,0,1-6,7.27l-16.85,17.14h24.12a1.5,1.5,0,0,1,1.66,1.66v1.08a1.49,1.49,0,0,1-.47,1.15,1.69,1.69,0,0,1-1.19.43H205.33A1.56,1.56,0,0,1,204.18,364.75Z"/><path class="cls-19" d="M251.23,360.43q-4-5.47-4.21-14.4l-0.07-6,0.07-6.12q0.22-8.93,4.21-14.4t13.07-5.47q9.07,0,13.07,5.47t4.21,14.4q0.07,2,.07,6.12t-0.07,6q-0.22,8.93-4.21,14.4T264.3,365.9Q255.22,365.9,251.23,360.43Zm22.46-3q3.2-4.14,3.35-11.77,0.07-2.09.07-5.76T277,334.29q-0.15-7.49-3.35-11.7t-9.4-4.21q-6.19,0-9.4,4.21t-3.35,11.7l-0.07,5.62,0.07,5.76q0.14,7.63,3.35,11.77t9.4,4.14Q270.49,361.58,273.69,357.44Z"/><path class="cls-19" d="M314.91,364.75a1.56,1.56,0,0,1-.43-1.15V329.33a1.49,1.49,0,0,1,1.58-1.58h1.22a1.49,1.49,0,0,1,1.58,1.58v2.52a12.65,12.65,0,0,1,4.36-3.6,13.32,13.32,0,0,1,5.94-1.22q8.06,0,11.52,6.77a12.82,12.82,0,0,1,4.93-4.93,14.43,14.43,0,0,1,7.31-1.84,12.61,12.61,0,0,1,9.72,4.07q3.74,4.07,3.74,11.56v21a1.49,1.49,0,0,1-1.58,1.58h-1.22A1.49,1.49,0,0,1,362,363.6V343.37q0-6.55-2.7-9.36a9.39,9.39,0,0,0-7.09-2.81,9.2,9.2,0,0,0-6.73,2.84q-2.85,2.85-2.84,9.32V363.6a1.49,1.49,0,0,1-1.58,1.58h-1.22a1.49,1.49,0,0,1-1.58-1.58V343.37q0-6.48-2.81-9.32a9.42,9.42,0,0,0-7-2.84,9.2,9.2,0,0,0-6.73,2.84q-2.84,2.85-2.84,9.25v20.3a1.49,1.49,0,0,1-1.58,1.58h-1.22A1.55,1.55,0,0,1,314.91,364.75Z"/><path class="cls-19" d="M379.14,319.61a1.55,1.55,0,0,1-.43-1.15v-2.74a1.68,1.68,0,0,1,.43-1.19,1.49,1.49,0,0,1,1.15-.47H383a1.6,1.6,0,0,1,1.66,1.66v2.74a1.49,1.49,0,0,1-.47,1.15A1.68,1.68,0,0,1,383,320h-2.74A1.55,1.55,0,0,1,379.14,319.61Zm0.79,45.14a1.56,1.56,0,0,1-.43-1.15V329.33a1.49,1.49,0,0,1,1.58-1.58h1.22a1.49,1.49,0,0,1,1.58,1.58V363.6a1.49,1.49,0,0,1-1.58,1.58h-1.22A1.55,1.55,0,0,1,379.93,364.75Z"/><path class="cls-19" d="M397.85,364.75a1.56,1.56,0,0,1-.43-1.15v-48a1.49,1.49,0,0,1,1.58-1.58h1.22a1.49,1.49,0,0,1,1.58,1.58v48a1.49,1.49,0,0,1-1.58,1.58H399A1.56,1.56,0,0,1,397.85,364.75Z"/><path class="cls-19" d="M415.85,364.75a1.56,1.56,0,0,1-.43-1.15v-48a1.49,1.49,0,0,1,1.58-1.58h1.22a1.49,1.49,0,0,1,1.58,1.58v48a1.49,1.49,0,0,1-1.58,1.58H417A1.56,1.56,0,0,1,415.85,364.75Z"/><path class="cls-19" d="M433,319.61a1.55,1.55,0,0,1-.43-1.15v-2.74a1.68,1.68,0,0,1,.43-1.19,1.49,1.49,0,0,1,1.15-.47h2.74a1.6,1.6,0,0,1,1.66,1.66v2.74a1.49,1.49,0,0,1-.47,1.15,1.68,1.68,0,0,1-1.19.43h-2.74A1.55,1.55,0,0,1,433,319.61Zm0.79,45.14a1.56,1.56,0,0,1-.43-1.15V329.33a1.49,1.49,0,0,1,1.58-1.58h1.22a1.49,1.49,0,0,1,1.58,1.58V363.6a1.49,1.49,0,0,1-1.58,1.58h-1.22A1.55,1.55,0,0,1,433.78,364.75Z"/><path class="cls-19" d="M453.83,361.33a17.79,17.79,0,0,1-4.36-11.84l-0.07-3,0.07-3a17.79,17.79,0,0,1,4.36-11.84Q458,327,465.46,327t11.63,4.57a17.8,17.8,0,0,1,4.36,11.84q0.07,0.72.07,3t-0.07,3a17.79,17.79,0,0,1-4.36,11.84q-4.14,4.57-11.63,4.57T453.83,361.33Zm19.87-2.88q3.13-3.28,3.35-9.32,0.07-.72.07-2.66t-0.07-2.66q-0.22-6-3.35-9.32a12,12,0,0,0-16.49,0q-3.13,3.28-3.35,9.32l-0.07,2.66,0.07,2.66q0.22,6,3.35,9.32A12,12,0,0,0,473.7,358.45Z"/><path class="cls-19" d="M493.61,364.75a1.56,1.56,0,0,1-.43-1.15V329.33a1.49,1.49,0,0,1,1.58-1.58H496a1.49,1.49,0,0,1,1.58,1.58v3.38a14.92,14.92,0,0,1,4.93-4.25,15.53,15.53,0,0,1,7.16-1.44q7.06,0,10.87,4.5t3.82,11.63V363.6a1.49,1.49,0,0,1-1.58,1.58h-1.22A1.49,1.49,0,0,1,520,363.6V343.51q0-5.83-2.84-9.07t-8.17-3.24a10.86,10.86,0,0,0-8.28,3.28q-3.1,3.28-3.1,9V363.6a1.49,1.49,0,0,1-1.58,1.58h-1.22A1.55,1.55,0,0,1,493.61,364.75Z"/><path class="cls-19" d="M559.89,360.83A21.48,21.48,0,0,1,556,348.48l-0.07-2,0.07-2a21.48,21.48,0,0,1,3.92-12.35q3.71-5.08,11.48-5.08t12.1,5.69V315.65a1.49,1.49,0,0,1,1.58-1.58h1.22a1.49,1.49,0,0,1,1.58,1.58v48a1.49,1.49,0,0,1-1.58,1.58h-1.22a1.49,1.49,0,0,1-1.58-1.58v-3.38q-4.18,5.69-12.1,5.69T559.89,360.83Zm20.48-2.88a15.38,15.38,0,0,0,3.1-8.89q0.07-.72.07-2.81t-0.07-2.81a14.51,14.51,0,0,0-1.37-5.87,11.35,11.35,0,0,0-3.89-4.57,11,11,0,0,0-6.41-1.8q-5.83,0-8.53,3.71a16.91,16.91,0,0,0-2.92,9.54l-0.07,2a20.94,20.94,0,0,0,2.59,11q2.59,4.28,8.93,4.28Q577.49,361.73,580.37,357.95Z"/><path class="cls-19" d="M604,361.33a17.79,17.79,0,0,1-4.36-11.84l-0.07-3,0.07-3A17.79,17.79,0,0,1,604,331.6q4.14-4.57,11.63-4.57t11.63,4.57a17.8,17.8,0,0,1,4.36,11.84q0.07,0.72.07,3t-0.07,3a17.79,17.79,0,0,1-4.36,11.84q-4.14,4.57-11.63,4.57T604,361.33Zm19.87-2.88q3.13-3.28,3.35-9.32,0.07-.72.07-2.66t-0.07-2.66q-0.22-6-3.35-9.32a12,12,0,0,0-16.49,0q-3.13,3.28-3.35,9.32L604,346.46l0.07,2.66q0.22,6,3.35,9.32A12,12,0,0,0,623.9,358.45Z"/><path class="cls-19" d="M650.72,364.75a3.35,3.35,0,0,1-.86-1.37L639.7,330l-0.14-.79a1.48,1.48,0,0,1,1.44-1.44h1.37a1.63,1.63,0,0,1,1.08.36,1.34,1.34,0,0,1,.5.72l8.86,30,9.43-29.59a1.93,1.93,0,0,1,1.94-1.44h1.44a1.93,1.93,0,0,1,1.94,1.44L677,358.77l8.86-30a1.33,1.33,0,0,1,.5-0.72,1.63,1.63,0,0,1,1.08-.36h1.37a1.48,1.48,0,0,1,1.44,1.44l-0.14.79-10.15,33.41a3.38,3.38,0,0,1-.86,1.37,2.15,2.15,0,0,1-1.44.43h-1.22a2.29,2.29,0,0,1-2.45-1.8L664.9,335l-9.07,28.37a2.29,2.29,0,0,1-2.45,1.8h-1.22A2.15,2.15,0,0,1,650.72,364.75Z"/><path class="cls-19" d="M701.26,364.75a1.56,1.56,0,0,1-.43-1.15V329.33a1.49,1.49,0,0,1,1.58-1.58h1.22a1.49,1.49,0,0,1,1.58,1.58v3.38a14.92,14.92,0,0,1,4.93-4.25,15.53,15.53,0,0,1,7.16-1.44q7.06,0,10.87,4.5T732,343.15V363.6a1.49,1.49,0,0,1-1.58,1.58H729.2a1.49,1.49,0,0,1-1.58-1.58V343.51q0-5.83-2.84-9.07t-8.17-3.24a10.86,10.86,0,0,0-8.28,3.28q-3.1,3.28-3.1,9V363.6a1.49,1.49,0,0,1-1.58,1.58h-1.22A1.55,1.55,0,0,1,701.26,364.75Z"/><path class="cls-19" d="M745.61,364.75a1.56,1.56,0,0,1-.43-1.15v-48a1.49,1.49,0,0,1,1.58-1.58H748a1.49,1.49,0,0,1,1.58,1.58v48a1.49,1.49,0,0,1-1.58,1.58h-1.22A1.56,1.56,0,0,1,745.61,364.75Z"/><path class="cls-19" d="M765.73,361.33a17.79,17.79,0,0,1-4.36-11.84l-0.07-3,0.07-3a17.79,17.79,0,0,1,4.36-11.84q4.14-4.57,11.63-4.57T789,331.6a17.8,17.8,0,0,1,4.36,11.84q0.07,0.72.07,3t-0.07,3A17.79,17.79,0,0,1,789,361.33q-4.14,4.57-11.63,4.57T765.73,361.33Zm19.87-2.88q3.13-3.28,3.35-9.32,0.07-.72.07-2.66T789,343.8q-0.22-6-3.35-9.32a12,12,0,0,0-16.49,0q-3.13,3.28-3.35,9.32l-0.07,2.66,0.07,2.66q0.22,6,3.35,9.32A12,12,0,0,0,785.61,358.45Z"/><path class="cls-19" d="M808.75,364.46a12.35,12.35,0,0,1-4.72-3.89,9,9,0,0,1-1.76-5.4,9.45,9.45,0,0,1,3.85-7.78,21,21,0,0,1,10.4-3.89l11.38-1.58v-2.52a7.68,7.68,0,0,0-2.41-6.08q-2.41-2.12-7.38-2.12a11.32,11.32,0,0,0-6,1.44,6.48,6.48,0,0,0-3,3.46,2.59,2.59,0,0,1-.68,1.19,1.6,1.6,0,0,1-1,.32h-1a1.6,1.6,0,0,1-1.58-1.58,6.93,6.93,0,0,1,1.44-3.71,11.92,11.92,0,0,1,4.46-3.71,15.84,15.84,0,0,1,7.42-1.58q7.7,0,10.94,3.67a13,13,0,0,1,3.24,8.93v24a1.49,1.49,0,0,1-1.58,1.58h-1.22a1.49,1.49,0,0,1-1.58-1.58v-3.38a12.67,12.67,0,0,1-4.64,4,17,17,0,0,1-8.1,1.66A14.42,14.42,0,0,1,808.75,364.46Zm15.77-6.19q3.38-3.46,3.38-9.94v-2.45l-9.29,1.3q-5.9.79-8.93,2.74a5.77,5.77,0,0,0-.25,10A12.49,12.49,0,0,0,824.52,358.27Z"/><path class="cls-19" d="M847.53,360.83a21.48,21.48,0,0,1-3.92-12.35l-0.07-2,0.07-2a21.48,21.48,0,0,1,3.92-12.35Q851.23,327,859,327t12.1,5.69V315.65a1.49,1.49,0,0,1,1.58-1.58h1.22a1.49,1.49,0,0,1,1.58,1.58v48a1.49,1.49,0,0,1-1.58,1.58h-1.22a1.49,1.49,0,0,1-1.58-1.58v-3.38q-4.18,5.69-12.1,5.69T847.53,360.83ZM868,357.95a15.37,15.37,0,0,0,3.1-8.89q0.07-.72.07-2.81t-0.07-2.81a14.5,14.5,0,0,0-1.37-5.87,11.34,11.34,0,0,0-3.89-4.57,11,11,0,0,0-6.41-1.8q-5.83,0-8.53,3.71a16.92,16.92,0,0,0-2.92,9.54l-0.07,2a20.94,20.94,0,0,0,2.59,11q2.59,4.28,8.93,4.28Q865.13,361.73,868,357.95Z"/><path class="cls-19" d="M893,364.32a14.06,14.06,0,0,1-4.82-3.6,5.9,5.9,0,0,1-1.62-3.24,1.26,1.26,0,0,1,.5-1,1.72,1.72,0,0,1,1.08-.4h1.08a1.71,1.71,0,0,1,.83.18,2.76,2.76,0,0,1,.76.76,11.59,11.59,0,0,0,3.85,3.49,12.89,12.89,0,0,0,6.23,1.26,13.55,13.55,0,0,0,7.2-1.69,5.39,5.39,0,0,0,2.74-4.86,4.52,4.52,0,0,0-1.12-3.17,9,9,0,0,0-3.6-2.12,71.21,71.21,0,0,0-7.38-2.05q-6.41-1.44-8.75-4a9,9,0,0,1-2.34-6.41,9.39,9.39,0,0,1,1.48-5,10.91,10.91,0,0,1,4.39-3.89,15.09,15.09,0,0,1,7-1.51,16.4,16.4,0,0,1,7.31,1.48,12.34,12.34,0,0,1,4.46,3.42,5.85,5.85,0,0,1,1.48,3.17,1.3,1.3,0,0,1-.47,1,1.67,1.67,0,0,1-1.12.4h-1.08a1.78,1.78,0,0,1-1.58-.94,10.65,10.65,0,0,0-3.28-3.28,11.36,11.36,0,0,0-5.72-1.12q-4.18,0-6.34,1.73a5.53,5.53,0,0,0-2.16,4.54,4.66,4.66,0,0,0,.86,2.88,7.62,7.62,0,0,0,3.24,2.12,45.22,45.22,0,0,0,6.91,2q6.7,1.51,9.43,4a8.67,8.67,0,0,1,2.74,6.7,9.43,9.43,0,0,1-1.66,5.4,11.2,11.2,0,0,1-4.9,3.89,19.06,19.06,0,0,1-7.78,1.44A17.69,17.69,0,0,1,893,364.32Z"/><path class="cls-19" d="M209.83,444.32a14.06,14.06,0,0,1-4.82-3.6,5.9,5.9,0,0,1-1.62-3.24,1.26,1.26,0,0,1,.5-1A1.72,1.72,0,0,1,205,436H206a1.7,1.7,0,0,1,.83.18,2.76,2.76,0,0,1,.76.76,11.59,11.59,0,0,0,3.85,3.49,12.89,12.89,0,0,0,6.23,1.26,13.55,13.55,0,0,0,7.2-1.69,5.39,5.39,0,0,0,2.74-4.86,4.52,4.52,0,0,0-1.12-3.17,9,9,0,0,0-3.6-2.12,71.3,71.3,0,0,0-7.38-2.05q-6.41-1.44-8.75-4a9,9,0,0,1-2.34-6.41,9.39,9.39,0,0,1,1.48-5,10.92,10.92,0,0,1,4.39-3.89,15.09,15.09,0,0,1,7-1.51,16.4,16.4,0,0,1,7.31,1.48,12.34,12.34,0,0,1,4.46,3.42,5.86,5.86,0,0,1,1.48,3.17,1.3,1.3,0,0,1-.47,1,1.67,1.67,0,0,1-1.12.4h-1.08a1.78,1.78,0,0,1-1.58-.94,10.66,10.66,0,0,0-3.28-3.28,11.36,11.36,0,0,0-5.72-1.12q-4.18,0-6.34,1.73a5.53,5.53,0,0,0-2.16,4.54,4.66,4.66,0,0,0,.86,2.88,7.61,7.61,0,0,0,3.24,2.12,45.24,45.24,0,0,0,6.91,2q6.7,1.51,9.43,4a8.67,8.67,0,0,1,2.74,6.7,9.43,9.43,0,0,1-1.66,5.4,11.21,11.21,0,0,1-4.9,3.89,19.06,19.06,0,0,1-7.78,1.44A17.69,17.69,0,0,1,209.83,444.32Z"/><path class="cls-19" d="M242.7,399.61a1.55,1.55,0,0,1-.43-1.15v-2.74a1.68,1.68,0,0,1,.43-1.19,1.49,1.49,0,0,1,1.15-.47h2.74a1.6,1.6,0,0,1,1.66,1.66v2.74a1.49,1.49,0,0,1-.47,1.15,1.68,1.68,0,0,1-1.19.43h-2.74A1.55,1.55,0,0,1,242.7,399.61Zm0.79,45.14a1.56,1.56,0,0,1-.43-1.15V409.33a1.49,1.49,0,0,1,1.58-1.58h1.22a1.49,1.49,0,0,1,1.58,1.58V443.6a1.49,1.49,0,0,1-1.58,1.58h-1.22A1.55,1.55,0,0,1,243.49,444.75Z"/><path class="cls-19" d="M261.34,444.75a1.56,1.56,0,0,1-.43-1.15V409.33a1.49,1.49,0,0,1,1.58-1.58h1.22a1.49,1.49,0,0,1,1.58,1.58v3.38a14.92,14.92,0,0,1,4.93-4.25A15.53,15.53,0,0,1,277.4,407q7.06,0,10.87,4.5t3.82,11.63V443.6a1.49,1.49,0,0,1-1.58,1.58h-1.22a1.49,1.49,0,0,1-1.58-1.58V423.51q0-5.83-2.84-9.07t-8.17-3.24a10.86,10.86,0,0,0-8.28,3.28q-3.1,3.28-3.1,9V443.6a1.49,1.49,0,0,1-1.58,1.58h-1.22A1.55,1.55,0,0,1,261.34,444.75Z"/><path class="cls-19" d="M307.78,441.55q-4.1-4.35-4.32-12.2l-0.07-2.88,0.07-2.88q0.22-7.85,4.32-12.2T319.37,407a17.8,17.8,0,0,1,8.1,1.69,12.25,12.25,0,0,1,5,4.32,11.18,11.18,0,0,1,1.8,5.44,1.27,1.27,0,0,1-.43,1.12,1.64,1.64,0,0,1-1.15.47h-1a1.43,1.43,0,0,1-1-.32,3.84,3.84,0,0,1-.68-1.19,10.91,10.91,0,0,0-4-5.65,11.77,11.77,0,0,0-6.55-1.69,11,11,0,0,0-8.24,3.13q-3.06,3.13-3.28,9.61l-0.07,2.52,0.07,2.52q0.22,6.48,3.28,9.61a11,11,0,0,0,8.24,3.13,11.76,11.76,0,0,0,6.55-1.69,10.9,10.9,0,0,0,4-5.65,3.84,3.84,0,0,1,.68-1.19,1.43,1.43,0,0,1,1-.32h1a1.65,1.65,0,0,1,1.15.47,1.27,1.27,0,0,1,.43,1.12,11.18,11.18,0,0,1-1.8,5.44,12.23,12.23,0,0,1-5,4.32,17.8,17.8,0,0,1-8.1,1.69Q311.89,445.9,307.78,441.55Z"/><path class="cls-19" d="M348.46,441.4q-4.18-4.5-4.75-12.06l-0.07-2.88,0.07-2.88q0.58-7.49,4.72-12A14.24,14.24,0,0,1,359.48,407q7.49,0,11.7,5t4.21,13.61v1.08a1.49,1.49,0,0,1-.47,1.15,1.68,1.68,0,0,1-1.19.43H348.1V429a15.92,15.92,0,0,0,1.55,6.3,11.87,11.87,0,0,0,3.92,4.68,10,10,0,0,0,5.9,1.76,12,12,0,0,0,6.44-1.55,11.77,11.77,0,0,0,3.56-3.13,5.2,5.2,0,0,1,1-1.08,2.3,2.3,0,0,1,1.19-.22h1.15a1.63,1.63,0,0,1,1.08.36,1.16,1.16,0,0,1,.43.94q0,1.51-1.91,3.64a15.87,15.87,0,0,1-5.29,3.67,18.15,18.15,0,0,1-7.63,1.55A14.32,14.32,0,0,1,348.46,441.4ZM371,424.23v-0.29a13.43,13.43,0,0,0-3.13-9.14,10.56,10.56,0,0,0-8.39-3.6,10.34,10.34,0,0,0-8.32,3.6,13.62,13.62,0,0,0-3.06,9.14v0.29H371Z"/><path class="cls-19" d="M406.71,399.61a1.55,1.55,0,0,1-.43-1.15v-2.74a1.68,1.68,0,0,1,.43-1.19,1.49,1.49,0,0,1,1.15-.47h2.74a1.6,1.6,0,0,1,1.66,1.66v2.74a1.49,1.49,0,0,1-.47,1.15,1.68,1.68,0,0,1-1.19.43h-2.74A1.55,1.55,0,0,1,406.71,399.61Zm0.79,45.14a1.56,1.56,0,0,1-.43-1.15V409.33a1.49,1.49,0,0,1,1.58-1.58h1.22a1.49,1.49,0,0,1,1.58,1.58V443.6a1.49,1.49,0,0,1-1.58,1.58h-1.22A1.55,1.55,0,0,1,407.5,444.75Z"/><path class="cls-19" d="M430,442q-2.23-3.2-2.23-8.82V411.92h-5.62a1.49,1.49,0,0,1-1.58-1.58v-1a1.49,1.49,0,0,1,1.58-1.58h5.62v-12.1a1.49,1.49,0,0,1,1.58-1.58h1.22a1.49,1.49,0,0,1,1.58,1.58v12.1h8.93a1.49,1.49,0,0,1,1.58,1.58v1a1.49,1.49,0,0,1-1.58,1.58h-8.93v21a11.26,11.26,0,0,0,1.33,6.08,4.88,4.88,0,0,0,4.43,2.05h3.89a1.49,1.49,0,0,1,1.58,1.58v1a1.49,1.49,0,0,1-1.58,1.58h-4.25Q432.2,445.18,430,442Z"/><path class="cls-19" d="M456.57,444.32a14.06,14.06,0,0,1-4.82-3.6,5.9,5.9,0,0,1-1.62-3.24,1.26,1.26,0,0,1,.5-1,1.72,1.72,0,0,1,1.08-.4h1.08a1.7,1.7,0,0,1,.83.18,2.76,2.76,0,0,1,.76.76,11.59,11.59,0,0,0,3.85,3.49,12.89,12.89,0,0,0,6.23,1.26,13.55,13.55,0,0,0,7.2-1.69,5.39,5.39,0,0,0,2.74-4.86,4.52,4.52,0,0,0-1.12-3.17,9,9,0,0,0-3.6-2.12,71.3,71.3,0,0,0-7.38-2.05q-6.41-1.44-8.75-4a9,9,0,0,1-2.34-6.41,9.39,9.39,0,0,1,1.48-5,10.92,10.92,0,0,1,4.39-3.89,15.09,15.09,0,0,1,7-1.51,16.4,16.4,0,0,1,7.31,1.48,12.34,12.34,0,0,1,4.46,3.42,5.86,5.86,0,0,1,1.48,3.17,1.3,1.3,0,0,1-.47,1,1.67,1.67,0,0,1-1.12.4h-1.08a1.78,1.78,0,0,1-1.58-.94,10.66,10.66,0,0,0-3.28-3.28,11.36,11.36,0,0,0-5.72-1.12q-4.18,0-6.34,1.73a5.53,5.53,0,0,0-2.16,4.54,4.66,4.66,0,0,0,.86,2.88,7.61,7.61,0,0,0,3.24,2.12,45.24,45.24,0,0,0,6.91,2q6.7,1.51,9.43,4a8.67,8.67,0,0,1,2.74,6.7,9.43,9.43,0,0,1-1.66,5.4,11.21,11.21,0,0,1-4.9,3.89,19.06,19.06,0,0,1-7.78,1.44A17.69,17.69,0,0,1,456.57,444.32Z"/><path class="cls-19" d="M510.67,444.75a1.56,1.56,0,0,1-.43-1.15v-48a1.49,1.49,0,0,1,1.58-1.58h1.22a1.49,1.49,0,0,1,1.58,1.58v48a1.49,1.49,0,0,1-1.58,1.58h-1.22A1.56,1.56,0,0,1,510.67,444.75Z"/><path class="cls-19" d="M531.84,444.46a12.35,12.35,0,0,1-4.72-3.89,9,9,0,0,1-1.76-5.4,9.45,9.45,0,0,1,3.85-7.78,21,21,0,0,1,10.4-3.89L551,421.93v-2.52a7.68,7.68,0,0,0-2.41-6.08q-2.41-2.12-7.38-2.12a11.32,11.32,0,0,0-6,1.44,6.48,6.48,0,0,0-3,3.46,2.59,2.59,0,0,1-.68,1.19,1.6,1.6,0,0,1-1,.32h-1a1.6,1.6,0,0,1-1.58-1.58,6.93,6.93,0,0,1,1.44-3.71,11.92,11.92,0,0,1,4.46-3.71A15.84,15.84,0,0,1,541.2,407q7.7,0,10.94,3.67a13,13,0,0,1,3.24,8.93v24a1.49,1.49,0,0,1-1.58,1.58h-1.22A1.49,1.49,0,0,1,551,443.6v-3.38a12.67,12.67,0,0,1-4.64,4,17,17,0,0,1-8.1,1.66A14.42,14.42,0,0,1,531.84,444.46Zm15.77-6.19q3.38-3.46,3.38-9.94v-2.45l-9.29,1.3q-5.9.79-8.93,2.74a5.77,5.77,0,0,0-.25,10A12.49,12.49,0,0,0,547.61,438.27Z"/><path class="cls-19" d="M571.87,441.44q-3.67-4.46-3.67-11.66V409.33a1.49,1.49,0,0,1,1.58-1.58H571a1.49,1.49,0,0,1,1.58,1.58v20.09q0,12.31,10.73,12.31a10.74,10.74,0,0,0,8.24-3.28q3.06-3.28,3.06-9V409.33a1.49,1.49,0,0,1,1.58-1.58h1.22a1.49,1.49,0,0,1,1.58,1.58V443.6a1.49,1.49,0,0,1-1.58,1.58h-1.22a1.49,1.49,0,0,1-1.58-1.58v-3.38a14.92,14.92,0,0,1-4.93,4.25,15.34,15.34,0,0,1-7.09,1.44Q575.55,445.9,571.87,441.44Z"/><path class="cls-19" d="M612.91,444.75a1.56,1.56,0,0,1-.43-1.15V409.33a1.49,1.49,0,0,1,1.58-1.58h1.22a1.49,1.49,0,0,1,1.58,1.58v3.38a14.92,14.92,0,0,1,4.93-4.25A15.53,15.53,0,0,1,629,407q7.06,0,10.87,4.5t3.82,11.63V443.6a1.49,1.49,0,0,1-1.58,1.58h-1.22a1.49,1.49,0,0,1-1.58-1.58V423.51q0-5.83-2.84-9.07t-8.17-3.24a10.86,10.86,0,0,0-8.28,3.28q-3.1,3.28-3.1,9V443.6a1.49,1.49,0,0,1-1.58,1.58h-1.22A1.55,1.55,0,0,1,612.91,444.75Z"/><path class="cls-19" d="M659.35,441.55q-4.1-4.35-4.32-12.2L655,426.46l0.07-2.88q0.22-7.85,4.32-12.2T670.94,407a17.8,17.8,0,0,1,8.1,1.69,12.25,12.25,0,0,1,5,4.32,11.18,11.18,0,0,1,1.8,5.44,1.27,1.27,0,0,1-.43,1.12,1.64,1.64,0,0,1-1.15.47h-1a1.43,1.43,0,0,1-1-.32,3.84,3.84,0,0,1-.68-1.19,10.91,10.91,0,0,0-4-5.65,11.77,11.77,0,0,0-6.55-1.69,11,11,0,0,0-8.24,3.13q-3.06,3.13-3.28,9.61l-0.07,2.52,0.07,2.52q0.22,6.48,3.28,9.61a11,11,0,0,0,8.24,3.13A11.76,11.76,0,0,0,677.5,440a10.9,10.9,0,0,0,4-5.65,3.84,3.84,0,0,1,.68-1.19,1.43,1.43,0,0,1,1-.32h1a1.65,1.65,0,0,1,1.15.47,1.27,1.27,0,0,1,.43,1.12,11.18,11.18,0,0,1-1.8,5.44,12.23,12.23,0,0,1-5,4.32,17.8,17.8,0,0,1-8.1,1.69Q663.46,445.9,659.35,441.55Z"/><path class="cls-19" d="M697.66,444.75a1.56,1.56,0,0,1-.43-1.15v-48a1.49,1.49,0,0,1,1.58-1.58H700a1.49,1.49,0,0,1,1.58,1.58v17.06a14.92,14.92,0,0,1,4.93-4.25,15.52,15.52,0,0,1,7.16-1.44q7.06,0,10.87,4.5t3.82,11.63V443.6a1.49,1.49,0,0,1-1.58,1.58h-1.22A1.49,1.49,0,0,1,724,443.6V423.51q0-5.83-2.84-9.07T713,411.2a10.85,10.85,0,0,0-8.28,3.28q-3.1,3.28-3.1,9V443.6a1.49,1.49,0,0,1-1.58,1.58h-1.22A1.56,1.56,0,0,1,697.66,444.75Z"/><path class="cls-19" d="M761.52,399.61a1.55,1.55,0,0,1-.43-1.15v-2.74a1.68,1.68,0,0,1,.43-1.19,1.49,1.49,0,0,1,1.15-.47h2.74a1.6,1.6,0,0,1,1.66,1.66v2.74a1.49,1.49,0,0,1-.47,1.15,1.68,1.68,0,0,1-1.19.43h-2.74A1.55,1.55,0,0,1,761.52,399.61Zm0.79,45.14a1.56,1.56,0,0,1-.43-1.15V409.33a1.49,1.49,0,0,1,1.58-1.58h1.22a1.49,1.49,0,0,1,1.58,1.58V443.6a1.49,1.49,0,0,1-1.58,1.58h-1.22A1.55,1.55,0,0,1,762.31,444.75Z"/><path class="cls-19" d="M780.17,444.75a1.56,1.56,0,0,1-.43-1.15V409.33a1.49,1.49,0,0,1,1.58-1.58h1.22a1.49,1.49,0,0,1,1.58,1.58v3.38a14.92,14.92,0,0,1,4.93-4.25,15.53,15.53,0,0,1,7.16-1.44q7.06,0,10.87,4.5t3.82,11.63V443.6a1.49,1.49,0,0,1-1.58,1.58H808.1a1.49,1.49,0,0,1-1.58-1.58V423.51q0-5.83-2.84-9.07t-8.17-3.24a10.86,10.86,0,0,0-8.28,3.28q-3.1,3.28-3.1,9V443.6a1.49,1.49,0,0,1-1.58,1.58h-1.22A1.55,1.55,0,0,1,780.17,444.75Z"/><path class="cls-19" d="M844.89,444.75a1.56,1.56,0,0,1-.43-1.15v-48a1.49,1.49,0,0,1,1.58-1.58h1.22a1.49,1.49,0,0,1,1.58,1.58v48a1.49,1.49,0,0,1-1.58,1.58H846A1.56,1.56,0,0,1,844.89,444.75Z"/><path class="cls-19" d="M866.06,444.46a12.35,12.35,0,0,1-4.72-3.89,9,9,0,0,1-1.76-5.4,9.45,9.45,0,0,1,3.85-7.78,21,21,0,0,1,10.4-3.89l11.38-1.58v-2.52a7.68,7.68,0,0,0-2.41-6.08q-2.41-2.12-7.38-2.12a11.33,11.33,0,0,0-6,1.44,6.48,6.48,0,0,0-3,3.46,2.59,2.59,0,0,1-.68,1.19,1.6,1.6,0,0,1-1,.32h-1A1.6,1.6,0,0,1,862.1,416a6.93,6.93,0,0,1,1.44-3.71,11.91,11.91,0,0,1,4.46-3.71,15.84,15.84,0,0,1,7.42-1.58q7.7,0,10.94,3.67a13,13,0,0,1,3.24,8.93v24a1.49,1.49,0,0,1-1.58,1.58H886.8a1.49,1.49,0,0,1-1.58-1.58v-3.38a12.67,12.67,0,0,1-4.64,4,17,17,0,0,1-8.1,1.66A14.42,14.42,0,0,1,866.06,444.46Zm15.77-6.19q3.38-3.46,3.38-9.94v-2.45l-9.29,1.3q-5.9.79-8.93,2.74a5.77,5.77,0,0,0-.25,10A12.49,12.49,0,0,0,881.83,438.27Z"/><path class="cls-19" d="M907.46,442q-2.23-3.2-2.23-8.82V411.92h-5.62a1.49,1.49,0,0,1-1.58-1.58v-1a1.49,1.49,0,0,1,1.58-1.58h5.62v-12.1a1.49,1.49,0,0,1,1.58-1.58H908a1.49,1.49,0,0,1,1.58,1.58v12.1h8.93a1.49,1.49,0,0,1,1.58,1.58v1a1.49,1.49,0,0,1-1.58,1.58h-8.93v21A11.26,11.26,0,0,0,911,439a4.88,4.88,0,0,0,4.43,2.05h3.89a1.49,1.49,0,0,1,1.58,1.58v1a1.49,1.49,0,0,1-1.58,1.58H915Q909.69,445.18,907.46,442Z"/><path class="cls-19" d="M932.95,441.4q-4.18-4.5-4.75-12.06l-0.07-2.88,0.07-2.88q0.58-7.49,4.72-12A14.24,14.24,0,0,1,944,407q7.49,0,11.7,5t4.21,13.61v1.08a1.49,1.49,0,0,1-.47,1.15,1.69,1.69,0,0,1-1.19.43H932.59V429a15.91,15.91,0,0,0,1.55,6.3,11.87,11.87,0,0,0,3.92,4.68,10,10,0,0,0,5.9,1.76,12,12,0,0,0,6.44-1.55A11.78,11.78,0,0,0,954,437a5.19,5.19,0,0,1,1-1.08,2.3,2.3,0,0,1,1.19-.22h1.15a1.63,1.63,0,0,1,1.08.36,1.16,1.16,0,0,1,.43.94q0,1.51-1.91,3.64a15.88,15.88,0,0,1-5.29,3.67A18.15,18.15,0,0,1,944,445.9,14.32,14.32,0,0,1,932.95,441.4Zm22.54-17.17v-0.29a13.43,13.43,0,0,0-3.13-9.14,10.56,10.56,0,0,0-8.39-3.6,10.34,10.34,0,0,0-8.32,3.6,13.62,13.62,0,0,0-3.06,9.14v0.29h22.9Z"/><path class="cls-19" d="M204.18,524.75a1.56,1.56,0,0,1-.43-1.15v-1.08a4.3,4.3,0,0,1,1.8-3l18.65-18.65a27,27,0,0,0,5.33-6.19,12.36,12.36,0,0,0,1.37-6,10.15,10.15,0,0,0-2.77-7.56q-2.77-2.74-7.88-2.74a10.56,10.56,0,0,0-7.7,2.81,12.23,12.23,0,0,0-3.46,7.56,1.79,1.79,0,0,1-1.66,1.66H206a1.51,1.51,0,0,1-1.12-.4,1.32,1.32,0,0,1-.4-1,17.06,17.06,0,0,1,1.87-7,14.44,14.44,0,0,1,5.26-5.72,15.65,15.65,0,0,1,8.64-2.27q7.7,0,11.45,4.18a15.06,15.06,0,0,1,3.74,10.44,16.06,16.06,0,0,1-1.87,7.78,29.56,29.56,0,0,1-6,7.27l-16.85,17.14h24.12a1.5,1.5,0,0,1,1.66,1.66v1.08a1.49,1.49,0,0,1-.47,1.15,1.69,1.69,0,0,1-1.19.43H205.33A1.56,1.56,0,0,1,204.18,524.75Z"/><path class="cls-19" d="M251.23,520.43q-4-5.47-4.21-14.4l-0.07-6,0.07-6.12q0.22-8.93,4.21-14.4t13.07-5.47q9.07,0,13.07,5.47t4.21,14.4q0.07,2,.07,6.12t-0.07,6q-0.22,8.93-4.21,14.4T264.3,525.9Q255.22,525.9,251.23,520.43Zm22.46-3q3.2-4.14,3.35-11.77,0.07-2.09.07-5.76T277,494.29q-0.15-7.49-3.35-11.7t-9.4-4.21q-6.19,0-9.4,4.21t-3.35,11.7l-0.07,5.62,0.07,5.76q0.14,7.63,3.35,11.77t9.4,4.14Q270.49,521.58,273.69,517.44Z"/><path class="cls-19" d="M307,524.75a1.56,1.56,0,0,1-.43-1.15V480.69l-12.89,9.94a2,2,0,0,1-1,.36,1.5,1.5,0,0,1-1.22-.65l-0.79-1a1.72,1.72,0,0,1-.36-1,1.51,1.51,0,0,1,.65-1.22l15.34-11.81a3.2,3.2,0,0,1,1.87-.5h1.37a1.49,1.49,0,0,1,1.58,1.58V523.6a1.49,1.49,0,0,1-1.58,1.58h-1.37A1.55,1.55,0,0,1,307,524.75Z"/><path class="cls-19" d="M346.81,524.75a1.56,1.56,0,0,1-.43-1.15V512.22H322.62a1.49,1.49,0,0,1-1.58-1.58v-1.15a3.63,3.63,0,0,1,.79-2.16L343.71,476a2.38,2.38,0,0,1,1.08-.9,3.82,3.82,0,0,1,1.58-.32h3a1.49,1.49,0,0,1,1.58,1.58V507.9h6.55a1.49,1.49,0,0,1,1.58,1.58v1.15a1.49,1.49,0,0,1-1.58,1.58h-6.55V523.6a1.49,1.49,0,0,1-1.58,1.58H348A1.56,1.56,0,0,1,346.81,524.75ZM326.72,507.9h19.66v-28Z"/><path class="cls-19" d="M393.25,524.46a12.35,12.35,0,0,1-4.72-3.89,9,9,0,0,1-1.76-5.4,9.45,9.45,0,0,1,3.85-7.78,21,21,0,0,1,10.4-3.89l11.38-1.58v-2.52a7.68,7.68,0,0,0-2.41-6.08q-2.41-2.12-7.38-2.12a11.32,11.32,0,0,0-6,1.44,6.48,6.48,0,0,0-3,3.46,2.59,2.59,0,0,1-.68,1.19,1.6,1.6,0,0,1-1,.32h-1a1.6,1.6,0,0,1-1.58-1.58,6.93,6.93,0,0,1,1.44-3.71,11.92,11.92,0,0,1,4.46-3.71,15.84,15.84,0,0,1,7.42-1.58q7.7,0,10.94,3.67a13,13,0,0,1,3.24,8.93v24a1.49,1.49,0,0,1-1.58,1.58H414a1.49,1.49,0,0,1-1.58-1.58v-3.38a12.67,12.67,0,0,1-4.64,4,17,17,0,0,1-8.1,1.66A14.42,14.42,0,0,1,393.25,524.46ZM409,518.27q3.38-3.46,3.38-9.94v-2.45l-9.29,1.3q-5.9.79-8.93,2.74a5.77,5.77,0,0,0-.25,10A12.49,12.49,0,0,0,409,518.27Z"/><path class="cls-19" d="M430.4,524.75a1.56,1.56,0,0,1-.43-1.15V489.33a1.49,1.49,0,0,1,1.58-1.58h1.22a1.49,1.49,0,0,1,1.58,1.58v3.38a14.92,14.92,0,0,1,4.93-4.25,15.53,15.53,0,0,1,7.16-1.44q7.06,0,10.87,4.5t3.82,11.63V523.6a1.49,1.49,0,0,1-1.58,1.58h-1.22a1.49,1.49,0,0,1-1.58-1.58V503.51q0-5.83-2.84-9.07t-8.17-3.24a10.86,10.86,0,0,0-8.28,3.28q-3.1,3.28-3.1,9V523.6a1.49,1.49,0,0,1-1.58,1.58h-1.22A1.55,1.55,0,0,1,430.4,524.75Z"/><path class="cls-19" d="M476.3,520.83a21.48,21.48,0,0,1-3.92-12.35l-0.07-2,0.07-2a21.48,21.48,0,0,1,3.92-12.35Q480,487,487.78,487t12.1,5.69V475.65a1.49,1.49,0,0,1,1.58-1.58h1.22a1.49,1.49,0,0,1,1.58,1.58v48a1.49,1.49,0,0,1-1.58,1.58h-1.22a1.49,1.49,0,0,1-1.58-1.58v-3.38q-4.18,5.69-12.1,5.69T476.3,520.83Zm20.48-2.88a15.38,15.38,0,0,0,3.1-8.89q0.07-.72.07-2.81t-0.07-2.81a14.51,14.51,0,0,0-1.37-5.87,11.35,11.35,0,0,0-3.89-4.57,11,11,0,0,0-6.41-1.8q-5.83,0-8.53,3.71a16.91,16.91,0,0,0-2.92,9.54l-0.07,2a20.94,20.94,0,0,0,2.59,11q2.59,4.28,8.93,4.28Q493.9,521.73,496.78,517.95Z"/><path class="cls-19" d="M544.8,524.75a3.35,3.35,0,0,1-.86-1.37L533.79,490l-0.14-.79a1.48,1.48,0,0,1,1.44-1.44h1.37a1.63,1.63,0,0,1,1.08.36,1.34,1.34,0,0,1,.5.72l8.86,30,9.43-29.59a1.93,1.93,0,0,1,1.94-1.44h1.44a1.93,1.93,0,0,1,1.94,1.44l9.43,29.59,8.86-30a1.33,1.33,0,0,1,.5-0.72,1.63,1.63,0,0,1,1.08-.36h1.37a1.48,1.48,0,0,1,1.44,1.44l-0.14.79L574,523.38a3.38,3.38,0,0,1-.86,1.37,2.15,2.15,0,0,1-1.44.43h-1.22a2.29,2.29,0,0,1-2.45-1.8L559,495l-9.07,28.37a2.29,2.29,0,0,1-2.45,1.8h-1.22A2.15,2.15,0,0,1,544.8,524.75Z"/><path class="cls-19" d="M597.58,524.46a12.35,12.35,0,0,1-4.72-3.89,9,9,0,0,1-1.76-5.4A9.45,9.45,0,0,1,595,507.4a21,21,0,0,1,10.4-3.89l11.38-1.58v-2.52a7.68,7.68,0,0,0-2.41-6.08q-2.41-2.12-7.38-2.12a11.32,11.32,0,0,0-6,1.44,6.48,6.48,0,0,0-3,3.46,2.59,2.59,0,0,1-.68,1.19,1.6,1.6,0,0,1-1,.32h-1a1.6,1.6,0,0,1-1.58-1.58,6.93,6.93,0,0,1,1.44-3.71,11.92,11.92,0,0,1,4.46-3.71,15.84,15.84,0,0,1,7.42-1.58q7.7,0,10.94,3.67a13,13,0,0,1,3.24,8.93v24a1.49,1.49,0,0,1-1.58,1.58h-1.22a1.49,1.49,0,0,1-1.58-1.58v-3.38a12.67,12.67,0,0,1-4.64,4,17,17,0,0,1-8.1,1.66A14.42,14.42,0,0,1,597.58,524.46Zm15.77-6.19q3.38-3.46,3.38-9.94v-2.45l-9.29,1.3q-5.9.79-8.93,2.74a5.77,5.77,0,0,0-.25,10A12.49,12.49,0,0,0,613.35,518.27Z"/><path class="cls-19" d="M638.3,524.32a14.06,14.06,0,0,1-4.82-3.6,5.9,5.9,0,0,1-1.62-3.24,1.26,1.26,0,0,1,.5-1,1.72,1.72,0,0,1,1.08-.4h1.08a1.7,1.7,0,0,1,.83.18,2.76,2.76,0,0,1,.76.76,11.59,11.59,0,0,0,3.85,3.49,12.89,12.89,0,0,0,6.23,1.26,13.55,13.55,0,0,0,7.2-1.69,5.39,5.39,0,0,0,2.74-4.86A4.52,4.52,0,0,0,655,512a9,9,0,0,0-3.6-2.12,71.3,71.3,0,0,0-7.38-2.05q-6.41-1.44-8.75-4a9,9,0,0,1-2.34-6.41,9.39,9.39,0,0,1,1.48-5,10.92,10.92,0,0,1,4.39-3.89,15.09,15.09,0,0,1,7-1.51,16.4,16.4,0,0,1,7.31,1.48,12.34,12.34,0,0,1,4.46,3.42,5.86,5.86,0,0,1,1.48,3.17,1.3,1.3,0,0,1-.47,1,1.67,1.67,0,0,1-1.12.4H656.4a1.78,1.78,0,0,1-1.58-.94,10.66,10.66,0,0,0-3.28-3.28,11.36,11.36,0,0,0-5.72-1.12q-4.18,0-6.34,1.73a5.53,5.53,0,0,0-2.16,4.54,4.66,4.66,0,0,0,.86,2.88,7.61,7.61,0,0,0,3.24,2.12,45.24,45.24,0,0,0,6.91,2q6.7,1.51,9.43,4a8.67,8.67,0,0,1,2.74,6.7,9.43,9.43,0,0,1-1.66,5.4,11.21,11.21,0,0,1-4.9,3.89,19.06,19.06,0,0,1-7.78,1.44A17.69,17.69,0,0,1,638.3,524.32Z"/><path class="cls-19" d="M700.11,523.38L686.86,490l-0.14-.79a1.48,1.48,0,0,1,1.44-1.44h1.51a1.49,1.49,0,0,1,1,.36,2,2,0,0,1,.54.72l12.17,31.1,12.17-31.1a2,2,0,0,1,.54-0.72,1.49,1.49,0,0,1,1-.36h1.51a1.48,1.48,0,0,1,1.44,1.44L720,490l-13.25,33.41a2.7,2.7,0,0,1-2.74,1.8h-1.15A2.7,2.7,0,0,1,700.11,523.38Z"/><path class="cls-19" d="M731.68,521.33a17.79,17.79,0,0,1-4.36-11.84l-0.07-3,0.07-3a17.79,17.79,0,0,1,4.36-11.84q4.14-4.57,11.63-4.57t11.63,4.57a17.8,17.8,0,0,1,4.36,11.84q0.07,0.72.07,3t-0.07,3a17.79,17.79,0,0,1-4.36,11.84q-4.14,4.57-11.63,4.57T731.68,521.33Zm19.87-2.88q3.13-3.28,3.35-9.32,0.07-.72.07-2.66t-0.07-2.66q-0.22-6-3.35-9.32a12,12,0,0,0-16.49,0q-3.13,3.28-3.35,9.32l-0.07,2.66,0.07,2.66q0.22,6,3.35,9.32A12,12,0,0,0,751.55,518.45Z"/><path class="cls-19" d="M775.64,522q-2.23-3.2-2.23-8.82V491.92h-5.62a1.49,1.49,0,0,1-1.58-1.58v-1a1.49,1.49,0,0,1,1.58-1.58h5.62v-12.1a1.49,1.49,0,0,1,1.58-1.58h1.22a1.49,1.49,0,0,1,1.58,1.58v12.1h8.93a1.49,1.49,0,0,1,1.58,1.58v1a1.49,1.49,0,0,1-1.58,1.58H777.8v21a11.26,11.26,0,0,0,1.33,6.08,4.88,4.88,0,0,0,4.43,2.05h3.89a1.49,1.49,0,0,1,1.58,1.58v1a1.49,1.49,0,0,1-1.58,1.58H783.2Q777.87,525.18,775.64,522Z"/><path class="cls-19" d="M801.12,521.4q-4.18-4.5-4.75-12.06l-0.07-2.88,0.07-2.88q0.58-7.49,4.72-12A14.24,14.24,0,0,1,812.14,487q7.49,0,11.7,5t4.21,13.61v1.08a1.49,1.49,0,0,1-.47,1.15,1.68,1.68,0,0,1-1.19.43H800.76V509a15.92,15.92,0,0,0,1.55,6.3,11.87,11.87,0,0,0,3.92,4.68,10,10,0,0,0,5.9,1.76,12,12,0,0,0,6.44-1.55,11.77,11.77,0,0,0,3.56-3.13,5.2,5.2,0,0,1,1-1.08,2.3,2.3,0,0,1,1.19-.22h1.15a1.63,1.63,0,0,1,1.08.36,1.16,1.16,0,0,1,.43.94q0,1.51-1.91,3.64a15.87,15.87,0,0,1-5.29,3.67,18.15,18.15,0,0,1-7.63,1.55A14.32,14.32,0,0,1,801.12,521.4Zm22.54-17.17v-0.29a13.43,13.43,0,0,0-3.13-9.14,10.56,10.56,0,0,0-8.39-3.6,10.34,10.34,0,0,0-8.32,3.6,13.62,13.62,0,0,0-3.06,9.14v0.29h22.9Z"/><path class="cls-19" d="M841.41,520.83a21.48,21.48,0,0,1-3.92-12.35l-0.07-2,0.07-2a21.48,21.48,0,0,1,3.92-12.35q3.71-5.08,11.48-5.08t12.1,5.69V475.65a1.49,1.49,0,0,1,1.58-1.58h1.22a1.49,1.49,0,0,1,1.58,1.58v48a1.49,1.49,0,0,1-1.58,1.58h-1.22A1.49,1.49,0,0,1,865,523.6v-3.38q-4.18,5.69-12.1,5.69T841.41,520.83Zm20.48-2.88a15.37,15.37,0,0,0,3.1-8.89q0.07-.72.07-2.81T865,503.44a14.5,14.5,0,0,0-1.37-5.87,11.34,11.34,0,0,0-3.89-4.57,11,11,0,0,0-6.41-1.8q-5.83,0-8.53,3.71a16.92,16.92,0,0,0-2.92,9.54l-0.07,2a20.94,20.94,0,0,0,2.59,11q2.59,4.28,8.93,4.28Q859,521.73,861.89,517.95Z"/><path class="cls-19" d="M197.48,604.79a1.39,1.39,0,0,1-.36-1,1.92,1.92,0,0,1,.22-0.86l27.79-46.58a3,3,0,0,1,2.59-1.58h5.18a1.71,1.71,0,0,1,1.94,1.58l8,46.58a2.35,2.35,0,0,1-.25,1.66,1.34,1.34,0,0,1-1.19.58H238a1.74,1.74,0,0,1-1.22-.4,2,2,0,0,1-.58-1.19l-1.94-10H210.51L204.18,604a2.23,2.23,0,0,1-2,1.22h-3.67A1.29,1.29,0,0,1,197.48,604.79Zm16.34-17.17h19.73l-4.39-25.85Z"/><path class="cls-19" d="M248.67,618.4a1.41,1.41,0,0,1-.22-1.19l10.22-47.81a2.07,2.07,0,0,1,.68-1.19,1.87,1.87,0,0,1,1.26-.47h3a1.36,1.36,0,0,1,1.15.47,1.41,1.41,0,0,1,.22,1.19l-0.65,3.17a18.65,18.65,0,0,1,5.33-4.14,15.71,15.71,0,0,1,7.06-1.4q6.41,0,9.54,3.67a14.25,14.25,0,0,1,3.13,9.58,26.64,26.64,0,0,1-.36,4,28.64,28.64,0,0,1-.94,4.32A27.13,27.13,0,0,1,281.65,601q-4.61,4.86-12.24,4.86-7.92,0-10.8-5.47L255,617.21a2.07,2.07,0,0,1-.68,1.19,1.87,1.87,0,0,1-1.26.47h-3.24A1.36,1.36,0,0,1,248.67,618.4ZM276.82,597a20.26,20.26,0,0,0,4.68-8.42,26.24,26.24,0,0,0,.86-4.18,22.39,22.39,0,0,0,.29-3.67q0-8.06-7.27-8.06a12.11,12.11,0,0,0-6.23,1.62,13.86,13.86,0,0,0-4.54,4.21,17.09,17.09,0,0,0-2.48,5.4q-0.58,2.23-1.22,5.62a17.26,17.26,0,0,0-.29,2.59,8.76,8.76,0,0,0,2,5.87q2,2.34,6.16,2.34A10.68,10.68,0,0,0,276.82,597Z"/><path class="cls-19" d="M293.17,618.4a1.41,1.41,0,0,1-.22-1.19l10.22-47.81a2.07,2.07,0,0,1,.68-1.19,1.87,1.87,0,0,1,1.26-.47h3a1.36,1.36,0,0,1,1.15.47,1.41,1.41,0,0,1,.22,1.19l-0.65,3.17a18.65,18.65,0,0,1,5.33-4.14,15.71,15.71,0,0,1,7.06-1.4q6.41,0,9.54,3.67a14.25,14.25,0,0,1,3.13,9.58,26.64,26.64,0,0,1-.36,4,28.64,28.64,0,0,1-.94,4.32A27.13,27.13,0,0,1,326.14,601q-4.61,4.86-12.24,4.86-7.92,0-10.8-5.47l-3.6,16.78a2.07,2.07,0,0,1-.68,1.19,1.87,1.87,0,0,1-1.26.47h-3.24A1.36,1.36,0,0,1,293.17,618.4ZM321.32,597a20.26,20.26,0,0,0,4.68-8.42,26.24,26.24,0,0,0,.86-4.18,22.39,22.39,0,0,0,.29-3.67q0-8.06-7.27-8.06a12.11,12.11,0,0,0-6.23,1.62,13.86,13.86,0,0,0-4.54,4.21,17.09,17.09,0,0,0-2.48,5.4q-0.58,2.23-1.22,5.62a17.26,17.26,0,0,0-.29,2.59,8.76,8.76,0,0,0,2,5.87q2,2.34,6.16,2.34A10.68,10.68,0,0,0,321.32,597Z"/><path class="cls-19" d="M340.58,604.72a1.34,1.34,0,0,1-.25-1.19l10.22-47.81a2.06,2.06,0,0,1,.68-1.19,1.87,1.87,0,0,1,1.26-.47h3.17a1.38,1.38,0,0,1,1.12.47,1.34,1.34,0,0,1,.25,1.19l-10.22,47.81a2.07,2.07,0,0,1-.68,1.19,1.86,1.86,0,0,1-1.26.47h-3.17A1.38,1.38,0,0,1,340.58,604.72Z"/><path class="cls-19" d="M365.06,602.41q-3.42-3.49-3.42-9.76a24.14,24.14,0,0,1,.29-3.82q0.36-2.16,1-4.82a24.47,24.47,0,0,1,7.52-12.38A18.87,18.87,0,0,1,383.17,567q6.48,0,9.9,3.46t3.42,9.65a26.93,26.93,0,0,1-.65,5.62l-0.29,1.3a1.94,1.94,0,0,1-.76,1.19,2.14,2.14,0,0,1-1.33.47H368.55l-0.14.65a15.73,15.73,0,0,0-.22,2.59,9.56,9.56,0,0,0,2,6.23,7,7,0,0,0,5.76,2.48,12,12,0,0,0,5.83-1.33,14,14,0,0,0,3.74-2.77,4.75,4.75,0,0,1,1.19-1,3.27,3.27,0,0,1,1.26-.18h3.24a1.3,1.3,0,0,1,1,.4,1.11,1.11,0,0,1,.22,1,9,9,0,0,1-2.88,3.78,22.56,22.56,0,0,1-14.69,5.36Q368.48,605.9,365.06,602.41Zm24.59-18.61,0.07-.22a16.41,16.41,0,0,0,.36-3.17,8.4,8.4,0,0,0-2.09-6,7.69,7.69,0,0,0-5.9-2.23,11.27,11.27,0,0,0-8,3.17,15.43,15.43,0,0,0-4.43,8.21v0.22h20Z"/><path class="cls-19" d="M411.39,554.06h4.75a0.83,0.83,0,0,1,1,.86,3.32,3.32,0,0,1-.29,1l-6,10.22a2.85,2.85,0,0,1-2.38,1.58h-2.38a0.92,0.92,0,0,1-.68-0.25,0.83,0.83,0,0,1-.25-0.61,2.26,2.26,0,0,1,.14-0.65L409,556.15Q409.8,554.06,411.39,554.06Z"/><path class="cls-19" d="M420.79,604.46a10.85,10.85,0,0,1-4.32-3.35,6.26,6.26,0,0,1-1.33-3.49,1.89,1.89,0,0,1,.61-1.44,1.84,1.84,0,0,1,1.26-.58h3a1.39,1.39,0,0,1,.68.14,1.34,1.34,0,0,1,.47.65,10.5,10.5,0,0,0,3.13,3.2,9.87,9.87,0,0,0,5.22,1.12,13.62,13.62,0,0,0,6.55-1.44,6,6,0,0,0,3.24-4.18,9.54,9.54,0,0,0,.14-1.08,3.44,3.44,0,0,0-2.16-3.13,39.44,39.44,0,0,0-7.92-2.48q-5-1.22-7.24-3.24a6.47,6.47,0,0,1-2.2-5,17.24,17.24,0,0,1,.29-2.45,11.51,11.51,0,0,1,2.7-5.18,15.81,15.81,0,0,1,5.58-4A18.83,18.83,0,0,1,436.3,567a16.07,16.07,0,0,1,7.34,1.48,10,10,0,0,1,4.1,3.46,4.76,4.76,0,0,1,.94,3.35,1.74,1.74,0,0,1-.61,1.19,1.86,1.86,0,0,1-1.26.47H444a1.25,1.25,0,0,1-1.22-.79,23.9,23.9,0,0,0-1.66-2.16,5.29,5.29,0,0,0-2.09-1.26,11.12,11.12,0,0,0-3.82-.54,10.08,10.08,0,0,0-5.72,1.48,6.36,6.36,0,0,0-2.77,3.92,6,6,0,0,0-.14,1.08,3.34,3.34,0,0,0,2,2.88,29.28,29.28,0,0,0,7.31,2.38q5.54,1.22,8,3.38a6.83,6.83,0,0,1,2.45,5.33,12.93,12.93,0,0,1-.22,2.23,12.49,12.49,0,0,1-5.72,7.88q-4.72,3.13-12,3.13A17.5,17.5,0,0,1,420.79,604.46Z"/><path class="cls-19" d="M474.46,604.72a1.41,1.41,0,0,1-.22-1.19l9.94-47a2,2,0,0,1,.72-1.26,2,2,0,0,1,1.3-.47h19.44q6.12,0,9.61,3a9.53,9.53,0,0,1,3.49,7.63,11.67,11.67,0,0,1-.29,2.66,14.37,14.37,0,0,1-3.31,6.95,14.73,14.73,0,0,1-5.18,3.71,11,11,0,0,1,3.67,3.74,10.39,10.39,0,0,1,1.37,5.4,13.63,13.63,0,0,1-.29,2.81,19.13,19.13,0,0,1-6,10.51q-4.57,4-12.64,4H475.54A1.28,1.28,0,0,1,474.46,604.72Zm21.46-5.22a12.32,12.32,0,0,0,7.74-2.52,10.5,10.5,0,0,0,4.07-6.34A11.35,11.35,0,0,0,508,588q0-6.26-8.21-6.26H485.62l-3.74,17.71h14Zm4-23.33a13,13,0,0,0,7.63-2.16,9.29,9.29,0,0,0,3.89-5.9,14.66,14.66,0,0,0,.29-2.23q0-5.4-7.56-5.4h-14l-3.38,15.7h13.1Z"/><path class="cls-19" d="M528.86,602.41q-3.42-3.49-3.42-9.76a24.14,24.14,0,0,1,.29-3.82q0.36-2.16,1-4.82a24.47,24.47,0,0,1,7.52-12.38A18.87,18.87,0,0,1,547,567q6.48,0,9.9,3.46t3.42,9.65a26.93,26.93,0,0,1-.65,5.62l-0.29,1.3a1.94,1.94,0,0,1-.76,1.19,2.14,2.14,0,0,1-1.33.47H532.35l-0.14.65a15.73,15.73,0,0,0-.22,2.59,9.56,9.56,0,0,0,2,6.23,7,7,0,0,0,5.76,2.48,12,12,0,0,0,5.83-1.33,14,14,0,0,0,3.74-2.77,4.75,4.75,0,0,1,1.19-1,3.27,3.27,0,0,1,1.26-.18H555a1.3,1.3,0,0,1,1,.4,1.11,1.11,0,0,1,.22,1,9,9,0,0,1-2.88,3.78,22.56,22.56,0,0,1-14.69,5.36Q532.27,605.9,528.86,602.41Zm24.59-18.61,0.07-.22a16.41,16.41,0,0,0,.36-3.17,8.4,8.4,0,0,0-2.09-6,7.69,7.69,0,0,0-5.9-2.23,11.27,11.27,0,0,0-8,3.17,15.43,15.43,0,0,0-4.43,8.21v0.22h20Z"/><path class="cls-19" d="M571,604.46a10.85,10.85,0,0,1-4.32-3.35,6.26,6.26,0,0,1-1.33-3.49,1.89,1.89,0,0,1,.61-1.44,1.84,1.84,0,0,1,1.26-.58h3a1.39,1.39,0,0,1,.68.14,1.34,1.34,0,0,1,.47.65,10.5,10.5,0,0,0,3.13,3.2,9.87,9.87,0,0,0,5.22,1.12,13.62,13.62,0,0,0,6.55-1.44,6,6,0,0,0,3.24-4.18,9.54,9.54,0,0,0,.14-1.08,3.44,3.44,0,0,0-2.16-3.13,39.44,39.44,0,0,0-7.92-2.48q-5-1.22-7.24-3.24a6.47,6.47,0,0,1-2.2-5,17.24,17.24,0,0,1,.29-2.45,11.51,11.51,0,0,1,2.7-5.18,15.81,15.81,0,0,1,5.58-4,18.83,18.83,0,0,1,7.78-1.55,16.07,16.07,0,0,1,7.34,1.48,10,10,0,0,1,4.1,3.46,4.76,4.76,0,0,1,.94,3.35,1.74,1.74,0,0,1-.61,1.19A1.86,1.86,0,0,1,597,577H594.2a1.25,1.25,0,0,1-1.22-.79,23.9,23.9,0,0,0-1.66-2.16,5.29,5.29,0,0,0-2.09-1.26,11.12,11.12,0,0,0-3.82-.54,10.08,10.08,0,0,0-5.72,1.48,6.36,6.36,0,0,0-2.77,3.92,6,6,0,0,0-.14,1.08,3.34,3.34,0,0,0,2,2.88,29.28,29.28,0,0,0,7.31,2.38q5.54,1.22,8,3.38a6.83,6.83,0,0,1,2.45,5.33,12.93,12.93,0,0,1-.22,2.23,12.49,12.49,0,0,1-5.72,7.88q-4.72,3.13-12,3.13A17.5,17.5,0,0,1,571,604.46Z"/><path class="cls-19" d="M610.43,603.2a7.28,7.28,0,0,1-2.27-5.8,23.73,23.73,0,0,1,.58-4.82l4.1-19.3h-5.62a1.44,1.44,0,0,1-1.12-.43,1.25,1.25,0,0,1-.25-1.15l0.5-2.3a2.07,2.07,0,0,1,2-1.66H614l2.59-12a2.07,2.07,0,0,1,.68-1.19,1.87,1.87,0,0,1,1.26-.47h3.1a1.37,1.37,0,0,1,1.15.47,1.42,1.42,0,0,1,.22,1.19l-2.59,12h8.93a1.33,1.33,0,0,1,1.08.43,1.44,1.44,0,0,1,.22,1.22l-0.5,2.3a1.9,1.9,0,0,1-.68,1.15,2,2,0,0,1-1.26.43h-8.93l-4,18.79a22.71,22.71,0,0,0-.65,4.25,3,3,0,0,0,.9,2.38,4.77,4.77,0,0,0,3.13.79h4.75a1.18,1.18,0,0,1,1,.47,1.5,1.5,0,0,1,.18,1.19l-0.5,2.38a2.07,2.07,0,0,1-.68,1.19,1.86,1.86,0,0,1-1.26.47H618Q612.7,605.18,610.43,603.2Z"/><path class="cls-19" d="M647,604.79a1.39,1.39,0,0,1-.36-1,1.92,1.92,0,0,1,.22-0.86l27.79-46.58a3,3,0,0,1,2.59-1.58h5.18a1.71,1.71,0,0,1,1.94,1.58l8,46.58a2.35,2.35,0,0,1-.25,1.66,1.34,1.34,0,0,1-1.19.58h-3.38a1.74,1.74,0,0,1-1.22-.4,2,2,0,0,1-.58-1.19l-1.94-10H660.08L653.74,604a2.23,2.23,0,0,1-2,1.22h-3.67A1.29,1.29,0,0,1,647,604.79Zm16.34-17.17h19.73l-4.39-25.85Z"/><path class="cls-19" d="M698.23,618.4a1.41,1.41,0,0,1-.22-1.19l10.22-47.81a2.07,2.07,0,0,1,.68-1.19,1.87,1.87,0,0,1,1.26-.47h3a1.36,1.36,0,0,1,1.15.47,1.41,1.41,0,0,1,.22,1.19l-0.65,3.17a18.65,18.65,0,0,1,5.33-4.14,15.71,15.71,0,0,1,7.06-1.4q6.41,0,9.54,3.67a14.25,14.25,0,0,1,3.13,9.58,26.64,26.64,0,0,1-.36,4,28.64,28.64,0,0,1-.94,4.32A27.13,27.13,0,0,1,731.21,601Q726.6,605.9,719,605.9q-7.92,0-10.8-5.47l-3.6,16.78a2.07,2.07,0,0,1-.68,1.19,1.87,1.87,0,0,1-1.26.47h-3.24A1.36,1.36,0,0,1,698.23,618.4ZM726.39,597a20.26,20.26,0,0,0,4.68-8.42,26.24,26.24,0,0,0,.86-4.18,22.39,22.39,0,0,0,.29-3.67q0-8.06-7.27-8.06a12.11,12.11,0,0,0-6.23,1.62,13.86,13.86,0,0,0-4.54,4.21,17.09,17.09,0,0,0-2.48,5.4q-0.58,2.23-1.22,5.62a17.26,17.26,0,0,0-.29,2.59,8.76,8.76,0,0,0,2,5.87q2,2.34,6.16,2.34A10.68,10.68,0,0,0,726.39,597Z"/><path class="cls-19" d="M742.73,618.4a1.41,1.41,0,0,1-.22-1.19l10.22-47.81a2.07,2.07,0,0,1,.68-1.19,1.87,1.87,0,0,1,1.26-.47h3a1.36,1.36,0,0,1,1.15.47,1.41,1.41,0,0,1,.22,1.19l-0.65,3.17a18.65,18.65,0,0,1,5.33-4.14,15.71,15.71,0,0,1,7.06-1.4q6.41,0,9.54,3.67a14.25,14.25,0,0,1,3.13,9.58,26.64,26.64,0,0,1-.36,4,28.64,28.64,0,0,1-.94,4.32A27.13,27.13,0,0,1,775.71,601q-4.61,4.86-12.24,4.86-7.92,0-10.8-5.47l-3.6,16.78a2.07,2.07,0,0,1-.68,1.19,1.87,1.87,0,0,1-1.26.47h-3.24A1.36,1.36,0,0,1,742.73,618.4ZM770.88,597a20.26,20.26,0,0,0,4.68-8.42,26.24,26.24,0,0,0,.86-4.18,22.39,22.39,0,0,0,.29-3.67q0-8.06-7.27-8.06a12.11,12.11,0,0,0-6.23,1.62,13.86,13.86,0,0,0-4.54,4.21,17.09,17.09,0,0,0-2.48,5.4q-0.58,2.23-1.22,5.62a17.26,17.26,0,0,0-.29,2.59,8.76,8.76,0,0,0,2,5.87q2,2.34,6.16,2.34A10.68,10.68,0,0,0,770.88,597Z"/><path class="cls-19" d="M205.87,682.41a12.2,12.2,0,0,1-3.71-9.32,20.33,20.33,0,0,1,.36-3.53,42,42,0,0,1,1.3-6.19,22.8,22.8,0,0,1,6.88-11.92q5-4.43,12.92-4.43,6.77,0,10.44,3.53a12.47,12.47,0,0,1,3.67,9.43,18.2,18.2,0,0,1-.29,3.38q-0.65,3.53-1.37,6.19a22.81,22.81,0,0,1-6.88,11.92q-5,4.43-12.92,4.43Q209.58,685.9,205.87,682.41Zm18.86-4.82a15.4,15.4,0,0,0,4.86-8.39q0.29-1.15,1.15-5.47a19.91,19.91,0,0,0,.36-3.38,8.09,8.09,0,0,0-2-5.9,7.77,7.77,0,0,0-5.8-2,12.27,12.27,0,0,0-8.17,3,15.19,15.19,0,0,0-4.79,8.35,41,41,0,0,0-1.22,5.47,19.68,19.68,0,0,0-.29,3.38q0,7.92,7.7,7.92A12.36,12.36,0,0,0,224.73,677.59Z"/><path class="cls-19" d="M247.23,684.72a1.4,1.4,0,0,1-.22-1.19l6.41-30.24H247.3a1.44,1.44,0,0,1-1.12-.43,1.25,1.25,0,0,1-.25-1.15l0.5-2.3a2.07,2.07,0,0,1,.68-1.19,2,2,0,0,1,1.33-.47h6.12l0.79-3.6a16.35,16.35,0,0,1,4.79-9,13.43,13.43,0,0,1,9.4-3.24h4.82a1.33,1.33,0,0,1,1.08.43,1.44,1.44,0,0,1,.22,1.22l-0.5,2.3a1.85,1.85,0,0,1-.72,1.15,2.11,2.11,0,0,1-1.3.43h-3.67a7.26,7.26,0,0,0-5.18,1.76,9.74,9.74,0,0,0-2.59,5.29L261,647.74h9.29a1.33,1.33,0,0,1,1.08.43,1.44,1.44,0,0,1,.22,1.22l-0.5,2.3a1.9,1.9,0,0,1-.68,1.15,2,2,0,0,1-1.26.43h-9.29l-6.41,30.24a2.07,2.07,0,0,1-.68,1.19,1.86,1.86,0,0,1-1.26.47h-3.17A1.28,1.28,0,0,1,247.23,684.72Z"/><path class="cls-19" d="M290.14,684.72a1.41,1.41,0,0,1-.22-1.19l0.5-2.16a5.22,5.22,0,0,1,2.45-3.17l19-15.62a58.57,58.57,0,0,0,8.93-7.42,13.52,13.52,0,0,0,3.31-6.12,11.31,11.31,0,0,0,.29-2.59,6,6,0,0,0-2-4.79,8.59,8.59,0,0,0-5.72-1.69,11.27,11.27,0,0,0-7.34,2.52,14.48,14.48,0,0,0-4.54,6.77,2.84,2.84,0,0,1-1,1.22,2.23,2.23,0,0,1-1.22.43h-3.46a1.29,1.29,0,0,1-1-.4,1.1,1.1,0,0,1-.22-1,20.79,20.79,0,0,1,10.55-13.21A20.06,20.06,0,0,1,318,634q6.84,0,10.15,3.1a10.71,10.71,0,0,1,3.31,8.21,15.73,15.73,0,0,1-.36,3.6,18.89,18.89,0,0,1-3.92,8.14,44.7,44.7,0,0,1-8.6,7.7l-17.14,14.4h22.61a1.33,1.33,0,0,1,1.08.43,1.44,1.44,0,0,1,.22,1.22l-0.5,2.74a1.94,1.94,0,0,1-.76,1.19,2.15,2.15,0,0,1-1.33.47H291.22A1.27,1.27,0,0,1,290.14,684.72Z"/><path class="cls-19" d="M340.83,682.34q-3.89-3.56-3.89-10.55a32.36,32.36,0,0,1,.58-5.54q1.08-6.33,2.66-12.6,2.38-9.79,7.7-14.69t13.9-4.9q7.27,0,11.2,3.64t3.92,10.62a27.89,27.89,0,0,1-.5,5.33q-1.08,6.34-2.66,12.6-2.45,9.94-7.74,14.8t-13.93,4.86Q344.72,685.9,340.83,682.34Zm20.66-5.8q3.6-3.38,5.4-10.66,1.51-6,2.52-11.88a36,36,0,0,0,.58-5.69q0-4.32-2-6.34t-6.41-2a12.92,12.92,0,0,0-9.22,3.38q-3.6,3.39-5.33,10.66-1.44,5.54-2.59,11.88a35.6,35.6,0,0,0-.58,5.62q0,4.39,2,6.41t6.48,2A12.82,12.82,0,0,0,361.5,676.54Z"/><path class="cls-19" d="M394.65,684.72a1.34,1.34,0,0,1-.25-1.19l8.5-40-13.68,9a2.15,2.15,0,0,1-1.15.43,1.2,1.2,0,0,1-1.15-.72l-1.44-2.59a1.29,1.29,0,0,1-.22-0.65,2,2,0,0,1,1.08-1.66l18.29-12.1a4.83,4.83,0,0,1,.83-0.4,2.94,2.94,0,0,1,.9-0.11h3.53a1.44,1.44,0,0,1,1.12.43,1.36,1.36,0,0,1,.25,1.22l-10.08,47.09a2.07,2.07,0,0,1-.68,1.19,1.86,1.86,0,0,1-1.26.47h-3.46A1.38,1.38,0,0,1,394.65,684.72Z"/><path class="cls-19" d="M436.34,684.72a1.34,1.34,0,0,1-.25-1.19l2.3-10.51H414.7a1.33,1.33,0,0,1-1.08-.43,1.43,1.43,0,0,1-.22-1.22L414,668.7a3.52,3.52,0,0,1,.36-1.08,6.78,6.78,0,0,1,.65-0.86L443.43,636a3.65,3.65,0,0,1,2.88-1.22h5.18a1.28,1.28,0,0,1,1.08.47,1.42,1.42,0,0,1,.22,1.19L446.31,667h6.48a1.28,1.28,0,0,1,1.08.47,1.41,1.41,0,0,1,.22,1.19l-0.58,2.74a1.7,1.7,0,0,1-.65,1.19,2,2,0,0,1-1.3.47H445l-2.23,10.51a2.07,2.07,0,0,1-.68,1.19,1.86,1.86,0,0,1-1.26.47h-3.38A1.38,1.38,0,0,1,436.34,684.72Zm-13.72-17.6h17.06l5.11-24.26Z"/><path class="cls-19" d="M489.08,684.46a12.34,12.34,0,0,1-4.72-3.89,9,9,0,0,1-1.76-5.4,9.45,9.45,0,0,1,3.85-7.78,21,21,0,0,1,10.4-3.89l11.38-1.58v-2.52a7.68,7.68,0,0,0-2.41-6.08q-2.41-2.12-7.38-2.12a11.32,11.32,0,0,0-6,1.44,6.48,6.48,0,0,0-3,3.46,2.59,2.59,0,0,1-.68,1.19,1.6,1.6,0,0,1-1,.32h-1a1.6,1.6,0,0,1-1.58-1.58,6.93,6.93,0,0,1,1.44-3.71,11.92,11.92,0,0,1,4.46-3.71,15.83,15.83,0,0,1,7.42-1.58q7.7,0,10.94,3.67a13,13,0,0,1,3.24,8.93v24a1.49,1.49,0,0,1-1.58,1.58h-1.22a1.49,1.49,0,0,1-1.58-1.58v-3.38a12.67,12.67,0,0,1-4.64,4,17,17,0,0,1-8.1,1.66A14.42,14.42,0,0,1,489.08,684.46Zm15.77-6.19q3.38-3.46,3.38-9.94v-2.45l-9.29,1.3q-5.9.79-8.93,2.74a5.77,5.77,0,0,0-.25,10A12.49,12.49,0,0,0,504.85,678.27Z"/><path class="cls-19" d="M526.23,684.75a1.55,1.55,0,0,1-.43-1.15V649.33a1.49,1.49,0,0,1,1.58-1.58h1.22a1.49,1.49,0,0,1,1.58,1.58v3.38a14.92,14.92,0,0,1,4.93-4.25,15.53,15.53,0,0,1,7.16-1.44q7.06,0,10.87,4.5T557,663.15V683.6a1.49,1.49,0,0,1-1.58,1.58h-1.22a1.49,1.49,0,0,1-1.58-1.58V663.51q0-5.83-2.84-9.07t-8.17-3.24a10.86,10.86,0,0,0-8.28,3.28q-3.1,3.28-3.1,9V683.6a1.49,1.49,0,0,1-1.58,1.58h-1.22A1.56,1.56,0,0,1,526.23,684.75Z"/><path class="cls-19" d="M572.13,680.83a21.48,21.48,0,0,1-3.92-12.35l-0.07-2,0.07-2a21.48,21.48,0,0,1,3.92-12.35q3.71-5.08,11.48-5.08t12.1,5.69V635.65a1.49,1.49,0,0,1,1.58-1.58h1.22a1.49,1.49,0,0,1,1.58,1.58v48a1.49,1.49,0,0,1-1.58,1.58h-1.22a1.49,1.49,0,0,1-1.58-1.58v-3.38q-4.18,5.69-12.1,5.69T572.13,680.83Zm20.48-2.88a15.37,15.37,0,0,0,3.1-8.89q0.07-.72.07-2.81t-0.07-2.81a14.52,14.52,0,0,0-1.37-5.87,11.35,11.35,0,0,0-3.89-4.57,11,11,0,0,0-6.41-1.8q-5.83,0-8.53,3.71a16.91,16.91,0,0,0-2.92,9.54l-0.07,2a21,21,0,0,0,2.59,11q2.59,4.28,8.93,4.28Q589.73,681.73,592.61,677.95Z"/><path class="cls-19" d="M636.82,682.05q-4.18-3.85-4.18-10.69a26.94,26.94,0,0,1,.43-4.68q1.15-6.62,2.88-13.54a25.14,25.14,0,0,1,8.46-13.93q6.3-5.15,15.66-5.15a20.63,20.63,0,0,1,9.61,2,13.88,13.88,0,0,1,5.54,4.82,10.67,10.67,0,0,1,1.76,5.65,8.71,8.71,0,0,1-.14,1.3,2,2,0,0,1-.61,1.08,1.69,1.69,0,0,1-1.19.43h-4a1.28,1.28,0,0,1-.94-0.29,2.07,2.07,0,0,1-.43-1.08,8.62,8.62,0,0,0-3-5.65q-2.63-2.34-8-2.34a15.65,15.65,0,0,0-10.15,3.31q-4.1,3.31-5.83,10.22-1.58,6.19-2.81,12.82a25.51,25.51,0,0,0-.36,3.82q0,9.79,10.73,9.79a16.83,16.83,0,0,0,10.51-3.35q4.39-3.35,5.76-10l0.65-3.1h-11a1.18,1.18,0,0,1-1-.47,1.64,1.64,0,0,1-.18-1.26l0.43-2.16a2.15,2.15,0,0,1,.72-1.22,1.92,1.92,0,0,1,1.3-.5h16.13a1.32,1.32,0,0,1,1.15.5,1.51,1.51,0,0,1,.22,1.22l-1.51,6.84a25.43,25.43,0,0,1-4.57,10.26,22.44,22.44,0,0,1-8.46,6.84,26.31,26.31,0,0,1-11.38,2.41Q641,685.9,636.82,682.05Z"/><path class="cls-19" d="M684.74,682.41a12.2,12.2,0,0,1-3.71-9.32,20.33,20.33,0,0,1,.36-3.53,42,42,0,0,1,1.3-6.19,22.8,22.8,0,0,1,6.88-11.92q5-4.43,12.92-4.43,6.77,0,10.44,3.53A12.47,12.47,0,0,1,716.6,660a18.2,18.2,0,0,1-.29,3.38q-0.65,3.53-1.37,6.19a22.81,22.81,0,0,1-6.88,11.92q-5,4.43-12.92,4.43Q688.44,685.9,684.74,682.41Zm18.86-4.82a15.4,15.4,0,0,0,4.86-8.39q0.29-1.15,1.15-5.47a19.91,19.91,0,0,0,.36-3.38,8.09,8.09,0,0,0-2-5.9,7.77,7.77,0,0,0-5.8-2,12.27,12.27,0,0,0-8.17,3,15.19,15.19,0,0,0-4.79,8.35A41,41,0,0,0,688,669.2a19.68,19.68,0,0,0-.29,3.38q0,7.92,7.7,7.92A12.36,12.36,0,0,0,703.6,677.59Z"/><path class="cls-19" d="M727.58,682.41a12.2,12.2,0,0,1-3.71-9.32,20.33,20.33,0,0,1,.36-3.53,42,42,0,0,1,1.3-6.19,22.8,22.8,0,0,1,6.88-11.92q5-4.43,12.92-4.43,6.77,0,10.44,3.53a12.47,12.47,0,0,1,3.67,9.43,18.2,18.2,0,0,1-.29,3.38q-0.65,3.53-1.37,6.19a22.81,22.81,0,0,1-6.88,11.92q-5,4.43-12.92,4.43Q731.28,685.9,727.58,682.41Zm18.86-4.82a15.4,15.4,0,0,0,4.86-8.39q0.29-1.15,1.15-5.47a19.91,19.91,0,0,0,.36-3.38,8.09,8.09,0,0,0-2-5.9,7.77,7.77,0,0,0-5.8-2,12.27,12.27,0,0,0-8.17,3,15.19,15.19,0,0,0-4.79,8.35,41,41,0,0,0-1.22,5.47,19.68,19.68,0,0,0-.29,3.38q0,7.92,7.7,7.92A12.36,12.36,0,0,0,746.44,677.59Z"/><path class="cls-19" d="M768.94,699.33a10.58,10.58,0,0,1-4.46-4,9.08,9.08,0,0,1-1.3-4.36,3.33,3.33,0,0,1,.07-0.86,2,2,0,0,1,.58-1.22,1.58,1.58,0,0,1,1.15-.5h3.53a1.32,1.32,0,0,1,1.37,1.51,6.31,6.31,0,0,0,1.8,4q1.66,1.76,5.9,1.76,10.94,0,13.1-10.44l1-5a20.35,20.35,0,0,1-5.36,3.92,15.06,15.06,0,0,1-6.73,1.4q-6.55,0-9.65-3.56a13.81,13.81,0,0,1-3.1-9.4,29,29,0,0,1,.36-4.32q0.22-1.3.86-4a28.06,28.06,0,0,1,6.48-12.42q4.54-4.86,12.24-4.86a14.26,14.26,0,0,1,6.84,1.51,9.52,9.52,0,0,1,4.1,4l0.65-3.1a2.15,2.15,0,0,1,.72-1.22,1.92,1.92,0,0,1,1.3-.5h3.1a1.25,1.25,0,0,1,1.08.5,1.52,1.52,0,0,1,.22,1.22l-7.34,34.92a30.06,30.06,0,0,1-3.28,8.93A14.63,14.63,0,0,1,788,699,23.65,23.65,0,0,1,777.36,701,17.92,17.92,0,0,1,768.94,699.33Zm18.11-21a14.41,14.41,0,0,0,4.57-4.18,16.33,16.33,0,0,0,2.52-5.36,27.65,27.65,0,0,0,1-5,20.58,20.58,0,0,0,.29-2.88,9.1,9.1,0,0,0-1.91-5.94q-1.91-2.34-6.08-2.34a11,11,0,0,0-8.17,3.35,18.75,18.75,0,0,0-4.64,8.39,20.83,20.83,0,0,0-.79,3.82,25.82,25.82,0,0,0-.36,3.89q0,7.85,7.42,7.85A12,12,0,0,0,787,678.31Z"/><path class="cls-19" d="M810.52,684.72a1.34,1.34,0,0,1-.25-1.19l10.22-47.81a2.06,2.06,0,0,1,.68-1.19,1.87,1.87,0,0,1,1.26-.47h3.17a1.38,1.38,0,0,1,1.12.47,1.34,1.34,0,0,1,.25,1.19l-10.22,47.81a2.07,2.07,0,0,1-.68,1.19,1.86,1.86,0,0,1-1.26.47h-3.17A1.38,1.38,0,0,1,810.52,684.72Z"/><path class="cls-19" d="M835,682.41q-3.42-3.49-3.42-9.76a24,24,0,0,1,.29-3.82q0.36-2.16,1-4.82a24.46,24.46,0,0,1,7.52-12.38A18.88,18.88,0,0,1,853.11,647q6.48,0,9.9,3.46t3.42,9.65a26.94,26.94,0,0,1-.65,5.62l-0.29,1.3a1.93,1.93,0,0,1-.76,1.19,2.14,2.14,0,0,1-1.33.47H838.49l-0.14.65a15.67,15.67,0,0,0-.22,2.59,9.56,9.56,0,0,0,2,6.23,7,7,0,0,0,5.76,2.48,12,12,0,0,0,5.83-1.33,14,14,0,0,0,3.74-2.77,4.71,4.71,0,0,1,1.19-1,3.26,3.26,0,0,1,1.26-.18h3.24a1.3,1.3,0,0,1,1,.4,1.11,1.11,0,0,1,.21,1,9,9,0,0,1-2.88,3.78,22.57,22.57,0,0,1-14.69,5.36Q838.42,685.9,835,682.41Zm24.59-18.61,0.07-.22a16.38,16.38,0,0,0,.36-3.17,8.4,8.4,0,0,0-2.09-6,7.7,7.7,0,0,0-5.9-2.23,11.27,11.27,0,0,0-8,3.17,15.43,15.43,0,0,0-4.43,8.21v0.22h20Z"/><path class="cls-19" d="M202.38,764.72a1.41,1.41,0,0,1-.22-1.19l9.94-47a2,2,0,0,1,.72-1.26,2,2,0,0,1,1.3-.47h17.71q7.13,0,11.12,2.92t4,8.53a19.28,19.28,0,0,1-.43,3.89q-1.58,7.56-6.73,11.41t-13.36,3.85H212.89L209,763.53a2.07,2.07,0,0,1-.68,1.19,1.86,1.86,0,0,1-1.26.47h-3.6A1.28,1.28,0,0,1,202.38,764.72Zm23.9-25.16a15.22,15.22,0,0,0,8.82-2.45,10.75,10.75,0,0,0,4.5-7,16.14,16.14,0,0,0,.43-3.46,5.31,5.31,0,0,0-2-4.54q-2-1.51-6.91-1.51h-13L214,739.55h12.24Z"/><path class="cls-19" d="M249.5,764.72a1.34,1.34,0,0,1-.25-1.19l10.22-47.81a2.06,2.06,0,0,1,.68-1.19,1.87,1.87,0,0,1,1.26-.47h3.17a1.38,1.38,0,0,1,1.12.47,1.34,1.34,0,0,1,.25,1.19l-10.22,47.81a2.07,2.07,0,0,1-.68,1.19,1.86,1.86,0,0,1-1.26.47h-3.17A1.38,1.38,0,0,1,249.5,764.72Z"/><path class="cls-19" d="M272.54,762.3a14.29,14.29,0,0,1-3-9.43,35.28,35.28,0,0,1,7.67-21q4.43-4.82,12.13-4.82a13.45,13.45,0,0,1,6.73,1.4,10.44,10.44,0,0,1,3.85,3.92l0.65-3a2.07,2.07,0,0,1,.68-1.19,1.87,1.87,0,0,1,1.26-.47h3.1a1.28,1.28,0,0,1,1.08.47,1.41,1.41,0,0,1,.22,1.19l-7.2,34.13a2.07,2.07,0,0,1-.68,1.19,1.86,1.86,0,0,1-1.26.47h-3.1a1.38,1.38,0,0,1-1.12-.47,1.34,1.34,0,0,1-.25-1.19l0.72-3.1a21.52,21.52,0,0,1-5.26,4.1,14.69,14.69,0,0,1-6.84,1.37Q275.53,765.9,272.54,762.3Zm19.22-5.4a16.26,16.26,0,0,0,4.5-7.92q0.93-3.82,1.22-5.54a20.37,20.37,0,0,0,.29-2.74,8.8,8.8,0,0,0-1.87-5.8q-1.87-2.27-6-2.27a10.3,10.3,0,0,0-7.88,3.28,20.61,20.61,0,0,0-4.57,8.46,24.92,24.92,0,0,0-.86,4.18,27.84,27.84,0,0,0-.36,4.1q0,7.63,7,7.63A11.64,11.64,0,0,0,291.76,756.9Z"/><path class="cls-19" d="M314.59,778.54a1.12,1.12,0,0,1-.32-0.83,2.26,2.26,0,0,1,.36-1.22l8.86-13.82-7.06-33a1.76,1.76,0,0,1,.25-1.37,1.58,1.58,0,0,1,1.4-.58h3a1.45,1.45,0,0,1,1.58,1.15l5.62,26.57,17.06-26.57a2.26,2.26,0,0,1,2-1.15h3.6a1.25,1.25,0,0,1,.86.32,1.07,1.07,0,0,1,.36.83,1.91,1.91,0,0,1-.29.94L321,777.71a2.55,2.55,0,0,1-2.09,1.15h-3.46A1.12,1.12,0,0,1,314.59,778.54Z"/><path class="cls-19" d="M366.61,714.06h4.75a0.83,0.83,0,0,1,1,.86,3.32,3.32,0,0,1-.29,1l-6,10.22a2.85,2.85,0,0,1-2.38,1.58h-2.38a0.92,0.92,0,0,1-.68-0.25,0.83,0.83,0,0,1-.25-0.61,2.26,2.26,0,0,1,.14-0.65l3.74-10.08Q365,714.06,366.61,714.06Z"/><path class="cls-19" d="M376,764.46a10.85,10.85,0,0,1-4.32-3.35,6.26,6.26,0,0,1-1.33-3.49,1.89,1.89,0,0,1,.61-1.44,1.84,1.84,0,0,1,1.26-.58h3a1.39,1.39,0,0,1,.68.14,1.34,1.34,0,0,1,.47.65,10.5,10.5,0,0,0,3.13,3.2,9.87,9.87,0,0,0,5.22,1.12,13.62,13.62,0,0,0,6.55-1.44,6,6,0,0,0,3.24-4.18,9.54,9.54,0,0,0,.14-1.08,3.44,3.44,0,0,0-2.16-3.13,39.44,39.44,0,0,0-7.92-2.48q-5-1.22-7.24-3.24a6.47,6.47,0,0,1-2.2-5,17.24,17.24,0,0,1,.29-2.45,11.51,11.51,0,0,1,2.7-5.18,15.81,15.81,0,0,1,5.58-4,18.83,18.83,0,0,1,7.78-1.55,16.07,16.07,0,0,1,7.34,1.48A10,10,0,0,1,403,732a4.76,4.76,0,0,1,.94,3.35,1.74,1.74,0,0,1-.61,1.19A1.86,1.86,0,0,1,402,737h-2.81a1.25,1.25,0,0,1-1.22-.79,23.9,23.9,0,0,0-1.66-2.16,5.29,5.29,0,0,0-2.09-1.26,11.12,11.12,0,0,0-3.82-.54,10.08,10.08,0,0,0-5.72,1.48,6.36,6.36,0,0,0-2.77,3.92,6,6,0,0,0-.14,1.08,3.34,3.34,0,0,0,2,2.88,29.28,29.28,0,0,0,7.31,2.38q5.54,1.22,8,3.38a6.83,6.83,0,0,1,2.45,5.33,12.93,12.93,0,0,1-.22,2.23,12.49,12.49,0,0,1-5.72,7.88q-4.72,3.13-12,3.13A17.5,17.5,0,0,1,376,764.46Z"/><path class="cls-19" d="M429.68,764.72a1.41,1.41,0,0,1-.22-1.19l9.94-47a2,2,0,0,1,.72-1.26,2,2,0,0,1,1.3-.47h19.44q6.12,0,9.61,3a9.53,9.53,0,0,1,3.49,7.63,11.67,11.67,0,0,1-.29,2.66,14.37,14.37,0,0,1-3.31,6.95,14.73,14.73,0,0,1-5.18,3.71,11,11,0,0,1,3.67,3.74,10.39,10.39,0,0,1,1.37,5.4,13.63,13.63,0,0,1-.29,2.81,19.13,19.13,0,0,1-6,10.51q-4.57,4-12.64,4H430.76A1.28,1.28,0,0,1,429.68,764.72Zm21.46-5.22a12.32,12.32,0,0,0,7.74-2.52,10.5,10.5,0,0,0,4.07-6.34,11.35,11.35,0,0,0,.29-2.59q0-6.26-8.21-6.26H440.84l-3.74,17.71h14Zm4-23.33A13,13,0,0,0,462.8,734a9.29,9.29,0,0,0,3.89-5.9,14.66,14.66,0,0,0,.29-2.23q0-5.4-7.56-5.4h-14l-3.38,15.7h13.1Z"/><path class="cls-19" d="M484.07,762.41q-3.42-3.49-3.42-9.76a24.14,24.14,0,0,1,.29-3.82q0.36-2.16,1-4.82a24.47,24.47,0,0,1,7.52-12.38A18.87,18.87,0,0,1,502.18,727q6.48,0,9.9,3.46t3.42,9.65a26.93,26.93,0,0,1-.65,5.62l-0.29,1.3a1.94,1.94,0,0,1-.76,1.19,2.14,2.14,0,0,1-1.33.47H487.56l-0.14.65a15.73,15.73,0,0,0-.22,2.59,9.56,9.56,0,0,0,2,6.23,7,7,0,0,0,5.76,2.48,12,12,0,0,0,5.83-1.33,14,14,0,0,0,3.74-2.77,4.75,4.75,0,0,1,1.19-1,3.27,3.27,0,0,1,1.26-.18h3.24a1.3,1.3,0,0,1,1,.4,1.11,1.11,0,0,1,.22,1,9,9,0,0,1-2.88,3.78,22.56,22.56,0,0,1-14.69,5.36Q487.49,765.9,484.07,762.41Zm24.59-18.61,0.07-.22a16.41,16.41,0,0,0,.36-3.17,8.4,8.4,0,0,0-2.09-6,7.69,7.69,0,0,0-5.9-2.23,11.27,11.27,0,0,0-8,3.17,15.43,15.43,0,0,0-4.43,8.21v0.22h20Z"/><path class="cls-19" d="M526.19,764.46a10.85,10.85,0,0,1-4.32-3.35,6.26,6.26,0,0,1-1.33-3.49,1.89,1.89,0,0,1,.61-1.44,1.84,1.84,0,0,1,1.26-.58h3a1.39,1.39,0,0,1,.68.14,1.34,1.34,0,0,1,.47.65,10.5,10.5,0,0,0,3.13,3.2,9.87,9.87,0,0,0,5.22,1.12,13.62,13.62,0,0,0,6.55-1.44,6,6,0,0,0,3.24-4.18,9.54,9.54,0,0,0,.14-1.08,3.44,3.44,0,0,0-2.16-3.13,39.44,39.44,0,0,0-7.92-2.48q-5-1.22-7.24-3.24a6.47,6.47,0,0,1-2.2-5,17.24,17.24,0,0,1,.29-2.45,11.51,11.51,0,0,1,2.7-5.18,15.81,15.81,0,0,1,5.58-4,18.83,18.83,0,0,1,7.78-1.55,16.07,16.07,0,0,1,7.34,1.48,10,10,0,0,1,4.1,3.46,4.76,4.76,0,0,1,.94,3.35,1.74,1.74,0,0,1-.61,1.19,1.86,1.86,0,0,1-1.26.47h-2.81a1.25,1.25,0,0,1-1.22-.79,23.9,23.9,0,0,0-1.66-2.16,5.29,5.29,0,0,0-2.09-1.26,11.12,11.12,0,0,0-3.82-.54,10.08,10.08,0,0,0-5.72,1.48,6.36,6.36,0,0,0-2.77,3.92,6,6,0,0,0-.14,1.08,3.34,3.34,0,0,0,2,2.88,29.28,29.28,0,0,0,7.31,2.38q5.54,1.22,8,3.38a6.83,6.83,0,0,1,2.45,5.33,12.93,12.93,0,0,1-.22,2.23,12.49,12.49,0,0,1-5.72,7.88q-4.72,3.13-12,3.13A17.5,17.5,0,0,1,526.19,764.46Z"/><path class="cls-19" d="M565.65,763.2a7.28,7.28,0,0,1-2.27-5.8,23.73,23.73,0,0,1,.58-4.82l4.1-19.3h-5.62a1.44,1.44,0,0,1-1.12-.43,1.25,1.25,0,0,1-.25-1.15l0.5-2.3a2.07,2.07,0,0,1,2-1.66h5.62l2.59-12a2.07,2.07,0,0,1,.68-1.19,1.87,1.87,0,0,1,1.26-.47h3.1a1.37,1.37,0,0,1,1.15.47,1.42,1.42,0,0,1,.22,1.19l-2.59,12h8.93a1.33,1.33,0,0,1,1.08.43,1.44,1.44,0,0,1,.22,1.22l-0.5,2.3a1.9,1.9,0,0,1-.68,1.15,2,2,0,0,1-1.26.43h-8.93l-4,18.79a22.71,22.71,0,0,0-.65,4.25,3,3,0,0,0,.9,2.38,4.77,4.77,0,0,0,3.13.79h4.75a1.18,1.18,0,0,1,1,.47,1.5,1.5,0,0,1,.18,1.19l-0.5,2.38a2.07,2.07,0,0,1-.68,1.19,1.86,1.86,0,0,1-1.26.47h-4.18Q567.92,765.18,565.65,763.2Z"/><path class="cls-19" d="M612.52,762.41a12.2,12.2,0,0,1-3.71-9.32,20.33,20.33,0,0,1,.36-3.53,42,42,0,0,1,1.3-6.19,22.8,22.8,0,0,1,6.88-11.92q5-4.43,12.92-4.43,6.77,0,10.44,3.53a12.47,12.47,0,0,1,3.67,9.43,18.2,18.2,0,0,1-.29,3.38q-0.65,3.53-1.37,6.19a22.81,22.81,0,0,1-6.88,11.92q-5,4.43-12.92,4.43Q616.23,765.9,612.52,762.41Zm18.86-4.82a15.4,15.4,0,0,0,4.86-8.39q0.29-1.15,1.15-5.47a19.91,19.91,0,0,0,.36-3.38,8.09,8.09,0,0,0-2-5.9,7.77,7.77,0,0,0-5.8-2,12.27,12.27,0,0,0-8.17,3,15.19,15.19,0,0,0-4.79,8.35,41,41,0,0,0-1.22,5.47,19.68,19.68,0,0,0-.29,3.38q0,7.92,7.7,7.92A12.36,12.36,0,0,0,631.38,757.59Z"/><path class="cls-19" d="M653.88,764.72a1.4,1.4,0,0,1-.22-1.19l6.41-30.24H654a1.44,1.44,0,0,1-1.12-.43,1.25,1.25,0,0,1-.25-1.15l0.5-2.3a2.07,2.07,0,0,1,.68-1.19,2,2,0,0,1,1.33-.47h6.12l0.79-3.6a16.35,16.35,0,0,1,4.79-9,13.43,13.43,0,0,1,9.4-3.24H681a1.33,1.33,0,0,1,1.08.43,1.44,1.44,0,0,1,.22,1.22l-0.5,2.3a1.85,1.85,0,0,1-.72,1.15,2.11,2.11,0,0,1-1.3.43h-3.67a7.26,7.26,0,0,0-5.18,1.76,9.74,9.74,0,0,0-2.59,5.29l-0.72,3.24h9.29a1.33,1.33,0,0,1,1.08.43,1.44,1.44,0,0,1,.22,1.22l-0.5,2.3a1.9,1.9,0,0,1-.68,1.15,2,2,0,0,1-1.26.43h-9.29l-6.41,30.24a2.07,2.07,0,0,1-.68,1.19,1.86,1.86,0,0,1-1.26.47H655A1.28,1.28,0,0,1,653.88,764.72Z"/><path class="cls-19" d="M696.8,764.72a1.41,1.41,0,0,1-.22-1.19l0.5-2.16a5.22,5.22,0,0,1,2.45-3.17l19-15.62a58.57,58.57,0,0,0,8.93-7.42,13.52,13.52,0,0,0,3.31-6.12,11.31,11.31,0,0,0,.29-2.59,6,6,0,0,0-2-4.79,8.59,8.59,0,0,0-5.72-1.69,11.27,11.27,0,0,0-7.34,2.52,14.48,14.48,0,0,0-4.54,6.77,2.84,2.84,0,0,1-1,1.22,2.23,2.23,0,0,1-1.22.43H705.8a1.29,1.29,0,0,1-1-.4,1.1,1.1,0,0,1-.22-1,20.79,20.79,0,0,1,10.55-13.21,20.06,20.06,0,0,1,9.54-2.27q6.84,0,10.15,3.1a10.71,10.71,0,0,1,3.31,8.21,15.73,15.73,0,0,1-.36,3.6,18.89,18.89,0,0,1-3.92,8.14,44.7,44.7,0,0,1-8.6,7.7l-17.14,14.4h22.61a1.33,1.33,0,0,1,1.08.43,1.44,1.44,0,0,1,.22,1.22l-0.5,2.74a1.94,1.94,0,0,1-.76,1.19,2.15,2.15,0,0,1-1.33.47H697.88A1.27,1.27,0,0,1,696.8,764.72Z"/><path class="cls-19" d="M747.48,762.34q-3.89-3.56-3.89-10.55a32.36,32.36,0,0,1,.58-5.54q1.08-6.33,2.66-12.6,2.38-9.79,7.7-14.69t13.9-4.9q7.27,0,11.2,3.64t3.92,10.62a27.89,27.89,0,0,1-.5,5.33q-1.08,6.34-2.66,12.6-2.45,9.94-7.74,14.8t-13.93,4.86Q751.37,765.9,747.48,762.34Zm20.66-5.8q3.6-3.38,5.4-10.66,1.51-6,2.52-11.88a36,36,0,0,0,.58-5.69q0-4.32-2-6.34t-6.41-2a12.92,12.92,0,0,0-9.22,3.38q-3.6,3.39-5.33,10.66-1.44,5.54-2.59,11.88a35.6,35.6,0,0,0-.58,5.62q0,4.39,2,6.41t6.48,2A12.82,12.82,0,0,0,768.15,756.54Z"/><path class="cls-19" d="M801.3,764.72a1.34,1.34,0,0,1-.25-1.19l8.5-40-13.68,9a2.15,2.15,0,0,1-1.15.43,1.2,1.2,0,0,1-1.15-.72l-1.44-2.59a1.29,1.29,0,0,1-.22-0.65,2,2,0,0,1,1.08-1.66l18.29-12.1a4.83,4.83,0,0,1,.83-0.4,2.94,2.94,0,0,1,.9-0.11h3.53a1.44,1.44,0,0,1,1.12.43,1.36,1.36,0,0,1,.25,1.22l-10.08,47.09a2.07,2.07,0,0,1-.68,1.19,1.86,1.86,0,0,1-1.26.47h-3.46A1.38,1.38,0,0,1,801.3,764.72Z"/><path class="cls-19" d="M827.69,764.28a12.13,12.13,0,0,1-5.22-4.36,11,11,0,0,1-1.76-6.12,15.06,15.06,0,0,1,.14-1.66,1.48,1.48,0,0,1,.58-1,1.81,1.81,0,0,1,1.15-.4h3.53a1.4,1.4,0,0,1,1.66,1.58,6.18,6.18,0,0,0,2.23,5.76A10.19,10.19,0,0,0,836.4,760a14.51,14.51,0,0,0,9-3,13.34,13.34,0,0,0,5-8.24,15.72,15.72,0,0,0,.36-3,6.89,6.89,0,0,0-2.34-5.62,10,10,0,0,0-6.59-1.94,13,13,0,0,0-4.46.68,20.26,20.26,0,0,0-3.82,1.91q-1.15.65-1.87,1a3.49,3.49,0,0,1-1.44.32h-3.46a1.24,1.24,0,0,1-1.08-.5,1.21,1.21,0,0,1-.14-1.15l7.34-23.9a2.41,2.41,0,0,1,.79-1.33,2.1,2.1,0,0,1,1.37-.47H860a1.28,1.28,0,0,1,1.08.47,1.62,1.62,0,0,1,.29,1.19l-0.65,2.66a1.9,1.9,0,0,1-.68,1.15,2,2,0,0,1-1.26.43H838.06l-4.46,14.47a18.27,18.27,0,0,1,3.89-1.73,18.87,18.87,0,0,1,5.69-.72,16,16,0,0,1,10.51,3.38,11.39,11.39,0,0,1,4.1,9.29,17.3,17.3,0,0,1-.36,3.67q-1.66,8.14-7.24,12.49t-14,4.36A20,20,0,0,1,827.69,764.28Z"/><path class="cls-19" d="M209.5,844.46a12.34,12.34,0,0,1-4.72-3.89,9,9,0,0,1-1.76-5.4,9.45,9.45,0,0,1,3.85-7.78,21,21,0,0,1,10.4-3.89l11.38-1.58v-2.52a7.68,7.68,0,0,0-2.41-6.08q-2.41-2.12-7.38-2.12a11.32,11.32,0,0,0-6,1.44,6.48,6.48,0,0,0-3,3.46,2.59,2.59,0,0,1-.68,1.19,1.6,1.6,0,0,1-1,.32h-1a1.6,1.6,0,0,1-1.58-1.58,6.93,6.93,0,0,1,1.44-3.71,11.92,11.92,0,0,1,4.46-3.71,15.83,15.83,0,0,1,7.42-1.58q7.7,0,10.94,3.67a13,13,0,0,1,3.24,8.93v24a1.49,1.49,0,0,1-1.58,1.58h-1.22a1.49,1.49,0,0,1-1.58-1.58v-3.38a12.67,12.67,0,0,1-4.64,4,17,17,0,0,1-8.1,1.66A14.42,14.42,0,0,1,209.5,844.46Zm15.77-6.19q3.38-3.46,3.38-9.94v-2.45l-9.29,1.3q-5.9.79-8.93,2.74a5.77,5.77,0,0,0-.25,10A12.49,12.49,0,0,0,225.27,838.27Z"/><path class="cls-19" d="M246.66,844.75a1.55,1.55,0,0,1-.43-1.15V809.33a1.49,1.49,0,0,1,1.58-1.58H249a1.49,1.49,0,0,1,1.58,1.58v3.38a14.92,14.92,0,0,1,4.93-4.25,15.53,15.53,0,0,1,7.16-1.44q7.06,0,10.87,4.5t3.82,11.63V843.6a1.49,1.49,0,0,1-1.58,1.58h-1.22A1.49,1.49,0,0,1,273,843.6V823.51q0-5.83-2.84-9.07T262,811.2a10.86,10.86,0,0,0-8.28,3.28q-3.1,3.28-3.1,9V843.6a1.49,1.49,0,0,1-1.58,1.58h-1.22A1.56,1.56,0,0,1,246.66,844.75Z"/><path class="cls-19" d="M292.56,840.83a21.48,21.48,0,0,1-3.92-12.35l-0.07-2,0.07-2a21.48,21.48,0,0,1,3.92-12.35Q296.26,807,304,807t12.1,5.69V795.65a1.49,1.49,0,0,1,1.58-1.58h1.22a1.49,1.49,0,0,1,1.58,1.58v48a1.49,1.49,0,0,1-1.58,1.58h-1.22a1.49,1.49,0,0,1-1.58-1.58v-3.38Q312,845.9,304,845.9T292.56,840.83ZM313,837.95a15.37,15.37,0,0,0,3.1-8.89q0.07-.72.07-2.81t-0.07-2.81a14.52,14.52,0,0,0-1.37-5.87,11.35,11.35,0,0,0-3.89-4.57,11,11,0,0,0-6.41-1.8q-5.83,0-8.53,3.71a16.91,16.91,0,0,0-2.92,9.54l-0.07,2a21,21,0,0,0,2.59,11q2.59,4.28,8.93,4.28Q310.16,841.73,313,837.95Z"/><path class="cls-19" d="M351,844.72a1.41,1.41,0,0,1-.22-1.19l9.94-47a2,2,0,0,1,.72-1.26,2,2,0,0,1,1.3-.47h19.44q6.12,0,9.61,3a9.53,9.53,0,0,1,3.49,7.63A11.67,11.67,0,0,1,395,808a14.37,14.37,0,0,1-3.31,6.95,14.73,14.73,0,0,1-5.18,3.71,11,11,0,0,1,3.67,3.74,10.39,10.39,0,0,1,1.37,5.4,13.63,13.63,0,0,1-.29,2.81,19.13,19.13,0,0,1-6,10.51q-4.57,4-12.64,4H352.06A1.28,1.28,0,0,1,351,844.72Zm21.46-5.22a12.32,12.32,0,0,0,7.74-2.52,10.5,10.5,0,0,0,4.07-6.34,11.35,11.35,0,0,0,.29-2.59q0-6.26-8.21-6.26H362.14L358.4,839.5h14Zm4-23.33A13,13,0,0,0,384.1,814a9.29,9.29,0,0,0,3.89-5.9,14.66,14.66,0,0,0,.29-2.23q0-5.4-7.56-5.4h-14l-3.38,15.7h13.1Z"/><path class="cls-19" d="M405.38,842.41q-3.42-3.49-3.42-9.76a24.14,24.14,0,0,1,.29-3.82q0.36-2.16,1-4.82a24.47,24.47,0,0,1,7.52-12.38A18.87,18.87,0,0,1,423.49,807q6.48,0,9.9,3.46t3.42,9.65a26.93,26.93,0,0,1-.65,5.62l-0.29,1.3a1.94,1.94,0,0,1-.76,1.19,2.14,2.14,0,0,1-1.33.47H408.87l-0.14.65a15.73,15.73,0,0,0-.22,2.59,9.56,9.56,0,0,0,2,6.23,7,7,0,0,0,5.76,2.48,12,12,0,0,0,5.83-1.33,14,14,0,0,0,3.74-2.77,4.75,4.75,0,0,1,1.19-1,3.27,3.27,0,0,1,1.26-.18h3.24a1.3,1.3,0,0,1,1,.4,1.11,1.11,0,0,1,.22,1,9,9,0,0,1-2.88,3.78,22.56,22.56,0,0,1-14.69,5.36Q408.8,845.9,405.38,842.41ZM430,823.8l0.07-.22a16.41,16.41,0,0,0,.36-3.17,8.4,8.4,0,0,0-2.09-6,7.69,7.69,0,0,0-5.9-2.23,11.27,11.27,0,0,0-8,3.17,15.43,15.43,0,0,0-4.43,8.21v0.22h20Z"/><path class="cls-19" d="M447.5,844.46a10.85,10.85,0,0,1-4.32-3.35,6.26,6.26,0,0,1-1.33-3.49,1.89,1.89,0,0,1,.61-1.44,1.84,1.84,0,0,1,1.26-.58h3a1.39,1.39,0,0,1,.68.14,1.34,1.34,0,0,1,.47.65,10.5,10.5,0,0,0,3.13,3.2,9.87,9.87,0,0,0,5.22,1.12,13.62,13.62,0,0,0,6.55-1.44A6,6,0,0,0,466,835.1a9.54,9.54,0,0,0,.14-1.08,3.44,3.44,0,0,0-2.16-3.13,39.44,39.44,0,0,0-7.92-2.48q-5-1.22-7.24-3.24a6.47,6.47,0,0,1-2.2-5,17.24,17.24,0,0,1,.29-2.45,11.51,11.51,0,0,1,2.7-5.18,15.81,15.81,0,0,1,5.58-4A18.83,18.83,0,0,1,463,807a16.07,16.07,0,0,1,7.34,1.48,10,10,0,0,1,4.1,3.46,4.76,4.76,0,0,1,.94,3.35,1.74,1.74,0,0,1-.61,1.19,1.86,1.86,0,0,1-1.26.47h-2.81a1.25,1.25,0,0,1-1.22-.79,23.9,23.9,0,0,0-1.66-2.16,5.29,5.29,0,0,0-2.09-1.26,11.12,11.12,0,0,0-3.82-.54,10.08,10.08,0,0,0-5.72,1.48,6.36,6.36,0,0,0-2.77,3.92,6,6,0,0,0-.14,1.08,3.34,3.34,0,0,0,2,2.88,29.28,29.28,0,0,0,7.31,2.38q5.54,1.22,8,3.38a6.83,6.83,0,0,1,2.45,5.33,12.93,12.93,0,0,1-.22,2.23,12.49,12.49,0,0,1-5.72,7.88q-4.72,3.13-12,3.13A17.5,17.5,0,0,1,447.5,844.46Z"/><path class="cls-19" d="M487,843.2a7.28,7.28,0,0,1-2.27-5.8,23.73,23.73,0,0,1,.58-4.82l4.1-19.3h-5.62a1.44,1.44,0,0,1-1.12-.43,1.25,1.25,0,0,1-.25-1.15l0.5-2.3a2.07,2.07,0,0,1,2-1.66h5.62l2.59-12a2.07,2.07,0,0,1,.68-1.19,1.87,1.87,0,0,1,1.26-.47h3.1a1.37,1.37,0,0,1,1.15.47,1.42,1.42,0,0,1,.22,1.19l-2.59,12h8.93a1.33,1.33,0,0,1,1.08.43,1.44,1.44,0,0,1,.22,1.22l-0.5,2.3a1.9,1.9,0,0,1-.68,1.15,2,2,0,0,1-1.26.43h-8.93l-4,18.79a22.71,22.71,0,0,0-.65,4.25,3,3,0,0,0,.9,2.38,4.77,4.77,0,0,0,3.13.79h4.75a1.18,1.18,0,0,1,1,.47,1.5,1.5,0,0,1,.18,1.19l-0.5,2.38a2.07,2.07,0,0,1-.68,1.19,1.86,1.86,0,0,1-1.26.47h-4.18Q489.22,845.18,487,843.2Z"/><path class="cls-19" d="M533.82,842.41a12.2,12.2,0,0,1-3.71-9.32,20.33,20.33,0,0,1,.36-3.53,42,42,0,0,1,1.3-6.19,22.8,22.8,0,0,1,6.88-11.92q5-4.43,12.92-4.43,6.77,0,10.44,3.53a12.47,12.47,0,0,1,3.67,9.43,18.2,18.2,0,0,1-.29,3.38q-0.65,3.53-1.37,6.19a22.81,22.81,0,0,1-6.88,11.92q-5,4.43-12.92,4.43Q537.53,845.9,533.82,842.41Zm18.86-4.82a15.4,15.4,0,0,0,4.86-8.39q0.29-1.15,1.15-5.47a19.91,19.91,0,0,0,.36-3.38,8.09,8.09,0,0,0-2-5.9,7.77,7.77,0,0,0-5.8-2,12.27,12.27,0,0,0-8.17,3,15.19,15.19,0,0,0-4.79,8.35,41,41,0,0,0-1.22,5.47,19.68,19.68,0,0,0-.29,3.38q0,7.92,7.7,7.92A12.36,12.36,0,0,0,552.69,837.59Z"/><path class="cls-19" d="M575.19,844.72a1.4,1.4,0,0,1-.22-1.19l6.41-30.24h-6.12a1.44,1.44,0,0,1-1.12-.43,1.25,1.25,0,0,1-.25-1.15l0.5-2.3a2.07,2.07,0,0,1,.68-1.19,2,2,0,0,1,1.33-.47h6.12l0.79-3.6a16.35,16.35,0,0,1,4.79-9,13.43,13.43,0,0,1,9.4-3.24h4.82a1.33,1.33,0,0,1,1.08.43,1.44,1.44,0,0,1,.22,1.22l-0.5,2.3a1.85,1.85,0,0,1-.72,1.15,2.11,2.11,0,0,1-1.3.43h-3.67a7.26,7.26,0,0,0-5.18,1.76,9.74,9.74,0,0,0-2.59,5.29l-0.72,3.24h9.29a1.33,1.33,0,0,1,1.08.43,1.44,1.44,0,0,1,.22,1.22l-0.5,2.3a1.9,1.9,0,0,1-.68,1.15,2,2,0,0,1-1.26.43h-9.29l-6.41,30.24a2.07,2.07,0,0,1-.68,1.19,1.86,1.86,0,0,1-1.26.47h-3.17A1.28,1.28,0,0,1,575.19,844.72Z"/><path class="cls-19" d="M618.1,844.72a1.41,1.41,0,0,1-.22-1.19l0.5-2.16a5.22,5.22,0,0,1,2.45-3.17l19-15.62a58.57,58.57,0,0,0,8.93-7.42,13.52,13.52,0,0,0,3.31-6.12,11.31,11.31,0,0,0,.29-2.59,6,6,0,0,0-2-4.79,8.59,8.59,0,0,0-5.72-1.69,11.27,11.27,0,0,0-7.34,2.52,14.48,14.48,0,0,0-4.54,6.77,2.84,2.84,0,0,1-1,1.22,2.23,2.23,0,0,1-1.22.43H627.1a1.29,1.29,0,0,1-1-.4,1.1,1.1,0,0,1-.22-1,20.79,20.79,0,0,1,10.55-13.21A20.06,20.06,0,0,1,646,794q6.84,0,10.15,3.1a10.71,10.71,0,0,1,3.31,8.21,15.73,15.73,0,0,1-.36,3.6,18.89,18.89,0,0,1-3.92,8.14,44.7,44.7,0,0,1-8.6,7.7l-17.14,14.4H652a1.33,1.33,0,0,1,1.08.43,1.44,1.44,0,0,1,.22,1.22l-0.5,2.74a1.94,1.94,0,0,1-.76,1.19,2.15,2.15,0,0,1-1.33.47H619.18A1.27,1.27,0,0,1,618.1,844.72Z"/><path class="cls-19" d="M668.79,842.34q-3.89-3.56-3.89-10.55a32.36,32.36,0,0,1,.58-5.54q1.08-6.33,2.66-12.6,2.38-9.79,7.7-14.69t13.9-4.9q7.27,0,11.2,3.64t3.92,10.62a27.89,27.89,0,0,1-.5,5.33q-1.08,6.34-2.66,12.6-2.45,9.94-7.74,14.8T680,845.9Q672.68,845.9,668.79,842.34Zm20.66-5.8q3.6-3.38,5.4-10.66,1.51-6,2.52-11.88a36,36,0,0,0,.58-5.69q0-4.32-2-6.34t-6.41-2a12.92,12.92,0,0,0-9.22,3.38q-3.6,3.39-5.33,10.66-1.44,5.54-2.59,11.88a35.6,35.6,0,0,0-.58,5.62q0,4.39,2,6.41t6.48,2A12.82,12.82,0,0,0,689.45,836.54Z"/><path class="cls-19" d="M722.61,844.72a1.34,1.34,0,0,1-.25-1.19l8.5-40-13.68,9A2.15,2.15,0,0,1,716,813a1.2,1.2,0,0,1-1.15-.72l-1.44-2.59a1.29,1.29,0,0,1-.22-0.65,2,2,0,0,1,1.08-1.66l18.29-12.1a4.83,4.83,0,0,1,.83-0.4,2.94,2.94,0,0,1,.9-0.11h3.53a1.44,1.44,0,0,1,1.12.43,1.36,1.36,0,0,1,.25,1.22l-10.08,47.09a2.07,2.07,0,0,1-.68,1.19,1.86,1.86,0,0,1-1.26.47h-3.46A1.38,1.38,0,0,1,722.61,844.72Z"/><path class="cls-19" d="M747.81,842.12a12.74,12.74,0,0,1-4-9.68,17.58,17.58,0,0,1,.43-3.82q1.3-6.19,7.78-13.25l17.86-19.15a8.73,8.73,0,0,1,1.26-1.08,2.49,2.49,0,0,1,1.4-.36h3.53a1,1,0,0,1,.94.47,1.46,1.46,0,0,1,.14,1.12,1.58,1.58,0,0,1-.25.61,3.27,3.27,0,0,1-.25.32L763,812a19.94,19.94,0,0,1,4.32-.43,16.1,16.1,0,0,1,7.74,1.76,12.12,12.12,0,0,1,5,4.79,13.63,13.63,0,0,1,1.69,6.77,17,17,0,0,1-.43,3.67,21.11,21.11,0,0,1-4,8.6,21.9,21.9,0,0,1-7.74,6.37,22.8,22.8,0,0,1-10.4,2.38Q751.8,845.9,747.81,842.12Zm21.46-5.18a13.55,13.55,0,0,0,5.15-8.32,11.65,11.65,0,0,0,.29-2.66,7.87,7.87,0,0,0-2.7-6.37,10.33,10.33,0,0,0-6.88-2.27,14.43,14.43,0,0,0-8.86,3,13.31,13.31,0,0,0-5.11,8.28,13.58,13.58,0,0,0-.29,2.81,7.72,7.72,0,0,0,2.66,6.26,10.29,10.29,0,0,0,6.84,2.23A14.5,14.5,0,0,0,769.26,836.94Z"/><path class="cls-19" d="M791.4,844.75a1.55,1.55,0,0,1-.43-1.15v-3.46a1.69,1.69,0,0,1,.43-1.19,1.49,1.49,0,0,1,1.15-.47H796a1.6,1.6,0,0,1,1.66,1.66v3.46a1.49,1.49,0,0,1-.47,1.15,1.68,1.68,0,0,1-1.19.43h-3.46A1.56,1.56,0,0,1,791.4,844.75Z"/></g></g></svg>