<?xml version="1.0" encoding="utf-8"?>
<!-- Generator: Adobe Illustrator 23.0.2, SVG Export Plug-In . SVG Version: 6.00 Build 0)  -->
<svg version="1.1" id="Camada_1" xmlns="http://www.w3.org/2000/svg" xmlns:xlink="http://www.w3.org/1999/xlink" x="0px" y="0px"
	 viewBox="0 0 840.9 299.3" style="enable-background:new 0 0 840.9 299.3;" xml:space="preserve">
<style type="text/css">
	.st0{display:none;}
	.st1{display:inline;}
	.st2{fill:#34373D;}
	.st3{fill:#FFFFFF;}
</style>
<g id="Layer_14_copy_2" class="st0">
	<g class="st1">
		<path class="st2" d="M62.9,32.2c-1.4,0-2.5-0.2-3.3-0.5c-0.8-0.4-1.7-1-2.7-1.9c-0.2-0.2-0.9-0.9-2-2.1s-2.9-2.2-5.3-3.1
			c-2.4-0.9-5.2-1.4-8.3-1.4c-4.4,0-6.2,0.7-8.6,1.8c-2.4,1-4,3-4,5.8c0,1.9,0.8,3.5,2.5,4.6s4.2,2.1,7.7,3s7.7,2.2,16.3,3.9
			c11,2.2,19.1,5.7,24.2,10.5c5.2,4.8,7.7,11.6,7.7,20.4c0,6.4-1.9,12-5.8,16.8c-3.8,4.8-9.2,8.5-16.1,11.1S52.3,105,43.6,105
			c-8.4,0-14.3-1.5-21.1-4.4S10.2,93.9,6.3,89.2C2.5,84.6,0,79.8,0,74.8v-2.6h21.7c2,0,3.6,0.4,4.8,1.6c0.7,0.7,1.1,0.9,2.3,2.3
			c1.3,1.4,3.2,2.7,5.8,3.8c2.6,1.1,5.6,1.7,9.1,1.7c12.1,0,18.1-2.6,18.1-7.7c0-1.7-0.9-3-2.6-4.2c-1.7-1.1-4.1-2.1-7.2-2.8
			c-3.1-0.8-8.1-1.9-14.9-3.4l-6.6-1.3c-9.9-2.1-15.5-5.7-20.2-10.7s-7-11.7-7-20.1c0-5.6,1.7-10.9,5.1-15.7
			C11.9,11,16.8,7.2,23,4.3C29.3,1.4,33.8,0,42,0c7.9,0,15.1,1.5,21.6,4.5s11.5,8,13.7,11.2c5.1,7.3,5.2,12.8,5.2,16.6
			C80,32.2,62.9,32.2,62.9,32.2z M583.5,79.2H531v26h52.5c3.6,0,7.5-3.2,7.5-6.8V79.2H583.5z"/>
		<path class="st2" d="M551,0.2h-20v105h20c3.6,0,7-3.2,7-6.8V6.6C558,2.9,554.6,0.2,551,0.2z M455.8,0.2H436v105h19.8
			c3.6,0,7.2-3.2,7.2-6.8V6.6C463,2.9,459.4,0.2,455.8,0.2z"/>
		<path class="st2" d="M436,71.2h43.5c13,0,23.2-3.4,30.5-9.4s11-15,11-26.5s-3.7-20.2-11-26.2c-7.4-5.9-17.5-8.9-30.5-8.9H436v23
			h44.5c4.4,0,7.9,1,10.6,2.9s4,4.9,4,8.9s-1.3,7.2-4,9.1c-2.7,2-6.2,3-10.6,3H436V71.2z M261.7,5.2c6.6,3.5,11.7,8.2,15.3,14.2
			c3.6,6,5.6,12.7,6,20.1c0.2,2.7,0.2,23.3,0,26c-0.4,7.4-2.4,14.1-6,20.1s-8.7,10.7-15.3,14.2c-6.6,3.5-12.8,5.2-21.9,5.2
			c-9.1,0-15.3-1.7-21.9-5.2c-6.6-3.5-11.7-8.2-15.3-14.2s-5.6-12.7-6-20.1c-0.2-5.2-0.2-20.5,0-26c0.4-7.4,2.4-14.1,6-20.1
			s8.7-10.7,15.3-14.2S230.7,0,239.8,0C249,0,255.1,1.7,261.7,5.2z M251.8,30c-2.8-2.8-6.7-4.2-11.9-4.2s-9.2,1.4-11.9,4.2
			c-2.8,2.8-4.4,6.6-4.8,11.3c-0.3,2.9-0.3,19.2,0,22.4c0.4,4.7,2,8.5,4.8,11.3s6.7,4.2,11.9,4.2s9.2-1.4,11.9-4.2
			c2.8-2.8,4.4-6.6,4.8-11.3c0.3-3.2,0.3-19.5,0-22.4C256.1,36.6,254.5,32.8,251.8,30z M120,0.2h-20v4.5l58.2,100.5H178
			c3.6,0,7.2-3.3,5.4-6.7l-53-91.8C128.4,3.1,123.7,0.2,120,0.2z"/>
		<path class="st2" d="M119.7,0.2H100v105h20.1c3.6,0,6.6-3,6.6-6.7V6C126.7,2.6,124.1,0.2,119.7,0.2z M177.8,0.2H158v105h20
			c3.6,0,6-3.2,6-6.8V6.6C184,2.9,181.4,0.2,177.8,0.2z M665.9,5.2c6.6,3.5,11.7,8.2,15.3,14.2s5.6,12.7,6,20.1
			c0.2,2.7,0.2,23.3,0,26c-0.4,7.4-2.4,14.1-6,20.1s-8.7,10.7-15.3,14.2S653.1,105,644,105c-9.1,0-15.3-1.7-21.9-5.2
			c-6.6-3.5-11.7-8.2-15.3-14.2s-5.6-12.7-6-20.1c-0.2-5.2-0.2-20.5,0-26c0.4-7.4,2.4-14.1,6-20.1s8.7-10.7,15.3-14.2
			C628.8,1.7,634.9,0,644,0S659.3,1.7,665.9,5.2z M655.9,30c-2.8-2.8-6.7-4.2-11.9-4.2s-9.2,1.4-11.9,4.2c-2.8,2.8-4.4,6.6-4.8,11.3
			c-0.3,2.9-0.3,19.2,0,22.4c0.4,4.7,2,8.5,4.8,11.3s6.7,4.2,11.9,4.2s9.2-1.4,11.9-4.2c2.8-2.8,4.4-6.6,4.8-11.3
			c0.3-3.2,0.3-19.5,0-22.4C660.3,36.6,658.7,32.8,655.9,30z"/>
		<g>
			<path class="st2" d="M774.8,0.2h-19.6L698,100v5.2h19c3.6,0,8.3-3,10.4-6.7L780.2,7C782.3,3.5,778.4,0.2,774.8,0.2z M835.3,0.2
				h-22.4L755,100v5.2h19.8c3.6,0,8.3-3,10.4-6.7l53-91.8C840.3,3.1,838.9,0.2,835.3,0.2z"/>
			<path class="st2" d="M717,0.2h-19v105h19c3.6,0,7-3.2,7-6.8V6.6C724,2.9,720.6,0.2,717,0.2z M774.8,0.2H755v105h19.8
				c3.6,0,7.2-3.2,7.2-6.8V6.6C782,2.9,778.4,0.2,774.8,0.2z"/>
		</g>
		<g>
			<path class="st2" d="M418,0.2h-19.6L366.7,100l1.3,5.2h19c3.6,0,7.6-3.2,8.7-6.8L425.2,7C426.4,3.4,421.6,0.2,418,0.2z"/>
			<path class="st2" d="M361,0.2h-19.8l26.8,105h19.8c3.6,0,6.4-3.3,5.5-6.9L369.9,6.5C368.9,2.9,364.6,0.2,361,0.2z M336.1,98.3
				c0,0-23.8-93.1-23.8-93.3c-0.8-2.8-3.4-4.8-6.4-4.8h-21.8l26.8,105h19.8C334.2,105.2,337,102,336.1,98.3L336.1,98.3z"/>
			<path class="st2" d="M360.8,0.2h-19.6L309.5,100l1.3,5.2h20.8c3,0,5.4-2.1,6.2-4.7C337.9,100.1,368,7,368,7
				C369.1,3.4,364.4,0.2,360.8,0.2z"/>
		</g>
	</g>
</g>
<g id="Layer_14_copy_3">
	<path class="st3" d="M578.9,229.1c-0.6-0.6-0.9-1.4-0.9-2.4v-98.4c0-1,0.3-1.8,0.9-2.4c0.6-0.6,1.4-0.9,2.4-0.9h2.8
		c1,0,1.8,0.3,2.4,0.9c0.6,0.6,0.9,1.4,0.9,2.4v98.4c0,1-0.3,1.8-0.9,2.4c-0.6,0.6-1.4,0.9-2.4,0.9h-2.8
		C580.3,230,579.5,229.7,578.9,229.1z M611.3,220.7c-6.9-7.2-10.6-16.8-11-29c-0.1-3-0.1-7.7-0.1-14.2s0-11.2,0.1-14.2
		c0.4-12.1,4-21.8,11-29c6.9-7.2,16.6-10.8,29.1-10.8c8.5,0,15.6,1.6,21.5,4.8c5.8,3.2,10.1,7,13,11.3c2.8,4.3,4.4,8.2,4.6,11.6v0.3
		c0,0.8-0.3,1.5-0.9,2c-0.6,0.5-1.4,0.8-2.2,0.8H673c-0.9,0-1.6-0.2-2-0.6c-0.4-0.4-0.8-1.2-1.2-2.4c-1.7-5.3-5-9.8-9.8-13.3
		c-4.9-3.6-11.4-5.4-19.6-5.4c-9.3,0-16.6,2.5-22,7.7c-5.4,5.1-8.2,13-8.6,23.8c-0.1,3-0.2,7.5-0.2,13.5s0,10.5,0.2,13.5
		c0.4,10.8,3.3,18.8,8.6,23.8c5.3,5.1,12.7,7.7,22,7.7s16.8-2.6,22.5-8c5.7-5.3,8.6-13.1,8.6-23.5v-7.7h-26.1c-1,0-1.8-0.3-2.4-1
		c-0.6-0.6-0.9-1.5-0.9-2.5v-2.1c0-1,0.3-1.8,0.9-2.5c0.6-0.6,1.4-1,2.4-1h32.1c1.1,0,1.9,0.3,2.5,0.9c0.6,0.6,0.9,1.5,0.9,2.5V191
		c0,8-1.6,15.1-4.8,21.2c-3.2,6.1-7.9,10.9-14,14.2c-6.1,3.4-13.3,5.1-21.8,5.1C627.9,231.5,618.2,227.9,611.3,220.7L611.3,220.7z
		 M693.7,229.1c-0.6-0.6-0.9-1.4-0.9-2.4v-98.4c0-1,0.3-1.8,0.9-2.4c0.6-0.6,1.4-0.9,2.4-0.9h2.8c1,0,1.8,0.3,2.4,0.9
		c0.6,0.6,0.9,1.4,0.9,2.4V221H754c1.1,0,2,0.3,2.5,0.9c0.6,0.6,0.9,1.5,0.9,2.5v2.2c0,1-0.3,1.8-1,2.4c-0.7,0.6-1.5,0.9-2.5,0.9
		H696C695.1,230,694.3,229.7,693.7,229.1L693.7,229.1z M770,221.1c-6.7-6.9-10-17.5-10-31.7v-60.9c0-1,0.3-1.8,0.9-2.5
		c0.6-0.6,1.4-1,2.4-1h2.7c1.1,0,2,0.3,2.5,0.9c0.6,0.6,0.9,1.5,0.9,2.5v61.3c0,11,2.5,19.2,7.6,24.6c5.1,5.4,12.3,8.1,21.6,8.1
		c9.2,0,16.3-2.7,21.4-8.1c5.1-5.4,7.7-13.6,7.7-24.6v-61.3c0-1.1,0.3-2,1-2.5c0.6-0.6,1.5-0.9,2.5-0.9h2.7c1,0,1.8,0.3,2.4,1
		c0.6,0.7,0.9,1.5,0.9,2.5v60.9c0,14.3-3.3,24.9-9.9,31.8c-6.6,6.9-16.2,10.3-28.6,10.3C786.2,231.5,776.6,228,770,221.1L770,221.1z
		"/>
	<g>
		<path class="st3" d="M579.4,286.3c-1.9-1.7-2.9-4.3-3-7.8v-3.2V272c0.1-3.4,1.1-6,3.1-7.8s4.6-2.7,8-2.7c3.3,0,6,0.9,8,2.7
			c2,1.8,3,4.4,3.1,7.8c0.1,1.5,0.1,2.6,0.1,3.3c0,0.7,0,1.8-0.1,3.2c-0.1,3.4-1.1,6-3.1,7.8s-4.6,2.6-8.1,2.6
			C584,288.9,581.3,288.1,579.4,286.3z M591.5,283c1-1,1.5-2.6,1.6-4.7c0.1-1.5,0.1-2.5,0.1-3.1s0-1.6-0.1-3.1
			c-0.1-2.1-0.6-3.6-1.6-4.7c-1-1-2.3-1.5-4-1.5s-3,0.5-4,1.5s-1.5,2.6-1.6,4.7v6.2c0.1,2.1,0.6,3.6,1.6,4.7c1,1,2.3,1.5,4,1.5
			S590.5,284,591.5,283z M605,288.3c-0.2-0.2-0.3-0.4-0.3-0.6V263c0-0.3,0.1-0.5,0.2-0.7c0.2-0.2,0.4-0.3,0.7-0.3h10.2
			c3.1,0,5.5,0.7,7.2,2.2c1.7,1.4,2.6,3.5,2.6,6.3c0,2.7-0.9,4.8-2.6,6.2c-1.7,1.4-4.2,2.1-7.2,2.1h-5.6v8.9c0,0.3-0.1,0.5-0.3,0.7
			s-0.4,0.2-0.7,0.2h-3.6C605.4,288.6,605.2,288.5,605,288.3L605,288.3z M615.7,274.5c1.5,0,2.6-0.3,3.4-1c0.8-0.7,1.2-1.7,1.2-3.1
			c0-1.3-0.4-2.3-1.1-3.1c-0.7-0.7-1.9-1.1-3.4-1.1h-5.5v8.3L615.7,274.5L615.7,274.5z M631.3,288.3c-0.2-0.2-0.3-0.4-0.3-0.6V263
			c0-0.3,0.1-0.5,0.2-0.7c0.2-0.2,0.4-0.3,0.7-0.3h16.8c0.3,0,0.5,0.1,0.7,0.3c0.2,0.2,0.3,0.4,0.3,0.7v2.5c0,0.3-0.1,0.5-0.3,0.7
			s-0.4,0.2-0.7,0.2h-12.5v6.7h11.6c0.3,0,0.5,0.1,0.7,0.3c0.2,0.2,0.3,0.4,0.3,0.7v2.4c0,0.3-0.1,0.5-0.3,0.7s-0.4,0.2-0.7,0.2
			h-11.6v6.9H649c0.3,0,0.5,0.1,0.7,0.2c0.2,0.2,0.3,0.4,0.3,0.7v2.6c0,0.3-0.1,0.5-0.3,0.7s-0.4,0.2-0.7,0.2h-17.1
			C631.7,288.6,631.4,288.5,631.3,288.3L631.3,288.3z M656.1,288.3c-0.2-0.2-0.3-0.4-0.3-0.6V263c0-0.3,0.1-0.5,0.2-0.7
			c0.2-0.2,0.4-0.3,0.7-0.3h3c0.5,0,0.8,0.2,1.1,0.6l10.9,16.9v-16.6c0-0.3,0.1-0.5,0.2-0.7c0.2-0.2,0.4-0.3,0.7-0.3h3.3
			c0.3,0,0.5,0.1,0.7,0.3c0.2,0.2,0.3,0.4,0.3,0.7v24.7c0,0.3-0.1,0.5-0.3,0.7s-0.4,0.3-0.6,0.3h-3c-0.5,0-0.9-0.2-1.1-0.6
			l-10.8-16.5v16.2c0,0.3-0.1,0.5-0.2,0.6c-0.2,0.2-0.4,0.3-0.7,0.3h-3.3C656.5,288.6,656.3,288.5,656.1,288.3L656.1,288.3z
			 M687.2,287.9c-1.6-0.7-2.8-1.6-3.7-2.7c-0.8-1.1-1.3-2.3-1.3-3.6c0-0.2,0.1-0.4,0.2-0.6c0.2-0.2,0.3-0.2,0.6-0.2h3.5
			c0.3,0,0.5,0.1,0.7,0.2s0.3,0.3,0.5,0.5c0.3,0.9,0.8,1.6,1.7,2.2s2.1,0.9,3.7,0.9c1.8,0,3.1-0.3,4-0.9s1.3-1.4,1.3-2.5
			c0-0.7-0.2-1.3-0.7-1.7s-1.1-0.9-2.1-1.2c-0.9-0.3-2.3-0.8-4.1-1.2c-3-0.7-5.2-1.6-6.6-2.8c-1.4-1.2-2.1-2.8-2.1-5
			c0-1.5,0.4-2.8,1.2-3.9c0.8-1.2,2-2.1,3.5-2.7c1.5-0.7,3.3-1,5.3-1c2.1,0,3.9,0.4,5.5,1.1c1.5,0.7,2.7,1.7,3.5,2.8
			s1.2,2.2,1.3,3.3c0,0.2-0.1,0.4-0.2,0.6c-0.2,0.2-0.3,0.2-0.6,0.2h-3.6c-0.6,0-0.9-0.2-1.1-0.7c-0.1-0.8-0.6-1.5-1.5-2
			s-1.9-0.8-3.2-0.8c-1.4,0-2.5,0.3-3.3,0.8s-1.2,1.3-1.2,2.3c0,0.7,0.2,1.3,0.6,1.7s1,0.9,1.9,1.2c0.9,0.3,2.1,0.7,3.8,1.2
			c2.3,0.5,4,1.1,5.4,1.7s2.3,1.4,2.9,2.4c0.6,1,1,2.2,1,3.7c0,1.6-0.5,3.1-1.3,4.3c-0.9,1.2-2.2,2.1-3.8,2.8s-3.5,1-5.7,1
			C690.8,288.9,688.9,288.6,687.2,287.9L687.2,287.9z M711.6,286.3c-1.9-1.7-2.9-4.3-3-7.8v-3.2V272c0.1-3.4,1.1-6,3.1-7.8
			s4.6-2.7,8-2.7c3.3,0,6,0.9,8,2.7c2,1.8,3,4.4,3.1,7.8c0,1.5,0.1,2.6,0.1,3.3c0,0.7,0,1.8-0.1,3.2c-0.1,3.4-1.1,6-3.1,7.8
			c-1.9,1.7-4.6,2.6-8.1,2.6C716.2,288.9,713.5,288.1,711.6,286.3z M723.7,283c1-1,1.5-2.6,1.6-4.7c0.1-1.5,0.1-2.5,0.1-3.1
			s0-1.6-0.1-3.1c-0.1-2.1-0.6-3.6-1.6-4.7c-1-1-2.3-1.5-4-1.5s-3,0.5-4,1.5s-1.5,2.6-1.6,4.7v6.2c0.1,2.1,0.6,3.6,1.6,4.7
			c1,1,2.3,1.5,4,1.5S722.7,284,723.7,283z M739.6,286.3c-1.9-1.7-2.8-4.4-2.8-7.9v-15.5c0-0.3,0.1-0.5,0.2-0.7
			c0.2-0.2,0.4-0.3,0.7-0.3h3.5c0.3,0,0.5,0.1,0.7,0.3c0.2,0.2,0.3,0.4,0.3,0.7v15.5c0,2,0.5,3.5,1.4,4.5c1,1,2.3,1.5,4,1.5
			s3.1-0.5,4-1.5c1-1,1.4-2.5,1.4-4.5v-15.5c0-0.3,0.1-0.5,0.3-0.7s0.4-0.3,0.7-0.3h3.5c0.3,0,0.5,0.1,0.7,0.3
			c0.2,0.2,0.2,0.4,0.2,0.7v15.5c0,3.5-0.9,6.2-2.8,7.9c-1.9,1.7-4.5,2.6-8,2.6S741.5,288.1,739.6,286.3L739.6,286.3z M765.5,288.3
			c-0.2-0.2-0.3-0.4-0.3-0.6V263c0-0.3,0.1-0.5,0.2-0.7c0.2-0.2,0.4-0.3,0.7-0.3h9.8c3.1,0,5.6,0.7,7.3,2.2c1.8,1.4,2.6,3.5,2.6,6.2
			c0,1.8-0.4,3.4-1.3,4.7s-2.1,2.2-3.7,2.7l5.5,9.7c0.1,0.2,0.1,0.3,0.1,0.4c0,0.2-0.1,0.4-0.2,0.6c-0.2,0.2-0.3,0.2-0.6,0.2h-3.5
			c-0.4,0-0.7-0.1-1-0.3c-0.2-0.2-0.4-0.4-0.6-0.7l-4.9-9h-5.2v9.1c0,0.3-0.1,0.5-0.3,0.6c-0.2,0.2-0.4,0.3-0.7,0.3h-3.5
			C765.9,288.6,765.7,288.5,765.5,288.3L765.5,288.3z M775.8,274.2c1.5,0,2.7-0.3,3.4-1c0.8-0.7,1.1-1.7,1.1-2.9s-0.4-2.3-1.1-3
			c-0.8-0.7-1.9-1-3.4-1h-5.3v8h5.3V274.2z M794,286.3c-1.9-1.8-2.9-4.3-3.1-7.6v-3.3V272c0.1-3.2,1.2-5.8,3.1-7.6
			c1.9-1.8,4.6-2.7,8.1-2.7c2.3,0,4.2,0.4,5.9,1.2c1.7,0.8,3,1.8,3.9,3.2c0.9,1.3,1.4,2.9,1.5,4.5v0.1c0,0.2-0.1,0.4-0.2,0.5
			c-0.2,0.1-0.3,0.2-0.6,0.2h-3.7c-0.3,0-0.5-0.1-0.7-0.2s-0.3-0.4-0.4-0.7c-0.4-1.6-1-2.7-2-3.3c-0.9-0.6-2.2-1-3.7-1
			c-3.6,0-5.5,2-5.7,6.1v6.4c0.2,4.1,2,6.1,5.7,6.1c1.5,0,2.8-0.3,3.7-1c1-0.6,1.6-1.8,2-3.3c0.1-0.4,0.2-0.6,0.4-0.7
			s0.4-0.2,0.7-0.2h3.7c0.2,0,0.4,0.1,0.6,0.2s0.2,0.3,0.2,0.6c-0.1,1.7-0.5,3.2-1.5,4.5s-2.2,2.4-3.9,3.2c-1.7,0.8-3.6,1.2-5.9,1.2
			C798.6,288.9,795.9,288,794,286.3L794,286.3z M819.3,288.3c-0.2-0.2-0.3-0.4-0.3-0.6V263c0-0.3,0.1-0.5,0.2-0.7
			c0.2-0.2,0.4-0.3,0.7-0.3h16.8c0.3,0,0.5,0.1,0.7,0.3c0.2,0.2,0.3,0.4,0.3,0.7v2.5c0,0.3-0.1,0.5-0.3,0.7s-0.4,0.2-0.7,0.2h-12.5
			v6.7h11.6c0.3,0,0.5,0.1,0.7,0.3c0.2,0.2,0.3,0.4,0.3,0.7v2.4c0,0.3-0.1,0.5-0.3,0.7s-0.4,0.2-0.7,0.2h-11.6v6.9H837
			c0.3,0,0.5,0.1,0.7,0.2c0.2,0.2,0.3,0.4,0.3,0.7v2.6c0,0.3-0.1,0.5-0.3,0.7s-0.4,0.2-0.7,0.2h-17
			C819.7,288.6,819.5,288.5,819.3,288.3L819.3,288.3z"/>
	</g>
	<g>
		<path class="st3" d="M244,0c-20.1,0-37.4,13.7-42.9,32.4c-0.9,3.6-1.8,7.3-1.8,11.4v20.1c0,4.1,0.9,7.8,1.8,11.4
			c5,18.7,22.3,32.8,42.9,32.8s37.4-13.7,42.4-32.8c0.9-3.6,1.4-7.3,1.4-11.4V43.8c0-4.1-0.5-7.8-1.4-11.4C281.4,14.1,264.5,0,244,0
			z M260.9,64.3c0,4.1-1.4,7.8-4.1,10.5c-3.2,3.6-7.8,5.9-12.8,5.9s-10-2.3-13.2-5.9c-2.3-2.7-4.6-6.4-4.6-10.5V45.1
			c0-4.6,2.3-8.7,5.5-11.9s7.3-5,11.9-5c4.6,0,8.7,1.8,11.9,5c3.2,3.2,5,7.3,5,11.9C260.9,48.8,260.9,60.7,260.9,64.3L260.9,64.3z
			 M655.4,0c-20.1,0-37.4,13.7-42.9,32.4c-0.9,3.6-1.8,7.3-1.8,11.4v20.1c0,4.1,0.9,7.8,1.8,11.4c5,18.7,22.3,32.8,42.9,32.8
			s37.4-13.7,42.4-32.8c0.9-3.6,1.4-7.3,1.4-11.4V43.8c0-4.1-0.5-7.8-1.4-11.4C692.8,14.1,675.4,0,655.4,0z M672.3,64.3
			c0,4.1-1.4,7.8-4.1,10.5c-3.2,3.6-7.8,5.9-12.8,5.9s-10-2.3-13.2-5.9c-2.3-2.7-4.1-6.4-4.1-10.5V45.1c0-4.6,2.3-8.7,5.5-11.9
			s7.3-5,11.9-5s8.7,1.8,11.9,5s5,7.3,5,11.9C671.8,48.8,672.3,60.7,672.3,64.3L672.3,64.3z M187,4.1h-27.4v46.5l-24.2-42
			c0,0-2.7-4.6-8.2-4.6H99.8v100.3h17.3c5,0,10-2.7,10-9.1V47.8l33.3,56.6h16c5,0,10-2.7,10-8.7V4.1H187L187,4.1z M565.5,81.6V4.1
			h-27.4v100.3h51.5c6.4,0,7.8-4.1,7.8-9.1V81.6H565.5L565.5,81.6z M491.2,2.7h-49.7v103.1h16c5.1,0,9.6-4.1,9.6-10.5V75.2h24.2
			c20.1,0,36-16.4,36-36S511.3,2.7,491.2,2.7L491.2,2.7z M491.2,49.3H467V28.8h24.2c5.9,0,10,4.6,10,10S496.7,49.3,491.2,49.3z
			 M334.8,105.4c6.4,0,9.1-3.6,10.5-7.8c0.5-0.9,7.8-25.1,14.6-48.8l13.7,45.6l3.2,9.6H390c4.5,0,7.8-2.3,9.1-5.5
			c0.5-0.9,0.9-0.9,0.9-1.4c0.5-1.8,27.8-93,27.8-93h-27.4l-13.7,46.1c-5.5-18.7-10.9-36.5-11.9-38.8c-1.4-4.6-5-7.3-9.1-7.3h-20.1
			L332,49.7c-5.5-18.7-10.9-36.5-11.9-38.3c-0.9-5.5-5.5-7.3-9.6-7.3h-19.6l30.6,102.2C321.5,106.3,334.8,105.4,334.8,105.4z
			 M745.7,105.4c6.4,0,9.1-3.6,10.5-7.8c0.5-0.9,7.8-25.1,14.6-48.8l13.7,45.6l3.2,9.6h13.2c4.6,0,7.8-2.3,9.1-5.5
			c0.5-0.9,0.9-0.9,0.9-1.4c0.9-1.8,28.3-93,28.3-93h-27.4l-13.7,46.1c-5.5-18.7-10.9-36.5-11.9-38.8c-1.4-4.6-5-7.3-9.1-7.3H757
			l-13.7,45.6c-5.5-18.7-10.9-36.5-11.9-38.3c-1.4-5.5-5.9-7.3-10-7.3h-19.6l30.6,102.2L745.7,105.4L745.7,105.4z M83.9,59.3
			c-2.7-4.1-7.3-7.8-12.8-10c-5-2.3-11.4-4.6-19.6-6.8c-6.4-1.8-11.4-3.2-14.6-4.6c-3.2-1.4-5.9-2.3-5.9-4.6s0.9-3.6,2.3-4.1
			c2.3-1.4,5.9-2.3,10.5-2.3c4.1,0,7.8,0.5,10,2.3c2.7,1.8,3.2,2.7,3.2,2.7h28.3v-1.4c-0.5-5-2.3-10-5.5-14.6S71.6,7.8,65.2,4.6
			C59.7,1.4,52,0,43.8,0c-7.8,0-15.1,1.4-21,3.6C16.4,6.3,11.4,10.4,8.2,15c-3.6,5-5.5,10.5-5.5,16.4c0,6.4,1.4,11.4,4.6,16
			c2.7,4.1,6.8,7.8,12.3,10.5c4.6,2.3,10.9,4.6,18.2,6.8c7.3,1.8,12.3,3.6,16,5c3.2,1.4,5,2.3,5.9,3.2c0.5,0.5,0.9,0.9,0.9,2.3
			c0,2.3-0.9,3.6-2.7,5s-5.5,2.7-13.2,2.7c-5.5,0-9.6-0.5-12.3-2.3c-1.8-1.4-3.2-4.1-4.1-4.1H0V77c0.5,5.5,2.3,11,5.9,16
			c3.6,4.6,9.1,8.2,16,11.4c6.4,2.7,14.1,4.1,22.8,4.1c12.8,0,23.3-2.7,31-8.2c8.7-5.9,12.8-14.6,12.8-25.1
			C88.9,68.9,87.1,63.4,83.9,59.3z"/>
	</g>
</g>
</svg>
