<?xml version="1.0" encoding="utf-8"?>
<!-- Generator: Adobe Illustrator 21.1.0, SVG Export Plug-In . SVG Version: 6.00 Build 0)  -->
<svg version="1.1" id="Layer_1" xmlns="http://www.w3.org/2000/svg" xmlns:xlink="http://www.w3.org/1999/xlink" x="0px" y="0px"
	 viewBox="0 0 2708.1 754.1" style="enable-background:new 0 0 2708.1 754.1;" xml:space="preserve">
<style type="text/css">
	.st0{fill:#FFFFFF;}
</style>
<g>
	<g>
		<g>
			<g>
				<path class="st0" d="M787.7,0c-65.3,0-121.3,44.6-137.9,104.6c-3.3,12-6.1,24.2-6.1,37.2c0,11.2,0,53.7,0,64.9
					c0,12.7,2.7,24.6,5.8,36.3c16.3,60.5,72.1,105.3,137.7,105.3c65.6,0,121.2-44.8,137.4-105.3c3.2-11.7,5-23.6,5-36.3
					c0-11.2,0-53.7,0-64.9c0-13.1-1.7-25.2-5.1-37.2C908,44.6,853,0,787.7,0z M841.7,206.8c0,13.2-4.8,24.9-12.8,34.2
					c-9.9,11.6-24.7,19.5-41.2,19.5c-16.5,0-32.6-7.9-42.6-19.5c-8-9.4-14.1-21-14.1-34.2c0-11.6,0-50.5,0-62.1
					c0-14.8,7.4-28.3,17.2-38s24-15.8,38.9-15.8c14.6,0,28.2,6.3,37.9,15.8c10.1,9.8,16.5,22.9,16.5,38
					C841.5,156.3,841.7,195.2,841.7,206.8z"/>
			</g>
		</g>
		<g>
			<g>
				<path class="st0" d="M2114.8,0c-65.3,0-121.2,44.6-137.8,104.6c-3.3,12-5.9,24.2-5.9,37.2c0,11.2,0,53.7,0,64.9
					c0,12.7,2.5,24.6,5.7,36.3c16.3,60.5,72,105.3,137.6,105.3c65.6,0,121.1-44.8,137.4-105.3c3.2-11.7,4.9-23.6,4.9-36.3
					c0-11.2,0-53.7,0-64.9c0-13.1-1.7-25.2-5.1-37.2C2235.1,44.6,2180.1,0,2114.8,0z M2168.8,206.8c0,13.2-4.8,24.9-12.8,34.2
					c-9.9,11.6-24.7,19.5-41.2,19.5s-32.5-7.9-42.4-19.5c-8-9.4-14-21-14-34.2c0-11.6,0-50.5,0-62.1c0-14.8,7.2-28.3,17-38
					s24-15.8,38.8-15.8c14.6,0,28.1,6.3,37.9,15.8c10.1,9.8,16.5,22.9,16.5,38C2168.6,156.3,2168.8,195.2,2168.8,206.8z"/>
			</g>
		</g>
		<g>
			<path class="st0" d="M602,7.9h-83.5v154.9L439.3,24.7c0,0-9.9-16.8-27.7-16.8c-6.3,0-83.3,0-83.3,0V340c0,0,34.8,0,51.4,0
				s31.2-13,31.2-33.3c0-11.2,0-85.4,0-152.7l108,186c0,0,51.2,0,51.8,0c16.5,0,31.3-12.7,31.3-32.6V7.9z"/>
		</g>
		<g>
			<path class="st0" d="M1826.4,257.4V7.9h-82.6V340c0,0,149.3,0,158.4,0c20.3,0,30.8-17.6,30.8-34.3c0-16.6,0-48.3,0-48.3H1826.4z"
				/>
		</g>
		<g>
			<path class="st0" d="M1584.9,7.9c-10,0-160.1,0-160.1,0V340c0,0,34.8,0,51.4,0c16.6,0,31.1-13,31.1-33.3c0-5.6,0-64.1,0-64.1
				h77.6c64.5,0,116.7-52.5,116.7-117S1649.4,7.9,1584.9,7.9z M1585,158.2h-77.7c0-22.3,0-44.5,0-65.9h77.3
				c18.5,0,32.8,14.9,32.8,32.9S1603.1,158.2,1585,158.2z"/>
		</g>
		<g>
			<path class="st0" d="M1079.6,340c20.5,0,29.2-12.1,34-24.7c1.1-2.8,24.4-81.6,46.9-157.8l44.6,149.5l10.2,33c0,0,28.3,0,43,0
				c14.7,0,25.1-10,29.6-20.1c1.4-2.7,2.5-5.4,3.3-8c1.8-5.6,89.9-303.9,89.9-303.9h-88.4l-44,150.5c-18.2-60.5-35.6-119-37.7-125.9
				c-4.4-14.9-16.6-24.7-30-24.7c-9.3,0-61.2,0-65,0c-0.2,0-0.3,0-0.3,0l-43.7,149.7c-18.3-60.2-36-118.2-37.9-125.1
				c-4.7-17-18.7-24.6-32.3-24.6c-20.4,0-62.7,0-62.7,0l99.1,331.9L1079.6,340z"/>
		</g>
		<g>
			<path class="st0" d="M2406.4,340c20.5,0,29.2-12.1,34-24.7c1.1-2.8,24.4-81.6,46.9-157.8l44.6,149.5l10.2,33c0,0,28.3,0,43,0
				s25.1-10,29.6-20.1c1.4-2.7,2.5-5.4,3.3-8c1.8-5.6,89.9-303.9,89.9-303.9h-88.4l-44,150.5c-18.2-60.5-35.6-119-37.7-125.9
				c-4.4-14.9-16.6-24.7-30-24.7c-9.3,0-61.2,0-65,0c-0.2,0-0.3,0-0.3,0L2399,157.6c-18.3-60.2-36-118.2-37.9-125.1
				c-4.7-17-18.7-24.6-32.3-24.6c-20.4,0-62.7,0-62.7,0l99.1,331.9L2406.4,340z"/>
		</g>
		<g>
			<path class="st0" d="M271.4,190.1c-9.5-13.3-23.5-24.3-41.7-32.8c-15.9-7.4-36.6-14.5-63.5-21.6c-20.8-5.8-36.6-11-47-15.3
				c-10.4-4.3-19-7.2-19-15.4c0-7.8,2.7-11.1,6.8-13.6c7.7-4.8,19.3-7.3,34.5-7.3c13.7,0,24.8,2.9,33.1,8.1
				c8.4,5.3,10.7,10.3,10.7,10.3h0.3h91.3l0-4.9c-0.8-16.1-6.9-32.2-18.2-47.4c-11-14.8-26.7-27.1-46.8-36.6
				c-19.8-9.3-43.5-14-70.3-14c-25.6,0-48.4,4.1-67.8,12.3c-20.5,8.6-36.5,20.8-47.7,36.2C14.7,63.9,8.9,81.9,8.9,101.7
				c0,20.1,4.7,37.3,14,51.2c9,13.5,22.3,24.9,39.4,33.8c15.2,7.9,34.7,15,59.5,21.7c23.1,6.5,40.5,11.9,51.7,16.2
				c10.7,4.1,16,8,18.4,10.5c1.3,1.3,2.5,3.2,2.5,7.7c0,7.3-2.4,12-8.4,16c-5.6,3.8-17.5,8.8-42.2,8.8c-17.8,0-31.6-3-39.8-8.5
				c-6.6-4.4-10.7-9.1-12.5-13.7H0.1c-0.1,0-0.1,1.3-0.1,2.2l0,0.7c0.8,18.4,7.4,35.5,19.7,51.2c11.9,15.2,29.1,27.3,51,36.2
				c20.9,8.5,45.5,12.8,73.1,12.8c41.4,0,75.2-8.9,100.6-26.6c27.4-19,41.8-46.7,41.8-80.2C286.3,221.3,281.3,204,271.4,190.1z"/>
		</g>
	</g>
	<g>
		<path class="st0" d="M1730.5,746.4c-1.9-1.9-2.9-4.5-2.9-7.7V423.8c0-3.2,1-5.8,2.9-7.7s4.5-2.9,7.7-2.9h9.1c3.2,0,5.8,1,7.7,2.9
			s2.9,4.5,2.9,7.7v314.9c0,3.2-1,5.8-2.9,7.7s-4.5,2.9-7.7,2.9h-9.1C1735,749.3,1732.5,748.3,1730.5,746.4z"/>
		<path class="st0" d="M1870.2,719.5c-22.1-23-33.8-53.9-35-92.6c-0.3-9.6-0.5-24.8-0.5-45.6c0-20.8,0.2-36,0.5-45.6
			c1.3-38.7,13-69.6,35-92.6s53.1-34.6,93.1-34.6c27.2,0,50.1,5.1,68.6,15.4c18.6,10.2,32.4,22.3,41.5,36.2s14,26.3,14.6,37.2v1
			c0,2.6-1,4.6-2.9,6.2c-1.9,1.6-4.3,2.4-7.2,2.4h-10.6c-2.9,0-5-0.6-6.2-1.9c-1.3-1.3-2.6-3.8-3.8-7.7c-5.4-17-15.9-31.2-31.4-42.7
			c-15.5-11.5-36.4-17.3-62.6-17.3c-29.8,0-53.2,8.2-70.3,24.5c-17.1,16.3-26.3,41.8-27.6,76.3c-0.3,9.6-0.5,24-0.5,43.2
			s0.2,33.6,0.5,43.2c1.3,34.6,10.5,60,27.6,76.3c17.1,16.3,40.6,24.5,70.3,24.5s53.8-8.5,72-25.4c18.2-17,27.4-42.1,27.4-75.4V600
			h-83.5c-3.2,0-5.8-1-7.7-3.1c-1.9-2.1-2.9-4.7-2.9-7.9v-6.7c0-3.2,1-5.8,2.9-7.9c1.9-2.1,4.5-3.1,7.7-3.1h102.7
			c3.5,0,6.2,1,8.2,2.9s2.9,4.6,2.9,8.2v42.2c0,25.6-5.1,48.2-15.4,67.7c-10.2,19.5-25.1,34.7-44.6,45.6
			c-19.5,10.9-42.7,16.3-69.6,16.3C1923.3,754.1,1892.3,742.6,1870.2,719.5z"/>
		<path class="st0" d="M2169.7,746.4c-1.9-1.9-2.9-4.5-2.9-7.7V423.8c0-3.2,1-5.8,2.9-7.7s4.5-2.9,7.7-2.9h9.1c3.2,0,5.8,1,7.7,2.9
			s2.9,4.5,2.9,7.7v296.6h165.6c3.5,0,6.2,1,8.2,2.9s2.9,4.6,2.9,8.2v7.2c0,3.2-1,5.8-3.1,7.7c-2.1,1.9-4.7,2.9-7.9,2.9h-185.3
			C2174.2,749.3,2171.6,748.3,2169.7,746.4z"/>
		<path class="st0" d="M2449.8,720.7c-21.3-22.2-31.9-56.1-31.9-101.5V424.3c0-3.2,1-5.8,2.9-7.9c1.9-2.1,4.5-3.1,7.7-3.1h8.6
			c3.5,0,6.2,1,8.2,2.9s2.9,4.6,2.9,8.2v196.3c0,35.2,8.2,61.4,24.5,78.7c16.3,17.3,39.4,25.9,69.1,25.9c29.4,0,52.3-8.6,68.6-25.9
			s24.5-43.5,24.5-78.7V424.3c0-3.5,1-6.2,3.1-8.2c2.1-1.9,4.7-2.9,7.9-2.9h8.6c3.2,0,5.8,1,7.7,3.1c1.9,2.1,2.9,4.7,2.9,7.9v194.9
			c0,45.8-10.6,79.7-31.7,101.8s-51.7,33.1-91.7,33.1C2501.7,754.1,2471.1,743,2449.8,720.7z"/>
	</g>
</g>
<g>
</g>
<g>
</g>
<g>
</g>
<g>
</g>
<g>
</g>
</svg>
