<svg id="Edit" xmlns="http://www.w3.org/2000/svg" viewBox="0 0 1440 1220"><defs><style>.cls-1,.cls-10,.cls-11,.cls-12,.cls-14,.cls-15,.cls-17,.cls-18,.cls-19,.cls-20,.cls-21,.cls-22,.cls-23,.cls-24,.cls-4,.cls-6,.cls-7,.cls-8,.cls-9{fill:none}.cls-1,.cls-15,.cls-16,.cls-17,.cls-18,.cls-19,.cls-20,.cls-21,.cls-22,.cls-23,.cls-24,.cls-3,.cls-4,.cls-8{stroke:#5b0098}.cls-1,.cls-10,.cls-11,.cls-12,.cls-14,.cls-15,.cls-16,.cls-17,.cls-18,.cls-19,.cls-20,.cls-21,.cls-22,.cls-23,.cls-24,.cls-3,.cls-4,.cls-6,.cls-7,.cls-8,.cls-9{stroke-linecap:round;stroke-linejoin:round}.cls-1,.cls-17,.cls-18,.cls-19,.cls-20,.cls-21,.cls-22,.cls-23,.cls-24{stroke-width:3px}.cls-1{stroke-dasharray:33.95 33.95 4.24 12.73 8.49 14.85}.cls-2{fill:#f8f1ff}.cls-13,.cls-3{fill:#fcfdff}.cls-16,.cls-3,.cls-4,.cls-6{stroke-width:5.99px}.cls-5{fill:#bb73fc}.cls-10,.cls-11,.cls-12,.cls-6,.cls-7{stroke:#bb73fc}.cls-7{stroke-width:6px}.cls-10,.cls-8,.cls-9{stroke-width:3.99px}.cls-14,.cls-9{stroke:#f88298}.cls-11,.cls-12,.cls-14,.cls-15{stroke-width:2.66px}.cls-12{stroke-opacity:.33}.cls-14,.cls-15{stroke-dasharray:19.97 9.99 0 9.99 2 9.99}.cls-16{fill:#fff;fill-opacity:.66}.cls-18{stroke-dasharray:4.1 12.29 8.2 14.34}.cls-19{stroke-dasharray:32.78 32.78 4.1 12.29 8.2 14.34}.cls-20{stroke-dasharray:2.09 6.27 4.18 7.32}.cls-21{stroke-dasharray:2.49 7.48 4.99 8.73}.cls-22{stroke-dasharray:2.84 8.51 5.67 9.93}.cls-23{stroke-dasharray:3.16 9.47 6.31 11.05}.cls-24{stroke-dasharray:2.43 7.28 4.85 8.49}</style></defs><title>Snowplow_Website-Infographics_Cases_ViewBix_Img1-01</title><path class="cls-1" d="M428.75,748.74c-8.19,0-18.24-5.8-22.34-12.9L340.93,622.4c-4.09-7.09-4.09-18.7,0-25.79l65.49-113.45c4.09-7.09,14.15-12.9,22.34-12.9h577.47c8.19,0,18.24,5.8,22.34,12.9L1094,596.6c4.09,7.09,4.09,18.7,0,25.79l-65.49,113.45c-4.09,7.09-14.15,12.9-22.34,12.9H428.75Z"/><path class="cls-2" d="M386.47,689.37c21.51,0,47.91-15.24,58.67-33.87l87.27-151.15c10.76-18.63,10.75-49.11,0-67.74L445.14,285.49c-10.76-18.63-37.16-33.87-58.67-33.87H212c-21.51,0-47.91,15.24-58.67,33.87L66,436.6c-10.76,18.63-10.76,49.11,0,67.74L153.3,655.49c10.75,18.63,37.15,33.87,58.66,33.87H386.47Z"/><path class="cls-2" d="M804.64,968.37c21.51,0,47.91-15.24,58.67-33.87l87.27-151.15c10.76-18.63,10.75-49.11,0-67.74L863.31,564.5c-10.76-18.63-37.16-33.87-58.67-33.87H630.13c-21.51,0-47.91,15.24-58.67,33.87L484.21,715.61c-10.76,18.63-10.76,49.11,0,67.74L571.47,934.5c10.75,18.63,37.15,33.87,58.66,33.87H804.64Z"/><path class="cls-3" d="M806.72,681.58a17.56,17.56,0,0,0-17.51-17.51H582.91a17.56,17.56,0,0,0-17.52,17.51V836a17.57,17.57,0,0,0,17.52,17.51h206.3A17.57,17.57,0,0,0,806.72,836V681.58Z"/><line class="cls-4" x1="565.39" y1="827.67" x2="806.72" y2="827.67"/><path class="cls-3" d="M545.42,836a17.57,17.57,0,0,0,17.52,17.51H809.18A17.57,17.57,0,0,0,826.7,836H545.42Z"/><path id="youtube-youtube" class="cls-5" d="M597.55,797.2a6.56,6.56,0,0,1-6.54,6.54h-32.7a6.56,6.56,0,0,1-6.54-6.54V778.89a6.56,6.56,0,0,1,6.54-6.54H591a6.56,6.56,0,0,1,6.54,6.54V797.2Zm-27.62-3.54,12.37-6.41-12.37-6.45v12.86Z"/><path id="twitter-twitter" class="cls-5" d="M820.2,649.87a18.76,18.76,0,0,1-5.39,1.48,9.42,9.42,0,0,0,4.13-5.2,18.8,18.8,0,0,1-6,2.28A9.4,9.4,0,0,0,797,657a26.67,26.67,0,0,1-19.36-9.81,9.4,9.4,0,0,0,2.91,12.54,9.35,9.35,0,0,1-4.25-1.17s0,0.08,0,.12a9.4,9.4,0,0,0,7.53,9.21,9.42,9.42,0,0,1-4.24.16,9.4,9.4,0,0,0,8.77,6.52,18.84,18.84,0,0,1-11.67,4,19.1,19.1,0,0,1-2.24-.13,26.58,26.58,0,0,0,14.4,4.22c17.28,0,26.73-14.31,26.73-26.73q0-.61,0-1.22A19.08,19.08,0,0,0,820.2,649.87Z"/><path class="cls-3" d="M816.54,754.63v87.11A11.61,11.61,0,0,1,805,853.3H727.33a11.61,11.61,0,0,1-11.57-11.57v-125a11.6,11.6,0,0,1,11.57-11.57H805a11.6,11.6,0,0,1,11.58,11.57v37.9Z"/><line class="cls-4" x1="770.49" y1="715.87" x2="761.81" y2="715.87"/><path class="cls-3" d="M760.36,839.27a5.79,5.79,0,1,0,5.79-5.78A5.78,5.78,0,0,0,760.36,839.27Z"/><path class="cls-3" d="M883.06,789.65v52.08a11.61,11.61,0,0,1-11.58,11.57H819.4a11.61,11.61,0,0,1-11.57-11.57v-100a11.6,11.6,0,0,1,11.57-11.57h52.08a11.6,11.6,0,0,1,11.58,11.57v47.89Z"/><line class="cls-4" x1="849.79" y1="740.9" x2="841.11" y2="740.9"/><path class="cls-3" d="M839.65,839.27a5.79,5.79,0,1,0,5.79-5.78A5.78,5.78,0,0,0,839.65,839.27Z"/><path id="facebook-facebook" class="cls-5" d="M834.43,750.4H794.66a2.47,2.47,0,0,0-2.47,2.47v39.78a2.47,2.47,0,0,0,2.47,2.47h21.41V777.8h-5.83v-6.75h5.83v-5c0-5.78,3.53-8.92,8.68-8.92a47.73,47.73,0,0,1,5.21.27v6h-3.57c-2.8,0-3.34,1.33-3.34,3.29v4.31h6.68l-0.87,6.75H823v17.31h11.39a2.47,2.47,0,0,0,2.47-2.47V752.87A2.47,2.47,0,0,0,834.43,750.4Z"/><path id="facebook-facebook-2" data-name="facebook-facebook" class="cls-5" d="M678,758.08H660.69a1.07,1.07,0,0,0-1.07,1.07v17.31a1.07,1.07,0,0,0,1.07,1.07H670V770h-2.54v-2.94H670V764.9a3.54,3.54,0,0,1,3.78-3.88,20.77,20.77,0,0,1,2.27.12v2.63H674.5a1.22,1.22,0,0,0-1.46,1.43v1.87H676L675.58,770H673v7.54h5a1.07,1.07,0,0,0,1.07-1.07V759.15A1.07,1.07,0,0,0,678,758.08Z"/><g id="linkedin-linkedin"><path class="cls-5" d="M598.17,705.26h9.5v30.53h-9.5V705.26Zm4.75-15.17a5.5,5.5,0,1,1-5.5,5.5,5.5,5.5,0,0,1,5.5-5.5"/><path class="cls-5" d="M613.62,705.26h9.09v4.17h0.13a10,10,0,0,1,9-4.93c9.61,0,11.38,6.32,11.38,14.54v16.74h-9.49V720.94c0-3.54-.06-8.09-4.93-8.09s-5.69,3.86-5.69,7.84v15.1h-9.48V705.26Z"/></g><g id="linkedin-linkedin-2" data-name="linkedin-linkedin"><path class="cls-5" d="M734.36,787.12h7.55v24.27h-7.55V787.12Zm3.78-12.06a4.37,4.37,0,1,1-4.38,4.37,4.37,4.37,0,0,1,4.38-4.37"/><path class="cls-5" d="M746.64,787.12h7.23v3.32H754a7.92,7.92,0,0,1,7.14-3.92c7.64,0,9,5,9,11.56v13.31h-7.54v-11.8c0-2.81,0-6.43-3.92-6.43s-4.52,3.07-4.52,6.23v12h-7.53V787.12Z"/></g><path id="youtube-youtube-2" data-name="youtube-youtube" class="cls-5" d="M889.36,814.76a3.34,3.34,0,0,1-3.33,3.33H869.39a3.34,3.34,0,0,1-3.33-3.33v-9.32a3.34,3.34,0,0,1,3.33-3.33H886a3.34,3.34,0,0,1,3.33,3.33v9.32ZM875.31,813l6.3-3.26-6.3-3.29V813Z"/><path id="twitter-twitter-2" data-name="twitter-twitter" class="cls-5" d="M712.91,694.07a9.12,9.12,0,0,1-2.62.72,4.58,4.58,0,0,0,2-2.53,9.14,9.14,0,0,1-2.9,1.11,4.57,4.57,0,0,0-7.78,4.17,13,13,0,0,1-9.41-4.77,4.57,4.57,0,0,0,1.41,6.1,4.55,4.55,0,0,1-2.07-.57v0.06a4.57,4.57,0,0,0,3.66,4.48,4.58,4.58,0,0,1-2.06.08,4.57,4.57,0,0,0,4.27,3.17,9.16,9.16,0,0,1-5.67,2,9.29,9.29,0,0,1-1.09-.06,13,13,0,0,0,20-10.94q0-.3,0-0.59A9.27,9.27,0,0,0,712.91,694.07Z"/><path class="cls-3" d="M419.89,393.27a17.56,17.56,0,0,0-17.51-17.51H196.08a17.56,17.56,0,0,0-17.52,17.51V547.72a17.57,17.57,0,0,0,17.52,17.51h206.3a17.57,17.57,0,0,0,17.51-17.51V393.27Z"/><line class="cls-4" x1="178.56" y1="539.36" x2="419.89" y2="539.36"/><circle class="cls-6" cx="298.35" cy="468.94" r="34.79"/><polygon class="cls-7" points="291 456.79 309.04 468.94 291 481.1 291 456.79"/><path class="cls-3" d="M158.58,547.72a17.57,17.57,0,0,0,17.52,17.51H422.35a17.57,17.57,0,0,0,17.51-17.51H158.58Z"/><line class="cls-8" x1="202.14" y1="396.23" x2="202.14" y2="396.23"/><line class="cls-9" x1="214.39" y1="396.23" x2="214.39" y2="396.23"/><line class="cls-10" x1="226.61" y1="396.23" x2="226.61" y2="396.23"/><line class="cls-8" x1="250.44" y1="396.23" x2="420.35" y2="396.23"/><path class="cls-11" d="M298.8,418a50.57,50.57,0,0,1,50.57,50.57"/><path class="cls-11" d="M298.8,519.17a50.57,50.57,0,0,1-50.57-50.57"/><path class="cls-12" d="M254.79,516.59a65.12,65.12,0,0,1-4-92"/><path class="cls-12" d="M342.81,420.61a65.12,65.12,0,0,1,4,92"/><path class="cls-2" d="M1228,689.37c21.51,0,47.91-15.24,58.67-33.87L1374,504.34c10.76-18.63,10.75-49.11,0-67.74l-87.26-151.11c-10.76-18.63-37.16-33.87-58.67-33.87H1053.52c-21.51,0-47.91,15.24-58.67,33.87L907.6,436.6c-10.76,18.63-10.76,49.11,0,67.74l87.26,151.15c10.75,18.63,37.15,33.87,58.66,33.87H1228Z"/><path class="cls-3" d="M1088.6,375.62h164a21.85,21.85,0,0,1,21.79,21.8V543.58a21.86,21.86,0,0,1-21.79,21.79H1017.25a21.84,21.84,0,0,1-21.78-21.79V397.42a21.84,21.84,0,0,1,21.78-21.8h71.35Z"/><line class="cls-13" x1="1015.63" y1="462.33" x2="1015.63" y2="478.66"/><line class="cls-4" x1="1015.63" y1="462.33" x2="1015.63" y2="478.66"/><path class="cls-3" d="M1247.95,481.39a10.89,10.89,0,1,0-10.89-10.9A10.89,10.89,0,0,0,1247.95,481.39Z"/><path class="cls-14" d="M1078.48,459.68a26,26,0,1,1,3.84-40.8"/><path class="cls-15" d="M1078.88,433.16a14.91,14.91,0,1,1-21.6-9.37"/><line class="cls-8" x1="1180.36" y1="511.62" x2="1156.65" y2="501.85"/><line class="cls-8" x1="1205.94" y1="482.69" x2="1189.24" y2="508.81"/><ellipse class="cls-10" cx="1186.05" cy="514.42" rx="6.3" ry="6.53" transform="translate(-37.36 96.55) rotate(-4.59)"/><ellipse class="cls-10" cx="1209.22" cy="476.95" rx="6.3" ry="6.53" transform="translate(-34.29 98.28) rotate(-4.59)"/><line class="cls-8" x1="1081.5" y1="504.52" x2="1050.85" y2="525.59"/><line class="cls-8" x1="1110.64" y1="521.81" x2="1091.97" y2="504.24"/><line class="cls-8" x1="1144.85" y1="503.89" x2="1119.94" y2="522.35"/><ellipse class="cls-10" cx="1044.89" cy="530.73" rx="6.53" ry="6.3" transform="translate(242.55 1384.97) rotate(-73.72)"/><ellipse class="cls-10" cx="1087.16" cy="500.12" rx="6.53" ry="6.3" transform="translate(302.36 1403.51) rotate(-73.72)"/><ellipse class="cls-10" cx="1114.96" cy="526.45" rx="6.53" ry="6.3" transform="translate(297.09 1449.16) rotate(-73.72)"/><ellipse class="cls-10" cx="1149.96" cy="499.7" rx="6.53" ry="6.3" transform="translate(347.95 1463.49) rotate(-73.72)"/><line class="cls-10" x1="1104.59" y1="437.79" x2="1149.96" y2="437.79"/><line class="cls-8" x1="1104.59" y1="449.09" x2="1179.76" y2="449.09"/><line class="cls-10" x1="1104.59" y1="426.48" x2="1215.52" y2="426.48"/><circle class="cls-16" cx="1182.03" cy="461.32" r="66.89" transform="translate(20 970.93) rotate(-45)"/><line class="cls-4" x1="1229.33" y1="508.61" x2="1286.09" y2="565.37"/><line class="cls-17" x1="470.12" y1="448.5" x2="486.82" y2="448.5"/><line class="cls-18" x1="519.61" y1="448.5" x2="551.37" y2="448.5"/><line class="cls-19" x1="558.54" y1="448.5" x2="655.87" y2="448.5"/><line class="cls-17" x1="663.04" y1="448.5" x2="679.74" y2="448.5"/><line class="cls-17" x1="978.49" y1="765.5" x2="961.78" y2="765.5"/><line class="cls-20" x1="945.06" y1="765.5" x2="928.85" y2="765.5"/><line class="cls-17" x1="925.19" y1="765.5" x2="908.49" y2="765.5"/><line class="cls-17" x1="873.44" y1="491.5" x2="890.15" y2="491.5"/><line class="cls-21" x1="910.1" y1="491.5" x2="929.42" y2="491.5"/><line class="cls-17" x1="933.78" y1="491.5" x2="950.49" y2="491.5"/><line class="cls-17" x1="449.44" y1="727.5" x2="466.15" y2="727.5"/><line class="cls-22" x1="488.84" y1="727.5" x2="510.82" y2="727.5"/><line class="cls-17" x1="515.78" y1="727.5" x2="532.49" y2="727.5"/><line class="cls-17" x1="1072" y1="622.48" x2="1063.64" y2="636.95"/><line class="cls-23" x1="1051.02" y1="658.82" x2="1038.79" y2="680.01"/><line class="cls-17" x1="1036.02" y1="684.79" x2="1027.67" y2="699.26"/><line class="cls-17" x1="384.14" y1="660.87" x2="375.79" y2="646.4"/><path class="cls-24" d="M366.09,629.6l-4.16-7.21a31.83,31.83,0,0,1-3.6-9.79"/><path class="cls-17" d="M357.85,608.39a13.61,13.61,0,0,1,1.35-7.06l4.72-8.17"/></svg>