<?xml version="1.0" standalone="no"?>
<!DOCTYPE svg PUBLIC "-//W3C//DTD SVG 20010904//EN"
 "http://www.w3.org/TR/2001/REC-SVG-20010904/DTD/svg10.dtd">
<svg version="1.0" xmlns="http://www.w3.org/2000/svg"
 width="1600.000000pt" height="241.000000pt" viewBox="0 0 1600.000000 241.000000"
 preserveAspectRatio="xMidYMid meet">
<metadata>
Created by potrace 1.15, written by Peter Selinger 2001-2017
</metadata>
<g transform="translate(0.000000,241.000000) scale(0.100000,-0.100000)"
fill="#000000" stroke="none">
<path d="M14680 1235 l0 -1175 144 0 144 0 5 443 c5 486 6 502 69 619 68 129
187 200 333 201 165 0 267 -84 311 -255 13 -52 17 -146 21 -536 l5 -472 145 0
145 0 -4 518 c-4 491 -6 521 -26 595 -30 110 -74 186 -148 257 -203 195 -557
188 -760 -15 -34 -34 -65 -72 -69 -84 -21 -67 -25 17 -25 529 l0 550 -145 0
-145 0 0 -1175z"/>
<path d="M63 2260 c-12 -5 -30 -21 -40 -36 -16 -25 -18 -52 -18 -239 0 -206 0
-210 21 -213 12 -2 121 49 255 119 254 132 259 135 259 155 0 15 -377 208
-425 217 -16 3 -40 2 -52 -3z"/>
<path d="M3360 1488 c0 -433 -4 -810 -10 -857 -15 -136 -44 -206 -109 -272
-65 -64 -117 -84 -223 -82 -140 2 -248 87 -302 239 l-11 31 -134 -38 c-74 -21
-138 -40 -142 -41 -16 -6 42 -144 87 -211 80 -116 175 -185 314 -228 99 -31
311 -33 405 -5 225 68 364 238 410 501 13 74 15 218 15 911 l0 824 -150 0
-150 0 0 -772z"/>
<path d="M7692 2248 c3 -7 135 -454 293 -993 158 -539 301 -1028 318 -1087
l32 -108 163 0 c89 0 162 2 162 5 0 8 519 1729 528 1748 5 13 85 -238 250
-785 133 -442 253 -840 267 -886 l26 -82 161 2 161 3 318 1085 c175 597 319
1091 319 1098 0 9 -38 12 -159 12 -143 0 -160 -2 -165 -17 -6 -21 -290 -1053
-400 -1452 -42 -151 -78 -276 -81 -279 -2 -3 -7 1 -10 9 -8 22 -505 1728 -505
1734 0 3 -76 5 -170 5 l-169 0 -25 -82 c-14 -46 -84 -283 -156 -528 -301
-1025 -335 -1140 -340 -1140 -3 0 -41 129 -84 288 -44 158 -152 550 -241 872
l-162 585 -168 3 c-132 2 -166 0 -163 -10z"/>
<path d="M591 2011 c-10 -7 -14 -62 -17 -254 -3 -215 -2 -248 12 -262 10 -10
24 -13 38 -9 26 8 434 218 460 237 40 30 13 51 -217 170 -242 125 -256 131
-276 118z"/>
<path d="M7010 1740 l0 -210 -140 0 -140 0 0 -120 0 -120 140 0 140 0 0 -447
c0 -488 4 -527 57 -625 76 -140 247 -207 457 -180 50 6 106 17 124 23 l34 11
-3 119 c-2 66 -3 119 -4 119 0 0 -22 -7 -49 -15 -62 -19 -176 -19 -219 -1 -41
17 -81 62 -96 105 -7 23 -11 169 -11 462 l0 429 195 0 195 0 0 120 0 120 -195
0 -195 0 0 210 0 210 -145 0 -145 0 0 -210z"/>
<path d="M12320 1740 l0 -210 -145 0 -145 0 0 -120 0 -120 145 0 145 0 0 -444
c0 -256 4 -466 10 -496 34 -179 145 -282 334 -312 82 -12 224 -2 294 23 l32
11 0 103 c0 137 0 136 -57 119 -59 -18 -174 -18 -216 0 -40 17 -80 61 -97 106
-10 26 -15 141 -18 463 l-4 427 201 0 201 0 0 120 0 120 -200 0 -200 0 0 210
0 210 -140 0 -140 0 0 -210z"/>
<path d="M1163 1722 c-19 -12 -19 -512 -1 -523 20 -13 36 -6 278 120 202 104
225 119 225 141 0 22 -24 37 -235 147 -129 67 -239 123 -245 123 -5 0 -16 -4
-22 -8z"/>
<path d="M15 1703 c-12 -12 -15 -56 -15 -257 0 -263 3 -276 52 -261 51 16 467
238 473 253 11 28 -20 48 -345 213 -130 67 -146 72 -165 52z"/>
<path d="M5925 1555 c-211 -46 -356 -183 -384 -363 -30 -190 50 -334 231 -417
29 -13 121 -42 203 -65 254 -69 324 -103 356 -174 46 -102 -4 -213 -116 -255
-169 -63 -355 -20 -492 113 l-62 61 -98 -84 c-54 -46 -98 -88 -98 -92 0 -17
91 -103 148 -140 120 -78 270 -119 440 -119 331 0 549 150 576 398 21 198 -45
326 -215 414 -79 41 -118 54 -302 103 -165 43 -220 67 -263 111 -32 33 -34 40
-34 102 0 51 5 73 20 94 52 69 157 104 284 95 95 -7 183 -49 255 -122 l53 -53
94 79 c52 44 95 84 97 89 5 15 -97 112 -150 143 -25 15 -88 41 -140 58 -79 27
-111 32 -213 35 -83 3 -142 -1 -190 -11z"/>
<path d="M11145 1563 c-60 -8 -191 -46 -251 -73 -62 -28 -150 -82 -192 -119
l-24 -21 74 -89 c40 -49 77 -90 81 -90 5 -1 27 14 50 33 120 97 303 148 449
125 176 -28 269 -121 284 -286 l7 -70 -169 -7 c-210 -8 -323 -21 -442 -52
-308 -77 -448 -252 -413 -509 33 -233 244 -386 533 -385 173 1 304 53 419 170
l77 77 6 -66 c4 -36 9 -83 13 -103 l6 -38 134 0 c105 0 132 3 126 13 -4 6 -11
242 -14 522 -6 544 -7 555 -60 674 -46 106 -159 209 -279 255 -98 38 -288 56
-415 39z m472 -892 c-7 -110 -28 -181 -76 -252 -70 -104 -169 -157 -311 -166
-198 -13 -323 62 -337 201 -21 201 179 299 616 305 l114 1 -6 -89z"/>
<path d="M13745 1556 c-168 -34 -286 -96 -401 -210 -90 -90 -142 -174 -182
-294 -24 -71 -26 -91 -27 -252 0 -156 3 -183 23 -250 62 -200 194 -356 376
-445 124 -61 188 -76 346 -82 146 -5 224 6 334 47 69 26 200 113 229 152 l20
27 -54 49 c-30 26 -73 66 -97 87 l-42 38 -50 -47 c-102 -95 -256 -135 -402
-105 -242 51 -403 285 -384 562 18 262 185 459 415 488 141 17 262 -23 366
-122 l41 -39 99 81 c55 45 101 84 103 88 5 13 -93 100 -153 136 -33 19 -103
49 -155 66 -79 26 -115 32 -215 35 -77 2 -145 -1 -190 -10z"/>
<path d="M3962 1003 c4 -514 5 -530 27 -603 12 -41 36 -101 53 -132 61 -114
197 -213 327 -238 79 -15 218 -12 286 5 122 32 257 128 313 224 l27 46 2 -50
c2 -27 5 -83 9 -122 l6 -73 136 0 137 0 -7 122 c-3 68 -7 399 -7 736 l-1 612
-145 0 -145 0 0 -438 c0 -406 -1 -445 -20 -517 -24 -96 -58 -154 -123 -217
-69 -67 -138 -91 -252 -92 -79 -1 -97 2 -147 27 -107 52 -159 143 -178 305 -5
48 -10 277 -10 510 l0 422 -146 0 -145 0 3 -527z"/>
<path d="M1727 1423 c-4 -3 -7 -123 -7 -265 0 -211 3 -260 14 -264 17 -7 381
174 424 211 38 32 41 64 10 99 -21 23 -403 226 -425 226 -5 0 -13 -3 -16 -7z"/>
<path d="M586 1412 c-3 -5 -7 -117 -10 -250 -5 -267 -2 -280 50 -267 44 10
456 229 468 248 17 27 -11 46 -245 166 -202 104 -250 123 -263 103z"/>
<path d="M16 1124 c-14 -13 -16 -51 -16 -258 0 -263 3 -276 52 -261 49 15 467
239 473 253 3 8 0 21 -6 28 -14 17 -464 254 -482 254 -3 0 -13 -7 -21 -16z"/>
<path d="M1156 1111 c-8 -12 -9 -499 -1 -511 3 -5 13 -10 22 -10 15 0 394 189
461 230 63 38 49 51 -198 181 -207 109 -270 133 -284 110z"/>
<path d="M591 831 c-11 -7 -15 -59 -17 -254 -4 -216 -2 -247 12 -262 10 -10
24 -13 38 -9 33 10 465 234 471 245 15 24 -12 49 -98 94 -50 26 -150 78 -222
115 -146 76 -164 83 -184 71z"/>
<path d="M7 543 c-4 -3 -7 -93 -7 -200 0 -201 7 -241 45 -273 36 -30 84 -16
280 83 203 101 228 119 204 142 -20 19 -483 255 -501 255 -8 0 -18 -3 -21 -7z"/>
</g>
</svg>
