<?xml version="1.0" encoding="utf-8"?>
<!-- Generator: Adobe Illustrator 21.1.0, SVG Export Plug-In . SVG Version: 6.00 Build 0)  -->
<svg version="1.1" id="Layer_1" xmlns="http://www.w3.org/2000/svg" xmlns:xlink="http://www.w3.org/1999/xlink" x="0px" y="0px"
	 viewBox="0 0 255.2 46.8" style="enable-background:new 0 0 255.2 46.8;" xml:space="preserve">
<style type="text/css">
	.st0{fill:#636363;}
	.st1{fill:#ABABAB;}
	.st2{fill:#404040;}
</style>
<title>Noonlight_FormerlySafeTrek</title>
<path class="st0" d="M192.1,18.9c0,0.4-0.2,0.7-0.6,0.9c-0.4,0.2-0.9,0.4-1.4,0.5c-0.9,0.3-1.9,0.4-2.9,0.4c-1,0-2-0.2-3-0.6
	c-0.9-0.4-1.6-0.9-2.3-1.5c-0.6-0.7-1.1-1.5-1.5-2.4c-0.3-1-0.5-2-0.5-3c0-1,0.2-2,0.5-3c0.3-0.9,0.8-1.7,1.5-2.3
	c0.6-0.7,1.4-1.2,2.3-1.5c1-0.4,2-0.6,3-0.6c1.1,0,2.2,0.2,3.3,0.6c0.6,0.3,1.2,0.6,1.7,1c0.4,0.3,0.9,0.3,1.3-0.1l2.3-2.5
	c0.3-0.4,0.3-1-0.1-1.4c-1-0.7-2.1-1.3-3.3-1.6C190.7,1.2,189,1,187.3,1c-1.7,0-3.4,0.3-5,0.9c-1.5,0.5-2.8,1.4-4,2.4
	c-1.1,1.1-2,2.4-2.6,3.8c-0.6,1.6-1,3.3-0.9,5c0,1.7,0.3,3.4,0.9,5c0.6,1.5,1.5,2.8,2.6,3.8c1.2,1.1,2.5,1.9,4,2.4
	c1.6,0.6,3.3,0.9,5,0.9c1.6,0,3.2-0.2,4.8-0.5v-6L192.1,18.9z"/>
<path class="st1" d="M192.1,18.9v-2.2c0-0.6-0.4-1-1-1h-2.2c-0.6,0-1-0.4-1-1V12c0-0.6,0.4-1,1-1h7.2c0.6,0,1,0.4,1,1v10.5
	c0,0.4-0.2,0.7-0.5,0.9c-1.3,0.6-2.7,1.1-4.2,1.4h-0.2L192.1,18.9L192.1,18.9z"/>
<path class="st1" d="M138.1,20.7v3.6c0,0.3,0.3,0.6,0.6,0.6h11c0.3,0,0.6-0.3,0.6-0.6v-3.6c0-0.3-0.3-0.6-0.6-0.6h-11
	C138.3,20.1,138.1,20.4,138.1,20.7z"/>
<path class="st0" d="M247.7,6.1h-5.1V24c0,0.4,0.4,0.8,0.8,0.8h3.5c0.4,0,0.8-0.4,0.8-0.8v-7.3l0,0V13l0,0L247.7,6.1L247.7,6.1z"/>
<path class="st1" d="M222.6,2.2v7.5c0,0.3-0.3,0.6-0.6,0.6l0,0h-9.6c-0.3,0-0.6,0.3-0.6,0.6c0,0,0,0,0,0v3.4c0,0.3,0.3,0.6,0.6,0.6
	l0,0h9.6c0.3,0,0.6,0.3,0.6,0.6c0,0,0,0,0,0v8.9c0,0.3,0.3,0.6,0.6,0.6l0,0h4c0.3,0,0.6-0.3,0.6-0.6c0,0,0,0,0,0v-22
	c0-0.3-0.3-0.6-0.6-0.6l0,0h-4C222.9,1.7,222.6,1.9,222.6,2.2C222.6,2.2,222.6,2.2,222.6,2.2z"/>
<path class="st1" d="M32.5,13.2c0,7,5.7,12.7,12.7,12.7s12.7-5.7,12.7-12.7S52.2,0.6,45.2,0.6c0,0,0,0,0,0
	C38.2,0.6,32.5,6.3,32.5,13.2z M52.8,13.2c0,4.2-3.4,7.6-7.6,7.6s-7.6-3.4-7.6-7.6s3.4-7.6,7.6-7.6C49.4,5.7,52.7,9.1,52.8,13.2z"/>
<path class="st1" d="M70.3,4.3c-4.9,5-4.9,13,0.1,17.9c5,4.9,13,4.9,17.9-0.1c4.9-5,4.9-13-0.1-17.9c0,0,0,0,0,0
	C83.2-0.7,75.2-0.6,70.3,4.3z M84.7,18.6c-2.9,3-7.7,3-10.7,0.1s-3-7.7-0.1-10.7c2.9-3,7.7-3,10.7-0.1
	C87.6,10.8,87.6,15.6,84.7,18.6z"/>
<path class="st1" d="M236.5,1.7h17.2c0.3,0,0.5,0.2,0.5,0.5v3.4c0,0.3-0.2,0.5-0.5,0.5h-17.2c-0.3,0-0.5-0.2-0.5-0.5V2.2
	C236,1.9,236.2,1.7,236.5,1.7z"/>
<path class="st0" d="M213,10.3L213,10.3V2.4c0-0.4-0.3-0.7-0.7-0.7l0,0h-3.6c-0.4,0-0.7,0.3-0.7,0.7c0,0,0,0,0,0v21.7
	c0,0.4,0.3,0.7,0.7,0.7l0,0h3.6c0.4,0,0.7-0.3,0.7-0.7c0,0,0,0,0,0v-9.3l0,0V10.3z"/>
<path class="st0" d="M160.1,1.7h4c0.3,0,0.5,0.2,0.5,0.5v22.1c0,0.3-0.2,0.5-0.5,0.5h-4c-0.3,0-0.5-0.2-0.5-0.5V2.2
	C159.6,1.9,159.8,1.7,160.1,1.7z"/>
<path class="st0" d="M136.4,1.7h3.2c0.5,0,0.9,0.4,0.9,0.9v21.4c0,0.5-0.4,0.9-0.9,0.9h-3.2c-0.5,0-0.9-0.4-0.9-0.9V2.6
	C135.5,2.1,135.9,1.7,136.4,1.7z"/>
<path class="st0" d="M53.6,11.4c-0.6,0.7-0.9,1.7-0.8,2.6c-0.4,3.9-3.7,6.8-7.5,6.8c-4.2,0-7.5-3.4-7.6-7.5v-0.1
	c0-1.4-1.2-2.5-2.6-2.4c0,0,0,0-0.1,0c-0.6,0-1.2,0.2-1.7,0.7c-0.5,0.6-0.8,1.4-0.8,2.2c0.1,6.9,5.8,12.4,12.7,12.3
	c6.8,0.2,12.5-5.2,12.7-12c0-0.1,0-0.1,0-0.2l0,0c0-0.9-0.3-1.7-0.9-2.3C56,10.5,54.5,10.5,53.6,11.4z"/>
<path class="st0" d="M86.6,17.8c-0.9,0.1-1.8,0.6-2.4,1.2c-3,2.4-7.4,2.2-10.1-0.5c-3-2.9-3-7.7-0.1-10.7l0,0l0,0
	c0.9-1,0.9-2.6-0.1-3.5c0,0,0,0,0,0c-0.4-0.5-1-0.7-1.7-0.7c-0.8,0.1-1.6,0.4-2.1,1c-4.8,5-4.6,12.9,0.4,17.6
	c4.7,4.9,12.5,5.1,17.4,0.4c0.1-0.1,0.2-0.2,0.3-0.3l0,0c0.6-0.6,0.9-1.4,1-2.2C89,18.9,87.9,17.9,86.6,17.8z"/>
<path class="st1" d="M122.7,1.7h-0.1c-0.1,0-0.2,0-0.3,0h-2.6c-0.1,0-0.2,0-0.3,0h-0.1c-0.5,0-0.9,0.4-0.9,0.9v0.3c0,0,0,0,0,0.1
	v14.8h-0.1l-9.8-15.5c-0.3-0.4-0.7-0.6-1.2-0.6h-4.2c-0.7,0-1.3,0.6-1.3,1.3c0,0,0,0,0,0v20.6c0,0.7,0.6,1.3,1.3,1.3c0,0,0,0,0,0
	h2.3c0.7,0,1.3-0.6,1.3-1.3c0,0,0,0,0,0V9.3l9.5,14.9c0.3,0.4,0.7,0.6,1.2,0.6h5.2c0.5,0,0.9-0.4,0.9-0.9V2.6
	C123.6,2.1,123.2,1.7,122.7,1.7z"/>
<path class="st0" d="M102.6,1.6h3.2c0.5,0,0.9,0.4,0.9,0.9v21.4c0,0.5-0.4,0.9-0.9,0.9h-3.2c-0.5,0-0.9-0.4-0.9-0.9V2.5
	C101.7,2,102.1,1.6,102.6,1.6z"/>
<path class="st1" d="M21.9,1.6h-0.1c-0.1,0-0.2,0-0.3,0h-2.6c-0.1,0-0.2,0-0.3,0h-0.1c-0.5,0-0.9,0.4-1,0.9v0.3c0,0,0,0,0,0.1v14.8
	h-0.1L7.6,2.2C7.4,1.8,6.9,1.6,6.5,1.6H2.3C1.6,1.6,1,2.1,0.9,2.9c0,0,0,0,0,0v20.6c0,0.7,0.6,1.3,1.3,1.3c0,0,0,0,0,0h2.3
	c0.7,0,1.3-0.5,1.4-1.3c0,0,0,0,0,0V9.2l9.5,14.9c0.3,0.4,0.7,0.6,1.1,0.6h5.2c0.5,0,0.9-0.4,1-0.9V2.5C22.8,2,22.4,1.6,21.9,1.6
	C21.9,1.6,21.9,1.6,21.9,1.6z"/>
<path class="st0" d="M1.8,1.6h3.3C5.6,1.6,6,2,6,2.5v21.4c0,0.5-0.4,0.9-0.9,0.9H1.8c-0.5,0-0.9-0.4-0.9-0.9V2.5
	C0.9,2,1.3,1.6,1.8,1.6z"/>
<path class="st2" d="M5.7,42.3H2.1V46H1v-8.5h5.3v0.9H2.1v2.9h3.6V42.3L5.7,42.3z"/>
<path class="st2" d="M16.3,42c0,0.6-0.1,1.2-0.3,1.8c-0.1,0.5-0.4,0.9-0.7,1.3c-0.3,0.3-0.7,0.6-1.1,0.8c-0.4,0.2-0.9,0.3-1.4,0.3
	c-0.5,0-1-0.1-1.4-0.3c-0.4-0.2-0.8-0.5-1.1-0.8c-0.3-0.4-0.6-0.8-0.7-1.3c-0.2-0.6-0.2-1.2-0.2-1.8v-0.5c0-0.6,0.1-1.2,0.2-1.7
	c0.1-0.5,0.4-0.9,0.7-1.3c0.3-0.4,0.7-0.6,1.1-0.8c0.4-0.2,0.9-0.3,1.4-0.3c0.5,0,1,0.1,1.4,0.3c0.4,0.2,0.8,0.5,1.1,0.8
	c0.3,0.4,0.5,0.8,0.7,1.3c0.2,0.6,0.2,1.1,0.2,1.7L16.3,42L16.3,42z M15.2,41.5c0-0.4-0.1-0.9-0.2-1.3c-0.1-0.4-0.2-0.7-0.4-1
	c-0.2-0.3-0.4-0.5-0.7-0.6c-0.3-0.1-0.7-0.2-1-0.2c-0.3,0-0.7,0.1-0.9,0.2c-0.3,0.1-0.5,0.3-0.7,0.6c-0.2,0.3-0.4,0.6-0.5,1
	c-0.1,0.4-0.2,0.9-0.2,1.3V42c0,0.5,0.1,0.9,0.2,1.3c0.1,0.4,0.3,0.7,0.5,1c0.2,0.3,0.4,0.5,0.7,0.6c0.3,0.1,0.6,0.2,0.9,0.2
	c0.3,0,0.7-0.1,1-0.2c0.3-0.1,0.5-0.3,0.7-0.6c0.2-0.3,0.4-0.6,0.4-1c0.1-0.4,0.2-0.9,0.2-1.3L15.2,41.5L15.2,41.5z"/>
<path class="st2" d="M23.2,42.6h-2V46h-1.1v-8.5h2.8c0.8-0.1,1.6,0.2,2.2,0.7c0.5,0.5,0.8,1.2,0.8,1.9c0,0.5-0.1,1-0.4,1.4
	c-0.3,0.4-0.7,0.7-1.2,0.9l2,3.6v0H25L23.2,42.6z M21.2,41.7h1.7c0.3,0,0.5,0,0.8-0.1c0.2-0.1,0.4-0.2,0.6-0.3
	c0.1-0.1,0.3-0.3,0.3-0.5c0.1-0.2,0.1-0.4,0.1-0.6c0-0.2,0-0.5-0.1-0.7c-0.1-0.2-0.2-0.4-0.3-0.5c-0.2-0.2-0.4-0.3-0.6-0.3
	c-0.3-0.1-0.6-0.1-0.8-0.1h-1.7V41.7z"/>
<path class="st2" d="M31,37.5l2.8,7l2.8-7H38V46h-1.1v-3.3l0.1-3.6L34.2,46h-0.9l-2.8-6.9l0.1,3.6V46h-1.1v-8.5H31z"/>
<path class="st2" d="M47,42.1h-3.7v3h4.3V46h-5.5v-8.5h5.4v0.9h-4.2v2.7H47V42.1L47,42.1z"/>
<path class="st2" d="M54.2,42.6h-2V46H51v-8.5h2.8c0.8-0.1,1.6,0.2,2.2,0.7c0.5,0.5,0.8,1.2,0.8,1.9c0,0.5-0.1,1-0.4,1.4
	c-0.3,0.4-0.7,0.7-1.2,0.9l2,3.6v0H56L54.2,42.6z M52.2,41.7h1.7c0.3,0,0.5,0,0.8-0.1c0.2-0.1,0.4-0.2,0.6-0.3
	c0.1-0.1,0.3-0.3,0.3-0.5c0.1-0.2,0.1-0.4,0.1-0.6c0-0.2,0-0.5-0.1-0.7c-0.1-0.2-0.2-0.4-0.3-0.5c-0.2-0.2-0.4-0.3-0.6-0.3
	c-0.3-0.1-0.6-0.1-0.8-0.1h-1.7L52.2,41.7L52.2,41.7z"/>
<path class="st2" d="M61.7,45.1h4V46h-5.1v-8.5h1.1V45.1z"/>
<path class="st2" d="M70.3,41.8l2.2-4.3h1.3l-2.9,5.3V46h-1.1v-3.1l-2.9-5.4h1.3L70.3,41.8z"/>
<path class="st2" d="M86.6,43.9c0-0.2,0-0.4-0.1-0.5c-0.1-0.2-0.2-0.3-0.3-0.4c-0.2-0.1-0.4-0.3-0.6-0.4c-0.3-0.1-0.7-0.2-1-0.3
	c-0.4-0.1-0.8-0.2-1.2-0.4c-0.3-0.1-0.6-0.3-0.9-0.5c-0.2-0.2-0.4-0.4-0.6-0.7c-0.1-0.3-0.2-0.6-0.2-0.9c0-0.3,0.1-0.6,0.2-0.9
	c0.1-0.3,0.3-0.5,0.6-0.7c0.3-0.2,0.6-0.4,0.9-0.5c0.4-0.1,0.8-0.2,1.2-0.2c0.4,0,0.9,0.1,1.3,0.2c0.4,0.1,0.7,0.3,0.9,0.6
	c0.3,0.2,0.4,0.5,0.6,0.8c0.1,0.3,0.2,0.7,0.2,1h-1.1c0-0.2,0-0.4-0.1-0.7c-0.1-0.2-0.2-0.4-0.3-0.5c-0.2-0.2-0.4-0.3-0.6-0.3
	c-0.3-0.1-0.5-0.1-0.8-0.1c-0.3,0-0.5,0-0.8,0.1c-0.2,0.1-0.4,0.2-0.6,0.3c-0.1,0.1-0.3,0.3-0.3,0.4C83,39.4,83,39.5,83,39.7
	c0,0.2,0,0.3,0.1,0.5c0.1,0.2,0.2,0.3,0.3,0.4c0.2,0.1,0.4,0.3,0.6,0.3c0.3,0.1,0.6,0.2,0.9,0.3c0.4,0.1,0.8,0.3,1.2,0.5
	c0.3,0.1,0.6,0.3,0.9,0.6c0.2,0.2,0.4,0.4,0.5,0.7c0.1,0.3,0.2,0.6,0.2,0.9c0,0.7-0.3,1.3-0.8,1.7c-0.3,0.2-0.6,0.4-0.9,0.4
	c-0.4,0.1-0.8,0.2-1.2,0.2c-0.3,0-0.5,0-0.8-0.1c-0.3,0-0.5-0.1-0.8-0.2c-0.2-0.1-0.5-0.2-0.7-0.4c-0.2-0.1-0.4-0.3-0.6-0.5
	c-0.2-0.2-0.3-0.4-0.4-0.6c-0.1-0.3-0.1-0.5-0.1-0.8h1.1c0,0.5,0.2,1,0.6,1.3c0.2,0.1,0.4,0.2,0.7,0.3c0.3,0.1,0.5,0.1,0.8,0.1
	c0.5,0,1-0.1,1.4-0.4C86.4,44.7,86.6,44.3,86.6,43.9z"/>
<path class="st2" d="M96,43.8h-3.6L91.6,46h-1.2l3.3-8.5h1L98,46h-1.2L96,43.8z M92.8,42.9h2.9l-1.4-4L92.8,42.9z"/>
<path class="st2" d="M105.9,42.3h-3.6V46h-1.1v-8.5h5.3v0.9h-4.2v2.9h3.6L105.9,42.3L105.9,42.3z"/>
<path class="st2" d="M114.8,42.1h-3.7v3h4.3V46H110v-8.5h5.4v0.9h-4.2v2.7h3.7L114.8,42.1L114.8,42.1z"/>
<path class="st2" d="M124.9,38.4h-2.7V46H121v-7.6h-2.7v-0.9h6.6L124.9,38.4L124.9,38.4z"/>
<path class="st2" d="M131.4,42.6h-2V46h-1.1v-8.5h2.8c0.8-0.1,1.6,0.2,2.2,0.7c0.5,0.5,0.8,1.2,0.8,1.9c0,0.5-0.1,1-0.4,1.4
	c-0.3,0.4-0.7,0.7-1.2,0.9l2,3.6v0h-1.2L131.4,42.6z M129.4,41.7h1.7c0.3,0,0.5,0,0.8-0.1c0.2-0.1,0.4-0.2,0.6-0.3
	c0.1-0.1,0.3-0.3,0.3-0.5c0.1-0.2,0.1-0.4,0.1-0.6c0-0.2,0-0.5-0.1-0.7c-0.1-0.2-0.2-0.4-0.3-0.5c-0.2-0.2-0.4-0.3-0.6-0.3
	c-0.3-0.1-0.6-0.1-0.8-0.1h-1.7L129.4,41.7L129.4,41.7z"/>
<path class="st2" d="M142.6,42.1h-3.7v3h4.3V46h-5.4v-8.5h5.4v0.9h-4.2v2.7h3.7L142.6,42.1L142.6,42.1z"/>
<path class="st2" d="M148.8,42.1l-1,1.1V46h-1.1v-8.5h1.1v4.2l0.9-1l2.9-3.2h1.4l-3.4,3.8l3.6,4.7h-1.4L148.8,42.1z"/>
</svg>
