<svg height="568pt" preserveAspectRatio="xMidYMid meet" viewBox="0 0 2000 568" width="2000pt" xmlns="http://www.w3.org/2000/svg"><g transform="matrix(.1 0 0 -.1 0 568)"><path d="m1740 5670c-371-27-710-139-993-326-133-89-319-273-406-403-154-232-232-462-250-736-22-333 50-630 211-875 52-80 215-250 323-337 198-160 524-341 925-514 689-296 942-471 1048-725 58-139 50-326-19-465-132-266-470-408-881-370-302 28-590 137-908 345-158 104-213 128-295 129-76 1-149-36-204-102-66-80-248-345-266-386-24-57-23-171 3-222 61-118 353-306 717-461s660-215 1060-215c396-1 680 63 985 219 415 212 699 588 801 1061 29 136 37 428 15 568-32 209-108 402-228 577-200 291-572 533-1283 833-293 124-551 248-658 318-166 108-290 250-338 387-33 93-33 257-1 352 76 219 275 367 569 424 121 23 355 23 488 0 219-39 397-107 639-245 142-81 196-101 274-101 70 0 124 24 174 76 41 44 218 356 242 428 22 63 20 151-3 203-45 99-176 199-402 307-421 201-882 289-1339 256z"/><path d="m9398 5670c-277-35-492-206-553-440-24-90-16-252 14-332 44-113 141-214 286-297 40-23 152-78 248-121 97-43 199-94 229-112 108-70 157-142 158-232 0-139-121-230-305-230-131 0-249 39-381 125-109 70-150 64-222-34-107-144-97-191 56-280 443-259 980-177 1158 176 36 71 64 189 64 271 0 138-41 251-125 344-88 98-186 156-463 277-173 75-222 101-280 151-57 49-82 100-82 169 0 120 79 198 231 225 119 22 238-3 389-81 52-27 106-49 121-49 41 0 70 31 118 123 36 71 42 91 37 120-25 132-423 261-698 227z"/><path d="m10469 5611c-28-29-29-32-29-130 0-91 2-102 24-128 24-28 25-28 150-28 124 0 126 0 153 28 24 24 28 36 31 103 3 42-1 94-7 115-17 58-47 69-181 69-110 0-112 0-141-29z"/><path d="m15543 5630c-12-5-29-23-38-40-14-27-15-118-13-858l3-827 23-64c61-170 178-248 378-254 134-3 154 18 154 172 0 88-2 100-22 119-13 11-43 25-66 31-54 11-89 43-102 90-6 22-10 325-10 799 0 828 2 804-55 830-30 14-219 15-252 2z"/><path d="m4475 5603c-234-31-432-207-490-438-22-89-23-4547 0-4642 47-198 201-363 400-426l70-22h995c755 0 1017 3 1085 13 438 62 768 201 1035 434 376 329 584 868 541 1401-41 501-271 879-682 1124l-96 57 46 57c244 302 336 750 246 1194-144 710-691 1174-1470 1245-103 9-1611 12-1680 3zm1772-556c455-92 743-355 843-770 28-116 36-292 17-388-60-299-305-619-682-886-51-37-82-65-74-67 8-3 66-22 129-42 367-116 693-286 851-445 182-182 268-457 239-771-15-157-49-289-110-417-64-134-118-208-224-308-176-167-386-263-696-320-85-15-198-17-1042-20-667-3-954-1-968 7-20 11-20 13-20 2218 0 1753 3 2211 13 2221 9 9 183 11 827 8 707-3 826-6 897-20z"/><path d="m11873 5085c-125-34-260-133-330-242-18-29-35-53-36-53s-1 44 1 97c2 83 0 103-17 130-26 41-81 57-183 51-93-6-123-23-138-78-7-26-10-250-8-685l3-647 33-29c32-28 34-29 147-29 106 0 116 2 142 24l28 24 6 359c4 299 8 369 23 423 41 150 121 260 226 309 44 21 70 26 130 26 94 0 138-23 172-93 23-47 23-50 28-522 4-355 8-481 18-497 26-46 50-53 169-53 110 0 113 1 145 29l33 29 6 374c6 403 7 416 66 532 36 70 115 150 176 177 73 33 187 33 237 2 48-30 78-86 90-169 5-38 10-259 10-491v-422l24-28c23-27 28-28 136-31 74-3 122 0 142 9 57 23 58 32 58 546 0 270-4 495-10 533-42 262-180 393-430 407-199 11-384-75-498-233l-47-65-27 61c-52 116-160 202-286 229-71 15-175 13-239-4z"/><path d="m14418 5084c-118-28-237-108-310-208l-28-39v85c0 78-2 87-26 111-30 31-89 42-174 34-72-6-107-28-120-76-6-23-10-365-10-954 0-1019-3-974 64-1002 47-20 195-20 242 0 64 26 66 44 62 420l-3 330 36-45c101-128 281-194 466-171 159 20 264 72 378 186 147 146 215 329 215 576 0 466-261 771-655 768-44 0-106-7-137-15zm207-329c135-66 215-224 215-425 0-205-76-354-217-425-51-27-68-30-148-30-78 0-97 4-146 28-140 68-219 222-219 427 0 175 41 284 141 374 98 88 255 110 374 51z"/><path d="m10513 5064c-12-3-34-19-48-35l-25-31v-670-670l29-29c29-29 31-29 145-29s116 1 148 29l33 29 3 647c2 435-1 659-8 685-16 60-45 74-159 76-53 1-106 0-118-2z"/><path d="m16180 5057c-40-14-62-50-54-89 3-14 133-324 289-687l283-661-41-98c-33-77-52-108-97-153-73-73-124-89-210-65-113 31-143 18-186-79-33-75-35-127-5-159 39-41 152-71 261-70 198 2 364 100 467 275 48 82 663 1668 663 1710 0 25-8 43-25 59-23 22-37 25-123 28-110 5-169-7-200-40-23-25-290-789-322-922-11-43-21-80-23-82-2-3-16 38-31 91-35 126-311 873-334 905-27 36-74 49-182 49-52 0-111-5-130-12z"/><path d="m8985 2311c-11-5-29-19-40-31-20-22-20-38-22-974-2-748 0-956 10-976 7-14 28-33 47-42 31-16 71-18 365-18 451 0 553 13 713 92 97 47 191 134 235 215 39 72 67 192 67 282-1 209-95 378-256 457l-74 37 43 27c121 76 207 245 207 406 0 206-102 371-283 458-137 66-159 69-597 72-217 2-404 0-415-5zm790-338c84-45 125-119 125-228 0-110-46-190-135-238-37-20-57-22-257-25l-218-3v261 261l223-3c205-3 225-5 262-25zm57-821c104-51 153-149 146-286-7-123-58-204-158-250-41-19-67-21-287-24l-243-4v299 298l247-5c234-5 251-6 295-28z"/><path d="m13725 2306c-43-19-55-53-55-157 0-87 1-92 29-120 29-29 30-29 150-29 112 0 122 2 148 24 26 23 28 29 31 118 3 108-7 135-58 160-43 22-199 24-245 4z"/><path d="m12778 1770c-206-25-354-116-422-260-29-60-31-73-31-175 0-105 2-114 33-177 58-119 157-187 405-277 209-77 259-107 278-170 10-33 8-45-9-84-53-119-253-128-472-21-140 68-169 62-244-51-59-90-27-148 126-223 115-57 212-82 343-89 371-20 625 185 602 486-15 192-132 301-442 411-218 77-274 115-282 192-9 94 64 147 202 148 88 0 147-13 242-54 65-27 121-33 153-16 31 17 83 118 84 165 1 56-20 79-112 122-136 63-307 91-454 73z"/><path d="m15180 1771c-91-13-184-49-258-101-66-46-142-128-165-177-18-39-22-26-19 59 5 104-9 153-48 173-42 22-217 21-249-1-51-36-51-36-51-711 0-406 4-641 11-666 15-54 46-70 148-75 109-5 166 9 185 46 11 22 15 103 18 387 5 389 7 404 65 519 34 68 121 151 190 184 52 24 70 27 164 27 96 0 109-2 142-25 24-16 48-46 65-80l27-55 5-465c6-522 4-509 77-529 49-14 167-14 216 0 74 20 72 3 71 548 0 551-3 587-65 711-76 151-196 220-404 234-38 2-95 1-125-3z"/><path d="m16674 1770c-308-39-534-237-616-542-31-115-31-317 0-431 76-278 292-479 579-539 174-36 389-13 551 58 129 57 192 110 192 161 0 31-59 141-87 163-39 30-84 25-173-20-109-55-192-73-307-67-79 3-102 9-165 39-124 59-212 172-236 306l-9 52h455c439 0 457 1 498 20 61 30 78 72 70 169-18 193-76 338-182 450-133 142-344 209-570 181zm230-300c87-44 149-144 158-250l3-45-315-3c-173-1-320 0-327 2-28 11 36 158 95 219 76 78 150 108 262 104 56-2 87-9 124-27z"/><path d="m18092 1769c-200-26-351-118-419-256-26-54-28-66-28-178 0-107 3-125 25-170 34-70 122-154 207-198 40-21 138-62 219-92 222-83 267-116 266-196-2-161-231-196-482-73-141 68-181 59-247-53-38-65-34-110 12-150 145-125 440-192 655-149 227 46 373 182 403 375 8 52 8 87-1 132-33 180-147 277-452 384-149 53-204 81-240 122-29 33-32 41-28 85 9 91 68 128 202 128 85 0 116-7 289-70 51-18 60-19 91-6 22 9 42 29 59 61 61 108 53 163-28 211-70 41-198 80-300 93-99 12-112 12-203 0z"/><path d="m19382 1770c-313-44-488-235-451-495 27-190 133-282 467-405 208-77 251-110 252-199 0-37-5-49-38-81-48-49-104-64-202-57-85 7-153 28-257 81-127 63-177 47-238-78-42-86-21-122 115-195 284-152 663-128 844 54 94 94 138 228 117 360-28 186-143 283-466 395-137 48-192 77-229 121-53 63-23 160 61 195 19 8 68 14 120 14 72 0 103-6 173-31 165-58 162-57 200-45 69 22 125 176 85 232-21 31-153 92-247 114-102 23-223 31-306 20z"/><path d="m10703 1730c-12-5-30-21-40-37-17-25-18-61-18-528 1-552 2-571 65-695 75-148 229-230 434-230 196 0 388 100 486 251l37 57-1-102c-1-81 3-107 16-129 24-36 84-50 187-45 79 4 86 6 113 36l28 32v666c0 437-4 672-10 685-20 36-63 49-170 49-106 0-150-12-166-47-5-10-11-184-15-388-5-304-9-379-22-418-64-187-191-300-354-314-120-10-200 30-239 120-17 38-19 83-24 515l-5 474-33 29c-32 28-35 29-140 28-59 0-117-4-129-9z"/><path d="m13724 1730c-56-22-54 2-54-717 0-449 3-670 11-686 18-39 48-51 144-55 116-5 163 10 188 58 16 33 17 81 15 693l-3 659-33 29c-32 28-35 29-140 28-59 0-117-4-128-9z"/></g></svg>