<svg enable-background="new 0 0 1374 1330" viewBox="0 0 1374 1330" xmlns="http://www.w3.org/2000/svg" xmlns:xlink="http://www.w3.org/1999/xlink"><clipPath id="a"><path d="m0 0h1374v1330h-1374z"/></clipPath><g clip-path="url(#a)" fill="none" stroke-linecap="round" stroke-linejoin="round" stroke-width="6.2803"><g stroke-miterlimit="10"><path d="m256.2 553.5c-27.6 0-61.1-19.3-74.9-43.1" stroke="#6738b8"/><path d="m181.3-212.7c13.8-23.9 47.7-43.1 74.9-43.1h367.6c27.6 0 61.1 19.3 74.9 43.1l183.8 318.2c13.8 23.9 13.8 62.8 0 86.2" stroke="#6738b8"/><path d="m479.8 553.5h-223.6c-27.6 0-61.1-19.3-74.9-43.1l-75.4-130.2" stroke="#6738b8"/><path d="m63.2-7.9 118.1-204.7c13.8-23.9 47.7-43.1 74.9-43.1h367.6c27.6 0 61.1 19.3 74.9 43.1l183.8 318.2c13.8 23.9 13.8 62.8 0 86.2l-63.2 107.6" stroke="#6738b8"/><path d="m13 380.2c-13 0-29.3-9.2-36-20.5l-88-152.8c-6.7-11.3-6.7-30.1 0-41.5l88.3-152.8c6.8-11.3 22.7-20.5 36.1-20.5h176.3c13 0 29.3 9.2 36 20.5l88.3 152.8c6.7 11.3 6.7 30.1 0 41.5l-88.3 152.8c-6.7 11.3-22.6 20.5-36 20.5z" stroke="#9e62dd"/><path d="m13 380.2c-13 0-29.3-9.2-36-20.5l-88-152.8c-6.7-11.3-6.7-30.1 0-41.5l88.3-152.8c6.8-11.3 22.7-20.5 36.1-20.5h176.3c13 0 29.3 9.2 36 20.5l88.3 152.8c6.7 11.3 6.7 30.1 0 41.5l-88.3 152.8c-6.7 11.3-22.6 20.5-36 20.5z" stroke="#9e62dd"/><path d="m1135.9 220.3c-5.4 0-11.7-3.8-14.7-8.4l-35.6-62c-2.5-4.6-2.5-12.1 0-16.7l35.6-62c2.5-4.6 9.2-8.4 14.7-8.4h71.6c5.4 0 11.7 3.8 14.7 8.4l35.6 62c2.5 4.6 2.5 12.1 0 16.7l-35.6 62c-2.5 4.6-9.2 8.4-14.7 8.4z" stroke="#9e62dd"/><path d="m1135.9 220.3c-5.4 0-11.7-3.8-14.7-8.4l-35.6-62c-2.5-4.6-2.5-12.1 0-16.7l35.6-62c2.5-4.6 9.2-8.4 14.7-8.4h71.6c5.4 0 11.7 3.8 14.7 8.4l35.6 62c2.5 4.6 2.5 12.1 0 16.7l-35.6 62c-2.5 4.6-9.2 8.4-14.7 8.4z" stroke="#9e62dd"/><path d="m186.7 1113.3c-8.8 0-19.3-6.3-23.9-13.8l-58.6-101.3c-4.2-7.5-4.2-20.1 0-27.6l58.6-101.3c4.2-7.5 15.1-13.8 23.9-13.8h116.8c8.8 0 19.3 6.3 23.9 13.8l58.6 101.3c4.2 7.5 4.2 20.1 0 27.6l-58.6 101.3c-4.2 7.5-15.1 13.8-23.9 13.8z" stroke="#9e62dd"/><path d="m186.7 1113.3c-8.8 0-19.3-6.3-23.9-13.8l-58.6-101.3c-4.2-7.5-4.2-20.1 0-27.6l58.6-101.3c4.2-7.5 15.1-13.8 23.9-13.8h116.8c8.8 0 19.3 6.3 23.9 13.8l58.6 101.3c4.2 7.5 4.2 20.1 0 27.6l-58.6 101.3c-4.2 7.5-15.1 13.8-23.9 13.8z" stroke="#9e62dd"/></g><path d="m450.9 704.3c0 224.4 181.7 407 406.1 407s407-182.5 407-407c0-224.8-182.5-406.5-407-406.5-92.5 0-177.5 30.6-245.4 82.5-97.5 74.4-160.7 191.7-160.7 324z" stroke="#9e62dd" stroke-dasharray="0 94.6204"/><path d="m611.7 380.2c-98 74.1-160.8 191.8-160.8 324.1 0 224.4 181.7 407 406.1 407 150.3 0 281.4-81.6 352.1-202.6" stroke="#9e62dd" stroke-miterlimit="10"/><path d="m993.1 713.9h-135.6v-280.5" stroke="#9e62dd" stroke-miterlimit="10"/></g></svg>