<?xml version="1.0" encoding="utf-8"?>
<!-- Generator: Adobe Illustrator 21.1.0, SVG Export Plug-In . SVG Version: 6.00 Build 0)  -->
<svg version="1.1" id="Layer_1" xmlns="http://www.w3.org/2000/svg" xmlns:xlink="http://www.w3.org/1999/xlink" x="0px" y="0px"
	 viewBox="0 0 490 110" style="enable-background:new 0 0 490 110;" xml:space="preserve">
<style type="text/css">
	.st0{fill:#536E7B;}
</style>
<g>
	<path class="st0" d="M44.7,72.7c2.5,0,4.7-0.2,6.7-0.6c1.9-0.4,3.8-1,5.5-1.7V58.4h-7.7c-1.1,0-2-0.3-2.7-0.9c-0.7-0.6-1-1.4-1-2.3
		v-10h27.9v33.1c-2,1.5-4.1,2.7-6.3,3.8c-2.2,1.1-4.5,1.9-6.9,2.6c-2.5,0.7-5.1,1.2-7.9,1.5c-2.8,0.3-5.8,0.5-9,0.5
		c-5.7,0-11-1-15.9-3c-4.9-2-9.1-4.8-12.7-8.4c-3.5-3.6-6.3-7.8-8.4-12.7c-2-4.9-3-10.2-3-15.9c0-5.9,1-11.2,2.9-16.1
		c1.9-4.9,4.7-9.1,8.3-12.7c3.6-3.5,8-6.3,13.1-8.3c5.1-2,10.8-3,17.1-3c3.3,0,6.3,0.3,9.2,0.8c2.9,0.5,5.5,1.3,7.9,2.2
		c2.4,0.9,4.6,2,6.6,3.3c2,1.3,3.8,2.7,5.4,4.2l-5.3,8c-0.5,0.8-1.1,1.4-1.8,1.8c-0.7,0.4-1.5,0.7-2.3,0.7c-1.1,0-2.2-0.4-3.3-1.1
		c-1.4-0.9-2.8-1.6-4.1-2.2c-1.3-0.6-2.6-1.1-3.9-1.5c-1.3-0.4-2.7-0.7-4.2-0.9s-3.1-0.3-4.9-0.3c-3.4,0-6.5,0.6-9.2,1.8
		c-2.7,1.2-5,2.9-7,5.1c-1.9,2.2-3.4,4.8-4.4,7.9c-1,3.1-1.6,6.5-1.6,10.2c0,4.2,0.6,7.8,1.7,11.1c1.1,3.2,2.7,5.9,4.8,8.2
		c2,2.2,4.4,3.9,7.2,5.1C38.3,72.1,41.4,72.7,44.7,72.7L44.7,72.7z M108.2,29.2c3.7,0,7.1,0.6,10.1,1.7c3.1,1.1,5.7,2.8,7.9,5
		c2.2,2.2,3.9,4.9,5.2,8c1.2,3.2,1.9,6.8,1.9,10.8c0,1.3-0.1,2.3-0.2,3.1c-0.1,0.8-0.3,1.4-0.6,1.9c-0.3,0.5-0.7,0.8-1.2,1
		c-0.5,0.2-1.1,0.3-1.8,0.3H97.4c0.5,4.7,1.9,8,4.2,10.1c2.3,2.1,5.3,3.1,8.9,3.1c1.9,0,3.6-0.2,5-0.7c1.4-0.5,2.6-1,3.7-1.6
		c1.1-0.6,2.1-1.1,3-1.6c0.9-0.5,1.9-0.7,2.9-0.7c1.3,0,2.3,0.5,3,1.4l4.8,6c-1.7,2-3.6,3.6-5.6,4.8c-2,1.2-4,2.2-6.1,2.9
		c-2.1,0.7-4.2,1.2-6.3,1.4c-2.1,0.3-4.1,0.4-6,0.4c-3.9,0-7.6-0.6-11-1.9c-3.4-1.3-6.4-3.2-9-5.7c-2.6-2.5-4.6-5.6-6.1-9.4
		c-1.5-3.7-2.2-8.1-2.2-13c0-3.7,0.6-7.3,1.9-10.6c1.3-3.3,3.1-6.3,5.5-8.8c2.4-2.5,5.3-4.5,8.7-6C100.1,29.9,104,29.2,108.2,29.2
		L108.2,29.2z M108.5,40.7c-3.2,0-5.7,0.9-7.5,2.7c-1.8,1.8-3,4.4-3.6,7.8h20.8c0-1.3-0.2-2.6-0.5-3.9c-0.3-1.3-0.9-2.4-1.7-3.4
		c-0.8-1-1.8-1.8-3-2.4C111.9,41,110.3,40.7,108.5,40.7L108.5,40.7z M162.4,86.7c-2.7,0-5-0.4-7-1.2c-2-0.8-3.7-1.9-5.1-3.3
		c-1.4-1.4-2.4-3.1-3.1-5.1c-0.7-2-1.1-4.3-1.1-6.7V41.6h-4.7c-0.9,0-1.6-0.3-2.2-0.8s-0.9-1.4-0.9-2.4v-6.5l8.9-1.7l3.3-13.6
		c0.4-1.7,1.6-2.6,3.7-2.6h8.7v16.3h13.5v11.4h-13.5v27.7c0,1.3,0.3,2.4,0.9,3.2c0.6,0.8,1.5,1.3,2.7,1.3c0.6,0,1.1-0.1,1.5-0.2
		c0.4-0.1,0.8-0.3,1.1-0.4c0.3-0.2,0.6-0.3,0.9-0.4c0.3-0.1,0.6-0.2,0.9-0.2c0.5,0,0.9,0.1,1.2,0.4c0.3,0.2,0.6,0.6,0.9,1.1l5.1,7.9
		c-2.2,1.6-4.6,2.8-7.3,3.6C168.1,86.3,165.3,86.7,162.4,86.7L162.4,86.7z M195.4,7.5c0.8,0,1.4,0,2,0.1c0.5,0.1,1,0.2,1.5,0.4
		c0.4,0.2,0.8,0.5,1.2,0.8c0.4,0.4,0.9,0.8,1.4,1.4l37.2,47.1c-0.1-1.5-0.3-3-0.3-4.4c-0.1-1.4-0.1-2.8-0.1-4V7.5h16v78.3h-9.5
		c-1.4,0-2.6-0.2-3.5-0.6c-1-0.4-1.9-1.2-2.8-2.4l-36.9-46.7c0.1,1.4,0.2,2.7,0.3,4c0.1,1.3,0.1,2.5,0.1,3.7v42h-16V7.5H195.4z
		 M284.4,30.1v55.7h-16.7V30.1H284.4z M286.3,14.8c0,1.3-0.3,2.6-0.8,3.7c-0.5,1.2-1.3,2.2-2.2,3.1c-0.9,0.9-2,1.6-3.3,2.1
		c-1.2,0.5-2.6,0.8-3.9,0.8c-1.4,0-2.6-0.3-3.8-0.8c-1.2-0.5-2.2-1.2-3.1-2.1c-0.9-0.9-1.6-1.9-2.2-3.1c-0.5-1.2-0.8-2.4-0.8-3.7
		c0-1.4,0.3-2.6,0.8-3.8c0.5-1.2,1.2-2.2,2.2-3.1c0.9-0.9,2-1.6,3.1-2.1c1.2-0.5,2.5-0.7,3.8-0.7c1.4,0,2.7,0.3,3.9,0.8
		c1.2,0.5,2.3,1.2,3.3,2.1c0.9,0.9,1.7,1.9,2.2,3.1C286,12.2,286.3,13.4,286.3,14.8L286.3,14.8z M297.8,85.8V30.1h10.3
		c1,0,1.9,0.2,2.6,0.7c0.7,0.5,1.2,1.2,1.5,2.1l1,3.2c1.1-1,2.2-1.9,3.3-2.8c1.2-0.9,2.4-1.6,3.7-2.2c1.3-0.6,2.7-1.1,4.3-1.4
		c1.5-0.3,3.2-0.5,5-0.5c3,0,5.7,0.5,8.1,1.6c2.4,1.1,4.3,2.5,5.9,4.4c1.6,1.9,2.8,4.1,3.7,6.7c0.8,2.6,1.2,5.4,1.2,8.5v35.4h-16.7
		V50.4c0-2.7-0.6-4.8-1.9-6.4c-1.3-1.5-3.1-2.3-5.5-2.3c-1.8,0-3.5,0.4-5.2,1.2s-3.2,1.9-4.6,3.2v39.7L297.8,85.8L297.8,85.8z
		 M377.4,30.1v55.9c0,2.6-0.3,5.1-1,7.4c-0.7,2.3-1.8,4.3-3.3,6.1c-1.5,1.7-3.5,3.1-6,4.1c-2.5,1-5.6,1.5-9.3,1.5
		c-1.4,0-2.6-0.1-3.8-0.2c-1.2-0.2-2.4-0.4-3.6-0.7l0.5-8.8c0.1-0.8,0.3-1.3,0.8-1.7c0.4-0.4,1.3-0.5,2.6-0.5s2.4-0.1,3.2-0.3
		c0.8-0.2,1.5-0.6,2-1.1s0.8-1.3,1-2.2c0.2-0.9,0.3-2.1,0.3-3.5V30.1H377.4L377.4,30.1z M379.3,14.8c0,1.3-0.3,2.6-0.8,3.7
		c-0.5,1.2-1.3,2.2-2.2,3.1c-0.9,0.9-2,1.6-3.3,2.1c-1.2,0.5-2.6,0.8-3.9,0.8c-1.4,0-2.6-0.3-3.8-0.8c-1.2-0.5-2.2-1.2-3.1-2.1
		c-0.9-0.9-1.6-1.9-2.2-3.1c-0.5-1.2-0.8-2.4-0.8-3.7c0-1.4,0.3-2.6,0.8-3.8c0.5-1.2,1.2-2.2,2.2-3.1c0.9-0.9,2-1.6,3.1-2.1
		c1.2-0.5,2.4-0.7,3.8-0.7c1.4,0,2.7,0.3,4,0.8c1.2,0.5,2.3,1.2,3.3,2.1c0.9,0.9,1.7,1.9,2.2,3.1C379,12.2,379.3,13.4,379.3,14.8
		L379.3,14.8z M429.1,85.8c-1.6,0-2.8-0.2-3.6-0.6c-0.8-0.4-1.5-1.3-2-2.7l-1.2-3.1c-1.4,1.2-2.7,2.2-4,3.1c-1.3,0.9-2.6,1.7-4,2.3
		c-1.4,0.6-2.9,1.1-4.4,1.4c-1.6,0.3-3.3,0.5-5.2,0.5c-2.5,0-4.9-0.3-6.9-1c-2.1-0.7-3.8-1.6-5.3-2.9c-1.4-1.3-2.6-2.9-3.4-4.8
		c-0.8-1.9-1.2-4.1-1.2-6.6c0-2,0.5-4,1.5-6.1c1-2.1,2.7-4,5.2-5.7c2.5-1.7,5.8-3.1,10-4.3c4.2-1.1,9.5-1.8,15.9-1.9V51
		c0-3.3-0.7-5.6-2-7.1c-1.3-1.4-3.3-2.2-5.7-2.2c-2,0-3.6,0.2-4.8,0.6c-1.3,0.4-2.4,0.9-3.4,1.5c-1,0.5-1.9,1-2.9,1.4
		c-0.9,0.4-2,0.7-3.3,0.7c-1.2,0-2.1-0.3-2.9-0.8c-0.8-0.6-1.4-1.2-1.9-2.1l-3-5.2c3.4-3,7.1-5.2,11.2-6.6c4.1-1.4,8.5-2.2,13.2-2.2
		c3.4,0,6.4,0.6,9.1,1.6c2.7,1.1,5,2.6,6.9,4.6c1.9,1.9,3.3,4.3,4.3,7c1,2.7,1.5,5.6,1.5,8.8v34.8L429.1,85.8z M410,75.6
		c2.2,0,4-0.4,5.6-1.1c1.6-0.8,3.2-2,4.9-3.7v-7.7c-3.3,0.1-6.1,0.4-8.2,0.9c-2.2,0.4-3.9,1-5.1,1.6c-1.3,0.6-2.1,1.4-2.6,2.2
		c-0.5,0.8-0.7,1.7-0.7,2.7c0,1.9,0.5,3.2,1.6,4C406.4,75.3,408,75.7,410,75.6L410,75.6z M482.6,42.3c-0.4,0.7-0.9,1.2-1.4,1.4
		c-0.5,0.3-1.1,0.4-1.9,0.4c-0.8,0-1.6-0.2-2.4-0.5c-0.8-0.3-1.6-0.7-2.6-1.1c-0.9-0.4-1.9-0.8-3.1-1.1c-1.2-0.3-2.5-0.5-3.9-0.5
		c-2.1,0-3.7,0.4-4.9,1.2c-1.1,0.8-1.7,1.9-1.7,3.4c0,1,0.4,1.9,1.1,2.6c0.7,0.7,1.7,1.3,2.9,1.8c1.2,0.5,2.6,1,4.1,1.5
		c1.5,0.5,3.1,1,4.7,1.6c1.6,0.6,3.2,1.3,4.7,2c1.5,0.8,2.9,1.7,4.1,2.9c1.2,1.1,2.2,2.5,2.9,4.1c0.7,1.6,1.1,3.6,1.1,5.8
		c0,2.8-0.5,5.3-1.5,7.6c-1,2.3-2.5,4.3-4.5,6c-2,1.7-4.4,3-7.4,3.9c-2.9,0.9-6.3,1.4-10.1,1.4c-1.9,0-3.8-0.2-5.7-0.5
		c-1.9-0.4-3.7-0.8-5.5-1.4c-1.8-0.6-3.4-1.3-4.9-2.2c-1.5-0.8-2.8-1.8-3.9-2.7l3.9-6.1c0.5-0.7,1-1.3,1.7-1.7
		c0.6-0.4,1.5-0.6,2.5-0.6c1,0,1.8,0.2,2.6,0.6l2.5,1.4c0.9,0.5,1.9,1,3.1,1.4c1.2,0.4,2.7,0.7,4.5,0.7c1.3,0,2.4-0.1,3.3-0.4
		c0.9-0.3,1.6-0.6,2.2-1.1c0.5-0.5,0.9-1,1.2-1.6c0.3-0.6,0.4-1.2,0.4-1.8c0-1.1-0.4-2-1.1-2.7c-0.7-0.7-1.7-1.3-2.9-1.9
		c-1.2-0.5-2.6-1-4.2-1.5c-1.6-0.4-3.2-1-4.8-1.5c-1.6-0.6-3.2-1.3-4.8-2.1c-1.6-0.8-2.9-1.8-4.2-3.1c-1.2-1.2-2.2-2.8-2.9-4.6
		c-0.8-1.8-1.1-4-1.1-6.5c0-2.4,0.5-4.6,1.4-6.7c0.9-2.1,2.3-4,4.1-5.6c1.8-1.6,4.1-2.9,6.9-3.9c2.8-0.9,6-1.4,9.7-1.4
		c2,0,3.9,0.2,5.8,0.5c1.9,0.4,3.6,0.9,5.3,1.5c1.7,0.6,3.2,1.4,4.5,2.3c1.4,0.9,2.6,1.8,3.6,2.9L482.6,42.3L482.6,42.3z"/>
</g>
</svg>
