<?xml version="1.0" encoding="UTF-8"?>
<svg width="37px" height="37px" viewBox="0 0 37 37" version="1.1" xmlns="http://www.w3.org/2000/svg" xmlns:xlink="http://www.w3.org/1999/xlink">
    <!-- Generator: Sketch 55.1 (78136) - https://sketchapp.com -->
    <title>facebook</title>
    <desc>Created with Sketch.</desc>
    <g id="Pages" stroke="none" stroke-width="1" fill="none" fill-rule="evenodd">
        <g id="Blog---Single" transform="translate(-419.000000, -1078.000000)">
            <g id="facebook" transform="translate(420.000000, 1079.000000)">
                <g transform="translate(13.000000, 10.000000)" fill="#28D1B1" fill-rule="nonzero" id="XMLID_835_">
                    <path d="M0.287365497,8.5216 L2.24035889,8.5216 L2.24035889,15.7419355 C2.24035889,15.8844903 2.36898368,16 2.52772438,16 L5.83909448,16 C5.99783518,16 6.12645998,15.8844903 6.12645998,15.7419355 L6.12645998,8.5556129 L8.37158913,8.5556129 C8.5175708,8.5556129 8.64039082,8.45723871 8.65705802,8.32701935 L8.99804591,5.66885161 C9.00741403,5.59571613 8.98160861,5.52247742 8.92712411,5.4676129 C8.87258214,5.41269677 8.79453367,5.38126452 8.7126345,5.38126452 L6.12657492,5.38126452 L6.12657492,3.71499355 C6.12657492,3.21269677 6.42773396,2.9579871 7.02177592,2.9579871 C7.10643379,2.9579871 8.7126345,2.9579871 8.7126345,2.9579871 C8.8713752,2.9579871 9,2.84242581 9,2.69992258 L9,0.259974194 C9,0.117419355 8.8713752,0.00190967742 8.7126345,0.00190967742 L6.38238769,0.00190967742 C6.36595038,0.00118709677 6.32945496,0 6.27566014,0 C5.87133689,0 4.46594719,0.0712774194 3.3557968,0.98843871 C2.12575753,2.0048 2.29674,3.22172903 2.33760337,3.43272258 L2.33760337,5.3812129 L0.287365497,5.3812129 C0.128624796,5.3812129 0,5.49672258 0,5.63927742 L0,8.26348387 C0,8.40603871 0.128624796,8.5216 0.287365497,8.5216 Z"></path>
                </g>
                <circle id="Oval-Copy" stroke="#28D1B1" stroke-width="2" cx="17.5" cy="17.5" r="17.5"></circle>
            </g>
        </g>
    </g>
</svg>