<?xml version="1.0" encoding="UTF-8"?>
<svg width="37px" height="37px" viewBox="0 0 37 37" version="1.1" xmlns="http://www.w3.org/2000/svg" xmlns:xlink="http://www.w3.org/1999/xlink">
    <!-- Generator: Sketch 55.1 (78136) - https://sketchapp.com -->
    <title>twitter</title>
    <desc>Created with Sketch.</desc>
    <g id="Pages" stroke="none" stroke-width="1" fill="none" fill-rule="evenodd">
        <g id="Blog---Single" transform="translate(-419.000000, -1128.000000)">
            <g id="twitter" transform="translate(420.000000, 1129.000000)">
                <g id="twitter-logo-silhouette" transform="translate(9.000000, 11.000000)" fill="#28D1B1" fill-rule="nonzero">
                    <path d="M16.375,1.71978882 C15.7861101,1.96072107 15.1542398,2.12411857 14.4903433,2.1970669 C15.1682268,1.82225926 15.6871296,1.22776176 15.9330646,0.521548563 C15.2971943,0.86864453 14.5953108,1.12068076 13.8474403,1.25730801 C13.2485635,0.66742108 12.396719,0.3 11.4518808,0.3 C9.63922429,0.3 8.1694964,1.65702719 8.1694964,3.32976953 C8.1694964,3.5670085 8.19848991,3.79871962 8.25449,4.02029232 C5.52700842,3.8938035 3.10846852,2.68725939 1.48977306,0.853871407 C1.20681835,1.30068595 1.04585077,1.82131783 1.04585077,2.37707209 C1.04585077,3.42854669 1.62574714,4.35630845 2.50559172,4.89910001 C1.96768234,4.88249232 1.46177302,4.74586507 1.01887033,4.51876452 L1.01887033,4.55661461 C1.01887033,6.02441609 2.15066303,7.2494266 3.65137137,7.52823308 C3.37641667,7.5965467 3.08648155,7.63439679 2.78653335,7.63439679 C2.57458529,7.63439679 2.36961764,7.61501311 2.16864999,7.5780803 C2.58655917,8.78278984 3.798352,9.65884567 5.23409291,9.68286406 C4.11129369,10.495241 2.69555281,10.9780469 1.15785095,10.9780469 C0.892909343,10.9780469 0.631941596,10.9632738 0.375,10.9365035 C1.8277344,11.7978104 3.55241696,12.3 5.40606704,12.3 C11.4439331,12.3 14.7443307,7.68240944 14.7443307,3.67780692 L14.7333241,3.2854743 C15.3781879,2.8607953 15.9360712,2.32722487 16.375,1.71978882 Z" id="Path"></path>
                </g>
                <circle id="Oval" stroke="#28D1B1" stroke-width="2" cx="17.5" cy="17.5" r="17.5"></circle>
            </g>
        </g>
    </g>
</svg>